<svg width="64" height="64" viewBox="0 0 64 64" fill="none" xmlns="http://www.w3.org/2000/svg">
<g clip-path="url(#clip0_145_37)">
<path fill-rule="evenodd" clip-rule="evenodd" d="M36.6391 63.9993H2.02314C1.60913 63.9993 1.27313 63.6629 1.27313 63.2493V0.750003C1.27313 0.336001 1.60913 0 2.02314 0H47.1512C47.5652 0 47.9012 0.336001 47.9012 0.750003V16.5874C47.9012 17.5744 46.4012 17.5744 46.4012 16.5874V1.50001H2.77314V62.4993H36.6391C37.6265 62.4993 37.6265 63.9993 36.6391 63.9993ZM47.1516 42.4742C46.7376 42.4742 46.4016 42.1378 46.4016 41.7242V24.1096C46.4016 23.1226 47.9016 23.1226 47.9016 24.1096V41.7242C47.9016 42.1382 47.5656 42.4742 47.1516 42.4742Z" fill="#737373"/>
<path fill-rule="evenodd" clip-rule="evenodd" d="M57.658 63.9996H36.6388C36.2248 63.9996 35.8888 63.6633 35.8888 63.2496V60.7521C35.8888 56.5094 38.9226 52.8902 43.1034 52.147C43.4173 52.0922 43.7304 52.2403 43.8876 52.5156C45.3238 55.0472 48.9741 55.0476 50.4111 52.5156C50.5679 52.24 50.881 52.0922 51.1949 52.147C55.375 52.8906 58.4095 56.5094 58.4095 60.7521V63.2496C58.4084 63.6636 58.0724 63.9996 57.6584 63.9996H57.658ZM37.3895 62.4996H56.908V60.7529C56.908 57.4034 54.6257 54.5237 51.4142 53.7272C49.3202 56.6455 44.9766 56.6459 42.8837 53.7272C39.6726 54.5233 37.3899 57.4037 37.3899 60.7529L37.3892 62.4996H37.3895Z" fill="#737373"/>
<path fill-rule="evenodd" clip-rule="evenodd" d="M47.1234 51.4633C44.2314 51.4633 41.8787 49.1102 41.8787 46.2186C41.8787 43.3269 44.2318 40.9738 47.1234 40.9738C50.0151 40.9738 52.3682 43.3269 52.3682 46.2186C52.3682 49.1102 50.0154 51.4633 47.1234 51.4633ZM47.1234 42.4738C45.0583 42.4738 43.379 44.1538 43.379 46.2182C43.379 48.2829 45.0587 49.9626 47.1234 49.9626C49.1882 49.9626 50.8678 48.2829 50.8678 46.2182C50.8678 44.1538 49.1886 42.4738 47.1234 42.4738Z" fill="#737373"/>
<path fill-rule="evenodd" clip-rule="evenodd" d="M30.485 25.5485H21.107C20.1196 25.5485 20.1196 24.0485 21.107 24.0485H30.485C31.472 24.0485 31.4728 25.5485 30.485 25.5485Z" fill="#737373"/>
<path fill-rule="evenodd" clip-rule="evenodd" d="M40.1222 34.8009H21.107C20.1196 34.8009 20.1196 33.3009 21.107 33.3009H40.1218C41.1088 33.3009 41.1092 34.8009 40.1222 34.8009Z" fill="#737373"/>
<path fill-rule="evenodd" clip-rule="evenodd" d="M40.1222 44.0529H21.107C20.1196 44.0529 20.1196 42.5529 21.107 42.5529H40.1218C41.1088 42.5529 41.1092 44.0529 40.1222 44.0529Z" fill="#737373"/>
<path fill-rule="evenodd" clip-rule="evenodd" d="M11.2541 25.5485C10.7006 25.5485 9.48864 24.0927 8.80689 23.4117C8.10826 22.7138 9.16914 21.6526 9.86739 22.3512L11.2545 23.7376L15.6315 19.3609C16.3302 18.6623 17.3903 19.7236 16.692 20.4215L11.7848 25.3287C11.6385 25.4746 11.4465 25.5481 11.2541 25.5481V25.5485Z" fill="#737373"/>
<path fill-rule="evenodd" clip-rule="evenodd" d="M10.9695 34.8009C10.416 34.8009 9.20329 33.3448 8.52266 32.6638C7.82366 31.9648 8.88604 30.9042 9.58317 31.6029L10.9695 32.9896L15.3473 28.6126C16.0459 27.914 17.1061 28.9752 16.4078 29.6731L11.5002 34.5808C11.3595 34.7218 11.1683 34.8009 10.9699 34.8009H10.9695Z" fill="#737373"/>
<path fill-rule="evenodd" clip-rule="evenodd" d="M10.9842 44.0548C10.4311 44.0548 9.21681 42.5976 8.53693 41.9177C7.83793 41.2187 8.89993 40.1585 9.59743 40.8568L10.9842 42.2435L15.3612 37.8665C16.0606 37.1672 17.1196 38.2303 16.4217 38.9274L11.5144 43.8347C11.3678 43.9813 11.1762 44.0544 10.9838 44.0544L10.9842 44.0548Z" fill="#737373"/>
<path fill-rule="evenodd" clip-rule="evenodd" d="M40.1222 15.0848H21.107C20.1196 15.0848 20.1196 13.5848 21.107 13.5848H40.1218C41.1092 13.5848 41.1092 15.0848 40.1222 15.0848Z" fill="#737373"/>
<path fill-rule="evenodd" clip-rule="evenodd" d="M11.2541 15.0848C10.6999 15.0848 9.48939 13.6294 8.80689 12.9481C8.10826 12.2502 9.16914 11.1889 9.86739 11.8876L11.2545 13.2739L15.6315 8.89691C16.3294 8.19829 17.3907 9.25954 16.692 9.95742L11.7848 14.8647C11.6438 15.0064 11.4533 15.0852 11.2541 15.0852V15.0848Z" fill="#737373"/>
<path fill-rule="evenodd" clip-rule="evenodd" d="M42.1254 29.885C41.9263 29.885 41.7358 29.8059 41.5948 29.6652L37.8339 25.9043C37.5406 25.6115 37.5406 25.1367 37.8339 24.8438L56.9076 5.76939C58.2362 4.44114 60.4015 4.44189 61.7297 5.76939C63.0587 7.0984 63.0595 9.26141 61.7305 10.5908L42.656 29.6652C42.515 29.8062 42.3245 29.8854 42.1254 29.8854V29.885ZM39.4254 25.3741L42.1262 28.0749L60.67 9.53141C62.4749 7.72615 59.71 5.09102 57.9692 6.83065L39.4254 25.3741Z" fill="#737373"/>
<path fill-rule="evenodd" clip-rule="evenodd" d="M36.2743 31.9756C35.7616 31.9756 35.3926 31.4649 35.5674 30.9736L37.6576 25.1221C37.9906 24.1928 39.4029 24.6968 39.0706 25.6261L37.5133 29.9866L41.873 28.4289C42.803 28.0985 43.3085 29.5092 42.3778 29.8411C41.6488 30.101 36.5803 31.976 36.2743 31.976V31.9756Z" fill="#737373"/>
<path fill-rule="evenodd" clip-rule="evenodd" d="M60.6036 11.4068C60.412 11.4068 60.2196 11.3333 60.073 11.1871L56.3117 7.42579C55.6127 6.72753 56.6751 5.66666 57.373 6.36528L61.1342 10.1262C61.6086 10.6002 61.2655 11.4064 60.604 11.4064L60.6036 11.4068Z" fill="#737373"/>
<path fill-rule="evenodd" clip-rule="evenodd" d="M58.7436 13.2672C58.552 13.2672 58.3596 13.1937 58.213 13.0474L54.4517 9.28654C53.7527 8.58828 54.8151 7.5274 55.5126 8.22603L59.2739 11.9869C59.7483 12.4609 59.4051 13.2672 58.7436 13.2672Z" fill="#737373"/>
</g>
<defs>
<clipPath id="clip0_145_37">
<rect width="64" height="64" fill="white"/>
</clipPath>
</defs>
</svg>
