<svg width="55" height="53" viewBox="0 0 55 53" fill="none" xmlns="http://www.w3.org/2000/svg">
<path d="M2.75 52.98C2.1 52.98 1.5625 52.7675 1.1375 52.3425C0.7125 51.9175 0.5 51.38 0.5 50.73V15.405C0.5 14.955 0.625 14.53 0.875 14.13C1.125 13.73 1.475 13.455 1.925 13.305L36.05 0.18C36.8 -0.12 37.5 -0.0450004 38.15 0.405C38.8 0.855 39.125 1.48 39.125 2.28V25.98H45.5C45.5 24.73 45.9375 23.6675 46.8125 22.7925C47.6875 21.9175 48.75 21.48 50 21.48C51.25 21.48 52.3125 21.9175 53.1875 22.7925C54.0625 23.6675 54.5 24.73 54.5 25.98V50.73C54.5 51.38 54.2875 51.9175 53.8625 52.3425C53.4375 52.7675 52.9 52.98 52.25 52.98H2.75ZM5 48.48H19.25V28.23C19.25 27.58 19.4625 27.0425 19.8875 26.6175C20.3125 26.1925 20.85 25.98 21.5 25.98H34.625V5.505L5 16.905V48.48ZM23.75 48.48H34.625V42.48C34.625 41.83 34.8375 41.2925 35.2625 40.8675C35.6875 40.4425 36.225 40.23 36.875 40.23C37.525 40.23 38.0625 40.4425 38.4875 40.8675C38.9125 41.2925 39.125 41.83 39.125 42.48V48.48H50V30.48H23.75V48.48Z" fill="white"/>
</svg>
