<svg width="55" height="60" viewBox="0 0 55 60" fill="none" xmlns="http://www.w3.org/2000/svg">
<path d="M8.375 60C6.175 60 4.3125 59.2375 2.7875 57.7125C1.2625 56.1875 0.5 54.325 0.5 52.125V42.75H10.025V0L14.525 4.5L19.025 0L23.45 4.5L27.95 0L32.45 4.5L36.95 0L41.45 4.5L45.95 0L50.45 4.5L54.95 0V52.125C54.95 54.325 54.1875 56.1875 52.6625 57.7125C51.1375 59.2375 49.275 60 47.075 60H8.375ZM47.075 55.5C48.075 55.5 48.8875 55.1875 49.5125 54.5625C50.1375 53.9375 50.45 53.125 50.45 52.125V7.5H14.525V42.75H43.7V52.125C43.7 53.125 44.0125 53.9375 44.6375 54.5625C45.2625 55.1875 46.075 55.5 47.075 55.5ZM18.5 19.35V14.85H36.5V19.35H18.5ZM18.5 29.4V24.9H36.5V29.4H18.5ZM43.475 19.35C42.875 19.35 42.35 19.125 41.9 18.675C41.45 18.225 41.225 17.7 41.225 17.1C41.225 16.5 41.45 15.975 41.9 15.525C42.35 15.075 42.875 14.85 43.475 14.85C44.075 14.85 44.6 15.075 45.05 15.525C45.5 15.975 45.725 16.5 45.725 17.1C45.725 17.7 45.5 18.225 45.05 18.675C44.6 19.125 44.075 19.35 43.475 19.35ZM43.475 29.025C42.875 29.025 42.35 28.8 41.9 28.35C41.45 27.9 41.225 27.375 41.225 26.775C41.225 26.175 41.45 25.65 41.9 25.2C42.35 24.75 42.875 24.525 43.475 24.525C44.075 24.525 44.6 24.75 45.05 25.2C45.5 25.65 45.725 26.175 45.725 26.775C45.725 27.375 45.5 27.9 45.05 28.35C44.6 28.8 44.075 29.025 43.475 29.025ZM8.3 55.5H39.2V47.25H5V52.125C5 53.125 5.3125 53.9375 5.9375 54.5625C6.5625 55.1875 7.35 55.5 8.3 55.5Z" fill="white"/>
</svg>
