<svg width="36" height="40" viewBox="0 0 36 40" fill="none" xmlns="http://www.w3.org/2000/svg">
<path d="M7.8 40C6.7 40 5.825 39.6833 5.175 39.05C4.525 38.4167 4.15 37.6 4.05 36.6L0 0H36L31.95 36.6C31.85 37.6 31.475 38.4167 30.825 39.05C30.175 39.6833 29.3167 40 28.25 40H7.8ZM4.7 15L7.1 37H28.9L31.3 15H4.7ZM4.35 12H31.65L32.65 3H3.35L4.35 12ZM18 34.35C19.5 34.35 20.775 33.8417 21.825 32.825C22.875 31.8083 23.4 30.55 23.4 29.05C23.4 27.4833 22.925 25.8167 21.975 24.05C21.025 22.2833 19.7 20.6 18 19C16.3 20.6 14.975 22.2833 14.025 24.05C13.075 25.8167 12.6 27.4833 12.6 29.05C12.6 30.55 13.125 31.8083 14.175 32.825C15.225 33.8417 16.5 34.35 18 34.35ZM31.3 15H4.7H31.3ZM18 31.35C17.3333 31.35 16.7667 31.1167 16.3 30.65C15.8333 30.1833 15.6 29.6167 15.6 28.95C15.6 28.25 15.7917 27.4167 16.175 26.45C16.5583 25.4833 17.1667 24.4667 18 23.4C18.8333 24.5 19.4417 25.5333 19.825 26.5C20.2083 27.4667 20.4 28.2833 20.4 28.95C20.4 29.6167 20.1667 30.1833 19.7 30.65C19.2333 31.1167 18.6667 31.35 18 31.35Z" fill="black"/>
</svg>
