<svg width="44" height="36" viewBox="0 0 44 36" fill="none" xmlns="http://www.w3.org/2000/svg">
<path d="M41.4 0H1.8C1.32261 0 0.864773 0.189642 0.527208 0.527208C0.189642 0.864773 0 1.32261 0 1.8L0 34.2C0 34.6774 0.189642 35.1352 0.527208 35.4728C0.864773 35.8104 1.32261 36 1.8 36H41.4C41.8774 36 42.3352 35.8104 42.6728 35.4728C43.0104 35.1352 43.2 34.6774 43.2 34.2V1.8C43.2 1.32261 43.0104 0.864773 42.6728 0.527208C42.3352 0.189642 41.8774 0 41.4 0ZM39.6 32.4H36V30.6H27V32.4H3.6V3.6H39.6V32.4ZM18.522 13.878C18.522 13.0617 18.8463 12.2788 19.4235 11.7015C20.0008 11.1243 20.7837 10.8 21.6 10.8C23.31 10.8 24.678 12.186 24.678 13.878C24.678 15.588 23.31 16.974 21.6 16.974C19.89 16.974 18.522 15.588 18.522 13.878ZM10.278 16.722C10.278 15.444 11.322 14.4 12.6 14.4C13.2158 14.4 13.8064 14.6446 14.2419 15.0801C14.6774 15.5156 14.922 16.1062 14.922 16.722C14.922 18 13.878 19.026 12.6 19.026C11.322 19.026 10.278 18 10.278 16.722ZM28.278 16.722C28.278 16.1062 28.5226 15.5156 28.9581 15.0801C29.3936 14.6446 29.9842 14.4 30.6 14.4C31.2158 14.4 31.8064 14.6446 32.2419 15.0801C32.6774 15.5156 32.922 16.1062 32.922 16.722C32.922 18 31.878 19.026 30.6 19.026C29.322 19.026 28.278 18 28.278 16.722ZM36 23.652V25.2H28.8H25.2H18H14.4H7.2V23.652C7.2 21.96 9.99 20.574 12.6 20.574C13.59 20.574 14.598 20.772 15.48 21.114C16.83 19.872 19.26 19.026 21.6 19.026C23.94 19.026 26.37 19.872 27.72 21.114C28.602 20.772 29.61 20.574 30.6 20.574C33.21 20.574 36 21.96 36 23.652Z" fill="#121212" fill-opacity="0.6"/>
</svg>
