<svg width="22" height="22" viewBox="0 0 22 22" fill="none" xmlns="http://www.w3.org/2000/svg">
<path d="M3.66634 19.25H17.4163C17.9026 19.25 18.3689 19.0568 18.7127 18.713C19.0565 18.3692 19.2497 17.9029 19.2497 17.4167V11.9167H15.583V13.75L11.9163 11L15.583 8.25V10.0833H19.2497V4.58333C19.2497 4.0971 19.0565 3.63079 18.7127 3.28697C18.3689 2.94315 17.9026 2.75 17.4163 2.75H3.66634C3.18011 2.75 2.7138 2.94315 2.36998 3.28697C2.02616 3.63079 1.83301 4.0971 1.83301 4.58333V17.4167C1.83301 17.9029 2.02616 18.3692 2.36998 18.713C2.7138 19.0568 3.18011 19.25 3.66634 19.25ZM3.66634 13.75H7.33301V15.5833H3.66634V13.75ZM3.66634 10.0833H10.083V11.9167H3.66634V10.0833ZM3.66634 6.41667H10.083V8.25H3.66634V6.41667ZM19.2497 10.0833H21.9997V11.9167H19.2497V10.0833Z" fill="#1C023B"/>
</svg>
