<svg width="138" height="29" viewBox="0 0 138 29" fill="none" xmlns="http://www.w3.org/2000/svg">
<rect width="138" height="29" fill="#002BBE" fill-opacity="0.1"/>
<path d="M11.6506 20H10.358L14.0966 9.81818H15.3693L19.108 20H17.8153L14.7727 11.429H14.6932L11.6506 20ZM12.1278 16.0227H17.3381V17.1165H12.1278V16.0227ZM23.4183 20.1591C22.782 20.1591 22.2202 19.9983 21.733 19.6768C21.2457 19.352 20.8646 18.8946 20.5895 18.3047C20.3144 17.7114 20.1768 17.0104 20.1768 16.2017C20.1768 15.3996 20.3144 14.7036 20.5895 14.1136C20.8646 13.5237 21.2474 13.0679 21.7379 12.7464C22.2285 12.425 22.7952 12.2642 23.4382 12.2642C23.9354 12.2642 24.3281 12.3471 24.6165 12.5128C24.9081 12.6752 25.1302 12.8608 25.2827 13.0696C25.4384 13.2751 25.5594 13.4441 25.6456 13.5767H25.745V9.81818H26.9183V20H25.7848V18.8267H25.6456C25.5594 18.9659 25.4368 19.1416 25.2777 19.3537C25.1186 19.5625 24.8916 19.7498 24.5966 19.9155C24.3016 20.0779 23.9089 20.1591 23.4183 20.1591ZM23.5774 19.1051C24.0481 19.1051 24.4458 18.9825 24.7706 18.7372C25.0954 18.4886 25.3423 18.1456 25.5114 17.7081C25.6804 17.2673 25.7649 16.7585 25.7649 16.1818C25.7649 15.6117 25.6821 15.1129 25.5163 14.6854C25.3506 14.2545 25.1054 13.9197 24.7805 13.6811C24.4557 13.4392 24.0547 13.3182 23.5774 13.3182C23.0803 13.3182 22.666 13.4458 22.3345 13.701C22.0064 13.9529 21.7595 14.2959 21.5938 14.7301C21.4313 15.161 21.3501 15.6449 21.3501 16.1818C21.3501 16.7254 21.433 17.2192 21.5987 17.6634C21.7678 18.1042 22.0163 18.4555 22.3445 18.7173C22.6759 18.9759 23.0869 19.1051 23.5774 19.1051ZM32.1136 20.1591C31.4773 20.1591 30.9155 19.9983 30.4283 19.6768C29.9411 19.352 29.5599 18.8946 29.2848 18.3047C29.0097 17.7114 28.8722 17.0104 28.8722 16.2017C28.8722 15.3996 29.0097 14.7036 29.2848 14.1136C29.5599 13.5237 29.9427 13.0679 30.4332 12.7464C30.9238 12.425 31.4905 12.2642 32.1335 12.2642C32.6307 12.2642 33.0234 12.3471 33.3118 12.5128C33.6035 12.6752 33.8255 12.8608 33.978 13.0696C34.1338 13.2751 34.2547 13.4441 34.3409 13.5767H34.4403V9.81818H35.6136V20H34.4801V18.8267H34.3409C34.2547 18.9659 34.1321 19.1416 33.973 19.3537C33.8139 19.5625 33.5869 19.7498 33.2919 19.9155C32.9969 20.0779 32.6042 20.1591 32.1136 20.1591ZM32.2727 19.1051C32.7434 19.1051 33.1411 18.9825 33.4659 18.7372C33.7907 18.4886 34.0376 18.1456 34.2067 17.7081C34.3757 17.2673 34.4602 16.7585 34.4602 16.1818C34.4602 15.6117 34.3774 15.1129 34.2116 14.6854C34.0459 14.2545 33.8007 13.9197 33.4759 13.6811C33.151 13.4392 32.75 13.3182 32.2727 13.3182C31.7756 13.3182 31.3613 13.4458 31.0298 13.701C30.7017 13.9529 30.4548 14.2959 30.2891 14.7301C30.1267 15.161 30.0455 15.6449 30.0455 16.1818C30.0455 16.7254 30.1283 17.2192 30.294 17.6634C30.4631 18.1042 30.7116 18.4555 31.0398 18.7173C31.3712 18.9759 31.7822 19.1051 32.2727 19.1051ZM42.022 20V9.81818H48.1271V10.9119H43.255V14.3523H47.6697V15.446H43.255V20H42.022ZM50.0797 20V12.3636H51.253V20H50.0797ZM50.6763 11.0909C50.4476 11.0909 50.2504 11.013 50.0847 10.8572C49.9223 10.7015 49.8411 10.5142 49.8411 10.2955C49.8411 10.0767 49.9223 9.88944 50.0847 9.73366C50.2504 9.57789 50.4476 9.5 50.6763 9.5C50.905 9.5 51.1006 9.57789 51.263 9.73366C51.4287 9.88944 51.5115 10.0767 51.5115 10.2955C51.5115 10.5142 51.4287 10.7015 51.263 10.8572C51.1006 11.013 50.905 11.0909 50.6763 11.0909ZM54.5753 9.81818V20H53.402V9.81818H54.5753ZM59.926 20.1591C59.1902 20.1591 58.5555 19.9967 58.0218 19.6719C57.4915 19.3438 57.0822 18.8864 56.7939 18.2997C56.5088 17.7098 56.3663 17.0237 56.3663 16.2415C56.3663 15.4593 56.5088 14.7699 56.7939 14.1733C57.0822 13.5734 57.4833 13.1061 57.997 12.7713C58.514 12.4332 59.1172 12.2642 59.8066 12.2642C60.2044 12.2642 60.5971 12.3305 60.9849 12.4631C61.3727 12.5956 61.7257 12.8111 62.0439 13.1094C62.362 13.4044 62.6156 13.7955 62.8045 14.2827C62.9934 14.7699 63.0879 15.3698 63.0879 16.0824V16.5795H57.2015V15.5653H61.8947C61.8947 15.1345 61.8085 14.75 61.6362 14.4119C61.4672 14.0739 61.2252 13.8071 60.9103 13.6115C60.5988 13.416 60.2309 13.3182 59.8066 13.3182C59.3393 13.3182 58.935 13.4342 58.5936 13.6662C58.2555 13.8949 57.9953 14.1932 57.813 14.5611C57.6307 14.929 57.5396 15.3234 57.5396 15.7443V16.4205C57.5396 16.9972 57.639 17.486 57.8379 17.8871C58.0401 18.2848 58.3201 18.5881 58.6781 18.7969C59.036 19.0024 59.452 19.1051 59.926 19.1051C60.2342 19.1051 60.5126 19.062 60.7612 18.9759C61.0131 18.8864 61.2302 18.7538 61.4125 18.5781C61.5948 18.3991 61.7356 18.1771 61.835 17.9119L62.9686 18.2301C62.8493 18.6146 62.6487 18.9527 62.367 19.2443C62.0853 19.5327 61.7373 19.758 61.323 19.9205C60.9087 20.0795 60.443 20.1591 59.926 20.1591ZM77.5602 14.9091C77.5602 15.983 77.3663 16.911 76.9785 17.6932C76.5907 18.4754 76.0588 19.0786 75.3826 19.5028C74.7065 19.9271 73.9342 20.1392 73.0659 20.1392C72.1975 20.1392 71.4252 19.9271 70.7491 19.5028C70.073 19.0786 69.541 18.4754 69.1532 17.6932C68.7654 16.911 68.5716 15.983 68.5716 14.9091C68.5716 13.8352 68.7654 12.9072 69.1532 12.125C69.541 11.3428 70.073 10.7396 70.7491 10.3153C71.4252 9.8911 72.1975 9.67898 73.0659 9.67898C73.9342 9.67898 74.7065 9.8911 75.3826 10.3153C76.0588 10.7396 76.5907 11.3428 76.9785 12.125C77.3663 12.9072 77.5602 13.8352 77.5602 14.9091ZM76.367 14.9091C76.367 14.0275 76.2195 13.2834 75.9245 12.6768C75.6329 12.0703 75.2368 11.6113 74.7363 11.2997C74.2392 10.9882 73.6824 10.8324 73.0659 10.8324C72.4494 10.8324 71.8909 10.9882 71.3904 11.2997C70.8933 11.6113 70.4972 12.0703 70.2022 12.6768C69.9106 13.2834 69.7647 14.0275 69.7647 14.9091C69.7647 15.7907 69.9106 16.5348 70.2022 17.1413C70.4972 17.7479 70.8933 18.2069 71.3904 18.5185C71.8909 18.83 72.4494 18.9858 73.0659 18.9858C73.6824 18.9858 74.2392 18.83 74.7363 18.5185C75.2368 18.2069 75.6329 17.7479 75.9245 17.1413C76.2195 16.5348 76.367 15.7907 76.367 14.9091ZM79.4743 20V12.3636H80.6078V13.517H80.6873C80.8265 13.1392 81.0784 12.8326 81.443 12.5973C81.8076 12.362 82.2186 12.2443 82.676 12.2443C82.7621 12.2443 82.8699 12.246 82.9991 12.2493C83.1284 12.2526 83.2261 12.2576 83.2924 12.2642V13.4574C83.2527 13.4474 83.1615 13.4325 83.019 13.4126C82.8798 13.3894 82.7323 13.3778 82.5765 13.3778C82.2053 13.3778 81.8739 13.4557 81.5822 13.6115C81.2939 13.764 81.0652 13.9761 80.8961 14.2479C80.7304 14.5163 80.6475 14.8229 80.6475 15.1676V20H79.4743ZM90.0128 9.81818V20H88.7798V9.81818H90.0128ZM92.3258 20V12.3636H93.4593V13.5568H93.5588C93.7179 13.1491 93.9747 12.8326 94.3294 12.6072C94.684 12.3786 95.1099 12.2642 95.6071 12.2642C96.1109 12.2642 96.5301 12.3786 96.8649 12.6072C97.2029 12.8326 97.4664 13.1491 97.6554 13.5568H97.7349C97.9305 13.1624 98.2238 12.8492 98.6149 12.6172C99.006 12.3819 99.475 12.2642 100.022 12.2642C100.705 12.2642 101.263 12.478 101.697 12.9055C102.131 13.3298 102.349 13.991 102.349 14.8892V20H101.175V14.8892C101.175 14.3258 101.021 13.9231 100.713 13.6811C100.405 13.4392 100.042 13.3182 99.6241 13.3182C99.0872 13.3182 98.6712 13.4806 98.3762 13.8054C98.0813 14.1269 97.9338 14.5346 97.9338 15.0284V20H96.7406V14.7699C96.7406 14.3357 96.5997 13.986 96.318 13.7209C96.0363 13.4524 95.6734 13.3182 95.2292 13.3182C94.9243 13.3182 94.6393 13.3994 94.3741 13.5618C94.1123 13.7242 93.9002 13.9496 93.7377 14.2379C93.5787 14.523 93.4991 14.8527 93.4991 15.2273V20H92.3258ZM106.741 20.179C106.257 20.179 105.818 20.0878 105.423 19.9055C105.029 19.7199 104.716 19.4531 104.484 19.1051C104.252 18.7538 104.136 18.3295 104.136 17.8324C104.136 17.3949 104.222 17.0402 104.394 16.7685C104.567 16.4934 104.797 16.2779 105.085 16.1222C105.374 15.9664 105.692 15.8504 106.04 15.7741C106.391 15.6946 106.744 15.6316 107.099 15.5852C107.563 15.5256 107.939 15.4808 108.227 15.451C108.519 15.4179 108.731 15.3632 108.864 15.2869C109 15.2107 109.068 15.0781 109.068 14.8892V14.8494C109.068 14.3589 108.933 13.9777 108.665 13.706C108.4 13.4342 107.997 13.2983 107.457 13.2983C106.897 13.2983 106.458 13.4209 106.139 13.6662C105.821 13.9115 105.597 14.1733 105.468 14.4517L104.355 14.054C104.553 13.59 104.819 13.2287 105.15 12.9702C105.485 12.7083 105.849 12.526 106.244 12.4233C106.642 12.3172 107.033 12.2642 107.417 12.2642C107.662 12.2642 107.944 12.294 108.262 12.3537C108.584 12.41 108.894 12.5277 109.192 12.7067C109.494 12.8857 109.744 13.1558 109.943 13.517C110.142 13.8783 110.241 14.3622 110.241 14.9688V20H109.068V18.9659H109.008C108.928 19.1316 108.796 19.3089 108.61 19.4979C108.425 19.6868 108.178 19.8475 107.869 19.9801C107.561 20.1127 107.185 20.179 106.741 20.179ZM106.92 19.125C107.384 19.125 107.775 19.0339 108.093 18.8516C108.415 18.6693 108.657 18.4339 108.819 18.1456C108.985 17.8572 109.068 17.554 109.068 17.2358V16.1619C109.018 16.2216 108.909 16.2763 108.74 16.326C108.574 16.3724 108.382 16.4138 108.163 16.4503C107.947 16.4834 107.737 16.5133 107.531 16.5398C107.329 16.563 107.165 16.5829 107.039 16.5994C106.734 16.6392 106.449 16.7038 106.184 16.7933C105.922 16.8795 105.71 17.0104 105.548 17.1861C105.389 17.3584 105.309 17.5937 105.309 17.892C105.309 18.2997 105.46 18.608 105.762 18.8168C106.066 19.0223 106.453 19.125 106.92 19.125ZM115.465 23.0227C114.898 23.0227 114.411 22.9498 114.003 22.804C113.596 22.6615 113.256 22.4725 112.984 22.2372C112.716 22.0052 112.502 21.7566 112.343 21.4915L113.277 20.8352C113.383 20.9744 113.518 21.1335 113.68 21.3125C113.842 21.4948 114.065 21.6522 114.346 21.7848C114.631 21.9207 115.004 21.9886 115.465 21.9886C116.081 21.9886 116.59 21.8395 116.991 21.5412C117.392 21.2429 117.593 20.7756 117.593 20.1392V18.5881H117.493C117.407 18.7273 117.284 18.8996 117.125 19.1051C116.97 19.3073 116.744 19.4879 116.449 19.647C116.158 19.8028 115.763 19.8807 115.266 19.8807C114.65 19.8807 114.096 19.7348 113.605 19.4432C113.118 19.1515 112.732 18.7273 112.447 18.1705C112.165 17.6136 112.025 16.9375 112.025 16.142C112.025 15.3598 112.162 14.6787 112.437 14.0987C112.712 13.5154 113.095 13.0646 113.586 12.7464C114.076 12.425 114.643 12.2642 115.286 12.2642C115.783 12.2642 116.177 12.3471 116.469 12.5128C116.764 12.6752 116.989 12.8608 117.145 13.0696C117.304 13.2751 117.427 13.4441 117.513 13.5767H117.632V12.3636H118.766V20.2188C118.766 20.875 118.617 21.4086 118.319 21.8196C118.024 22.2339 117.626 22.5372 117.125 22.7294C116.628 22.925 116.075 23.0227 115.465 23.0227ZM115.425 18.8267C115.896 18.8267 116.293 18.719 116.618 18.5036C116.943 18.2881 117.19 17.9782 117.359 17.5739C117.528 17.1695 117.613 16.6856 117.613 16.1222C117.613 15.572 117.53 15.0864 117.364 14.6655C117.198 14.2446 116.953 13.9148 116.628 13.6761C116.303 13.4375 115.902 13.3182 115.425 13.3182C114.928 13.3182 114.514 13.4441 114.182 13.696C113.854 13.9479 113.607 14.286 113.441 14.7102C113.279 15.1345 113.198 15.6051 113.198 16.1222C113.198 16.6525 113.281 17.1214 113.446 17.5291C113.615 17.9335 113.864 18.2517 114.192 18.4837C114.524 18.7124 114.935 18.8267 115.425 18.8267ZM124.115 20.1591C123.38 20.1591 122.745 19.9967 122.211 19.6719C121.681 19.3438 121.272 18.8864 120.983 18.2997C120.698 17.7098 120.556 17.0237 120.556 16.2415C120.556 15.4593 120.698 14.7699 120.983 14.1733C121.272 13.5734 121.673 13.1061 122.186 12.7713C122.703 12.4332 123.307 12.2642 123.996 12.2642C124.394 12.2642 124.787 12.3305 125.174 12.4631C125.562 12.5956 125.915 12.8111 126.233 13.1094C126.551 13.4044 126.805 13.7955 126.994 14.2827C127.183 14.7699 127.277 15.3698 127.277 16.0824V16.5795H121.391V15.5653H126.084C126.084 15.1345 125.998 14.75 125.826 14.4119C125.657 14.0739 125.415 13.8071 125.1 13.6115C124.788 13.416 124.42 13.3182 123.996 13.3182C123.529 13.3182 123.124 13.4342 122.783 13.6662C122.445 13.8949 122.185 14.1932 122.002 14.5611C121.82 14.929 121.729 15.3234 121.729 15.7443V16.4205C121.729 16.9972 121.828 17.486 122.027 17.8871C122.23 18.2848 122.51 18.5881 122.868 18.7969C123.225 19.0024 123.641 19.1051 124.115 19.1051C124.424 19.1051 124.702 19.062 124.951 18.9759C125.203 18.8864 125.42 18.7538 125.602 18.5781C125.784 18.3991 125.925 18.1771 126.025 17.9119L127.158 18.2301C127.039 18.6146 126.838 18.9527 126.556 19.2443C126.275 19.5327 125.927 19.758 125.512 19.9205C125.098 20.0795 124.632 20.1591 124.115 20.1591Z" fill="#002BBE"/>
</svg>
