<svg width="48" height="48" viewBox="0 0 48 48" fill="none" xmlns="http://www.w3.org/2000/svg">
<rect width="48" height="48" rx="24" fill="#4B1A85" fill-opacity="0.1"/>
<path d="M30.9993 33.4833H31.1493V33.3333V20.4999V20.3499H30.9993H25.316V14.6666V14.5166H25.166H16.9993H16.8493V14.6666V33.3333V33.4833H16.9993H30.9993ZM21.316 30.685L22.0449 27.7696L22.0673 27.6801L21.9974 27.6197L19.7064 25.6412L22.7263 25.4329L22.8196 25.4265L22.8549 25.3398L24.002 22.5244L25.1445 25.225L25.1804 25.3099L25.2724 25.3162L28.2923 25.5245L26.0013 27.5031L25.9314 27.5634L25.9538 27.653L26.6863 30.5827L24.0726 29.119L23.9968 29.0765L23.9222 29.1213L21.316 30.685ZM16.9993 12.4833H26.2705L33.1827 19.3954V33.3333C33.1827 34.5337 32.1998 35.5166 30.9993 35.5166H16.9993C15.7989 35.5166 14.816 34.5337 14.816 33.3333V14.6666C14.816 13.4661 15.7989 12.4833 16.9993 12.4833Z" fill="#1C023B" stroke="#EDE8F3" stroke-width="0.3"/>
</svg>
