<svg width="42" height="42" viewBox="0 0 42 42" fill="none" xmlns="http://www.w3.org/2000/svg">
<circle cx="21" cy="21" r="21" fill="#4B1A85" fill-opacity="0.1"/>
<path d="M14.0013 9.33301C12.7063 9.33301 11.668 10.3713 11.668 11.6663V30.333C11.668 30.9518 11.9138 31.5453 12.3514 31.9829C12.789 32.4205 13.3825 32.6663 14.0013 32.6663H18.668V30.438L21.1063 27.9997H14.0013V25.6663H23.4396L25.773 23.333H14.0013V20.9997H28.1063L30.3346 18.7713V16.333L23.3346 9.33301H14.0013ZM22.168 11.083L28.5846 17.4997H22.168V11.083ZM30.5096 22.1663C30.3346 22.1663 30.1713 22.2247 30.043 22.353L28.853 23.543L31.2913 25.9697L32.4813 24.7913C32.7263 24.5347 32.7263 24.1147 32.4813 23.8697L30.9646 22.353C30.8363 22.2247 30.673 22.1663 30.5096 22.1663ZM28.1646 24.2313L21.0013 31.4063V33.833H23.428L30.603 26.658L28.1646 24.2313Z" fill="#1C023B"/>
</svg>
