<svg width="49" height="35" viewBox="0 0 49 35" fill="none" xmlns="http://www.w3.org/2000/svg">
<path d="M31.125 21.875C25.2844 21.875 13.625 24.7844 13.625 30.625V35H48.625V30.625C48.625 24.7844 36.9656 21.875 31.125 21.875ZM11.4375 13.125V6.5625H7.0625V13.125H0.5V17.5H7.0625V24.0625H11.4375V17.5H18V13.125H11.4375ZM31.125 17.5C33.4456 17.5 35.6712 16.5781 37.3122 14.9372C38.9531 13.2962 39.875 11.0706 39.875 8.75C39.875 6.42936 38.9531 4.20376 37.3122 2.56282C35.6712 0.921872 33.4456 0 31.125 0C28.8044 0 26.5788 0.921872 24.9378 2.56282C23.2969 4.20376 22.375 6.42936 22.375 8.75C22.375 11.0706 23.2969 13.2962 24.9378 14.9372C26.5788 16.5781 28.8044 17.5 31.125 17.5Z" fill="#121212" fill-opacity="0.6"/>
</svg>
