<svg width="25" height="24" viewBox="0 0 25 24" fill="none" xmlns="http://www.w3.org/2000/svg">
<path d="M22.4833 2.66634V2.51634H22.3333H10.8143C10.7915 1.8092 10.6088 1.11485 10.2881 0.483008H22.3333C22.9124 0.483008 23.4677 0.713037 23.8772 1.12249C24.2866 1.53195 24.5167 2.08729 24.5167 2.66634V15.4997C24.5167 16.0787 24.2866 16.6341 23.8772 17.0435C23.4677 17.453 22.9124 17.683 22.3333 17.683H11.9833V15.6497H22.3333H22.4833V15.4997V2.66634ZM2.5 14.183H0.9V8.49967C0.9 7.92062 1.13003 7.36528 1.53948 6.95583C1.94894 6.54637 2.50428 6.31634 3.08333 6.31634H16.35V8.34968H9.5H9.35V8.49967V23.5163H7.31667V16.6663V16.5163H7.16667H4.83333H4.68333V16.6663V23.5163H2.65V14.333V14.183H2.5ZM8.18333 2.66634C8.18333 3.2454 7.9533 3.80074 7.54385 4.21019C7.1344 4.61965 6.57906 4.84967 6 4.84967C5.42094 4.84967 4.8656 4.61965 4.45615 4.21019C4.0467 3.80074 3.81667 3.2454 3.81667 2.66634C3.81667 2.08729 4.0467 1.53195 4.45615 1.12249C4.8656 0.713037 5.42094 0.483008 6 0.483008C6.57906 0.483008 7.1344 0.713037 7.54385 1.12249C7.9533 1.53195 8.18333 2.08729 8.18333 2.66634Z" fill="#121212" fill-opacity="0.5" stroke="white" stroke-width="0.3"/>
</svg>
