<svg width="45" height="49" viewBox="0 0 45 49" fill="none" xmlns="http://www.w3.org/2000/svg">
<path d="M18 37.6875C18 40.05 18.5469 42.2594 19.4875 44.25H4.875C2.44687 44.25 0.5 42.3031 0.5 39.875V4.875C0.5 2.46875 2.44687 0.5 4.875 0.5H7.0625V15.8125L12.5312 12.5312L18 15.8125V0.5H31.125C33.5313 0.5 35.5 2.44687 35.5 4.875V22.55C34.7781 22.4406 34.0563 22.375 33.3125 22.375C24.8469 22.375 18 29.2219 18 37.6875ZM43.8125 40.75C44.0312 40.75 44.0312 40.9688 43.8125 41.1875L41.625 44.9062C41.4062 45.125 41.1875 45.125 40.9688 45.125L38.3437 44.25C37.6875 44.6875 37.25 44.9062 36.5938 45.3438L36.1562 48.1875C36.1562 48.4062 35.9375 48.625 35.7188 48.625H31.3438C31.125 48.625 30.9062 48.4062 30.6875 48.1875L30.25 45.3438C29.5938 45.125 28.9375 44.6875 28.5 44.25L25.875 45.3438C25.6563 45.3438 25.4375 45.3437 25.2188 45.125L23.0313 41.4063C22.8125 41.1875 23.0312 40.9687 23.25 40.75L25.6562 39V36.8125L23.25 35.0625C23.0312 34.8437 23.0313 34.625 23.0313 34.4062L25.2188 30.6875C25.4375 30.4688 25.6563 30.4687 25.875 30.4687L28.5 31.5625C29.1562 31.125 29.5938 30.9062 30.25 30.4687L30.6875 27.625C30.6875 27.4062 30.9063 27.1875 31.3438 27.1875H35.7188C35.9375 27.1875 36.1562 27.4062 36.1562 27.625L36.5938 30.4687C37.25 30.6875 37.9062 31.125 38.5625 31.5625L41.1875 30.4687C41.4063 30.4687 41.8437 30.4688 41.8437 30.6875L44.0312 34.4062C44.25 34.625 44.0312 34.8437 43.8125 35.0625L41.4063 36.8125V39L43.8125 40.75ZM36.5938 37.6875C36.5938 35.9375 35.0625 34.4062 33.3125 34.4062C31.5625 34.4062 30.0312 35.9375 30.0312 37.6875C30.0312 39.4375 31.5625 40.9688 33.3125 40.9688C35.0625 40.9688 36.5938 39.4375 36.5938 37.6875Z" fill="#121212" fill-opacity="0.6"/>
</svg>
