<svg width="54" height="54" viewBox="0 0 54 54" fill="none" xmlns="http://www.w3.org/2000/svg">
<path d="M49.005 20.3175C47.7 15.9525 45.2588 12.2738 41.6813 9.28125C38.1038 6.28875 33.885 4.5675 29.025 4.1175V8.775L49.005 20.3175ZM14.6475 31.59L24.975 25.515V4.1175C23.13 4.3425 21.3412 4.725 19.6087 5.265C17.8762 5.805 16.2225 6.5925 14.6475 7.6275V31.59ZM6.1425 36.6525L10.5975 34.02V10.8675C8.4825 13.0275 6.8625 15.5138 5.7375 18.3263C4.6125 21.1388 4.05 24.03 4.05 27C4.05 28.755 4.23 30.4087 4.59 31.9612C4.95 33.5137 5.4675 35.0775 6.1425 36.6525V36.6525ZM16.47 47.4525L37.5975 35.235L27 29.025L8.1 40.1625C9.18 41.6475 10.4287 43.0313 11.8462 44.3138C13.2637 45.5963 14.805 46.6425 16.47 47.4525V47.4525ZM27 49.95C30.87 49.95 34.4475 49.0838 37.7325 47.3513C41.0175 45.6188 43.74 43.2225 45.9 40.1625L41.5125 37.5975L21.465 49.275C22.365 49.5 23.2875 49.6688 24.2325 49.7813C25.1775 49.8938 26.1 49.95 27 49.95ZM47.8575 36.585C48.6675 34.875 49.23 33.1425 49.545 31.3875C49.86 29.6325 49.995 27.765 49.95 25.785L29.025 13.5675V25.515L47.8575 36.585ZM27 54C23.265 54 19.755 53.2912 16.47 51.8737C13.185 50.4562 10.3275 48.5325 7.8975 46.1025C5.4675 43.6725 3.54375 40.815 2.12625 37.53C0.70875 34.245 0 30.735 0 27C0 23.265 0.70875 19.755 2.12625 16.47C3.54375 13.185 5.4675 10.3275 7.8975 7.8975C10.3275 5.4675 13.185 3.54375 16.47 2.12625C19.755 0.70875 23.265 0 27 0C30.735 0 34.245 0.70875 37.53 2.12625C40.815 3.54375 43.6725 5.4675 46.1025 7.8975C48.5325 10.3275 50.4562 13.185 51.8737 16.47C53.2912 19.755 54 23.265 54 27C54 30.735 53.2912 34.245 51.8737 37.53C50.4562 40.815 48.5325 43.6725 46.1025 46.1025C43.6725 48.5325 40.815 50.4562 37.53 51.8737C34.245 53.2912 30.735 54 27 54Z" fill="black" fill-opacity="0.6"/>
</svg>
