<svg width="20" height="22" viewBox="0 0 20 22" fill="none" xmlns="http://www.w3.org/2000/svg">
<path d="M8 17C8 18.08 8.25 19.09 8.68 20H2C0.89 20 0 19.11 0 18V2C0 0.9 0.89 0 2 0H3V7L5.5 5.5L8 7V0H14C15.1 0 16 0.89 16 2V10.08C15.67 10.03 15.34 10 15 10C11.13 10 8 13.13 8 17ZM19.8 18.4C19.9 18.4 19.9 18.5 19.8 18.6L18.8 20.3C18.7 20.4 18.6 20.4 18.5 20.4L17.3 20C17 20.2 16.8 20.3 16.5 20.5L16.3 21.8C16.3 21.9 16.2 22 16.1 22H14.1C14 22 13.9 21.9 13.8 21.8L13.6 20.5C13.3 20.4 13 20.2 12.8 20L11.6 20.5C11.5 20.5 11.4 20.5 11.3 20.4L10.3 18.7C10.2 18.6 10.3 18.5 10.4 18.4L11.5 17.6V16.6L10.4 15.8C10.3 15.7 10.3 15.6 10.3 15.5L11.3 13.8C11.4 13.7 11.5 13.7 11.6 13.7L12.8 14.2C13.1 14 13.3 13.9 13.6 13.7L13.8 12.4C13.8 12.3 13.9 12.2 14.1 12.2H16.1C16.2 12.2 16.3 12.3 16.3 12.4L16.5 13.7C16.8 13.8 17.1 14 17.4 14.2L18.6 13.7C18.7 13.7 18.9 13.7 18.9 13.8L19.9 15.5C20 15.6 19.9 15.7 19.8 15.8L18.7 16.6V17.6L19.8 18.4ZM16.5 17C16.5 16.2 15.8 15.5 15 15.5C14.2 15.5 13.5 16.2 13.5 17C13.5 17.8 14.2 18.5 15 18.5C15.8 18.5 16.5 17.8 16.5 17Z" fill="white"/>
</svg>
