<svg width="28" height="20" viewBox="0 0 28 20" fill="none" xmlns="http://www.w3.org/2000/svg">
<path d="M4.66667 2.85033H4.51667V3.00033V14.667V14.817H4.66667H23.3333H23.4833V14.667V3.00033V2.85033H23.3333H4.66667ZM4.66667 17.0003V16.8503C4.08761 16.8503 3.53227 16.6203 3.12282 16.2108C2.71336 15.8014 2.48333 15.246 2.48333 14.667V3.00033C2.48333 1.78817 3.45451 0.816992 4.66667 0.816992H23.3333C24.5343 0.816992 25.5167 1.78866 25.5167 3.00033V14.667C25.5167 15.246 25.2866 15.8014 24.8772 16.2108C24.4677 16.6203 23.9124 16.8503 23.3333 16.8503V17.0003V17.1503H27.85V19.1837H0.15V17.1503H4.66667V17.0003Z" fill="#121212" fill-opacity="0.5" stroke="white" stroke-width="0.3"/>
</svg>
