<svg width="42" height="42" viewBox="0 0 42 42" fill="none" xmlns="http://www.w3.org/2000/svg">
<circle cx="21" cy="21" r="21" fill="white"/>
<path d="M26.8333 17.5003H15.1667V15.167H26.8333M26.8333 22.167H15.1667V19.8337H26.8333M23.3333 26.8337H15.1667V24.5003H23.3333M21 10.5003C21.3094 10.5003 21.6062 10.6232 21.825 10.842C22.0437 11.0608 22.1667 11.3576 22.1667 11.667C22.1667 11.9764 22.0437 12.2732 21.825 12.492C21.6062 12.7107 21.3094 12.8337 21 12.8337C20.6906 12.8337 20.3938 12.7107 20.175 12.492C19.9562 12.2732 19.8333 11.9764 19.8333 11.667C19.8333 11.3576 19.9562 11.0608 20.175 10.842C20.3938 10.6232 20.6906 10.5003 21 10.5003ZM29.1667 10.5003H24.29C23.8 9.14699 22.5167 8.16699 21 8.16699C19.4833 8.16699 18.2 9.14699 17.71 10.5003H12.8333C12.2145 10.5003 11.621 10.7462 11.1834 11.1837C10.7458 11.6213 10.5 12.2148 10.5 12.8337V29.167C10.5 29.7858 10.7458 30.3793 11.1834 30.8169C11.621 31.2545 12.2145 31.5003 12.8333 31.5003H29.1667C29.7855 31.5003 30.379 31.2545 30.8166 30.8169C31.2542 30.3793 31.5 29.7858 31.5 29.167V12.8337C31.5 12.2148 31.2542 11.6213 30.8166 11.1837C30.379 10.7462 29.7855 10.5003 29.1667 10.5003Z" fill="#FCAB40"/>
<circle cx="39" cy="3" r="3" fill="#FCAB40"/>
</svg>
