<svg width="42" height="42" viewBox="0 0 42 42" fill="none" xmlns="http://www.w3.org/2000/svg">
<circle cx="21" cy="21" r="21" fill="#4B1A85" fill-opacity="0.1"/>
<path d="M26.8333 17.4993H15.1667V15.166H26.8333M26.8333 22.166H15.1667V19.8327H26.8333M23.3333 26.8327H15.1667V24.4993H23.3333M21 10.4993C21.3094 10.4993 21.6062 10.6223 21.825 10.8411C22.0437 11.0599 22.1667 11.3566 22.1667 11.666C22.1667 11.9754 22.0437 12.2722 21.825 12.491C21.6062 12.7098 21.3094 12.8327 21 12.8327C20.6906 12.8327 20.3938 12.7098 20.175 12.491C19.9562 12.2722 19.8333 11.9754 19.8333 11.666C19.8333 11.3566 19.9562 11.0599 20.175 10.8411C20.3938 10.6223 20.6906 10.4993 21 10.4993ZM29.1667 10.4993H24.29C23.8 9.14602 22.5167 8.16602 21 8.16602C19.4833 8.16602 18.2 9.14602 17.71 10.4993H12.8333C12.2145 10.4993 11.621 10.7452 11.1834 11.1828C10.7458 11.6204 10.5 12.2138 10.5 12.8327V29.166C10.5 29.7849 10.7458 30.3783 11.1834 30.8159C11.621 31.2535 12.2145 31.4994 12.8333 31.4994H29.1667C29.7855 31.4994 30.379 31.2535 30.8166 30.8159C31.2542 30.3783 31.5 29.7849 31.5 29.166V12.8327C31.5 12.2138 31.2542 11.6204 30.8166 11.1828C30.379 10.7452 29.7855 10.4993 29.1667 10.4993Z" fill="#1C023B"/>
<circle cx="39" cy="3" r="3" fill="#1C023B"/>
</svg>
