<svg width="42" height="42" viewBox="0 0 42 42" fill="none" xmlns="http://www.w3.org/2000/svg">
<circle cx="21" cy="21" r="21" fill="#001A72" fill-opacity="0.15"/>
<path d="M19.8333 16.3333C19.8333 18.9117 17.745 21 15.1667 21C12.5883 21 10.5 18.9117 10.5 16.3333C10.5 13.755 12.5883 11.6667 15.1667 11.6667C17.745 11.6667 19.8333 13.755 19.8333 16.3333ZM19.8333 24.1733V30.3333H7V28C7 25.4217 10.6517 23.3333 15.1667 23.3333C16.9167 23.3333 18.515 23.6483 19.8333 24.1733ZM35 30.3333H22.1667V10.5H35V30.3333ZM25.6667 20.4167C25.6667 18.8067 26.9733 17.5 28.5833 17.5C30.1933 17.5 31.5 18.8067 31.5 20.4167C31.5 22.0267 30.1933 23.3333 28.5833 23.3333C26.9733 23.3333 25.6667 22.0267 25.6667 20.4167ZM32.6667 15.1667C31.3833 15.1667 30.3333 14.1283 30.3333 12.8333H26.8333C26.8333 14.1283 25.795 15.1667 24.5 15.1667V25.6667C25.795 25.6667 26.8333 26.7167 26.8333 28H30.3333C30.3333 26.7167 31.3833 25.6667 32.6667 25.6667V15.1667Z" fill="#001A72"/>
</svg>
