<svg width="407" height="111" viewBox="0 0 407 111" fill="none" xmlns="http://www.w3.org/2000/svg">
<g filter="url(#filter0_d_1262_2276)">
<rect x="31" y="30" width="343" height="47" rx="6" fill="white"/>
<rect x="31.25" y="30.25" width="342.5" height="46.5" rx="5.75" stroke="black" stroke-opacity="0.12" stroke-width="0.5"/>
</g>
<g filter="url(#filter1_d_1262_2276)">
<rect x="31" y="30" width="171" height="47" rx="6" fill="#DADADA"/>
<rect x="31.25" y="30.25" width="170.5" height="46.5" rx="5.75" stroke="black" stroke-opacity="0.12" stroke-width="0.5"/>
</g>
<path d="M87.4261 52H86.1932C86.1203 51.6454 85.9927 51.3338 85.8104 51.0653C85.6314 50.7969 85.4126 50.5715 85.1541 50.3892C84.8989 50.2036 84.6155 50.0644 84.304 49.9716C83.9924 49.8788 83.6676 49.8324 83.3295 49.8324C82.7131 49.8324 82.1546 49.9882 81.6541 50.2997C81.157 50.6113 80.7609 51.0703 80.4659 51.6768C80.1742 52.2834 80.0284 53.0275 80.0284 53.9091C80.0284 54.7907 80.1742 55.5348 80.4659 56.1413C80.7609 56.7479 81.157 57.2069 81.6541 57.5185C82.1546 57.83 82.7131 57.9858 83.3295 57.9858C83.6676 57.9858 83.9924 57.9394 84.304 57.8466C84.6155 57.7538 84.8989 57.6162 85.1541 57.4339C85.4126 57.2483 85.6314 57.0213 85.8104 56.7528C85.9927 56.4811 86.1203 56.1695 86.1932 55.8182H87.4261C87.3333 56.3385 87.1643 56.8042 86.919 57.2152C86.6738 57.6262 86.3688 57.9759 86.0043 58.2642C85.6397 58.5492 85.2304 58.7663 84.7763 58.9155C84.3255 59.0646 83.8433 59.1392 83.3295 59.1392C82.4612 59.1392 81.6889 58.9271 81.0128 58.5028C80.3366 58.0786 79.8047 57.4754 79.4169 56.6932C79.0291 55.911 78.8352 54.983 78.8352 53.9091C78.8352 52.8352 79.0291 51.9072 79.4169 51.125C79.8047 50.3428 80.3366 49.7396 81.0128 49.3153C81.6889 48.8911 82.4612 48.679 83.3295 48.679C83.8433 48.679 84.3255 48.7536 84.7763 48.9027C85.2304 49.0518 85.6397 49.2706 86.0043 49.5589C86.3688 49.844 86.6738 50.192 86.919 50.603C87.1643 51.0107 87.3333 51.4763 87.4261 52ZM90.4327 54.4062V59H89.2594V48.8182H90.4327V52.5568H90.5321C90.7111 52.1624 90.9796 51.8492 91.3375 51.6172C91.6988 51.3819 92.1794 51.2642 92.7793 51.2642C93.2997 51.2642 93.7554 51.3686 94.1465 51.5774C94.5376 51.7829 94.8409 52.0994 95.0563 52.527C95.275 52.9512 95.3844 53.4915 95.3844 54.1477V59H94.2111V54.2273C94.2111 53.6207 94.0537 53.1518 93.7388 52.8203C93.4273 52.4856 92.9947 52.3182 92.4412 52.3182C92.0568 52.3182 91.7121 52.3994 91.4071 52.5618C91.1055 52.7242 90.8669 52.9612 90.6912 53.2727C90.5189 53.5843 90.4327 53.9621 90.4327 54.4062ZM100.633 59.1591C99.9438 59.1591 99.3389 58.995 98.8185 58.6669C98.3015 58.3388 97.8971 57.8797 97.6055 57.2898C97.3171 56.6998 97.1729 56.0104 97.1729 55.2216C97.1729 54.4261 97.3171 53.7318 97.6055 53.1385C97.8971 52.5452 98.3015 52.0845 98.8185 51.7564C99.3389 51.4283 99.9438 51.2642 100.633 51.2642C101.323 51.2642 101.926 51.4283 102.443 51.7564C102.963 52.0845 103.368 52.5452 103.656 53.1385C103.948 53.7318 104.093 54.4261 104.093 55.2216C104.093 56.0104 103.948 56.6998 103.656 57.2898C103.368 57.8797 102.963 58.3388 102.443 58.6669C101.926 58.995 101.323 59.1591 100.633 59.1591ZM100.633 58.1051C101.157 58.1051 101.588 57.9709 101.926 57.7024C102.264 57.4339 102.514 57.081 102.676 56.6435C102.839 56.206 102.92 55.732 102.92 55.2216C102.92 54.7112 102.839 54.2356 102.676 53.7947C102.514 53.3539 102.264 52.9976 101.926 52.7259C101.588 52.4541 101.157 52.3182 100.633 52.3182C100.109 52.3182 99.6786 52.4541 99.3406 52.7259C99.0025 52.9976 98.7522 53.3539 98.5898 53.7947C98.4274 54.2356 98.3462 54.7112 98.3462 55.2216C98.3462 55.732 98.4274 56.206 98.5898 56.6435C98.7522 57.081 99.0025 57.4339 99.3406 57.7024C99.6786 57.9709 100.109 58.1051 100.633 58.1051ZM108.987 59.1591C108.297 59.1591 107.692 58.995 107.172 58.6669C106.655 58.3388 106.251 57.8797 105.959 57.2898C105.671 56.6998 105.526 56.0104 105.526 55.2216C105.526 54.4261 105.671 53.7318 105.959 53.1385C106.251 52.5452 106.655 52.0845 107.172 51.7564C107.692 51.4283 108.297 51.2642 108.987 51.2642C109.676 51.2642 110.279 51.4283 110.796 51.7564C111.317 52.0845 111.721 52.5452 112.009 53.1385C112.301 53.7318 112.447 54.4261 112.447 55.2216C112.447 56.0104 112.301 56.6998 112.009 57.2898C111.721 57.8797 111.317 58.3388 110.796 58.6669C110.279 58.995 109.676 59.1591 108.987 59.1591ZM108.987 58.1051C109.51 58.1051 109.941 57.9709 110.279 57.7024C110.617 57.4339 110.868 57.081 111.03 56.6435C111.192 56.206 111.274 55.732 111.274 55.2216C111.274 54.7112 111.192 54.2356 111.03 53.7947C110.868 53.3539 110.617 52.9976 110.279 52.7259C109.941 52.4541 109.51 52.3182 108.987 52.3182C108.463 52.3182 108.032 52.4541 107.694 52.7259C107.356 52.9976 107.106 53.3539 106.943 53.7947C106.781 54.2356 106.7 54.7112 106.7 55.2216C106.7 55.732 106.781 56.206 106.943 56.6435C107.106 57.081 107.356 57.4339 107.694 57.7024C108.032 57.9709 108.463 58.1051 108.987 58.1051ZM119.647 53.0739L118.593 53.3722C118.527 53.1965 118.429 53.0258 118.3 52.8601C118.174 52.6911 118.001 52.5518 117.783 52.4425C117.564 52.3331 117.284 52.2784 116.942 52.2784C116.475 52.2784 116.086 52.3861 115.774 52.6016C115.466 52.8137 115.312 53.0838 115.312 53.4119C115.312 53.7036 115.418 53.9339 115.63 54.103C115.842 54.272 116.174 54.4129 116.624 54.5256L117.758 54.804C118.441 54.9697 118.949 55.2232 119.284 55.5646C119.619 55.9027 119.786 56.3385 119.786 56.8722C119.786 57.3097 119.66 57.7008 119.408 58.0455C119.16 58.3902 118.812 58.6619 118.364 58.8608C117.917 59.0597 117.397 59.1591 116.803 59.1591C116.024 59.1591 115.38 58.9901 114.869 58.652C114.359 58.3139 114.036 57.8201 113.9 57.1705L115.013 56.892C115.12 57.303 115.32 57.6113 115.615 57.8168C115.913 58.0223 116.303 58.125 116.783 58.125C117.33 58.125 117.764 58.009 118.086 57.777C118.411 57.5417 118.573 57.2599 118.573 56.9318C118.573 56.6667 118.48 56.4446 118.295 56.2656C118.109 56.0833 117.824 55.9474 117.44 55.858L116.167 55.5597C115.468 55.3939 114.954 55.1371 114.626 54.7891C114.301 54.4377 114.138 53.9986 114.138 53.4716C114.138 53.0407 114.259 52.6596 114.501 52.3281C114.747 51.9967 115.08 51.7365 115.501 51.5476C115.925 51.3587 116.406 51.2642 116.942 51.2642C117.698 51.2642 118.291 51.4299 118.722 51.7614C119.156 52.0928 119.465 52.5303 119.647 53.0739ZM124.754 59.1591C124.018 59.1591 123.384 58.9967 122.85 58.6719C122.32 58.3438 121.91 57.8864 121.622 57.2997C121.337 56.7098 121.194 56.0237 121.194 55.2415C121.194 54.4593 121.337 53.7699 121.622 53.1733C121.91 52.5734 122.311 52.1061 122.825 51.7713C123.342 51.4332 123.945 51.2642 124.635 51.2642C125.032 51.2642 125.425 51.3305 125.813 51.4631C126.201 51.5956 126.554 51.8111 126.872 52.1094C127.19 52.4044 127.444 52.7955 127.633 53.2827C127.822 53.7699 127.916 54.3698 127.916 55.0824V55.5795H122.03V54.5653H126.723C126.723 54.1345 126.637 53.75 126.464 53.4119C126.295 53.0739 126.053 52.8071 125.738 52.6115C125.427 52.416 125.059 52.3182 124.635 52.3182C124.167 52.3182 123.763 52.4342 123.422 52.6662C123.084 52.8949 122.823 53.1932 122.641 53.5611C122.459 53.929 122.368 54.3234 122.368 54.7443V55.4205C122.368 55.9972 122.467 56.486 122.666 56.8871C122.868 57.2848 123.148 57.5881 123.506 57.7969C123.864 58.0024 124.28 58.1051 124.754 58.1051C125.062 58.1051 125.341 58.062 125.589 57.9759C125.841 57.8864 126.058 57.7538 126.241 57.5781C126.423 57.3991 126.564 57.1771 126.663 56.9119L127.797 57.2301C127.677 57.6146 127.477 57.9527 127.195 58.2443C126.913 58.5327 126.565 58.758 126.151 58.9205C125.737 59.0795 125.271 59.1591 124.754 59.1591ZM133.797 59V48.8182H139.903V49.9119H135.03V53.3523H139.445V54.446H135.03V59H133.797ZM141.855 59V51.3636H143.028V59H141.855ZM142.452 50.0909C142.223 50.0909 142.026 50.013 141.86 49.8572C141.698 49.7015 141.616 49.5142 141.616 49.2955C141.616 49.0767 141.698 48.8894 141.86 48.7337C142.026 48.5779 142.223 48.5 142.452 48.5C142.68 48.5 142.876 48.5779 143.038 48.7337C143.204 48.8894 143.287 49.0767 143.287 49.2955C143.287 49.5142 143.204 49.7015 143.038 49.8572C142.876 50.013 142.68 50.0909 142.452 50.0909ZM146.351 48.8182V59H145.177V48.8182H146.351ZM151.701 59.1591C150.966 59.1591 150.331 58.9967 149.797 58.6719C149.267 58.3438 148.858 57.8864 148.569 57.2997C148.284 56.7098 148.142 56.0237 148.142 55.2415C148.142 54.4593 148.284 53.7699 148.569 53.1733C148.858 52.5734 149.259 52.1061 149.772 51.7713C150.289 51.4332 150.893 51.2642 151.582 51.2642C151.98 51.2642 152.373 51.3305 152.76 51.4631C153.148 51.5956 153.501 51.8111 153.819 52.1094C154.137 52.4044 154.391 52.7955 154.58 53.2827C154.769 53.7699 154.863 54.3698 154.863 55.0824V55.5795H148.977V54.5653H153.67C153.67 54.1345 153.584 53.75 153.412 53.4119C153.243 53.0739 153.001 52.8071 152.686 52.6115C152.374 52.416 152.006 52.3182 151.582 52.3182C151.115 52.3182 150.71 52.4342 150.369 52.6662C150.031 52.8949 149.771 53.1932 149.588 53.5611C149.406 53.929 149.315 54.3234 149.315 54.7443V55.4205C149.315 55.9972 149.414 56.486 149.613 56.8871C149.815 57.2848 150.096 57.5881 150.453 57.7969C150.811 58.0024 151.227 58.1051 151.701 58.1051C152.01 58.1051 152.288 58.062 152.537 57.9759C152.788 57.8864 153.006 57.7538 153.188 57.5781C153.37 57.3991 153.511 57.1771 153.61 56.9119L154.744 57.2301C154.625 57.6146 154.424 57.9527 154.142 58.2443C153.861 58.5327 153.513 58.758 153.098 58.9205C152.684 59.0795 152.218 59.1591 151.701 59.1591Z" fill="#121212" fill-opacity="0.8"/>
<path d="M247.686 48.8182V59H246.493L240.944 51.0057H240.845V59H239.612V48.8182H240.805L246.373 56.8324H246.473V48.8182H247.686ZM253.096 59.1591C252.407 59.1591 251.802 58.995 251.281 58.6669C250.764 58.3388 250.36 57.8797 250.068 57.2898C249.78 56.6998 249.636 56.0104 249.636 55.2216C249.636 54.4261 249.78 53.7318 250.068 53.1385C250.36 52.5452 250.764 52.0845 251.281 51.7564C251.802 51.4283 252.407 51.2642 253.096 51.2642C253.785 51.2642 254.389 51.4283 254.906 51.7564C255.426 52.0845 255.83 52.5452 256.119 53.1385C256.41 53.7318 256.556 54.4261 256.556 55.2216C256.556 56.0104 256.41 56.6998 256.119 57.2898C255.83 57.8797 255.426 58.3388 254.906 58.6669C254.389 58.995 253.785 59.1591 253.096 59.1591ZM253.096 58.1051C253.62 58.1051 254.051 57.9709 254.389 57.7024C254.727 57.4339 254.977 57.081 255.139 56.6435C255.302 56.206 255.383 55.732 255.383 55.2216C255.383 54.7112 255.302 54.2356 255.139 53.7947C254.977 53.3539 254.727 52.9976 254.389 52.7259C254.051 52.4541 253.62 52.3182 253.096 52.3182C252.572 52.3182 252.142 52.4541 251.803 52.7259C251.465 52.9976 251.215 53.3539 251.053 53.7947C250.89 54.2356 250.809 54.7112 250.809 55.2216C250.809 55.732 250.89 56.206 251.053 56.6435C251.215 57.081 251.465 57.4339 251.803 57.7024C252.142 57.9709 252.572 58.1051 253.096 58.1051ZM262.444 59V48.8182H268.549V49.9119H263.677V53.3523H268.092V54.446H263.677V59H262.444ZM271.675 48.8182V59H270.502V48.8182H271.675ZM273.824 59V51.3636H274.997V59H273.824ZM274.42 50.0909C274.192 50.0909 273.995 50.013 273.829 49.8572C273.666 49.7015 273.585 49.5142 273.585 49.2955C273.585 49.0767 273.666 48.8894 273.829 48.7337C273.995 48.5779 274.192 48.5 274.42 48.5C274.649 48.5 274.845 48.5779 275.007 48.7337C275.173 48.8894 275.256 49.0767 275.256 49.2955C275.256 49.5142 275.173 49.7015 275.007 49.8572C274.845 50.013 274.649 50.0909 274.42 50.0909ZM280.348 59.1591C279.612 59.1591 278.977 58.9967 278.444 58.6719C277.913 58.3438 277.504 57.8864 277.216 57.2997C276.931 56.7098 276.788 56.0237 276.788 55.2415C276.788 54.4593 276.931 53.7699 277.216 53.1733C277.504 52.5734 277.905 52.1061 278.419 51.7713C278.936 51.4332 279.539 51.2642 280.229 51.2642C280.626 51.2642 281.019 51.3305 281.407 51.4631C281.795 51.5956 282.148 51.8111 282.466 52.1094C282.784 52.4044 283.037 52.7955 283.226 53.2827C283.415 53.7699 283.51 54.3698 283.51 55.0824V55.5795H277.623V54.5653H282.317C282.317 54.1345 282.23 53.75 282.058 53.4119C281.889 53.0739 281.647 52.8071 281.332 52.6115C281.021 52.416 280.653 52.3182 280.229 52.3182C279.761 52.3182 279.357 52.4342 279.015 52.6662C278.677 52.8949 278.417 53.1932 278.235 53.5611C278.053 53.929 277.961 54.3234 277.961 54.7443V55.4205C277.961 55.9972 278.061 56.486 278.26 56.8871C278.462 57.2848 278.742 57.5881 279.1 57.7969C279.458 58.0024 279.874 58.1051 280.348 58.1051C280.656 58.1051 280.934 58.062 281.183 57.9759C281.435 57.8864 281.652 57.7538 281.834 57.5781C282.017 57.3991 282.157 57.1771 282.257 56.9119L283.39 57.2301C283.271 57.6146 283.071 57.9527 282.789 58.2443C282.507 58.5327 282.159 58.758 281.745 58.9205C281.331 59.0795 280.865 59.1591 280.348 59.1591ZM297.584 52H296.351C296.278 51.6454 296.151 51.3338 295.969 51.0653C295.79 50.7969 295.571 50.5715 295.312 50.3892C295.057 50.2036 294.774 50.0644 294.462 49.9716C294.151 49.8788 293.826 49.8324 293.488 49.8324C292.871 49.8324 292.313 49.9882 291.812 50.2997C291.315 50.6113 290.919 51.0703 290.624 51.6768C290.332 52.2834 290.187 53.0275 290.187 53.9091C290.187 54.7907 290.332 55.5348 290.624 56.1413C290.919 56.7479 291.315 57.2069 291.812 57.5185C292.313 57.83 292.871 57.9858 293.488 57.9858C293.826 57.9858 294.151 57.9394 294.462 57.8466C294.774 57.7538 295.057 57.6162 295.312 57.4339C295.571 57.2483 295.79 57.0213 295.969 56.7528C296.151 56.4811 296.278 56.1695 296.351 55.8182H297.584C297.492 56.3385 297.323 56.8042 297.077 57.2152C296.832 57.6262 296.527 57.9759 296.162 58.2642C295.798 58.5492 295.389 58.7663 294.934 58.9155C294.484 59.0646 294.001 59.1392 293.488 59.1392C292.619 59.1392 291.847 58.9271 291.171 58.5028C290.495 58.0786 289.963 57.4754 289.575 56.6932C289.187 55.911 288.993 54.983 288.993 53.9091C288.993 52.8352 289.187 51.9072 289.575 51.125C289.963 50.3428 290.495 49.7396 291.171 49.3153C291.847 48.8911 292.619 48.679 293.488 48.679C294.001 48.679 294.484 48.7536 294.934 48.9027C295.389 49.0518 295.798 49.2706 296.162 49.5589C296.527 49.844 296.832 50.192 297.077 50.603C297.323 51.0107 297.492 51.4763 297.584 52ZM300.591 54.4062V59H299.418V48.8182H300.591V52.5568H300.69C300.869 52.1624 301.138 51.8492 301.496 51.6172C301.857 51.3819 302.338 51.2642 302.938 51.2642C303.458 51.2642 303.914 51.3686 304.305 51.5774C304.696 51.7829 304.999 52.0994 305.214 52.527C305.433 52.9512 305.543 53.4915 305.543 54.1477V59H304.369V54.2273C304.369 53.6207 304.212 53.1518 303.897 52.8203C303.585 52.4856 303.153 52.3182 302.599 52.3182C302.215 52.3182 301.87 52.3994 301.565 52.5618C301.264 52.7242 301.025 52.9612 300.849 53.2727C300.677 53.5843 300.591 53.9621 300.591 54.4062ZM310.791 59.1591C310.102 59.1591 309.497 58.995 308.977 58.6669C308.46 58.3388 308.055 57.8797 307.764 57.2898C307.475 56.6998 307.331 56.0104 307.331 55.2216C307.331 54.4261 307.475 53.7318 307.764 53.1385C308.055 52.5452 308.46 52.0845 308.977 51.7564C309.497 51.4283 310.102 51.2642 310.791 51.2642C311.481 51.2642 312.084 51.4283 312.601 51.7564C313.121 52.0845 313.526 52.5452 313.814 53.1385C314.106 53.7318 314.252 54.4261 314.252 55.2216C314.252 56.0104 314.106 56.6998 313.814 57.2898C313.526 57.8797 313.121 58.3388 312.601 58.6669C312.084 58.995 311.481 59.1591 310.791 59.1591ZM310.791 58.1051C311.315 58.1051 311.746 57.9709 312.084 57.7024C312.422 57.4339 312.672 57.081 312.835 56.6435C312.997 56.206 313.078 55.732 313.078 55.2216C313.078 54.7112 312.997 54.2356 312.835 53.7947C312.672 53.3539 312.422 52.9976 312.084 52.7259C311.746 52.4541 311.315 52.3182 310.791 52.3182C310.268 52.3182 309.837 52.4541 309.499 52.7259C309.161 52.9976 308.91 53.3539 308.748 53.7947C308.586 54.2356 308.504 54.7112 308.504 55.2216C308.504 55.732 308.586 56.206 308.748 56.6435C308.91 57.081 309.161 57.4339 309.499 57.7024C309.837 57.9709 310.268 58.1051 310.791 58.1051ZM321.452 53.0739L320.398 53.3722C320.331 53.1965 320.234 53.0258 320.104 52.8601C319.978 52.6911 319.806 52.5518 319.587 52.4425C319.369 52.3331 319.089 52.2784 318.747 52.2784C318.28 52.2784 317.89 52.3861 317.579 52.6016C317.271 52.8137 317.116 53.0838 317.116 53.4119C317.116 53.7036 317.223 53.9339 317.435 54.103C317.647 54.272 317.978 54.4129 318.429 54.5256L319.562 54.804C320.245 54.9697 320.754 55.2232 321.089 55.5646C321.424 55.9027 321.591 56.3385 321.591 56.8722C321.591 57.3097 321.465 57.7008 321.213 58.0455C320.964 58.3902 320.616 58.6619 320.169 58.8608C319.722 59.0597 319.201 59.1591 318.608 59.1591C317.829 59.1591 317.184 58.9901 316.674 58.652C316.164 58.3139 315.84 57.8201 315.705 57.1705L316.818 56.892C316.924 57.303 317.125 57.6113 317.42 57.8168C317.718 58.0223 318.107 58.125 318.588 58.125C319.135 58.125 319.569 58.009 319.891 57.777C320.215 57.5417 320.378 57.2599 320.378 56.9318C320.378 56.6667 320.285 56.4446 320.099 56.2656C319.914 56.0833 319.629 55.9474 319.244 55.858L317.972 55.5597C317.272 55.3939 316.759 55.1371 316.43 54.7891C316.106 54.4377 315.943 53.9986 315.943 53.4716C315.943 53.0407 316.064 52.6596 316.306 52.3281C316.551 51.9967 316.884 51.7365 317.305 51.5476C317.73 51.3587 318.21 51.2642 318.747 51.2642C319.503 51.2642 320.096 51.4299 320.527 51.7614C320.961 52.0928 321.269 52.5303 321.452 53.0739ZM326.559 59.1591C325.823 59.1591 325.188 58.9967 324.655 58.6719C324.124 58.3438 323.715 57.8864 323.427 57.2997C323.142 56.7098 322.999 56.0237 322.999 55.2415C322.999 54.4593 323.142 53.7699 323.427 53.1733C323.715 52.5734 324.116 52.1061 324.63 51.7713C325.147 51.4332 325.75 51.2642 326.439 51.2642C326.837 51.2642 327.23 51.3305 327.618 51.4631C328.006 51.5956 328.358 51.8111 328.677 52.1094C328.995 52.4044 329.248 52.7955 329.437 53.2827C329.626 53.7699 329.721 54.3698 329.721 55.0824V55.5795H323.834V54.5653H328.528C328.528 54.1345 328.441 53.75 328.269 53.4119C328.1 53.0739 327.858 52.8071 327.543 52.6115C327.232 52.416 326.864 52.3182 326.439 52.3182C325.972 52.3182 325.568 52.4342 325.226 52.6662C324.888 52.8949 324.628 53.1932 324.446 53.5611C324.264 53.929 324.172 54.3234 324.172 54.7443V55.4205C324.172 55.9972 324.272 56.486 324.471 56.8871C324.673 57.2848 324.953 57.5881 325.311 57.7969C325.669 58.0024 326.085 58.1051 326.559 58.1051C326.867 58.1051 327.145 58.062 327.394 57.9759C327.646 57.8864 327.863 57.7538 328.045 57.5781C328.228 57.3991 328.368 57.1771 328.468 56.9119L329.601 57.2301C329.482 57.6146 329.282 57.9527 329 58.2443C328.718 58.5327 328.37 58.758 327.956 58.9205C327.541 59.0795 327.076 59.1591 326.559 59.1591ZM332.679 54.4062V59H331.506V51.3636H332.639V52.5568H332.738C332.917 52.169 333.189 51.8575 333.554 51.6222C333.918 51.3835 334.389 51.2642 334.966 51.2642C335.483 51.2642 335.935 51.3703 336.323 51.5824C336.711 51.7912 337.012 52.1094 337.228 52.5369C337.443 52.9612 337.551 53.4981 337.551 54.1477V59H336.378V54.2273C336.378 53.6274 336.222 53.16 335.91 52.8253C335.599 52.4872 335.171 52.3182 334.628 52.3182C334.253 52.3182 333.918 52.3994 333.623 52.5618C333.332 52.7242 333.101 52.9612 332.932 53.2727C332.763 53.5843 332.679 53.9621 332.679 54.4062Z" fill="#121212" fill-opacity="0.5"/>
<defs>
<filter id="filter0_d_1262_2276" x="0" y="0" width="407" height="111" filterUnits="userSpaceOnUse" color-interpolation-filters="sRGB">
<feFlood flood-opacity="0" result="BackgroundImageFix"/>
<feColorMatrix in="SourceAlpha" type="matrix" values="0 0 0 0 0 0 0 0 0 0 0 0 0 0 0 0 0 0 127 0" result="hardAlpha"/>
<feOffset dx="1" dy="2"/>
<feGaussianBlur stdDeviation="16"/>
<feComposite in2="hardAlpha" operator="out"/>
<feColorMatrix type="matrix" values="0 0 0 0 0 0 0 0 0 0 0 0 0 0 0 0 0 0 0.05 0"/>
<feBlend mode="normal" in2="BackgroundImageFix" result="effect1_dropShadow_1262_2276"/>
<feBlend mode="normal" in="SourceGraphic" in2="effect1_dropShadow_1262_2276" result="shape"/>
</filter>
<filter id="filter1_d_1262_2276" x="0" y="0" width="235" height="111" filterUnits="userSpaceOnUse" color-interpolation-filters="sRGB">
<feFlood flood-opacity="0" result="BackgroundImageFix"/>
<feColorMatrix in="SourceAlpha" type="matrix" values="0 0 0 0 0 0 0 0 0 0 0 0 0 0 0 0 0 0 127 0" result="hardAlpha"/>
<feOffset dx="1" dy="2"/>
<feGaussianBlur stdDeviation="16"/>
<feComposite in2="hardAlpha" operator="out"/>
<feColorMatrix type="matrix" values="0 0 0 0 0 0 0 0 0 0 0 0 0 0 0 0 0 0 0.05 0"/>
<feBlend mode="normal" in2="BackgroundImageFix" result="effect1_dropShadow_1262_2276"/>
<feBlend mode="normal" in="SourceGraphic" in2="effect1_dropShadow_1262_2276" result="shape"/>
</filter>
</defs>
</svg>
