<svg width="22" height="17" viewBox="0 0 22 17" fill="none" xmlns="http://www.w3.org/2000/svg">
<g clip-path="url(#clip0_202_11)">
<path d="M20.5292 16.0841L20.301 15.825L19.2151 16.8969L19.2133 16.8952C19.0915 17.0155 18.8942 17.0172 18.7724 16.8986L17.6659 15.8369L16.5816 16.8647C16.4632 16.985 16.2676 16.9918 16.1424 16.8766L14.9929 15.8284L13.9499 16.8885C13.943 16.8952 13.9378 16.902 13.931 16.9088C13.8075 17.0307 13.6084 17.0307 13.4849 16.9088L12.3904 15.8284L11.2615 16.8901C11.138 17.0053 10.9424 17.0036 10.8223 16.8834L9.74832 15.8131L9.52529 16.0672C9.46868 16.1434 9.37604 16.1925 9.27138 16.1925C9.09639 16.1925 8.95571 16.0519 8.95571 15.8809V11.7287C9.02777 11.7405 9.10154 11.7473 9.17531 11.7473C9.31427 11.749 9.45324 11.7321 9.58877 11.6948V15.0816C9.70029 15.024 9.83925 15.0359 9.94047 15.1222C9.94733 15.1273 9.95248 15.1324 9.95763 15.1392L11.0522 16.2314L12.1793 15.1713C12.3046 15.0545 12.4984 15.0579 12.6185 15.1764L12.6203 15.1747L13.7062 16.2467L14.7579 15.1781C14.878 15.0579 15.0719 15.0528 15.1971 15.1663L16.3551 16.2213L17.4531 15.1815C17.5767 15.0647 17.7722 15.0664 17.8923 15.1849L18.9903 16.2399L20.0952 15.1493C20.1895 15.0545 20.3354 15.0342 20.452 15.0884V6.63833H14.6292C14.6498 6.53842 14.6584 6.43681 14.6584 6.33521C14.6567 6.22853 14.643 6.12015 14.6189 6.01516H20.7677C20.9427 6.01516 21.0834 6.15402 21.0834 6.32674V15.8809H21.0816C21.0816 15.9672 21.0456 16.0536 20.9719 16.1163C20.8415 16.228 20.6425 16.2145 20.5292 16.0841ZM12.0318 13.3459C11.8911 13.3459 11.7762 13.2324 11.7762 13.0936C11.7762 12.9547 11.8911 12.8412 12.0318 12.8412H14.3221C14.4628 12.8412 14.5778 12.9547 14.5778 13.0936C14.5778 13.2324 14.4628 13.3459 14.3221 13.3459H12.0318ZM12.0318 10.291C11.8911 10.291 11.7762 10.1775 11.7762 10.0387C11.7762 9.89981 11.8911 9.78635 12.0318 9.78635H18.8239C18.9646 9.78635 19.0795 9.89981 19.0795 10.0387C19.0795 10.1775 18.9646 10.291 18.8239 10.291H12.0318ZM12.0318 11.8269C11.8911 11.8269 11.7762 11.7134 11.7762 11.5746C11.7762 11.4357 11.8911 11.3223 12.0318 11.3223H17.8391C17.9798 11.3223 18.0948 11.4357 18.0948 11.5746C18.0948 11.7134 17.9798 11.8269 17.8391 11.8269H12.0318ZM10.7571 2.89762C11.0985 3.2346 11.1054 3.77818 10.7725 4.1067L10.5924 4.28451L12.0387 5.68664L8.3827 9.16487L6.97418 7.72549L1.48594 13.1427C1.15311 13.4712 0.6024 13.4644 0.260994 13.1274C-0.0804128 12.7904 -0.0872753 12.2469 0.245553 11.9183L5.75438 6.48084L4.65124 5.34965L8.10648 1.87142L9.34344 3.06865L9.53387 2.88068C9.86498 2.55555 10.4157 2.56232 10.7571 2.89762ZM7.95723 0.205117C8.22829 0.472673 8.23344 0.906183 7.96923 1.16697L3.93755 5.14645C3.67334 5.40723 3.23415 5.40215 2.96308 5.13459C2.69201 4.86704 2.68687 4.43353 2.95107 4.17274L6.98276 0.193263C7.24696 -0.0692133 7.68616 -0.0624397 7.95723 0.205117ZM13.6874 5.86106C13.9584 6.12862 13.9636 6.56212 13.6994 6.82291L9.66769 10.8024C9.40348 11.0632 8.96429 11.0581 8.69322 10.7905C8.42216 10.523 8.41701 10.0895 8.68121 9.82869L12.7129 5.84921C12.9788 5.58842 13.4163 5.5935 13.6874 5.86106Z" fill="#737373"/>
</g>
<defs>
<clipPath id="clip0_202_11">
<rect width="22" height="17" fill="white"/>
</clipPath>
</defs>
</svg>
