<svg width="23" height="23" viewBox="0 0 23 23" fill="none" xmlns="http://www.w3.org/2000/svg">
<mask id="path-1-inside-1_73_5881" fill="white">
<path d="M4 16.25L0.5 19.68V9.83333H4V16.25ZM9.83333 14.1033L8.00167 12.54L6.33333 14.08V5.16667H9.83333V14.1033ZM15.6667 12.1667L12.1667 15.6667V0.5H15.6667V12.1667ZM18.945 11.945L16.8333 9.83333H22.6667V15.6667L20.5783 13.5783L12.1667 21.92L8.11833 18.3967L3.70833 22.6667H0.5L8.04833 15.27L12.1667 18.7467"/>
</mask>
<path d="M4 16.25L0.5 19.68V9.83333H4V16.25ZM9.83333 14.1033L8.00167 12.54L6.33333 14.08V5.16667H9.83333V14.1033ZM15.6667 12.1667L12.1667 15.6667V0.5H15.6667V12.1667ZM18.945 11.945L16.8333 9.83333H22.6667V15.6667L20.5783 13.5783L12.1667 21.92L8.11833 18.3967L3.70833 22.6667H0.5L8.04833 15.27L12.1667 18.7467" fill="#121212" fill-opacity="0.5"/>
<path d="M4 16.25L4.20998 16.4643L4.3 16.376V16.25H4ZM0.5 19.68H0.2V20.394L0.709979 19.8943L0.5 19.68ZM0.5 9.83333V9.53333H0.2V9.83333H0.5ZM4 9.83333H4.3V9.53333H4V9.83333ZM9.83333 14.1033L9.63857 14.3315L10.1333 14.7538V14.1033H9.83333ZM8.00167 12.54L8.19642 12.3118L7.99387 12.1389L7.79818 12.3196L8.00167 12.54ZM6.33333 14.08H6.03333V14.7652L6.53682 14.3004L6.33333 14.08ZM6.33333 5.16667V4.86667H6.03333V5.16667H6.33333ZM9.83333 5.16667H10.1333V4.86667H9.83333V5.16667ZM15.6667 12.1667L15.8788 12.3788L15.9667 12.2909V12.1667H15.6667ZM12.1667 15.6667H11.8667V16.3909L12.3788 15.8788L12.1667 15.6667ZM12.1667 0.5V0.2H11.8667V0.5H12.1667ZM15.6667 0.5H15.9667V0.2H15.6667V0.5ZM16.8333 9.83333V9.53333H16.1091L16.6212 10.0455L16.8333 9.83333ZM22.6667 9.83333H22.9667V9.53333H22.6667V9.83333ZM22.6667 15.6667L22.4545 15.8788L22.9667 16.3909V15.6667H22.6667ZM20.5783 13.5783L20.7905 13.3662L20.5792 13.155L20.3671 13.3653L20.5783 13.5783ZM12.1667 21.92L11.9697 22.1463L12.18 22.3293L12.3779 22.133L12.1667 21.92ZM8.11833 18.3967L8.31528 18.1704L8.10752 17.9895L7.90965 18.1811L8.11833 18.3967ZM3.70833 22.6667V22.9667H3.82977L3.91702 22.8822L3.70833 22.6667ZM0.5 22.6667L0.290032 22.4524L-0.234787 22.9667H0.5V22.6667ZM8.04833 15.27L8.24185 15.0408L8.0333 14.8647L7.83837 15.0557L8.04833 15.27ZM3.79002 16.0357L0.290021 19.4657L0.709979 19.8943L4.20998 16.4643L3.79002 16.0357ZM0.8 19.68V9.83333H0.2V19.68H0.8ZM0.5 10.1333H4V9.53333H0.5V10.1333ZM3.7 9.83333V16.25H4.3V9.83333H3.7ZM10.0281 13.8751L8.19642 12.3118L7.80691 12.7682L9.63857 14.3315L10.0281 13.8751ZM7.79818 12.3196L6.12985 13.8596L6.53682 14.3004L8.20515 12.7604L7.79818 12.3196ZM6.63333 14.08V5.16667H6.03333V14.08H6.63333ZM6.33333 5.46667H9.83333V4.86667H6.33333V5.46667ZM9.53333 5.16667V14.1033H10.1333V5.16667H9.53333ZM15.4545 11.9545L11.9545 15.4545L12.3788 15.8788L15.8788 12.3788L15.4545 11.9545ZM12.4667 15.6667V0.5H11.8667V15.6667H12.4667ZM12.1667 0.8H15.6667V0.2H12.1667V0.8ZM15.3667 0.5V12.1667H15.9667V0.5H15.3667ZM19.1571 11.7329L17.0455 9.6212L16.6212 10.0455L18.7329 12.1571L19.1571 11.7329ZM16.8333 10.1333H22.6667V9.53333H16.8333V10.1333ZM22.3667 9.83333V15.6667H22.9667V9.83333H22.3667ZM22.8788 15.4545L20.7905 13.3662L20.3662 13.7905L22.4545 15.8788L22.8788 15.4545ZM20.3671 13.3653L11.9554 21.707L12.3779 22.133L20.7896 13.7913L20.3671 13.3653ZM12.3636 21.6937L8.31528 18.1704L7.92138 18.623L11.9697 22.1463L12.3636 21.6937ZM7.90965 18.1811L3.49965 22.4511L3.91702 22.8822L8.32702 18.6122L7.90965 18.1811ZM3.70833 22.3667H0.5V22.9667H3.70833V22.3667ZM0.709968 22.8809L8.2583 15.4843L7.83837 15.0557L0.290032 22.4524L0.709968 22.8809ZM7.85481 15.4992L11.9731 18.9759L12.3602 18.5174L8.24185 15.0408L7.85481 15.4992Z" fill="white" mask="url(#path-1-inside-1_73_5881)"/>
</svg>
