<svg width="27" height="28" viewBox="0 0 27 28" fill="none" xmlns="http://www.w3.org/2000/svg">
<path d="M13.3636 18.4545C14.7636 18.4545 15.9621 17.9561 16.9591 16.9591C17.9561 15.9621 18.4545 14.7636 18.4545 13.3636C18.4545 11.9636 17.9561 10.7652 16.9591 9.76818C15.9621 8.77121 14.7636 8.27273 13.3636 8.27273C11.9636 8.27273 10.7652 8.77121 9.76818 9.76818C8.77121 10.7652 8.27273 11.9636 8.27273 13.3636C8.27273 14.7636 8.77121 15.9621 9.76818 16.9591C10.7652 17.9561 11.9636 18.4545 13.3636 18.4545ZM12.4091 28V25.4545H9.86364V23.5455H12.4091V20.3318C10.6697 20.0348 9.22727 19.2341 8.08182 17.9295C6.93636 16.625 6.36364 15.103 6.36364 13.3636C6.36364 12.6 6.4803 11.8576 6.71364 11.1364C6.94697 10.4152 7.29697 9.74697 7.76364 9.13182L6.42727 7.79545L4.64545 9.57727L3.30909 8.24091L5.09091 6.45909L1.90909 3.27727V7H0V0H7V1.90909H3.27727L6.45909 5.09091L8.24091 3.30909L9.57727 4.64545L7.79545 6.42727L9.16364 7.79545C9.77879 7.32879 10.4417 6.97348 11.1523 6.72955C11.8629 6.48561 12.6 6.36364 13.3636 6.36364C14.1273 6.36364 14.8697 6.4803 15.5909 6.71364C16.3121 6.94697 16.9803 7.29697 17.5955 7.76364L23.45 1.90909H19.7273V0H26.7273V7H24.8182V3.27727L18.9636 9.13182C19.4303 9.74697 19.7803 10.4152 20.0136 11.1364C20.247 11.8576 20.3636 12.6 20.3636 13.3636C20.3636 15.103 19.7909 16.625 18.6455 17.9295C17.5 19.2341 16.0576 20.0348 14.3182 20.3318V23.5455H16.8636V25.4545H14.3182V28H12.4091Z" fill="black" fill-opacity="0.7"/>
</svg>
