<svg width="22" height="22" viewBox="0 0 22 22" fill="none" xmlns="http://www.w3.org/2000/svg">
<path d="M2.36474 17.4263L2.34641 17.4447C2.09891 16.9038 1.94307 16.2897 1.87891 15.6113C1.94307 16.2805 2.11724 16.8855 2.36474 17.4263Z" fill="#002BBE"/>
<path d="M8.25198 9.51568C9.45688 9.51568 10.4336 8.53891 10.4336 7.33401C10.4336 6.12911 9.45688 5.15234 8.25198 5.15234C7.04708 5.15234 6.07031 6.12911 6.07031 7.33401C6.07031 8.53891 7.04708 9.51568 8.25198 9.51568Z" fill="#002BBE"/>
<path d="M14.8395 1.83398H7.15786C3.8212 1.83398 1.83203 3.82315 1.83203 7.15982V14.8415C1.83203 15.8407 2.0062 16.7115 2.34536 17.4448C3.1337 19.1865 4.82036 20.1673 7.15786 20.1673H14.8395C18.1762 20.1673 20.1654 18.1782 20.1654 14.8415V12.7423V7.15982C20.1654 3.82315 18.1762 1.83398 14.8395 1.83398ZM18.6712 11.459C17.9562 10.8448 16.8012 10.8448 16.0862 11.459L12.2729 14.7315C11.5579 15.3457 10.4029 15.3457 9.68786 14.7315L9.3762 14.4748C8.72536 13.9065 7.68953 13.8515 6.9562 14.3465L3.52786 16.6473C3.3262 16.134 3.20703 15.5382 3.20703 14.8415V7.15982C3.20703 4.57482 4.57286 3.20898 7.15786 3.20898H14.8395C17.4245 3.20898 18.7904 4.57482 18.7904 7.15982V11.5598L18.6712 11.459Z" fill="#002BBE"/>
</svg>
