<svg width="78" height="78" viewBox="0 0 78 78" fill="none" xmlns="http://www.w3.org/2000/svg">
<path d="M40.5446 61.0099H14.2872C14.5739 55.3923 17.0041 50.0986 21.0773 46.2194C25.1505 42.3402 30.5564 40.1709 36.1812 40.1584C40.3829 40.1547 44.4955 41.3699 48.0203 43.6568C48.2794 43.8248 48.5946 43.8829 48.8965 43.8185C49.1985 43.754 49.4625 43.5723 49.6305 43.3132C49.7984 43.0541 49.8566 42.7389 49.7921 42.4369C49.7277 42.1349 49.5459 41.8709 49.2868 41.703C45.3772 39.1708 40.816 37.8292 36.1581 37.8416C29.7278 37.8702 23.5711 40.4468 19.0373 45.0067C14.5034 49.5667 11.9621 55.738 11.9704 62.1683C11.9704 62.4755 12.0924 62.7702 12.3096 62.9874C12.5269 63.2047 12.8215 63.3267 13.1288 63.3267H40.5446C40.8518 63.3267 41.1465 63.2047 41.3637 62.9874C41.581 62.7702 41.703 62.4755 41.703 62.1683C41.703 61.8611 41.581 61.5664 41.3637 61.3492C41.1465 61.1319 40.8518 61.0099 40.5446 61.0099Z" fill="#737373"/>
<path d="M36.297 35.1386C39.1227 35.1386 41.885 34.3007 44.2345 32.7308C46.584 31.1609 48.4152 28.9296 49.4966 26.3189C50.578 23.7083 50.8609 20.8356 50.3096 18.0642C49.7584 15.2928 48.3976 12.747 46.3995 10.749C44.4015 8.75087 41.8557 7.39015 39.0843 6.83888C36.3129 6.2876 33.4402 6.57054 30.8296 7.6519C28.2189 8.73325 25.9876 10.5645 24.4177 12.914C22.8478 15.2635 22.0099 18.0258 22.0099 20.8515C22.016 24.6388 23.5232 28.2692 26.2013 30.9472C28.8793 33.6253 32.5097 35.1325 36.297 35.1386ZM36.297 8.88118C38.6645 8.88118 40.9789 9.58323 42.9474 10.8985C44.9159 12.2139 46.4501 14.0834 47.3561 16.2706C48.2621 18.4579 48.4992 20.8648 48.0373 23.1868C47.5754 25.5088 46.4354 27.6417 44.7613 29.3158C43.0872 30.9898 40.9543 32.1299 38.6323 32.5918C36.3103 33.0536 33.9035 32.8166 31.7162 31.9106C29.5289 31.0046 27.6594 29.4703 26.3441 27.5018C25.0288 25.5333 24.3267 23.219 24.3267 20.8515C24.3308 17.678 25.5933 14.6357 27.8373 12.3917C30.0812 10.1477 33.1236 8.88527 36.297 8.88118Z" fill="#737373"/>
<path d="M69.5512 50.4761L65.2342 46.159C65.0146 45.9544 64.7242 45.843 64.4241 45.8483C64.1239 45.8536 63.8376 45.9752 63.6254 46.1874C63.4131 46.3996 63.2915 46.686 63.2863 46.9861C63.281 47.2862 63.3924 47.5767 63.597 47.7962L65.2188 49.4258H47.4564C47.1492 49.4258 46.8545 49.5478 46.6373 49.765C46.42 49.9823 46.298 50.2769 46.298 50.5842C46.298 50.8914 46.42 51.186 46.6373 51.4033C46.8545 51.6205 47.1492 51.7426 47.4564 51.7426H66.6475L63.5584 54.8317C63.4446 54.9377 63.3533 55.0656 63.29 55.2077C63.2266 55.3498 63.1926 55.5032 63.1898 55.6588C63.1871 55.8143 63.2157 55.9688 63.274 56.1131C63.3322 56.2573 63.419 56.3883 63.529 56.4983C63.639 56.6083 63.77 56.695 63.9142 56.7533C64.0585 56.8116 64.213 56.8402 64.3685 56.8374C64.5241 56.8347 64.6775 56.8006 64.8196 56.7373C64.9617 56.674 65.0895 56.5827 65.1956 56.4689L69.5126 52.1519C69.7296 51.9347 69.8514 51.6403 69.8514 51.3333C69.8514 51.0263 69.7296 50.7319 69.5126 50.5147L69.5512 50.4761Z" fill="#737373"/>
<path d="M67.5742 60.2376H47.8812L51.0629 57.0558C51.2811 56.8387 51.404 56.5439 51.4047 56.2361C51.4055 55.9283 51.2839 55.6329 51.0668 55.4147C50.8497 55.1966 50.5548 55.0737 50.2471 55.0729C49.9393 55.0722 49.6438 55.1938 49.4257 55.4109L45.1087 59.7279C44.8917 59.9451 44.7699 60.2396 44.7699 60.5465C44.7699 60.8535 44.8917 61.1479 45.1087 61.3651L49.4257 65.6899C49.5318 65.8037 49.6597 65.895 49.8017 65.9583C49.9438 66.0216 50.0972 66.0557 50.2528 66.0584C50.4083 66.0612 50.5628 66.0325 50.7071 65.9743C50.8513 65.916 50.9823 65.8293 51.0923 65.7193C51.2023 65.6093 51.2891 65.4783 51.3473 65.334C51.4056 65.1898 51.4342 65.0353 51.4315 64.8797C51.4287 64.7242 51.3947 64.5708 51.3313 64.4287C51.268 64.2866 51.1768 64.1587 51.0629 64.0527L49.5416 62.5545H67.5742C67.8815 62.5545 68.1761 62.4324 68.3933 62.2152C68.6106 61.9979 68.7326 61.7033 68.7326 61.396C68.7326 61.0888 68.6106 60.7942 68.3933 60.5769C68.1761 60.3597 67.8815 60.2376 67.5742 60.2376Z" fill="#737373"/>
</svg>
