<svg width="22" height="25" viewBox="0 0 22 25" fill="none" xmlns="http://www.w3.org/2000/svg">
<path d="M9.51571 13.0567L9.51505 13.0561C7.68659 11.3692 5.40916 10.189 2.85999 9.72873L2.68333 9.69683V9.87634V17.9847V18.1164L2.81396 18.1334C5.83303 18.5267 8.59744 19.6834 10.9108 21.3953L11 21.4613L11.0892 21.3953C13.4026 19.6834 16.167 18.5267 19.186 18.1334L19.3167 18.1164V17.9847V9.87634V9.69683L19.14 9.72873C16.5908 10.189 14.3134 11.3692 12.485 13.0561L12.4843 13.0567L11 14.4428L9.51571 13.0567ZM19.1893 7.6563L19.1895 7.65626C19.8922 7.54816 20.6155 7.4906 21.35 7.48371V20.017C17.3374 20.0546 13.7338 21.5995 11 24.0925C8.26617 21.5995 4.66265 20.0546 0.65 20.017V7.48371C1.38449 7.4906 2.10783 7.54816 2.81052 7.65626L2.81073 7.6563C5.91809 8.12991 8.70244 9.53921 10.8981 11.5731L11 11.6675L11.1019 11.5731C13.2976 9.53921 16.0819 8.12991 19.1893 7.6563ZM11.929 4.77257L11.9345 4.76754L11.9396 4.76198C12.1824 4.4936 12.3167 4.1905 12.3167 3.83301C12.3167 3.47552 12.1824 3.17242 11.9396 2.90404L11.9332 2.89698L11.926 2.89079C11.662 2.66458 11.3604 2.51634 11 2.51634C10.6396 2.51634 10.338 2.66458 10.074 2.89079L10.0653 2.8983L10.0578 2.90706C9.83097 3.17166 9.68333 3.48501 9.68333 3.83301C9.68333 4.18101 9.83097 4.49436 10.0578 4.75896L10.064 4.76619L10.071 4.77257C10.34 5.01596 10.6549 5.14967 11 5.14967C11.3575 5.14967 11.6606 5.01539 11.929 4.77257ZM13.3673 6.20028C12.7417 6.8258 11.8931 7.18301 11 7.18301C10.1069 7.18301 9.25826 6.8258 8.63273 6.20028C8.00721 5.57475 7.65 4.72611 7.65 3.83301C7.65 2.93991 8.00721 2.09126 8.63273 1.46574C9.25826 0.840217 10.1069 0.483008 11 0.483008C11.8931 0.483008 12.7417 0.840217 13.3673 1.46574C13.9928 2.09126 14.35 2.93991 14.35 3.83301C14.35 4.72611 13.9928 5.57475 13.3673 6.20028Z" fill="#121212" fill-opacity="0.5" stroke="white" stroke-width="0.3"/>
</svg>
