<svg width="19" height="19" viewBox="0 0 19 19" fill="none" xmlns="http://www.w3.org/2000/svg">
<path d="M7 16.11L9.11 14H4V12H11V12.12L13.12 10H4V8H14V9.12L15.24 7.89C15.72 7.41 16.35 7.14 17.04 7.14C17.37 7.14 17.7 7.21 18 7.33V2C18 0.89 17.1 0 16 0H2C0.89 0 0 0.89 0 2V16C0 17.11 0.9 18 2 18H7V16.11ZM4 4H14V6H4V4ZM18.7 11.35L17.7 12.35L15.65 10.3L16.65 9.3C16.86 9.09 17.21 9.09 17.42 9.3L18.7 10.58C18.91 10.79 18.91 11.14 18.7 11.35ZM9 16.94L15.06 10.88L17.11 12.93L11.06 19H9V16.94Z" fill="white"/>
</svg>
