<svg width="42" height="42" viewBox="0 0 42 42" fill="none" xmlns="http://www.w3.org/2000/svg">
<circle cx="21" cy="21" r="21" fill="#001A72" fill-opacity="0.15"/>
<path d="M11.6663 31.5H29.1663C29.7852 31.5 30.3787 31.2542 30.8163 30.8166C31.2538 30.379 31.4997 29.7855 31.4997 29.1667V22.1667H26.833V24.5L22.1663 21L26.833 17.5V19.8333H31.4997V12.8333C31.4997 12.2145 31.2538 11.621 30.8163 11.1834C30.3787 10.7458 29.7852 10.5 29.1663 10.5H11.6663C11.0475 10.5 10.454 10.7458 10.0164 11.1834C9.57884 11.621 9.33301 12.2145 9.33301 12.8333V29.1667C9.33301 29.7855 9.57884 30.379 10.0164 30.8166C10.454 31.2542 11.0475 31.5 11.6663 31.5ZM11.6663 24.5H16.333V26.8333H11.6663V24.5ZM11.6663 19.8333H19.833V22.1667H11.6663V19.8333ZM11.6663 15.1667H19.833V17.5H11.6663V15.1667ZM31.4997 19.8333H34.9997V22.1667H31.4997V19.8333Z" fill="#001A72"/>
</svg>
