<svg width="64" height="64" viewBox="0 0 64 64" fill="none" xmlns="http://www.w3.org/2000/svg">
<path d="M53.4022 40.4516C53.3934 40.4516 53.3848 40.4517 53.3762 40.4521L36.825 41.024C35.4217 39.6886 33.5983 38.9565 31.6522 38.9565C29.7056 38.9565 27.8819 39.6889 26.4793 41.024L9.92813 40.4521C9.9195 40.4517 9.91079 40.4516 9.90216 40.4516C7.71525 40.4516 7.65216 45.8199 7.65216 46.4321C7.65216 47.0442 7.71525 52.4125 9.90216 52.4125C9.90722 52.4125 9.9121 52.4118 9.91716 52.4117C9.92129 52.4116 9.92532 52.4121 9.92954 52.4119L25.668 51.8392L22.4484 60.8098C22.3461 61.095 22.4265 61.4136 22.6521 61.6165C22.8775 61.8195 23.2037 61.8667 23.478 61.7362L25.6737 60.6904L26.7229 62.8791C26.8478 63.1399 27.1118 63.3043 27.3994 63.3043C27.4127 63.3043 27.426 63.304 27.4393 63.3033C27.7422 63.2873 28.0057 63.091 28.1067 62.8059L31.2653 53.8964C31.3953 53.9032 31.5241 53.9076 31.6521 53.9076C31.78 53.9076 31.9088 53.9032 32.0388 53.8964L35.1974 62.8059C35.2985 63.091 35.5619 63.2873 35.8648 63.3033C35.8782 63.304 35.8914 63.3043 35.9048 63.3043C36.1924 63.3043 36.4563 63.1399 36.5813 62.8791L37.6304 60.6905L39.8261 61.7363C40.1002 61.8668 40.4264 61.8197 40.6521 61.6166C40.8776 61.4137 40.9581 61.0951 40.8557 60.8099L37.6362 51.8393L53.3747 52.412C53.3788 52.4121 53.3829 52.4117 53.3871 52.4118C53.3921 52.4119 53.397 52.4126 53.4021 52.4126C53.4188 52.4126 53.4352 52.4113 53.4517 52.4106C55.5894 52.3291 55.6522 47.0394 55.6522 46.4321C55.6522 45.8199 55.589 40.4516 53.4022 40.4516ZM38.2241 50.0248L51.4349 49.4897C51.5281 49.9651 51.6503 50.437 51.81 50.8589L38.0307 50.3575C38.0981 50.2484 38.1623 50.1373 38.2241 50.0248ZM51.572 47.9879L38.8586 48.5028C39.0534 47.8342 39.1522 47.1414 39.1522 46.4321C39.1522 45.0135 38.7551 43.6522 38.0179 42.4788L51.7329 42.0048C51.3653 42.8464 51.1522 43.9192 51.1522 44.9369C51.1522 46.084 51.3052 47.1955 51.572 47.9879ZM24.8688 49.6139C24.9899 49.87 25.1255 50.1179 25.2737 50.3575L11.4943 50.859C11.654 50.4371 11.7762 49.9651 11.8693 49.4898L22.6217 49.9253C22.6321 49.9256 22.6424 49.9258 22.6527 49.9258C23.0528 49.9258 23.3851 49.6107 23.4015 49.2087C23.4184 48.7961 23.0964 48.4481 22.6826 48.4314L11.7324 47.9879C11.9992 47.1954 12.1522 46.0838 12.1522 44.9369C12.1522 43.9192 11.9391 42.8464 11.5714 42.0048L25.2866 42.4788C24.5491 43.6526 24.1522 45.0137 24.1522 46.4321C24.1522 47.5438 24.3935 48.6148 24.8688 49.6139ZM9.9075 42.0682C10.1992 42.4581 10.6522 43.5018 10.6522 44.9369C10.6522 45.9285 10.5277 46.8666 10.3105 47.5117C10.157 47.9482 10.2227 48.4238 10.4676 48.8026C10.2998 49.8373 10.0611 50.4716 9.89091 50.7692C9.57975 50.2456 9.15216 48.7452 9.15216 46.4321C9.15216 44.0773 9.59513 42.5653 9.9075 42.0682ZM27.2958 60.6061L26.7039 59.3715C26.5254 58.9989 26.0777 58.8413 25.7039 59.0192L24.4742 59.6049L27.0774 52.3516C27.8731 52.9619 28.7855 53.4098 29.757 53.6639L27.2958 60.6061ZM30.8557 52.3597C30.8543 52.3595 30.8528 52.3594 30.8514 52.3592C29.4983 52.1785 28.2343 51.5319 27.2931 50.5393C26.8568 50.0778 26.4977 49.552 26.2248 48.9749C25.8448 48.1761 25.6522 47.3205 25.6522 46.4321C25.6522 44.8798 26.2436 43.4126 27.3185 42.2998C28.4651 41.108 30.0042 40.4516 31.6522 40.4516C33.3001 40.4516 34.8391 41.108 35.9869 42.3008C37.0607 43.4126 37.6522 44.8798 37.6522 46.4321C37.6522 47.3204 37.4594 48.176 37.0788 48.9764C36.8067 49.5518 36.4476 50.0776 36.0122 50.5384C35.0706 51.5313 33.8073 52.1777 32.4549 52.3588C32.4545 52.3589 32.454 52.3589 32.4535 52.359C32.4518 52.3592 32.4503 52.3594 32.4486 52.3596C31.8874 52.4307 31.4091 52.4301 30.8557 52.3597ZM38.8302 59.6048L37.6005 59.0191C37.4209 58.9336 37.2148 58.9226 37.0273 58.9887C36.8397 59.0548 36.6862 59.1924 36.6004 59.3713L36.0086 60.606L33.5475 53.6639C34.518 53.4102 35.4308 52.9622 36.2271 52.3512L38.8302 59.6048ZM53.4133 50.7691C53.2432 50.4715 53.0046 49.8374 52.8367 48.8027C53.0817 48.4238 53.1474 47.948 52.9936 47.5113C52.7766 46.8664 52.6522 45.9285 52.6522 44.9369C52.6522 43.5019 53.1052 42.4581 53.3968 42.0682C53.7092 42.5653 54.1522 44.0773 54.1522 46.4321C54.1522 48.7452 53.7246 50.2457 53.4133 50.7691Z" fill="#737373"/>
<path d="M36.1739 46.2609C36.1739 43.384 34.1455 41.0435 31.6522 41.0435C29.1589 41.0435 27.1304 43.384 27.1304 46.2609C27.1304 49.1377 29.1589 51.4783 31.6522 51.4783C34.1455 51.4783 36.1739 49.1377 36.1739 46.2609ZM28.4224 46.2609C28.4224 44.206 29.8713 42.5342 31.6522 42.5342C33.4331 42.5342 34.882 44.206 34.882 46.2609C34.882 48.3158 33.4331 49.9876 31.6522 49.9876C29.8713 49.9876 28.4224 48.3158 28.4224 46.2609Z" fill="#737373"/>
<path d="M56.4067 10.5137L34.1596 1.13C33.476 0.843315 32.7417 0.695648 32 0.695648C31.2584 0.695648 30.5241 0.843315 29.8405 1.13L7.59339 10.5137C6.99207 10.7673 6.47902 11.1918 6.11832 11.7343C5.75761 12.2768 5.56525 12.9132 5.56525 13.564C5.56525 14.2148 5.75761 14.8512 6.11832 15.3937C6.47902 15.9362 6.99207 16.3608 7.59339 16.6143L15.3901 19.9008V30.4691C15.3841 31.4181 15.626 32.3522 16.092 33.1798C16.558 34.0072 17.2321 34.6995 18.048 35.1886C22.2818 37.656 27.0979 38.9565 32.0023 38.9565C36.9066 38.9565 41.7227 37.656 45.9565 35.1886C46.7724 34.6995 47.4465 34.0072 47.9125 33.1798C48.3786 32.3522 48.6204 31.4181 48.6145 30.4691V19.9008L51.9369 18.4987V23.7338C51.492 23.9257 51.1057 24.2314 50.8172 24.6197C50.5287 25.0081 50.3481 25.4655 50.2936 25.9457C50.2391 26.4259 50.3127 26.912 50.5069 27.3548C50.7012 27.7975 51.0092 28.1814 51.3998 28.4676C51.0522 28.7224 50.7695 29.0549 50.5744 29.4383C50.3791 29.8218 50.2768 30.2455 50.2757 30.6755V33.4355C50.2757 33.7282 50.3924 34.0091 50.6001 34.2161C50.8077 34.4232 51.0895 34.5394 51.3832 34.5394H54.7056C54.9993 34.5394 55.281 34.4232 55.4887 34.2161C55.6963 34.0091 55.8131 33.7282 55.8131 33.4355V30.6755C55.812 30.2455 55.7096 29.8218 55.5144 29.4383C55.3191 29.0549 55.0365 28.7224 54.689 28.4676C55.0796 28.1814 55.3876 27.7975 55.5818 27.3548C55.7761 26.912 55.8496 26.4259 55.7951 25.9457C55.7406 25.4655 55.56 25.0081 55.2715 24.6197C54.983 24.2314 54.5967 23.9257 54.1519 23.7338V17.5648L56.4067 16.6143C57.008 16.3608 57.521 15.9362 57.8817 15.3937C58.2424 14.8512 58.4348 14.2148 58.4348 13.564C58.4348 12.9132 58.2424 12.2768 57.8817 11.7343C57.521 11.1918 57.008 10.7673 56.4067 10.5137ZM53.5981 26.2597C53.5981 26.3688 53.5657 26.4756 53.5048 26.5663C53.444 26.6571 53.3575 26.7278 53.2562 26.7697C53.1551 26.8114 53.0437 26.8223 52.9364 26.801C52.829 26.7797 52.7303 26.7272 52.6528 26.65C52.5754 26.5727 52.5226 26.4745 52.5013 26.3674C52.4799 26.2603 52.4909 26.1493 52.5328 26.0485C52.5747 25.9476 52.6457 25.8613 52.7367 25.8007C52.8277 25.74 52.9348 25.7077 53.0444 25.7077C53.1912 25.7077 53.3321 25.7658 53.4359 25.8694C53.5397 25.9728 53.5981 26.1133 53.5981 26.2597ZM53.5981 32.3315H52.4906V30.6755C52.4906 30.5291 52.549 30.3887 52.6528 30.2853C52.7567 30.1817 52.8975 30.1235 53.0444 30.1235C53.1912 30.1235 53.3321 30.1817 53.4359 30.2853C53.5397 30.3887 53.5981 30.5291 53.5981 30.6755V32.3315ZM46.3995 30.4691C46.4059 31.0338 46.2648 31.5903 45.9901 32.0841C45.7153 32.5779 45.3163 32.9919 44.8324 33.2853C40.9391 35.5525 36.5112 36.7474 32.0023 36.7474C27.4933 36.7474 23.0653 35.5525 19.1721 33.2853C18.6881 32.9919 18.2892 32.5779 18.0144 32.0841C17.7397 31.5903 17.5986 31.0338 17.605 30.4691V20.8347L29.8449 25.9969C30.5284 26.2839 31.2627 26.4318 32.0045 26.4318C32.7463 26.4318 33.4804 26.2839 34.1641 25.9969L46.3995 20.8347V30.4691ZM55.544 14.5808L33.2969 23.9645C32.887 24.1362 32.4468 24.2245 32.0023 24.2245C31.5576 24.2245 31.1175 24.1362 30.7076 23.9645L8.46055 14.5808C8.26011 14.4963 8.08909 14.3548 7.96885 14.1739C7.84862 13.9931 7.7845 13.7809 7.7845 13.564C7.7845 13.3471 7.84862 13.1349 7.96885 12.9541C8.08909 12.7733 8.26011 12.6318 8.46055 12.5472L30.7076 3.16352C31.1174 2.99154 31.5576 2.90295 32.0023 2.90295C32.4469 2.90295 32.887 2.99154 33.2969 3.16352L55.544 12.5472C55.7444 12.6318 55.9154 12.7733 56.0357 12.9541C56.1558 13.1349 56.22 13.3471 56.22 13.564C56.22 13.7809 56.1558 13.9931 56.0357 14.1739C55.9154 14.3548 55.7444 14.4963 55.544 14.5808Z" fill="#737373"/>
</svg>
