<svg width="17" height="18" viewBox="0 0 17 18" fill="none" xmlns="http://www.w3.org/2000/svg">
<path d="M16.582 13.167L12.4154 17.3337L9.4987 14.417L10.7487 13.167L12.4154 14.8337L15.332 11.917L16.582 13.167ZM1.9987 0.666992C1.0737 0.666992 0.332031 1.40866 0.332031 2.33366V15.667C0.332031 16.592 1.0737 17.3337 1.9987 17.3337H8.50703C8.06536 16.5753 7.83203 15.7087 7.83203 14.8337C7.83203 14.5587 7.85703 14.2753 7.8987 14.0003H1.9987V12.3337H8.50703C8.89036 11.667 9.4237 11.0837 10.0654 10.667H1.9987V9.00033H11.9987V9.90032C12.2737 9.85866 12.557 9.83366 12.832 9.83366C13.1154 9.83366 13.3904 9.85866 13.6654 9.90032V5.66699L8.66536 0.666992H1.9987ZM7.83203 1.91699L12.4154 6.50033H7.83203V1.91699Z" fill="#FCAB40"/>
</svg>
