<svg width="36" height="30" viewBox="0 0 36 30" fill="none" xmlns="http://www.w3.org/2000/svg">
<path d="M34.5 0H1.5C1.10218 0 0.720644 0.158035 0.43934 0.43934C0.158035 0.720644 0 1.10218 0 1.5L0 28.5C0 28.8978 0.158035 29.2794 0.43934 29.5607C0.720644 29.842 1.10218 30 1.5 30H34.5C34.8978 30 35.2794 29.842 35.5607 29.5607C35.842 29.2794 36 28.8978 36 28.5V1.5C36 1.10218 35.842 0.720644 35.5607 0.43934C35.2794 0.158035 34.8978 0 34.5 0ZM33 27H30V25.5H22.5V27H3V3H33V27ZM15.435 11.565C15.435 10.8847 15.7052 10.2323 16.1863 9.75127C16.6673 9.27024 17.3197 9 18 9C19.425 9 20.565 10.155 20.565 11.565C20.565 12.99 19.425 14.145 18 14.145C16.575 14.145 15.435 12.99 15.435 11.565ZM8.565 13.935C8.565 12.87 9.435 12 10.5 12C11.0132 12 11.5054 12.2039 11.8683 12.5667C12.2311 12.9296 12.435 13.4218 12.435 13.935C12.435 15 11.565 15.855 10.5 15.855C9.435 15.855 8.565 15 8.565 13.935ZM23.565 13.935C23.565 13.4218 23.7689 12.9296 24.1317 12.5667C24.4946 12.2039 24.9868 12 25.5 12C26.0132 12 26.5054 12.2039 26.8683 12.5667C27.2311 12.9296 27.435 13.4218 27.435 13.935C27.435 15 26.565 15.855 25.5 15.855C24.435 15.855 23.565 15 23.565 13.935ZM30 19.71V21H24H21H15H12H6V19.71C6 18.3 8.325 17.145 10.5 17.145C11.325 17.145 12.165 17.31 12.9 17.595C14.025 16.56 16.05 15.855 18 15.855C19.95 15.855 21.975 16.56 23.1 17.595C23.835 17.31 24.675 17.145 25.5 17.145C27.675 17.145 30 18.3 30 19.71Z" fill="#34495E"/>
</svg>
