<svg width="54" height="61" viewBox="0 0 54 61" fill="none" xmlns="http://www.w3.org/2000/svg">
<path d="M48 48.5H18C16.4087 48.5 14.8826 47.8679 13.7574 46.7426C12.6321 45.6174 12 44.0913 12 42.5V6.5C12 4.9087 12.6321 3.38258 13.7574 2.25736C14.8826 1.13214 16.4087 0.5 18 0.5H21V15.5L27 11L33 15.5V0.5H48C49.5913 0.5 51.1174 1.13214 52.2426 2.25736C53.3679 3.38258 54 4.9087 54 6.5V42.5C54 44.0913 53.3679 45.6174 52.2426 46.7426C51.1174 47.8679 49.5913 48.5 48 48.5ZM42 54.5V60.5H6C4.4087 60.5 2.88258 59.8679 1.75736 58.7426C0.632141 57.6174 0 56.0913 0 54.5V12.5H6V54.5H42Z" fill="#121212" fill-opacity="0.5"/>
</svg>
