<svg width="46" height="54" viewBox="0 0 46 54" fill="none" xmlns="http://www.w3.org/2000/svg">
<path d="M6.32368 54C5.70789 54 5.16316 53.8224 4.68947 53.4671C4.21579 53.1118 3.97895 52.65 3.97895 52.0816V46.1132C2.60526 45.3553 1.59868 44.2658 0.959211 42.8447C0.319737 41.4237 0 39.9079 0 38.2974V10.0895C0 6.58421 1.81184 4.02632 5.43553 2.41579C9.05921 0.805263 14.85 0 22.8079 0C30.6711 0 36.4145 0.805263 40.0382 2.41579C43.6618 4.02632 45.4737 6.58421 45.4737 10.0895V38.2974C45.4737 39.9079 45.1539 41.4237 44.5145 42.8447C43.875 44.2658 42.8684 45.3553 41.4947 46.1132V52.0816C41.4947 52.65 41.2579 53.1118 40.7842 53.4671C40.3105 53.8224 39.7658 54 39.15 54H37.8C37.1368 54 36.5684 53.8224 36.0947 53.4671C35.6211 53.1118 35.3842 52.65 35.3842 52.0816V48.1737H10.0895V52.0816C10.0895 52.65 9.85263 53.1118 9.37895 53.4671C8.90526 53.8224 8.33684 54 7.67368 54H6.32368ZM22.8079 8.24211H41.2105H4.26316H22.8079ZM35.3842 29.0605H4.26316H41.2105H35.3842ZM4.26316 24.7974H41.2105V12.5053H4.26316V24.7974ZM11.7947 40.3579C12.8842 40.3579 13.8079 39.9789 14.5658 39.2211C15.3237 38.4632 15.7026 37.5395 15.7026 36.45C15.7026 35.3605 15.3237 34.4368 14.5658 33.6789C13.8079 32.9211 12.8842 32.5421 11.7947 32.5421C10.7053 32.5421 9.78158 32.9211 9.02368 33.6789C8.26579 34.4368 7.88684 35.3605 7.88684 36.45C7.88684 37.5395 8.26579 38.4632 9.02368 39.2211C9.78158 39.9789 10.7053 40.3579 11.7947 40.3579ZM33.6789 40.3579C34.7684 40.3579 35.6921 39.9789 36.45 39.2211C37.2079 38.4632 37.5868 37.5395 37.5868 36.45C37.5868 35.3605 37.2079 34.4368 36.45 33.6789C35.6921 32.9211 34.7684 32.5421 33.6789 32.5421C32.5895 32.5421 31.6658 32.9211 30.9079 33.6789C30.15 34.4368 29.7711 35.3605 29.7711 36.45C29.7711 37.5395 30.15 38.4632 30.9079 39.2211C31.6658 39.9789 32.5895 40.3579 33.6789 40.3579ZM4.26316 8.24211H41.2105C40.0737 7.01053 37.8947 6.03947 34.6737 5.32895C31.4526 4.61842 27.4974 4.26316 22.8079 4.26316C17.2184 4.26316 12.9316 4.58289 9.94737 5.22237C6.96316 5.86184 5.06842 6.86842 4.26316 8.24211ZM10.0895 43.9105H35.3842C37.0421 43.9105 38.4276 43.271 39.5408 41.9921C40.6539 40.7132 41.2105 39.2447 41.2105 37.5868V29.0605H4.26316V37.5868C4.26316 39.2447 4.81974 40.7132 5.93289 41.9921C7.04605 43.271 8.43158 43.9105 10.0895 43.9105Z" fill="black" fill-opacity="0.5"/>
</svg>
