<svg width="17" height="21" viewBox="0 0 17 21" fill="none" xmlns="http://www.w3.org/2000/svg">
<g clip-path="url(#clip0_356_24)">
<path fill-rule="evenodd" clip-rule="evenodd" d="M10.9341 4.85725C10.7649 4.85725 10.6268 4.71916 10.6268 4.54694C10.6268 4.37626 10.7634 4.23662 10.9341 4.23662H13.5221C13.6912 4.23662 13.8293 4.37471 13.8293 4.54694C13.8293 4.71761 13.6928 4.85725 13.5221 4.85725H10.9341ZM2.60978 9.91544C2.44065 9.91544 2.30256 9.77735 2.30256 9.60512C2.30256 9.43289 2.4391 9.2948 2.60978 9.2948H7.28472C7.45384 9.2948 7.59193 9.43289 7.59193 9.60512C7.59193 9.77735 7.45539 9.91544 7.28472 9.91544H2.60978ZM8.47789 9.91544C8.30877 9.91544 8.17068 9.77735 8.17068 9.60512C8.17068 9.43289 8.30722 9.2948 8.47789 9.2948H13.5206C13.6897 9.2948 13.8278 9.43289 13.8278 9.60512C13.8278 9.77735 13.6912 9.91544 13.5206 9.91544H8.47789ZM0.183088 19.931C0.0760279 19.8813 0 19.7742 0 19.647V1.31032C0 1.13964 0.138092 1 0.310318 1H3.3204H15.6897C15.8604 1 16 1.13809 16 1.31032V18.0256C16 18.0427 15.9984 18.0582 15.9969 18.0737C15.9535 18.6835 15.7548 19.1583 15.398 19.4981C15.0411 19.8363 14.54 20.0256 13.8898 20.0628C13.8759 20.0644 13.8635 20.0659 13.8495 20.0659H0.4391C0.333592 20.0659 0.238945 20.0116 0.183088 19.931ZM15.3809 18.0178V1.61908H3.3204H0.619085V19.4469H13.8479H13.8542C14.3522 19.4189 14.7246 19.2855 14.9713 19.0512C15.2149 18.82 15.3499 18.474 15.3809 18.0178ZM2.60978 14.9752C2.44065 14.9752 2.30256 14.8371 2.30256 14.6649C2.30256 14.4942 2.4391 14.3545 2.60978 14.3545H13.5485C13.7176 14.3545 13.8557 14.4926 13.8557 14.6649C13.8557 14.8355 13.7192 14.9752 13.5485 14.9752H2.60978ZM2.65943 12.4461C2.4903 12.4461 2.35221 12.308 2.35221 12.1358C2.35221 11.9635 2.48875 11.8254 2.65943 11.8254H13.5206C13.6897 11.8254 13.8278 11.9635 13.8278 12.1358C13.8278 12.308 13.6912 12.4461 13.5206 12.4461H2.65943ZM8.98526 7.38635C8.81614 7.38635 8.67805 7.24825 8.67805 7.07603C8.67805 6.90535 8.81459 6.76571 8.98526 6.76571H13.5206C13.6897 6.76571 13.8278 6.9038 13.8278 7.07603C13.8278 7.2467 13.6912 7.38635 13.5206 7.38635H8.98526ZM10.9341 17.5043C10.7649 17.5043 10.6268 17.3662 10.6268 17.1955C10.6268 17.0248 10.7634 16.8852 10.9341 16.8852H13.5221C13.6912 16.8852 13.8293 17.0233 13.8293 17.1955C13.8293 17.3662 13.6928 17.5043 13.5221 17.5043H10.9341Z" fill="#1C023B" stroke="#1C023B" stroke-width="0.4"/>
<path d="M7.83333 5.01083H7.47C7.42173 4.81425 7.3436 4.62623 7.23833 4.45333L7.5 4.19583C7.5155 4.18036 7.52779 4.16197 7.53618 4.14174C7.54457 4.12151 7.54888 4.09982 7.54888 4.07792C7.54888 4.05602 7.54457 4.03433 7.53618 4.01409C7.52779 3.99386 7.5155 3.97548 7.5 3.96L7.04 3.50417C7.00812 3.47404 6.96593 3.45726 6.92208 3.45726C6.87822 3.45726 6.83604 3.47404 6.80417 3.50417L6.54667 3.76167C6.37377 3.6564 6.18575 3.57827 5.98917 3.53V3.16667C5.98917 3.12246 5.97161 3.08007 5.94035 3.04882C5.90909 3.01756 5.8667 3 5.8225 3H5.1775C5.1333 3 5.09091 3.01756 5.05965 3.04882C5.02839 3.08007 5.01083 3.12246 5.01083 3.16667V3.53C4.81425 3.57827 4.62623 3.6564 4.45333 3.76167L4.19583 3.50417C4.18036 3.48867 4.16197 3.47638 4.14174 3.46799C4.12151 3.4596 4.09982 3.45529 4.07792 3.45529C4.05602 3.45529 4.03433 3.4596 4.01409 3.46799C3.99386 3.47638 3.97548 3.48867 3.96 3.50417L3.50417 3.96C3.48867 3.97548 3.47638 3.99386 3.46799 4.01409C3.4596 4.03433 3.45529 4.05602 3.45529 4.07792C3.45529 4.09982 3.4596 4.12151 3.46799 4.14174C3.47638 4.16197 3.48867 4.18036 3.50417 4.19583L3.76167 4.45333C3.6564 4.62623 3.57827 4.81425 3.53 5.01083H3.16667C3.12246 5.01083 3.08007 5.02839 3.04882 5.05965C3.01756 5.09091 3 5.1333 3 5.1775V5.8225C3 5.8667 3.01756 5.90909 3.04882 5.94035C3.08007 5.97161 3.12246 5.98917 3.16667 5.98917H3.53C3.57827 6.18575 3.6564 6.37377 3.76167 6.54667L3.50417 6.80417C3.48867 6.81964 3.47638 6.83803 3.46799 6.85826C3.4596 6.87849 3.45529 6.90018 3.45529 6.92208C3.45529 6.94398 3.4596 6.96567 3.46799 6.98591C3.47638 7.00614 3.48867 7.02452 3.50417 7.04L3.96 7.5C3.97548 7.5155 3.99386 7.52779 4.01409 7.53618C4.03433 7.54457 4.05602 7.54888 4.07792 7.54888C4.09982 7.54888 4.12151 7.54457 4.14174 7.53618C4.16197 7.52779 4.18036 7.5155 4.19583 7.5L4.45333 7.2425C4.62623 7.34777 4.81425 7.4259 5.01083 7.47417V7.83333C5.01083 7.87753 5.02839 7.91992 5.05965 7.95118C5.09091 7.98244 5.1333 8 5.1775 8H5.8225C5.8667 8 5.90909 7.98244 5.94035 7.95118C5.97161 7.91992 5.98917 7.87753 5.98917 7.83333V7.47C6.18575 7.42173 6.37377 7.3436 6.54667 7.23833L6.80417 7.5C6.81964 7.5155 6.83803 7.52779 6.85826 7.53618C6.87849 7.54457 6.90018 7.54888 6.92208 7.54888C6.94398 7.54888 6.96567 7.54457 6.98591 7.53618C7.00614 7.52779 7.02452 7.5155 7.04 7.5L7.5 7.04C7.5155 7.02452 7.52779 7.00614 7.53618 6.98591C7.54457 6.96567 7.54888 6.94398 7.54888 6.92208C7.54888 6.90018 7.54457 6.87849 7.53618 6.85826C7.52779 6.83803 7.5155 6.81964 7.5 6.80417L7.2425 6.54667C7.34777 6.37377 7.4259 6.18575 7.47417 5.98917H7.83333C7.87753 5.98917 7.91992 5.97161 7.95118 5.94035C7.98244 5.90909 8 5.8667 8 5.8225V5.1775C8 5.1333 7.98244 5.09091 7.95118 5.05965C7.91992 5.02839 7.87753 5.01083 7.83333 5.01083ZM5.5 6.4025C5.26071 6.40228 5.03128 6.30712 4.86208 6.13792C4.69287 5.96872 4.59772 5.73929 4.5975 5.5C4.64667 4.3025 6.35333 4.3025 6.4025 5.5C6.40228 5.73929 6.30712 5.96872 6.13792 6.13792C5.96872 6.30712 5.73929 6.40228 5.5 6.4025Z" fill="#1C023B"/>
</g>
<defs>
<clipPath id="clip0_356_24">
<rect width="17" height="20.2576" fill="white" transform="translate(0 0.742432)"/>
</clipPath>
</defs>
</svg>
