<svg width="279" height="279" viewBox="0 0 279 279" fill="none" xmlns="http://www.w3.org/2000/svg">
<path d="M151.125 34.875H95.325C82.3038 34.875 75.7931 34.875 70.8197 37.4091C66.4449 39.6381 62.8881 43.1949 60.6591 47.5697C58.125 52.5431 58.125 59.0538 58.125 72.075V206.925C58.125 219.946 58.125 226.457 60.6591 231.431C62.8881 235.805 66.4449 239.362 70.8197 241.591C75.7931 244.125 82.3038 244.125 95.325 244.125H139.5M151.125 34.875L220.875 104.625M151.125 34.875V86.025C151.125 92.5356 151.125 95.7909 152.392 98.2776C153.507 100.465 155.284 102.243 157.472 103.358C159.959 104.625 163.214 104.625 169.725 104.625H220.875M220.875 104.625V116.25" stroke="black" stroke-width="9.41625" stroke-linecap="round" stroke-linejoin="round"/>
<path fill-rule="evenodd" clip-rule="evenodd" d="M178.458 195.108L186.78 219.579L190.967 205.054L188.916 202.807C187.993 201.457 187.788 200.278 188.301 199.261C189.412 197.065 191.71 197.475 193.855 197.475C196.102 197.475 198.887 197.048 199.588 199.867C199.827 200.807 199.528 201.798 198.87 202.807L196.819 205.054L201.006 219.579L208.542 195.108C213.976 199.996 230.065 200.978 236.055 204.319C237.951 205.378 239.66 206.72 241.036 208.531C243.121 211.291 244.402 214.888 244.753 219.459L246 227.431C245.692 230.661 243.864 232.523 240.25 232.805H193.889H146.75C143.136 232.532 141.308 230.669 141 227.431L142.247 219.459C142.598 214.888 143.879 211.291 145.964 208.531C147.34 206.711 149.049 205.37 150.945 204.319C156.935 200.978 173.024 199.996 178.458 195.108ZM174.69 160.086C173.656 160.128 172.879 160.342 172.349 160.701C172.041 160.906 171.819 161.171 171.674 161.478C171.511 161.82 171.443 162.239 171.452 162.726C171.494 164.144 172.238 165.99 173.665 168.117L173.682 168.151L178.33 175.551C180.192 178.515 182.149 181.54 184.576 183.762C186.908 185.898 189.745 187.342 193.496 187.35C197.554 187.359 200.528 185.855 202.929 183.599C205.432 181.25 207.414 178.037 209.362 174.824L214.6 166.195C215.574 163.965 215.933 162.478 215.711 161.598C215.574 161.077 215.002 160.82 214.028 160.778C213.822 160.769 213.609 160.769 213.387 160.769C213.156 160.778 212.908 160.795 212.652 160.812C212.515 160.82 212.378 160.812 212.25 160.786C211.78 160.812 211.302 160.778 210.815 160.709L212.609 152.772C203.031 152.652 196.478 150.986 188.728 146.03C186.182 144.407 185.413 142.544 182.867 142.724C180.944 143.091 179.329 143.954 178.039 145.338C176.809 146.663 175.878 148.474 175.271 150.789L176.288 160.145C175.724 160.179 175.185 160.162 174.69 160.086ZM215.822 158.419C217.112 158.812 217.941 159.633 218.274 160.957C218.65 162.427 218.24 164.486 217.001 167.305C216.975 167.357 216.95 167.408 216.924 167.459L211.627 176.191C209.585 179.558 207.508 182.924 204.74 185.522C201.878 188.205 198.34 189.99 193.513 189.982C189.001 189.973 185.609 188.247 182.824 185.701C180.133 183.24 178.073 180.062 176.117 176.952L171.469 169.561C169.768 167.023 168.888 164.708 168.829 162.803C168.803 161.905 168.957 161.094 169.281 160.385C169.632 159.633 170.161 159.009 170.879 158.53C171.212 158.308 171.588 158.112 172.007 157.958C171.708 153.951 171.588 148.893 171.785 144.663C171.887 143.664 172.075 142.655 172.357 141.647C173.545 137.401 176.527 133.983 180.218 131.633C181.517 130.804 182.944 130.121 184.447 129.574C193.376 126.327 205.218 128.096 211.558 134.948C214.139 137.742 215.762 141.451 216.112 146.346L215.822 158.419Z" fill="black"/>
</svg>
