<svg width="279" height="279" viewBox="0 0 279 279" fill="none" xmlns="http://www.w3.org/2000/svg">
<path d="M151.125 34.875H95.325C82.3038 34.875 75.7931 34.875 70.8197 37.4091C66.4449 39.6381 62.8881 43.1949 60.6591 47.5697C58.125 52.5431 58.125 59.0538 58.125 72.075V206.925C58.125 219.946 58.125 226.457 60.6591 231.431C62.8881 235.805 66.4449 239.362 70.8197 241.591C75.7931 244.125 82.3038 244.125 95.325 244.125H139.5M151.125 34.875L220.875 104.625M151.125 34.875V86.025C151.125 92.5356 151.125 95.7909 152.392 98.2776C153.507 100.465 155.284 102.243 157.472 103.358C159.959 104.625 163.214 104.625 169.725 104.625H220.875M220.875 104.625V116.25" stroke="black" stroke-width="9.41625" stroke-linecap="round" stroke-linejoin="round"/>
<path d="M236.167 161.967L236.154 161.96L236.14 161.953L188.297 139.673C188.231 139.64 188.165 139.607 188.099 139.573C187.218 139.129 186.319 138.675 185.336 138.559C184.239 138.431 183.09 138.723 181.733 139.706L139.997 165.498C139.401 165.866 138.991 166.242 138.758 166.634C138.515 167.043 138.473 167.46 138.603 167.842C138.725 168.203 138.982 168.482 139.242 168.686C139.506 168.892 139.807 169.047 140.076 169.15L140.076 169.15L160.951 177.125L161.18 177.212L161.382 177.075C171.499 170.207 182.64 168.636 192.341 169.688C202.054 170.742 210.276 174.42 214.531 177.984L214.781 178.194L215.064 178.032C221.233 174.519 234.117 167.145 236.194 165.824C236.752 165.469 237.134 165.089 237.349 164.682C237.57 164.263 237.598 163.843 237.491 163.461C237.29 162.739 236.638 162.224 236.167 161.967ZM161.353 189.353V190.177L162.062 189.756C170.267 184.879 191.621 178.055 211.309 189.756L212.018 190.177V189.353V180.674V180.437L211.826 180.296C204.893 175.196 185.236 168.16 161.609 180.257L161.353 180.387V180.674V189.353Z" fill="black" stroke="black" stroke-width="0.938226"/>
<path d="M165.195 197.522C157.936 205.992 155.009 228.115 174.165 240.474C182.837 246.069 199.96 245.44 209.253 235.433C217.118 226.964 220.546 210.428 210.365 197.522" stroke="black" stroke-width="3"/>
<path d="M178.875 201.744H187.055M187.055 201.744C191.573 201.744 195.235 205.407 195.235 209.925C195.235 214.442 191.573 218.105 187.055 218.105H178.875L191.599 230.829M187.055 201.744H200.688M178.875 209.925H200.688" stroke="black" stroke-width="3.63563" stroke-linecap="round" stroke-linejoin="round"/>
</svg>
