<svg width="279" height="279" viewBox="0 0 279 279" fill="none" xmlns="http://www.w3.org/2000/svg">
<path d="M151.125 34.875H95.325C82.3038 34.875 75.7931 34.875 70.8197 37.4091C66.4449 39.6381 62.8881 43.1949 60.6591 47.5697C58.125 52.5431 58.125 59.0538 58.125 72.075V206.925C58.125 219.946 58.125 226.457 60.6591 231.431C62.8881 235.805 66.4449 239.362 70.8197 241.591C75.7931 244.125 82.3038 244.125 95.325 244.125H139.5M151.125 34.875L220.875 104.625M151.125 34.875V86.025C151.125 92.5356 151.125 95.7909 152.392 98.2776C153.507 100.465 155.284 102.243 157.472 103.358C159.959 104.625 163.214 104.625 169.725 104.625H220.875M220.875 104.625V116.25" stroke="black" stroke-width="9.41625" stroke-linecap="round" stroke-linejoin="round"/>
<path d="M194 133C200.972 132.986 207.877 134.355 214.317 137.028C227.301 142.44 237.622 152.761 243.034 165.745L243.113 165.957C247.847 177.528 248.338 190.399 244.5 202.297C242.544 200.391 240.296 198.81 237.84 197.616C240.338 188.091 239.687 178.014 235.985 168.89L235.905 168.704C233.614 163.203 230.265 158.206 226.047 153.997C219.731 147.699 211.701 143.399 202.958 141.634C194.215 139.868 185.146 140.715 176.881 144.068L176.696 144.148C171.2 146.431 166.206 149.771 161.997 153.979C155.696 160.297 151.394 168.33 149.628 177.076C147.863 185.823 148.711 194.896 152.068 203.163L152.148 203.34C153.586 206.812 155.452 210.091 157.704 213.1C163.887 209.806 174.337 210.106 180.308 205.937C180.772 205.19 181.173 204.407 181.51 203.596C182.119 202.209 182.667 200.698 183.02 199.674C181.571 197.892 180.252 196.008 179.072 194.038L175.07 187.678C173.8 185.983 173.015 183.974 172.8 181.866C172.77 181.162 172.903 180.461 173.189 179.817C173.488 179.155 173.965 178.589 174.567 178.182C174.869 177.98 175.195 177.817 175.538 177.697C175.259 173.875 175.194 170.042 175.344 166.213C175.436 165.338 175.602 164.472 175.839 163.625C176.971 160.047 179.375 157.008 182.596 155.083C184.352 153.974 186.259 153.126 188.258 152.566C189.53 152.212 187.172 148.149 188.488 148.017C194.883 147.328 205.112 153.131 209.547 157.928C211.941 160.646 213.315 164.112 213.433 167.733L213.186 178.112C213.704 178.244 214.176 178.518 214.547 178.904C214.919 179.289 215.175 179.77 215.288 180.294C216.251 184.074 211.198 190.708 209.564 193.393C208.021 196.177 206.147 198.763 203.982 201.096L204.573 201.979C205.218 202.924 205.872 203.87 206.614 204.762C202.903 209.421 200.94 215.231 201.064 221.186C201.188 227.141 203.392 232.865 207.294 237.365C196.149 240.255 184.366 239.436 173.728 235.033C167.297 232.37 161.454 228.469 156.529 223.55C151.595 218.621 147.687 212.764 145.028 206.316L144.949 206.113C139.656 193.181 139.685 178.683 145.028 165.772C147.69 159.34 151.592 153.496 156.512 148.573C161.435 143.653 167.279 139.751 173.71 137.09L173.913 137.01C180.283 134.376 187.107 133.013 194 133Z" fill="#1A1A1A"/>
<path fill-rule="evenodd" clip-rule="evenodd" d="M226.683 197.617C230.819 197.617 234.862 198.843 238.3 201.141C241.739 203.439 244.419 206.705 246.001 210.526C247.583 214.347 247.997 218.551 247.189 222.607C246.382 226.663 244.389 230.389 241.465 233.313C238.54 236.236 234.813 238.227 230.757 239.033C226.7 239.839 222.496 239.423 218.676 237.839C214.855 236.256 211.591 233.574 209.294 230.135C206.998 226.695 205.773 222.652 205.775 218.516C205.775 215.771 206.316 213.053 207.367 210.516C208.417 207.98 209.958 205.676 211.899 203.735C213.841 201.794 216.146 200.255 218.683 199.205C221.219 198.155 223.938 197.616 226.683 197.617ZM231.1 209.639C231.78 208.959 232.204 208.411 233.034 209.259L235.684 212.024C236.568 212.907 236.568 213.411 235.684 214.223L231.188 218.719L235.066 222.588C235.843 223.348 235.887 223.825 235.066 224.647L232.557 227.208C231.789 228.012 231.391 227.5 230.791 226.864L226.939 223.004L222.373 227.57C221.56 228.454 221.048 228.454 220.173 227.57L217.408 224.92C216.525 224.09 217.108 223.666 217.788 222.986L222.328 218.446L218.398 214.506C217.762 213.879 217.249 213.49 218.044 212.739L220.615 210.231C221.427 209.409 221.904 209.444 222.664 210.231L226.621 214.188L231.1 209.639Z" fill="#F44336"/>
</svg>
