<svg width="21" height="21" viewBox="0 0 21 21" fill="none" xmlns="http://www.w3.org/2000/svg">
<path d="M20.6062 5.97188L18.375 4.85625V3.9375C18.375 2.1 16.9312 0.65625 15.0938 0.65625H5.90625C4.06875 0.65625 2.625 2.1 2.625 3.9375V4.85625L0.39375 5.97188C0.13125 6.10313 0 6.3 0 6.5625V9.84375C0 10.2375 0.2625 10.5 0.65625 10.5C1.05 10.5 1.3125 10.2375 1.3125 9.84375V6.95625L2.625 6.3V15.0938C2.625 15.6844 2.8875 16.2094 3.28125 16.5375V17.7188C3.28125 18.8344 4.13438 19.6875 5.25 19.6875H6.5625C7.67812 19.6875 8.53125 18.8344 8.53125 17.7188V17.0625H12.4688V17.7188C12.4688 18.8344 13.3219 19.6875 14.4375 19.6875H15.75C16.8656 19.6875 17.7188 18.8344 17.7188 17.7188V16.5375C18.1125 16.2094 18.375 15.6844 18.375 15.0938V6.3L19.6875 6.95625V9.84375C19.6875 10.2375 19.95 10.5 20.3438 10.5C20.7375 10.5 21 10.2375 21 9.84375V6.5625C21 6.3 20.8687 6.10313 20.6062 5.97188ZM8.53125 13.9125C8.46562 14.2406 8.20312 14.4375 7.875 14.4375C7.80937 14.4375 7.74375 14.4375 7.74375 14.4375L5.11875 13.7812C4.79063 13.7156 4.52812 13.3219 4.65937 12.9937C4.725 12.6656 5.11875 12.4031 5.44688 12.5344L8.07188 13.1906C8.4 13.2563 8.59688 13.5844 8.53125 13.9125ZM15.8813 13.7812L13.2563 14.4375C13.1906 14.4375 13.125 14.4375 13.125 14.4375C12.8625 14.4375 12.5344 14.2406 12.4688 13.9125C12.4031 13.5844 12.6 13.1906 12.9281 13.125L15.5531 12.4688C15.8813 12.4031 16.275 12.6 16.3406 12.9281C16.4719 13.3219 16.275 13.65 15.8813 13.7812ZM17.0625 9.38438C12.7969 10.8281 8.20312 10.8281 3.9375 9.38438V3.9375C3.9375 2.82187 4.79063 1.96875 5.90625 1.96875H15.0938C16.2094 1.96875 17.0625 2.82187 17.0625 3.9375V9.38438Z" fill="#737373"/>
</svg>
