<svg width="606" height="606" viewBox="0 0 606 606" fill="none" xmlns="http://www.w3.org/2000/svg">
<g filter="url(#filter0_d_437_8)">
<path d="M301.149 44.5192C283.999 44.7088 272.998 66.3286 256.746 71.8086C240.494 77.2887 218.86 66.8166 205.097 77.0507C191.333 87.2847 195.135 111.014 185.208 125C175.281 138.986 151.474 143.321 146.355 159.69C141.236 176.059 158.345 193.11 158.535 210.26C158.724 227.41 141.954 244.733 147.434 260.985C152.914 277.237 176.824 281.141 187.058 294.904C197.292 308.667 194.04 332.618 208.026 342.545C216.729 348.722 228.333 346.7 239.787 345.628V561.477L308.087 467.429L376.234 561.477V344.703C385.299 345.289 393.945 345.291 400.748 340.232C414.512 329.998 410.864 306.423 420.791 292.437C430.719 278.451 454.525 273.962 459.644 257.593C464.764 241.223 447.654 224.173 447.464 207.023C447.275 189.872 463.891 172.55 458.411 156.298C452.931 140.046 429.175 136.142 418.941 122.379C408.707 108.616 411.959 84.8194 397.973 74.8922C383.987 64.965 362.385 75.6946 346.015 70.5752C330.669 65.7758 319.835 47.0137 304.387 44.8275C303.357 44.6818 302.221 44.5074 301.149 44.5192ZM301.149 90.7725C308.967 90.6518 316.919 91.2676 324.893 92.7768C388.68 104.85 430.861 166.67 418.787 230.458C406.713 294.245 344.894 336.426 281.106 324.352C217.319 312.278 175.138 250.458 187.212 186.671C197.777 130.857 246.426 91.6176 301.149 90.7725ZM297.295 111.741C253.896 114.247 216.176 145.838 207.718 190.526C197.739 243.244 232.242 293.868 284.961 303.846C337.68 313.825 388.149 279.322 398.127 226.603C408.106 173.884 373.757 123.415 321.038 113.437C319.391 113.125 317.747 112.737 316.105 112.512C309.741 111.637 303.495 111.383 297.295 111.741ZM302.229 122.225C303.967 122.157 305.733 122.343 307.471 122.379C308.473 122.4 309.471 122.329 310.4 122.533C313.186 123.144 315.53 124.589 317.184 126.388C319.389 128.786 320.241 131.903 319.651 135.022C319.06 138.14 317.165 140.65 314.871 142.422C312.578 144.194 309.806 145.104 306.854 145.043C305.574 145.017 304.432 145.147 303.154 145.197C274.017 145.726 246.242 172.562 242.099 201.472C241.691 204.319 240.318 206.769 238.245 208.719C236.172 210.669 233.399 212.14 230.228 212.265C227.056 212.39 224.055 210.826 222.056 208.256C220.058 205.686 218.987 201.888 219.589 197.926C225.709 157.69 260.726 124.477 302.229 122.225Z" fill="#737373"/>
</g>
<defs>
<filter id="filter0_d_437_8" x="-4" y="0" width="614" height="614" filterUnits="userSpaceOnUse" color-interpolation-filters="sRGB">
<feFlood flood-opacity="0" result="BackgroundImageFix"/>
<feColorMatrix in="SourceAlpha" type="matrix" values="0 0 0 0 0 0 0 0 0 0 0 0 0 0 0 0 0 0 127 0" result="hardAlpha"/>
<feOffset dy="4"/>
<feGaussianBlur stdDeviation="2"/>
<feComposite in2="hardAlpha" operator="out"/>
<feColorMatrix type="matrix" values="0 0 0 0 0 0 0 0 0 0 0 0 0 0 0 0 0 0 0.25 0"/>
<feBlend mode="normal" in2="BackgroundImageFix" result="effect1_dropShadow_437_8"/>
<feBlend mode="normal" in="SourceGraphic" in2="effect1_dropShadow_437_8" result="shape"/>
</filter>
</defs>
</svg>
