<svg width="55" height="57" viewBox="0 0 55 57" fill="none" xmlns="http://www.w3.org/2000/svg">
<path d="M13.025 9.15C11.975 9.15 11.0875 9.5125 10.3625 10.2375C9.6375 10.9625 9.275 11.85 9.275 12.9C9.275 13.95 9.6375 14.8375 10.3625 15.5625C11.0875 16.2875 11.975 16.65 13.025 16.65C14.075 16.65 14.9625 16.2875 15.6875 15.5625C16.4125 14.8375 16.775 13.95 16.775 12.9C16.775 11.85 16.4125 10.9625 15.6875 10.2375C14.9625 9.5125 14.075 9.15 13.025 9.15ZM13.025 40.2C11.975 40.2 11.0875 40.5625 10.3625 41.2875C9.6375 42.0125 9.275 42.9 9.275 43.95C9.275 45 9.6375 45.8875 10.3625 46.6125C11.0875 47.3375 11.975 47.7 13.025 47.7C14.075 47.7 14.9625 47.3375 15.6875 46.6125C16.4125 45.8875 16.775 45 16.775 43.95C16.775 42.9 16.4125 42.0125 15.6875 41.2875C14.9625 40.5625 14.075 40.2 13.025 40.2ZM3.05 0H51.875C52.675 0 53.3125 0.2375 53.7875 0.7125C54.2625 1.1875 54.5 1.825 54.5 2.625V22.8C54.5 23.65 54.2625 24.375 53.7875 24.975C53.3125 25.575 52.675 25.875 51.875 25.875H3.05C2.3 25.875 1.6875 25.575 1.2125 24.975C0.7375 24.375 0.5 23.65 0.5 22.8V2.625C0.5 1.825 0.7375 1.1875 1.2125 0.7125C1.6875 0.2375 2.3 0 3.05 0ZM5 4.5V21.375H50V4.5H5ZM3.05 30.975H51.575C52.325 30.975 53 31.2875 53.6 31.9125C54.2 32.5375 54.5 33.25 54.5 34.05V53.85C54.5 54.85 54.2 55.6125 53.6 56.1375C53 56.6625 52.325 56.925 51.575 56.925H3.425C2.625 56.925 1.9375 56.6625 1.3625 56.1375C0.7875 55.6125 0.5 54.85 0.5 53.85V34.05C0.5 33.25 0.7375 32.5375 1.2125 31.9125C1.6875 31.2875 2.3 30.975 3.05 30.975ZM5 35.475V52.425H50V35.475H5ZM5 4.5V21.375V4.5ZM5 35.475V52.425V35.475Z" fill="black" fill-opacity="0.5"/>
</svg>
