<svg width="55" height="61" viewBox="0 0 55 61" fill="none" xmlns="http://www.w3.org/2000/svg">
<path d="M5 60.5C3.75 60.5 2.6875 60.0625 1.8125 59.1875C0.9375 58.3125 0.5 57.25 0.5 56V11C0.5 9.75 0.9375 8.6875 1.8125 7.8125C2.6875 6.9375 3.75 6.5 5 6.5H20.375C20.625 4.75 21.425 3.3125 22.775 2.1875C24.125 1.0625 25.7 0.5 27.5 0.5C29.3 0.5 30.875 1.0625 32.225 2.1875C33.575 3.3125 34.375 4.75 34.625 6.5H50C51.25 6.5 52.3125 6.9375 53.1875 7.8125C54.0625 8.6875 54.5 9.75 54.5 11V56C54.5 57.25 54.0625 58.3125 53.1875 59.1875C52.3125 60.0625 51.25 60.5 50 60.5H5ZM5 56H50V11H5V56ZM12.5 48.5H32.975V44H12.5V48.5ZM12.5 35.75H42.5V31.25H12.5V35.75ZM12.5 23H42.5V18.5H12.5V23ZM27.5 9.725C28.2 9.725 28.8125 9.4625 29.3375 8.9375C29.8625 8.4125 30.125 7.8 30.125 7.1C30.125 6.4 29.8625 5.7875 29.3375 5.2625C28.8125 4.7375 28.2 4.475 27.5 4.475C26.8 4.475 26.1875 4.7375 25.6625 5.2625C25.1375 5.7875 24.875 6.4 24.875 7.1C24.875 7.8 25.1375 8.4125 25.6625 8.9375C26.1875 9.4625 26.8 9.725 27.5 9.725ZM5 56V11V56Z" fill="black" fill-opacity="0.5"/>
</svg>
