<svg width="17" height="15" viewBox="0 0 17 15" fill="none" xmlns="http://www.w3.org/2000/svg">
<g clip-path="url(#clip0_312_5)">
<path fill-rule="evenodd" clip-rule="evenodd" d="M12.5369 5.08358H15.0825V4.69759C14.6841 3.21314 13.6714 3.22282 12.4194 3.23527C12.2132 3.23804 12.0264 3.23942 12.0154 3.23942H2.49992C2.28133 3.23942 2.10425 3.06234 2.10425 2.84375C2.10425 2.62516 2.28133 2.44808 2.49992 2.44808H12.0154C12.2962 2.44808 12.3557 2.44808 12.4124 2.4467C13.4832 2.43563 14.4185 2.42594 15.0825 3.05265V2.87142C15.0825 2.42871 14.9013 2.02751 14.6094 1.7356C14.3175 1.44368 13.9149 1.26245 13.4736 1.26245H2.39893C1.95622 1.26245 1.55501 1.44368 1.2631 1.7356C0.971191 2.02751 0.789958 2.43009 0.789958 2.87142V12.0908C0.789958 12.5335 0.971191 12.9347 1.2631 13.2266C1.55501 13.5186 1.9576 13.6998 2.39893 13.6998H13.4722C13.9149 13.6998 14.3161 13.5186 14.608 13.2266C14.8999 12.9347 15.0811 12.5321 15.0811 12.0908V10.7821H12.5356C11.7677 10.7821 11.0691 10.468 10.5641 9.96305C10.0592 9.45809 9.74512 8.75944 9.74512 7.99162V7.87126C9.74512 7.10343 10.0592 6.40479 10.5641 5.89982C11.0705 5.39762 11.7677 5.08358 12.5369 5.08358ZM15.8725 5.0988C16.1589 5.14168 16.4148 5.27726 16.6099 5.47371C16.8506 5.71444 16.9986 6.04647 16.9986 6.4117V9.39998C16.9986 9.78182 16.8437 10.1277 16.5933 10.3781C16.401 10.5704 16.1506 10.7074 15.8725 10.7599V12.0922C15.8725 12.7521 15.6027 13.3525 15.1683 13.7869C14.7339 14.2214 14.1335 14.4911 13.4736 14.4911H2.39893C1.73901 14.4911 1.13859 14.2214 0.704183 13.7869C0.269775 13.3539 0 12.7535 0 12.0936V2.8728C0 2.21289 0.269775 1.61247 0.704183 1.17806C1.13859 0.743652 1.73901 0.473877 2.39893 0.473877H13.4722C14.1321 0.473877 14.7325 0.743652 15.1669 1.17806C15.6013 1.61247 15.8711 2.21289 15.8711 2.8728V5.0988H15.8725ZM12.1938 6.85303C12.7542 6.85303 13.2079 7.3068 13.2079 7.86711C13.2079 8.42741 12.7542 8.88119 12.1938 8.88119C11.6335 8.88119 11.1798 8.42741 11.1798 7.86711C11.1798 7.3068 11.6335 6.85303 12.1938 6.85303Z" fill="#737373"/>
</g>
<defs>
<clipPath id="clip0_312_5">
<rect width="17" height="14.0186" fill="white" transform="translate(0 0.473877)"/>
</clipPath>
</defs>
</svg>
