<svg width="47" height="47" viewBox="0 0 47 47" fill="none" xmlns="http://www.w3.org/2000/svg">
<g clip-path="url(#clip0_404_2)">
<path d="M39.7381 29.9556C39.738 28.4169 39.1387 26.97 38.0507 25.882C36.9625 24.7938 35.5158 24.1946 33.977 24.1945L29.0472 24.1945C26.139 24.1946 23.7287 26.3611 23.3418 29.1647L21.7833 29.1647C21.6142 27.9258 21.0498 26.7813 20.1505 25.882C19.0624 24.7939 17.6157 24.1946 16.0769 24.1945L11.1472 24.1945C9.6084 24.1946 8.16165 24.7938 7.07358 25.882C5.98545 26.9701 5.38617 28.4168 5.38609 29.9556C5.38617 31.4943 5.98544 32.9411 7.07351 34.0292C8.16165 35.1173 9.60832 35.7165 11.1472 35.7166L16.0768 35.7165C17.6157 35.7165 19.0624 35.1173 20.1506 34.0292C21.0499 33.1298 21.614 31.9853 21.7833 30.7464L23.3408 30.7465C23.5099 31.9853 24.0742 33.1298 24.9735 34.0293C26.0617 35.1173 27.5084 35.7166 29.0472 35.7168L33.977 35.7167C37.1536 35.7165 39.7379 33.1321 39.7381 29.9556ZM19.0324 32.9109C18.243 33.7003 17.1935 34.135 16.0771 34.1349L11.1473 34.135C10.0311 34.135 8.98153 33.7003 8.19214 32.9109C7.40275 32.1215 6.96801 31.0719 6.96809 29.9556C6.96801 28.8393 7.40282 27.7899 8.19221 27.0005C8.98161 26.2111 10.0311 25.7763 11.1474 25.7763L16.0771 25.7763C17.1935 25.7763 18.2429 26.2111 19.0323 27.0005C19.6319 27.6 20.0262 28.3498 20.1816 29.1649L18.25 29.1647C17.8132 29.1648 17.4592 29.5188 17.4592 29.9556C17.4593 30.1739 17.5477 30.3716 17.6909 30.5147C17.834 30.6578 18.0317 30.7464 18.2501 30.7464L20.1816 30.7464C20.0263 31.5615 19.6319 32.3113 19.0324 32.9109ZM33.977 34.1351L29.0473 34.1353C27.931 34.1352 26.8815 33.7005 26.092 32.911C25.4925 32.3114 25.0981 31.5615 24.9428 30.7465L26.8744 30.7465C27.3112 30.7464 27.6652 30.3924 27.6652 29.9557C27.6651 29.5191 27.3112 29.165 26.8744 29.1649L24.944 29.1649C25.3149 27.2373 27.0134 25.7762 29.0474 25.7763L33.9772 25.7763C35.0935 25.7763 36.143 26.211 36.9325 27.0005C37.7219 27.7899 38.1566 28.8394 38.1566 29.9556C38.1565 32.26 36.2815 34.135 33.977 34.1351Z" fill="#000002"/>
<path fill-rule="evenodd" clip-rule="evenodd" d="M27.0681 8L27.0681 20.8299H27.8699L27.87 11.2075H30.2756L30.2756 20.8299L31.0774 20.8299V22.4337L27.0681 22.4336L27.0681 22.4337H19.0494L19.0494 22.4336L15.04 22.4337V20.8299L15.8419 20.8299L15.8419 13.6131H18.2475L18.2475 20.8299H19.0494L19.0494 8H27.0681ZM23.8606 18.4243H22.2569V20.8299H23.8606V18.4243ZM23.8606 14.415H22.2569V16.0187H23.8606V14.415ZM23.8606 11.2075H22.2569V12.8112H23.8606V11.2075Z" fill="black"/>
</g>
<defs>
<clipPath id="clip0_404_2">
<rect width="47" height="47" fill="white"/>
</clipPath>
</defs>
</svg>
