<svg width="21" height="21" viewBox="0 0 21 21" fill="none" xmlns="http://www.w3.org/2000/svg">
<path d="M17.8125 8.43042L16.3367 5.37333C15.915 4.63542 15.1771 4.10833 14.2283 4.10833H13.5958V2.73792C13.5958 2.31625 13.2796 2 12.8579 2H8.00875C7.58708 2 7.27083 2.31625 7.27083 2.73792V4.10833H6.53292C5.68958 4.10833 4.84625 4.63542 4.53 5.37333L3.05417 8.43042C2.42167 8.53583 2 9.06292 2 9.59V13.2796C2 13.9121 2 14.4392 3.05417 14.5446V16.6529C3.05417 17.2854 3.47583 17.8125 4.10833 17.8125H5.05708C5.68958 17.8125 6.21667 17.2854 6.21667 16.6529V14.65H14.65V16.6529C14.65 17.2854 15.0717 17.8125 15.7042 17.8125H16.6529C17.2854 17.8125 17.8125 17.2854 17.8125 16.6529V14.5446C18.8667 14.4392 18.8667 13.9121 18.8667 13.2796V9.59C18.8667 9.06292 18.445 8.53583 17.8125 8.43042ZM6.21667 10.855C6.21667 11.1712 5.90042 11.4875 5.58417 11.4875H3.68667C3.37042 11.4875 3.05417 11.1712 3.05417 10.855V10.0117C3.05417 9.69542 3.37042 9.37917 3.68667 9.37917H5.58417C5.90042 9.37917 6.21667 9.69542 6.21667 10.0117V10.855ZM12.5417 13.5958H8.325V12.5417H12.5417V13.5958ZM4.21375 8.325L5.47875 5.795C5.68958 5.37333 6.11125 5.1625 6.53292 5.1625H14.3337C14.7554 5.1625 15.1771 5.37333 15.3879 5.795L16.6529 8.325H4.21375ZM17.8125 10.855C17.8125 11.1712 17.4962 11.4875 17.18 11.4875H15.2825C14.9663 11.4875 14.65 11.1712 14.65 10.855V10.0117C14.65 9.69542 14.9663 9.37917 15.2825 9.37917H17.18C17.4962 9.37917 17.8125 9.69542 17.8125 10.0117V10.855Z" fill="#737373"/>
</svg>
