<svg width="24" height="23" viewBox="0 0 24 23" fill="none" xmlns="http://www.w3.org/2000/svg">
<g filter="url(#filter0_i_497_4035)">
<path d="M11.4088 19.3834C11.772 19.1642 12.2267 19.1642 12.5899 19.3834L17.9205 22.6008C18.786 23.1231 19.8537 22.3472 19.624 21.3627L18.2094 15.2988C18.113 14.8856 18.2534 14.4531 18.5741 14.1753L23.2854 10.0939C24.0495 9.43196 23.641 8.1768 22.6337 8.09134L16.4327 7.56525C16.0103 7.52942 15.6425 7.26275 15.4771 6.87246L13.0516 1.1497C12.6578 0.220526 11.3409 0.220525 10.9471 1.1497L8.52162 6.87246C8.3562 7.26275 7.98835 7.52942 7.56598 7.56525L1.36502 8.09134C0.35768 8.1768 -0.0507884 9.43196 0.713324 10.0939L5.42464 14.1753C5.74528 14.4531 5.88568 14.8856 5.7893 15.2988L4.37468 21.3627C4.14501 22.3472 5.2127 23.1231 6.07821 22.6008L11.4088 19.3834Z" fill="#FFCF26"/>
</g>
<defs>
<filter id="filter0_i_497_4035" x="-0.683594" y="-1.54688" width="24.3652" height="24.3154" filterUnits="userSpaceOnUse" color-interpolation-filters="sRGB">
<feFlood flood-opacity="0" result="BackgroundImageFix"/>
<feBlend mode="normal" in="SourceGraphic" in2="BackgroundImageFix" result="shape"/>
<feColorMatrix in="SourceAlpha" type="matrix" values="0 0 0 0 0 0 0 0 0 0 0 0 0 0 0 0 0 0 127 0" result="hardAlpha"/>
<feOffset dx="-1" dy="-2"/>
<feGaussianBlur stdDeviation="1"/>
<feComposite in2="hardAlpha" operator="arithmetic" k2="-1" k3="1"/>
<feColorMatrix type="matrix" values="0 0 0 0 0 0 0 0 0 0 0 0 0 0 0 0 0 0 0.15 0"/>
<feBlend mode="normal" in2="shape" result="effect1_innerShadow_497_4035"/>
</filter>
</defs>
</svg>
