<svg width="48" height="48" viewBox="0 0 48 48" fill="none" xmlns="http://www.w3.org/2000/svg">
<rect width="48" height="48" rx="6" fill="#001A72" fill-opacity="0.1"/>
<path d="M28.506 37.6608L18.7952 34.2269L12.186 36.8485C11.7675 37.07 11.3552 37.0577 10.9491 36.8116C10.5429 36.5654 10.3398 36.1962 10.3398 35.7039V15.1008C10.3398 14.7808 10.4322 14.4977 10.6168 14.2516C10.8014 14.0054 11.0414 13.8208 11.3368 13.6977L18.7952 11.0762L28.506 14.4731L35.0783 11.8516C35.4968 11.6546 35.9091 11.6731 36.3152 11.9069C36.7214 12.1408 36.9245 12.5039 36.9245 12.9962V33.8577C36.9245 34.1285 36.8322 34.3623 36.6475 34.5592C36.4629 34.7562 36.2352 34.9039 35.9645 35.0023L28.506 37.6608ZM27.2506 34.8916V16.2454L20.0137 13.8085V32.4546L27.2506 34.8916ZM29.466 34.8916L34.7091 33.1562V14.2516L29.466 16.2454V34.8916ZM12.5552 34.4485L17.7983 32.4546V13.8085L12.5552 15.5439V34.4485Z" fill="#1C023B"/>
</svg>
