<svg width="22" height="24" viewBox="0 0 22 24" fill="none" xmlns="http://www.w3.org/2000/svg">
<path d="M1.8 24C1.3 24 0.875 23.825 0.525 23.475C0.175 23.125 0 22.7 0 22.2V4.2C0 3.7 0.175 3.275 0.525 2.925C0.875 2.575 1.3 2.4 1.8 2.4H7.95C8.05 1.7 8.37 1.125 8.91 0.675C9.45 0.225 10.08 0 10.8 0C11.52 0 12.15 0.225 12.69 0.675C13.23 1.125 13.55 1.7 13.65 2.4H19.8C20.3 2.4 20.725 2.575 21.075 2.925C21.425 3.275 21.6 3.7 21.6 4.2V22.2C21.6 22.7 21.425 23.125 21.075 23.475C20.725 23.825 20.3 24 19.8 24H1.8ZM1.8 22.2H19.8V4.2H1.8V22.2ZM4.8 19.2H12.99V17.4H4.8V19.2ZM4.8 14.1H16.8V12.3H4.8V14.1ZM4.8 9H16.8V7.2H4.8V9ZM10.8 3.69C11.08 3.69 11.325 3.585 11.535 3.375C11.745 3.165 11.85 2.92 11.85 2.64C11.85 2.36 11.745 2.115 11.535 1.905C11.325 1.695 11.08 1.59 10.8 1.59C10.52 1.59 10.275 1.695 10.065 1.905C9.855 2.115 9.75 2.36 9.75 2.64C9.75 2.92 9.855 3.165 10.065 3.375C10.275 3.585 10.52 3.69 10.8 3.69ZM1.8 22.2V4.2V22.2Z" fill="black" fill-opacity="0.7"/>
</svg>
