<svg width="24" height="24" viewBox="0 0 24 24" fill="none" xmlns="http://www.w3.org/2000/svg">
<path d="M12.1 24C10.4333 24 8.86667 23.6833 7.4 23.05C5.93333 22.4167 4.65 21.5556 3.55 20.4667C2.45 19.3778 1.58333 18.1 0.95 16.6333C0.316667 15.1667 0 13.6 0 11.9333C0 10.2667 0.316667 8.71111 0.95 7.26667C1.58333 5.82222 2.45 4.56111 3.55 3.48333C4.65 2.40556 5.93333 1.55556 7.4 0.933333C8.86667 0.311111 10.4333 0 12.1 0C13.8778 0 15.5611 0.388889 17.15 1.16667C18.7389 1.94444 20.1111 3.01111 21.2667 4.36667V0.833333H23.2667V7.76667H16.3V5.76667H19.8C18.8222 4.63333 17.6722 3.72222 16.35 3.03333C15.0278 2.34444 13.6111 2 12.1 2C9.32222 2 6.94444 2.95 4.96667 4.85C2.98889 6.75 2 9.07778 2 11.8333C2 14.6556 2.97778 17.0556 4.93333 19.0333C6.88889 21.0111 9.27778 22 12.1 22C14.8778 22 17.2222 21.0222 19.1333 19.0667C21.0444 17.1111 22 14.7444 22 11.9667H24C24 15.3 22.8444 18.1389 20.5333 20.4833C18.2222 22.8278 15.4111 24 12.1 24ZM16.1667 17.4333L11.0333 12.3667V5.23333H13.0333V11.5333L17.6 16L16.1667 17.4333Z" fill="white"/>
</svg>
