<svg width="16" height="24" viewBox="0 0 16 24" fill="none" xmlns="http://www.w3.org/2000/svg">
<path d="M10.8 24L1.66667 14.5333V12.3333H6C7.26667 12.3333 8.37778 11.9222 9.33333 11.1C10.2889 10.2778 10.8444 9.13333 11 7.66667H0V5.66667H10.8333C10.5444 4.6 9.95 3.72222 9.05 3.03333C8.15 2.34444 7.13333 2 6 2H0V0H16V2H10.8667C11.3778 2.44444 11.8111 3.01111 12.1667 3.7C12.5222 4.38889 12.7778 5.04444 12.9333 5.66667H16V7.66667H13C12.8222 9.68889 12.0722 11.3056 10.75 12.5167C9.42778 13.7278 7.84444 14.3333 6 14.3333H4.26667L13.5667 24H10.8Z" fill="white"/>
</svg>
