<svg width="22" height="24" viewBox="0 0 22 24" fill="none" xmlns="http://www.w3.org/2000/svg">
<path d="M19.2 19.2H7.2C6.56348 19.2 5.95303 18.9471 5.50294 18.4971C5.05286 18.047 4.8 17.4365 4.8 16.8V2.4C4.8 1.76348 5.05286 1.15303 5.50294 0.702944C5.95303 0.252856 6.56348 0 7.2 0H8.4V6L10.8 4.2L13.2 6V0H19.2C19.8365 0 20.447 0.252856 20.8971 0.702944C21.3471 1.15303 21.6 1.76348 21.6 2.4V16.8C21.6 17.4365 21.3471 18.047 20.8971 18.4971C20.447 18.9471 19.8365 19.2 19.2 19.2ZM16.8 21.6V24H2.4C1.76348 24 1.15303 23.7471 0.702944 23.2971C0.252856 22.847 0 22.2365 0 21.6V4.8H2.4V21.6H16.8Z" fill="white"/>
</svg>
