<svg width="23" height="24" viewBox="0 0 23 24" fill="none" xmlns="http://www.w3.org/2000/svg">
<path d="M5.28063 3.85771C4.83794 3.85771 4.46377 4.01054 4.1581 4.31621C3.85244 4.62187 3.6996 4.99605 3.6996 5.43874C3.6996 5.88142 3.85244 6.2556 4.1581 6.56126C4.46377 6.86693 4.83794 7.01976 5.28063 7.01976C5.72332 7.01976 6.0975 6.86693 6.40316 6.56126C6.70883 6.2556 6.86166 5.88142 6.86166 5.43874C6.86166 4.99605 6.70883 4.62187 6.40316 4.31621C6.0975 4.01054 5.72332 3.85771 5.28063 3.85771ZM5.28063 16.9486C4.83794 16.9486 4.46377 17.1014 4.1581 17.4071C3.85244 17.7128 3.6996 18.087 3.6996 18.5296C3.6996 18.9723 3.85244 19.3465 4.1581 19.6522C4.46377 19.9578 4.83794 20.1107 5.28063 20.1107C5.72332 20.1107 6.0975 19.9578 6.40316 19.6522C6.70883 19.3465 6.86166 18.9723 6.86166 18.5296C6.86166 18.087 6.70883 17.7128 6.40316 17.4071C6.0975 17.1014 5.72332 16.9486 5.28063 16.9486ZM1.0751 0H21.6601C21.9974 0 22.2661 0.100132 22.4664 0.300395C22.6667 0.500659 22.7668 0.769433 22.7668 1.10672V9.61265C22.7668 9.97101 22.6667 10.2767 22.4664 10.5296C22.2661 10.7826 21.9974 10.9091 21.6601 10.9091H1.0751C0.758893 10.9091 0.500659 10.7826 0.300395 10.5296C0.100132 10.2767 0 9.97101 0 9.61265V1.10672C0 0.769433 0.100132 0.500659 0.300395 0.300395C0.500659 0.100132 0.758893 0 1.0751 0ZM1.89723 1.89723V9.01186H20.8696V1.89723H1.89723ZM1.0751 13.0593H21.5336C21.8498 13.0593 22.1344 13.191 22.3874 13.4545C22.6403 13.7181 22.7668 14.0184 22.7668 14.3557V22.7036C22.7668 23.1252 22.6403 23.4466 22.3874 23.668C22.1344 23.8893 21.8498 24 21.5336 24H1.2332C0.895916 24 0.606061 23.8893 0.363636 23.668C0.121212 23.4466 0 23.1252 0 22.7036V14.3557C0 14.0184 0.100132 13.7181 0.300395 13.4545C0.500659 13.191 0.758893 13.0593 1.0751 13.0593ZM1.89723 14.9565V22.1028H20.8696V14.9565H1.89723ZM1.89723 1.89723V9.01186V1.89723ZM1.89723 14.9565V22.1028V14.9565Z" fill="white"/>
</svg>
