<svg width="181" height="104" viewBox="0 0 181 104" fill="none" xmlns="http://www.w3.org/2000/svg">
<path fill-rule="evenodd" clip-rule="evenodd" d="M58.2464 72.5393L51.3095 74.1874L51.0993 73.2961L58.0362 71.6396L58.2464 72.5393ZM57.7335 70.3615L54.5047 72.4468L50.8555 72.2702L50.6368 71.3621L54.202 71.6816L57.5065 69.4366L57.7335 70.3615ZM57.5149 69.3946L50.2164 69.218L50.0651 68.2762L56.9347 65.8126L57.0693 66.687L55.5558 67.1916L55.766 68.4949L57.372 68.5201L57.5149 69.3946ZM54.8999 68.5033L54.7401 67.4859L51.8645 68.4612L51.8729 68.4865L54.8999 68.5033ZM56.8507 65.1147L49.7792 65.9976L49.6783 65.2408C49.6026 64.6354 49.7203 64.1477 50.0398 63.7862C50.3594 63.4162 50.8134 63.1976 51.402 63.1219C52.0747 63.0378 52.6128 63.2228 53.0164 63.6684C53.235 63.2564 53.9077 62.8444 55.0428 62.4324L56.4555 61.9195L56.5732 62.878L55.3876 63.3069C54.5552 63.6096 54.0338 63.845 53.8152 64.0216C53.5966 64.1898 53.5209 64.3831 53.5714 64.5934L56.7413 64.1982L56.8507 65.1147ZM52.7221 64.7027V64.6606C52.6549 64.1561 52.2681 63.9459 51.5534 64.03C50.7966 64.1309 50.4434 64.442 50.5107 64.9801L52.7221 64.7027ZM51.8476 59.6576L49.1822 58.7411L49.1401 57.9591L56.2621 57.5723L56.3125 58.472L51.1582 58.6907L51.1413 58.7159L53.5293 59.4895L53.5377 59.6576L51.2422 60.675L51.2675 60.7003L56.4134 60.3723L56.4555 61.2636L49.3335 61.642L49.2915 60.86L51.8476 59.6576ZM56.2705 56.8997L49.1233 55.4282L49.1401 54.478L56.3377 53.2672L56.3209 54.1585L54.7401 54.3855L54.7149 55.7057L56.2873 56.0168L56.2705 56.8997ZM53.8657 55.5543L53.8825 54.5285L50.8807 54.9741V54.9994L53.8657 55.5543ZM56.5227 51.9555L49.2326 52.8804L49.2915 51.9219L54.1263 51.5015L49.3588 50.5849L49.4092 49.6264L56.5564 51.3165L56.5227 51.9555ZM56.632 49.2901L49.5606 48.3988L49.8717 45.8846L50.7209 45.9855L50.5191 47.5916L52.638 47.8606L52.823 46.3892L53.6723 46.4985L53.4873 47.9699L55.9005 48.2726L56.1107 46.5741L56.96 46.6834L56.632 49.2901ZM57.1113 45.4306L50.1239 44.0348L50.62 41.5459L51.4525 41.7141L51.1413 43.3033L53.235 43.7153L53.5209 42.2606L54.3618 42.4288L54.0675 43.8834L56.4555 44.3627L56.7918 42.6895L57.6326 42.8576L57.1113 45.4306ZM57.8849 41.6216L50.9479 39.9735L51.1245 39.2252C51.2675 38.6282 51.5534 38.2246 51.9738 37.9892C52.4026 37.7621 52.8987 37.7117 53.4873 37.8546C54.1431 38.0144 54.5804 38.3675 54.799 38.9225C55.1522 38.6198 55.9257 38.4684 57.1281 38.4768L58.6332 38.4937L58.4062 39.4354L57.1449 39.4186C56.2621 39.4102 55.6903 39.4522 55.4296 39.5363C55.1606 39.6204 55.0176 39.7801 54.9924 39.9904L58.1035 40.7303L57.8849 41.6216ZM54.1684 39.797L54.1768 39.7549C54.2945 39.2504 54.0002 38.9225 53.3023 38.7543C52.5624 38.5777 52.1251 38.7543 51.9906 39.2756L54.1684 39.797ZM59.9618 34.466L53.2519 32.0528L53.563 31.1868L60.2729 33.6L59.9618 34.466ZM60.7185 32.3639L56.8759 32.3471L53.9161 30.1946L54.2356 29.3201L57.0356 31.5399L61.038 31.4726L60.7185 32.3639ZM61.1137 31.4558L55.1269 27.2853L55.5137 26.4108L62.602 28.1513L62.2404 28.9585L60.6933 28.5381L60.1552 29.7405L61.4753 30.6486L61.1137 31.4558ZM59.432 29.2696L59.8525 28.3363L56.9179 27.5627L56.9095 27.588L59.432 29.2696ZM62.9552 27.5375L56.7161 24.0816L57.1618 23.2829L63.4008 26.7303L62.9552 27.5375ZM64.0398 25.5783L60.2561 24.9561L57.6663 22.3579L58.1203 21.5423L60.5419 24.1826L64.5023 24.7543L64.0398 25.5783ZM64.5107 24.7123L59.3059 19.5916L59.8356 18.8012L66.5371 21.6937L66.041 22.4252L64.5864 21.7609L63.8549 22.854L65.0068 23.9723L64.5107 24.7123ZM63.2158 22.2738L63.7876 21.4162L61.0296 20.1717L61.0128 20.1886L63.2158 22.2738ZM66.6212 21.2228L65.8813 20.6258C66.2597 20.5753 66.5371 20.4492 66.6969 20.2474C66.823 20.1045 66.8735 19.9279 66.8567 19.7429C66.8314 19.5495 66.7473 19.3898 66.6044 19.272C66.4783 19.1711 66.3017 19.0786 66.0663 18.9862C65.8392 18.9021 65.3768 18.7928 64.6789 18.6582C63.9726 18.5237 63.4681 18.3892 63.1485 18.263C62.8374 18.1453 62.5852 18.0024 62.3918 17.851C62.0218 17.5399 61.8032 17.1952 61.7359 16.7916C61.6687 16.388 61.778 16.018 62.0386 15.6901C62.19 15.5051 62.4002 15.3453 62.6693 15.2108L63.3419 15.7573C63.0729 15.8582 62.8795 15.9844 62.7618 16.1189C62.4675 16.4804 62.5011 16.8084 62.8543 17.0943C62.9804 17.1952 63.1654 17.2961 63.3924 17.3801C63.6278 17.4642 64.0903 17.5735 64.7798 17.7081C65.4777 17.8342 65.9822 17.9603 66.3017 18.0865C66.6128 18.221 66.8651 18.3555 67.0669 18.5153C67.4368 18.8264 67.6639 19.1795 67.7227 19.5832C67.79 19.9868 67.6807 20.3567 67.4116 20.6931C67.2098 20.9369 66.9492 21.1135 66.6212 21.2228ZM68.4711 19.2132L64.023 13.4282L64.6621 12.7135L70.8927 16.5057L70.3041 17.1699L68.9588 16.3039L68.0759 17.2877L69.0681 18.5489L68.4711 19.2132ZM67.5293 16.615L68.2104 15.8498L65.6543 14.2354L65.6374 14.2522L67.5293 16.615ZM71.4476 16.06L66.6464 10.788L67.3191 10.1741L69.4296 12.4949L70.447 11.5699L68.3365 9.24922L69.0092 8.63541L73.8104 13.9075L73.1377 14.5213L71.0272 12.2006L70.0098 13.1255L72.1203 15.4462L71.4476 16.06ZM74.8446 13.1759L70.9852 7.17234L73.1209 5.80177L73.5834 6.52489L72.2212 7.39937L73.3732 9.19877L74.626 8.39156L75.0885 9.11468L73.8356 9.91348L75.1558 11.9651L76.5936 11.0402L77.0561 11.7549L74.8446 13.1759ZM78.1323 11.1075L75.0464 4.68345L76.0218 4.21258C76.5095 3.97715 76.9888 3.94351 77.4597 4.09486C77.9305 4.25462 78.2753 4.54892 78.4855 4.98616C78.763 5.56634 78.7041 6.16333 78.3089 6.76874C79.1161 6.76874 79.6963 7.13871 80.0579 7.89547C80.3269 8.44201 80.3606 8.98015 80.1756 9.49306C79.9822 10.006 79.5702 10.418 78.9143 10.7375L78.1323 11.1075ZM77.1822 7.00417L77.2579 6.97054C77.5437 6.83601 77.7287 6.6342 77.8128 6.36513C77.8969 6.10447 77.8633 5.81859 77.7203 5.51589C77.569 5.21318 77.3756 5.01979 77.1317 4.93571C76.8879 4.84321 76.6188 4.87685 76.3161 5.01979L76.2404 5.05342L77.1822 7.00417ZM78.5948 9.94712L78.7377 9.87144C79.0573 9.72009 79.2591 9.50988 79.3516 9.2324C79.444 8.96333 79.4104 8.66063 79.2507 8.32429C79.0909 7.99637 78.8723 7.77775 78.5948 7.65162C78.3173 7.5339 78.023 7.55072 77.6951 7.71048L77.5522 7.77775L78.5948 9.94712ZM85.2543 8.57655L82.4711 1.7321L83.4128 1.56393L85.0945 6.14652L85.1197 6.13811L85.2122 1.23601L85.8597 1.11829L87.6254 5.80177H87.6507L87.6591 0.798769L88.6092 0.622192L88.3906 8.01318L87.7684 8.12249L85.969 3.59877H85.9522L85.8765 8.46724L85.2543 8.57655ZM89.8789 7.92069L91.4765 0.798769L92.435 0.832403L93.5029 8.05522L92.62 8.02159L92.4266 6.4324L91.0981 6.39036L90.7618 7.95432L89.8789 7.92069ZM91.2663 5.54111L92.2921 5.57474L91.8969 2.57294H91.8717L91.2663 5.54111ZM98.3966 5.27204L97.5305 8.67745C97.0513 8.83721 96.6056 8.87084 96.2104 8.76994C95.5125 8.59336 95.0416 8.14772 94.7894 7.41619C94.5456 6.69306 94.5624 5.76814 94.8398 4.65823C95.1173 3.56514 95.5377 2.74111 96.0927 2.20297C96.6476 1.66483 97.2531 1.47985 97.9173 1.64802C98.3125 1.74892 98.7077 2.0264 99.1113 2.48045L98.8675 3.4306C98.4891 2.85042 98.1191 2.51408 97.7576 2.42159C96.8831 2.20297 96.202 3.01859 95.7311 4.87685C95.2771 6.69306 95.5125 7.71048 96.4374 7.95432C96.5131 7.97114 96.6224 7.98796 96.757 7.99637L97.2951 5.87745L96.6897 5.7261L96.8999 4.89366L98.3966 5.27204ZM98.5143 9.3333L101.18 2.71589L102.021 3.06063L100.852 5.96994L102.13 6.48285L103.299 3.57354L104.14 3.90988L101.474 10.5273L100.633 10.191L101.81 7.27324L100.532 6.76033L99.3552 9.66964L98.5143 9.3333ZM105.611 13.0078L110.126 7.48345L112.094 9.08946L111.547 9.75372L110.294 8.7279L108.941 10.3844L110.093 11.3177L109.555 11.982L108.403 11.0402L106.864 12.9321L108.184 14.0084L107.646 14.6726L105.611 13.0078ZM108.596 15.4294L113.666 10.418L114.381 11.1327C115.533 12.2931 115.255 13.7057 113.574 15.3789C112.733 16.2114 111.951 16.6907 111.245 16.8252C110.53 16.9597 109.916 16.7663 109.403 16.245L108.596 15.4294ZM109.849 15.4798L109.95 15.5808C110.328 15.9675 110.749 16.0937 111.203 15.9591C111.657 15.8246 112.22 15.421 112.901 14.7483C113.607 14.0504 114.036 13.4786 114.179 13.033C114.331 12.5874 114.204 12.1753 113.818 11.7801L113.708 11.6708L109.849 15.4798ZM117.223 14.1261L117.803 14.8408L113.641 18.221C113.12 18.6498 112.994 19.0366 113.279 19.3813C113.406 19.5327 113.574 19.6084 113.784 19.6C113.994 19.5832 114.221 19.4823 114.457 19.2889L118.652 15.8835L119.233 16.5982L115.113 19.9363C114.633 20.3315 114.162 20.5081 113.7 20.4744C113.246 20.4324 112.884 20.2558 112.615 19.9195C112.329 19.5663 112.22 19.1627 112.296 18.7087C112.38 18.263 112.624 17.8594 113.052 17.5147L117.223 14.1261ZM116.954 23.636L116.155 24.1741C115.735 24.0396 115.424 23.8126 115.213 23.4931C114.869 22.9886 114.869 22.4168 115.205 21.7946C115.533 21.1639 116.18 20.5249 117.147 19.8774C118.114 19.23 118.964 18.8684 119.687 18.7844C120.418 18.6919 120.956 18.9105 121.301 19.4318C121.469 19.6756 121.553 20.0204 121.545 20.4576L120.771 20.9705C120.847 20.5501 120.805 20.2138 120.637 19.9615C120.427 19.6588 120.099 19.5579 119.653 19.6588C119.199 19.7597 118.552 20.0961 117.719 20.6594C116.887 21.2144 116.34 21.6768 116.071 22.0636C115.802 22.442 115.777 22.7952 115.987 23.1147C116.138 23.3333 116.458 23.5099 116.954 23.636ZM116.063 24.5777L122.991 22.2738L123.454 23.1147L117.82 27.7477L117.391 26.9741L118.644 25.9904L118.005 24.83L116.491 25.3513L116.063 24.5777ZM118.821 24.5357L119.317 25.4354L121.688 23.5519L121.679 23.5267L118.821 24.5357ZM118.257 28.6642L123.866 25.8558L123.378 24.872L124.143 24.4937L125.539 27.2853L124.774 27.6636L124.278 26.6798L118.669 29.4883L118.257 28.6642ZM119.409 31.1447L126.018 28.4708L126.363 29.3201L119.754 31.994L119.409 31.1447ZM120.687 34.7267C120.494 34.197 120.645 33.6504 121.141 33.0955C121.637 32.5405 122.419 32.0696 123.487 31.6828C124.496 31.3213 125.379 31.1783 126.136 31.2624C126.893 31.3465 127.372 31.6744 127.582 32.2378C127.776 32.7928 127.616 33.3393 127.086 33.8943C126.565 34.4576 125.8 34.9201 124.782 35.2816C123.706 35.6684 122.798 35.803 122.066 35.6768C121.335 35.5591 120.872 35.2396 120.687 34.7267ZM126.775 32.5237C126.666 32.2378 126.355 32.1033 125.833 32.1201C125.312 32.1369 124.639 32.2967 123.815 32.591C122.958 32.8937 122.335 33.2132 121.932 33.5327C121.537 33.8522 121.394 34.1549 121.494 34.4408C121.595 34.7183 121.907 34.8528 122.428 34.8444C122.949 34.836 123.622 34.6762 124.454 34.3819C125.304 34.0708 125.926 33.7597 126.329 33.4318C126.725 33.1039 126.876 32.8012 126.775 32.5237ZM121.688 37.451L128.558 35.5423L128.751 36.2486L124.917 38.9813L124.95 38.9898L129.188 37.821L129.415 38.6198L122.537 40.5285L122.344 39.8222L126.212 37.081L126.186 37.0642L121.907 38.2498L121.688 37.451ZM123.597 44.9345L124.538 44.7831C124.32 45.1027 124.236 45.3886 124.278 45.6492C124.303 45.8342 124.404 45.9855 124.555 46.1033C124.715 46.2126 124.883 46.2546 125.068 46.221C125.228 46.1958 125.421 46.1285 125.64 46.0192C125.858 45.9015 126.245 45.624 126.817 45.1952C127.38 44.7579 127.818 44.472 128.12 44.3207C128.415 44.1609 128.692 44.0684 128.936 44.0264C129.407 43.9507 129.819 44.0264 130.164 44.245C130.508 44.4636 130.71 44.7831 130.777 45.2036C130.819 45.439 130.803 45.6997 130.719 45.9855L129.861 46.1285C129.97 45.8594 130.004 45.6324 129.979 45.4558C129.903 44.9934 129.642 44.8 129.197 44.8756C129.028 44.9009 128.835 44.9681 128.616 45.0858C128.398 45.2036 128.011 45.4726 127.448 45.9099C126.893 46.3387 126.464 46.633 126.161 46.7843C125.85 46.9357 125.573 47.0282 125.329 47.0702C124.849 47.1459 124.437 47.0786 124.093 46.86C123.748 46.633 123.538 46.3051 123.47 45.8762C123.42 45.5735 123.462 45.254 123.597 44.9345ZM123.967 49.8702C123.916 49.3069 124.202 48.8276 124.816 48.4156C125.438 48.0036 126.313 47.7429 127.439 47.642C128.516 47.5495 129.407 47.6336 130.113 47.9111C130.828 48.1801 131.206 48.6258 131.265 49.2228C131.316 49.803 131.013 50.2907 130.365 50.7027C129.718 51.1063 128.86 51.3585 127.784 51.451C126.64 51.5519 125.732 51.451 125.051 51.1483C124.379 50.8372 124.017 50.4168 123.967 49.8702ZM130.407 49.2816C130.382 48.9874 130.113 48.7771 129.6 48.6594C129.096 48.5417 128.398 48.5249 127.532 48.6006C126.624 48.6846 125.943 48.8276 125.472 49.0378C125.009 49.248 124.791 49.5003 124.816 49.803C124.841 50.0973 125.11 50.3075 125.615 50.4252C126.119 50.5513 126.817 50.5765 127.7 50.4925C128.591 50.4168 129.281 50.2654 129.743 50.0552C130.214 49.845 130.433 49.5844 130.407 49.2816ZM125.631 55.4618L124.664 55.4786C124.387 55.1339 124.252 54.7723 124.244 54.394C124.227 53.7801 124.538 53.3009 125.152 52.9561C125.774 52.6114 126.666 52.4264 127.826 52.4096C128.986 52.3843 129.903 52.5357 130.559 52.8636C131.223 53.1831 131.551 53.6624 131.568 54.2846C131.568 54.5789 131.45 54.9153 131.215 55.2768L130.281 55.2937C130.576 54.9826 130.719 54.6714 130.71 54.3687C130.71 53.9988 130.483 53.7381 130.054 53.5783C129.617 53.4186 128.894 53.3513 127.885 53.3681C126.893 53.3849 126.178 53.4859 125.741 53.654C125.303 53.8306 125.093 54.1081 125.102 54.4949C125.102 54.7639 125.278 55.0835 125.631 55.4618ZM124.37 56.2859L131.509 56.412L131.492 57.3285L124.353 57.2024L124.37 56.2859ZM124.345 58.43L131.475 58.8084L131.332 61.3477L130.483 61.2973L130.567 59.6828L128.44 59.5651L128.356 61.0534L127.507 61.003L127.582 59.5231L125.152 59.397L125.06 61.0955L124.21 61.0534L124.345 58.43ZM124.051 62.878L130.307 63.4414L130.407 62.3483L131.257 62.424L130.979 65.5267L130.13 65.451L130.222 64.3579L123.975 63.7946L124.051 62.878ZM123.664 66.191L126.876 66.7123L130.887 66.2162L130.735 67.1579L127.91 67.3261L127.902 67.3429L130.525 68.4108L130.374 69.3525L126.733 67.6204L123.513 67.0991L123.664 66.191ZM127.893 69.6805L127.994 69.6889C128.288 69.9916 128.658 70.1681 129.113 70.2186C129.247 69.9411 129.466 69.8318 129.76 69.8907C129.928 69.9243 130.054 70.0084 130.155 70.1345C130.239 70.269 130.273 70.412 130.239 70.5717C130.206 70.7735 130.088 70.9165 129.886 71.009C129.693 71.0931 129.457 71.1099 129.18 71.0594C128.49 70.9165 128.061 70.4624 127.893 69.6805ZM123.067 70.5381L123.992 70.7567C123.672 70.9669 123.487 71.2024 123.42 71.4546C123.378 71.6396 123.403 71.8162 123.504 71.9844C123.605 72.1441 123.748 72.245 123.933 72.2955C124.093 72.3291 124.294 72.3375 124.538 72.3207C124.782 72.2955 125.253 72.1946 125.943 72.0096C126.632 71.8246 127.145 71.7237 127.481 71.6985C127.818 71.6816 128.112 71.6901 128.347 71.7489C128.818 71.8582 129.163 72.0853 129.398 72.4216C129.634 72.7579 129.701 73.1279 129.6 73.5399C129.541 73.7753 129.424 74.0108 129.239 74.2462L128.398 74.0444C128.6 73.8342 128.717 73.6408 128.759 73.4642C128.869 73.0186 128.701 72.7327 128.263 72.6318C128.095 72.5898 127.893 72.5813 127.649 72.6066C127.397 72.6318 126.935 72.7327 126.254 72.9177C125.573 73.1027 125.06 73.2036 124.723 73.2288C124.387 73.2456 124.093 73.2288 123.849 73.1699C123.378 73.0606 123.025 72.8336 122.789 72.4973C122.554 72.1609 122.487 71.7825 122.588 71.3621C122.663 71.051 122.823 70.7819 123.067 70.5381Z" fill="#0F84B2"/>
<path fill-rule="evenodd" clip-rule="evenodd" d="M93.7384 68.9488L97.6063 68.9236L97.6904 73.9686L97.3288 73.977V74.944L96.8327 74.9608L96.8411 73.7752C96.0591 73.7164 95.2099 73.9434 94.7979 73.6491C94.0243 73.0942 94.2261 71.9338 95.2099 71.7488C95.7144 71.6647 95.8153 72.5644 96.1768 73.0521L96.8747 72.9848C97.354 70.5885 93.9234 71.7824 93.7384 68.9488Z" fill="#0F84B2"/>
<path fill-rule="evenodd" clip-rule="evenodd" d="M104.863 77.8785C104.93 75.0365 108.209 76.9452 105.981 78.6941C102.836 79.4677 101.289 78.0887 102.567 75.8353C104.106 73.1194 108.596 74.3638 108.89 76.962C109.252 80.1908 104.308 82.8563 98.8843 80.5188C96.429 79.4509 93.7552 75.7596 91.0477 71.0173L94.6717 71.0257C93.1582 72.6737 93.2675 73.9098 95.0248 74.7506L97.623 74.8011C98.8927 77.6767 100.364 79.7872 102.761 80.2665C105.939 80.4935 107.562 79.3584 107.612 76.8611C107.007 75.0365 105.426 74.902 104.249 75.7848C103.231 76.4239 103.324 78.6521 104.863 77.8785Z" fill="#0F84B2"/>
<path fill-rule="evenodd" clip-rule="evenodd" d="M95.4116 84.6053C95.6891 84.6053 95.9077 84.8156 95.9077 85.0762C95.9077 85.3369 95.6891 85.5471 95.4116 85.5387C95.1426 85.5387 94.9155 85.3285 94.9155 85.0762C94.9155 84.8156 95.1426 84.6053 95.4116 84.6053Z" fill="#0F84B2"/>
<path fill-rule="evenodd" clip-rule="evenodd" d="M88.8952 89.6672C89.3829 94.1069 92.7126 95.3261 95.0838 95.1495C96.572 95.0318 97.909 93.7201 98.0015 92.2402C98.1192 90.3147 96.076 89.6756 94.5288 90.096C93.4946 90.3735 92.8051 91.2396 92.9396 92.0804C93.1498 93.3669 94.0748 93.4846 94.7474 93.2156C95.6219 92.854 95.7732 91.9039 94.6465 91.6011C93.7552 91.3657 94.6886 90.8023 95.479 90.9957C96.4375 91.2228 97.2195 92.2654 95.8321 93.7201C93.7805 94.7543 91.0898 93.6444 90.6105 89.6504L98.8423 89.6672L98.733 82.7219L95.3108 82.7471C94.4868 82.9993 94.512 83.6804 94.4447 83.6552C91.0729 83.6888 90.0303 85.7321 89.7865 87.027L90.6021 87.1111L90.6105 89.6336L88.8952 89.6672Z" fill="#0F84B2"/>
<path fill-rule="evenodd" clip-rule="evenodd" d="M93.9738 84.5717C93.8393 87.4054 96.8411 86.3123 96.7065 84.9753C96.6729 84.6306 96.5299 84.2522 95.9666 83.9411C98.5564 82.8901 98.0351 87.1699 95.4369 87.1111L91.0477 87.0859C91.5269 85.6901 92.5948 84.8492 93.9738 84.5717Z" fill="#0F84B2"/>
<path fill-rule="evenodd" clip-rule="evenodd" d="M105.14 43.051C104.442 43.051 103.744 43.6059 103.601 44.2954C103.45 44.9765 103.904 45.5399 104.602 45.5399C105.308 45.5399 105.998 44.9849 106.149 44.2954C106.292 43.6143 105.847 43.051 105.14 43.051Z" fill="#0F84B2"/>
<path fill-rule="evenodd" clip-rule="evenodd" d="M89.7612 35.9963L89.6939 42.7146L90.7029 42.723L90.6861 43.2864H89.4333V42.8155L83.1438 42.8407L89.7612 35.9963Z" fill="#0F84B2"/>
<path fill-rule="evenodd" clip-rule="evenodd" d="M71.0777 44.3543C70.6489 44.5224 70.3798 44.9092 70.4975 45.2119C70.6153 45.5146 71.0693 45.6239 71.5066 45.4558C71.9438 45.2876 72.2045 44.9092 72.0867 44.6065C71.969 44.2954 71.515 44.1861 71.0777 44.3543Z" fill="#0F84B2"/>
<path fill-rule="evenodd" clip-rule="evenodd" d="M68.3954 40.2342C68.614 40.5958 68.6645 41.033 68.5131 41.2012C68.3534 41.3693 68.0423 41.2012 67.8236 40.8312C67.605 40.4696 67.5546 40.0324 67.7143 39.8642C67.8657 39.6961 68.1768 39.8642 68.3954 40.2342Z" fill="#0F84B2"/>
<path fill-rule="evenodd" clip-rule="evenodd" d="M73.6675 68.663C73.0958 69.1087 74.4075 69.4282 72.9696 69.9663C71.9102 70.3615 72.1624 66.9393 74.7354 67.9735C76.2237 68.5621 76.0892 71.5303 72.4651 71.2696C68.8327 71.009 68.7654 65.1567 74.0123 65.6528C77.4934 65.9723 78.1576 66.5693 80.369 69.1423L89.4333 68.7807L85.8681 63.2816L89.8285 62.9033L93.133 68.6546L90.1985 69.1591L91.0645 71.2024H87.6423L87.6255 77.9627H91.1907C91.6868 77.8955 92.0315 77.6684 92.0399 77.1051L92.0567 74.8937C92.0567 74.5994 91.3 74.49 90.8039 74.5909C90.2405 74.7087 89.9378 75.0786 89.9126 75.5663C89.8874 76.1717 90.5937 76.5837 90.9721 76.0876C90.4171 74.675 92.3258 74.9861 91.7372 76.3819C91.6531 76.5669 91.2495 76.8612 90.7955 76.8864C88.8111 76.9958 88.7438 75.2048 89.7865 74.0024L92.8723 74.0192L92.7462 83.3525L90.4591 83.3777C89.9883 83.3777 89.5258 82.9994 89.366 82.6294C89.1222 82.0912 88.8952 81.2 89.7865 80.5777C90.4591 80.0985 91.712 80.5609 91.7288 81.5447C91.7288 82.4024 90.5432 81.9567 90.8123 81.5699C91.4093 80.7039 88.7775 81.4858 90.4255 82.6967L91.712 82.6882C92.2585 82.3435 92.2585 81.0738 91.712 80.0144L87.7516 79.9471L87.7432 87.0018L89.7865 87.0354C88.9624 87.8762 88.9456 88.7591 89.1222 89.6588L78.2585 89.6924C76.4675 89.7009 75.5174 88.2126 75.8706 86.4973C70.2874 86.7747 66.5372 79.9219 71.145 74.7339C73.7432 71.7994 77.9054 72.3543 78.8892 73.9351C79.9739 75.7009 79.1582 77.7021 77.1486 78.2906C76.1396 78.5849 74.8363 78.6354 73.9282 77.6264C73.3228 76.9537 73.079 74.7507 75.0886 74.3135C77.0982 73.8762 77.3757 74.8096 77.115 75.7345C76.4339 78.1141 73.8357 76.1801 75.9799 75.4654C76.0051 75.457 76.0051 75.4318 76.0135 75.415C76.3414 74.9273 75.3576 74.4396 74.7354 75.3645C74.1552 76.2306 74.5841 77.7441 76.5937 77.4414C77.8802 77.2564 78.5276 74.633 76.3078 73.7081C74.088 72.7747 69.8249 75.6336 70.6657 80.4012C70.8928 81.6792 71.9606 85.5135 75.5258 85.5303C75.4165 82.6294 77.3 82.5369 78.3594 82.6126C80.4447 82.7723 80.7979 85.7321 77.2159 86.8924C76.6441 90.1549 83.0597 89.1207 83.5306 84.2102L83.6147 71.278C82.7486 69.6636 81.2015 69.4366 80.0411 70.0925C79.3769 70.4708 78.9144 71.1771 79.0489 71.7489C79.3264 72.9765 81.4117 73.3129 81.5462 71.5639C81.6303 70.4372 80.6213 70.6222 80.8988 71.3537C81.3781 72.6654 79.2339 72.3375 79.6207 71.3621C80.2009 68.8816 83.6399 70.4876 82.0003 72.7495C80.2345 75.1879 75.4165 72.3627 79.4778 69.5964C78.2249 66.5777 74.2057 66.0732 72.2297 67.057C71.1282 67.6036 70.8087 69.1423 71.6832 69.8654C74.4327 72.1441 75.4922 67.2168 73.6675 68.663Z" fill="#0F84B2"/>
<path fill-rule="evenodd" clip-rule="evenodd" d="M95.2267 53.0738C98.7498 50.6102 108.916 48.3735 110.841 55.8907L112.355 55.9159L112.304 56.9249L104.838 56.8744L104.846 55.9327C107.537 55.9495 108.083 50.6186 102.08 52.0985C100.566 52.4768 98.4471 53.5279 97.4634 55.4198L97.4549 56.3615L105.216 68.2594C108.108 68.5033 108.319 64.4672 107.856 61.9363C107.797 61.5916 105.519 60.9862 104.493 61.9868C103.475 62.9789 104.417 65.4931 106.048 64.5934C107.217 63.9459 105.754 62.3735 105.779 63.8786C105.788 64.2486 104.947 64.0048 104.829 63.5087C104.72 63.0126 105.527 61.6084 106.553 62.5753C107.234 63.2144 107.175 64.4 106.62 65.0642C106.166 65.6108 104.526 65.594 103.702 64.6438C103.206 64.072 103.198 63.021 103.408 62.4408C103.829 61.2889 104.812 60.5741 105.493 60.5826L113.103 60.7003L113.095 61.4907C112.447 61.6252 111.69 61.6504 111.564 62.794C110.723 66.1489 108.302 68.2174 106.107 69.7561C108.335 72.3375 110.185 72.5057 111.564 72.2534C113.565 71.8835 114.642 69.815 113.944 68.9994C113.532 68.5117 111.968 68.5874 111.026 69.445C110.135 70.9585 112.329 71.1603 111.884 70.185C111.43 69.2096 114.129 68.9573 113.162 70.7315C112.573 71.791 109.605 71.9171 109.513 70.7735C109.244 67.4186 117.946 65.9471 115.087 70.7231C114.516 71.6732 113.961 72.2786 112.741 72.9429C110.194 74.3135 105.149 73.2372 102.794 70.3363L105.695 70.2943L105.35 68.7135L101.583 68.7723L102.836 70.3279C93.36 71.1183 89.4417 61.9783 92.7799 56.0588L96.0676 60.3387C96.488 66.6534 99.0441 67.7717 101.171 68.251L96.0339 60.3135L96.8495 56.5213L96.6477 55.3525L95.2267 53.0738Z" fill="#0F84B2"/>
<path fill-rule="evenodd" clip-rule="evenodd" d="M84.3714 51.2071L84.363 55.1086L88.4915 61.4906L88.7438 55.033L90.9804 52.8888L92.9648 55.2852L95.0417 53.7717L93.772 50.8204C97.2699 46.8432 100.843 42.5633 103.03 43.3453C101.836 47.1627 105.367 47.2468 106.57 45.5987C107.2 44.7327 107.94 42.8071 105.737 41.9158C106.729 39.7128 112.699 39.5951 113.145 42.9669C113.364 47.3645 110.841 49.5675 109.344 48.0288C108.512 47.1711 108.907 44.8756 110.311 44.2618C111.724 43.648 113.137 44.3543 111.11 46.6666C110.858 46.8348 110.025 46.675 110.362 46.3639C110.74 46.9104 111.917 45.1783 110.597 45.3717C109.63 45.4474 108.823 47.0113 110.429 47.5074C111.135 47.7177 112.498 46.8011 112.615 45.0017C113.01 43.051 110.866 41.5543 108.89 44.0348C105.35 48.4828 109.294 50.1561 111.228 49.4246C113.397 48.6089 114.364 45.6408 114.171 43.1771C113.717 37.2828 106.225 39.0654 103.585 42.5549L97.6903 42.7819L97.766 43.1771L88.9876 52.5693L88.6765 46.7507L84.3714 51.2071Z" fill="#0F84B2"/>
<path fill-rule="evenodd" clip-rule="evenodd" d="M84.2284 60.776L85.7251 63.1471L78.9984 63.1808C78.1912 62.1718 78.6873 60.9273 80.0579 59.9267C81.3948 59.0522 82.757 59.2288 83.1606 60.3387C83.5642 61.4486 81.8489 62.5333 81.0921 61.415C80.9912 60.7591 81.3443 60.3724 81.6555 60.591C81.975 60.8096 81.8152 61.0703 81.9834 61.0618C82.6392 61.045 82.3954 60.0865 81.4621 60.1621C80.7894 60.2126 79.6795 61.2721 80.2765 62.1297C80.9996 63.1892 83.2699 62.6258 84.2284 60.776Z" fill="#0F84B2"/>
<path fill-rule="evenodd" clip-rule="evenodd" d="M67.3865 41.7225C66.2934 41.2432 66.7138 38.9057 68.2609 39.0318C69.7997 39.1663 69.9174 41.218 68.345 42.4372C66.2597 44.0684 63.9222 42.1345 65.5198 39.2756C66.5709 37.4006 68.3787 36.6774 69.8922 36.7615C73.6928 36.9633 75.2315 39.4102 74.1805 43.1855L78.8724 43.2276L78.124 44.1946L77.7793 55.0666L83.8165 48.6174L84.0267 51.4174L82.7318 53.0318L84.1276 54.9741L84.1192 60.5741L80.1504 55.2852L78.0988 57.5471L78.0483 63.4078L73.8862 63.3489C70.2117 64.4925 68.5468 64.3327 68.4459 62.3988C68.4123 61.6756 68.5132 60.7843 69.9426 59.9771C73.9198 57.7405 73.8105 61.1207 72.8099 61.6252C71.4982 62.281 70.9937 62.0288 70.8003 61.642C70.5144 61.0282 71.5739 59.7837 71.885 61.0618C71.9606 61.3645 72.4147 61.0282 72.3642 60.4144C72.339 60.0444 71.8597 59.8678 71.4141 60.0864C67.5042 62.0288 70.5733 64.8876 73.8862 62.0624L73.9198 46.448C73.8441 44.9849 73.1042 44.5898 72.6922 45.4642C72.1961 46.5405 70.1781 46.8096 69.7576 46.5657C68.2609 45.6997 70.5649 42.6726 73.0453 43.2192C73.3733 40.4276 72.3811 38.6114 70.0603 38.1489C68.7654 37.8967 67.3865 38.5441 66.5456 39.5279C65.6291 40.7723 65.9234 41.588 66.285 41.9579C66.8399 42.5297 67.9667 41.9747 67.3865 41.7225Z" fill="#0F84B2"/>
<path fill-rule="evenodd" clip-rule="evenodd" d="M88.1384 26.5117C88.3739 26.5117 88.7354 26.7807 88.9372 27.1087C89.139 27.4366 89.1138 27.7056 88.8784 27.6972C88.6429 27.6972 88.2814 27.4366 88.0796 27.1087C87.8778 26.7807 87.903 26.5117 88.1384 26.5117Z" fill="#0F84B2"/>
<path fill-rule="evenodd" clip-rule="evenodd" d="M74.8363 32.6918C74.9288 31.5567 77.0897 32.4396 75.1979 33.314C73.3144 34.1885 73.4405 31.851 74.3402 31.4726C76.8879 30.4131 78.0903 32.5152 76.6105 33.7513C72.751 36.9633 68.2609 30.1525 74.9204 30.2702L82.0759 30.1693L82.0927 31.4221L81.1342 32.5068L81.2519 38.9561L88.4747 31.8173L87.8525 30.0936H89.0549L89.0129 28.454C87.2471 27.9495 86.7006 26.4948 87.1126 25.7633C87.6423 24.8299 89.6267 25.0233 90.0135 27.8822C91.1234 27.7981 93.0994 27.5122 93.2171 24.872C93.3012 22.9044 92.6201 21.6936 92.2501 20.6846C91.2663 18.0191 89.0465 18.0444 87.9534 19.1795C87.2555 19.911 87.1546 21.2059 87.7096 22.1981C88.4075 23.4426 90.0051 23.7957 90.2153 22.0804C90.2825 21.5507 90.106 20.8191 89.7108 20.5248C89.0885 20.0624 88.1973 20.2894 88.6849 21.1975C88.9624 21.7188 90.0387 22.2318 89.0633 22.3747C88.0879 22.5176 87.6339 21.1891 88.13 20.0708C88.2645 19.272 89.7864 19.1375 90.4507 20.1885C91.5943 21.9963 91.2075 23.7621 89.5342 24.0816C88.7774 24.2245 87.6927 23.7705 86.9949 22.8119C86.154 21.6684 85.8261 19.8774 86.5576 18.5741C88.4495 15.2023 91.4849 17.2372 93.0909 20.4408C95.0333 24.3002 95.2351 29.9759 90.1396 28.8239L90.0723 30.0516L94.7138 30.1188C95.0669 29.5218 96.0003 28.5969 96.7318 28.2606C98.2453 27.5543 100.129 27.8906 99.9354 29.3537C99.3468 33.7513 93.3768 32.6077 96.2441 30.0516C97.0261 29.3453 97.7156 29.5555 97.8585 29.7909C98.5396 30.8924 97.0177 31.4726 97.2279 30.1777C97.3372 29.4546 95.8153 31.3212 96.8327 31.3128C97.8501 31.3128 99.0105 30.5561 98.6321 29.3621C98.4387 28.5128 96.7906 28.9501 94.6297 31.0858L91.6363 33.9867L91.754 39.8642L100.322 31.4642L100.112 30.0263L107.663 29.9675C110.126 29.7489 110.749 30.9008 109.428 32.8936C108.285 34.6005 106.158 35.1555 105.359 34.4324C103.307 32.5741 108.419 29.8582 108.302 31.8342C108.125 32.5573 107.705 32.9861 107.2 33.3224C106.401 33.7681 106.603 32.6245 107.083 32.6245C107.562 32.6161 107.209 31.6996 106.343 32.2378C105.477 32.7843 105.746 34.6257 107.436 33.8522C108.504 33.087 109.075 32.1957 108.831 31.2372C108.588 30.4888 107.436 30.3711 106.082 31.111L89.9378 47.4065L89.8033 45.6071L88.8615 46.5405L88.6513 43.5975L84.4051 48.1885L84.0519 44.5224L82.6813 43.1519L79.3012 46.7423L79.0657 32.633C77.5354 30.0768 72.8267 30.7327 72.5912 32.1369C72.3474 33.5411 74.542 34.6257 76.0723 33.3897C76.972 32.6582 76.5516 31.2035 74.4915 32.0948C73.8525 32.3723 74.7942 33.1543 74.8363 32.6918Z" fill="#0F84B2"/>
<path fill-rule="evenodd" clip-rule="evenodd" d="M169.137 95.8979C167.85 97.176 164.512 96.5453 166.269 93.7706C167.219 92.257 170.431 91.3321 172.105 91.5003C177.141 91.9964 175.451 96.4192 172.542 99.009C170.423 100.892 167.556 101.742 166.311 101.927C160.055 102.776 154.144 98.5718 148.603 91.1135C143.028 84.8576 139.438 81.3177 134.099 80.1237C127.036 78.0048 119.014 80.9225 115.928 83.2685C115.752 83.4114 115.575 83.5543 115.407 83.6973C119.451 76.0625 121.864 66.5525 121.89 56.2522C121.932 31.17 107.738 10.6871 90.2909 10.6618C72.8434 10.6282 58.5744 31.0606 58.5323 56.1429C58.5071 66.4348 60.8951 75.9531 64.9143 83.5964C64.8639 83.5628 64.8134 83.5207 64.7714 83.4787C61.6855 81.1327 53.6807 78.1814 46.6092 80.2835C41.2615 81.4522 37.6627 84.9754 32.0627 91.2144C26.4963 98.6558 20.5684 102.835 14.3125 101.96C13.0765 101.767 10.2092 100.909 8.0987 99.0174C5.1978 96.4276 3.52452 91.988 8.56116 91.5171C10.2344 91.3573 13.4464 92.2907 14.3966 93.8042C16.1371 96.5874 12.799 97.2096 11.5125 95.9231C10.2176 94.645 11.5546 94.1489 11.7059 95.0402C11.8657 95.9315 14.0939 94.7291 12.1179 93.0222C10.1335 91.3069 7.74554 94.7543 11.7564 97.6468C12.0927 97.8907 16.7005 100.026 17.6675 96.8985C18.6428 93.7706 10.2849 88.1958 4.56717 89.6C-1.15055 91.0042 -3.48809 98 9.65425 102.541C20.2657 106.089 28.8507 102.667 36.8891 91.248C44.793 80.0144 56.1023 80.2835 66.3017 86.0685C66.5035 86.4048 66.7137 86.7327 66.9155 87.0522L67.0332 87.6661C58.793 82.0997 49.7876 82.2006 43.8513 86.6739C37.9149 91.1471 35.7371 100.741 41.3203 101.792C48.2825 103.474 54.7317 100.808 57.6915 96.251C60.6597 91.7021 58.5155 87.9015 52.0915 89.3141C47.7191 90.6426 44.7173 93.1652 45.0957 95.8979C45.4657 98.6306 49.7456 98.5802 51.5281 96.167C53.3107 93.7453 52.0242 92.0384 49.2747 92.8793C47.8957 93.2913 47.7864 94.1237 47.9041 94.7375C48.0218 95.3513 48.3666 95.7549 48.8543 95.7634C49.8465 95.7213 50.1323 94.8637 49.3167 94.8721C48.9636 94.1994 50.948 93.4679 50.763 95.2841C50.62 95.8474 48.972 97.4703 47.2651 96.0829C45.5666 94.6955 46.9287 91.433 51.2507 91.1051C54.2272 91.3826 55.3792 92.8204 54.6224 96.0324C52.823 100.64 49.0477 101.321 43.5906 98.1429C38.638 89.97 48.2068 84.3195 54.9335 84.6138C61.6687 84.9165 65.587 88.8516 70.7498 92.5261C63.6362 90.5417 59.1882 95.3093 64.8555 99.7321C67.3612 101.683 71.4813 101.599 71.9606 99.0342C72.4314 96.4697 69.7155 94.0733 67.1425 94.788C68.799 95.3177 69.2362 96.3856 68.1011 96.8901C66.7978 97.4619 65.3263 95.242 66.9155 94.0901C69.0008 92.585 71.1786 94.4432 72.4567 94.5273C72.4987 94.3507 72.5239 94.1742 72.5407 93.9976C77.5774 98.8745 83.623 101.725 90.1227 101.733C96.7906 101.75 102.988 98.7736 108.108 93.6949C108.125 93.8883 108.159 94.0901 108.201 94.2835C109.479 94.1994 111.665 92.3579 113.742 93.8631C115.331 95.0234 113.843 97.2432 112.548 96.6631C111.413 96.1501 111.85 95.0823 113.515 94.5694C110.942 93.8378 108.209 96.2258 108.68 98.7904C109.143 101.363 113.271 101.456 115.777 99.5135C121.469 95.1159 117.03 90.3315 109.908 92.2907C115.087 88.633 119.014 84.7147 125.758 84.4372C132.484 84.1597 142.036 89.8522 137.05 98C131.585 101.162 127.809 100.464 126.027 95.8558C125.287 92.6354 126.439 91.206 129.415 90.9369C133.737 91.2817 135.082 94.5441 133.384 95.9315C131.677 97.3105 130.029 95.6793 129.886 95.1159C129.718 93.2997 131.694 94.0396 131.341 94.7039C130.517 94.7039 130.811 95.5615 131.795 95.6036C132.291 95.5952 132.636 95.1916 132.753 94.5778C132.871 93.964 132.762 93.1399 131.391 92.7111C128.642 91.8703 127.347 93.5688 129.121 95.9904C130.895 98.4204 135.175 98.4793 135.562 95.7549C135.949 93.0222 132.947 90.4913 128.583 89.1459C122.159 87.7081 120.006 91.4919 122.958 96.0576C125.901 100.632 132.341 103.314 139.312 101.658C144.895 100.632 142.751 91.021 136.831 86.5309C130.912 82.0324 121.915 81.8979 113.649 87.439L113.834 86.4216C113.919 86.2871 114.011 86.1525 114.087 86.018C124.395 80.0985 135.839 79.7621 143.777 91.1303C151.773 102.574 160.35 106.03 170.97 102.515C184.129 98.0252 181.816 91.021 176.107 89.6C170.389 88.1706 162.023 93.7201 162.973 96.848C163.932 99.976 168.556 97.857 168.893 97.6216C172.904 94.7375 170.532 91.2901 168.548 92.9886C166.564 94.6955 168.792 95.8979 168.943 95.015C169.103 94.1237 170.431 94.6198 169.137 95.8979V95.8979ZM90.4002 13.7898C106.065 13.815 118.812 33.045 118.762 56.597C118.72 80.1405 105.914 99.3285 90.2489 99.2949C74.5924 99.2697 61.8452 80.0396 61.8957 56.4961C61.9377 32.9441 74.7438 13.7645 90.4002 13.7898V13.7898Z" fill="#0F84B2"/>
<path fill-rule="evenodd" clip-rule="evenodd" d="M148.359 100.497C148.83 100.548 148.923 101.237 148.359 101.523C146.114 102.616 144.643 101.279 144.13 97.3356C145.492 99.2696 146.442 100.295 148.359 100.497Z" fill="#0F84B2"/>
<path fill-rule="evenodd" clip-rule="evenodd" d="M63.7287 89.8354C63.1906 89.8354 62.7534 90.2474 62.7534 90.7519C62.7449 91.2564 63.1906 91.6684 63.7287 91.6684C64.2669 91.6684 64.7041 91.2564 64.7041 90.7519C64.7041 90.2474 64.2669 89.8354 63.7287 89.8354Z" fill="#0F84B2"/>
<path fill-rule="evenodd" clip-rule="evenodd" d="M116.248 89.6588C116.786 89.6588 117.223 90.0708 117.223 90.5669C117.223 91.0714 116.777 91.4834 116.239 91.4834C115.701 91.4834 115.264 91.0714 115.264 90.5669C115.264 90.0624 115.71 89.6504 116.248 89.6588Z" fill="#0F84B2"/>
<path fill-rule="evenodd" clip-rule="evenodd" d="M161.342 97.4281C160.796 97.8654 160.594 98.5465 160.888 98.9416C161.174 99.3284 161.855 99.2948 162.402 98.8576C162.948 98.4203 163.15 97.7392 162.856 97.3441C162.57 96.9489 161.889 96.9909 161.342 97.4281Z" fill="#0F84B2"/>
<path fill-rule="evenodd" clip-rule="evenodd" d="M32.2897 100.287C31.8105 100.337 31.718 101.027 32.2897 101.313C34.5264 102.414 36.0063 101.086 36.5276 97.1422C35.1654 99.0761 34.2069 100.094 32.2897 100.287Z" fill="#0F84B2"/>
<path fill-rule="evenodd" clip-rule="evenodd" d="M19.3156 97.1758C19.8537 97.613 20.0639 98.2941 19.7696 98.6809C19.4754 99.0761 18.7943 99.0341 18.2561 98.5968C17.7096 98.1596 17.5078 97.4785 17.8021 97.0833C18.088 96.6965 18.769 96.7302 19.3156 97.1758V97.1758Z" fill="#0F84B2"/>
</svg>
