<svg width="13" height="22" viewBox="0 0 13 22" fill="none" xmlns="http://www.w3.org/2000/svg">
<g clip-path="url(#clip0_224_2)">
<path fill-rule="evenodd" clip-rule="evenodd" d="M10.455 9.36888C10.6822 9.36888 10.8732 9.18315 10.8732 8.94782C10.8732 8.71897 10.6883 8.52702 10.455 8.52702H5.94467C5.70922 8.52702 5.52675 8.71897 5.52675 8.94782C5.52675 9.18478 5.71757 9.36888 5.94467 9.36888H10.455ZM3.77708 13.7607C4.05587 13.7607 4.2857 13.9475 4.2857 14.2393V17.3892H4.59343V15.8876C4.59343 15.2811 5.54354 15.2996 5.54354 15.9214V17.4227L5.55871 17.4176H5.89164V16.2247C5.89164 15.6182 6.84201 15.6367 6.84201 16.2585V17.3668L6.8458 17.3679L7.17655 17.3663V16.5214C7.17655 15.9149 8.12666 15.9331 8.12666 16.5552C8.12666 17.2548 8.16643 18.0808 8.14098 18.7803C8.11285 19.5475 7.95668 20.4109 7.40395 20.8952C6.70288 21.4682 6.00208 21.6193 5.27502 21.5039C3.96739 21.2964 3.63578 20.4878 3.0143 19.4948L1.43486 16.9711C1.33772 16.7409 1.35072 16.5852 1.44816 16.4857C1.86799 16.2111 2.55115 16.7941 3.30852 17.6183L3.33533 17.612V14.2058C3.33533 13.9609 3.534 13.7607 3.77708 13.7607ZM2.46565 0H10.5346C11.2148 0 11.8355 0.279519 12.2778 0.728707C12.7263 1.18112 13 1.80319 13 2.48501V19.5156C13 20.2014 12.7231 20.8267 12.2778 21.2719C11.8282 21.7248 11.2113 22 10.5346 22H6.68093C7.04204 21.8789 7.39879 21.6839 7.75175 21.4016L7.80533 21.3596C8.1686 21.0411 8.4003 20.6168 8.54403 20.1531L8.55434 20.1218C8.68183 19.6969 8.73459 19.2347 8.75032 18.8018C8.75326 18.7192 8.75544 18.6347 8.7568 18.549H12.2112V2.46126H0.785243V16.4627C0.770298 16.5259 0.761603 16.5904 0.759285 16.6553C0.755747 16.745 0.763846 16.8394 0.785243 16.9378V18.549H1.70176L2.49839 19.8221L2.70276 20.1567C3.21462 21.0032 3.62956 21.6888 4.68469 22H2.46565C1.78513 22 1.16446 21.721 0.722459 21.2719C0.273384 20.8199 0 20.1981 0 19.5156V2.48144C0 1.79581 0.276921 1.17051 0.722459 0.724842C1.17098 0.272691 1.78513 0 2.46565 0ZM2.28617 11.6856H4.35662C4.43197 11.6857 4.50422 11.7159 4.5575 11.7695C4.61078 11.8232 4.64075 11.896 4.64083 11.9719V13.5352C4.61519 13.5051 4.5879 13.4765 4.55908 13.4495C4.42264 13.3208 4.25539 13.2295 4.07241 13.1817V12.2583H2.57038V13.734H2.83349C2.76099 13.8805 2.72337 14.042 2.72361 14.2058V14.3066H2.28617C2.21081 14.3066 2.13857 14.2764 2.08529 14.2227C2.03201 14.169 2.00204 14.0962 2.00196 14.0203V11.9719C2.00204 11.896 2.03201 11.8232 2.08529 11.7695C2.13857 11.7159 2.21081 11.6857 2.28617 11.6856ZM10.455 13.4171C10.6822 13.4171 10.8732 13.2313 10.8732 12.996C10.8732 12.7672 10.6883 12.5752 10.455 12.5752H5.94467C5.70922 12.5752 5.52675 12.7672 5.52675 12.996C5.52675 13.233 5.71757 13.4171 5.94467 13.4171H10.455ZM2.10698 5.32176C1.96867 5.15678 1.98896 4.90942 2.15271 4.77007C2.31647 4.63072 2.56198 4.65116 2.70029 4.81615L3.04733 5.22986L3.93516 4.10981C4.06862 3.94075 4.31357 3.91266 4.48138 4.04707C4.64923 4.18153 4.6771 4.42833 4.54365 4.59744L3.36022 6.09028L3.3069 6.14538C3.14314 6.28473 2.89764 6.26429 2.75932 6.0993L2.10698 5.32176ZM10.455 5.50423C10.6822 5.50423 10.8732 5.3185 10.8732 5.08317C10.8732 4.85432 10.6883 4.66232 10.455 4.66232H5.94467C5.70922 4.66232 5.52675 4.85432 5.52675 5.08317C5.52675 5.32013 5.71757 5.50423 5.94467 5.50423H10.455ZM2.28617 7.6374H4.35662C4.43197 7.63748 4.50422 7.66768 4.5575 7.72136C4.61078 7.77504 4.64075 7.84783 4.64083 7.92375V9.97211C4.64075 10.048 4.61078 10.1208 4.5575 10.1745C4.50422 10.2282 4.43198 10.2584 4.35662 10.2585H2.28617C2.21081 10.2584 2.13857 10.2282 2.08529 10.1745C2.032 10.1208 2.00204 10.048 2.00196 9.97211V7.92375C2.00204 7.84783 2.03201 7.77504 2.08529 7.72136C2.13857 7.66768 2.21081 7.63748 2.28617 7.6374ZM4.07241 8.2101H2.57038V9.68576H4.07241V8.2101Z" fill="#737373"/>
</g>
<defs>
<clipPath id="clip0_224_2">
<rect width="13" height="22" fill="white"/>
</clipPath>
</defs>
</svg>
