<svg width="279" height="279" viewBox="0 0 279 279" fill="none" xmlns="http://www.w3.org/2000/svg">
<path d="M151.125 34.875H95.325C82.3038 34.875 75.7931 34.875 70.8197 37.4091C66.4449 39.6381 62.8881 43.1949 60.6591 47.5697C58.125 52.5431 58.125 59.0538 58.125 72.075V206.925C58.125 219.946 58.125 226.457 60.6591 231.431C62.8881 235.805 66.4449 239.362 70.8197 241.591C75.7931 244.125 82.3038 244.125 95.325 244.125H139.5M151.125 34.875L220.875 104.625M151.125 34.875V86.025C151.125 92.5356 151.125 95.7909 152.392 98.2776C153.507 100.465 155.284 102.243 157.472 103.358C159.959 104.625 163.214 104.625 169.725 104.625H220.875M220.875 104.625V116.25" stroke="black" stroke-width="9.41625" stroke-linecap="round" stroke-linejoin="round"/>
<path fill-rule="evenodd" clip-rule="evenodd" d="M177.119 153H235.554V218.186C235.45 220.012 233.098 220.054 230.553 219.936H176.254C174.559 219.936 172.933 220.61 171.735 221.808C170.536 223.007 169.863 224.633 169.863 226.328C169.863 228.023 170.536 229.648 171.735 230.847C172.933 232.046 174.559 232.719 176.254 232.719H232.863V225.92H237.864V234.559C237.862 235.318 237.56 236.045 237.024 236.582C236.487 237.119 235.76 237.421 235.001 237.423H176.503C170.174 239.768 165 234.621 165 228.265V165.119C165.009 161.907 166.289 158.83 168.56 156.56C170.83 154.289 173.907 153.009 177.119 153ZM176.24 227.649H228.229C228.482 227.649 228.725 227.749 228.904 227.928C229.083 228.107 229.183 228.35 229.183 228.603V229.184C229.182 229.437 229.08 229.679 228.902 229.857C228.723 230.036 228.481 230.137 228.229 230.139H176.24C175.986 230.139 175.743 230.039 175.563 229.86C175.383 229.681 175.281 229.438 175.279 229.184V228.603C175.281 228.35 175.383 228.107 175.563 227.928C175.743 227.749 175.986 227.649 176.24 227.649ZM176.24 222.71H228.229C228.482 222.71 228.725 222.811 228.904 222.99C229.083 223.169 229.183 223.411 229.183 223.665V224.246C229.182 224.498 229.08 224.74 228.902 224.919C228.723 225.097 228.481 225.198 228.229 225.2H176.24C175.986 225.2 175.743 225.1 175.563 224.921C175.383 224.742 175.281 224.499 175.279 224.246V223.665C175.281 223.411 175.383 223.168 175.563 222.989C175.743 222.81 175.986 222.71 176.24 222.71Z" fill="black"/>
</svg>
