<svg width="279" height="279" viewBox="0 0 279 279" fill="none" xmlns="http://www.w3.org/2000/svg">
<path d="M151.125 34.875H95.325C82.3038 34.875 75.7931 34.875 70.8197 37.4091C66.4449 39.6381 62.8881 43.1949 60.6591 47.5697C58.125 52.5431 58.125 59.0538 58.125 72.075V206.925C58.125 219.946 58.125 226.457 60.6591 231.431C62.8881 235.805 66.4449 239.362 70.8197 241.591C75.7931 244.125 82.3038 244.125 95.325 244.125H139.5M151.125 34.875L220.875 104.625M151.125 34.875V86.025C151.125 92.5356 151.125 95.7909 152.392 98.2776C153.507 100.465 155.284 102.243 157.472 103.358C159.959 104.625 163.214 104.625 169.725 104.625H220.875M220.875 104.625V116.25" stroke="black" stroke-width="9.41625" stroke-linecap="round" stroke-linejoin="round"/>
<path d="M170.376 157.864C169.406 157.864 168.624 157.082 168.624 156.112C168.624 155.142 169.406 154.36 170.376 154.36H207.557V150.752C207.557 149.782 208.339 149 209.309 149C210.279 149 211.061 149.782 211.061 150.752V154.36H255.367C256.336 154.36 257.118 155.142 257.118 156.112C257.118 157.082 256.336 157.864 255.367 157.864H251.334V208.204H255.554C256.524 208.204 257.306 208.986 257.306 209.956C257.306 210.925 256.524 211.707 255.554 211.707H210.369V213.486C210.464 213.549 210.527 213.612 210.587 213.674L221.313 223.869C221.999 224.525 222.032 225.65 221.375 226.337C220.719 227.026 219.594 227.056 218.904 226.4L210.402 218.303V227.182C210.402 228.151 209.62 228.933 208.65 228.933C207.68 228.933 206.898 228.151 206.898 227.182V217.96L198.02 226.4C197.33 227.056 196.205 227.056 195.549 226.337C194.892 225.65 194.892 224.525 195.611 223.869L206.337 213.674C206.492 213.519 206.71 213.394 206.898 213.298V211.707H169.862C168.893 211.707 168.111 210.925 168.111 209.956C168.111 208.986 168.893 208.204 169.862 208.204H247.831V157.864H170.376ZM204.605 200.796C204.395 200.796 204.186 200.755 203.992 200.674C203.797 200.593 203.62 200.475 203.471 200.326C203.322 200.177 203.204 200.001 203.124 199.806C203.043 199.611 203.001 199.403 203.001 199.192C203.001 198.308 203.721 197.591 204.605 197.591H238.779C239.664 197.591 240.381 198.308 240.381 199.192C240.381 200.079 239.664 200.796 238.779 200.796H204.605ZM207.026 190.023C206.141 190.023 205.425 189.306 205.425 188.422C205.425 187.534 206.141 186.818 207.026 186.818H238.779C239.664 186.818 240.381 187.534 240.381 188.422C240.381 189.306 239.664 190.023 238.779 190.023H207.026ZM201.819 179.25C200.934 179.25 200.217 178.533 200.217 177.648C200.217 176.764 200.934 176.045 201.819 176.045H238.779C239.664 176.045 240.381 176.764 240.381 177.648C240.381 178.533 239.664 179.25 238.779 179.25H201.819ZM185.337 168.476C184.452 168.476 183.736 167.76 183.736 166.875C183.736 165.991 184.452 165.271 185.337 165.271H238.779C239.664 165.271 240.381 165.991 240.381 166.875C240.381 167.76 239.664 168.476 238.779 168.476H185.337ZM184.179 189.657L196.331 176.917C197.045 176.165 198.233 176.137 198.982 176.849C199.734 177.563 199.761 178.751 199.05 179.5L187.602 191.504C188.542 192.642 188.988 194.173 188.69 195.734C188.159 198.513 185.475 200.335 182.698 199.804L169.99 197.36C168.722 197.14 167.534 196.443 166.72 195.318L162.598 189.622L162.588 190.136V189.765L162.259 208.77L162.758 211.617H141.445L141.886 208.981L141.495 190.126V190.136L141.43 186.903L141.407 186.928C139.227 189.111 139.134 194.313 138.891 197.473L138.337 204.71C138.209 206.362 138.071 207.294 136.778 208.412C134.899 210.031 131.734 210.364 130.062 208.317C128.982 206.998 128.93 204.893 129.04 202.971C129.596 193.356 130.726 178.884 141.495 174.122V174.243C146.061 172.428 151.441 173.218 156.353 173.218C158.691 173.218 160.746 173.561 162.57 174.26C163.735 174.528 164.81 175.203 165.567 176.248L173.827 187.667L184.179 189.657ZM151.997 149.784C157.984 149.784 162.836 154.636 162.836 160.623C162.836 166.607 157.984 171.459 151.997 171.459C146.01 171.459 141.159 166.607 141.159 160.623C141.159 154.636 146.01 149.784 151.997 149.784Z" fill="black"/>
</svg>
