<svg width="58" height="68" viewBox="0 0 58 68" fill="none" xmlns="http://www.w3.org/2000/svg">
<g id="Group 20311">
<g id="Group 19647">
<rect id="Rectangle 5769" width="58" height="68" rx="4" fill="#B5B5B5"/>
</g>
<path id="Vector" d="M38.475 29.825V27.675H36.325V26.175H38.475V24H39.975V26.175H42.15V27.675H39.975V29.825H38.475ZM21.5 44.175C21.1 44.175 20.75 44.025 20.45 43.725C20.15 43.425 20 43.075 20 42.675V29.85C20 29.4667 20.15 29.1208 20.45 28.8125C20.75 28.5042 21.1 28.35 21.5 28.35H25.175L27 26.175H34V27.675H27.7L25.875 29.85H21.5V42.675H38.5V32.175H40V42.675C40 43.075 39.8458 43.425 39.5375 43.725C39.2292 44.025 38.8833 44.175 38.5 44.175H21.5ZM30 40.525C31.2 40.525 32.2083 40.1167 33.025 39.3C33.8417 38.4833 34.25 37.4667 34.25 36.25C34.25 35.05 33.8417 34.0458 33.025 33.2375C32.2083 32.4292 31.2 32.025 30 32.025C28.7833 32.025 27.7708 32.4292 26.9625 33.2375C26.1542 34.0458 25.75 35.05 25.75 36.25C25.75 37.4667 26.1542 38.4833 26.9625 39.3C27.7708 40.1167 28.7833 40.525 30 40.525ZM30 39.025C29.2 39.025 28.5417 38.7625 28.025 38.2375C27.5083 37.7125 27.25 37.05 27.25 36.25C27.25 35.4667 27.5083 34.8167 28.025 34.3C28.5417 33.7833 29.2 33.525 30 33.525C30.7833 33.525 31.4375 33.7833 31.9625 34.3C32.4875 34.8167 32.75 35.4667 32.75 36.25C32.75 37.05 32.4875 37.7125 31.9625 38.2375C31.4375 38.7625 30.7833 39.025 30 39.025Z" fill="black"/>
</g>
</svg>
