<svg width="72" height="53" viewBox="0 0 72 53" fill="none" xmlns="http://www.w3.org/2000/svg">
<path d="M17.4 33.725L12.675 29C16.175 25.5 19.8375 22.875 23.6625 21.125C27.4875 19.375 31.6 18.5 36 18.5C40.4 18.5 44.5125 19.375 48.3375 21.125C52.1625 22.875 55.825 25.5 59.325 29L54.6 33.725C51.55 30.675 48.475 28.5 45.375 27.2C42.275 25.9 39.15 25.25 36 25.25C32.85 25.25 29.725 25.9 26.625 27.2C23.525 28.5 20.45 30.675 17.4 33.725ZM4.725 21.05L0 16.325C4.65 11.575 10.0625 7.75 16.2375 4.85C22.4125 1.95 29 0.5 36 0.5C43 0.5 49.5875 1.95 55.7625 4.85C61.9375 7.75 67.35 11.575 72 16.325L67.275 21.05C62.875 16.85 58.0625 13.5 52.8375 11C47.6125 8.5 42 7.25 36 7.25C30 7.25 24.3875 8.5 19.1625 11C13.9375 13.5 9.125 16.85 4.725 21.05ZM36 52.325L47.1 41.15C45.65 39.7 43.9875 38.5625 42.1125 37.7375C40.2375 36.9125 38.2 36.5 36 36.5C33.8 36.5 31.7625 36.9125 29.8875 37.7375C28.0125 38.5625 26.35 39.7 24.9 41.15L36 52.325Z" fill="#95A5A6"/>
</svg>
