<svg width="21" height="24" viewBox="0 0 21 24" fill="none" xmlns="http://www.w3.org/2000/svg">
<path d="M19.4911 21.625H18.6429V2.03125C18.6429 1.4617 18.1872 1 17.625 1H3.375C2.81285 1 2.35714 1.4617 2.35714 2.03125V21.625H1.50893C1.22787 21.625 1 21.8559 1 22.1406V23H20V22.1406C20 21.8559 19.7721 21.625 19.4911 21.625ZM6.42857 4.26563C6.42857 3.98087 6.65644 3.75 6.9375 3.75H8.63393C8.91498 3.75 9.14286 3.98087 9.14286 4.26563V5.98438C9.14286 6.26913 8.91498 6.5 8.63393 6.5H6.9375C6.65644 6.5 6.42857 6.26913 6.42857 5.98438V4.26563ZM6.42857 8.39063C6.42857 8.10587 6.65644 7.875 6.9375 7.875H8.63393C8.91498 7.875 9.14286 8.10587 9.14286 8.39063V10.1094C9.14286 10.3941 8.91498 10.625 8.63393 10.625H6.9375C6.65644 10.625 6.42857 10.3941 6.42857 10.1094V8.39063ZM8.63393 14.75H6.9375C6.65644 14.75 6.42857 14.5191 6.42857 14.2344V12.5156C6.42857 12.2309 6.65644 12 6.9375 12H8.63393C8.91498 12 9.14286 12.2309 9.14286 12.5156V14.2344C9.14286 14.5191 8.91498 14.75 8.63393 14.75ZM11.8571 21.625H9.14286V18.0156C9.14286 17.7309 9.37073 17.5 9.65179 17.5H11.3482C11.6293 17.5 11.8571 17.7309 11.8571 18.0156V21.625ZM14.5714 14.2344C14.5714 14.5191 14.3436 14.75 14.0625 14.75H12.3661C12.085 14.75 11.8571 14.5191 11.8571 14.2344V12.5156C11.8571 12.2309 12.085 12 12.3661 12H14.0625C14.3436 12 14.5714 12.2309 14.5714 12.5156V14.2344ZM14.5714 10.1094C14.5714 10.3941 14.3436 10.625 14.0625 10.625H12.3661C12.085 10.625 11.8571 10.3941 11.8571 10.1094V8.39063C11.8571 8.10587 12.085 7.875 12.3661 7.875H14.0625C14.3436 7.875 14.5714 8.10587 14.5714 8.39063V10.1094ZM14.5714 5.98438C14.5714 6.26913 14.3436 6.5 14.0625 6.5H12.3661C12.085 6.5 11.8571 6.26913 11.8571 5.98438V4.26563C11.8571 3.98087 12.085 3.75 12.3661 3.75H14.0625C14.3436 3.75 14.5714 3.98087 14.5714 4.26563V5.98438Z" stroke="#A0A0A0" stroke-width="1.1"/>
</svg>
