<svg width="21" height="20" viewBox="0 0 21 20" fill="none" xmlns="http://www.w3.org/2000/svg">
<path d="M16.1874 19.3135L13.6666 16.5635L14.7299 15.5002L16.1874 16.9577L19.4783 13.6668L20.5416 14.9593L16.1874 19.3135ZM10.9166 10.9168V5.41683H9.08325V10.9168H10.9166ZM10.9166 14.5835V12.7502H9.08325V14.5835H10.9166ZM9.99992 0.833496C15.0416 0.833496 19.1666 4.9585 19.1666 10.0002L19.0841 11.201C18.5341 11.0177 17.9474 10.9168 17.3333 10.9168C14.2991 10.9168 11.8333 13.3827 11.8333 16.4168C11.8333 17.2877 12.0349 18.1127 12.4016 18.846C11.6316 19.0568 10.8341 19.1668 9.99992 19.1668C4.95825 19.1668 0.833252 15.0418 0.833252 10.0002C0.833252 4.9585 4.95825 0.833496 9.99992 0.833496Z" fill="white"/>
</svg>
