<svg width="36" height="36" viewBox="0 0 36 36" fill="none" xmlns="http://www.w3.org/2000/svg">
<rect width="36" height="36" rx="6" fill="#D9D9D9"/>
<path d="M17.1667 23.5556H18.8333V18.8333H23.5556V17.1667H18.8333V12.4444H17.1667V17.1667H12.4444V18.8333H17.1667V23.5556ZM9.66667 28C9.22222 28 8.83333 27.8333 8.5 27.5C8.16667 27.1667 8 26.7778 8 26.3333V9.66667C8 9.22222 8.16667 8.83333 8.5 8.5C8.83333 8.16667 9.22222 8 9.66667 8H26.3333C26.7778 8 27.1667 8.16667 27.5 8.5C27.8333 8.83333 28 9.22222 28 9.66667V26.3333C28 26.7778 27.8333 27.1667 27.5 27.5C27.1667 27.8333 26.7778 28 26.3333 28H9.66667ZM9.66667 26.3333H26.3333V9.66667H9.66667V26.3333ZM9.66667 9.66667V26.3333V9.66667Z" fill="#436DFA"/>
</svg>
