<svg width="101" height="20" viewBox="0 0 101 20" fill="none" xmlns="http://www.w3.org/2000/svg">
<path d="M2.59197 15H1.29936L5.038 4.81818H6.31072L10.0494 15H8.75675L5.71413 6.42898H5.63459L2.59197 15ZM3.06925 11.0227H8.27947V12.1165H3.06925V11.0227ZM14.3597 15.1591C13.7234 15.1591 13.1616 14.9983 12.6744 14.6768C12.1871 14.352 11.806 13.8946 11.5309 13.3047C11.2558 12.7114 11.1183 12.0104 11.1183 11.2017C11.1183 10.3996 11.2558 9.7036 11.5309 9.11364C11.806 8.52367 12.1888 8.06794 12.6793 7.74645C13.1699 7.42495 13.7366 7.2642 14.3796 7.2642C14.8768 7.2642 15.2695 7.34706 15.5579 7.51278C15.8496 7.67519 16.0716 7.8608 16.2241 8.0696C16.3799 8.27509 16.5008 8.44413 16.587 8.5767H16.6864V4.81818H17.8597V15H16.7262V13.8267H16.587C16.5008 13.9659 16.3782 14.1416 16.2191 14.3537C16.06 14.5625 15.833 14.7498 15.538 14.9155C15.243 15.0779 14.8503 15.1591 14.3597 15.1591ZM14.5188 14.1051C14.9895 14.1051 15.3872 13.9825 15.712 13.7372C16.0368 13.4886 16.2837 13.1456 16.4528 12.7081C16.6218 12.2673 16.7063 11.7585 16.7063 11.1818C16.7063 10.6117 16.6235 10.1129 16.4577 9.68537C16.292 9.2545 16.0468 8.91974 15.7219 8.68111C15.3971 8.43916 14.9961 8.31818 14.5188 8.31818C14.0217 8.31818 13.6074 8.44579 13.2759 8.70099C12.9478 8.95289 12.7009 9.29593 12.5352 9.73011C12.3728 10.161 12.2915 10.6449 12.2915 11.1818C12.2915 11.7254 12.3744 12.2192 12.5401 12.6634C12.7092 13.1042 12.9577 13.4555 13.2859 13.7173C13.6173 13.9759 14.0283 14.1051 14.5188 14.1051ZM23.055 15.1591C22.4187 15.1591 21.8569 14.9983 21.3697 14.6768C20.8825 14.352 20.5013 13.8946 20.2262 13.3047C19.9511 12.7114 19.8136 12.0104 19.8136 11.2017C19.8136 10.3996 19.9511 9.7036 20.2262 9.11364C20.5013 8.52367 20.8841 8.06794 21.3746 7.74645C21.8652 7.42495 22.4319 7.2642 23.0749 7.2642C23.5721 7.2642 23.9648 7.34706 24.2532 7.51278C24.5449 7.67519 24.7669 7.8608 24.9194 8.0696C25.0752 8.27509 25.1961 8.44413 25.2823 8.5767H25.3817V4.81818H26.555V15H25.4215V13.8267H25.2823C25.1961 13.9659 25.0735 14.1416 24.9144 14.3537C24.7553 14.5625 24.5283 14.7498 24.2333 14.9155C23.9383 15.0779 23.5456 15.1591 23.055 15.1591ZM23.2141 14.1051C23.6848 14.1051 24.0825 13.9825 24.4073 13.7372C24.7321 13.4886 24.979 13.1456 25.1481 12.7081C25.3171 12.2673 25.4016 11.7585 25.4016 11.1818C25.4016 10.6117 25.3188 10.1129 25.1531 9.68537C24.9873 9.2545 24.7421 8.91974 24.4173 8.68111C24.0924 8.43916 23.6914 8.31818 23.2141 8.31818C22.717 8.31818 22.3027 8.44579 21.9712 8.70099C21.6431 8.95289 21.3962 9.29593 21.2305 9.73011C21.0681 10.161 20.9869 10.6449 20.9869 11.1818C20.9869 11.7254 21.0697 12.2192 21.2354 12.6634C21.4045 13.1042 21.6531 13.4555 21.9812 13.7173C22.3126 13.9759 22.7236 14.1051 23.2141 14.1051ZM32.9634 15V4.81818H36.4038C37.2025 4.81818 37.8555 4.96236 38.3626 5.25071C38.873 5.53575 39.2508 5.92188 39.4961 6.40909C39.7414 6.89631 39.864 7.43987 39.864 8.03977C39.864 8.63968 39.7414 9.1849 39.4961 9.67543C39.2541 10.166 38.8796 10.5571 38.3725 10.8487C37.8654 11.1371 37.2158 11.2812 36.4237 11.2812H33.9577V10.1875H36.3839C36.9308 10.1875 37.3699 10.093 37.7013 9.90412C38.0328 9.7152 38.2731 9.45999 38.4222 9.13849C38.5747 8.81368 38.6509 8.44744 38.6509 8.03977C38.6509 7.6321 38.5747 7.26752 38.4222 6.94602C38.2731 6.62453 38.0311 6.37263 37.6964 6.19034C37.3616 6.00473 36.9175 5.91193 36.364 5.91193H34.1964V15H32.9634ZM43.9382 15.179C43.4543 15.179 43.0152 15.0878 42.6207 14.9055C42.2263 14.7199 41.9131 14.4531 41.6811 14.1051C41.4491 13.7538 41.3331 13.3295 41.3331 12.8324C41.3331 12.3949 41.4193 12.0402 41.5916 11.7685C41.764 11.4934 41.9943 11.2779 42.2827 11.1222C42.571 10.9664 42.8892 10.8504 43.2372 10.7741C43.5885 10.6946 43.9415 10.6316 44.2962 10.5852C44.7602 10.5256 45.1364 10.4808 45.4247 10.451C45.7164 10.4179 45.9285 10.3632 46.0611 10.2869C46.197 10.2107 46.2649 10.0781 46.2649 9.8892V9.84943C46.2649 9.3589 46.1307 8.97775 45.8622 8.70597C45.5971 8.43419 45.1944 8.2983 44.6541 8.2983C44.094 8.2983 43.6548 8.42093 43.3366 8.66619C43.0185 8.91146 42.7947 9.1733 42.6655 9.4517L41.5518 9.05398C41.7507 8.58996 42.0159 8.22869 42.3473 7.97017C42.6821 7.70833 43.0466 7.52604 43.4411 7.4233C43.8388 7.31723 44.2299 7.2642 44.6143 7.2642C44.8596 7.2642 45.1413 7.29403 45.4595 7.35369C45.781 7.41004 46.0909 7.5277 46.3892 7.70668C46.6908 7.88565 46.9411 8.15578 47.1399 8.51705C47.3388 8.87831 47.4382 9.36222 47.4382 9.96875V15H46.2649V13.9659H46.2053C46.1257 14.1316 45.9931 14.3089 45.8075 14.4979C45.6219 14.6868 45.375 14.8475 45.0668 14.9801C44.7585 15.1127 44.3823 15.179 43.9382 15.179ZM44.1172 14.125C44.5812 14.125 44.9723 14.0339 45.2905 13.8516C45.612 13.6693 45.8539 13.4339 46.0163 13.1456C46.1821 12.8572 46.2649 12.554 46.2649 12.2358V11.1619C46.2152 11.2216 46.1058 11.2763 45.9368 11.326C45.7711 11.3724 45.5788 11.4138 45.3601 11.4503C45.1446 11.4834 44.9342 11.5133 44.7287 11.5398C44.5265 11.563 44.3625 11.5829 44.2365 11.5994C43.9316 11.6392 43.6465 11.7038 43.3814 11.7933C43.1196 11.8795 42.9074 12.0104 42.745 12.1861C42.5859 12.3584 42.5064 12.5937 42.5064 12.892C42.5064 13.2997 42.6572 13.608 42.9588 13.8168C43.2637 14.0223 43.6499 14.125 44.1172 14.125ZM50.062 17.8636C49.8631 17.8636 49.6858 17.8471 49.53 17.8139C49.3742 17.7841 49.2665 17.7543 49.2069 17.7244L49.5051 16.6903C49.7902 16.7633 50.0421 16.7898 50.2608 16.7699C50.4796 16.75 50.6735 16.6522 50.8425 16.4766C51.0149 16.3042 51.1723 16.0241 51.3148 15.6364L51.5336 15.0398L48.7097 7.36364H49.9824L52.0904 13.4489H52.1699L54.2779 7.36364H55.5506L52.3091 16.1136C52.1633 16.508 51.9827 16.8345 51.7672 17.093C51.5518 17.3549 51.3016 17.5488 51.0165 17.6747C50.7348 17.8007 50.4166 17.8636 50.062 17.8636ZM57.0993 15V7.36364H58.2328V8.51705H58.3123C58.4515 8.1392 58.7034 7.83262 59.068 7.5973C59.4326 7.36198 59.8436 7.24432 60.301 7.24432C60.3871 7.24432 60.4949 7.24597 60.6241 7.24929C60.7534 7.2526 60.8511 7.25758 60.9174 7.2642V8.45739C60.8777 8.44744 60.7865 8.43253 60.644 8.41264C60.5048 8.38944 60.3573 8.37784 60.2015 8.37784C59.8303 8.37784 59.4989 8.45573 59.2072 8.61151C58.9189 8.76397 58.6902 8.97609 58.5211 9.24787C58.3554 9.51634 58.2725 9.82292 58.2725 10.1676V15H57.0993ZM65.1781 15.1591C64.4887 15.1591 63.8838 14.995 63.3635 14.6669C62.8464 14.3388 62.4421 13.8797 62.1504 13.2898C61.862 12.6998 61.7179 12.0104 61.7179 11.2216C61.7179 10.4261 61.862 9.73177 62.1504 9.13849C62.4421 8.54522 62.8464 8.08452 63.3635 7.75639C63.8838 7.42827 64.4887 7.2642 65.1781 7.2642C65.8675 7.2642 66.4707 7.42827 66.9877 7.75639C67.5081 8.08452 67.9125 8.54522 68.2008 9.13849C68.4925 9.73177 68.6383 10.4261 68.6383 11.2216C68.6383 12.0104 68.4925 12.6998 68.2008 13.2898C67.9125 13.8797 67.5081 14.3388 66.9877 14.6669C66.4707 14.995 65.8675 15.1591 65.1781 15.1591ZM65.1781 14.1051C65.7018 14.1051 66.1326 13.9709 66.4707 13.7024C66.8088 13.4339 67.059 13.081 67.2214 12.6435C67.3838 12.206 67.465 11.732 67.465 11.2216C67.465 10.7112 67.3838 10.2356 67.2214 9.79474C67.059 9.35393 66.8088 8.99763 66.4707 8.72585C66.1326 8.45407 65.7018 8.31818 65.1781 8.31818C64.6544 8.31818 64.2235 8.45407 63.8855 8.72585C63.5474 8.99763 63.2972 9.35393 63.1348 9.79474C62.9724 10.2356 62.8912 10.7112 62.8912 11.2216C62.8912 11.732 62.9724 12.206 63.1348 12.6435C63.2972 13.081 63.5474 13.4339 63.8855 13.7024C64.2235 13.9709 64.6544 14.1051 65.1781 14.1051ZM71.6026 4.81818V15H70.4293V4.81818H71.6026ZM74.9249 4.81818V15H73.7516V4.81818H74.9249Z" fill="#436DFA"/>
<g clip-path="url(#clip0_1282_2181)">
<path d="M96.8327 10.8327H91.8327V15.8327H90.166V10.8327H85.166V9.16602H90.166V4.16602H91.8327V9.16602H96.8327V10.8327Z" fill="#436DFA" stroke="white" stroke-width="0.3"/>
</g>
<defs>
<clipPath id="clip0_1282_2181">
<rect width="20" height="20" fill="white" transform="translate(81)"/>
</clipPath>
</defs>
</svg>
