<svg width="76" height="70" viewBox="0 0 76 70" fill="none" xmlns="http://www.w3.org/2000/svg">
<path d="M40.2401 51.8805H1.28013C0.560257 51.8805 0 52.4408 0 53.1606V58.0406C0 58.7605 0.560271 59.3208 1.28013 59.3208H41.1201C40.5599 57.4809 40.3199 55.5608 40.3199 53.5608C40.2401 53.0005 40.2401 52.4408 40.2401 51.8805L40.2401 51.8805Z" fill="white"/>
<path d="M52.4 35.0005V25.1606H45.04V40.5206C46.9598 38.2009 49.5199 36.2806 52.4 35.0005Z" fill="white"/>
<path d="M32.0002 25.1605H39.3602V48.2805H32.0002V25.1605Z" fill="white"/>
<path d="M18.9602 25.1605H26.3202V48.2805H18.9602V25.1605Z" fill="white"/>
<path d="M6.00024 25.1605H13.3602V48.2805H6.00024V25.1605Z" fill="white"/>
<path d="M1.28032 21.5605H57.1203C57.8402 21.5605 58.4005 21.0002 58.4005 20.2804V14.9204C58.4005 14.4405 58.1605 14.0403 57.6806 13.8004L29.7606 0.120118C29.4408 -0.0400393 29.0407 -0.0400393 28.6406 0.120118L0.720604 13.8004C0.32049 14.0404 0.000732422 14.4405 0.000732422 14.9204V20.2804C0.000732422 21.0002 0.561004 21.5605 1.28086 21.5605H1.28032ZM29.2003 7.3205C31.4403 7.3205 33.2802 9.16036 33.2802 11.4004C33.2802 13.6404 31.4403 15.4802 29.2003 15.4802C26.9603 15.4802 25.1205 13.6404 25.1205 11.4004C25.1205 9.16036 26.9603 7.3205 29.2003 7.3205Z" fill="white"/>
<path d="M60.4802 38.0405C51.9199 38.0405 44.9602 45.0004 44.9602 53.5605C44.9602 62.1207 51.9201 69.0805 60.4802 69.0805C69.0403 69.0805 76.0002 62.1207 76.0002 53.5605C76.0002 45.0004 69.0403 38.0405 60.4802 38.0405ZM68.3201 51.5607L60.4003 59.8804C59.9204 60.3603 59.3602 60.6003 58.6403 60.6003C58.0003 60.6003 57.3602 60.3603 56.8803 59.8804L52.4005 55.1605C51.5205 54.2007 51.5205 52.6807 52.4803 51.8005C53.4401 50.9205 54.9601 50.9205 55.8403 51.8803L58.5601 54.7603L64.7203 48.2805C65.6003 47.3206 67.1204 47.3206 68.0803 48.2007C69.1205 49.0807 69.2003 50.6002 68.3202 51.5607H68.3201Z" fill="white"/>
</svg>
