<svg width="76" height="70" viewBox="0 0 76 70" fill="none" xmlns="http://www.w3.org/2000/svg">
<path d="M40.2399 52.36H1.27988C0.560013 52.36 -0.000244141 52.9203 -0.000244141 53.6401V58.5201C-0.000244141 59.24 0.560027 59.8003 1.27988 59.8003H41.1199C40.5596 57.9604 40.3197 56.0403 40.3197 54.0403C40.2399 53.48 40.2399 52.9203 40.2399 52.36L40.2399 52.36Z" fill="#010D31" fill-opacity="0.8"/>
<path d="M52.3998 35.48V25.6401H45.0398V41.0001C46.9595 38.6804 49.5197 36.7601 52.3998 35.48Z" fill="#010D31" fill-opacity="0.8"/>
<path d="M32 25.64H39.36V48.76H32V25.64Z" fill="#010D31" fill-opacity="0.8"/>
<path d="M18.96 25.64H26.32V48.76H18.96V25.64Z" fill="#010D31" fill-opacity="0.8"/>
<path d="M6 25.64H13.36V48.76H6V25.64Z" fill="#010D31" fill-opacity="0.8"/>
<path d="M1.28007 22.04H57.1201C57.8399 22.04 58.4002 21.4797 58.4002 20.7599V15.3999C58.4002 14.92 58.1602 14.5198 57.6803 14.2799L29.7603 0.59961C29.4406 0.439453 29.0405 0.439453 28.6404 0.59961L0.72036 14.2799C0.320246 14.5199 0.000488281 14.92 0.000488281 15.3999V20.7599C0.000488281 21.4797 0.56076 22.04 1.28062 22.04H1.28007ZM29.2001 7.79999C31.4401 7.79999 33.2799 9.63985 33.2799 11.8799C33.2799 14.1199 31.4401 15.9597 29.2001 15.9597C26.9601 15.9597 25.1202 14.1199 25.1202 11.8799C25.1202 9.63985 26.9601 7.79999 29.2001 7.79999Z" fill="#010D31" fill-opacity="0.8"/>
<path d="M60.48 38.52C51.9197 38.52 44.96 45.4799 44.96 54.04C44.96 62.6002 51.9198 69.56 60.48 69.56C69.0401 69.56 76 62.6002 76 54.04C76 45.4799 69.0401 38.52 60.48 38.52ZM68.3198 52.0402L60.4001 60.3599C59.9202 60.8398 59.3599 61.0797 58.6401 61.0797C58 61.0797 57.36 60.8398 56.8801 60.3599L52.4002 55.64C51.5202 54.6802 51.5202 53.1602 52.48 52.28C53.4399 51.4 54.9599 51.4 55.84 52.3598L58.5599 55.2398L64.72 48.76C65.6001 47.8001 67.1202 47.8001 68.08 48.6802C69.1202 49.5602 69.2 51.0797 68.32 52.0402H68.3198Z" fill="#010D31" fill-opacity="0.8"/>
</svg>
