<svg width="20" height="12" viewBox="0 0 20 12" fill="none" xmlns="http://www.w3.org/2000/svg">
<path d="M14.61 8.41852C14.15 8.41852 13.77 8.04852 13.77 7.58852C13.77 7.12852 14.15 6.76852 14.61 6.76852C15.07 6.76852 15.45 7.12852 15.45 7.58852C15.45 8.04852 15.07 8.41852 14.61 8.41852ZM5.41 8.41852C4.95 8.41852 4.57 8.04852 4.57 7.58852C4.57 7.12852 4.95 6.76852 5.41 6.76852C5.87 6.76852 6.24 7.12852 6.24 7.58852C6.24 8.04852 5.87 8.41852 5.41 8.41852ZM14.91 3.40853L16.58 0.528525C16.67 0.358525 16.61 0.148525 16.45 0.0585248C16.28 -0.0414752 16.07 0.0185249 16 0.188525L14.29 3.09852C12.95 2.48852 11.5 2.16852 10 2.17852C8.47 2.17852 7 2.50852 5.73 3.08852L4.04 0.178525C3.95 0.0085247 3.74 -0.0514749 3.57 0.0485251C3.4 0.138525 3.35 0.348525 3.44 0.518525L5.1 3.39852C2.25 4.95852 0.29 7.84853 0 11.2685H20C19.72 7.85853 17.77 4.96852 14.91 3.40853Z" fill="#198907"/>
</svg>
