<svg width="30" height="30" viewBox="0 0 30 30" fill="none" xmlns="http://www.w3.org/2000/svg">
<rect width="30" height="30" rx="6" fill="#D9DDEA"/>
<mask id="mask0_2658_2623" style="mask-type:alpha" maskUnits="userSpaceOnUse" x="3" y="3" width="24" height="24">
<rect x="3" y="3" width="24" height="24" fill="#D9D9D9"/>
</mask>
<g mask="url(#mask0_2658_2623)">
<path d="M8 24C7.45 24 6.979 23.8043 6.587 23.413C6.19567 23.021 6 22.55 6 22V8C6 7.45 6.19567 6.979 6.587 6.587C6.979 6.19567 7.45 6 8 6H12.2C12.4167 5.4 12.7793 4.91667 13.288 4.55C13.796 4.18333 14.3667 4 15 4C15.6333 4 16.2043 4.18333 16.713 4.55C17.221 4.91667 17.5833 5.4 17.8 6H22C22.55 6 23.021 6.19567 23.413 6.587C23.8043 6.979 24 7.45 24 8V22C24 22.55 23.8043 23.021 23.413 23.413C23.021 23.8043 22.55 24 22 24H8ZM10 20H17V18H10V20ZM10 16H20V14H10V16ZM10 12H20V10H10V12ZM15 7.25C15.2167 7.25 15.396 7.179 15.538 7.037C15.6793 6.89567 15.75 6.71667 15.75 6.5C15.75 6.28333 15.6793 6.104 15.538 5.962C15.396 5.82067 15.2167 5.75 15 5.75C14.7833 5.75 14.6043 5.82067 14.463 5.962C14.321 6.104 14.25 6.28333 14.25 6.5C14.25 6.71667 14.321 6.89567 14.463 7.037C14.6043 7.179 14.7833 7.25 15 7.25Z" fill="#121212" fill-opacity="0.8"/>
</g>
</svg>
