<svg width="120" height="24" viewBox="0 0 120 24" fill="none" xmlns="http://www.w3.org/2000/svg">
<path d="M43.9787 16.9375H42.348L46.0121 6.75568H47.7869L51.451 16.9375H49.8203L46.9418 8.60511H46.8622L43.9787 16.9375ZM44.2521 12.9503H49.5419V14.2429H44.2521V12.9503ZM55.8881 9.30114V10.4943H51.717V9.30114H55.8881ZM52.8356 7.47159H54.3221V14.6953C54.3221 14.9837 54.3652 15.2008 54.4513 15.3466C54.5375 15.4891 54.6486 15.5869 54.7844 15.6399C54.9237 15.6896 55.0745 15.7145 55.2369 15.7145C55.3562 15.7145 55.4606 15.7062 55.5501 15.6896C55.6396 15.6731 55.7092 15.6598 55.7589 15.6499L56.0273 16.8778C55.9412 16.911 55.8185 16.9441 55.6594 16.9773C55.5004 17.0137 55.3015 17.0336 55.0629 17.0369C54.6718 17.0436 54.3072 16.974 53.9691 16.8281C53.631 16.6823 53.3576 16.4569 53.1488 16.152C52.94 15.8471 52.8356 15.4643 52.8356 15.0036V7.47159ZM61.0971 9.30114V10.4943H56.926V9.30114H61.0971ZM58.0446 7.47159H59.5311V14.6953C59.5311 14.9837 59.5742 15.2008 59.6603 15.3466C59.7465 15.4891 59.8575 15.5869 59.9934 15.6399C60.1326 15.6896 60.2834 15.7145 60.4458 15.7145C60.5652 15.7145 60.6696 15.7062 60.7591 15.6896C60.8485 15.6731 60.9181 15.6598 60.9679 15.6499L61.2363 16.8778C61.1502 16.911 61.0275 16.9441 60.8684 16.9773C60.7093 17.0137 60.5105 17.0336 60.2718 17.0369C59.8807 17.0436 59.5162 16.974 59.1781 16.8281C58.84 16.6823 58.5666 16.4569 58.3578 16.152C58.149 15.8471 58.0446 15.4643 58.0446 15.0036V7.47159ZM65.9506 17.0916C65.1983 17.0916 64.5503 16.9309 64.0067 16.6094C63.4665 16.2846 63.0489 15.8288 62.7539 15.2422C62.4622 14.6522 62.3164 13.9612 62.3164 13.169C62.3164 12.3868 62.4622 11.6974 62.7539 11.1009C63.0489 10.5043 63.4599 10.0386 63.9869 9.70383C64.5172 9.36908 65.137 9.2017 65.8462 9.2017C66.2771 9.2017 66.6947 9.27296 67.0991 9.41548C67.5034 9.558 67.8664 9.78172 68.1879 10.0866C68.5094 10.3916 68.7629 10.7876 68.9485 11.2749C69.1341 11.7588 69.2269 12.3471 69.2269 13.0398V13.5668H63.1566V12.4531H67.7702C67.7702 12.062 67.6907 11.7157 67.5316 11.4141C67.3725 11.1091 67.1488 10.8688 66.8604 10.6932C66.5754 10.5175 66.2406 10.4297 65.8562 10.4297C65.4386 10.4297 65.074 10.5324 64.7624 10.7379C64.4542 10.9401 64.2156 11.2053 64.0465 11.5334C63.8808 11.8582 63.7979 12.2112 63.7979 12.5923V13.4624C63.7979 13.9728 63.8874 14.407 64.0664 14.7649C64.2487 15.1229 64.5022 15.3963 64.8271 15.5852C65.1519 15.7708 65.5314 15.8636 65.9656 15.8636C66.2473 15.8636 66.5041 15.8239 66.7362 15.7443C66.9682 15.6615 67.1687 15.5388 67.3377 15.3764C67.5067 15.214 67.636 15.0135 67.7255 14.7749L69.1325 15.0284C69.0198 15.4427 68.8176 15.8056 68.5259 16.1172C68.2376 16.4254 67.8746 16.6657 67.4371 16.8381C67.003 17.0071 66.5075 17.0916 65.9506 17.0916ZM72.3627 12.4034V16.9375H70.8762V9.30114H72.3031V10.544H72.3975C72.5732 10.1397 72.8483 9.81487 73.2228 9.5696C73.6007 9.32434 74.0763 9.2017 74.6497 9.2017C75.17 9.2017 75.6258 9.31108 76.0169 9.52983C76.408 9.74527 76.7112 10.0668 76.9267 10.4943C77.1421 10.9219 77.2498 11.4505 77.2498 12.0803V16.9375H75.7633V12.2592C75.7633 11.7057 75.6191 11.2732 75.3308 10.9616C75.0424 10.6468 74.6464 10.4893 74.1426 10.4893C73.7979 10.4893 73.4913 10.5639 73.2228 10.7131C72.9577 10.8622 72.7472 11.081 72.5914 11.3693C72.439 11.6544 72.3627 11.9991 72.3627 12.4034ZM82.1021 17.0866C81.4856 17.0866 80.9354 16.9292 80.4515 16.6143C79.9709 16.2962 79.5931 15.8437 79.318 15.2571C79.0462 14.6671 78.9103 13.9595 78.9103 13.1342C78.9103 12.3089 79.0479 11.603 79.323 11.0163C79.6014 10.4297 79.9825 9.98059 80.4664 9.66903C80.9503 9.35748 81.4989 9.2017 82.112 9.2017C82.586 9.2017 82.9672 9.28125 83.2555 9.44034C83.5472 9.59612 83.7725 9.77841 83.9316 9.98722C84.094 10.196 84.22 10.38 84.3095 10.5391H84.399V6.75568H85.8855V16.9375H84.4338V15.7493H84.3095C84.22 15.9117 84.0907 16.0973 83.9217 16.3061C83.756 16.5149 83.5273 16.6972 83.2356 16.853C82.944 17.0088 82.5661 17.0866 82.1021 17.0866ZM82.4302 15.8189C82.8578 15.8189 83.219 15.7062 83.514 15.4808C83.8123 15.2521 84.0377 14.9356 84.1902 14.5312C84.3459 14.1269 84.4238 13.6562 84.4238 13.1193C84.4238 12.589 84.3476 12.125 84.1951 11.7273C84.0427 11.3295 83.819 11.0196 83.524 10.7976C83.229 10.5755 82.8644 10.4645 82.4302 10.4645C81.9828 10.4645 81.6099 10.5805 81.3116 10.8125C81.0133 11.0445 80.7879 11.361 80.6355 11.7621C80.4863 12.1631 80.4118 12.6155 80.4118 13.1193C80.4118 13.6297 80.488 14.0888 80.6404 14.4964C80.7929 14.9041 81.0183 15.2273 81.3166 15.4659C81.6182 15.7012 81.9894 15.8189 82.4302 15.8189ZM90.2294 17.1065C89.7455 17.1065 89.308 17.017 88.9169 16.8381C88.5258 16.6558 88.2159 16.3923 87.9872 16.0476C87.7618 15.7029 87.6491 15.2803 87.6491 14.7798C87.6491 14.349 87.732 13.9943 87.8977 13.7159C88.0634 13.4375 88.2872 13.2171 88.5689 13.0547C88.8506 12.8923 89.1655 12.7696 89.5135 12.6868C89.8615 12.6039 90.2161 12.541 90.5774 12.4979C91.0348 12.4448 91.406 12.4018 91.6911 12.3686C91.9761 12.3321 92.1832 12.2741 92.3125 12.1946C92.4418 12.1151 92.5064 11.9858 92.5064 11.8068V11.772C92.5064 11.3378 92.3838 11.0014 92.1385 10.7628C91.8965 10.5241 91.5353 10.4048 91.0547 10.4048C90.5542 10.4048 90.1598 10.5159 89.8714 10.7379C89.5864 10.9567 89.3892 11.2003 89.2798 11.4688L87.8828 11.1506C88.0485 10.6866 88.2905 10.312 88.6087 10.027C88.9302 9.73864 89.2997 9.52983 89.7173 9.40057C90.1349 9.26799 90.5741 9.2017 91.0348 9.2017C91.3397 9.2017 91.6629 9.23816 92.0043 9.31108C92.349 9.38068 92.6705 9.50994 92.9688 9.69886C93.2704 9.88778 93.5173 10.1579 93.7095 10.5092C93.9018 10.8572 93.9979 11.3097 93.9979 11.8665V16.9375H92.5462V15.8935H92.4865C92.3904 16.0857 92.2462 16.2746 92.054 16.4602C91.8617 16.6458 91.6148 16.8 91.3132 16.9226C91.0116 17.0452 90.6503 17.1065 90.2294 17.1065ZM90.5526 15.9134C90.9635 15.9134 91.3149 15.8321 91.6065 15.6697C91.9015 15.5073 92.1252 15.2952 92.2777 15.0334C92.4335 14.7682 92.5114 14.4848 92.5114 14.1832V13.1989C92.4583 13.2519 92.3556 13.3016 92.2031 13.348C92.054 13.3911 91.8833 13.4292 91.6911 13.4624C91.4988 13.4922 91.3116 13.5204 91.1293 13.5469C90.947 13.5701 90.7945 13.59 90.6719 13.6065C90.3835 13.643 90.12 13.7043 89.8814 13.7905C89.6461 13.8767 89.4571 14.0009 89.3146 14.1634C89.1754 14.3224 89.1058 14.5346 89.1058 14.7997C89.1058 15.1676 89.2417 15.446 89.5135 15.6349C89.7853 15.8205 90.1316 15.9134 90.5526 15.9134ZM97.4643 12.4034V16.9375H95.9778V9.30114H97.4047V10.544H97.4991C97.6748 10.1397 97.9499 9.81487 98.3244 9.5696C98.7022 9.32434 99.1779 9.2017 99.7512 9.2017C100.272 9.2017 100.727 9.31108 101.118 9.52983C101.51 9.74527 101.813 10.0668 102.028 10.4943C102.244 10.9219 102.351 11.4505 102.351 12.0803V16.9375H100.865V12.2592C100.865 11.7057 100.721 11.2732 100.432 10.9616C100.144 10.6468 99.7479 10.4893 99.2441 10.4893C98.8994 10.4893 98.5929 10.5639 98.3244 10.7131C98.0592 10.8622 97.8488 11.081 97.693 11.3693C97.5405 11.6544 97.4643 11.9991 97.4643 12.4034ZM107.562 17.0916C106.823 17.0916 106.186 16.9242 105.653 16.5895C105.122 16.2514 104.715 15.7857 104.43 15.1925C104.144 14.5992 104.002 13.9197 104.002 13.1541C104.002 12.3786 104.148 11.6941 104.439 11.1009C104.731 10.5043 105.142 10.0386 105.672 9.70383C106.203 9.36908 106.827 9.2017 107.547 9.2017C108.127 9.2017 108.644 9.30942 109.098 9.52486C109.552 9.73698 109.918 10.0353 110.197 10.4197C110.478 10.8042 110.646 11.2533 110.699 11.767H109.252C109.172 11.4091 108.99 11.1009 108.705 10.8423C108.423 10.5838 108.046 10.4545 107.572 10.4545C107.157 10.4545 106.794 10.5639 106.483 10.7827C106.175 10.9981 105.934 11.3063 105.762 11.7074C105.59 12.1051 105.503 12.5758 105.503 13.1193C105.503 13.6761 105.588 14.1567 105.757 14.5611C105.926 14.9654 106.165 15.2786 106.473 15.5007C106.784 15.7228 107.151 15.8338 107.572 15.8338C107.853 15.8338 108.108 15.7824 108.337 15.6797C108.569 15.5736 108.763 15.4228 108.919 15.2273C109.078 15.0317 109.189 14.7964 109.252 14.5213H110.699C110.646 15.0152 110.485 15.456 110.216 15.8438C109.948 16.2315 109.588 16.5365 109.138 16.7585C108.69 16.9806 108.165 17.0916 107.562 17.0916ZM115.58 17.0916C114.827 17.0916 114.179 16.9309 113.636 16.6094C113.095 16.2846 112.678 15.8288 112.383 15.2422C112.091 14.6522 111.945 13.9612 111.945 13.169C111.945 12.3868 112.091 11.6974 112.383 11.1009C112.678 10.5043 113.089 10.0386 113.616 9.70383C114.146 9.36908 114.766 9.2017 115.475 9.2017C115.906 9.2017 116.324 9.27296 116.728 9.41548C117.132 9.558 117.495 9.78172 117.817 10.0866C118.138 10.3916 118.392 10.7876 118.577 11.2749C118.763 11.7588 118.856 12.3471 118.856 13.0398V13.5668H112.786V12.4531H117.399C117.399 12.062 117.32 11.7157 117.161 11.4141C117.001 11.1091 116.778 10.8688 116.489 10.6932C116.204 10.5175 115.87 10.4297 115.485 10.4297C115.067 10.4297 114.703 10.5324 114.391 10.7379C114.083 10.9401 113.844 11.2053 113.675 11.5334C113.51 11.8582 113.427 12.2112 113.427 12.5923V13.4624C113.427 13.9728 113.516 14.407 113.695 14.7649C113.878 15.1229 114.131 15.3963 114.456 15.5852C114.781 15.7708 115.16 15.8636 115.594 15.8636C115.876 15.8636 116.133 15.8239 116.365 15.7443C116.597 15.6615 116.798 15.5388 116.967 15.3764C117.136 15.214 117.265 15.0135 117.354 14.7749L118.761 15.0284C118.649 15.4427 118.446 15.8056 118.155 16.1172C117.866 16.4254 117.504 16.6657 117.066 16.8381C116.632 17.0071 116.136 17.0916 115.58 17.0916Z" fill="white"/>
<path d="M21.1 12.5L22.5 13.91L15.97 20.5L12.5 17L13.9 15.59L15.97 17.67L21.1 12.5ZM10 17L13 20H3V18C3 15.79 6.58 14 11 14L12.89 14.11L10 17ZM11 4C12.0609 4 13.0783 4.42143 13.8284 5.17157C14.5786 5.92172 15 6.93913 15 8C15 9.06087 14.5786 10.0783 13.8284 10.8284C13.0783 11.5786 12.0609 12 11 12C9.93913 12 8.92172 11.5786 8.17157 10.8284C7.42143 10.0783 7 9.06087 7 8C7 6.93913 7.42143 5.92172 8.17157 5.17157C8.92172 4.42143 9.93913 4 11 4V4Z" fill="white"/>
</svg>
