<svg width="18" height="17" viewBox="0 0 18 17" fill="none" xmlns="http://www.w3.org/2000/svg">
<path d="M9.5095 14.7915C9.1888 14.6289 8.8112 14.6289 8.4905 14.7915L4.37943 16.8751C3.50876 17.3164 2.52842 16.5193 2.76452 15.562L3.72576 11.6645C3.81767 11.2918 3.72079 10.8972 3.46729 10.6117L0.294158 7.0378C-0.338352 6.32543 0.110948 5.18715 1.05367 5.11364L5.48026 4.76848C5.89433 4.73619 6.25828 4.47809 6.43013 4.09485L7.9627 0.677033C8.3675 -0.225677 9.6325 -0.225677 10.0373 0.677033L11.5699 4.09485C11.7417 4.47809 12.1057 4.73619 12.5197 4.76848L16.9463 5.11364C17.889 5.18715 18.3384 6.32543 17.7058 7.0378L14.5327 10.6117C14.2792 10.8972 14.1823 11.2918 14.2742 11.6645L15.2355 15.562C15.4716 16.5193 14.4912 17.3164 13.6206 16.8751L9.5095 14.7915Z" fill="#FFC839"/>
</svg>
