<svg width="18" height="17" viewBox="0 0 18 17" fill="none" xmlns="http://www.w3.org/2000/svg">
<path d="M4.40539 11.8321L4.4054 11.8321C4.5521 11.2372 4.39816 10.6058 3.99073 10.1469L0.817611 6.57305L0.817603 6.57304C0.558642 6.28138 0.757632 5.83885 1.10809 5.81152L5.53467 5.46636L5.53468 5.46636C6.20771 5.41388 6.79367 4.99495 7.06885 4.38126L7.06885 4.38126L8.60142 0.963452C8.75894 0.612183 9.24106 0.612183 9.39858 0.963452L10.9311 4.3812C11.2063 4.99497 11.7923 5.41388 12.4653 5.46636L12.4653 5.46636L16.8919 5.81152C17.2424 5.83886 17.4413 6.28143 17.1824 6.573L17.1823 6.57305L14.0093 10.1469C14.0093 10.1469 14.0092 10.1469 14.0092 10.147C13.6018 10.6058 13.4479 11.2372 13.5946 11.8321L13.5946 11.8321L14.5559 15.7296C14.5559 15.7296 14.5559 15.7296 14.5559 15.7296C14.6544 16.1294 14.2518 16.4102 13.9371 16.2507L13.9371 16.2507L9.82605 14.1672C9.3064 13.9037 8.6937 13.9037 8.17404 14.1671C8.17401 14.1671 8.17398 14.1671 8.17395 14.1672L4.06297 16.2507L4.37943 16.8751L4.06296 16.2507C3.74819 16.4103 3.34556 16.1294 3.44415 15.7296L4.40539 11.8321Z" stroke="#A0A0A0" stroke-width="1.4" stroke-linecap="round" stroke-linejoin="round"/>
</svg>
