<svg width="24" height="24" viewBox="0 0 24 24" fill="none" xmlns="http://www.w3.org/2000/svg">
<path d="M9.82078 12.5C9.84079 12.33 9.86078 12.17 9.86078 12C9.86078 11.83 9.84079 11.67 9.82078 11.5L10.9008 10.69C11.0008 10.62 11.0008 10.5 10.9608 10.37L9.93079 8.64C9.87078 8.53 9.73078 8.5 9.62078 8.53L8.34079 9.03C8.07079 8.83 7.78079 8.67 7.47079 8.54L7.27079 7.21C7.27079 7.09 7.16079 7 7.03079 7H5.00079C4.85079 7 4.74079 7.09 4.72079 7.21L4.50079 8.53C4.21079 8.65 3.92079 8.83 3.65079 9L2.37079 8.5C2.25079 8.47 2.12079 8.5 2.06079 8.63L1.03079 10.36C0.970785 10.5 1.00079 10.61 1.10079 10.69L2.18079 11.5C2.16079 11.67 2.15079 11.84 2.15079 12C2.15079 12.17 2.17079 12.33 2.19079 12.5L1.10079 13.32C1.00079 13.39 1.00079 13.53 1.04079 13.64L2.07079 15.37C2.13079 15.5 2.27079 15.5 2.38079 15.5L3.66079 15C3.93079 15.18 4.22079 15.34 4.53079 15.47L4.73079 16.79C4.74079 16.91 4.85079 17 5.00079 17H7.04079C7.17079 17 7.28079 16.91 7.29079 16.79L7.50079 15.47C7.80079 15.35 8.09079 15.17 8.36079 15L9.64079 15.5C9.76079 15.53 9.89078 15.5 9.95078 15.37L11.0008 13.64C11.0408 13.53 11.0008 13.4 10.9208 13.32L9.82078 12.5ZM6.00079 13.75C5.00079 13.75 4.20079 12.97 4.20079 12C4.20079 11.03 5.00079 10.25 6.00079 10.25C7.00079 10.25 7.80079 11.03 7.80079 12C7.80079 12.97 7.00079 13.75 6.00079 13.75ZM17.0008 1H7.00079C6.47035 1 5.96164 1.21071 5.58657 1.58579C5.2115 1.96086 5.00079 2.46957 5.00079 3V6H7.00079V4H17.0008V20H7.00079V18H5.00079V21C5.00079 21.5304 5.2115 22.0391 5.58657 22.4142C5.96164 22.7893 6.47035 23 7.00079 23H17.0008C17.5312 23 18.0399 22.7893 18.415 22.4142C18.7901 22.0391 19.0008 21.5304 19.0008 21V3C19.0008 2.46957 18.7901 1.96086 18.415 1.58579C18.0399 1.21071 17.5312 1 17.0008 1Z" fill="#1C023B"/>
</svg>
