<svg width="24" height="24" viewBox="0 0 24 24" fill="none" xmlns="http://www.w3.org/2000/svg">
<path opacity="0.4" d="M17.4419 23.6547H6.55752C4.86991 23.7596 3.2126 23.1745 1.96555 22.0347C0.825711 20.7865 0.240643 19.1292 0.345536 17.4428V6.55734C0.240643 4.87091 0.824546 3.21362 1.96438 1.96541C3.2126 0.825584 4.86991 0.240522 6.55752 0.345413H17.4419C19.1272 0.240522 20.7833 0.824419 22.0304 1.96424C23.169 3.21362 23.7553 4.86974 23.655 6.55734V17.4428C23.7588 19.1292 23.1749 20.7865 22.035 22.0347C20.7868 23.1745 19.1295 23.7596 17.4419 23.6547Z" fill="#E33D3D"/>
<path d="M17.8971 10.1305L10.2522 17.8135C9.85465 18.2004 9.33211 18.4167 8.78686 18.4167H6.11739C5.96972 18.4167 5.8334 18.3598 5.73117 18.2574C5.62893 18.1549 5.5835 18.0183 5.5835 17.8704L5.65165 15.1728C5.66301 14.6378 5.87884 14.137 6.2537 13.7614L11.6722 8.33215C11.763 8.2411 11.9221 8.2411 12.0129 8.33215L13.9134 10.225C14.0383 10.3491 14.2201 10.4299 14.4132 10.4299C14.8335 10.4299 15.1629 10.0884 15.1629 9.67866C15.1629 9.47378 15.0834 9.29167 14.9584 9.15508C14.9244 9.10955 13.1148 7.30776 13.1148 7.30776C13.0012 7.19394 13.0012 7.00045 13.1148 6.88663L13.8759 6.11264C14.5802 5.40695 15.7161 5.40695 16.4204 6.11264L17.8971 7.59232C18.5901 8.28663 18.5901 9.42484 17.8971 10.1305Z" fill="#E33D3D"/>
</svg>
