<svg width="48" height="48" viewBox="0 0 48 48" fill="none" xmlns="http://www.w3.org/2000/svg">
<path d="M36 36.0002C42.6274 29.3728 42.6274 18.6277 36 12.0002C29.3726 5.37283 18.6274 5.37282 12 12.0002C5.37259 18.6277 5.37258 29.3728 12 36.0002C18.6274 42.6277 29.3726 42.6277 36 36.0002Z" fill="#FFD05D"/>
<path d="M32.8796 9.5166C34.5699 12.1546 35.5495 15.2923 35.5495 18.657C35.5495 28.0283 27.9521 35.6277 18.5787 35.6277C15.3236 35.6277 12.2834 34.7099 9.70117 33.1211C12.7174 37.8297 17.9954 40.9495 24.0021 40.9495C33.3734 40.9495 40.9728 33.3521 40.9728 23.9787C40.9708 17.8626 37.7335 12.503 32.8796 9.5166Z" fill="#FDC453"/>
<path d="M9.33672 25.7907C9.33672 17.0883 16.3906 10.0345 25.093 10.0345C30.1798 10.0345 34.7012 12.4455 37.5821 16.1864C34.8605 11.4639 29.7617 8.28442 23.9203 8.28442C15.2179 8.28442 8.16406 15.3383 8.16406 24.0407C8.16406 27.6562 9.38252 30.9871 11.4312 33.6449C10.0993 31.3315 9.33672 28.6497 9.33672 25.7907Z" fill="#FFD77F"/>
<path d="M17.6409 21.7778C18.3315 21.7778 18.8912 20.8339 18.8912 19.6694C18.8912 18.505 18.3315 17.561 17.6409 17.561C16.9504 17.561 16.3906 18.505 16.3906 19.6694C16.3906 20.8339 16.9504 21.7778 17.6409 21.7778Z" fill="#303030"/>
<path d="M31.3932 19.6694C31.3932 20.8341 30.8337 21.7778 30.1429 21.7778C29.452 21.7778 28.8926 20.8341 28.8926 19.6694C28.8926 18.5047 29.452 17.561 30.1429 17.561C30.8337 17.561 31.3932 18.5047 31.3932 19.6694Z" fill="#303030"/>
<rect x="16.3906" y="29.2681" width="15.2195" height="2.34146" fill="#5E4939"/>
</svg>
