<svg width="56" height="40" viewBox="0 0 56 40" fill="none" xmlns="http://www.w3.org/2000/svg">
<path d="M13.2496 40C9.56567 40 6.43642 38.7127 3.86185 36.1381C1.28728 33.5636 0 30.4343 0 26.7504C0 23.4851 1.04657 20.6175 3.13972 18.1476C5.23286 15.6777 7.89116 14.1915 11.1146 13.6892C11.8681 9.92151 13.6054 6.78179 16.3265 4.27002C19.0476 1.75824 22.2083 0.334903 25.8085 0V21.9152L20.5965 16.7033L17.8964 19.4035L27.6923 29.1994L37.4882 19.4035L34.7881 16.7033L29.5761 21.9152V0C33.8043 0.460492 37.3417 2.34432 40.1884 5.65149C43.0351 8.95866 44.4584 12.831 44.4584 17.2684V18.7755C47.4725 18.6918 50.0262 19.6651 52.1193 21.6954C54.2125 23.7258 55.259 26.2899 55.259 29.3878C55.259 32.2763 54.2125 34.7671 52.1193 36.8603C50.0262 38.9534 47.5353 40 44.6468 40H13.2496Z" fill="#121212" fill-opacity="0.6"/>
</svg>
