<svg width="13" height="14" viewBox="0 0 13 14" fill="none" xmlns="http://www.w3.org/2000/svg">
<path d="M6.19336 2.59863C6.05664 2.80371 5.9541 3.01562 5.88574 3.23438C5.81738 3.45312 5.7832 3.67188 5.7832 3.89062C5.7832 4.29622 5.94043 4.64941 6.25488 4.9502C6.56934 5.25098 6.93848 5.40137 7.3623 5.40137C7.69954 5.40137 8.02083 5.31022 8.32617 5.12793C8.63607 4.94108 8.85254 4.70866 8.97559 4.43066C8.64746 3.861 8.24414 3.41895 7.76562 3.10449C7.28711 2.79004 6.76302 2.62142 6.19336 2.59863ZM12.5986 13.2969L8.5791 10.4941C8.0778 10.7448 7.55827 10.9339 7.02051 11.0615C6.48275 11.1891 5.94499 11.2529 5.40723 11.2529C4.89681 11.2529 4.4069 11.1823 3.9375 11.041C3.4681 10.8997 3.02832 10.6901 2.61816 10.4121C1.889 9.92448 1.32389 9.31152 0.922852 8.57324C0.52181 7.83496 0.321289 7.04427 0.321289 6.20117C0.321289 5.49935 0.467122 4.83398 0.758789 4.20508C1.05501 3.57161 1.47428 3.0179 2.0166 2.54395C2.60449 2.02441 3.26758 1.62565 4.00586 1.34766C4.7487 1.06966 5.51888 0.930664 6.31641 0.930664C7.01367 0.930664 7.65625 1.04915 8.24414 1.28613C8.83203 1.51855 9.35612 1.86263 9.81641 2.31836C10.3177 2.82878 10.7028 3.42578 10.9717 4.10938C11.2451 4.78841 11.3818 5.49935 11.3818 6.24219C11.3818 6.75716 11.3044 7.24023 11.1494 7.69141C10.999 8.14258 10.7689 8.57324 10.459 8.9834L12.5986 13.2969Z" fill="#436DFA"/>
</svg>
