<svg width="100" height="24" viewBox="0 0 100 24" fill="none" xmlns="http://www.w3.org/2000/svg">
<path d="M44.6548 5.77668V15.9585H43.1186V5.77668H44.6548ZM50.1882 15.9585H46.892V5.77668H50.2926C51.2902 5.77668 52.147 5.98051 52.8629 6.38818C53.5788 6.79254 54.1274 7.37422 54.5085 8.13321C54.893 8.88889 55.0852 9.79538 55.0852 10.8527C55.0852 11.9133 54.8913 12.8247 54.5036 13.587C54.1191 14.3494 53.5623 14.936 52.8331 15.347C52.1039 15.7547 51.2223 15.9585 50.1882 15.9585ZM48.4283 14.6162H50.1037C50.8793 14.6162 51.5239 14.4703 52.0376 14.1787C52.5514 13.8837 52.9358 13.4578 53.1911 12.901C53.4463 12.3408 53.5739 11.6581 53.5739 10.8527C53.5739 10.0539 53.4463 9.37611 53.1911 8.81929C52.9392 8.26247 52.563 7.83989 52.0625 7.55154C51.562 7.26318 50.9406 7.11901 50.1982 7.11901H48.4283V14.6162ZM69.1573 9.08776H67.6062C67.5465 8.75632 67.4355 8.46465 67.2731 8.21276C67.1107 7.96086 66.9118 7.74708 66.6765 7.57142C66.4412 7.39576 66.1777 7.26318 65.886 7.17369C65.5977 7.08421 65.2911 7.03946 64.9663 7.03946C64.3796 7.03946 63.8543 7.18695 63.3903 7.48193C62.9296 7.77691 62.565 8.20944 62.2965 8.77952C62.0314 9.34959 61.8988 10.0456 61.8988 10.8676C61.8988 11.6962 62.0314 12.3955 62.2965 12.9656C62.565 13.5357 62.9312 13.9665 63.3952 14.2582C63.8593 14.5499 64.3813 14.6957 64.9613 14.6957C65.2828 14.6957 65.5877 14.6526 65.8761 14.5665C66.1677 14.477 66.4312 14.346 66.6665 14.1737C66.9019 14.0013 67.1007 13.7909 67.2631 13.5423C67.4289 13.2904 67.5432 13.0021 67.6062 12.6772L69.1573 12.6822C69.0745 13.1827 68.9137 13.6434 68.6751 14.0643C68.4397 14.4819 68.1365 14.8432 67.7653 15.1481C67.3974 15.4497 66.9764 15.6834 66.5025 15.8491C66.0285 16.0148 65.5115 16.0977 64.9513 16.0977C64.0697 16.0977 63.2842 15.8889 62.5948 15.4713C61.9054 15.0504 61.3619 14.4488 60.9641 13.6666C60.5697 12.8844 60.3725 11.9514 60.3725 10.8676C60.3725 9.78047 60.5714 8.84746 60.9691 8.06858C61.3668 7.28638 61.9104 6.68648 62.5998 6.26887C63.2892 5.84794 64.073 5.63747 64.9513 5.63747C65.4916 5.63747 65.9954 5.71536 66.4627 5.87114C66.9334 6.0236 67.3559 6.24898 67.7305 6.54727C68.105 6.84226 68.4149 7.20352 68.6602 7.63108C68.9054 8.05532 69.0711 8.54088 69.1573 9.08776ZM73.0985 16.1275C72.6146 16.1275 72.1771 16.038 71.786 15.8591C71.3949 15.6768 71.085 15.4133 70.8564 15.0686C70.631 14.7239 70.5183 14.3013 70.5183 13.8008C70.5183 13.37 70.6011 13.0153 70.7669 12.7369C70.9326 12.4585 71.1563 12.2381 71.438 12.0757C71.7198 11.9133 72.0346 11.7906 72.3826 11.7078C72.7306 11.6249 73.0853 11.562 73.4466 11.5189C73.9039 11.4658 74.2752 11.4227 74.5602 11.3896C74.8452 11.3531 75.0524 11.2951 75.1816 11.2156C75.3109 11.1361 75.3755 11.0068 75.3755 10.8278V10.793C75.3755 10.3588 75.2529 10.0224 75.0076 9.78378C74.7657 9.54514 74.4044 9.42583 73.9238 9.42583C73.4234 9.42583 73.0289 9.53686 72.7406 9.75892C72.4556 9.97767 72.2583 10.2213 72.149 10.4897L70.752 10.1716C70.9177 9.70755 71.1596 9.33302 71.4778 9.04798C71.7993 8.75963 72.1689 8.55083 72.5865 8.42156C73.0041 8.28899 73.4432 8.2227 73.9039 8.2227C74.2089 8.2227 74.532 8.25916 74.8734 8.33208C75.2181 8.40168 75.5396 8.53094 75.8379 8.71986C76.1395 8.90878 76.3864 9.1789 76.5787 9.53023C76.7709 9.87824 76.867 10.3307 76.867 10.8875V15.9585H75.4153V14.9145H75.3556C75.2595 15.1067 75.1154 15.2956 74.9231 15.4812C74.7309 15.6668 74.484 15.8209 74.1824 15.9436C73.8807 16.0662 73.5195 16.1275 73.0985 16.1275ZM73.4217 14.9343C73.8327 14.9343 74.184 14.8531 74.4757 14.6907C74.7707 14.5283 74.9944 14.3162 75.1468 14.0544C75.3026 13.7892 75.3805 13.5058 75.3805 13.2042V12.2199C75.3275 12.2729 75.2247 12.3226 75.0723 12.369C74.9231 12.4121 74.7524 12.4502 74.5602 12.4834C74.368 12.5132 74.1807 12.5414 73.9984 12.5679C73.8161 12.5911 73.6636 12.611 73.541 12.6275C73.2527 12.664 72.9892 12.7253 72.7505 12.8115C72.5152 12.8977 72.3263 13.0219 72.1838 13.1843C72.0446 13.3434 71.975 13.5556 71.975 13.8207C71.975 14.1886 72.1109 14.467 72.3826 14.6559C72.6544 14.8415 73.0008 14.9343 73.4217 14.9343ZM78.8469 15.9585V8.32213H80.2837V9.5352H80.3633C80.5025 9.12422 80.7478 8.80106 81.0991 8.56574C81.4537 8.3271 81.8548 8.20779 82.3022 8.20779C82.395 8.20779 82.5044 8.2111 82.6303 8.21773C82.7596 8.22436 82.8607 8.23264 82.9336 8.24259V9.66446C82.8739 9.64789 82.7679 9.62966 82.6154 9.60977C82.4629 9.58657 82.3105 9.57497 82.158 9.57497C81.8067 9.57497 81.4935 9.64955 81.2184 9.79869C80.9466 9.94453 80.7312 10.1484 80.5721 10.4102C80.413 10.6687 80.3335 10.9637 80.3335 11.2951V15.9585H78.8469ZM86.8052 16.1076C86.1887 16.1076 85.6386 15.9502 85.1547 15.6353C84.6741 15.3172 84.2962 14.8647 84.0211 14.2781C83.7493 13.6881 83.6135 12.9805 83.6135 12.1552C83.6135 11.3299 83.751 10.624 84.0261 10.0373C84.3045 9.45068 84.6857 9.00158 85.1696 8.69003C85.6535 8.37848 86.202 8.2227 86.8152 8.2227C87.2891 8.2227 87.6703 8.30225 87.9586 8.46134C88.2503 8.61711 88.4757 8.7994 88.6348 9.00821C88.7972 9.21702 88.9231 9.40097 89.0126 9.56006H89.1021V5.77668H90.5886V15.9585H89.1369V14.7703H89.0126C88.9231 14.9327 88.7939 15.1183 88.6248 15.3271C88.4591 15.5359 88.2304 15.7182 87.9387 15.874C87.6471 16.0298 87.2692 16.1076 86.8052 16.1076ZM87.1333 14.8399C87.5609 14.8399 87.9222 14.7272 88.2172 14.5018C88.5154 14.2731 88.7408 13.9566 88.8933 13.5522C89.0491 13.1479 89.127 12.6772 89.127 12.1403C89.127 11.61 89.0507 11.146 88.8983 10.7483C88.7458 10.3505 88.5221 10.0406 88.2271 9.81858C87.9321 9.59652 87.5675 9.48548 87.1333 9.48548C86.6859 9.48548 86.313 9.60149 86.0147 9.8335C85.7164 10.0655 85.4911 10.382 85.3386 10.7831C85.1895 11.1841 85.1149 11.6365 85.1149 12.1403C85.1149 12.6507 85.1911 13.1098 85.3436 13.5174C85.496 13.9251 85.7214 14.2483 86.0197 14.4869C86.3213 14.7222 86.6925 14.8399 87.1333 14.8399ZM98.4325 10.1865L97.0852 10.4251C97.0289 10.2528 96.9394 10.0887 96.8168 9.93293C96.6974 9.77715 96.535 9.64955 96.3295 9.55012C96.1241 9.45068 95.8672 9.40097 95.5589 9.40097C95.138 9.40097 94.7867 9.49543 94.505 9.68435C94.2232 9.86995 94.0824 10.1102 94.0824 10.4052C94.0824 10.6604 94.1768 10.8659 94.3658 11.0217C94.5547 11.1775 94.8596 11.3051 95.2805 11.4045L96.4936 11.6829C97.1963 11.8453 97.7199 12.0956 98.0646 12.4336C98.4093 12.7717 98.5817 13.2109 98.5817 13.7511C98.5817 14.2085 98.4491 14.6162 98.1839 14.9741C97.9221 15.3288 97.5559 15.6072 97.0852 15.8093C96.6179 16.0115 96.076 16.1126 95.4595 16.1126C94.6044 16.1126 93.9067 15.9303 93.3665 15.5657C92.8262 15.1978 92.4948 14.6758 92.3722 13.9997L93.8089 13.7809C93.8984 14.1555 94.0824 14.4388 94.3608 14.6311C94.6392 14.82 95.0021 14.9145 95.4496 14.9145C95.9368 14.9145 96.3262 14.8134 96.6179 14.6112C96.9096 14.4057 97.0554 14.1555 97.0554 13.8605C97.0554 13.6218 96.9659 13.4213 96.7869 13.2589C96.6113 13.0965 96.3411 12.9739 95.9766 12.891L94.6839 12.6076C93.9714 12.4452 93.4444 12.1867 93.103 11.8321C92.7649 11.4774 92.5959 11.0283 92.5959 10.4848C92.5959 10.034 92.7218 9.6396 92.9737 9.30154C93.2256 8.96347 93.5736 8.69997 94.0178 8.51105C94.4619 8.31882 94.9706 8.2227 95.544 8.2227C96.3693 8.2227 97.0189 8.40168 97.4929 8.75963C97.9669 9.11427 98.2801 9.58989 98.4325 10.1865Z" fill="#121212" fill-opacity="0.8"/>
<path d="M19 3H14.82C14.4 1.84 13.3 1 12 1C10.7 1 9.6 1.84 9.18 3H5C3.9 3 3 3.9 3 5V19C3 20.1 3.9 21 5 21H19C20.1 21 21 20.1 21 19V5C21 3.9 20.1 3 19 3ZM12 3C12.55 3 13 3.45 13 4C13 4.55 12.55 5 12 5C11.45 5 11 4.55 11 4C11 3.45 11.45 3 12 3ZM12 7C13.66 7 15 8.34 15 10C15 11.66 13.66 13 12 13C10.34 13 9 11.66 9 10C9 8.34 10.34 7 12 7ZM18 19H6V17.6C6 15.6 10 14.5 12 14.5C14 14.5 18 15.6 18 17.6V19Z" fill="#121212" fill-opacity="0.8"/>
</svg>
