<svg width="24" height="24" viewBox="0 0 24 24" fill="none" xmlns="http://www.w3.org/2000/svg">
<g clip-path="url(#clip0_12_901)">
<path d="M4.03744 18.4699L3.08006 14.1619C3.38681 13.9444 3.59981 13.6042 3.59981 13.2C3.59981 12.7661 3.35719 12.4031 3.01256 12.1924L4.03744 18.4699ZM4.03744 18.4699C4.12069 18.8445 3.83569 19.2 3.45169 19.2H1.34756C0.963937 19.2 0.678938 18.8445 0.762188 18.4699L1.71956 14.1619C1.41281 13.9444 1.19981 13.6042 1.19981 13.2C1.19981 12.7541 1.45406 12.3806 1.81519 12.1736C1.83153 11.7305 1.94754 11.3132 2.14286 10.9372L2.30948 10.9884L2.48569 10.4149L2.01921 10.0375C1.96924 10.0993 1.92122 10.1626 1.87527 10.2273L0.662063 9.85462C-0.220688 9.5835 -0.220688 8.41612 0.662063 8.145L11.1227 4.93125C11.6923 4.75613 12.3073 4.75613 12.8773 4.93125M4.03744 18.4699L23.3376 8.145L12.8773 4.93125M12.8773 4.93125L12.7011 5.50479C12.2459 5.36493 11.7537 5.36497 11.299 5.50476L11.2989 5.50479L0.838268 8.71854L0.838223 8.71856C0.656187 8.77447 0.6 8.89584 0.6 8.99981C0.6 9.10379 0.656187 9.22516 0.838223 9.28107L0.838265 9.28108L2.66189 9.84133L3.5105 10.102L3.09176 10.6197M12.8773 4.93125L12.7011 5.50479L23.1612 8.71851C23.1613 8.71852 23.1613 8.71853 23.1614 8.71854C23.3438 8.77468 23.3999 8.89625 23.3999 9C23.3999 9.10375 23.3438 9.22532 23.1614 9.28146C23.1613 9.28147 23.1613 9.28148 23.1612 9.28149L12.7008 12.4952M3.09176 10.6197C3.03961 10.6726 2.99007 10.7278 2.94326 10.785C2.63011 11.1681 2.43953 11.6443 2.41333 12.1621L2.41163 12.1956L2.39531 12.5182L2.40272 12.5227M3.09176 10.6197L2.95217 10.7922C2.63438 11.1851 2.44238 11.6537 2.41626 12.1622C2.41569 12.1734 2.41519 12.1845 2.41478 12.1957L2.40272 12.5227M3.09176 10.6197C3.19993 10.5099 3.31928 10.4098 3.44857 10.3209L3.68751 10.1567L3.96466 10.2418L11.2983 12.4951L11.1224 13.0686L11.2985 12.4952C11.5707 12.5787 12.092 12.6821 12.7007 12.4952M2.40272 12.5227L2.4025 12.5286L2.11357 12.6942C1.91371 12.8087 1.79981 12.9968 1.79981 13.2C1.79981 13.3788 1.89148 13.5483 2.06661 13.6724L2.39174 13.903L2.30527 14.292L1.34791 18.6M2.40272 12.5227L2.69953 12.7042C2.89286 12.8225 2.99981 13.0048 2.99981 13.2C2.99981 13.3788 2.90814 13.5483 2.73302 13.6724L2.40789 13.903L2.49435 14.292L3.45173 18.6L3.45169 18.6H1.34791M1.34791 18.6H1.34775H1.34772H1.34756L1.34785 18.6L1.3479 18.6L1.34791 18.6ZM12.7007 12.4952L12.8767 13.068L12.7008 12.4952M12.7007 12.4952L12.7008 12.4952M12.7007 12.4952L12.7008 12.4952M10.7698 14.2159C11.2479 14.3629 12.1596 14.5444 13.2294 14.2159L18.0858 12.7238L18.1613 13.3283M10.7698 14.2159L5.91387 12.7241L5.83833 13.3286M10.7698 14.2159L10.5936 14.7894C11.14 14.9574 12.1818 15.1652 13.4056 14.7894L13.4057 14.7894L18.1613 13.3283M10.7698 14.2159L10.5935 14.7894L5.83833 13.3286M5.83833 13.3286L5.25602 13.1497L4.79981 16.8M5.83833 13.3286L5.40141 16.8246M4.79981 16.8C4.79981 18.1256 8.02331 19.2 11.9998 19.2C15.9763 19.2 19.1998 18.1256 19.1998 16.8M4.79981 16.8H5.39981C5.39981 16.8072 5.40026 16.8154 5.40141 16.8246M4.79981 16.8L5.39518 16.8744L5.40141 16.8246M19.1998 16.8L18.7436 13.1493L18.1613 13.3283M19.1998 16.8L18.6044 16.8744L18.5982 16.8246M19.1998 16.8H18.5998C18.5998 16.8072 18.5994 16.8154 18.5982 16.8246M18.1613 13.3283L18.5982 16.8246M5.40141 16.8246C5.41122 16.9032 5.47201 17.0542 5.73701 17.263C6.02619 17.4909 6.48183 17.7224 7.09836 17.9279C8.32514 18.3368 10.0581 18.6 11.9998 18.6C13.9415 18.6 15.6745 18.3368 16.9013 17.9279C17.5178 17.7224 17.9734 17.4909 18.2626 17.263C18.5276 17.0542 18.5884 16.9032 18.5982 16.8246" stroke="#888888" stroke-width="1.2"/>
</g>
<defs>
<clipPath id="clip0_12_901">
<rect width="24" height="24" fill="white"/>
</clipPath>
</defs>
</svg>
