<svg width="48" height="48" viewBox="0 0 48 48" fill="none" xmlns="http://www.w3.org/2000/svg">
<rect width="48" height="48" rx="24" fill="#4B1A85" fill-opacity="0.1"/>
<path d="M22.5157 25.0571L22.515 25.0565C20.6866 23.3696 18.4092 22.1894 15.86 21.7291L15.6833 21.6972V21.8767V29.985V30.1168L15.814 30.1338C18.833 30.5271 21.5974 31.6838 23.9108 33.3956L24 33.4616L24.0892 33.3956C26.4026 31.6838 29.167 30.5271 32.186 30.1338L32.3167 30.1168V29.985V21.8767V21.6972L32.14 21.7291C29.5908 22.1894 27.3134 23.3696 25.485 25.0565L25.4843 25.0571L24 26.4431L22.5157 25.0571ZM32.1893 19.6567L32.1895 19.6566C32.8922 19.5485 33.6155 19.491 34.35 19.4841V32.0174C30.3374 32.055 26.7338 33.5998 24 36.0929C21.2662 33.5998 17.6626 32.055 13.65 32.0174V19.4841C14.3845 19.491 15.1078 19.5485 15.8105 19.6566L15.8107 19.6567C18.9181 20.1303 21.7024 21.5396 23.8981 23.5734L24 23.6678L24.1019 23.5734C26.2976 21.5396 29.0819 20.1303 32.1893 19.6567ZM24.929 16.7729L24.9345 16.7679L24.9396 16.7623C25.1824 16.494 25.3167 16.1909 25.3167 15.8334C25.3167 15.4759 25.1824 15.1728 24.9396 14.9044L24.9332 14.8973L24.926 14.8912C24.662 14.6649 24.3604 14.5167 24 14.5167C23.6396 14.5167 23.338 14.6649 23.074 14.8912L23.0653 14.8987L23.0578 14.9074C22.831 15.172 22.6833 15.4854 22.6833 15.8334C22.6833 16.1814 22.831 16.4947 23.0578 16.7593L23.064 16.7666L23.071 16.7729C23.34 17.0163 23.6549 17.15 24 17.15C24.3575 17.15 24.6606 17.0158 24.929 16.7729ZM26.3673 18.2006C25.7417 18.8262 24.8931 19.1834 24 19.1834C23.1069 19.1834 22.2583 18.8262 21.6327 18.2006C21.0072 17.5751 20.65 16.7265 20.65 15.8334C20.65 14.9403 21.0072 14.0916 21.6327 13.4661C22.2583 12.8406 23.1069 12.4834 24 12.4834C24.8931 12.4834 25.7417 12.8406 26.3673 13.4661C26.9928 14.0916 27.35 14.9403 27.35 15.8334C27.35 16.7265 26.9928 17.5751 26.3673 18.2006Z" fill="#1C023B" stroke="#EDE8F3" stroke-width="0.3"/>
</svg>
