<svg width="60" height="70" viewBox="0 0 60 70" fill="none" xmlns="http://www.w3.org/2000/svg">
<path d="M1.90997 64.9815C10.9603 63.6305 20.2071 65.1678 28.3328 69.3749V35.0006C28.3328 34.0804 29.0795 33.3337 29.9997 33.3337C30.9199 33.3337 31.6665 34.0804 31.6665 35.0006V69.412C39.8908 65.451 49.0737 63.9165 58.1394 64.9885C58.6121 65.0465 59.0869 64.8969 59.4407 64.5783C59.7962 64.2625 59.9993 63.8093 59.9993 63.3333V26.6676C59.9993 25.9606 59.5529 25.3306 58.886 25.0956C55.4915 23.8953 51.9129 23.2988 48.3123 23.3339C41.7208 23.4935 35.3358 25.6688 30.0181 29.5672C25.2039 25.9439 19.4499 23.7803 13.4409 23.3339C9.25234 23.0638 5.05305 23.6637 1.10777 25.0956C0.443155 25.3322 -0.0010449 25.9617 -0.000487758 26.6676V63.3333C-0.000487758 63.8177 0.210455 64.2781 0.577084 64.595C0.944269 64.9114 1.43033 65.0526 1.90967 64.9818L1.90997 64.9815Z" fill="#010D31" fill-opacity="0.8"/>
<path d="M40.8328 10.8329C40.8328 16.8162 35.9829 21.6666 29.9996 21.6666C24.0164 21.6666 19.1665 16.8162 19.1665 10.8329C19.1665 4.85018 24.0164 -0.000244141 29.9996 -0.000244141C35.9829 -0.000244141 40.8328 4.85018 40.8328 10.8329Z" fill="#010D31" fill-opacity="0.8"/>
</svg>
