<svg width="42" height="42" viewBox="0 0 42 42" fill="none" xmlns="http://www.w3.org/2000/svg">
<g clip-path="url(#clip0_372_1817)">
<path d="M19.9 19.5998V19.2998H19.6H17.15C17.1367 19.2998 17.124 19.2945 17.1146 19.2852C17.1053 19.2758 17.1 19.2631 17.1 19.2498V17.1498C17.1 17.1365 17.1053 17.1238 17.1146 17.1144C17.124 17.1051 17.1367 17.0998 17.15 17.0998H19.6H19.9V16.7998V14.3498C19.9 14.3365 19.9053 14.3238 19.9146 14.3144C19.924 14.3051 19.9367 14.2998 19.95 14.2998H22.05C22.0633 14.2998 22.076 14.3051 22.0854 14.3144C22.0947 14.3238 22.1 14.3365 22.1 14.3498V16.7998V17.0998H22.4H24.85C24.8633 17.0998 24.876 17.1051 24.8854 17.1144C24.8947 17.1238 24.9 17.1365 24.9 17.1498V19.2498C24.9 19.2631 24.8947 19.2758 24.8854 19.2852C24.876 19.2945 24.8633 19.2998 24.85 19.2998H22.4H22.1V19.5998V22.0498C22.1 22.0631 22.0947 22.0758 22.0854 22.0852C22.076 22.0945 22.0633 22.0998 22.05 22.0998H19.95C19.9367 22.0998 19.924 22.0945 19.9146 22.0852C19.9053 22.0758 19.9 22.0631 19.9 22.0498V19.5998ZM29.4 24.0998H29.7V23.7998V12.5998V12.2998H29.4H12.6H12.3V12.5998V23.7998V24.0998H12.6H29.4ZM31.371 10.6288C31.7084 10.9662 31.8986 11.4235 31.9 11.9007V26.2998H10.1V11.9003C10.1015 11.4232 10.2917 10.9661 10.629 10.6288C10.9663 10.2915 11.4234 10.1013 11.9005 10.0998H30.0995C30.5766 10.1013 31.0337 10.2915 31.371 10.6288ZM23.466 29.2427C23.7213 29.0012 23.8937 28.6785 23.9615 28.2998H34.3C34.4061 28.2998 34.5078 28.3419 34.5828 28.417C34.6579 28.492 34.7 28.5937 34.7 28.6998V29.3989C34.698 30.0616 34.4339 30.6966 33.9653 31.1651C33.4968 31.6337 32.8618 31.8978 32.1991 31.8998H9.80089C9.13821 31.8978 8.50324 31.6337 8.03466 31.1651C7.56617 30.6967 7.30207 30.0619 7.3 29.3993V28.6998C7.3 28.5937 7.34214 28.492 7.41716 28.417C7.49217 28.3419 7.59391 28.2998 7.7 28.2998H17.8969C17.9626 28.6089 18.1294 28.9075 18.3554 29.145C18.6588 29.4638 19.0946 29.6998 19.6 29.6998H22.26C22.7229 29.6998 23.1492 29.5425 23.466 29.2427Z" fill="#1C023B" stroke="white" stroke-width="0.6"/>
<rect x="11" y="11" width="20" height="14" fill="#1C023B"/>
<line x1="18" y1="18.25" x2="24.5" y2="18.25" stroke="white" stroke-width="1.5"/>
<line x1="21.25" y1="21.5" x2="21.25" y2="15" stroke="white" stroke-width="1.5"/>
</g>
<defs>
<clipPath id="clip0_372_1817">
<rect width="28" height="28" fill="white" transform="translate(7 7)"/>
</clipPath>
</defs>
</svg>
