<svg width="23" height="23" viewBox="0 0 23 23" fill="none" xmlns="http://www.w3.org/2000/svg">
<path d="M20.1259 16L21.451 19.9753C21.755 20.8873 20.8874 21.755 19.9753 21.451L16 20.1259" fill="#1C023B"/>
<path d="M20.1259 16L21.451 19.9753C21.755 20.8873 20.8874 21.755 19.9753 21.451L16 20.1259" stroke="#1C023B" stroke-width="1.5" stroke-linecap="round" stroke-linejoin="round"/>
<path d="M15.85 20.2833C15.85 20.2833 14.4322 21.3333 11.4167 21.3333C5.93984 21.3333 1.5 16.8935 1.5 11.4167C1.5 5.93984 5.93984 1.5 11.4167 1.5C16.8935 1.5 21.3333 5.93984 21.3333 11.4167C21.3333 14.3333 20.2833 15.85 20.2833 15.85" fill="#1C023B"/>
<path d="M15.85 20.2833C15.85 20.2833 14.4322 21.3333 11.4167 21.3333C5.93984 21.3333 1.5 16.8935 1.5 11.4167C1.5 5.93984 5.93984 1.5 11.4167 1.5C16.8935 1.5 21.3333 5.93984 21.3333 11.4167C21.3333 14.3333 20.2833 15.85 20.2833 15.85" stroke="#1C023B" stroke-width="1.5" stroke-linecap="round" stroke-linejoin="round"/>
<path d="M16.084 11.417H16.0957" stroke="white" stroke-width="2.2" stroke-linecap="round" stroke-linejoin="round"/>
<path d="M11.416 11.417H11.4277" stroke="white" stroke-width="2.2" stroke-linecap="round" stroke-linejoin="round"/>
<path d="M6.75 11.417H6.76167" stroke="white" stroke-width="2.2" stroke-linecap="round" stroke-linejoin="round"/>
</svg>
