<svg width="14" height="24" viewBox="0 0 14 24" fill="none" xmlns="http://www.w3.org/2000/svg">
<path d="M5.81259 14.6188V21.3517L6.75878 22.7705C6.96289 23.0765 7.41278 23.0765 7.61689 22.7705L8.56265 21.3517V14.6188C8.11619 14.7013 7.65771 14.7503 7.18762 14.7503C6.71753 14.7503 6.25905 14.7013 5.81259 14.6188ZM7.18762 1C3.77025 1 1 3.77025 1 7.18762C1 10.605 3.77025 13.3752 7.18762 13.3752C10.605 13.3752 13.3752 10.605 13.3752 7.18762C13.3752 3.77025 10.605 1 7.18762 1ZM7.18762 4.26569C5.57626 4.26569 4.26569 5.57626 4.26569 7.18762C4.26569 7.47208 4.03451 7.70326 3.75005 7.70326C3.46559 7.70326 3.23442 7.47208 3.23442 7.18762C3.23442 5.00777 5.0082 3.23442 7.18762 3.23442C7.47208 3.23442 7.70326 3.46559 7.70326 3.75005C7.70326 4.03451 7.47208 4.26569 7.18762 4.26569Z" stroke="#A0A0A0" stroke-width="1.2"/>
</svg>
