<svg width="39" height="48" viewBox="0 0 39 48" fill="none" xmlns="http://www.w3.org/2000/svg">
<path d="M12.0572 14.8201C12.3785 15.2299 12.6998 15.6397 13.0212 16.0465C13.0919 16.1349 13.1008 16.2204 13.0477 16.3206C12.9298 16.5447 12.8148 16.7687 12.7028 16.9957C12.408 17.5941 12.128 18.1985 11.8214 18.791C11.5796 19.2597 11.3821 19.7461 11.3232 20.262C11.2406 20.9842 11.2878 21.7094 11.559 22.3963C12.013 23.543 12.7529 24.4539 13.8348 25.0671C14.0588 25.1939 14.0529 25.1909 14.1974 24.9698C14.8665 23.9499 15.5357 22.9299 16.2108 21.9128C16.4319 21.5797 16.6559 21.2437 16.8741 20.9076L12.0572 14.8201Z" fill="#420789"/>
<path d="M18.3335 13.687C18.0063 12.9706 17.5817 12.2956 17.1779 11.6146C16.7416 10.8806 16.2758 10.1613 15.8248 9.43607C15.3856 8.72857 14.9463 8.02106 14.5071 7.31356C14.062 6.60016 13.6168 5.88677 13.1717 5.17042C12.8091 4.58378 12.4553 3.9942 12.0928 3.40756C11.6801 2.74133 11.2644 2.07805 10.8488 1.41476C10.5864 0.996159 10.327 0.577553 10.0587 0.147156C10.0175 0.170739 9.99978 0.176635 9.98799 0.191375C9.58708 0.701366 9.25983 1.25558 8.99746 1.84811C8.72626 2.45833 8.50516 3.08918 8.40788 3.75247C8.32239 4.33321 8.23102 4.9169 8.19564 5.50354C8.15437 6.14324 8.1809 6.78883 8.30176 7.42264C8.39904 7.92084 8.47864 8.42493 8.5936 8.92018C8.66435 9.22971 8.76166 9.53335 8.88253 9.82814C9.11541 10.4 9.35122 10.9719 9.62832 11.5232C9.97912 12.2189 10.4655 12.8262 10.9549 13.4335C11.3263 13.8933 11.6918 14.3591 12.0574 14.8219L16.8448 20.9595C17.2811 20.2874 17.7262 19.5563 18.0652 18.8252C18.3629 18.1855 18.5988 17.5281 18.7314 16.8265C18.9378 15.7269 18.7874 14.6775 18.3335 13.687Z" fill="#A884D2"/>
<path d="M30.1669 4.99968C30.1463 4.58402 30.0903 4.22143 30.0166 3.80577C30.0048 3.74387 29.9901 3.68196 29.9783 3.6171C29.9429 3.4078 29.8751 3.14249 29.8161 2.94203C29.5951 2.208 29.312 1.49755 28.9082 0.840159C28.7372 0.563054 28.5427 0.29774 28.3422 0C27.9354 0.648544 27.5551 1.24402 27.1807 1.8454C26.7238 2.57944 26.2757 3.31936 25.8217 4.05635C25.4591 4.64298 25.0936 5.22962 24.731 5.81626C24.2947 6.52081 23.8584 7.22537 23.4192 7.92697C23.0124 8.57846 22.5879 9.22111 22.1958 9.88144L25.2911 16.1841C25.2793 16.1193 25.2911 16.0544 25.3501 15.9837C25.5918 15.6918 25.8158 15.3882 26.0487 15.0904C26.6589 14.3151 27.2721 13.5398 27.8823 12.7645C28.3717 12.1396 28.7814 11.4615 29.0968 10.7363C29.3238 10.2146 29.5479 9.68394 29.7012 9.13562C29.8692 8.53719 29.9518 7.91518 30.0726 7.30201C30.223 6.54145 30.2053 5.76909 30.1669 4.99968Z" fill="#420789"/>
<g opacity="0.55" filter="url(#filter0_d_3_1278)">
<path d="M25.2547 16.1383L25.7607 15.441L22.1978 9.88574L25.2547 16.1383Z" fill="#121212" fill-opacity="0.8" shape-rendering="crispEdges"/>
</g>
<path d="M26.2609 18.2543C26.146 18.0155 26.0576 17.7649 25.9426 17.5261C25.7421 17.1075 25.5328 16.6978 25.3264 16.2821C25.3117 16.2497 25.2999 16.2202 25.294 16.1907L22.1987 9.88807C22.5908 9.22773 23.0153 8.58803 23.4221 7.93359C22.977 8.64699 22.5083 9.34565 22.0867 10.0738C21.5944 10.9257 21.1287 11.7924 20.6717 12.6621C20.1942 13.573 19.8316 14.5281 19.6282 15.5451C19.3982 16.7037 19.5781 17.7915 20.15 18.7938C20.6481 19.6634 21.2259 20.4859 21.7742 21.326C22.2577 22.0659 22.75 22.797 23.2364 23.5311C23.5931 24.0705 23.9527 24.613 24.3153 25.1613C24.4686 25.0699 24.6131 24.9932 24.7457 24.9019C24.8961 24.8016 25.0464 24.6955 25.185 24.5776C26.3228 23.6077 27.0215 22.4197 27.0628 20.8868C27.0805 20.1822 26.8829 19.5396 26.6117 18.8969C26.4997 18.6817 26.3671 18.4724 26.2609 18.2543Z" fill="#A884D2"/>
<path opacity="0.3" d="M16.8227 20.9198L13.0995 16.1943L12.7517 16.9077L16.8227 20.9198Z" fill="#121212" fill-opacity="0.8"/>
<path d="M0.614289 39.5495C0.614289 38.0138 1.02996 36.7914 1.8613 35.8822C2.69263 34.9731 3.81883 34.5185 5.23989 34.5185C6.56266 34.5185 7.62743 34.9628 8.43419 35.8515C9.24096 36.7402 9.64434 37.8971 9.64434 39.3222C9.64434 40.8661 9.23072 42.0906 8.40348 42.9957C8.20691 43.2086 7.996 43.397 7.77076 43.5608L10.4429 45.4774H8.42191L6.6159 44.1383C6.14904 44.2816 5.63918 44.3533 5.08632 44.3533C3.73488 44.3533 2.65168 43.9089 1.83673 43.0202C1.02177 42.1316 0.614289 40.9747 0.614289 39.5495ZM1.9043 39.4512C1.9043 40.602 2.19711 41.5255 2.78273 42.2217C3.37245 42.9138 4.14031 43.2598 5.08632 43.2598C6.10194 43.2598 6.89847 42.9281 7.4759 42.2647C8.05743 41.5971 8.34819 40.6655 8.34819 39.4697C8.34819 38.2411 8.06357 37.293 7.49433 36.6255C6.92918 35.958 6.15313 35.6242 5.16617 35.6242C4.1956 35.6242 3.40931 35.9764 2.8073 36.6808C2.2053 37.3852 1.9043 38.3087 1.9043 39.4512ZM16.807 37.3995L14.1164 44.1935H12.9001L10.3446 37.3995H11.6592L13.3178 42.2524C13.4529 42.6414 13.5328 42.967 13.5574 43.2291H13.5881C13.629 42.8851 13.7007 42.5677 13.8031 42.277L15.5415 37.3995H16.807ZM17.796 35.0038C17.796 34.7908 17.8676 34.6127 18.011 34.4693C18.1584 34.3219 18.3386 34.2482 18.5515 34.2482C18.7686 34.2482 18.9508 34.3199 19.0983 34.4632C19.2498 34.6065 19.3255 34.7867 19.3255 35.0038C19.3255 35.2167 19.2498 35.3949 19.0983 35.5382C18.9508 35.6774 18.7686 35.7471 18.5515 35.7471C18.3345 35.7471 18.1543 35.6774 18.011 35.5382C17.8676 35.3949 17.796 35.2167 17.796 35.0038ZM17.9372 44.1935V37.3995H19.1413V44.1935H17.9372ZM22.5014 43.2353V47.3203H21.2974V37.3995H22.5014V38.5728H22.526C23.0584 37.6841 23.8365 37.2398 24.8603 37.2398C25.7285 37.2398 26.4083 37.5449 26.8997 38.1551C27.3953 38.7612 27.643 39.5761 27.643 40.5999C27.643 41.7302 27.3625 42.6394 26.8014 43.3274C26.2445 44.0113 25.493 44.3533 24.547 44.3533C23.6747 44.3533 23.001 43.9806 22.526 43.2353H22.5014ZM22.4953 41.3924C22.4953 41.9452 22.6734 42.4121 23.0297 42.793C23.386 43.1697 23.8324 43.3581 24.3689 43.3581C25.0077 43.3581 25.5073 43.1124 25.8677 42.621C26.2281 42.1295 26.4083 41.4497 26.4083 40.5815C26.4083 39.8485 26.2404 39.2751 25.9046 38.8615C25.5688 38.4438 25.1101 38.2349 24.5286 38.2349C23.9348 38.2349 23.4474 38.4458 23.0666 38.8677C22.6857 39.2895 22.4953 39.83 22.4953 40.4894V41.3924ZM29.3262 44.1935V34.1376H30.5302V44.1935H29.3262ZM38.2211 41.1037H33.4665C33.487 41.8285 33.6856 42.3896 34.0623 42.7868C34.4391 43.18 34.9653 43.3765 35.6411 43.3765C36.4028 43.3765 37.101 43.1329 37.7358 42.6455V43.7205C37.1379 44.1424 36.3455 44.3533 35.3585 44.3533C34.3756 44.3533 33.6078 44.042 33.0549 43.4195C32.5061 42.7971 32.2318 41.933 32.2318 40.8272C32.2318 39.787 32.5328 38.9291 33.1348 38.2534C33.7409 37.5776 34.4923 37.2398 35.3892 37.2398C36.2779 37.2398 36.972 37.5265 37.4716 38.0998C37.9713 38.669 38.2211 39.4676 38.2211 40.4955V41.1037ZM37.0171 40.1392C37.013 39.5249 36.8676 39.0499 36.5809 38.7141C36.2943 38.3783 35.8909 38.2104 35.3708 38.2104C34.8916 38.2104 34.476 38.3885 34.1238 38.7448C33.7757 39.1011 33.5566 39.5659 33.4665 40.1392H37.0171Z" fill="#420789"/>
<defs>
<filter id="filter0_d_3_1278" x="15.5893" y="9.88574" width="16.78" height="19.4696" filterUnits="userSpaceOnUse" color-interpolation-filters="sRGB">
<feFlood flood-opacity="0" result="BackgroundImageFix"/>
<feColorMatrix in="SourceAlpha" type="matrix" values="0 0 0 0 0 0 0 0 0 0 0 0 0 0 0 0 0 0 127 0" result="hardAlpha"/>
<feOffset dy="6.6085"/>
<feGaussianBlur stdDeviation="3.30425"/>
<feComposite in2="hardAlpha" operator="out"/>
<feColorMatrix type="matrix" values="0 0 0 0 0 0 0 0 0 0 0 0 0 0 0 0 0 0 0.25 0"/>
<feBlend mode="normal" in2="BackgroundImageFix" result="effect1_dropShadow_3_1278"/>
<feBlend mode="normal" in="SourceGraphic" in2="effect1_dropShadow_3_1278" result="shape"/>
</filter>
</defs>
</svg>
