<svg width="71" height="27" viewBox="0 0 71 27" fill="none" xmlns="http://www.w3.org/2000/svg">
<rect width="71" height="27" rx="4" fill="#20B038"/>
<path d="M21.1186 19V8.81818H24.7479C25.54 8.81818 26.1963 8.96236 26.7166 9.25071C27.237 9.53906 27.6264 9.93347 27.8849 10.4339C28.1435 10.9311 28.2727 11.4912 28.2727 12.1143C28.2727 12.7408 28.1418 13.3042 27.88 13.8047C27.6214 14.3018 27.2304 14.6963 26.7067 14.9879C26.1863 15.2763 25.5317 15.4205 24.7429 15.4205H22.2472V14.1179H24.6037C25.1042 14.1179 25.5102 14.0317 25.8217 13.8594C26.1333 13.6837 26.362 13.4451 26.5078 13.1435C26.6536 12.8419 26.7266 12.4988 26.7266 12.1143C26.7266 11.7299 26.6536 11.3885 26.5078 11.0902C26.362 10.7919 26.1316 10.5582 25.8168 10.3892C25.5052 10.2202 25.0942 10.1357 24.5838 10.1357H22.6548V19H21.1186ZM33.0753 19.1541C32.3594 19.1541 31.7346 18.9901 31.201 18.6619C30.6674 18.3338 30.2531 17.8748 29.9581 17.2848C29.6631 16.6948 29.5156 16.0054 29.5156 15.2166C29.5156 14.4245 29.6631 13.7318 29.9581 13.1385C30.2531 12.5452 30.6674 12.0845 31.201 11.7564C31.7346 11.4283 32.3594 11.2642 33.0753 11.2642C33.7912 11.2642 34.416 11.4283 34.9496 11.7564C35.4832 12.0845 35.8975 12.5452 36.1925 13.1385C36.4875 13.7318 36.6349 14.4245 36.6349 15.2166C36.6349 16.0054 36.4875 16.6948 36.1925 17.2848C35.8975 17.8748 35.4832 18.3338 34.9496 18.6619C34.416 18.9901 33.7912 19.1541 33.0753 19.1541ZM33.0803 17.9062C33.5443 17.9062 33.9287 17.7836 34.2337 17.5384C34.5386 17.2931 34.764 16.9666 34.9098 16.5589C35.0589 16.1513 35.1335 15.7022 35.1335 15.2116C35.1335 14.7244 35.0589 14.277 34.9098 13.8693C34.764 13.4583 34.5386 13.1286 34.2337 12.88C33.9287 12.6314 33.5443 12.5071 33.0803 12.5071C32.6129 12.5071 32.2251 12.6314 31.9169 12.88C31.612 13.1286 31.3849 13.4583 31.2358 13.8693C31.09 14.277 31.017 14.7244 31.017 15.2116C31.017 15.7022 31.09 16.1513 31.2358 16.5589C31.3849 16.9666 31.612 17.2931 31.9169 17.5384C32.2251 17.7836 32.6129 17.9062 33.0803 17.9062ZM44.0165 13.228L42.6692 13.4666C42.6129 13.2943 42.5234 13.1302 42.4007 12.9744C42.2814 12.8187 42.119 12.6911 41.9135 12.5916C41.708 12.4922 41.4512 12.4425 41.1429 12.4425C40.722 12.4425 40.3707 12.5369 40.089 12.7259C39.8072 12.9115 39.6664 13.1518 39.6664 13.4467C39.6664 13.7019 39.7608 13.9074 39.9498 14.0632C40.1387 14.219 40.4436 14.3466 40.8645 14.446L42.0776 14.7244C42.7802 14.8868 43.3039 15.1371 43.6486 15.4751C43.9933 15.8132 44.1657 16.2524 44.1657 16.7926C44.1657 17.25 44.0331 17.6577 43.7679 18.0156C43.5061 18.3703 43.1399 18.6487 42.6692 18.8509C42.2019 19.053 41.66 19.1541 41.0435 19.1541C40.1884 19.1541 39.4907 18.9718 38.9505 18.6072C38.4102 18.2393 38.0788 17.7173 37.9561 17.0412L39.3929 16.8224C39.4824 17.197 39.6664 17.4804 39.9448 17.6726C40.2232 17.8615 40.5861 17.956 41.0336 17.956C41.5208 17.956 41.9102 17.8549 42.2019 17.6527C42.4935 17.4472 42.6394 17.197 42.6394 16.902C42.6394 16.6634 42.5499 16.4628 42.3709 16.3004C42.1953 16.138 41.9251 16.0154 41.5605 15.9325L40.2679 15.6491C39.5553 15.4867 39.0283 15.2282 38.687 14.8736C38.3489 14.5189 38.1799 14.0698 38.1799 13.5263C38.1799 13.0755 38.3058 12.6811 38.5577 12.343C38.8096 12.005 39.1576 11.7415 39.6017 11.5526C40.0459 11.3603 40.5546 11.2642 41.128 11.2642C41.9533 11.2642 42.6029 11.4432 43.0769 11.8011C43.5508 12.1558 43.8641 12.6314 44.0165 13.228ZM49.3647 11.3636V12.5568H45.1935V11.3636H49.3647ZM46.3121 9.53409H47.7987V16.7578C47.7987 17.0462 47.8417 17.2633 47.9279 17.4091C48.0141 17.5516 48.1251 17.6494 48.261 17.7024C48.4002 17.7521 48.551 17.777 48.7134 17.777C48.8327 17.777 48.9371 17.7687 49.0266 17.7521C49.1161 17.7356 49.1857 17.7223 49.2354 17.7124L49.5039 18.9403C49.4177 18.9735 49.2951 19.0066 49.136 19.0398C48.9769 19.0762 48.7781 19.0961 48.5394 19.0994C48.1483 19.1061 47.7837 19.0365 47.4457 18.8906C47.1076 18.7448 46.8342 18.5194 46.6254 18.2145C46.4165 17.9096 46.3121 17.5268 46.3121 17.0661V9.53409Z" fill="white"/>
</svg>
