<svg width="16" height="16" viewBox="0 0 16 16" fill="none" xmlns="http://www.w3.org/2000/svg">
<path d="M13.5437 2.45607L13.6498 2.56213L13.7558 2.45607L15.8498 0.362131V6.85H9.3619L12.3258 3.88607L12.4314 3.78049L12.3263 3.67442C11.2203 2.55817 9.70275 1.85 7.99977 1.85C4.60692 1.85 1.84977 4.60716 1.84977 8C1.84977 11.3928 4.60692 14.15 7.99977 14.15C10.6378 14.15 12.8868 12.4857 13.755 10.15H15.5337C14.5976 13.4404 11.5913 15.85 7.99977 15.85C3.66285 15.85 0.159766 12.3374 0.159766 8C0.159766 3.6626 3.66285 0.15 7.99977 0.15C10.1679 0.15 12.1204 1.03272 13.5437 2.45607Z" fill="#121212" stroke="#1C023B" stroke-width="0.3"/>
</svg>
