<svg width="22" height="25" viewBox="0 0 22 25" fill="none" xmlns="http://www.w3.org/2000/svg">
<path d="M10.7143 25L7.14286 21.4286H1.78571C1.30952 21.4286 0.892857 21.245 0.535714 20.878C0.178571 20.5109 0 20.0992 0 19.6429V1.78571C0 1.30952 0.178571 0.892857 0.535714 0.535714C0.892857 0.178571 1.30952 0 1.78571 0H19.6429C20.0992 0 20.5109 0.178571 20.878 0.535714C21.245 0.892857 21.4286 1.30952 21.4286 1.78571V19.6429C21.4286 20.0992 21.245 20.5109 20.878 20.878C20.5109 21.245 20.0992 21.4286 19.6429 21.4286H14.2857L10.7143 25ZM11.3393 12.9167C11.3393 12.3016 11.4385 11.8006 11.6369 11.4137C11.8353 11.0268 12.1825 10.5853 12.6786 10.0893C13.3333 9.43452 13.7897 8.85417 14.0476 8.34821C14.3056 7.84226 14.4345 7.31151 14.4345 6.75595C14.4345 5.70437 14.0972 4.87103 13.4226 4.25595C12.748 3.64087 11.8353 3.33333 10.6845 3.33333C9.67262 3.33333 8.80456 3.57639 8.08036 4.0625C7.35615 4.54861 6.8254 5.21825 6.48809 6.07143L8.06548 6.72619C8.34325 6.17063 8.7004 5.74901 9.1369 5.46131C9.57341 5.17361 10.0893 5.02976 10.6845 5.02976C11.3194 5.02976 11.8204 5.18849 12.1875 5.50595C12.5546 5.82341 12.7381 6.25992 12.7381 6.81548C12.7381 7.2123 12.629 7.59425 12.4107 7.96131C12.1925 8.32837 11.8254 8.75992 11.3095 9.25595C10.5754 9.9504 10.1141 10.5456 9.92559 11.0417C9.7371 11.5377 9.64286 12.1627 9.64286 12.9167H11.3393ZM10.625 17.3214C10.9425 17.3214 11.2103 17.2123 11.4286 16.994C11.6468 16.7758 11.756 16.5079 11.756 16.1905C11.756 15.873 11.6468 15.6052 11.4286 15.3869C11.2103 15.1687 10.9425 15.0595 10.625 15.0595C10.3075 15.0595 10.0397 15.1687 9.82143 15.3869C9.60317 15.6052 9.49405 15.873 9.49405 16.1905C9.49405 16.5079 9.60317 16.7758 9.82143 16.994C10.0397 17.2123 10.3075 17.3214 10.625 17.3214Z" fill="#001A72"/>
</svg>
