<svg width="98" height="24" viewBox="0 0 98 24" fill="none" xmlns="http://www.w3.org/2000/svg">
<path d="M43.1186 16.9375V6.75568H46.7479C47.5367 6.75568 48.1913 6.89157 48.7116 7.16335C49.2353 7.43513 49.6264 7.81132 49.8849 8.2919C50.1435 8.76918 50.2727 9.32102 50.2727 9.94744C50.2727 10.5705 50.1418 11.1191 49.88 11.593C49.6214 12.0637 49.2304 12.4299 48.7067 12.6918C48.1863 12.9536 47.5317 13.0845 46.7429 13.0845H43.9936V11.7621H46.6037C47.1009 11.7621 47.5052 11.6908 47.8168 11.5483C48.1316 11.4058 48.362 11.1986 48.5078 10.9268C48.6536 10.6551 48.7266 10.3286 48.7266 9.94744C48.7266 9.56297 48.652 9.22988 48.5028 8.94815C48.357 8.66643 48.1267 8.45099 47.8118 8.30185C47.5002 8.14938 47.0909 8.07315 46.5838 8.07315H44.6548V16.9375H43.1186ZM48.1449 12.3438L50.6605 16.9375H48.9105L46.4446 12.3438H48.1449ZM55.2182 17.0916C54.4658 17.0916 53.8179 16.9309 53.2743 16.6094C52.7341 16.2846 52.3165 15.8288 52.0215 15.2422C51.7298 14.6522 51.584 13.9612 51.584 13.169C51.584 12.3868 51.7298 11.6974 52.0215 11.1009C52.3165 10.5043 52.7275 10.0386 53.2544 9.70383C53.7847 9.36908 54.4045 9.2017 55.1138 9.2017C55.5447 9.2017 55.9623 9.27296 56.3667 9.41548C56.771 9.558 57.1339 9.78172 57.4554 10.0866C57.7769 10.3916 58.0305 10.7876 58.2161 11.2749C58.4017 11.7588 58.4945 12.3471 58.4945 13.0398V13.5668H52.4242V12.4531H57.0378C57.0378 12.062 56.9583 11.7157 56.7992 11.4141C56.6401 11.1091 56.4164 10.8688 56.128 10.6932C55.843 10.5175 55.5082 10.4297 55.1238 10.4297C54.7061 10.4297 54.3416 10.5324 54.03 10.7379C53.7218 10.9401 53.4831 11.2053 53.3141 11.5334C53.1484 11.8582 53.0655 12.2112 53.0655 12.5923V13.4624C53.0655 13.9728 53.155 14.407 53.334 14.7649C53.5163 15.1229 53.7698 15.3963 54.0946 15.5852C54.4194 15.7708 54.7989 15.8636 55.2331 15.8636C55.5149 15.8636 55.7717 15.8239 56.0037 15.7443C56.2357 15.6615 56.4363 15.5388 56.6053 15.3764C56.7743 15.214 56.9036 15.0135 56.9931 14.7749L58.4 15.0284C58.2873 15.4427 58.0852 15.8056 57.7935 16.1172C57.5051 16.4254 57.1422 16.6657 56.7047 16.8381C56.2705 17.0071 55.775 17.0916 55.2182 17.0916ZM65.2994 19.8011V15.7493H65.2099C65.1204 15.9117 64.9911 16.0973 64.8221 16.3061C64.6564 16.5149 64.4277 16.6972 64.136 16.853C63.8443 17.0088 63.4665 17.0866 63.0025 17.0866C62.386 17.0866 61.8358 16.9292 61.3519 16.6143C60.8713 16.2962 60.4935 15.8437 60.2184 15.2571C59.9466 14.6671 59.8107 13.9595 59.8107 13.1342C59.8107 12.3089 59.9483 11.603 60.2234 11.0163C60.5018 10.4297 60.8829 9.98059 61.3668 9.66903C61.8507 9.35748 62.3993 9.2017 63.0124 9.2017C63.4864 9.2017 63.8675 9.28125 64.1559 9.44034C64.4476 9.59612 64.6729 9.77841 64.832 9.98722C64.9944 10.196 65.1204 10.38 65.2099 10.5391H65.3342V9.30114H66.7859V19.8011H65.2994ZM63.3306 15.8189C63.7582 15.8189 64.1194 15.7062 64.4144 15.4808C64.7127 15.2521 64.9381 14.9356 65.0906 14.5312C65.2463 14.1269 65.3242 13.6562 65.3242 13.1193C65.3242 12.589 65.248 12.125 65.0955 11.7273C64.9431 11.3295 64.7193 11.0196 64.4244 10.7976C64.1294 10.5755 63.7648 10.4645 63.3306 10.4645C62.8832 10.4645 62.5103 10.5805 62.212 10.8125C61.9137 11.0445 61.6883 11.361 61.5359 11.7621C61.3867 12.1631 61.3121 12.6155 61.3121 13.1193C61.3121 13.6297 61.3884 14.0888 61.5408 14.4964C61.6933 14.9041 61.9187 15.2273 62.217 15.4659C62.5186 15.7012 62.8898 15.8189 63.3306 15.8189ZM73.6218 13.7706V9.30114H75.1133V16.9375H73.6516V15.6151H73.5721C73.3964 16.0227 73.1147 16.3625 72.7269 16.6342C72.3424 16.9027 71.8635 17.0369 71.2901 17.0369C70.7996 17.0369 70.3654 16.9292 69.9876 16.7138C69.613 16.495 69.3181 16.1719 69.1026 15.7443C68.8905 15.3168 68.7844 14.7881 68.7844 14.1584V9.30114H70.271V13.9794C70.271 14.4998 70.4151 14.9141 70.7035 15.2223C70.9918 15.5305 71.3664 15.6847 71.8271 15.6847C72.1055 15.6847 72.3822 15.6151 72.6573 15.4759C72.9357 15.3366 73.1661 15.1262 73.3484 14.8445C73.534 14.5627 73.6251 14.2048 73.6218 13.7706ZM80.4018 17.0916C79.6494 17.0916 79.0015 16.9309 78.4579 16.6094C77.9177 16.2846 77.5001 15.8288 77.2051 15.2422C76.9134 14.6522 76.7676 13.9612 76.7676 13.169C76.7676 12.3868 76.9134 11.6974 77.2051 11.1009C77.5001 10.5043 77.911 10.0386 78.438 9.70383C78.9683 9.36908 79.5881 9.2017 80.2974 9.2017C80.7283 9.2017 81.1459 9.27296 81.5502 9.41548C81.9546 9.558 82.3175 9.78172 82.639 10.0866C82.9605 10.3916 83.2141 10.7876 83.3997 11.2749C83.5853 11.7588 83.6781 12.3471 83.6781 13.0398V13.5668H77.6078V12.4531H82.2214C82.2214 12.062 82.1419 11.7157 81.9828 11.4141C81.8237 11.1091 81.6 10.8688 81.3116 10.6932C81.0266 10.5175 80.6918 10.4297 80.3074 10.4297C79.8897 10.4297 79.5252 10.5324 79.2136 10.7379C78.9054 10.9401 78.6667 11.2053 78.4977 11.5334C78.332 11.8582 78.2491 12.2112 78.2491 12.5923V13.4624C78.2491 13.9728 78.3386 14.407 78.5176 14.7649C78.6999 15.1229 78.9534 15.3963 79.2782 15.5852C79.603 15.7708 79.9825 15.8636 80.4167 15.8636C80.6984 15.8636 80.9553 15.8239 81.1873 15.7443C81.4193 15.6615 81.6199 15.5388 81.7889 15.3764C81.9579 15.214 82.0872 15.0135 82.1767 14.7749L83.5836 15.0284C83.4709 15.4427 83.2688 15.8056 82.9771 16.1172C82.6887 16.4254 82.3258 16.6657 81.8883 16.8381C81.4541 17.0071 80.9586 17.0916 80.4018 17.0916ZM91.0497 11.1655L89.7024 11.4041C89.6461 11.2318 89.5566 11.0677 89.4339 10.9119C89.3146 10.7562 89.1522 10.6286 88.9467 10.5291C88.7412 10.4297 88.4844 10.38 88.1761 10.38C87.7552 10.38 87.4039 10.4744 87.1222 10.6634C86.8404 10.849 86.6996 11.0893 86.6996 11.3842C86.6996 11.6394 86.794 11.8449 86.983 12.0007C87.1719 12.1565 87.4768 12.2841 87.8977 12.3835L89.1108 12.6619C89.8134 12.8243 90.3371 13.0746 90.6818 13.4126C91.0265 13.7507 91.1989 14.1899 91.1989 14.7301C91.1989 15.1875 91.0663 15.5952 90.8011 15.9531C90.5393 16.3078 90.1731 16.5862 89.7024 16.7884C89.2351 16.9905 88.6932 17.0916 88.0767 17.0916C87.2216 17.0916 86.5239 16.9093 85.9837 16.5447C85.4434 16.1768 85.112 15.6548 84.9893 14.9787L86.4261 14.7599C86.5156 15.1345 86.6996 15.4179 86.978 15.6101C87.2564 15.799 87.6193 15.8935 88.0668 15.8935C88.554 15.8935 88.9434 15.7924 89.2351 15.5902C89.5268 15.3847 89.6726 15.1345 89.6726 14.8395C89.6726 14.6009 89.5831 14.4003 89.4041 14.2379C89.2285 14.0755 88.9583 13.9529 88.5938 13.87L87.3011 13.5866C86.5885 13.4242 86.0616 13.1657 85.7202 12.8111C85.3821 12.4564 85.2131 12.0073 85.2131 11.4638C85.2131 11.013 85.339 10.6186 85.5909 10.2805C85.8428 9.94247 86.1908 9.67898 86.6349 9.49006C87.0791 9.29782 87.5878 9.2017 88.1612 9.2017C88.9865 9.2017 89.6361 9.38068 90.1101 9.73864C90.584 10.0933 90.8973 10.5689 91.0497 11.1655ZM96.3979 9.30114V10.4943H92.2267V9.30114H96.3979ZM93.3453 7.47159H94.8319V14.6953C94.8319 14.9837 94.8749 15.2008 94.9611 15.3466C95.0473 15.4891 95.1583 15.5869 95.2942 15.6399C95.4334 15.6896 95.5842 15.7145 95.7466 15.7145C95.8659 15.7145 95.9703 15.7062 96.0598 15.6896C96.1493 15.6731 96.2189 15.6598 96.2686 15.6499L96.5371 16.8778C96.4509 16.911 96.3283 16.9441 96.1692 16.9773C96.0101 17.0137 95.8113 17.0336 95.5726 17.0369C95.1815 17.0436 94.8169 16.974 94.4789 16.8281C94.1408 16.6823 93.8674 16.4569 93.6586 16.152C93.4498 15.8471 93.3453 15.4643 93.3453 15.0036V7.47159Z" fill="#121212" fill-opacity="0.8"/>
<path d="M13.75 10.19L14.38 10.32L18.55 12.4C19.25 12.63 19.71 13.32 19.65 14.06V14.19V14.32L18.75 20.44C18.69 20.87 18.5 21.27 18.15 21.55C17.84 21.85 17.43 22 17 22H10.12C9.62999 22 9.17999 21.82 8.84999 21.47L2.85999 15.5L3.75999 14.5C3.99999 14.25 4.37999 14.11 4.73999 14.13H5.02999L8.99999 15V4.5C8.99999 3.96957 9.2107 3.46086 9.58577 3.08579C9.96085 2.71071 10.4696 2.5 11 2.5C11.5304 2.5 12.0391 2.71071 12.4142 3.08579C12.7893 3.46086 13 3.96957 13 4.5V10.19H13.75Z" fill="#121212" fill-opacity="0.8"/>
</svg>
