<svg width="72" height="73" viewBox="0 0 72 73" fill="none" xmlns="http://www.w3.org/2000/svg">
<path fill-rule="evenodd" clip-rule="evenodd" d="M20.3271 0.239008C16.6107 1.23694 14.4084 5.06597 15.4083 8.78901C16.4082 12.5131 20.2326 14.7228 23.9487 13.7259C27.6652 12.728 29.8675 8.89894 28.8676 5.17487C27.8687 1.45079 24.0432 -0.758963 20.3271 0.23888V0.239008Z" fill="#010D31" fill-opacity="0.8"/>
<path d="M24.9404 37.0658C19.8241 58.0101 20.3097 48.4258 21.7909 69.5468C22.5789 73.2825 28.6072 72.5111 28.5454 68.8769L27.6795 56.519C27.6062 55.4678 27.5916 54.7862 27.8397 53.7687L29.1415 48.441L29.241 53.0937C29.3153 53.9354 29.462 54.9093 30.5362 55.4959L45.5945 62.7607C49.541 63.8887 51.9703 58.892 48.5316 56.631L37.1058 51.1195C35.9602 50.5399 35.9652 49.5777 35.919 48.4878L35.6945 37.7254L31.3437 21.276C40.0046 22.187 36.6884 20.93 46.0638 27.9904C48.7609 30.0405 52.5646 26.434 49.8853 23.5626C38.4646 14.7645 41.9194 16.669 28.5592 14.6902C28.5497 14.7133 22.7619 15.7343 20.4913 16.8493C12.0965 27.9757 16.5367 25.0929 4.38648 30.4316C1.27866 31.7795 2.56193 36.8622 6.37883 35.931C19.6397 30.2754 15.7932 34.2519 22.0478 25.9622L24.9407 37.0655L24.9404 37.0658Z" fill="#010D31" fill-opacity="0.8"/>
<path fill-rule="evenodd" clip-rule="evenodd" d="M7.69376 54.8087C3.84613 54.8087 0.72583 57.9356 0.72583 61.7908C0.72583 65.6469 3.84626 68.7738 7.69376 68.7738C11.5424 68.7738 14.6627 65.6469 14.6627 61.7908C14.6627 57.9357 11.5423 54.8087 7.69376 54.8087Z" fill="#010D31" fill-opacity="0.8"/>
<path d="M57.807 30.951C56.0451 30.951 56.0451 27.5488 57.807 27.5488H69.953C71.7158 27.5488 71.7158 30.951 69.953 30.951H57.807Z" fill="#010D31" fill-opacity="0.8"/>
<path d="M55.6818 22.4575C53.9189 22.4575 53.9189 19.0554 55.6818 19.0554H67.8278C69.5896 19.0554 69.5896 22.4575 67.8278 22.4575H55.6818Z" fill="#010D31" fill-opacity="0.8"/>
<path d="M55.6818 39.231C53.9189 39.231 53.9189 35.8289 55.6818 35.8289H67.8278C69.5896 35.8289 69.5896 39.231 67.8278 39.231H55.6818Z" fill="#010D31" fill-opacity="0.8"/>
</svg>
