<svg width="48" height="48" viewBox="0 0 48 48" fill="none" xmlns="http://www.w3.org/2000/svg">
<rect width="48" height="48" rx="24" fill="#4B1A85" fill-opacity="0.1"/>
<path d="M32.0167 16.5094V22.1H31.15V17V16.7568L30.9327 16.8659L28.471 18.1026L28.3654 18.1557L28.3922 18.2707C28.4715 18.6105 28.5167 18.9607 28.5167 19.3333C28.5167 21.8288 26.4955 23.85 24 23.85C21.5045 23.85 19.4833 21.8288 19.4833 19.3333C19.4833 18.9607 19.5284 18.6105 19.6077 18.2707L19.6346 18.1556L19.5289 18.1026L16.1683 16.4169L24 12.501L32.0167 16.5094ZM21.7337 19.1991L21.5167 19.0906V19.3333C21.5167 20.6995 22.6338 21.8166 24 21.8166C25.3662 21.8166 26.4833 20.6995 26.4833 19.3333V19.0906L26.2662 19.1991L24 20.3323L21.7337 19.1991ZM27.2766 16.4569L27.5383 16.3231L27.2764 16.1897L24.2548 14.6497L24.1867 14.615L24.1186 14.6496L20.9802 16.248L20.7174 16.3819L20.9804 16.5154L24.0138 18.0554L24.0819 18.09L24.1499 18.0552L27.2766 16.4569ZM16.7333 31.1166V31.2666H16.8833H31.1167H31.2667V31.1166V29.8333C31.2667 29.6828 31.178 29.539 31.0643 29.4131C30.9463 29.2824 30.779 29.1468 30.5752 29.0107C30.1668 28.7381 29.5913 28.4505 28.9117 28.1884C27.5523 27.6641 25.7547 27.2333 24 27.2333C22.2279 27.2333 20.4302 27.664 19.075 28.1884C18.3975 28.4506 17.8252 28.7382 17.4194 29.011C17.217 29.1471 17.051 29.2828 16.9338 29.4136C16.8209 29.5396 16.7333 29.6833 16.7333 29.8333V31.1166ZM24 25.3166C25.5389 25.3166 27.8533 25.7011 29.7791 26.4711C30.7419 26.8561 31.5981 27.3338 32.2113 27.9002C32.8233 28.4656 33.1833 29.1095 33.1833 29.8333V33.1833H14.8167V29.8333C14.8167 29.1095 15.1767 28.4656 15.7887 27.9002C16.4019 27.3338 17.2581 26.8561 18.2209 26.4711C20.1467 25.7011 22.4611 25.3166 24 25.3166Z" fill="#1C023B" stroke="#EDE8F3" stroke-width="0.3"/>
</svg>
