<svg width="23" height="16" viewBox="0 0 23 16" fill="none" xmlns="http://www.w3.org/2000/svg">
<path d="M14.7904 10C12.1257 10 6.80636 11.33 6.80636 14V16H22.7744V14C22.7744 11.33 17.455 10 14.7904 10ZM5.80836 6V3H3.81236V6H0.818359V8H3.81236V11H5.80836V8H8.80236V6H5.80836ZM14.7904 8C15.8491 8 16.8645 7.57857 17.6131 6.82843C18.3618 6.07828 18.7824 5.06087 18.7824 4C18.7824 2.93913 18.3618 1.92172 17.6131 1.17157C16.8645 0.421427 15.8491 0 14.7904 0C13.7316 0 12.7162 0.421427 11.9676 1.17157C11.2189 1.92172 10.7984 2.93913 10.7984 4C10.7984 5.06087 11.2189 6.07828 11.9676 6.82843C12.7162 7.57857 13.7316 8 14.7904 8Z" fill="#121212" fill-opacity="0.6"/>
</svg>
