<svg width="22" height="22" viewBox="0 0 22 22" fill="none" xmlns="http://www.w3.org/2000/svg">
<path d="M11.0003 21.8332C9.57767 21.8332 8.16895 21.553 6.85459 21.0085C5.54023 20.4641 4.34597 19.6661 3.34 18.6602C1.30836 16.6285 0.166992 13.873 0.166992 10.9998C0.166992 8.12666 1.30836 5.37116 3.34 3.33951C5.37165 1.30787 8.12715 0.166504 11.0003 0.166504C12.423 0.166504 13.8317 0.446716 15.1461 0.991142C16.4604 1.53557 17.6547 2.33355 18.6606 3.33951C19.6666 4.34548 20.4646 5.53974 21.009 6.8541C21.5534 8.16846 21.8337 9.57718 21.8337 10.9998C21.8337 13.873 20.6923 16.6285 18.6606 18.6602C16.629 20.6918 13.8735 21.8332 11.0003 21.8332V21.8332ZM11.0003 5.58317L5.58366 10.9998H8.83366V15.3332H13.167V10.9998H16.417L11.0003 5.58317Z" fill="#001A72"/>
</svg>
