<svg width="48" height="36" viewBox="0 0 48 36" fill="none" xmlns="http://www.w3.org/2000/svg">
<rect x="0.812988" y="0.5" width="45.9766" height="35" rx="5.5" fill="#121212" fill-opacity="0.45" stroke="white"/>
<path d="M19.6592 24.2031L19.4633 24.3532V24.6V26.3235H11.2522V24.4706C11.2522 24.0105 11.4934 23.5158 12.0527 23.0089C12.6122 22.5019 13.4497 22.0224 14.5273 21.6095C16.679 20.7851 19.686 20.2647 23.0337 20.2647C23.608 20.2647 24.1808 20.2758 24.7496 20.3021L19.6592 24.2031ZM37.6208 18.6031L36.3898 19.5465L34.0646 17.7647L35.082 16.9851C35.1401 16.9405 35.2422 16.9029 35.3689 16.9029C35.4955 16.9029 35.5976 16.9405 35.6558 16.9851L37.6208 18.491C37.6479 18.5117 37.6589 18.5286 37.663 18.5365C37.6652 18.5407 37.6661 18.5434 37.6664 18.5448C37.6666 18.5456 37.6667 18.5461 37.6667 18.5465C37.6667 18.5468 37.6667 18.547 37.6667 18.5471C37.6667 18.5473 37.6667 18.548 37.6664 18.5493C37.6663 18.5496 37.6663 18.5498 37.6662 18.5501C37.6658 18.5516 37.6649 18.5541 37.663 18.5576C37.6589 18.5655 37.6479 18.5824 37.6208 18.6031ZM23.5337 27.5V25.8232L32.3369 19.077L34.6629 20.8595L26.0262 27.5H23.5337ZM18.9956 9.77519C20.0494 8.96769 21.5008 8.5 23.0337 8.5C24.5665 8.5 26.018 8.96769 27.0717 9.77519C28.1225 10.5805 28.6744 11.6399 28.6744 12.7059C28.6744 13.7719 28.1225 14.8313 27.0717 15.6366C26.018 16.4441 24.5665 16.9118 23.0337 16.9118C21.5008 16.9118 20.0494 16.4441 18.9956 15.6366C17.9448 14.8313 17.3929 13.7719 17.3929 12.7059C17.3929 11.6399 17.9448 10.5805 18.9956 9.77519Z" fill="white" stroke="white"/>
</svg>
