<svg width="100" height="102" viewBox="0 0 100 102" fill="none" xmlns="http://www.w3.org/2000/svg">
<circle cx="50" cy="50" r="49.5" stroke="#1C023B"/>
<circle cx="50" cy="50" r="46" fill="#4B1A85" fill-opacity="0.15"/>
<path d="M63.3334 59.6667H36.6667C29.3029 59.6667 23.3334 65.6364 23.3334 73.0001V79.6667H50H76.6667V73.0001C76.6667 65.6364 70.697 59.6667 63.3334 59.6667Z" fill="#1C023B"/>
<path d="M50.0001 46.6667C57.3637 46.6667 63.3334 40.6971 63.3334 33.3333C63.3334 25.9695 57.3637 20 50.0001 20C42.6363 20 36.6667 25.9695 36.6667 33.3333C36.6667 40.6971 42.6363 46.6667 50.0001 46.6667Z" fill="#1C023B"/>
<circle cx="84" cy="86" r="16" fill="white"/>
<circle cx="84" cy="86" r="15.25" stroke="#4B1A85" stroke-opacity="0.15" stroke-width="1.5"/>
<g clip-path="url(#clip0_3_1255)">
<path d="M77.1428 90V92.8572H80L88.4266 84.4305L85.5695 81.5734L77.1428 90ZM90.6362 82.221C90.9333 81.9238 90.9333 81.4438 90.6362 81.1467L88.8533 79.3638C88.5562 79.0667 88.0762 79.0667 87.779 79.3638L86.3847 80.7581L89.2419 83.6153L90.6362 82.221Z" fill="white" stroke="#1C023B"/>
</g>
<defs>
<clipPath id="clip0_3_1255">
<rect width="18.2857" height="18.2857" fill="white" transform="translate(74.8572 76.8572)"/>
</clipPath>
</defs>
</svg>
