<svg width="26" height="24" viewBox="0 0 26 24" fill="none" xmlns="http://www.w3.org/2000/svg">
<g clip-path="url(#clip0_358_5)">
<path fill-rule="evenodd" clip-rule="evenodd" d="M7.52796 6.28153L7.56261 5.00551L11.7911 6.22659C12.5534 6.39241 13.3196 6.39241 14.0818 6.22659L18.1208 4.99264V6.41517C18.1208 7.18633 18.143 7.7605 18.0366 8.52571C17.9896 8.86724 17.9104 9.19838 17.7698 9.42309C17.8079 9.44041 17.8441 9.46219 17.8777 9.48793C18.3138 9.81758 18.2846 10.6759 18.1861 11.1575C18.1287 11.4371 18.0297 11.7084 17.8876 11.9256C17.7253 12.1731 17.507 12.3533 17.2298 12.4077C17.1645 12.6686 17.0813 12.928 16.9828 13.1824C16.7007 13.9085 16.2869 14.595 15.7662 15.1746C15.9469 15.4463 16.1384 15.7216 16.3329 15.9844C17.6743 17.1411 21.5083 17.3807 22.9417 18.1801C23.3986 18.435 23.8114 18.7592 24.1435 19.1977C24.9716 20.2911 25.0424 21.2127 25.3423 22.5531C25.2691 23.3341 24.8261 23.7831 23.9549 23.8499H1.38739C0.516251 23.7831 0.0732552 23.3341 0 22.5531C0.29995 21.2127 0.370731 20.2911 1.19881 19.1977C1.53093 18.7592 1.94374 18.435 2.40059 18.1801C3.76175 17.4208 7.28642 17.1669 8.78765 16.1532C9.02227 15.8502 9.2648 15.4939 9.4816 15.1751L9.50486 15.1415C9.11829 14.7212 8.81537 14.2871 8.50206 13.8139C8.36099 13.6031 8.18874 13.3452 8.08876 13.074C7.99669 12.8245 7.95611 12.5785 7.93185 12.431L7.93086 12.3969C7.67546 12.332 7.47302 12.1588 7.32057 11.9256C7.1795 11.7103 7.08051 11.4426 7.02309 11.1654C6.91964 10.6679 6.89341 9.77402 7.36165 9.46615C7.48638 9.38399 7.63438 9.35281 7.80514 9.38448C7.85662 9.39537 7.68041 9.0187 7.6522 8.91377C7.39333 7.95551 7.50222 7.24375 7.52796 6.28153ZM16.6472 8.79151C15.3821 9.22461 13.6522 9.3929 12.9246 9.42755C12.2009 9.46219 9.86718 9.186 8.55601 8.71281V11.4153L8.55304 11.793C8.54462 12.6171 8.54165 12.8824 9.1178 13.7417L9.3138 14.0223C9.85381 14.7608 10.4295 15.284 11.0115 15.6181C11.6431 15.9804 12.2851 16.121 12.9003 16.0735C13.5166 16.026 14.1095 15.7899 14.6421 15.4003C15.4405 14.8168 16.327 13.5833 16.5552 12.6067C16.6368 12.2548 16.6472 11.8841 16.6472 11.3218V8.79151ZM15.3143 15.6245C14.6411 16.222 13.8131 16.6516 12.9043 16.7204C11.7659 16.806 10.7631 16.3155 9.94192 15.575C9.67364 15.9121 9.39448 16.3012 9.14452 16.614C10.4225 19.6046 15.4831 19.6897 16.2003 16.8026C15.8929 16.4417 15.5935 16.0269 15.3143 15.6245ZM17.2674 10.3195V11.7727C17.5045 11.647 17.6322 11.2466 17.6545 10.8238C17.6654 10.7249 17.6847 9.92004 17.507 9.95221C17.3719 9.97696 17.2947 10.2066 17.2674 10.3195ZM7.94027 11.7727V10.3195C7.91255 10.2061 7.83632 9.97696 7.7007 9.95221C7.52301 9.92004 7.54231 10.7249 7.5532 10.8238C7.59577 11.2124 7.72446 11.6118 7.94027 11.7727ZM5.77973 3.15284V6.29638H5.68025C5.61244 6.29638 5.557 6.35231 5.557 6.41963V7.26454C5.55726 7.29715 5.57033 7.32834 5.59338 7.3514C5.61644 7.37446 5.64764 7.38753 5.68025 7.38778H5.77973V7.68378C5.65352 7.70753 5.557 7.8194 5.557 7.95155V7.95205C5.557 8.10153 5.68025 8.22477 5.82973 8.22477H6.31826C6.46774 8.22477 6.59099 8.10202 6.59099 7.95205V7.95155C6.59099 7.8189 6.49447 7.70753 6.36825 7.68378V7.38778H6.46774C6.53505 7.38778 6.59099 7.33235 6.59099 7.26454V6.41963C6.59099 6.35182 6.53555 6.29638 6.46774 6.29638H6.36825V3.33549L11.5139 4.93621C12.446 5.15746 13.3775 5.17231 14.3095 4.93621L19.9888 3.24095L20.502 3.08751C21.142 2.82617 20.9822 2.21191 20.3867 2.07085L13.963 0.152846C13.3008 -0.0357361 12.6385 -0.0659291 11.9757 0.152846L5.66787 2.04758C4.98234 2.21439 4.84623 2.84943 5.64461 3.11077L5.77973 3.15284Z" fill="#737373"/>
</g>
<defs>
<clipPath id="clip0_358_5">
<rect width="25.3423" height="23.85" fill="white"/>
</clipPath>
</defs>
</svg>
