<svg width="17" height="21" viewBox="0 0 17 21" fill="none" xmlns="http://www.w3.org/2000/svg">
<g clip-path="url(#clip0_205_48)">
<path fill-rule="evenodd" clip-rule="evenodd" d="M6.98749 3.27936C6.88717 3.28278 6.81107 3.30329 6.76091 3.33747C6.73151 3.35627 6.70902 3.3819 6.69519 3.41266C6.67962 3.44514 6.6727 3.48615 6.67443 3.53229C6.67789 3.6673 6.75053 3.84504 6.8889 4.05012L6.89063 4.05353L7.34205 4.76276C7.52365 5.04645 7.71218 5.33698 7.9474 5.54889C8.17397 5.75397 8.44898 5.8924 8.81219 5.8924C9.20653 5.89411 9.49364 5.74885 9.72713 5.53351C9.971 5.30793 10.1613 5.00031 10.3515 4.69269L10.86 3.86555C10.9551 3.65192 10.9897 3.50837 10.9672 3.42463C10.9551 3.37507 10.8981 3.34943 10.8029 3.34601C10.7822 3.34431 10.7614 3.34431 10.7407 3.34601C10.7182 3.34601 10.694 3.34772 10.6698 3.35114C10.6559 3.35285 10.6438 3.35114 10.63 3.34943C10.585 3.35114 10.5383 3.34943 10.4899 3.3426L10.6646 2.5821C9.37257 2.78376 8.40747 1.83527 7.04283 2.3924L7.14142 3.28962C7.08953 3.28791 7.03764 3.2862 6.98749 3.27936ZM8.58561 15.2098C9.26188 15.2098 9.80842 15.7515 9.80842 16.418C9.80842 17.0845 9.26015 17.6263 8.58561 17.6263C7.91108 17.6263 7.3628 17.0845 7.3628 16.418C7.3628 15.7515 7.90935 15.2098 8.58561 15.2098ZM1.89734 10.0982C1.87659 10.1016 1.85411 10.1033 1.83162 10.1033C1.80914 10.1033 1.78838 10.1016 1.7659 10.0982H0.875165C0.864788 10.0982 0.85441 10.1016 0.845762 10.1068L0.838844 10.1136C0.830196 10.1221 0.823278 10.1358 0.823278 10.1495V12.1251C0.823278 12.1353 0.826737 12.1456 0.831926 12.1541L0.838844 12.161C0.847492 12.1695 0.861329 12.1763 0.875165 12.1763H1.98382C2.00285 12.1746 2.02014 12.1729 2.0409 12.1729C2.05992 12.1729 2.07895 12.1746 2.09798 12.1763H15.1078C15.1269 12.1746 15.1442 12.1729 15.1649 12.1729C15.1839 12.1729 15.203 12.1746 15.2203 12.1763H16.1248C16.1387 12.1763 16.1525 12.1712 16.1612 12.1627C16.1698 12.1541 16.175 12.1404 16.175 12.1268V10.1495C16.175 10.1358 16.1698 10.1238 16.1594 10.1136C16.1508 10.105 16.1369 10.0982 16.1231 10.0982H1.89734ZM1.41998 9.28303V6.11799C1.41998 6.01374 1.45976 5.91804 1.52549 5.84455L2.7016 4.38337C2.57707 4.19025 2.50443 3.95954 2.50443 3.71345C2.50443 3.02473 3.07 2.46589 3.76702 2.46589C4.46404 2.46589 5.02961 3.02473 5.02961 3.71345C5.02961 4.40217 4.46404 4.961 3.76702 4.961C3.62 4.961 3.47818 4.93537 3.34673 4.88923L2.24499 6.25812V9.28303H3.99705C3.98494 9.24201 3.97629 9.19758 3.97111 9.14972C3.98667 7.90217 3.79469 7.66974 5.123 6.9383C5.60901 6.66999 6.86469 6.57941 7.41296 6.22394C7.49598 6.06843 7.58938 5.78986 7.64472 5.62409L7.64991 5.607C7.44928 5.39338 7.28497 5.14045 7.12585 4.89264L6.67443 4.18342C6.51012 3.94074 6.42364 3.71857 6.41846 3.53571C6.41673 3.45026 6.43056 3.37165 6.46342 3.30329C6.49629 3.23151 6.54817 3.1717 6.61909 3.12556C6.65195 3.10334 6.68827 3.08625 6.72805 3.07087C6.69865 2.68635 6.68827 2.2027 6.70729 1.79597C6.71767 1.70026 6.73497 1.60285 6.76264 1.50715C6.92695 0.924383 7.43545 0.503973 8.01485 0.305731C8.29504 0.210028 8.18781 -0.0189761 8.47146 -0.00359526C9.14427 0.0322934 10.1837 0.461248 10.5833 0.915838C11.1419 1.55329 10.9984 2.33771 10.9793 3.1153C11.1039 3.1529 11.1852 3.23151 11.218 3.35798C11.2543 3.49811 11.2146 3.69636 11.0952 3.96638C11.0935 3.9715 11.09 3.97663 11.0883 3.98005L10.5746 4.81745C10.3757 5.14045 10.1751 5.46345 9.90701 5.71125L9.89317 5.72321C9.91912 5.7591 9.94679 5.80012 9.97619 5.84284C10.0661 5.97272 10.1664 6.1197 10.2616 6.2342C10.8202 6.5777 12.05 6.66999 12.529 6.93488C13.7519 7.60822 13.4492 7.96882 13.5374 9.14631C13.5322 9.19416 13.5236 9.23859 13.5114 9.27961H16.1266C16.367 9.27961 16.5866 9.37702 16.7458 9.53425C16.9049 9.69147 17.0035 9.90681 17.0035 10.1461V12.1216C17.0035 12.3592 16.9049 12.5745 16.7458 12.7318L16.744 12.7335C16.5849 12.8907 16.367 12.9881 16.1266 12.9881H15.5766V20.3419C15.5766 20.523 15.5022 20.6871 15.3811 20.805C15.2618 20.9229 15.094 20.9981 14.9124 20.9981H2.29688C2.11354 20.9981 1.94577 20.9246 1.82643 20.805C1.81432 20.793 1.80395 20.7828 1.7953 20.7691C1.69325 20.6529 1.63099 20.5025 1.63099 20.3384V12.9881H0.875165C0.634754 12.9881 0.415098 12.8907 0.255977 12.7335C0.2456 12.7232 0.236952 12.713 0.228304 12.7027C0.0864788 12.5523 0 12.3489 0 12.1251V10.1495C0 9.91193 0.0985858 9.69489 0.257707 9.53766C0.268084 9.52741 0.278462 9.51887 0.288839 9.50861C0.444501 9.36847 0.65205 9.28303 0.875165 9.28303H1.41998ZM2.45254 12.9898V20.1846H14.7498V12.9898H2.45254ZM7.89551 7.01691C7.66721 6.76056 7.64818 6.49396 7.89551 6.21027C8.18089 6.28205 8.44206 6.40339 8.68247 6.56916C8.73436 6.54694 8.79489 6.5384 8.8537 6.54181C9.10449 6.36579 9.42273 6.29572 9.70292 6.16413C10.0367 6.48542 10.0004 6.77936 9.67352 7.05451C9.49018 7.01349 9.31722 6.94855 9.14946 6.86481C9.146 6.90754 9.13389 6.95368 9.11313 7.00324L9.47635 8.70881C9.75308 8.13288 10.0402 7.21857 10.1146 6.47687C9.99349 6.34357 9.86377 6.15558 9.75308 5.99494C9.72886 5.95905 9.70465 5.92487 9.68044 5.89069C9.44521 6.04792 9.16329 6.14362 8.81219 6.14362C8.41957 6.14191 8.11517 6.01032 7.86092 5.80695C7.79001 6.01716 7.68623 6.30597 7.58419 6.44269C7.57727 6.45295 7.56862 6.46149 7.55825 6.47004C7.69142 7.27668 7.9768 8.15339 8.23624 8.70881L8.59945 7.00324C8.54583 6.91437 8.52508 6.83918 8.52854 6.77595C8.33483 6.89216 8.12036 6.96735 7.89551 7.01691Z" fill="#737373"/>
</g>
<defs>
<clipPath id="clip0_205_48">
<rect width="17" height="21" fill="white"/>
</clipPath>
</defs>
</svg>
