<svg width="22" height="22" viewBox="0 0 22 22" fill="none" xmlns="http://www.w3.org/2000/svg">
<path fill-rule="evenodd" clip-rule="evenodd" d="M19.619 20.4319H2.38093C1.61873 20.4319 1.01685 19.816 1.01685 19.0678V4.60853C1.01685 3.84352 1.63279 3.24164 2.38093 3.24164H19.619C20.384 3.24164 20.9831 3.8604 20.9831 4.60853V19.0678C21 19.816 20.384 20.4319 19.619 20.4319ZM2.38093 3.79571C1.94217 3.79571 1.58498 4.1529 1.58498 4.59166V19.0509C1.58498 19.4897 1.94217 19.8469 2.38093 19.8469H19.619C20.0578 19.8469 20.415 19.4897 20.415 19.0509V4.59166C20.415 4.1529 20.0578 3.79571 19.619 3.79571H2.38093Z" fill="#737373" stroke="#737373" stroke-width="0.5"/>
<path fill-rule="evenodd" clip-rule="evenodd" d="M20.7075 7.85698H1.2925C1.12938 7.85698 1 7.7276 1 7.56448C1 7.40135 1.12938 7.27197 1.2925 7.27197H20.7075C20.8706 7.27197 21 7.40135 21 7.56448C21 7.7276 20.8706 7.85698 20.7075 7.85698Z" fill="#737373" stroke="#737373" stroke-width="0.5"/>
<path fill-rule="evenodd" clip-rule="evenodd" d="M16.5 6.02042C16.3369 6.02042 16.2075 5.89105 16.2075 5.72792C16.2075 5.56479 16.3369 5.43541 16.5 5.43541C17.5716 5.43541 18.4322 4.5579 18.4322 3.5032C18.4322 2.44568 17.5716 1.58504 16.5 1.58504C15.4284 1.58504 14.5678 2.46255 14.5678 3.51726C14.5678 3.68039 14.4356 3.80976 14.2753 3.80976C14.1121 3.80976 13.9968 3.66351 13.9968 3.51726C13.9968 2.1363 15.119 1.01691 16.5 1.01691C17.8809 1.01691 19.0032 2.1363 19.0032 3.51726C19.0032 4.89822 17.8809 6.02042 16.5 6.02042Z" fill="#737373" stroke="#737373" stroke-width="0.5"/>
<path fill-rule="evenodd" clip-rule="evenodd" d="M11.007 6.02039C10.8467 6.02039 10.7145 5.89101 10.7145 5.72789C10.7145 5.56476 10.8467 5.43538 11.007 5.43538C12.0814 5.43538 12.942 4.55787 12.942 3.50316C12.942 2.44565 12.0645 1.56813 11.007 1.56813C9.95227 1.56813 9.07476 2.44565 9.07476 3.50316C9.07476 3.66348 8.94538 3.79567 8.78225 3.79567C8.61912 3.79567 8.48975 3.66348 8.48975 3.50316C8.48975 2.12221 9.61195 1 10.9929 1C12.3739 1 13.5101 2.13627 13.5101 3.51723C13.5101 4.89819 12.3879 6.02039 11.007 6.02039Z" fill="#737373" stroke="#737373" stroke-width="0.5"/>
<path fill-rule="evenodd" clip-rule="evenodd" d="M5.51701 6.02042C5.35388 6.02042 5.22451 5.89105 5.22451 5.72792C5.22451 5.56479 5.35388 5.45229 5.51701 5.45229C6.58859 5.45229 7.44923 4.57477 7.44923 3.51726C7.44923 2.46255 6.57172 1.58504 5.51701 1.58504C4.4595 1.58504 3.56792 2.44568 3.56792 3.51726C3.56792 3.68039 3.43854 3.80976 3.27541 3.80976C3.11229 3.80976 2.98291 3.68039 2.98291 3.51726C2.98291 2.1363 4.1023 1.01691 5.48326 1.01691C6.86422 1.01691 7.98643 2.1363 7.98643 3.51726C7.98643 4.89822 6.89797 6.02042 5.51701 6.02042Z" fill="#737373" stroke="#737373" stroke-width="0.5"/>
<path fill-rule="evenodd" clip-rule="evenodd" d="M14.8096 18.1425H7.20734C6.54077 18.1425 5.98669 17.5884 5.98669 16.9219V10.7961C5.98669 10.1324 6.54077 9.57831 7.20734 9.57831H14.8096C15.4762 9.57831 16.0275 10.1324 16.0275 10.7961V16.9219C16.0275 17.5884 15.4762 18.1425 14.8096 18.1425ZM7.20734 10.1324C6.85015 10.1324 6.55764 10.4249 6.55764 10.7821V16.905C6.55764 17.265 6.85015 17.5575 7.20734 17.5575H14.8096C15.1668 17.5575 15.4593 17.265 15.4593 16.905V10.7961C15.4593 10.4389 15.1668 10.1464 14.8096 10.1464H7.20734V10.1324Z" fill="#737373" stroke="#737373" stroke-width="0.5"/>
<path fill-rule="evenodd" clip-rule="evenodd" d="M9.83985 16.3706C9.77235 16.3706 9.6936 16.3368 9.64297 16.289L7.49982 14.143C7.3845 14.0305 7.3845 13.8505 7.49982 13.738C7.61232 13.6255 7.79232 13.6255 7.90482 13.738L9.83985 15.6871L14.1121 11.4149C14.2246 11.3024 14.4046 11.3024 14.5171 11.4149C14.6324 11.5274 14.6324 11.7074 14.5171 11.8199L10.0339 16.289C9.9861 16.3368 9.90454 16.3706 9.83985 16.3706Z" fill="#737373" stroke="#737373" stroke-width="0.5"/>
</svg>
