<svg width="24" height="20" viewBox="0 0 24 20" fill="none" xmlns="http://www.w3.org/2000/svg">
<g clip-path="url(#clip0_205_59)">
<path fill-rule="evenodd" clip-rule="evenodd" d="M20.5706 12.9007H18.1917C17.6625 12.9007 17.2298 13.3494 17.2298 13.897V14.6263H18.1027C18.5419 14.6263 18.9408 14.8117 19.2295 15.1108C19.2844 15.1676 19.3355 15.2288 19.3819 15.2939C19.4283 15.2298 19.4784 15.1696 19.5328 15.1132L19.5366 15.1094C19.8263 14.8113 20.2238 14.6263 20.6592 14.6263H21.532V13.897C21.532 13.3489 21.0994 12.9007 20.5706 12.9007ZM13.0528 6.32195C13.2197 6.20979 13.2197 6.08501 13.0528 5.98597L11.3231 4.95618C11.1862 4.86733 11.0437 4.91977 11.048 5.10427L11.0536 7.18569C11.0648 7.38572 11.1755 7.44058 11.3381 7.34785L13.0528 6.32195ZM2.16234 0.0587479C5.41031 0.480664 8.65031 0.687981 11.8823 0.686524C15.1144 0.684582 18.3548 0.473381 21.6028 0.0587479L22.0566 0.000971039V12.221L21.6028 12.1637C18.3544 11.7525 15.1139 11.5398 11.8823 11.5359C8.64281 11.5325 5.40328 11.7374 2.16375 12.1618L1.70812 12.2215V0L2.16234 0.0587479ZM11.8823 1.5221C8.75391 1.52356 5.6325 1.33421 2.51813 0.948705V11.2742C5.63953 10.8849 8.76141 10.697 11.8823 10.7004C15.0113 10.7042 18.1327 10.8989 21.247 11.2752V0.947734C18.1327 1.32741 15.0113 1.52016 11.8823 1.5221ZM11.8823 2.70629C13.6983 2.70629 15.1702 4.23082 15.1702 6.11123C15.1702 7.99165 13.6983 9.51618 11.8823 9.51618C10.0669 9.51618 8.595 7.99165 8.595 6.11123C8.595 4.23082 10.0669 2.70629 11.8823 2.70629ZM11.8823 3.39766C13.3294 3.39766 14.5022 4.61243 14.5022 6.11123C14.5022 7.61003 13.3294 8.8248 11.8823 8.8248C10.4358 8.8248 9.26297 7.61003 9.26297 6.11123C9.26297 4.61243 10.4358 3.39766 11.8823 3.39766ZM20.6592 15.2817H23.0381C23.5673 15.2817 24 15.7299 24 16.2775V20H19.6973V16.2775C19.6973 15.7299 20.13 15.2817 20.6592 15.2817ZM8.26172 15.2817H5.88234C5.35359 15.2817 4.92094 15.7299 4.92094 16.2775V20H9.22312V16.2775C9.22312 15.7299 8.79 15.2817 8.26172 15.2817ZM0.961875 15.2817H3.34078C3.86953 15.2817 4.30266 15.7299 4.30266 16.2775V20H0V16.2775C0 15.7299 0.432656 15.2817 0.961875 15.2817ZM10.8033 15.2817H13.1822C13.7109 15.2817 14.1441 15.7299 14.1441 16.2775V20H9.84141V16.2775C9.84141 15.7299 10.2741 15.2817 10.8033 15.2817ZM18.1027 15.2817H15.7238C15.195 15.2817 14.7623 15.7299 14.7623 16.2775V20H19.0645V16.2775C19.0645 15.7299 18.6314 15.2817 18.1027 15.2817ZM3.42938 12.9007H5.80828C6.3375 12.9007 6.77016 13.3494 6.77016 13.897V14.6263H5.88234C5.44359 14.6263 5.04469 14.8117 4.75594 15.1108C4.70411 15.1645 4.65588 15.2218 4.61156 15.2822C4.5675 15.222 4.51922 15.1642 4.46719 15.1108C4.17844 14.8117 3.78 14.6263 3.34078 14.6263H2.4675V13.897C2.4675 13.3489 2.90063 12.9007 3.42938 12.9007ZM10.7292 12.9007H8.35031C7.82109 12.9007 7.38844 13.3494 7.38844 13.897V14.6263H8.26172C8.70047 14.6263 9.09937 14.8117 9.38812 15.1108C9.43969 15.1642 9.48797 15.2215 9.53203 15.2822C9.57656 15.2215 9.62484 15.1642 9.67641 15.1108C9.96516 14.8117 10.3641 14.6263 10.8033 14.6263H11.6906V13.897C11.6906 13.3489 11.258 12.9007 10.7292 12.9007ZM13.2708 12.9007H15.6497C16.1789 12.9007 16.6116 13.3494 16.6116 13.897V14.6263H15.7238C15.285 14.6263 14.8861 14.8117 14.5973 15.1108C14.5455 15.1645 14.4973 15.2218 14.453 15.2822C14.4089 15.222 14.3606 15.1642 14.3086 15.1108C14.0198 14.8117 13.6214 14.6263 13.1822 14.6263H12.3089V13.897C12.3089 13.3489 12.742 12.9007 13.2708 12.9007Z" fill="#737373"/>
</g>
<defs>
<clipPath id="clip0_205_59">
<rect width="24" height="20" fill="white"/>
</clipPath>
</defs>
</svg>
