<svg width="36" height="36" viewBox="0 0 36 36" fill="none" xmlns="http://www.w3.org/2000/svg">
<path d="M5.7 28H30.2L22.85 18.2L16.25 26.75L11.6 20.4L5.7 28ZM6 17.1C9.1 17.1 11.725 16.0167 13.875 13.85C16.025 11.6833 17.1 9.06667 17.1 6H14.4C14.4 8.33333 13.5833 10.3167 11.95 11.95C10.3167 13.5833 8.33333 14.4 6 14.4V17.1ZM6 10.55C7.3 10.55 8.41667 10.1083 9.35 9.225C10.2833 8.34167 10.75 7.26667 10.75 6H6V10.55ZM3 36C2.2 36 1.5 35.7 0.9 35.1C0.3 34.5 0 33.8 0 33V3C0 2.2 0.3 1.5 0.9 0.9C1.5 0.3 2.2 0 3 0H33C33.8 0 34.5 0.3 35.1 0.9C35.7 1.5 36 2.2 36 3V33C36 33.8 35.7 34.5 35.1 35.1C34.5 35.7 33.8 36 33 36H3ZM3 33H33V3H3V33ZM3 33V3V33Z" fill="#34495E"/>
</svg>
