<svg width="54" height="55" viewBox="0 0 54 55" fill="none" xmlns="http://www.w3.org/2000/svg">
<path d="M8.55 42.5H45.3L34.275 27.8L24.375 40.625L17.4 31.1L8.55 42.5ZM9 26.15C13.65 26.15 17.5875 24.525 20.8125 21.275C24.0375 18.025 25.65 14.1 25.65 9.5H21.6C21.6 13 20.375 15.975 17.925 18.425C15.475 20.875 12.5 22.1 9 22.1V26.15ZM9 16.325C10.95 16.325 12.625 15.6625 14.025 14.3375C15.425 13.0125 16.125 11.4 16.125 9.5H9V16.325ZM4.5 54.5C3.3 54.5 2.25 54.05 1.35 53.15C0.45 52.25 0 51.2 0 50V5C0 3.8 0.45 2.75 1.35 1.85C2.25 0.95 3.3 0.5 4.5 0.5H49.5C50.7 0.5 51.75 0.95 52.65 1.85C53.55 2.75 54 3.8 54 5V50C54 51.2 53.55 52.25 52.65 53.15C51.75 54.05 50.7 54.5 49.5 54.5H4.5ZM4.5 50H49.5V5H4.5V50ZM4.5 50V5V50Z" fill="#95A5A6"/>
</svg>
