<svg width="48" height="39" viewBox="0 0 48 39" fill="none" xmlns="http://www.w3.org/2000/svg">
<path d="M44.85 16.1C41.9167 13.3 38.7083 11.0667 35.225 9.4C31.7417 7.73333 28 6.9 24 6.9C22.7667 6.9 21.5833 6.975 20.45 7.125C19.3167 7.275 18.3667 7.48333 17.6 7.75L13.95 4.1C15.4167 3.56667 17.0083 3.15 18.725 2.85C20.4417 2.55 22.2 2.4 24 2.4C28.6667 2.4 33.0583 3.36667 37.175 5.3C41.2917 7.23333 44.9 9.78333 48 12.95L44.85 16.1ZM36.4 24.55C35.3 23.4833 34.3 22.625 33.4 21.975C32.5 21.325 31.35 20.6833 29.95 20.05L24.3 14.4C27.4667 14.4667 30.2583 15.1167 32.675 16.35C35.0917 17.5833 37.3833 19.2667 39.55 21.4L36.4 24.55ZM40.25 38.95L20.55 19.25C18.75 19.6833 17.0917 20.3833 15.575 21.35C14.0583 22.3167 12.7333 23.3833 11.6 24.55L8.45 21.4C9.68333 20.1667 10.9583 19.0833 12.275 18.15C13.5917 17.2167 15.1667 16.3833 17 15.65L11.45 10.1C9.88333 10.8667 8.4 11.775 7 12.825C5.6 13.875 4.31667 14.9667 3.15 16.1L0 12.95C1.2 11.7167 2.48333 10.5667 3.85 9.5C5.21667 8.43333 6.61667 7.51667 8.05 6.75L3.45 2.15L5.6 0L42.4 36.8L40.25 38.95ZM24 36.95L16.6 29.5C17.5667 28.5333 18.675 27.775 19.925 27.225C21.175 26.675 22.5333 26.4 24 26.4C25.4667 26.4 26.825 26.675 28.075 27.225C29.325 27.775 30.4333 28.5333 31.4 29.5L24 36.95Z" fill="#34495E"/>
</svg>
