<svg width="48" height="35" viewBox="0 0 48 35" fill="none" xmlns="http://www.w3.org/2000/svg">
<path d="M11.6 22.15L8.45 19C10.7833 16.6667 13.225 14.9167 15.775 13.75C18.325 12.5833 21.0667 12 24 12C26.9333 12 29.675 12.5833 32.225 13.75C34.775 14.9167 37.2167 16.6667 39.55 19L36.4 22.15C34.3667 20.1167 32.3167 18.6667 30.25 17.8C28.1833 16.9333 26.1 16.5 24 16.5C21.9 16.5 19.8167 16.9333 17.75 17.8C15.6833 18.6667 13.6333 20.1167 11.6 22.15ZM3.15 13.7L0 10.55C3.1 7.38333 6.70833 4.83333 10.825 2.9C14.9417 0.966666 19.3333 0 24 0C28.6667 0 33.0583 0.966666 37.175 2.9C41.2917 4.83333 44.9 7.38333 48 10.55L44.85 13.7C41.9167 10.9 38.7083 8.66667 35.225 7C31.7417 5.33333 28 4.5 24 4.5C20 4.5 16.2583 5.33333 12.775 7C9.29167 8.66667 6.08333 10.9 3.15 13.7ZM24 34.55L31.4 27.1C30.4333 26.1333 29.325 25.375 28.075 24.825C26.825 24.275 25.4667 24 24 24C22.5333 24 21.175 24.275 19.925 24.825C18.675 25.375 17.5667 26.1333 16.6 27.1L24 34.55Z" fill="#34495E"/>
</svg>
