<svg width="279" height="279" viewBox="0 0 279 279" fill="none" xmlns="http://www.w3.org/2000/svg">
<path d="M151.125 34.875H95.325C82.3038 34.875 75.7931 34.875 70.8197 37.4091C66.4449 39.6381 62.8881 43.1949 60.6591 47.5697C58.125 52.5431 58.125 59.0538 58.125 72.075V206.925C58.125 219.946 58.125 226.457 60.6591 231.431C62.8881 235.805 66.4449 239.362 70.8197 241.591C75.7931 244.125 82.3038 244.125 95.325 244.125H139.5M151.125 34.875L220.875 104.625M151.125 34.875V86.025C151.125 92.5356 151.125 95.7909 152.392 98.2776C153.507 100.465 155.284 102.243 157.472 103.358C159.959 104.625 163.214 104.625 169.725 104.625H220.875M220.875 104.625V116.25" stroke="black" stroke-width="9.41625" stroke-linecap="round" stroke-linejoin="round"/>
<path fill-rule="evenodd" clip-rule="evenodd" d="M171.205 154.917L203.901 139.827C206.717 138.636 207.213 138.849 209.24 139.72C209.32 139.754 209.404 139.79 209.49 139.827C209.864 139.987 211.737 140.853 214.519 142.141C222.581 145.87 238.283 153.135 247.355 157.013C250.708 158.446 251.966 160.227 251.966 164.279V224.22C251.966 228.132 249.87 234.14 240.508 234.14H170.786C167.433 234.187 160.782 232.631 161.005 226.036V206.755V175.596V165.396C161.005 160.785 161.005 158.829 171.205 154.917ZM179.888 181.336H191.066V170.577H179.888V181.336ZM232.284 190.418H220.827V202.574H232.284V190.418ZM191.066 210.678H179.888V221.856H191.066V210.678ZM211.605 210.678H200.567V221.856H211.605V210.678ZM220.827 210.678H232.284V221.856H220.827V210.678ZM200.567 190.418H211.605V202.574H200.567V190.418ZM191.066 190.418H179.888V202.574H191.066V190.418ZM211.605 170.577H200.567V181.336H211.605V170.577ZM220.827 170.577H232.284V181.336H220.827V170.577Z" fill="black"/>
<path d="M203.901 139.827L203.846 139.698L203.842 139.7L203.901 139.827ZM171.205 154.917L171.255 155.048L171.264 155.044L171.205 154.917ZM209.24 139.72L209.295 139.591L209.295 139.591L209.24 139.72ZM209.49 139.827L209.545 139.698L209.545 139.698L209.49 139.827ZM214.519 142.141L214.461 142.268L214.461 142.268L214.519 142.141ZM247.355 157.013L247.41 156.884L247.41 156.884L247.355 157.013ZM170.786 234.14V234.001L170.784 234.001L170.786 234.14ZM161.005 226.036L161.145 226.041V226.036H161.005ZM191.066 181.336V181.476H191.206V181.336H191.066ZM179.888 181.336H179.748V181.476H179.888V181.336ZM191.066 170.577H191.206V170.438H191.066V170.577ZM179.888 170.577V170.438H179.748V170.577H179.888ZM220.827 190.418V190.278H220.687V190.418H220.827ZM232.284 190.418H232.424V190.278H232.284V190.418ZM220.827 202.574H220.687V202.714H220.827V202.574ZM232.284 202.574V202.714H232.424V202.574H232.284ZM179.888 210.678V210.538H179.748V210.678H179.888ZM191.066 210.678H191.206V210.538H191.066V210.678ZM179.888 221.856H179.748V221.996H179.888V221.856ZM191.066 221.856V221.996H191.206V221.856H191.066ZM200.567 210.678V210.538H200.427V210.678H200.567ZM211.605 210.678H211.745V210.538H211.605V210.678ZM200.567 221.856H200.427V221.996H200.567V221.856ZM211.605 221.856V221.996H211.745V221.856H211.605ZM232.284 210.678H232.424V210.538H232.284V210.678ZM220.827 210.678V210.538H220.687V210.678H220.827ZM232.284 221.856V221.996H232.424V221.856H232.284ZM220.827 221.856H220.687V221.996H220.827V221.856ZM211.605 190.418H211.745V190.278H211.605V190.418ZM200.567 190.418V190.278H200.427V190.418H200.567ZM211.605 202.574V202.714H211.745V202.574H211.605ZM200.567 202.574H200.427V202.714H200.567V202.574ZM179.888 190.418V190.278H179.748V190.418H179.888ZM191.066 190.418H191.206V190.278H191.066V190.418ZM179.888 202.574H179.748V202.714H179.888V202.574ZM191.066 202.574V202.714H191.206V202.574H191.066ZM200.567 170.577V170.438H200.427V170.577H200.567ZM211.605 170.577H211.745V170.438H211.605V170.577ZM200.567 181.336H200.427V181.476H200.567V181.336ZM211.605 181.336V181.476H211.745V181.336H211.605ZM232.284 170.577H232.424V170.438H232.284V170.577ZM220.827 170.577V170.438H220.687V170.577H220.827ZM232.284 181.336V181.476H232.424V181.336H232.284ZM220.827 181.336H220.687V181.476H220.827V181.336ZM203.842 139.7L171.147 154.79L171.264 155.044L203.959 139.954L203.842 139.7ZM209.295 139.591C208.288 139.159 207.631 138.875 206.869 138.861C206.107 138.847 205.255 139.103 203.846 139.698L203.955 139.956C205.363 139.361 206.167 139.128 206.864 139.14C207.56 139.153 208.164 139.41 209.185 139.848L209.295 139.591ZM209.545 139.698C209.459 139.662 209.376 139.626 209.295 139.591L209.185 139.848C209.265 139.883 209.349 139.919 209.435 139.955L209.545 139.698ZM214.578 142.014C211.797 140.727 209.922 139.86 209.545 139.698L209.435 139.955C209.807 140.115 211.676 140.979 214.461 142.268L214.578 142.014ZM247.41 156.884C238.341 153.008 222.64 145.744 214.578 142.014L214.461 142.268C222.521 145.997 238.226 153.263 247.3 157.141L247.41 156.884ZM252.105 164.279C252.105 162.24 251.789 160.751 251.035 159.588C250.28 158.424 249.098 157.606 247.41 156.884L247.3 157.141C248.964 157.853 250.088 158.642 250.8 159.74C251.513 160.838 251.826 162.265 251.826 164.279H252.105ZM252.105 224.22V164.279H251.826V224.22H252.105ZM240.508 234.28C245.221 234.28 248.128 232.766 249.854 230.738C251.576 228.714 252.105 226.198 252.105 224.22H251.826C251.826 226.154 251.307 228.598 249.641 230.557C247.979 232.51 245.157 234.001 240.508 234.001V234.28ZM170.786 234.28H240.508V234.001H170.786V234.28ZM160.866 226.032C160.752 229.388 162.393 231.47 164.484 232.699C166.566 233.923 169.094 234.304 170.788 234.28L170.784 234.001C169.125 234.024 166.651 233.649 164.625 232.458C162.608 231.273 161.035 229.279 161.145 226.041L160.866 226.032ZM160.866 206.755V226.036H161.145V206.755H160.866ZM160.866 175.596V206.755H161.145V175.596H160.866ZM160.866 165.396V175.596H161.145V165.396H160.866ZM171.155 154.787C166.057 156.742 163.474 158.22 162.172 159.806C160.861 161.405 160.866 163.099 160.866 165.396H161.145C161.145 163.083 161.15 161.493 162.389 159.983C163.637 158.461 166.153 157.004 171.255 155.047L171.155 154.787ZM191.066 181.196H179.888V181.476H191.066V181.196ZM190.926 170.577V181.336H191.206V170.577H190.926ZM179.888 170.717H191.066V170.438H179.888V170.717ZM180.028 181.336V170.577H179.748V181.336H180.028ZM220.827 190.558H232.284V190.278H220.827V190.558ZM220.967 202.574V190.418H220.687V202.574H220.967ZM232.284 202.434H220.827V202.714H232.284V202.434ZM232.145 190.418V202.574H232.424V190.418H232.145ZM179.888 210.818H191.066V210.538H179.888V210.818ZM180.028 221.856V210.678H179.748V221.856H180.028ZM191.066 221.716H179.888V221.996H191.066V221.716ZM190.926 210.678V221.856H191.206V210.678H190.926ZM200.567 210.818H211.605V210.538H200.567V210.818ZM200.707 221.856V210.678H200.427V221.856H200.707ZM211.605 221.716H200.567V221.996H211.605V221.716ZM211.466 210.678V221.856H211.745V210.678H211.466ZM232.284 210.538H220.827V210.818H232.284V210.538ZM232.424 221.856V210.678H232.145V221.856H232.424ZM220.827 221.996H232.284V221.716H220.827V221.996ZM220.687 210.678V221.856H220.967V210.678H220.687ZM211.605 190.278H200.567V190.558H211.605V190.278ZM211.745 202.574V190.418H211.466V202.574H211.745ZM200.567 202.714H211.605V202.434H200.567V202.714ZM200.427 190.418V202.574H200.707V190.418H200.427ZM179.888 190.558H191.066V190.278H179.888V190.558ZM180.028 202.574V190.418H179.748V202.574H180.028ZM191.066 202.434H179.888V202.714H191.066V202.434ZM190.926 190.418V202.574H191.206V190.418H190.926ZM200.567 170.717H211.605V170.438H200.567V170.717ZM200.707 181.336V170.577H200.427V181.336H200.707ZM211.605 181.196H200.567V181.476H211.605V181.196ZM211.466 170.577V181.336H211.745V170.577H211.466ZM232.284 170.438H220.827V170.717H232.284V170.438ZM232.424 181.336V170.577H232.145V181.336H232.424ZM220.827 181.476H232.284V181.196H220.827V181.476ZM220.687 170.577V181.336H220.967V170.577H220.687Z" fill="black"/>
</svg>
