<svg width="28" height="24" viewBox="0 0 28 24" fill="none" xmlns="http://www.w3.org/2000/svg">
<g clip-path="url(#clip0_357_2)">
<path fill-rule="evenodd" clip-rule="evenodd" d="M22.2355 21.3497C22.8761 21.3497 23.3952 21.4601 23.3952 21.5971C23.3952 21.734 22.8761 21.8445 22.2355 21.8445C21.5949 21.8445 21.0758 21.734 21.0758 21.5971C21.0736 21.4623 21.5927 21.3497 22.2355 21.3497ZM7.56353 0H19.1385C19.3219 0 19.4721 0.15021 19.4721 0.331345V7.21891C19.4721 7.40226 19.3219 7.55247 19.1385 7.55247H7.56353C7.38018 7.55247 7.22997 7.40226 7.22997 7.21891V0.333554C7.22997 0.15021 7.38018 0 7.56353 0ZM11.8423 8.01193H14.8598C14.8664 8.50453 15.0586 8.94853 15.5688 9.30639H26.7285C26.8898 9.30639 27.0356 9.37266 27.1416 9.47648C27.2477 9.58251 27.3139 9.7283 27.3139 9.88956V11.6258C27.3139 11.7871 27.2477 11.9329 27.1416 12.0389C27.0356 12.1449 26.8898 12.2112 26.7285 12.2112H26.691V23.3179C26.691 23.4305 26.6446 23.5344 26.5695 23.6073L26.5673 23.6095C26.4922 23.6846 26.3906 23.731 26.2779 23.731H18.2991C18.1865 23.731 18.0826 23.6846 18.0075 23.6095C17.9943 23.5962 17.981 23.5807 17.97 23.5653C17.917 23.4968 17.886 23.4107 17.886 23.3179V12.2112H5.11599V23.3179C5.11599 23.4327 5.0696 23.5344 4.99449 23.6095C4.91939 23.6846 4.81557 23.731 4.70291 23.731H2.74576C2.63311 23.731 2.53149 23.6846 2.45639 23.6095C2.38128 23.5344 2.33489 23.4327 2.33489 23.3201V12.2112H0.753273C0.592018 12.2112 0.446226 12.1449 0.340196 12.0389C0.236374 11.9329 0.170105 11.7871 0.170105 11.6258V9.88956C0.170105 9.7283 0.236374 9.58251 0.342405 9.47648C0.448435 9.37045 0.594227 9.30639 0.755482 9.30639H11.1244C11.5441 8.97946 11.8445 8.58185 11.8423 8.01193ZM13.351 6.43031C13.5874 6.43031 13.7774 6.62249 13.7774 6.85664C13.7774 7.093 13.5852 7.28297 13.351 7.28297C13.1147 7.28297 12.9225 7.09079 12.9225 6.85664C12.9247 6.62249 13.1147 6.43031 13.351 6.43031ZM8.23063 0.627347H18.4692C18.6305 0.627347 18.763 0.759885 18.763 0.92114V5.86923C18.763 6.03049 18.6305 6.16302 18.4692 6.16302H8.23063C8.06938 6.16302 7.93684 6.03049 7.93684 5.86923V0.92114C7.93684 0.759885 8.06938 0.627347 8.23063 0.627347ZM18.5664 15.3501H26.0106V12.2134H18.5664V15.3501ZM26.0128 16.0283H18.5686V19.2269H26.0128V16.0283ZM26.0128 19.9094H18.5686V23.0506H26.0128V19.9094ZM4.16845 12.2134L3.29385 12.2112V23.0484H4.16845V12.2134ZM22.2355 13.5012C22.8761 13.5012 23.3952 13.605 23.3952 13.7354C23.3952 13.8657 22.8761 13.9695 22.2355 13.9695C21.5949 13.9695 21.0758 13.8635 21.0758 13.7354C21.0758 13.6073 21.5927 13.5012 22.2355 13.5012ZM22.2355 17.4199C22.8761 17.4199 23.3952 17.5304 23.3952 17.6673C23.3952 17.8043 22.8761 17.9147 22.2355 17.9147C21.5949 17.9147 21.0758 17.8043 21.0758 17.6673C21.0736 17.5304 21.5927 17.4199 22.2355 17.4199Z" fill="#737373"/>
</g>
<defs>
<clipPath id="clip0_357_2">
<rect width="27.1438" height="23.731" fill="white"/>
</clipPath>
</defs>
</svg>
