<svg width="21" height="18" viewBox="0 0 21 18" fill="none" xmlns="http://www.w3.org/2000/svg">
<path fill-rule="evenodd" clip-rule="evenodd" d="M9.57482 1C11.186 1 12.491 2.29999 12.491 3.90496C12.491 5.50992 11.186 6.80991 9.57482 6.80991C7.96366 6.80991 6.65864 5.50992 6.65864 3.90496C6.66019 2.29999 7.9652 1 9.57482 1ZM4.66865 8.324C5.07995 7.73716 5.64123 7.68787 6.46382 7.59237H12.576C13.5254 7.76488 14.1949 7.92969 14.6511 8.71523L18.2399 13.6041C18.6496 14.1616 19.0021 14.5097 19.0006 15.2522C18.9991 15.859 18.7053 16.4166 18.2213 16.7293C17.5997 17.1328 17.125 17.0142 16.4973 16.7955L14.0341 15.9391V18H4.89286V16.0608L2.03234 16.8987C1.09842 17.1005 0.432 16.7555 0.161411 16.107C-0.290086 15.0304 0.288202 14.2941 0.880405 13.4993L4.66865 8.324ZM4.9779 12.7092V9.21736L9.5207 10.753L14.1192 9.10492V12.7369C10.9448 12.0746 10.8118 14.941 12.774 15.8652L9.46504 16.8987L6.269 15.782C8.28527 14.8578 7.87398 11.8913 4.9779 12.7092Z" fill="#737373"/>
<path fill-rule="evenodd" clip-rule="evenodd" d="M15.8299 0.968304C15.827 1.09692 15.8485 1.15881 15.9596 1.15895H18.6312C19.1149 1.19711 19.5479 1.32536 19.9139 1.57527C20.168 1.74878 20.3535 1.95488 20.4934 2.18333C20.7417 2.58887 20.882 3.17365 20.958 3.64577C20.9908 3.8499 21.0061 4.04069 20.9711 4.12917C20.9545 4.17085 20.93 4.19897 20.8967 4.2123C20.713 4.28635 20.5188 4.03183 20.4153 3.91003C19.9226 3.33009 19.2065 3.09015 18.3621 3.0451H15.9198C15.8323 3.06034 15.8013 3.12538 15.8101 3.22572V3.91794C15.805 4.14799 15.6897 4.22629 15.4612 4.14865L13.3582 2.48773L13.1513 2.32432L13.0984 2.28257C12.9294 2.12957 12.9989 1.99026 13.1506 1.87L13.3111 1.74285L15.3263 0.146373C15.5722 -0.0485267 15.8299 -0.100676 15.8299 0.319372V0.968304ZM18.1703 8.03177C18.1733 7.90308 18.1518 7.84119 18.0408 7.84105H15.3691C14.8854 7.80289 14.4524 7.67471 14.0864 7.42473C13.8307 7.25012 13.6445 7.04263 13.5044 6.81257C13.2507 6.39611 13.0854 5.71825 13.0247 5.23177C13.0053 5.07657 13.0013 4.94129 13.0293 4.8709C13.0458 4.82923 13.0704 4.8011 13.1037 4.7877C13.2873 4.71365 13.4815 4.96817 13.585 5.08997C14.0778 5.66991 14.7939 5.90985 15.6382 5.9549H18.0806C18.168 5.93973 18.199 5.87462 18.1903 5.77428V5.08206C18.1954 4.85201 18.3107 4.77371 18.5392 4.85135L20.6422 6.51227L20.8491 6.67568L20.902 6.71743C21.071 6.87043 21.0015 7.00974 20.8497 7.13L20.6893 7.25715L18.6741 8.85363C18.4281 9.04853 18.1704 9.10068 18.1704 8.68063L18.1703 8.03177Z" fill="#737373"/>
</svg>
