<svg width="19" height="19" viewBox="0 0 19 19" fill="none" xmlns="http://www.w3.org/2000/svg">
<g clip-path="url(#clip0_143_109)">
<path d="M17.2019 16.7383L16.8916 16.3924L15.3812 17.8534C15.2961 17.9343 15.1816 17.9797 15.0623 17.9797C14.9429 17.9797 14.8284 17.9343 14.7433 17.8534L13.2044 16.409L11.6969 17.8091C11.6143 17.8909 11.502 17.9385 11.3838 17.9419C11.2656 17.9452 11.1507 17.9041 11.0633 17.8271L9.46282 16.398L7.98537 17.8783C7.89963 17.9606 7.78369 18.0069 7.66285 18.0069C7.542 18.0069 7.42606 17.9606 7.34032 17.8783L5.81853 16.398L4.24525 17.8423C4.15937 17.9216 4.04473 17.9652 3.92598 17.9637C3.80723 17.9621 3.69386 17.9155 3.61022 17.834L2.12276 16.3758L1.8224 16.712C1.76575 16.7872 1.68589 16.8431 1.59433 16.8716C1.50276 16.9002 1.40419 16.8999 1.3128 16.8708C1.2214 16.8418 1.14189 16.7854 1.08569 16.7099C1.02948 16.6344 0.999485 16.5436 1.00001 16.4505V1.43994C1.00038 1.32337 1.04842 1.21168 1.13364 1.12926C1.21885 1.04683 1.33432 1.00036 1.45483 1H17.5438C17.6645 0.999999 17.7803 1.04631 17.8659 1.12877C17.9514 1.21124 17.9996 1.32313 18 1.43994V16.4505C17.9993 16.5136 17.9849 16.5758 17.9575 16.633C17.9301 16.6903 17.8905 16.7412 17.8412 16.7826C17.7504 16.8586 17.632 16.8967 17.5121 16.8884C17.3922 16.8801 17.2807 16.8261 17.2019 16.7383ZM3.21496 9.02262L3.57681 8.23128H4.95415C4.93565 8.17077 4.90504 8.11436 4.86404 8.06527C4.8193 8.01056 4.7651 7.96375 4.70385 7.92692C4.63835 7.88552 4.56707 7.85338 4.49218 7.83146C4.41073 7.80453 4.32508 7.79142 4.23902 7.79272H3.21496L3.57681 7H7.5L7.13672 7.79272H6.18846C6.22702 7.82099 6.26205 7.85349 6.29287 7.88957C6.32522 7.92459 6.35396 7.96259 6.37868 8.00301C6.40156 8.04313 6.42302 8.08325 6.44018 8.12199C6.45526 8.15714 6.46629 8.19379 6.47308 8.23128H7.5L7.13672 9.02262H6.39298C6.33543 9.16226 6.25369 9.29139 6.15127 9.40446C6.04036 9.52715 5.91399 9.6359 5.77511 9.72819C5.62891 9.82411 5.47261 9.9048 5.30885 9.96891C5.14488 10.0343 4.97349 10.0808 4.79825 10.1073L6.85925 12.1534H5.23019L3.39231 10.2027V9.4764H4.20612C4.28448 9.47624 4.36227 9.46362 4.4364 9.43905C4.51155 9.41526 4.58282 9.38126 4.64807 9.33805C4.71049 9.30003 4.76686 9.25342 4.81541 9.19971C4.86001 9.14937 4.89402 9.0911 4.91553 9.02816L3.21496 9.02262ZM12.914 11.2376C13.0278 11.2376 13.137 11.2814 13.2174 11.3592C13.2979 11.437 13.3431 11.5426 13.3431 11.6527C13.3431 11.7627 13.2979 11.8683 13.2174 11.9461C13.137 12.024 13.0278 12.0677 12.914 12.0677H8.90931C8.79551 12.0677 8.68638 12.024 8.60591 11.9461C8.52544 11.8683 8.48024 11.7627 8.48024 11.6527C8.48024 11.5426 8.52544 11.437 8.60591 11.3592C8.68638 11.2814 8.79551 11.2376 8.90931 11.2376H12.914ZM15.1595 9.02409C15.2733 9.02409 15.3825 9.06782 15.4629 9.14565C15.5434 9.22349 15.5886 9.32905 15.5886 9.43913C15.5886 9.5492 15.5434 9.65477 15.4629 9.7326C15.3825 9.81044 15.2733 9.85417 15.1595 9.85417H8.90216C8.78836 9.85417 8.67923 9.81044 8.59876 9.7326C8.51829 9.65477 8.47308 9.5492 8.47308 9.43913C8.47308 9.32905 8.51829 9.22349 8.59876 9.14565C8.67923 9.06782 8.78836 9.02409 8.90216 9.02409H15.1595ZM15.1738 6.823C15.2876 6.823 15.3968 6.86673 15.4772 6.94456C15.5577 7.0224 15.6029 7.12796 15.6029 7.23804C15.6029 7.34811 15.5577 7.45368 15.4772 7.53151C15.3968 7.60935 15.2876 7.65308 15.1738 7.65308H8.90216C8.78836 7.65308 8.67923 7.60935 8.59876 7.53151C8.51829 7.45368 8.47308 7.34811 8.47308 7.23804C8.47308 7.12796 8.51829 7.0224 8.59876 6.94456C8.67923 6.86673 8.78836 6.823 8.90216 6.823H15.1738ZM14.7304 3.16927C14.9055 3.16923 15.0751 3.22791 15.2105 3.33529C15.3458 3.44268 15.4385 3.59214 15.4727 3.7582C15.5068 3.92426 15.4804 4.09664 15.398 4.24599C15.3155 4.39533 15.182 4.51239 15.0203 4.57721C14.8586 4.64204 14.6786 4.65062 14.5111 4.6015C14.3436 4.55238 14.1989 4.44859 14.1016 4.30783C14.0043 4.16706 13.9605 3.99802 13.9776 3.82951C13.9948 3.661 14.0718 3.50345 14.1955 3.38371C14.2655 3.31544 14.3489 3.26132 14.4407 3.2245C14.5325 3.18769 14.631 3.16891 14.7304 3.16927ZM11.2449 3.16927C11.4192 3.1695 11.588 3.22814 11.7226 3.33521C11.8572 3.44228 11.9493 3.59117 11.9832 3.75653C12.0171 3.92189 11.9908 4.09351 11.9086 4.24217C11.8264 4.39083 11.6935 4.50735 11.5325 4.57189C11.3715 4.63643 11.1923 4.64501 11.0255 4.59617C10.8587 4.54732 10.7146 4.44408 10.6176 4.304C10.5206 4.16392 10.4768 3.99566 10.4937 3.82787C10.5105 3.66008 10.587 3.50312 10.71 3.38371C10.7801 3.31562 10.8635 3.26162 10.9553 3.22482C11.0471 3.18802 11.1455 3.16914 11.2449 3.16927ZM7.76082 3.16927C7.93586 3.16923 8.10551 3.22791 8.24085 3.33529C8.37618 3.44268 8.46884 3.59214 8.50302 3.7582C8.53721 3.92426 8.51081 4.09664 8.42833 4.24599C8.34584 4.39533 8.21237 4.51239 8.05066 4.57721C7.88895 4.64204 7.70901 4.65062 7.54149 4.6015C7.37397 4.55238 7.22924 4.44859 7.13197 4.30783C7.03469 4.16706 6.99089 3.99802 7.00801 3.82951C7.02514 3.661 7.10215 3.50345 7.2259 3.38371C7.29591 3.31544 7.37925 3.26132 7.47109 3.2245C7.56292 3.18769 7.66141 3.16891 7.76082 3.16927ZM4.27529 3.16927C4.44957 3.1695 4.61839 3.22814 4.753 3.33521C4.88762 3.44228 4.97972 3.59117 5.01362 3.75653C5.04752 3.92189 5.02113 4.09351 4.93895 4.24217C4.85676 4.39083 4.72386 4.50735 4.56285 4.57189C4.40185 4.63643 4.2227 4.64501 4.05589 4.59617C3.88908 4.54732 3.74493 4.44408 3.64796 4.304C3.55099 4.16392 3.50721 3.99566 3.52406 3.82787C3.54091 3.66008 3.61735 3.50312 3.74037 3.38371C3.81052 3.31562 3.89389 3.26162 3.98569 3.22482C4.0775 3.18802 4.17591 3.16914 4.27529 3.16927ZM17.0918 15.3438V1.88127H1.91108V15.3327C1.99038 15.2973 2.07855 15.2847 2.16503 15.2965C2.25152 15.3083 2.33267 15.3439 2.3988 15.3991L3.94633 16.9098L5.51961 15.4655C5.60567 15.3865 5.72023 15.3431 5.83887 15.3447C5.95751 15.3462 6.07083 15.3926 6.15464 15.4738L7.66499 16.9333L9.12528 15.4779C9.20808 15.3963 9.32042 15.3489 9.43861 15.3458C9.55681 15.3428 9.67163 15.3842 9.75888 15.4613L11.3708 16.9001L12.8969 15.4821C12.9818 15.402 13.0957 15.3571 13.2144 15.3571C13.333 15.3571 13.447 15.402 13.5319 15.4821L15.0594 16.9195L16.5898 15.4378C16.6537 15.376 16.735 15.334 16.8237 15.317C16.9123 15.3 17.0041 15.3088 17.0875 15.3424L17.0918 15.3438Z" fill="#737373"/>
</g>
<defs>
<clipPath id="clip0_143_109">
<rect width="17" height="17" fill="white" transform="translate(1 1)"/>
</clipPath>
</defs>
</svg>
