<svg width="16" height="12" viewBox="0 0 16 12" fill="none" xmlns="http://www.w3.org/2000/svg">
<path fill-rule="evenodd" clip-rule="evenodd" d="M8.43128 2.79556C8.69855 3.0589 8.70374 3.48417 8.44339 3.74155L8.30241 3.88047L9.43548 4.97817L6.56993 7.69855L5.46626 6.57187L1.16405 10.811C0.9037 11.0675 0.47123 11.0624 0.203963 10.799C-0.0633037 10.5357 -0.0684934 10.1104 0.191854 9.85303L4.50964 5.59861L3.64556 4.71312L6.35456 1.99189L7.32416 2.92936L7.47293 2.78277C7.73241 2.5271 8.16401 2.53221 8.43128 2.79556ZM6.23693 0.687945C6.4497 0.897598 6.45403 1.23594 6.24644 1.44048L3.08681 4.55375C2.87923 4.75829 2.53584 4.75403 2.32307 4.54437C2.11029 4.33472 2.10597 3.99638 2.31355 3.79184L5.47318 0.67857C5.68077 0.47403 6.02415 0.478292 6.23693 0.687945ZM10.7286 5.11368C10.9413 5.32333 10.9457 5.66167 10.7381 5.86621L7.57845 8.98033C7.37086 9.18487 7.02748 9.18061 6.81471 8.97096C6.60193 8.7613 6.59761 8.42296 6.80519 8.21842L9.96482 5.10515C10.1724 4.89976 10.5158 4.90402 10.7286 5.11368Z" fill="#737373"/>
<path fill-rule="evenodd" clip-rule="evenodd" d="M10.7565 0.164785C8.65801 0.201375 7.01848 1.98777 7.11417 4.09729L6.37712 4.13073C6.19183 4.13913 6.11147 4.36881 6.24911 4.49233L7.45098 5.60986C7.53712 5.68967 7.66476 5.68388 7.74333 5.59659L8.83908 4.37485C8.96085 4.23956 8.86003 4.0181 8.67474 4.0265L7.93769 4.05994C7.86379 2.4308 9.1135 1.05556 10.7285 1.00323C12.2612 0.954631 13.6094 2.20366 13.7004 3.75667C13.7951 5.38905 12.5585 6.78043 10.9527 6.85328C10.2897 6.88335 9.66577 6.68143 9.16227 6.31499C8.9917 6.19296 8.76168 6.21595 8.62027 6.37306C8.45529 6.55635 8.48109 6.85238 8.68144 6.99398C9.33006 7.46686 10.13 7.72777 10.9905 7.68873C13.0699 7.59441 14.675 5.77609 14.5209 3.65247C14.3785 1.69576 12.6901 0.131488 10.7565 0.164785ZM10.6413 2.26295C10.4725 2.27061 10.3389 2.41898 10.3467 2.59025L10.4164 4.12749C10.423 4.27369 10.5075 4.40799 10.6345 4.47758L11.9542 5.1921C12.1064 5.2731 12.2935 5.21438 12.3734 5.06425C12.453 4.90995 12.3949 4.72004 12.2468 4.63885L11.0285 3.97833L10.9641 2.55806C10.9565 2.39097 10.8101 2.25529 10.6413 2.26295Z" fill="#737373"/>
</svg>
