<svg width="279" height="279" viewBox="0 0 279 279" fill="none" xmlns="http://www.w3.org/2000/svg">
<path d="M151.125 34.875H95.325C82.3038 34.875 75.7931 34.875 70.8197 37.4091C66.4449 39.6381 62.8881 43.1949 60.6591 47.5697C58.125 52.5431 58.125 59.0538 58.125 72.075V206.925C58.125 219.946 58.125 226.457 60.6591 231.431C62.8881 235.805 66.4449 239.362 70.8197 241.591C75.7931 244.125 82.3038 244.125 95.325 244.125H139.5M151.125 34.875L220.875 104.625M151.125 34.875V86.025C151.125 92.5356 151.125 95.7909 152.392 98.2776C153.507 100.465 155.284 102.243 157.472 103.358C159.959 104.625 163.214 104.625 169.725 104.625H220.875M220.875 104.625V116.25" stroke="black" stroke-width="9.41625" stroke-linecap="round" stroke-linejoin="round"/>
<g clip-path="url(#clip0_396_43)">
<path fill-rule="evenodd" clip-rule="evenodd" d="M159.76 153.96C154.95 153.96 149.68 153.18 145.2 154.96V154.84C144.16 155.3 143.14 155.93 142.16 156.7L142.13 156.73C141.22 157.45 140.35 158.3 139.54 159.26V159.27C139.45 159.38 139.36 159.49 139.27 159.6C139.23 159.65 139.19 159.7 139.14 159.76L139.13 159.78C139.03 159.89 138.94 160 138.86 160.11L138.85 160.12C138.81 160.17 138.78 160.22 138.74 160.27L138.72 160.29V160.3C138.68 160.35 138.65 160.4 138.61 160.45L138.58 160.5L138.48 160.64L138.47 160.66C138.43 160.71 138.39 160.77 138.35 160.82L138.32 160.86L138.23 160.98L138.2 161.02C138.16 161.07 138.13 161.12 138.1 161.17L138.09 161.18L138.07 161.21C138.04 161.25 138.01 161.3 137.98 161.34L137.94 161.4C137.9 161.45 137.87 161.51 137.83 161.56V161.57C137.79 161.62 137.76 161.68 137.72 161.74L137.7 161.78L137.61 161.92L137.59 161.96C137.56 162.02 137.52 162.07 137.49 162.13L137.46 162.18L137.39 162.3L137.35 162.37C137.32 162.42 137.29 162.48 137.25 162.53L137.23 162.56L137.15 162.7L137.12 162.76C137.09 162.82 137.06 162.87 137.03 162.93V162.94C137 163 136.96 163.06 136.93 163.12L136.91 163.16L136.83 163.31L136.81 163.35L136.7 163.52L136.67 163.59L136.6 163.73L136.58 163.77C136.55 163.83 136.52 163.89 136.49 163.95L136.46 164L136.39 164.14L136.37 164.19C136.34 164.25 136.31 164.32 136.28 164.38C134.58 167.97 134.13 170.67 133.85 174.5C133.28 178.36 132.98 182.19 133 185.96C133.01 186.05 133.03 186.14 133.05 186.23V186.24C133.07 186.32 133.09 186.41 133.11 186.49V186.5C133.13 186.58 133.15 186.66 133.17 186.73L133.18 186.75C133.2 186.82 133.22 186.9 133.25 186.97L133.26 186.99C133.28 187.06 133.31 187.12 133.33 187.19L133.34 187.22C133.36 187.28 133.39 187.34 133.42 187.4L133.44 187.44C133.47 187.5 133.49 187.55 133.52 187.61C135.21 190.93 139.93 190.03 141.53 187.33L141.54 187.31L141.55 187.29C141.57 187.26 141.59 187.23 141.6 187.19C141.62 187.16 141.63 187.13 141.64 187.1C141.65 187.08 141.66 187.05 141.67 187.03C141.69 186.99 141.71 186.95 141.72 186.92L141.74 186.87C141.76 186.82 141.78 186.78 141.8 186.73L141.81 186.7C141.83 186.65 141.85 186.6 141.86 186.54V186.53C141.88 186.47 141.9 186.41 141.91 186.35V186.34C141.93 186.28 141.94 186.22 141.95 186.16C141.96 186.1 141.97 186.03 141.98 185.97L142.89 174.13C143.03 172.34 143.15 171.13 143.87 169.43C144.21 168.63 144.62 167.94 145.1 167.38L145.17 170.55L145.58 189L139.64 224.54C139.71 231.5 149.08 231.46 150.1 225.72L155.48 194.02L160.74 225.23C162.95 233.02 172.07 230.11 171.2 224.18L169.64 212.26L165.54 188.8L165.86 170.18V170.54L165.87 170.04L169.91 175.62C170.71 176.73 171.89 177.41 173.14 177.62L182.65 179.45V194.73H174.41C173.37 194.73 172.5 195.6 172.5 196.64C172.5 197.68 173.37 198.55 174.41 198.55H212.85V207.09C212.62 207.16 212.41 207.32 212.21 207.49H212.18L200.26 218.8C199.49 219.5 199.46 220.71 200.19 221.48C200.89 222.25 202.1 222.28 202.87 221.55L212.82 212.11V220.72C212.82 221.76 213.69 222.63 214.73 222.63C215.77 222.63 216.64 221.76 216.64 220.72V212.48L226.22 221.56C226.96 222.3 228.16 222.26 228.9 221.49C229.64 220.75 229.6 219.55 228.83 218.81L216.91 207.48C216.81 207.41 216.74 207.35 216.64 207.28V198.54H253.97C255.01 198.54 255.88 197.67 255.88 196.63C255.88 195.59 255.01 194.72 253.97 194.72H245.63V147.49H253.77C254.81 147.49 255.68 146.62 255.68 145.58C255.68 144.54 254.81 143.67 253.77 143.67H216.37V138.11C216.37 137.07 215.5 136.2 214.46 136.2C213.42 136.2 212.55 137.07 212.55 138.11V143.67H174.42C173.38 143.67 172.51 144.54 172.51 145.58C172.51 146.62 173.38 147.49 174.42 147.49H182.66V169.23L176.88 168.12L168.78 156.93C168.04 155.91 166.99 155.25 165.85 154.99C164.06 154.3 162.05 153.96 159.76 153.96ZM187.72 170.21L199.36 158C199.83 157.51 200.61 157.49 201.11 157.96C201.6 158.43 201.62 159.21 201.15 159.71L189.96 171.44C191.16 172.58 191.77 174.28 191.44 176.03C190.98 178.45 188.85 180.13 186.47 180.11V194.74H241.84V147.49H186.47V169.97L187.45 170.16C187.54 170.17 187.63 170.19 187.72 170.21ZM155.49 131C161.35 131 166.11 135.75 166.11 141.62C166.11 147.48 161.36 152.24 155.49 152.24C149.63 152.24 144.87 147.49 144.87 141.62C144.87 135.75 149.62 131 155.49 131Z" fill="black"/>
</g>
<defs>
<clipPath id="clip0_396_43">
<rect width="122.88" height="98.94" fill="white" transform="translate(133 131)"/>
</clipPath>
</defs>
</svg>
