<svg width="279" height="279" viewBox="0 0 279 279" fill="none" xmlns="http://www.w3.org/2000/svg">
<path d="M151.125 34.875H95.325C82.3038 34.875 75.7931 34.875 70.8197 37.4091C66.4449 39.6381 62.8881 43.1949 60.6591 47.5697C58.125 52.5431 58.125 59.0538 58.125 72.075V206.925C58.125 219.946 58.125 226.457 60.6591 231.431C62.8881 235.805 66.4449 239.362 70.8197 241.591C75.7931 244.125 82.3038 244.125 95.325 244.125H139.5M151.125 34.875L220.875 104.625M151.125 34.875V86.025C151.125 92.5356 151.125 95.7909 152.392 98.2776C153.507 100.465 155.284 102.243 157.472 103.358C159.959 104.625 163.214 104.625 169.725 104.625H220.875M220.875 104.625V116.25" stroke="black" stroke-width="9.41625" stroke-linecap="round" stroke-linejoin="round"/>
<path d="M232.765 158.348C232.748 158.193 232.722 158.03 232.722 157.857C232.722 157.694 232.731 157.53 232.765 157.366V146.604C225.217 145.889 217.436 146.716 210.638 149.292C204.288 151.705 198.807 155.66 195.249 161.338V222.645C200.789 218.948 206.45 215.907 212.266 213.839C218.893 211.478 225.708 210.358 232.765 210.918V158.348ZM188.726 222.007V161.235C185.305 155.203 179.773 151.171 173.535 148.775C166.461 146.07 158.508 145.458 151.58 146.44L151.21 211.107C158.766 210.832 166.168 211.797 173.121 214.072C178.662 215.872 183.909 218.518 188.726 222.007Z" fill="black"/>
<path d="M144.704 214.287L145.006 161.132H139V228.771C147.246 226.643 155.518 225.29 163.859 225.23C171.553 225.187 179.248 226.255 186.96 228.866C182.169 224.989 176.827 222.128 171.122 220.276C163.945 217.932 156.181 217.156 148.22 217.837C146.419 217.984 144.851 216.648 144.696 214.856C144.678 214.658 144.678 214.468 144.704 214.287ZM198.411 228.366C205.623 226.1 212.818 225.17 220.021 225.213C228.353 225.256 236.634 226.626 244.88 228.754V161.132H239.296V214.58C239.296 216.381 237.832 217.846 236.031 217.846C235.772 217.846 235.522 217.82 235.281 217.759C228.138 216.639 221.219 217.57 214.464 219.974C209.018 221.913 203.676 224.816 198.411 228.366Z" fill="black"/>
</svg>
