<svg width="28" height="28" viewBox="0 0 28 28" fill="none" xmlns="http://www.w3.org/2000/svg">
<path d="M3.46854 20.8039H13.2343C12.9956 20.1296 12.8743 19.4233 12.8743 18.6987C12.8743 17.8464 13.0414 17.0193 13.3709 16.2403C13.689 15.4882 14.1443 14.8128 14.7241 14.2331C15.3038 13.6533 15.9791 13.1981 16.7312 12.88C17.5103 12.5505 18.3374 12.3834 19.1896 12.3834C20.0418 12.3834 20.869 12.5505 21.648 12.88C21.7243 12.9122 21.7995 12.9463 21.8742 12.9814V10.5322V6.43781C21.8742 5.62676 21.2167 4.96927 20.4057 4.96927H18.8795V3.97903C18.8795 3.43834 18.4412 3 17.9005 3H16.5704C16.0297 3 15.5914 3.43834 15.5914 3.97903V4.96924H13.5813V3.97903C13.5813 3.43834 13.1429 3 12.6022 3H11.2721C10.7314 3 10.2931 3.43834 10.2931 3.97903V4.96924H8.28294V3.97903C8.28294 3.43834 7.84461 3 7.30392 3H5.97378C5.43306 3 4.99475 3.43834 4.99475 3.97903V4.96924H3.46854C2.65749 4.96924 2 5.62673 2 6.43779V10.5322V19.3353C2 20.1463 2.65749 20.8039 3.46854 20.8039ZM3.10141 6.43781C3.10141 6.23537 3.26611 6.07068 3.46854 6.07068H4.99473V6.66683C4.99473 7.20752 5.43304 7.64586 5.97376 7.64586H7.30389C7.84458 7.64586 8.28292 7.20752 8.28292 6.66683V6.07068H10.293V6.66683C10.293 7.20752 10.7314 7.64586 11.2721 7.64586H12.6022C13.1429 7.64586 13.5812 7.20752 13.5812 6.66683V6.07068H15.5913V6.66683C15.5913 7.20752 16.0297 7.64586 16.5704 7.64586H17.9005C18.4413 7.64586 18.8796 7.20752 18.8796 6.66683V6.07068H20.4057C20.6082 6.07068 20.7729 6.23537 20.7729 6.43781V9.43083H3.10138L3.10141 6.43781Z" fill="#737373"/>
<path d="M25.1621 18.8607C25.1621 16.7515 23.992 14.9159 22.2657 13.9669C21.4691 13.5289 20.5542 13.2797 19.581 13.2797C16.4987 13.2797 14 15.7784 14 18.8607C14 19.6056 14.1463 20.3162 14.4111 20.9659C15.2421 23.0046 17.2436 24.4417 19.5811 24.4417C22.6634 24.4417 25.1621 21.943 25.1621 18.8607ZM22.2657 19.3502H20.2445C20.0949 19.5543 19.8535 19.6869 19.5811 19.6869C19.1269 19.6869 18.7587 19.3188 18.7587 18.8646C18.7587 18.5939 18.8897 18.3538 19.0916 18.204V14.9176C19.0916 14.6472 19.3107 14.4281 19.5811 14.4281C19.8514 14.4281 20.0706 14.6472 20.0706 14.9176V18.204C20.1343 18.2513 20.1911 18.3076 20.2388 18.3711H22.2657H23.5241C23.7945 18.3711 24.0136 18.5903 24.0136 18.8606C24.0136 19.131 23.7945 19.3501 23.5241 19.3501L22.2657 19.3502Z" fill="#737373"/>
</svg>
