<svg width="13" height="13" viewBox="0 0 13 13" fill="none" xmlns="http://www.w3.org/2000/svg">
<path d="M9.11938 0.25C11.05 0.25 12.125 1.3625 12.125 3.26875V9.725C12.125 11.6625 11.05 12.75 9.11938 12.75H3.88125C1.98125 12.75 0.875 11.6625 0.875 9.725V3.26875C0.875 1.3625 1.98125 0.25 3.88125 0.25H9.11938ZM4.05 8.8375C3.8625 8.81875 3.68125 8.90625 3.58125 9.06875C3.48125 9.225 3.48125 9.43125 3.58125 9.59375C3.68125 9.75 3.8625 9.84375 4.05 9.81875H8.95C9.19938 9.79375 9.3875 9.58062 9.3875 9.33125C9.3875 9.075 9.19938 8.8625 8.95 8.8375H4.05ZM8.95 5.98688H4.05C3.78062 5.98688 3.5625 6.20625 3.5625 6.475C3.5625 6.74375 3.78062 6.9625 4.05 6.9625H8.95C9.21875 6.9625 9.4375 6.74375 9.4375 6.475C9.4375 6.20625 9.21875 5.98688 8.95 5.98688ZM5.91813 3.15625H4.05V3.1625C3.78062 3.1625 3.5625 3.38125 3.5625 3.65C3.5625 3.91875 3.78062 4.1375 4.05 4.1375H5.91813C6.1875 4.1375 6.40625 3.91875 6.40625 3.64313C6.40625 3.375 6.1875 3.15625 5.91813 3.15625Z" fill="#121212" fill-opacity="0.6"/>
</svg>
