<svg width="13" height="13" viewBox="0 0 13 13" fill="none" xmlns="http://www.w3.org/2000/svg">
<path d="M9.20864 0.25C11.3269 0.25 12.75 1.73632 12.75 3.94795V9.05205C12.75 11.2637 11.3269 12.75 9.20801 12.75H3.79136C1.67306 12.75 0.25 11.2637 0.25 9.05205V3.94795C0.25 1.73632 1.67306 0.25 3.79136 0.25H9.20864ZM9.89787 6.84378C9.2279 6.42583 8.71066 7.01277 8.57114 7.20046C8.43664 7.38171 8.321 7.58166 8.19907 7.7816C7.90117 8.27503 7.5599 8.84391 6.96913 9.17479C6.11062 9.65016 5.45888 9.2122 4.99003 8.89358C4.81405 8.7749 4.6431 8.66267 4.47278 8.58785C4.05296 8.4066 3.67524 8.613 3.11463 9.32508C2.8205 9.69724 2.52888 10.0662 2.23349 10.4338C2.05689 10.6538 2.09899 10.993 2.33719 11.1401C2.71742 11.3742 3.18125 11.5 3.7054 11.5H8.97274C9.27001 11.5 9.56791 11.4594 9.85199 11.3665C10.4918 11.1575 10.9996 10.6789 11.2648 10.0468C11.4886 9.51535 11.5973 8.87036 11.388 8.33372C11.3182 8.1557 11.2139 7.98994 11.0675 7.84417C10.6835 7.46298 10.3246 7.10694 9.89787 6.84378ZM4.31179 2.75C3.45013 2.75 2.75 3.45108 2.75 4.3125C2.75 5.17392 3.45013 5.875 4.31179 5.875C5.17281 5.875 5.87357 5.17392 5.87357 4.3125C5.87357 3.45108 5.17281 2.75 4.31179 2.75Z" fill="#121212" fill-opacity="0.6"/>
</svg>
