<svg width="22" height="22" viewBox="0 0 22 22" fill="none" xmlns="http://www.w3.org/2000/svg">
<path d="M18.333 18.3337H6.41634C5.93011 18.3337 5.4638 18.1405 5.11998 17.7967C4.77616 17.4529 4.58301 16.9866 4.58301 16.5003V8.19533L2.04384 5.17033C1.91551 5.01449 1.83301 4.80366 1.83301 4.58366C1.83301 4.34054 1.92958 4.10739 2.10149 3.93548C2.2734 3.76357 2.50656 3.66699 2.74967 3.66699H18.333C18.8192 3.66699 19.2856 3.86015 19.6294 4.20396C19.9732 4.54778 20.1663 5.0141 20.1663 5.50033V16.5003C20.1663 16.9866 19.9732 17.4529 19.6294 17.7967C19.2856 18.1405 18.8192 18.3337 18.333 18.3337ZM7.79134 6.41699C7.66978 6.41699 7.5532 6.46528 7.46725 6.55123C7.3813 6.63719 7.33301 6.75377 7.33301 6.87533V7.79199C7.33301 7.91355 7.3813 8.03013 7.46725 8.11608C7.5532 8.20204 7.66978 8.25033 7.79134 8.25033H16.958C17.0796 8.25033 17.1961 8.20204 17.2821 8.11608C17.3681 8.03013 17.4163 7.91355 17.4163 7.79199V6.87533C17.4163 6.75377 17.3681 6.63719 17.2821 6.55123C17.1961 6.46528 17.0796 6.41699 16.958 6.41699H7.79134ZM7.79134 10.0837C7.66978 10.0837 7.5532 10.1319 7.46725 10.2179C7.3813 10.3039 7.33301 10.4204 7.33301 10.542V11.4587C7.33301 11.5802 7.3813 11.6968 7.46725 11.7828C7.5532 11.8687 7.66978 11.917 7.79134 11.917H16.958C17.0796 11.917 17.1961 11.8687 17.2821 11.7828C17.3681 11.6968 17.4163 11.5802 17.4163 11.4587V10.542C17.4163 10.4204 17.3681 10.3039 17.2821 10.2179C17.1961 10.1319 17.0796 10.0837 16.958 10.0837H7.79134ZM7.79134 13.7503C7.66978 13.7503 7.5532 13.7986 7.46725 13.8846C7.3813 13.9705 7.33301 14.0871 7.33301 14.2087V15.1253C7.33301 15.2469 7.3813 15.3635 7.46725 15.4494C7.5532 15.5354 7.66978 15.5837 7.79134 15.5837H12.3747C12.4962 15.5837 12.6128 15.5354 12.6988 15.4494C12.7847 15.3635 12.833 15.2469 12.833 15.1253V14.2087C12.833 14.0871 12.7847 13.9705 12.6988 13.8846C12.6128 13.7986 12.4962 13.7503 12.3747 13.7503H7.79134Z" fill="#1C023B"/>
</svg>
