<svg width="15" height="15" viewBox="0 0 15 15" fill="none" xmlns="http://www.w3.org/2000/svg">
<path d="M6.25 8.12449C6.51841 8.48332 6.86085 8.78023 7.25409 8.99508C7.64734 9.20993 8.08219 9.33769 8.52916 9.3697C8.97612 9.40171 9.42474 9.33722 9.84459 9.1806C10.2644 9.02399 10.6457 8.77891 10.9625 8.46199L12.8375 6.58699C13.4067 5.99761 13.7217 5.20823 13.7146 4.38886C13.7075 3.5695 13.3788 2.78571 12.7994 2.20631C12.22 1.62691 11.4362 1.29825 10.6169 1.29113C9.79751 1.28401 9.00813 1.599 8.41875 2.16824L7.34375 3.23699" stroke="#121212" stroke-opacity="0.6" stroke-width="1.4" stroke-linecap="round" stroke-linejoin="round"/>
<path d="M8.74988 6.87429C8.48147 6.51546 8.13903 6.21855 7.74579 6.0037C7.35254 5.78885 6.91769 5.66109 6.47072 5.62908C6.02376 5.59707 5.57514 5.66156 5.15529 5.81817C4.73544 5.97479 4.35418 6.21987 4.03738 6.53679L2.16238 8.41179C1.59314 9.00117 1.27815 9.79055 1.28527 10.6099C1.29239 11.4293 1.62105 12.2131 2.20045 12.7925C2.77985 13.3719 3.56364 13.7005 4.383 13.7076C5.20237 13.7148 5.99175 13.3998 6.58113 12.8305L7.64988 11.7618" stroke="#121212" stroke-opacity="0.6" stroke-width="1.4" stroke-linecap="round" stroke-linejoin="round"/>
</svg>
