<svg width="42" height="42" viewBox="0 0 42 42" fill="none" xmlns="http://www.w3.org/2000/svg">
<path d="M0 21C0 9.40202 9.40202 0 21 0C32.598 0 42 9.40202 42 21C42 32.598 32.598 42 21 42C9.40202 42 0 32.598 0 21Z" fill="#1C023B"/>
<path d="M17.25 14.125C17.25 13.031 17.6451 11.9818 18.3483 11.2082C19.0516 10.4346 20.0054 10 21 10C21.9946 10 22.9484 10.4346 23.6517 11.2082C24.3549 11.9818 24.75 13.031 24.75 14.125V21C24.75 22.094 24.3549 23.1432 23.6517 23.9168C22.9484 24.6904 21.9946 25.125 21 25.125C20.0054 25.125 19.0516 24.6904 18.3483 23.9168C17.6451 23.1432 17.25 22.094 17.25 21V14.125Z" fill="white"/>
<path d="M15.375 18.9375C15.5408 18.9375 15.6997 19.0099 15.8169 19.1389C15.9342 19.2678 16 19.4427 16 19.625V21C16 22.4587 16.5268 23.8576 17.4645 24.8891C18.4021 25.9205 19.6739 26.5 21 26.5C22.3261 26.5 23.5979 25.9205 24.5355 24.8891C25.4732 23.8576 26 22.4587 26 21V19.625C26 19.4427 26.0658 19.2678 26.1831 19.1389C26.3003 19.0099 26.4592 18.9375 26.625 18.9375C26.7908 18.9375 26.9497 19.0099 27.0669 19.1389C27.1842 19.2678 27.25 19.4427 27.25 19.625V21C27.25 22.7044 26.6745 24.348 25.6352 25.6119C24.5958 26.8759 23.1666 27.6702 21.625 27.8406V30.625H25.375C25.5408 30.625 25.6997 30.6974 25.8169 30.8264C25.9342 30.9553 26 31.1302 26 31.3125C26 31.4948 25.9342 31.6697 25.8169 31.7986C25.6997 31.9276 25.5408 32 25.375 32H16.625C16.4592 32 16.3003 31.9276 16.1831 31.7986C16.0658 31.6697 16 31.4948 16 31.3125C16 31.1302 16.0658 30.9553 16.1831 30.8264C16.3003 30.6974 16.4592 30.625 16.625 30.625H20.375V27.8406C18.8334 27.6702 17.4042 26.8759 16.3648 25.6119C15.3255 24.348 14.75 22.7044 14.75 21V19.625C14.75 19.4427 14.8158 19.2678 14.9331 19.1389C15.0503 19.0099 15.2092 18.9375 15.375 18.9375Z" fill="white"/>
</svg>
