<svg width="98" height="20" viewBox="0 0 98 20" fill="none" xmlns="http://www.w3.org/2000/svg">
<path d="M4.83984 4.92871L1.54492 14H0.198242L3.99219 4.04688H4.86035L4.83984 4.92871ZM7.60156 14L4.2998 4.92871L4.2793 4.04688H5.14746L8.95508 14H7.60156ZM7.43066 10.3154V11.3955H1.83887V10.3154H7.43066ZM14.7588 12.5645V3.5H16.0303V14H14.8682L14.7588 12.5645ZM9.78223 10.3838V10.2402C9.78223 9.67513 9.85059 9.16243 9.9873 8.70215C10.1286 8.2373 10.3268 7.83854 10.582 7.50586C10.8418 7.17318 11.1494 6.91797 11.5049 6.74023C11.8649 6.55794 12.266 6.4668 12.708 6.4668C13.1729 6.4668 13.5785 6.54883 13.9248 6.71289C14.2757 6.8724 14.5719 7.1071 14.8135 7.41699C15.0596 7.72233 15.2533 8.09147 15.3945 8.52441C15.5358 8.95736 15.6338 9.44727 15.6885 9.99414V10.623C15.6383 11.1654 15.5404 11.653 15.3945 12.0859C15.2533 12.5189 15.0596 12.888 14.8135 13.1934C14.5719 13.4987 14.2757 13.7334 13.9248 13.8975C13.5739 14.057 13.1637 14.1367 12.6943 14.1367C12.2614 14.1367 11.8649 14.0433 11.5049 13.8564C11.1494 13.6696 10.8418 13.4076 10.582 13.0703C10.3268 12.7331 10.1286 12.3366 9.9873 11.8809C9.85059 11.4206 9.78223 10.9215 9.78223 10.3838ZM11.0537 10.2402V10.3838C11.0537 10.7529 11.0902 11.0993 11.1631 11.4229C11.2406 11.7464 11.359 12.0312 11.5186 12.2773C11.6781 12.5234 11.8809 12.7171 12.127 12.8584C12.373 12.9951 12.667 13.0635 13.0088 13.0635C13.4281 13.0635 13.7721 12.9746 14.041 12.7969C14.3145 12.6191 14.5332 12.3844 14.6973 12.0928C14.8613 11.8011 14.9889 11.4844 15.0801 11.1426V9.49512C15.0254 9.24447 14.9456 9.00293 14.8408 8.77051C14.7406 8.53353 14.6084 8.32389 14.4443 8.1416C14.2848 7.95475 14.0866 7.80664 13.8496 7.69727C13.6172 7.58789 13.3415 7.5332 13.0225 7.5332C12.6761 7.5332 12.3776 7.60612 12.127 7.75195C11.8809 7.89323 11.6781 8.08919 11.5186 8.33984C11.359 8.58594 11.2406 8.87305 11.1631 9.20117C11.0902 9.52474 11.0537 9.87109 11.0537 10.2402ZM22.6611 12.5645V3.5H23.9326V14H22.7705L22.6611 12.5645ZM17.6846 10.3838V10.2402C17.6846 9.67513 17.7529 9.16243 17.8896 8.70215C18.0309 8.2373 18.2292 7.83854 18.4844 7.50586C18.7441 7.17318 19.0518 6.91797 19.4072 6.74023C19.7673 6.55794 20.1683 6.4668 20.6104 6.4668C21.0752 6.4668 21.4808 6.54883 21.8271 6.71289C22.1781 6.8724 22.4743 7.1071 22.7158 7.41699C22.9619 7.72233 23.1556 8.09147 23.2969 8.52441C23.4382 8.95736 23.5361 9.44727 23.5908 9.99414V10.623C23.5407 11.1654 23.4427 11.653 23.2969 12.0859C23.1556 12.5189 22.9619 12.888 22.7158 13.1934C22.4743 13.4987 22.1781 13.7334 21.8271 13.8975C21.4762 14.057 21.0661 14.1367 20.5967 14.1367C20.1637 14.1367 19.7673 14.0433 19.4072 13.8564C19.0518 13.6696 18.7441 13.4076 18.4844 13.0703C18.2292 12.7331 18.0309 12.3366 17.8896 11.8809C17.7529 11.4206 17.6846 10.9215 17.6846 10.3838ZM18.9561 10.2402V10.3838C18.9561 10.7529 18.9925 11.0993 19.0654 11.4229C19.1429 11.7464 19.2614 12.0312 19.4209 12.2773C19.5804 12.5234 19.7832 12.7171 20.0293 12.8584C20.2754 12.9951 20.5693 13.0635 20.9111 13.0635C21.3304 13.0635 21.6745 12.9746 21.9434 12.7969C22.2168 12.6191 22.4355 12.3844 22.5996 12.0928C22.7637 11.8011 22.8913 11.4844 22.9824 11.1426V9.49512C22.9277 9.24447 22.848 9.00293 22.7432 8.77051C22.6429 8.53353 22.5107 8.32389 22.3467 8.1416C22.1872 7.95475 21.9889 7.80664 21.752 7.69727C21.5195 7.58789 21.2438 7.5332 20.9248 7.5332C20.5785 7.5332 20.2799 7.60612 20.0293 7.75195C19.7832 7.89323 19.5804 8.08919 19.4209 8.33984C19.2614 8.58594 19.1429 8.87305 19.0654 9.20117C18.9925 9.52474 18.9561 9.87109 18.9561 10.2402ZM37.2285 8.70898V9.33789C37.2285 10.0853 37.1351 10.7552 36.9482 11.3477C36.7614 11.9401 36.4925 12.4437 36.1416 12.8584C35.7907 13.2731 35.3691 13.5898 34.877 13.8086C34.3893 14.0273 33.8424 14.1367 33.2363 14.1367C32.6484 14.1367 32.1084 14.0273 31.6162 13.8086C31.1286 13.5898 30.7048 13.2731 30.3447 12.8584C29.9893 12.4437 29.7135 11.9401 29.5176 11.3477C29.3216 10.7552 29.2236 10.0853 29.2236 9.33789V8.70898C29.2236 7.96159 29.3193 7.29395 29.5107 6.70605C29.7067 6.11361 29.9824 5.61003 30.3379 5.19531C30.6934 4.77604 31.1149 4.45703 31.6025 4.23828C32.0947 4.01953 32.6348 3.91016 33.2227 3.91016C33.8288 3.91016 34.3757 4.01953 34.8633 4.23828C35.3555 4.45703 35.777 4.77604 36.1279 5.19531C36.4834 5.61003 36.7546 6.11361 36.9414 6.70605C37.1328 7.29395 37.2285 7.96159 37.2285 8.70898ZM35.9229 9.33789V8.69531C35.9229 8.10286 35.8613 7.57878 35.7383 7.12305C35.6198 6.66732 35.4443 6.28451 35.2119 5.97461C34.9795 5.66471 34.6947 5.43001 34.3574 5.27051C34.0247 5.111 33.6465 5.03125 33.2227 5.03125C32.8125 5.03125 32.4411 5.111 32.1084 5.27051C31.7803 5.43001 31.4977 5.66471 31.2607 5.97461C31.0283 6.28451 30.8483 6.66732 30.7207 7.12305C30.5931 7.57878 30.5293 8.10286 30.5293 8.69531V9.33789C30.5293 9.9349 30.5931 10.4635 30.7207 10.9238C30.8483 11.3796 31.0306 11.7646 31.2676 12.0791C31.5091 12.389 31.7939 12.6237 32.1221 12.7832C32.4548 12.9427 32.8262 13.0225 33.2363 13.0225C33.6647 13.0225 34.0452 12.9427 34.3779 12.7832C34.7106 12.6237 34.9909 12.389 35.2188 12.0791C35.4512 11.7646 35.6266 11.3796 35.7451 10.9238C35.8636 10.4635 35.9229 9.9349 35.9229 9.33789ZM40.2773 8.02539V16.8438H39.0059V6.60352H40.168L40.2773 8.02539ZM45.2607 10.2402V10.3838C45.2607 10.9215 45.1969 11.4206 45.0693 11.8809C44.9417 12.3366 44.7549 12.7331 44.5088 13.0703C44.2673 13.4076 43.9688 13.6696 43.6133 13.8564C43.2578 14.0433 42.8499 14.1367 42.3896 14.1367C41.9202 14.1367 41.5055 14.0592 41.1455 13.9043C40.7855 13.7493 40.4801 13.5238 40.2295 13.2275C39.9788 12.9313 39.7783 12.5758 39.6279 12.1611C39.4821 11.7464 39.3818 11.2793 39.3271 10.7598V9.99414C39.3818 9.44727 39.4844 8.95736 39.6348 8.52441C39.7852 8.09147 39.9834 7.72233 40.2295 7.41699C40.4801 7.1071 40.7832 6.8724 41.1387 6.71289C41.4941 6.54883 41.9043 6.4668 42.3691 6.4668C42.834 6.4668 43.2464 6.55794 43.6064 6.74023C43.9665 6.91797 44.2695 7.17318 44.5156 7.50586C44.7617 7.83854 44.9463 8.2373 45.0693 8.70215C45.1969 9.16243 45.2607 9.67513 45.2607 10.2402ZM43.9893 10.3838V10.2402C43.9893 9.87109 43.9505 9.52474 43.873 9.20117C43.7956 8.87305 43.6748 8.58594 43.5107 8.33984C43.3512 8.08919 43.1462 7.89323 42.8955 7.75195C42.6449 7.60612 42.3464 7.5332 42 7.5332C41.681 7.5332 41.403 7.58789 41.166 7.69727C40.9336 7.80664 40.7354 7.95475 40.5713 8.1416C40.4072 8.32389 40.2728 8.53353 40.168 8.77051C40.0677 9.00293 39.9925 9.24447 39.9424 9.49512V11.2656C40.0335 11.5846 40.1611 11.8854 40.3252 12.168C40.4893 12.446 40.708 12.6715 40.9814 12.8447C41.2549 13.0133 41.599 13.0977 42.0137 13.0977C42.3555 13.0977 42.6494 13.027 42.8955 12.8857C43.1462 12.7399 43.3512 12.5417 43.5107 12.291C43.6748 12.0404 43.7956 11.7533 43.873 11.4297C43.9505 11.1016 43.9893 10.7529 43.9893 10.3838ZM49.9707 6.60352V7.57422H45.9717V6.60352H49.9707ZM47.3252 4.80566H48.5898V12.168C48.5898 12.4186 48.6286 12.6077 48.7061 12.7354C48.7835 12.863 48.8838 12.9473 49.0068 12.9883C49.1299 13.0293 49.262 13.0498 49.4033 13.0498C49.5081 13.0498 49.6175 13.0407 49.7314 13.0225C49.8499 12.9997 49.9388 12.9814 49.998 12.9678L50.0049 14C49.9046 14.0319 49.7725 14.0615 49.6084 14.0889C49.4489 14.1208 49.2552 14.1367 49.0273 14.1367C48.7174 14.1367 48.4326 14.0752 48.1729 13.9521C47.9131 13.8291 47.7057 13.624 47.5508 13.3369C47.4004 13.0452 47.3252 12.6533 47.3252 12.1611V4.80566ZM52.8281 6.60352V14H51.5566V6.60352H52.8281ZM51.4609 4.6416C51.4609 4.43652 51.5225 4.26335 51.6455 4.12207C51.7731 3.98079 51.96 3.91016 52.2061 3.91016C52.4476 3.91016 52.6322 3.98079 52.7598 4.12207C52.8919 4.26335 52.958 4.43652 52.958 4.6416C52.958 4.83757 52.8919 5.00618 52.7598 5.14746C52.6322 5.28418 52.4476 5.35254 52.2061 5.35254C51.96 5.35254 51.7731 5.28418 51.6455 5.14746C51.5225 5.00618 51.4609 4.83757 51.4609 4.6416ZM54.5234 10.3838V10.2266C54.5234 9.69336 54.6009 9.19889 54.7559 8.74316C54.9108 8.28288 55.1341 7.88411 55.4258 7.54688C55.7174 7.20508 56.0706 6.94076 56.4854 6.75391C56.9001 6.5625 57.3649 6.4668 57.8799 6.4668C58.3994 6.4668 58.8665 6.5625 59.2812 6.75391C59.7005 6.94076 60.056 7.20508 60.3477 7.54688C60.6439 7.88411 60.8695 8.28288 61.0244 8.74316C61.1794 9.19889 61.2568 9.69336 61.2568 10.2266V10.3838C61.2568 10.917 61.1794 11.4115 61.0244 11.8672C60.8695 12.3229 60.6439 12.7217 60.3477 13.0635C60.056 13.4007 59.7028 13.665 59.2881 13.8564C58.8779 14.0433 58.4131 14.1367 57.8936 14.1367C57.374 14.1367 56.9069 14.0433 56.4922 13.8564C56.0775 13.665 55.722 13.4007 55.4258 13.0635C55.1341 12.7217 54.9108 12.3229 54.7559 11.8672C54.6009 11.4115 54.5234 10.917 54.5234 10.3838ZM55.7881 10.2266V10.3838C55.7881 10.7529 55.8314 11.1016 55.918 11.4297C56.0046 11.7533 56.1344 12.0404 56.3076 12.291C56.4854 12.5417 56.7064 12.7399 56.9707 12.8857C57.235 13.027 57.5426 13.0977 57.8936 13.0977C58.2399 13.0977 58.543 13.027 58.8027 12.8857C59.0671 12.7399 59.2858 12.5417 59.459 12.291C59.6322 12.0404 59.762 11.7533 59.8486 11.4297C59.9398 11.1016 59.9854 10.7529 59.9854 10.3838V10.2266C59.9854 9.86198 59.9398 9.5179 59.8486 9.19434C59.762 8.86621 59.6299 8.57682 59.4521 8.32617C59.279 8.07096 59.0602 7.87044 58.7959 7.72461C58.5361 7.57878 58.2308 7.50586 57.8799 7.50586C57.5335 7.50586 57.2282 7.57878 56.9639 7.72461C56.7041 7.87044 56.4854 8.07096 56.3076 8.32617C56.1344 8.57682 56.0046 8.86621 55.918 9.19434C55.8314 9.5179 55.7881 9.86198 55.7881 10.2266ZM64.1074 8.18262V14H62.8428V6.60352H64.0391L64.1074 8.18262ZM63.8066 10.0215L63.2803 10.001C63.2848 9.49512 63.36 9.02799 63.5059 8.59961C63.6517 8.16667 63.8568 7.79069 64.1211 7.47168C64.3854 7.15267 64.6999 6.90658 65.0645 6.7334C65.4336 6.55566 65.8415 6.4668 66.2881 6.4668C66.6527 6.4668 66.9808 6.51693 67.2725 6.61719C67.5641 6.71289 67.8125 6.86784 68.0176 7.08203C68.2272 7.29622 68.3867 7.57422 68.4961 7.91602C68.6055 8.25326 68.6602 8.66569 68.6602 9.15332V14H67.3887V9.13965C67.3887 8.75228 67.3317 8.44238 67.2178 8.20996C67.1038 7.97298 66.9375 7.80208 66.7188 7.69727C66.5 7.58789 66.2311 7.5332 65.9121 7.5332C65.5977 7.5332 65.3105 7.59928 65.0508 7.73145C64.7956 7.86361 64.5745 8.0459 64.3877 8.27832C64.2054 8.51074 64.0618 8.77734 63.957 9.07812C63.8568 9.37435 63.8066 9.6888 63.8066 10.0215Z" fill="#002BBE"/>
<g clip-path="url(#clip0_3636_1288)">
<path d="M93.8332 10.8334H88.8332V15.8334H87.1665V10.8334H82.1665V9.16675H87.1665V4.16675H88.8332V9.16675H93.8332V10.8334Z" fill="#002BBE"/>
</g>
<defs>
<clipPath id="clip0_3636_1288">
<rect width="20" height="20" fill="white" transform="translate(78)"/>
</clipPath>
</defs>
</svg>
