<svg width="61" height="60" viewBox="0 0 61 60" fill="none" xmlns="http://www.w3.org/2000/svg">
<path d="M0 45.0563V3.15394C0 2.45307 0.325407 1.75219 0.97622 1.05131C1.62703 0.350438 2.30288 0 3.00375 0H41.9775C42.7284 0 43.4293 0.337922 44.0801 1.01377C44.7309 1.68961 45.0563 2.403 45.0563 3.15394V29.8874C45.0563 30.5882 44.7309 31.2891 44.0801 31.99C43.4293 32.6909 42.7284 33.0413 41.9775 33.0413H12.015L0 45.0563ZM15.0939 48.0601C14.393 48.0601 13.7046 47.7096 13.0288 47.0088C12.3529 46.3079 12.015 45.607 12.015 44.9061V37.5469H49.562V12.015H57.0713C57.7722 12.015 58.4481 12.3655 59.0989 13.0663C59.7497 13.7672 60.0751 14.4931 60.0751 15.2441V60L48.1352 48.0601H15.0939ZM40.5507 4.50563H4.50563V34.1677L10.1377 28.5357H40.5507V4.50563Z" fill="black" fill-opacity="0.6"/>
</svg>
