<svg width="60" height="30" viewBox="0 0 60 30" fill="none" xmlns="http://www.w3.org/2000/svg">
<path d="M9.375 20L14.5 15L9.375 9.875L4.375 15L9.375 20ZM45.1875 19.375L50.625 10.625L56.125 19.375H45.1875ZM30 15C27.9167 15 26.1458 14.2708 24.6875 12.8125C23.2292 11.3542 22.5 9.58333 22.5 7.5C22.5 5.375 23.2292 3.59375 24.6875 2.15625C26.1458 0.71875 27.9167 0 30 0C32.125 0 33.9062 0.71875 35.3438 2.15625C36.7812 3.59375 37.5 5.375 37.5 7.5C37.5 9.58333 36.7812 11.3542 35.3438 12.8125C33.9062 14.2708 32.125 15 30 15ZM30.0219 3.75C28.9656 3.75 28.0729 4.10727 27.3438 4.82181C26.6146 5.53635 26.25 6.42177 26.25 7.47806C26.25 8.53435 26.6115 9.42708 27.3344 10.1562C28.0574 10.8854 28.9532 11.25 30.0219 11.25C31.0906 11.25 31.9792 10.8885 32.6875 10.1656C33.3958 9.4426 33.75 8.54677 33.75 7.47806C33.75 6.40935 33.3927 5.52083 32.6782 4.8125C31.9636 4.10417 31.0782 3.75 30.0219 3.75ZM0 30V26.6875C0 25.0432 0.875 23.7258 2.625 22.7355C4.375 21.7452 6.63329 21.25 9.39987 21.25C9.90646 21.25 10.3935 21.2604 10.8611 21.2812C11.3287 21.3021 11.7917 21.3485 12.25 21.4204C11.9167 22.1401 11.6667 22.866 11.5 23.5981C11.3333 24.3301 11.25 25.11 11.25 25.9375V30H0ZM15 30V25.9375C15 23.2292 16.3854 21.0417 19.1562 19.375C21.9271 17.7083 25.5417 16.875 30 16.875C34.5 16.875 38.125 17.7083 40.875 19.375C43.625 21.0417 45 23.2292 45 25.9375V30H15ZM50.625 21.25C53.4375 21.25 55.7031 21.7452 57.4219 22.7355C59.1406 23.7258 60 25.0432 60 26.6875V30H48.75V25.9375C48.75 25.11 48.6771 24.3301 48.5312 23.5981C48.3854 22.866 48.1458 22.1401 47.8125 21.4204C48.2708 21.3485 48.7327 21.3021 49.1982 21.2812C49.6637 21.2604 50.1393 21.25 50.625 21.25ZM29.9875 20.625C26.6625 20.625 23.9583 21.125 21.875 22.125C19.7917 23.125 18.75 24.3958 18.75 25.9375V26.25H41.25V25.875C41.25 24.375 40.2188 23.125 38.1562 22.125C36.0938 21.125 33.3708 20.625 29.9875 20.625Z" fill="black" fill-opacity="0.6"/>
</svg>
