<svg width="96" height="96" viewBox="0 0 96 96" fill="none" xmlns="http://www.w3.org/2000/svg">
<rect width="96" height="96" rx="6" fill="#001A72" fill-opacity="0.1"/>
<path d="M36 65L48 55.85L60 65L55.2 50.225L67.2 41.75H52.575L48 26.525L43.35 41.75H28.725L40.725 50.225L36 65ZM48 77C43.9 77 40.025 76.2125 36.375 74.6375C32.725 73.0625 29.5375 70.9125 26.8125 68.1875C24.0875 65.4625 21.9375 62.275 20.3625 58.625C18.7875 54.975 18 51.1 18 47C18 42.85 18.7875 38.95 20.3625 35.3C21.9375 31.65 24.0875 28.475 26.8125 25.775C29.5375 23.075 32.725 20.9375 36.375 19.3625C40.025 17.7875 43.9 17 48 17C52.15 17 56.05 17.7875 59.7 19.3625C63.35 20.9375 66.525 23.075 69.225 25.775C71.925 28.475 74.0625 31.65 75.6375 35.3C77.2125 38.95 78 42.85 78 47C78 51.1 77.2125 54.975 75.6375 58.625C74.0625 62.275 71.925 65.4625 69.225 68.1875C66.525 70.9125 63.35 73.0625 59.7 74.6375C56.05 76.2125 52.15 77 48 77ZM48 72.5C55.1 72.5 61.125 70.0125 66.075 65.0375C71.025 60.0625 73.5 54.05 73.5 47C73.5 39.9 71.025 33.875 66.075 28.925C61.125 23.975 55.1 21.5 48 21.5C40.95 21.5 34.9375 23.975 29.9625 28.925C24.9875 33.875 22.5 39.9 22.5 47C22.5 54.05 24.9875 60.0625 29.9625 65.0375C34.9375 70.0125 40.95 72.5 48 72.5Z" fill="#1C023B"/>
</svg>
