<svg width="54" height="60" viewBox="0 0 54 60" fill="none" xmlns="http://www.w3.org/2000/svg">
<path d="M4.5 60C3.3 60 2.25 59.55 1.35 58.65C0.45 57.75 0 56.7 0 55.5V9C0 7.8 0.45 6.75 1.35 5.85C2.25 4.95 3.3 4.5 4.5 4.5H9.375V0H14.25V4.5H39.75V0H44.625V4.5H49.5C50.7 4.5 51.75 4.95 52.65 5.85C53.55 6.75 54 7.8 54 9V55.5C54 56.7 53.55 57.75 52.65 58.65C51.75 59.55 50.7 60 49.5 60H4.5ZM4.5 55.5H49.5V23.25H4.5V55.5ZM4.5 18.75H49.5V9H4.5V18.75ZM4.5 18.75V9V18.75ZM27 36C26.15 36 25.4375 35.7125 24.8625 35.1375C24.2875 34.5625 24 33.85 24 33C24 32.15 24.2875 31.4375 24.8625 30.8625C25.4375 30.2875 26.15 30 27 30C27.85 30 28.5625 30.2875 29.1375 30.8625C29.7125 31.4375 30 32.15 30 33C30 33.85 29.7125 34.5625 29.1375 35.1375C28.5625 35.7125 27.85 36 27 36ZM15 36C14.15 36 13.4375 35.7125 12.8625 35.1375C12.2875 34.5625 12 33.85 12 33C12 32.15 12.2875 31.4375 12.8625 30.8625C13.4375 30.2875 14.15 30 15 30C15.85 30 16.5625 30.2875 17.1375 30.8625C17.7125 31.4375 18 32.15 18 33C18 33.85 17.7125 34.5625 17.1375 35.1375C16.5625 35.7125 15.85 36 15 36ZM39 36C38.15 36 37.4375 35.7125 36.8625 35.1375C36.2875 34.5625 36 33.85 36 33C36 32.15 36.2875 31.4375 36.8625 30.8625C37.4375 30.2875 38.15 30 39 30C39.85 30 40.5625 30.2875 41.1375 30.8625C41.7125 31.4375 42 32.15 42 33C42 33.85 41.7125 34.5625 41.1375 35.1375C40.5625 35.7125 39.85 36 39 36ZM27 48C26.15 48 25.4375 47.7125 24.8625 47.1375C24.2875 46.5625 24 45.85 24 45C24 44.15 24.2875 43.4375 24.8625 42.8625C25.4375 42.2875 26.15 42 27 42C27.85 42 28.5625 42.2875 29.1375 42.8625C29.7125 43.4375 30 44.15 30 45C30 45.85 29.7125 46.5625 29.1375 47.1375C28.5625 47.7125 27.85 48 27 48ZM15 48C14.15 48 13.4375 47.7125 12.8625 47.1375C12.2875 46.5625 12 45.85 12 45C12 44.15 12.2875 43.4375 12.8625 42.8625C13.4375 42.2875 14.15 42 15 42C15.85 42 16.5625 42.2875 17.1375 42.8625C17.7125 43.4375 18 44.15 18 45C18 45.85 17.7125 46.5625 17.1375 47.1375C16.5625 47.7125 15.85 48 15 48ZM39 48C38.15 48 37.4375 47.7125 36.8625 47.1375C36.2875 46.5625 36 45.85 36 45C36 44.15 36.2875 43.4375 36.8625 42.8625C37.4375 42.2875 38.15 42 39 42C39.85 42 40.5625 42.2875 41.1375 42.8625C41.7125 43.4375 42 44.15 42 45C42 45.85 41.7125 46.5625 41.1375 47.1375C40.5625 47.7125 39.85 48 39 48Z" fill="black" fill-opacity="0.5"/>
</svg>
