<svg width="54" height="54" viewBox="0 0 54 54" fill="none" xmlns="http://www.w3.org/2000/svg">
<path d="M27.225 54C23.475 54 19.95 53.2875 16.65 51.8625C13.35 50.4375 10.4625 48.5 7.9875 46.05C5.5125 43.6 3.5625 40.725 2.1375 37.425C0.7125 34.125 0 30.6 0 26.85C0 23.1 0.7125 19.6 2.1375 16.35C3.5625 13.1 5.5125 10.2625 7.9875 7.8375C10.4625 5.4125 13.35 3.5 16.65 2.1C19.95 0.7 23.475 0 27.225 0C31.225 0 35.0125 0.875 38.5875 2.625C42.1625 4.375 45.25 6.775 47.85 9.825V1.875H52.35V17.475H36.675V12.975H44.55C42.35 10.425 39.7625 8.375 36.7875 6.825C33.8125 5.275 30.625 4.5 27.225 4.5C20.975 4.5 15.625 6.6375 11.175 10.9125C6.725 15.1875 4.5 20.425 4.5 26.625C4.5 32.975 6.7 38.375 11.1 42.825C15.5 47.275 20.875 49.5 27.225 49.5C33.475 49.5 38.75 47.3 43.05 42.9C47.35 38.5 49.5 33.175 49.5 26.925H54C54 34.425 51.4 40.8125 46.2 46.0875C41 51.3625 34.675 54 27.225 54ZM36.375 39.225L24.825 27.825V11.775H29.325V25.95L39.6 36L36.375 39.225Z" fill="black" fill-opacity="0.5"/>
</svg>
