<svg width="22" height="26" viewBox="0 0 22 26" fill="none" xmlns="http://www.w3.org/2000/svg">
<g clip-path="url(#clip0_350_25)">
<path fill-rule="evenodd" clip-rule="evenodd" d="M8.65117 4.06028C8.52697 4.06451 8.43275 4.0899 8.37065 4.13222C8.33425 4.1555 8.30641 4.18723 8.28928 4.22532C8.27001 4.26552 8.26144 4.3163 8.26358 4.37343C8.26787 4.54059 8.3578 4.76064 8.52911 5.01455L8.53126 5.01878L9.09016 5.89687C9.315 6.24811 9.54841 6.60781 9.83964 6.87018C10.1202 7.12408 10.4606 7.29547 10.9103 7.29547C11.3986 7.29759 11.754 7.11774 12.0431 6.85113C12.3451 6.57184 12.5806 6.19098 12.8162 5.81012L13.4457 4.78603C13.5635 4.52154 13.6063 4.34381 13.5785 4.24013C13.5635 4.17877 13.4928 4.14703 13.3751 4.1428C13.3494 4.14069 13.3237 4.14069 13.298 4.1428C13.2701 4.1428 13.2401 4.14492 13.2102 4.14915C13.193 4.15126 13.178 4.14915 13.1609 4.14703C13.1052 4.14915 13.0474 4.14703 12.9875 4.13857L13.2037 3.197C11.6041 3.44667 10.4092 2.27236 8.7197 2.96214L8.84176 4.07298C8.77751 4.07086 8.71327 4.06875 8.65117 4.06028ZM10.6298 18.8313C11.4671 18.8313 12.1438 19.502 12.1438 20.3272C12.1438 21.1524 11.4649 21.8231 10.6298 21.8231C9.79467 21.8231 9.11585 21.1524 9.11585 20.3272C9.11585 19.502 9.79253 18.8313 10.6298 18.8313ZM2.34909 12.5027C2.3234 12.5069 2.29556 12.509 2.26772 12.509C2.23988 12.509 2.21419 12.5069 2.18635 12.5027H1.08354C1.07069 12.5027 1.05784 12.5069 1.04713 12.5132L1.03857 12.5217C1.02786 12.5323 1.0193 12.5492 1.0193 12.5661V15.0121C1.0193 15.0248 1.02358 15.0375 1.03 15.0481L1.03857 15.0565C1.04928 15.0671 1.06641 15.0756 1.08354 15.0756H2.45616C2.47972 15.0735 2.50113 15.0714 2.52683 15.0714C2.55038 15.0714 2.57394 15.0735 2.59749 15.0756H18.7049C18.7285 15.0735 18.7499 15.0714 18.7756 15.0714C18.7992 15.0714 18.8227 15.0735 18.8441 15.0756H19.9641C19.9812 15.0756 19.9983 15.0692 20.009 15.0587C20.0198 15.0481 20.0262 15.0311 20.0262 15.0142V12.5661C20.0262 12.5492 20.0198 12.5344 20.0069 12.5217C19.9962 12.5111 19.9791 12.5027 19.9619 12.5027H2.34909ZM1.75807 11.4934V7.57477C1.75807 7.4457 1.80732 7.32721 1.8887 7.23623L3.34483 5.42714C3.19066 5.18805 3.10072 4.9024 3.10072 4.59772C3.10072 3.74501 3.80095 3.05312 4.66392 3.05312C5.5269 3.05312 6.22713 3.74501 6.22713 4.59772C6.22713 5.45042 5.5269 6.14231 4.66392 6.14231C4.48191 6.14231 4.30631 6.11057 4.14357 6.05345L2.77951 7.74827V11.4934H4.94873C4.93374 11.4426 4.92303 11.3876 4.91661 11.3283C4.93588 9.78375 4.69819 9.49599 6.34277 8.59039C6.94449 8.2582 8.49914 8.14606 9.17795 7.70595C9.28074 7.51341 9.39637 7.16852 9.4649 6.96328L9.47132 6.94212C9.22292 6.67763 9.01949 6.36448 8.82248 6.05768L8.26358 5.17958C8.06015 4.87913 7.95308 4.60406 7.94666 4.37766C7.94452 4.27187 7.96165 4.17454 8.00233 4.0899C8.04302 4.00104 8.10726 3.92698 8.19506 3.86985C8.23575 3.84235 8.28071 3.82119 8.32997 3.80214C8.29356 3.32607 8.28071 2.72727 8.30427 2.22369C8.31712 2.1052 8.33853 1.9846 8.37279 1.86611C8.57622 1.14459 9.20579 0.624083 9.92315 0.37864C10.2701 0.260151 10.1373 -0.023378 10.4885 -0.00433501C11.3215 0.0400986 12.6084 0.571186 13.1031 1.13401C13.7948 1.92324 13.617 2.89443 13.5935 3.85716C13.7477 3.90371 13.8483 4.00104 13.889 4.15761C13.934 4.33111 13.8847 4.57656 13.7369 4.91087C13.7348 4.91721 13.7305 4.92356 13.7284 4.92779L13.0924 5.96458C12.8461 6.36448 12.5977 6.76438 12.2658 7.07119L12.2487 7.086C12.2808 7.13043 12.3151 7.18121 12.3515 7.23411C12.4628 7.39492 12.587 7.57688 12.7048 7.71865C13.3965 8.14394 14.919 8.2582 15.5122 8.58616C17.0261 9.41982 16.6514 9.86627 16.7606 11.3241C16.7542 11.3834 16.7434 11.4384 16.7285 11.4892H19.9662C20.2639 11.4892 20.5358 11.6098 20.7328 11.8044C20.9298 11.9991 21.0519 12.2657 21.0519 12.5619V15.0079C21.0519 15.302 20.9298 15.5686 20.7328 15.7632L20.7307 15.7654C20.5337 15.96 20.2639 16.0806 19.9662 16.0806H19.2853V25.1853C19.2853 25.4096 19.1932 25.6127 19.0433 25.7587C18.8955 25.9047 18.6878 25.9978 18.463 25.9978H2.84375C2.61677 25.9978 2.40905 25.9068 2.2613 25.7587C2.24631 25.7439 2.23346 25.7312 2.22275 25.7143C2.09641 25.5704 2.01932 25.3842 2.01932 25.1811V16.0806H1.08354C0.785886 16.0806 0.513931 15.96 0.316924 15.7654C0.304076 15.7527 0.293369 15.74 0.282662 15.7273C0.107069 15.5411 0 15.2893 0 15.0121V12.5661C0 12.272 0.122059 12.0033 0.319066 11.8087C0.331914 11.796 0.344762 11.7854 0.35761 11.7727C0.550334 11.5992 0.8073 11.4934 1.08354 11.4934H1.75807ZM3.03648 16.0827V24.9906H18.2617V16.0827H3.03648ZM9.7754 8.68772C9.49274 8.37034 9.46918 8.04026 9.7754 7.68902C10.1287 7.77789 10.4521 7.92812 10.7497 8.13336C10.814 8.10585 10.8889 8.09527 10.9617 8.09951C11.2722 7.88157 11.6662 7.79482 12.0131 7.6319C12.4264 8.02968 12.3815 8.39361 11.9767 8.73427C11.7497 8.68349 11.5356 8.60309 11.3279 8.49941C11.3236 8.55231 11.3086 8.60944 11.2829 8.6708L11.7326 10.7824C12.0752 10.0694 12.4307 8.9374 12.5228 8.0191C12.3729 7.85406 12.2123 7.62132 12.0752 7.42242C12.0453 7.37799 12.0153 7.33567 11.9853 7.29335C11.6941 7.48802 11.345 7.60651 10.9103 7.60651C10.4242 7.60439 10.0474 7.44147 9.73257 7.18968C9.64477 7.44993 9.51629 7.80751 9.38995 7.97679C9.38138 7.98948 9.37068 8.00006 9.35783 8.01064C9.52271 9.00934 9.87604 10.0948 10.1972 10.7824L10.6469 8.6708C10.5806 8.56077 10.5549 8.46767 10.5591 8.38938C10.3193 8.53326 10.0538 8.62636 9.7754 8.68772Z" fill="#737373"/>
</g>
<defs>
<clipPath id="clip0_350_25">
<rect width="21.0476" height="26" fill="white"/>
</clipPath>
</defs>
</svg>
