<svg width="912" height="686" viewBox="0 0 912 686" fill="none" xmlns="http://www.w3.org/2000/svg">
<g clip-path="url(#clip0_585_21)">
<path fill-rule="evenodd" clip-rule="evenodd" d="M122.003 225.433C122.003 228.649 120.726 231.733 118.452 234.007C116.178 236.281 113.095 237.559 109.879 237.559C106.663 237.559 103.58 236.281 101.306 234.007C99.0323 231.733 97.755 228.649 97.755 225.433V134.088C97.755 122.789 102.377 112.508 109.822 105.065C117.259 97.6259 127.535 93 138.842 93H279.827C274.956 100.912 270.379 109 266.104 117.25H138.842C134.234 117.25 130.023 119.151 126.965 122.208C123.904 125.269 122.003 129.479 122.003 134.088V225.433ZM629.501 93H772.806C784.059 93 794.323 97.6206 801.787 105.062L801.86 105.136C809.285 112.597 813.895 122.844 813.895 134.088V225.323C813.856 228.513 812.562 231.56 810.292 233.802C808.022 236.044 804.96 237.302 801.77 237.302C798.579 237.302 795.518 236.044 793.248 233.802C790.978 231.56 789.684 228.513 789.645 225.323V134.088C789.649 131.882 789.218 129.696 788.376 127.657C787.533 125.618 786.296 123.765 784.736 122.205L784.69 122.159C783.13 120.598 781.277 119.362 779.237 118.519C777.198 117.677 775.013 117.245 772.806 117.25H643.161C640.932 112.875 638.618 108.545 636.221 104.26C634.075 100.451 631.835 96.6966 629.501 93ZM212.488 297.479V434.85C212.488 443.174 209.078 450.741 203.606 456.211C198.129 461.692 190.553 465.094 182.241 465.094H30.2465C21.9331 465.094 14.3656 461.683 8.8886 456.206C3.41335 450.731 0 443.163 0 434.85V297.479C0 289.169 3.40445 281.593 8.88326 276.114C14.3532 270.644 21.9206 267.234 30.2465 267.234H182.241C190.539 267.234 198.09 270.638 203.565 276.108L203.613 276.156C209.083 281.632 212.488 289.183 212.488 297.479ZM188.238 434.85V297.479C188.239 295.888 187.611 294.361 186.491 293.23C185.36 292.111 183.833 291.483 182.241 291.484H30.2465C28.6173 291.484 27.1199 292.166 26.0266 293.259C25.4677 293.811 25.023 294.468 24.7181 295.192C24.4132 295.916 24.254 296.693 24.2496 297.479V434.85C24.2496 436.468 24.9369 437.967 26.0337 439.063C27.1462 440.192 28.6613 440.834 30.2465 440.847H182.241C183.027 440.842 183.805 440.683 184.529 440.377C185.254 440.072 185.911 439.627 186.463 439.068C187.022 438.516 187.466 437.86 187.771 437.136C188.076 436.412 188.234 435.635 188.238 434.85ZM577.62 521.038V658.407C577.62 665.996 574.508 672.901 569.519 677.89C564.521 682.888 557.612 685.995 550.032 685.995H361.626C354.045 685.995 347.142 682.88 342.147 677.885L341.547 677.224C336.902 672.274 334.037 665.636 334.037 658.407V521.038C334.037 513.457 337.144 506.548 342.142 501.552C347.136 496.557 354.032 493.45 361.626 493.45H550.032C557.6 493.45 564.49 496.554 569.487 501.546L569.524 501.585C574.517 506.578 577.62 513.471 577.62 521.038ZM911.651 297.479V449.418C911.651 457.707 908.236 465.26 902.747 470.755L902.772 470.78C897.291 476.26 889.722 479.663 881.405 479.663H729.416C721.099 479.663 713.531 476.252 708.056 470.775L707.269 469.911C702.255 464.496 699.167 457.274 699.167 449.418V297.479C699.167 289.164 702.572 281.593 708.05 276.114C713.522 270.64 721.088 267.234 729.416 267.234H881.405C889.702 267.234 897.254 270.638 902.729 276.108L902.777 276.156C908.247 281.632 911.651 289.183 911.651 297.479ZM887.402 449.418V297.479C887.402 295.888 886.775 294.361 885.655 293.23C884.524 292.111 882.997 291.483 881.405 291.484H729.416C727.783 291.484 726.287 292.166 725.194 293.259C724.635 293.811 724.19 294.468 723.885 295.192C723.58 295.916 723.421 296.693 723.417 297.479V449.418C723.417 450.887 723.947 452.235 724.816 453.264L725.199 453.631C726.313 454.761 727.829 455.402 729.416 455.414H881.405C883.032 455.414 884.532 454.732 885.627 453.637H885.673C886.224 453.082 886.661 452.423 886.958 451.7C887.254 450.976 887.405 450.201 887.402 449.418ZM467.951 449.723C467.951 456.418 462.521 461.848 455.826 461.848C449.131 461.848 443.7 456.418 443.7 449.723V355.712C451.472 355.828 459.62 355.865 467.951 355.814V449.723Z" fill="#737373"/>
<circle cx="455.5" cy="163.5" r="150.443" stroke="#737373" stroke-width="26.1146"/>
<path d="M420.039 251C413.999 251 410.979 247.764 410.979 241.293V75.1028C410.979 68.6312 413.999 65.3954 420.039 65.3954H441.007C446.184 65.3954 448.773 68.6312 448.773 75.1028V218.901H524.231C530.703 218.901 533.939 221.705 533.939 227.314V242.587C533.939 248.196 530.703 251 524.231 251H420.039Z" fill="#737373"/>
</g>
<defs>
<clipPath id="clip0_585_21">
<rect width="912" height="686" fill="white"/>
</clipPath>
</defs>
</svg>
