<svg width="554" height="554" viewBox="0 0 554 554" fill="none" xmlns="http://www.w3.org/2000/svg">
<g clip-path="url(#clip0_598_54)">
<path d="M117 543.666H437C474.337 543.666 493.007 543.666 507.267 536.4C519.81 530.01 530.01 519.81 536.4 507.266C543.667 493.006 543.667 474.336 543.667 437V117C543.667 79.663 543.667 60.9943 536.4 46.7337C530.01 34.1893 519.81 23.9907 507.267 17.5993C493.007 10.333 474.337 10.333 437 10.333H117C79.6634 10.333 60.9947 10.333 46.734 17.5993C34.1897 23.9907 23.991 34.1893 17.5997 46.7337C10.3334 60.9943 10.3334 79.6627 10.3334 117V437C10.3334 474.336 10.3334 493.006 17.5997 507.266C23.991 519.81 34.1897 530.01 46.734 536.4C60.9947 543.666 79.663 543.666 117 543.666Z" stroke="#737373" stroke-width="31" stroke-linecap="round" stroke-linejoin="round"/>
<path d="M158.694 118.08C156.72 118.055 154.803 117.416 153.209 116.251C151.615 115.086 150.423 113.454 149.799 111.582C149.174 109.709 149.149 107.688 149.725 105.8C150.302 103.912 151.452 102.25 153.016 101.046C187.075 76.9498 228.092 64.6794 269.788 66.1127C302.622 66.1127 349.776 71.6674 387.054 98.4533C389.092 99.9159 390.47 102.125 390.886 104.599C391.302 107.074 390.724 109.612 389.276 111.661C387.772 113.689 385.533 115.044 383.039 115.437C380.546 115.829 377.998 115.227 375.944 113.76C344.289 93.6418 307.27 83.6122 269.788 84.9986C232.368 83.7273 195.547 94.6437 164.866 116.105C163.119 117.495 160.924 118.198 158.694 118.08Z" fill="#737373" stroke="#737373" stroke-width="4"/>
<path d="M420.752 205.102C419.226 205.088 417.725 204.712 416.373 204.003C415.02 203.295 413.856 202.276 412.976 201.029C391.621 170.91 353.479 130.793 269.788 130.793C241.962 130.092 214.378 136.123 189.384 148.373C164.389 160.624 142.724 178.73 126.23 201.152C124.749 203.171 122.531 204.524 120.058 204.917C117.585 205.31 115.056 204.711 113.022 203.251C111.955 202.508 111.054 201.552 110.376 200.443C109.699 199.333 109.259 198.095 109.085 196.807C108.91 195.519 109.006 194.208 109.365 192.959C109.724 191.709 110.339 190.548 111.171 189.549C129.456 164.847 153.409 144.901 181.013 131.389C208.617 117.877 239.063 111.195 269.788 111.907C339.036 111.907 390.88 137.582 428.282 190.166C429.717 192.23 430.276 194.779 429.837 197.255C429.397 199.73 427.995 201.93 425.936 203.374C424.408 204.432 422.61 205.032 420.752 205.102Z" fill="#737373" stroke="#737373" stroke-width="4"/>
<path d="M223.869 436.425C221.954 436.415 220.086 435.834 218.503 434.756C216.92 433.679 215.694 432.154 214.982 430.376C214.488 429.213 214.238 427.962 214.246 426.698C214.255 425.435 214.521 424.187 215.03 423.031C215.539 421.874 216.279 420.834 217.205 419.975C218.13 419.115 219.222 418.454 220.413 418.032C274.355 397.295 306.819 354.832 306.819 304.346C307.188 299.389 306.483 294.41 304.753 289.75C303.022 285.09 300.307 280.858 296.792 277.343C293.276 273.828 289.044 271.113 284.384 269.382C279.724 267.651 274.746 266.946 269.788 267.315C246.829 267.315 235.719 279.659 232.757 308.667C231.379 322.234 224.797 334.739 214.393 343.555C203.989 352.371 190.572 356.812 176.963 355.943C169.644 356.05 162.384 354.631 155.644 351.776C148.904 348.922 142.832 344.695 137.815 339.365C132.799 334.035 128.948 327.719 126.507 320.818C124.066 313.918 123.089 306.584 123.638 299.286C124.32 261.121 140.07 224.776 167.451 198.182C194.832 171.587 231.62 156.903 269.788 157.332C308.924 157.332 346.47 172.819 374.224 200.411C401.978 228.004 417.685 265.458 417.913 304.593C417.042 332.149 411.23 359.325 400.755 384.828C399.75 387.102 397.903 388.899 395.602 389.843C393.301 390.786 390.724 390.803 388.412 389.889C387.264 389.416 386.222 388.721 385.346 387.843C384.469 386.965 383.775 385.921 383.304 384.773C382.834 383.625 382.595 382.395 382.603 381.154C382.611 379.914 382.865 378.687 383.351 377.545C392.829 354.34 398.136 329.644 399.027 304.593C398.864 270.447 385.168 237.758 360.941 213.694C336.715 189.629 303.935 176.153 269.788 176.218C253.265 175.891 236.84 178.826 221.453 184.856C206.066 190.886 192.019 199.892 180.117 211.357C168.216 222.823 158.693 236.524 152.094 251.676C145.495 266.828 141.949 283.132 141.66 299.656C141.154 304.458 141.671 309.313 143.177 313.902C144.683 318.49 147.144 322.707 150.398 326.275C153.651 329.844 157.624 332.683 162.054 334.605C166.484 336.527 171.27 337.489 176.099 337.428C180.544 337.87 185.033 337.427 189.306 336.124C193.579 334.822 197.552 332.686 200.995 329.84C204.438 326.994 207.283 323.493 209.366 319.542C211.449 315.59 212.728 311.264 213.13 306.815C217.574 268.426 236.46 248.923 269.418 248.923C276.887 248.546 284.351 249.747 291.325 252.449C298.298 255.151 304.623 259.292 309.888 264.604C315.153 269.915 319.239 276.277 321.879 283.273C324.519 290.27 325.655 297.745 325.212 305.211C325.212 363.72 288.18 412.848 226.462 436.425C225.6 436.524 224.731 436.524 223.869 436.425Z" fill="#737373" stroke="#737373" stroke-width="4"/>
<path d="M316.324 427.537C313.96 427.499 311.685 426.624 309.905 425.068C309.024 424.196 308.325 423.158 307.848 422.014C307.371 420.87 307.125 419.642 307.125 418.403C307.125 417.163 307.371 415.936 307.848 414.792C308.325 413.648 309.024 412.609 309.905 411.737C337.676 382.95 353.32 344.591 353.602 304.593C353.602 285.337 347.677 222.507 270.899 222.507C259.711 222.114 248.557 223.952 238.088 227.915C227.619 231.879 218.043 237.887 209.921 245.59C202.653 252.781 196.908 261.361 193.027 270.819C189.146 280.278 187.209 290.42 187.332 300.643C187.299 303.143 186.283 305.529 184.504 307.284C182.725 309.04 180.326 310.025 177.827 310.025C176.585 310.041 175.351 309.81 174.199 309.346C173.046 308.882 171.998 308.194 171.113 307.321C170.229 306.448 169.527 305.408 169.048 304.262C168.569 303.116 168.322 301.886 168.322 300.643C168.13 287.997 170.453 275.44 175.158 263.7C179.862 251.96 186.854 241.273 195.725 232.259C205.56 222.82 217.171 215.428 229.884 210.512C242.598 205.596 256.162 203.254 269.788 203.621C344.838 203.621 371.5 257.934 371.5 304.593C371.339 349.116 354.109 391.882 323.36 424.081C322.511 425.137 321.441 425.993 320.226 426.59C319.01 427.188 317.678 427.511 316.324 427.537Z" fill="#737373" stroke="#737373" stroke-width="4"/>
<path d="M179.185 396.185C172.75 396.17 166.322 395.799 159.928 395.074C158.697 394.936 157.504 394.557 156.418 393.958C155.333 393.36 154.376 392.553 153.602 391.584C152.829 390.616 152.253 389.504 151.909 388.313C151.565 387.122 151.459 385.875 151.596 384.643C151.734 383.411 152.113 382.219 152.712 381.133C153.311 380.048 154.118 379.091 155.086 378.317C156.055 377.543 157.166 376.968 158.357 376.624C159.548 376.28 160.795 376.174 162.027 376.311C192.763 379.768 216.957 374.336 234.114 360.018C242.023 352.945 248.419 344.345 252.916 334.735C257.414 325.125 259.92 314.704 260.283 304.1C260.344 302.851 260.658 301.626 261.206 300.501C261.754 299.376 262.524 298.373 263.47 297.554C264.416 296.735 265.518 296.116 266.71 295.735C267.902 295.354 269.159 295.218 270.405 295.336C272.893 295.526 275.211 296.675 276.869 298.54C278.527 300.405 279.396 302.841 279.293 305.335C278.772 318.537 275.571 331.496 269.884 343.422C264.197 355.348 256.143 365.992 246.211 374.707C227.158 389.654 203.377 397.274 179.185 396.185Z" fill="#737373" stroke="#737373" stroke-width="4"/>
<path d="M415.165 435.184C418.402 439.511 422.532 443.091 427.274 445.683C432.017 448.274 437.262 449.815 442.652 450.201C448.043 450.587 453.454 449.809 458.517 447.92C463.581 446.032 468.179 443.076 472 439.254L494.613 416.641C501.478 409.532 505.277 400.012 505.192 390.13C505.106 380.248 501.142 370.795 494.154 363.807C487.166 356.82 477.713 352.856 467.831 352.77C457.949 352.684 448.429 356.483 441.321 363.348L428.356 376.238M445.316 420.108C442.079 415.78 437.949 412.199 433.206 409.608C428.464 407.017 423.219 405.476 417.828 405.09C412.438 404.704 407.027 405.482 401.964 407.37C396.9 409.259 392.302 412.215 388.481 416.038L365.868 438.651C359.002 445.759 355.204 455.279 355.29 465.161C355.375 475.043 359.339 484.496 366.327 491.484C373.315 498.471 382.768 502.435 392.649 502.521C402.531 502.607 412.052 498.808 419.16 491.943L432.049 479.053" stroke="#737373" stroke-width="15.0756" stroke-linecap="round" stroke-linejoin="round"/>
</g>
<defs>
<clipPath id="clip0_598_54">
<rect width="554" height="554" fill="white"/>
</clipPath>
</defs>
</svg>
