<svg width="742" height="697" viewBox="0 0 742 697" fill="none" xmlns="http://www.w3.org/2000/svg">
<g clip-path="url(#clip0_585_34)">
<path fill-rule="evenodd" clip-rule="evenodd" d="M247.119 531.828C235.303 531.828 225.838 522.897 225.838 511.942C225.838 500.927 235.43 492.056 247.119 492.056H298.894C310.71 492.056 320.175 500.987 320.175 511.942C320.175 522.957 310.646 531.828 298.894 531.828H247.119ZM136.964 511.942C136.964 500.927 146.556 492.056 158.182 492.056H162.883C174.699 492.056 184.101 500.987 184.101 511.942C184.101 522.957 174.572 531.828 162.883 531.828H158.182C146.429 531.828 136.964 522.957 136.964 511.942ZM136.964 186.144C136.964 175.129 146.556 166.258 158.182 166.258H163.772C175.588 166.258 185.054 175.189 185.054 186.144C185.054 197.159 175.525 206.03 163.772 206.03H158.182C146.493 206.03 136.964 197.099 136.964 186.144ZM158.182 368.929C146.366 368.929 136.964 359.998 136.964 348.983C136.964 337.969 146.556 329.097 158.182 329.097H163.772C175.588 329.097 185.054 338.028 185.054 348.983C185.054 359.998 175.525 368.929 163.772 368.929H158.182ZM247.119 206.03C235.303 206.03 225.838 197.04 225.838 186.144C225.838 175.129 235.43 166.258 247.119 166.258H488.076C499.892 166.258 509.294 175.189 509.294 186.144C509.294 197.159 499.765 206.03 488.076 206.03H247.119ZM49.3603 0.917969H607.443C621.038 0.917969 633.426 6.09787 642.319 14.4333C651.15 22.7688 656.74 34.3194 656.74 47.1203V292.124H614.368V47.2989C614.368 45.5127 613.605 43.9052 612.335 42.6549C611.064 41.5236 609.285 40.7496 607.38 40.7496H49.3603C47.4545 40.7496 45.6758 41.4641 44.4052 42.6549C43.0712 43.7861 42.4359 45.5127 42.4359 47.2989V650.013C42.4359 651.799 43.1982 653.407 44.4688 654.657C45.6758 655.907 47.4545 656.562 49.4238 656.562H384.655C388.657 671.149 393.104 683.95 399.202 696.096H49.3603C35.7021 696.096 23.3779 690.916 14.4841 682.581C5.52683 674.305 0 662.695 0 649.954V47.1798C0 34.4385 5.52683 22.7688 14.4206 14.4333C23.2508 6.09787 35.7021 0.917969 49.3603 0.917969ZM247.119 368.929C235.303 368.929 225.838 359.998 225.838 348.983C225.838 337.969 235.43 329.097 247.119 329.097H405.682C417.498 329.097 426.9 338.028 426.9 348.983C426.9 359.998 417.371 368.929 405.682 368.929H247.119Z" fill="#737373"/>
<path fill-rule="evenodd" clip-rule="evenodd" d="M498.236 347.555H732.621C737.778 347.555 742 351.777 742 356.933V618.52C741.575 625.831 732.139 626.001 721.939 625.547H494.779C480.668 625.547 469.136 637.079 469.136 651.19C469.136 665.301 480.668 676.833 494.779 676.833H721.939V649.547H742V684.229C742 690.547 736.843 695.704 730.524 695.704H495.771C470.383 695.732 449.613 674.963 449.613 649.575V396.177C449.613 369.429 471.488 347.555 498.236 347.555ZM604.123 387.365C660.934 387.365 706.978 433.409 706.978 490.22C706.978 547.032 660.934 593.076 604.123 593.076C547.312 593.076 501.268 547.032 501.268 490.22C501.268 433.409 547.312 387.365 604.123 387.365Z" fill="#737373"/>
<path d="M582.757 550.736C578.876 550.736 576.935 548.657 576.935 544.498V437.695C576.935 433.536 578.876 431.457 582.757 431.457H596.232C599.56 431.457 601.223 433.536 601.223 437.695V530.108H649.717C653.876 530.108 655.956 531.91 655.956 535.514V545.33C655.956 548.934 653.876 550.736 649.717 550.736H582.757Z" fill="#737373"/>
</g>
<defs>
<clipPath id="clip0_585_34">
<rect width="742" height="696.947" fill="white"/>
</clipPath>
</defs>
</svg>
