<svg width="650" height="774" viewBox="0 0 650 774" fill="none" xmlns="http://www.w3.org/2000/svg">
<g clip-path="url(#clip0_584_15)">
<path fill-rule="evenodd" clip-rule="evenodd" d="M108.088 -0.00195312H629.127C640.591 -0.00195312 649.976 9.3833 649.976 20.8472V602.355C649.031 618.606 628.056 618.984 605.38 617.976H100.403C69.0352 617.976 43.3989 643.612 43.3989 674.981C43.3989 706.349 69.0352 731.985 100.403 731.985H605.38V671.327H649.976V748.425C649.976 762.471 638.512 773.935 624.466 773.935H102.608C46.1704 773.998 0 727.828 0 671.39V108.086C0 48.625 48.627 -0.00195312 108.088 -0.00195312ZM343.475 88.4966C469.767 88.4966 572.123 190.853 572.123 317.144C572.123 443.436 469.767 545.792 343.475 545.792C217.184 545.792 114.828 443.436 114.828 317.144C114.828 190.853 217.184 88.4966 343.475 88.4966Z" fill="#737373"/>
<path fill-rule="evenodd" clip-rule="evenodd" d="M449.331 201.066C457.679 209.415 457.86 222.88 449.693 231.047L445.302 235.439L480.69 270.247L391.184 356.522L356.703 320.807L222.299 455.211C214.169 463.341 200.667 463.196 192.319 454.848C183.971 446.5 183.789 433.034 191.956 424.867L326.868 289.955L299.864 261.899L384.47 175.587L414.777 205.313L419.423 200.667C427.517 192.537 440.982 192.718 449.331 201.066ZM380.767 134.246C387.41 140.888 387.555 151.631 381.058 158.092L282.333 256.817C275.836 263.314 265.129 263.169 258.486 256.527C251.844 249.885 251.699 239.141 258.196 232.68L356.921 133.955C363.418 127.458 374.125 127.603 380.767 134.246ZM521.124 274.566C527.766 281.208 527.911 291.952 521.414 298.412L422.689 397.137C416.192 403.634 405.485 403.489 398.843 396.847C392.201 390.205 392.056 379.461 398.552 373.001L497.278 274.275C503.738 267.778 514.446 267.924 521.124 274.566Z" fill="#737373"/>
</g>
<defs>
<clipPath id="clip0_584_15">
<rect width="649.976" height="774" fill="white"/>
</clipPath>
</defs>
</svg>
