<svg width="800" height="800" viewBox="0 0 800 800" fill="none" xmlns="http://www.w3.org/2000/svg">
<g clip-path="url(#clip0_602_54)">
<path fill-rule="evenodd" clip-rule="evenodd" d="M733.333 200C733.333 144.772 688.562 100 633.333 100H166.667C111.437 100 66.6666 144.772 66.6666 200V533.333C66.6666 588.563 111.437 633.333 166.667 633.333H555.556L666.667 716.667C694.135 737.267 733.333 717.67 733.333 683.333V200ZM566.667 300C566.667 281.591 551.743 266.667 533.333 266.667H266.667C248.257 266.667 233.333 281.591 233.333 300C233.333 318.409 248.257 333.333 266.667 333.333H533.333C551.743 333.333 566.667 318.409 566.667 300ZM533.333 400C551.743 400 566.667 414.923 566.667 433.333C566.667 451.743 551.743 466.667 533.333 466.667H433.333C414.923 466.667 400 451.743 400 433.333C400 414.923 414.923 400 433.333 400H533.333Z" fill="#737373"/>
</g>
<defs>
<clipPath id="clip0_602_54">
<rect width="800" height="800" fill="white"/>
</clipPath>
</defs>
</svg>
