<svg width="22" height="24" viewBox="0 0 22 24" fill="none" xmlns="http://www.w3.org/2000/svg">
<path d="M3.15 24C2.27 24 1.525 23.695 0.915 23.085C0.305 22.475 0 21.73 0 20.85V17.1H3.81V0L5.61 1.8L7.41 0L9.18 1.8L10.98 0L12.78 1.8L14.58 0L16.38 1.8L18.18 0L19.98 1.8L21.78 0V20.85C21.78 21.73 21.475 22.475 20.865 23.085C20.255 23.695 19.51 24 18.63 24H3.15ZM18.63 22.2C19.03 22.2 19.355 22.075 19.605 21.825C19.855 21.575 19.98 21.25 19.98 20.85V3H5.61V17.1H17.28V20.85C17.28 21.25 17.405 21.575 17.655 21.825C17.905 22.075 18.23 22.2 18.63 22.2ZM7.2 7.74V5.94H14.4V7.74H7.2ZM7.2 11.76V9.96H14.4V11.76H7.2ZM17.19 7.74C16.95 7.74 16.74 7.65 16.56 7.47C16.38 7.29 16.29 7.08 16.29 6.84C16.29 6.6 16.38 6.39 16.56 6.21C16.74 6.03 16.95 5.94 17.19 5.94C17.43 5.94 17.64 6.03 17.82 6.21C18 6.39 18.09 6.6 18.09 6.84C18.09 7.08 18 7.29 17.82 7.47C17.64 7.65 17.43 7.74 17.19 7.74ZM17.19 11.61C16.95 11.61 16.74 11.52 16.56 11.34C16.38 11.16 16.29 10.95 16.29 10.71C16.29 10.47 16.38 10.26 16.56 10.08C16.74 9.9 16.95 9.81 17.19 9.81C17.43 9.81 17.64 9.9 17.82 10.08C18 10.26 18.09 10.47 18.09 10.71C18.09 10.95 18 11.16 17.82 11.34C17.64 11.52 17.43 11.61 17.19 11.61ZM3.12 22.2H15.48V18.9H1.8V20.85C1.8 21.25 1.925 21.575 2.175 21.825C2.425 22.075 2.74 22.2 3.12 22.2Z" fill="white"/>
</svg>
