<svg width="15" height="19" viewBox="0 0 15 19" fill="none" xmlns="http://www.w3.org/2000/svg">
<path fill-rule="evenodd" clip-rule="evenodd" d="M7.9512 4.20833V11.8919H11.7988C11.8392 11.8919 11.8728 11.9244 11.8728 11.9643V12.1622H14.5805C14.812 12.1622 15 12.3458 15 12.5725C15 12.6598 14.9719 12.7412 14.9243 12.8077C14.615 13.3134 14.456 13.955 14.456 14.6002C14.456 15.2406 14.6129 15.8752 14.9344 16.3719C15.0575 16.5628 14.9988 16.8155 14.8033 16.9359C14.7338 16.9786 14.6566 16.9988 14.5805 16.9988L2.16707 17C1.57365 17 1.04341 16.682 0.655988 16.2228C0.253293 15.7458 0 15.103 0 14.5193C0 13.936 0.25 13.3336 0.649401 12.8885C1.03892 12.4548 1.57305 12.1622 2.16707 12.1622H3.25719V11.9643C3.25719 11.9244 3.29042 11.8919 3.33114 11.8919H7.17874V4.21184C6.84371 4.09822 6.57814 3.83876 6.46138 3.51107H4.02874V3.87302C4.02874 3.91256 3.99521 3.94536 3.95479 3.94536H3.33054C3.28982 3.94536 3.25659 3.91256 3.25659 3.87302V3.51107H2.63772C2.59042 3.51107 2.5518 3.47856 2.5518 3.43874V2.82816C2.5518 2.78833 2.59042 2.75583 2.63772 2.75583H6.46407C6.62455 2.31539 7.05449 2 7.55988 2C8.06497 2 8.49491 2.31539 8.65539 2.75583H12.4919C12.5392 2.75583 12.5781 2.78833 12.5781 2.82816V3.43874C12.5781 3.47856 12.5392 3.51107 12.4919 3.51107H11.7943V3.87302C11.7943 3.91256 11.7611 3.94536 11.7204 3.94536H11.0961C11.0554 3.94536 11.0222 3.91256 11.0222 3.87302V3.51107H8.65808C8.60072 3.67141 8.50749 3.81721 8.3852 3.93783C8.26291 4.05846 8.11464 4.15087 7.9512 4.20833ZM13.7593 15.7282H10.0099C9.88862 15.7282 9.79012 15.6321 9.79012 15.5135C9.79012 15.3949 9.88862 15.2986 10.0099 15.2986H13.6704C13.6428 15.1199 13.6257 14.9393 13.6198 14.758H9.93204C9.81078 14.758 9.71228 14.6616 9.71228 14.543C9.71228 14.4244 9.81078 14.3281 9.93204 14.3281H13.6249C13.6341 14.1726 13.6509 14.0171 13.6757 13.8637H10.9817C10.8605 13.8637 10.762 13.7673 10.762 13.6487C10.762 13.5301 10.8605 13.4341 10.9817 13.4341H13.7665C13.8072 13.28 13.8557 13.1292 13.9126 12.9828H2.16707C1.83114 12.9828 1.51677 13.1617 1.27874 13.427C1.00838 13.7284 0.838922 14.1319 0.838922 14.5193C0.838922 14.9199 1.01766 15.3668 1.3018 15.7033C1.53892 15.9844 1.84551 16.1795 2.16707 16.1795H13.906C13.8485 16.033 13.7994 15.8822 13.7593 15.7282ZM11.6281 4.35592L14.1027 8.63231C14.1232 8.6676 14.1336 8.70768 14.1326 8.74827H14.1347C14.135 8.75384 14.1353 8.75911 14.1353 8.76438C14.1353 9.78289 12.9093 10.609 11.3976 10.609C9.9024 10.609 8.68683 9.80075 8.66078 8.79747C8.65294 8.76678 8.65182 8.73482 8.6575 8.70368C8.66317 8.67255 8.67551 8.64293 8.69371 8.61679L11.2243 4.34626C11.2877 4.23849 11.4287 4.20189 11.5386 4.26426C11.5784 4.28652 11.6087 4.31873 11.6281 4.35592ZM11.6377 5.28599V8.51781H13.5075L11.6377 5.28599ZM11.1964 8.51781V5.29097L9.28443 8.51781H11.1964ZM3.83922 4.35592L6.31377 8.63231C6.33435 8.66757 6.34461 8.70769 6.34341 8.74827H6.34581C6.34581 8.75384 6.34611 8.75911 6.34611 8.76438C6.34611 9.78289 5.12036 10.609 3.60838 10.609C2.11317 10.609 0.897904 9.80075 0.871557 8.79747C0.867068 8.77975 0.864855 8.76155 0.86497 8.74329C0.86497 8.69644 0.879341 8.6531 0.904491 8.61679L3.43503 4.34626C3.45018 4.32066 3.47034 4.29823 3.49435 4.28025C3.51837 4.26227 3.54577 4.2491 3.57499 4.24148C3.60422 4.23387 3.63469 4.23196 3.66466 4.23587C3.69464 4.23978 3.72354 4.24943 3.7497 4.26426C3.78922 4.28652 3.81946 4.31873 3.83922 4.35592ZM3.8485 5.28599V8.51781H5.71856L3.8485 5.28599ZM3.40748 8.51781V5.29097L1.49551 8.51781H3.40748ZM7.55988 2.64162C7.83952 2.64162 8.06647 2.86359 8.06647 3.1374C8.06647 3.41092 7.83952 3.63289 7.55988 3.63289C7.27994 3.63289 7.05299 3.41092 7.05299 3.1374C7.05299 2.86359 7.27994 2.64162 7.55988 2.64162Z" fill="#737373"/>
</svg>
