<svg width="17" height="19" viewBox="0 0 17 19" fill="none" xmlns="http://www.w3.org/2000/svg">
<g clip-path="url(#clip0_207_101)">
<path fill-rule="evenodd" clip-rule="evenodd" d="M9.79911 10.7849H15.5986C15.9715 10.7849 16.3292 10.9315 16.5929 11.1925C16.8566 11.4535 17.0047 11.8074 17.0047 12.1765V17.6115C17.0047 17.9806 16.8566 18.3345 16.5929 18.5955C16.3292 18.8565 15.9715 19.0031 15.5986 19.0031H9.79911C9.42618 19.0031 9.06853 18.8565 8.80483 18.5955C8.54113 18.3345 8.39299 17.9806 8.39299 17.6115V12.1719C8.39299 11.8028 8.54113 11.4488 8.80483 11.1879C9.06853 10.9269 9.42618 10.7803 9.79911 10.7803V10.7849ZM13.1957 4.35881C13.2979 4.38752 13.388 4.44823 13.4525 4.53184C13.517 4.61546 13.5524 4.71749 13.5534 4.82267V5.64063H14.7799C14.9214 5.6395 15.0616 5.66627 15.1925 5.71936C15.3234 5.77245 15.4424 5.85081 15.5423 5.94987C15.7432 6.15061 15.8555 6.42192 15.8548 6.70443V9.30982H14.9174V6.71371C14.9176 6.67336 14.9019 6.63452 14.8736 6.60547C14.8439 6.57709 14.804 6.56153 14.7627 6.56218H13.5534V9.30827H12.5676V5.41178H8.46954C8.40398 5.4126 8.3389 5.40053 8.27809 5.37626C8.21728 5.352 8.16194 5.31602 8.11529 5.27043C8.06863 5.22483 8.03159 5.17052 8.00631 5.11064C7.98103 5.05077 7.96802 4.98652 7.96802 4.92163V0.972576H0.987415V15.7359H6.83688V16.7116H2.55758V17.9362C2.55734 17.9765 2.57304 18.0154 2.60133 18.0444C2.63068 18.0724 2.66993 18.088 2.71069 18.0877H6.83375V19.0046H2.71694C2.43148 19.0014 2.1586 18.8879 1.95659 18.6882C1.75457 18.4886 1.63945 18.2187 1.63579 17.9362V16.7178H0.8843C0.650065 16.718 0.425308 16.6262 0.259357 16.4626C0.176803 16.3818 0.111353 16.2854 0.0668242 16.1792C0.0222958 16.073 -0.000418707 15.9591 5.84317e-06 15.8442V0.873618C5.6614e-06 0.758763 0.0228899 0.645035 0.0673489 0.538942C0.111808 0.432849 0.176969 0.336473 0.259104 0.25533C0.341239 0.174187 0.438735 0.109869 0.546013 0.0660572C0.653291 0.0222448 0.768246 -0.000201915 0.8843 1.36846e-06H8.46954C8.54213 -0.000158201 8.61383 0.0158859 8.67929 0.0469398C8.74475 0.0779936 8.80229 0.123258 8.84763 0.179363L13.1957 4.35417V4.35881ZM3.12472 7.98161C3.08211 7.9826 3.04013 7.99199 3.00124 8.00924C2.96234 8.02649 2.92732 8.05125 2.89822 8.08207C2.86912 8.11288 2.84652 8.14914 2.83176 8.18871C2.817 8.22828 2.81036 8.27036 2.81225 8.3125C2.80947 8.35477 2.81549 8.39715 2.82994 8.43703C2.84439 8.4769 2.86697 8.5134 2.89627 8.54428C2.92556 8.57516 2.96096 8.59976 3.00026 8.61654C3.03956 8.63332 3.08192 8.64194 3.12472 8.64185H8.90544C8.94791 8.64085 8.98976 8.63151 9.02854 8.61436C9.06733 8.5972 9.10228 8.57258 9.13136 8.54193C9.16044 8.51128 9.18307 8.47521 9.19793 8.43582C9.21279 8.39643 9.21958 8.35451 9.21791 8.3125C9.22092 8.27011 9.21506 8.22755 9.20071 8.1875C9.18636 8.14745 9.16382 8.11075 9.1345 8.0797C9.10518 8.04865 9.0697 8.02391 9.03029 8.00704C8.99088 7.99016 8.94838 7.9815 8.90544 7.98161H3.12472ZM3.12472 10.3427C3.08299 10.3439 3.04193 10.3533 3.00395 10.3705C2.96597 10.3876 2.93184 10.4121 2.90359 10.4425C2.87534 10.4729 2.85353 10.5086 2.83945 10.5475C2.82537 10.5864 2.81931 10.6277 2.82162 10.6689C2.81843 10.7107 2.82384 10.7526 2.83753 10.7923C2.85121 10.8319 2.87287 10.8683 2.90121 10.8994C2.92955 10.9305 2.96398 10.9556 3.0024 10.9731C3.04082 10.9906 3.08243 11.0002 3.12472 11.0014H6.8275V10.3427H3.12472ZM3.12472 12.7022C3.08298 12.7038 3.04198 12.7136 3.00415 12.7311C2.96631 12.7487 2.93241 12.7735 2.90445 12.8042C2.87648 12.8349 2.85502 12.8708 2.84133 12.9099C2.82764 12.949 2.822 12.9903 2.82475 13.0316C2.822 13.0728 2.82764 13.1142 2.84133 13.1533C2.85502 13.1923 2.87648 13.2282 2.90445 13.259C2.93241 13.2897 2.96631 13.3145 3.00415 13.332C3.04198 13.3495 3.08298 13.3594 3.12472 13.3609H6.8275V12.7022H3.12472ZM3.12472 5.62207C3.08192 5.62198 3.03956 5.6306 3.00026 5.64738C2.96096 5.66416 2.92556 5.68875 2.89627 5.71963C2.86697 5.75051 2.84439 5.78702 2.82994 5.82689C2.81549 5.86676 2.80947 5.90915 2.81225 5.95142C2.80947 5.99369 2.81549 6.03607 2.82994 6.07594C2.84439 6.11581 2.86697 6.15232 2.89627 6.1832C2.92556 6.21408 2.96096 6.23867 3.00026 6.25546C3.03956 6.27224 3.08192 6.28085 3.12472 6.28076H6.54472C6.58632 6.279 6.62715 6.26902 6.6648 6.25142C6.70246 6.23381 6.73617 6.20894 6.76397 6.17826C6.79177 6.14757 6.8131 6.1117 6.82669 6.07275C6.84028 6.03379 6.84587 5.99254 6.84313 5.95142C6.84587 5.91029 6.84028 5.86904 6.82669 5.83009C6.8131 5.79113 6.79177 5.75526 6.76397 5.72458C6.73617 5.69389 6.70246 5.66902 6.6648 5.65142C6.62715 5.63381 6.58632 5.62384 6.54472 5.62207H3.12472ZM3.12472 3.26253C3.08298 3.2641 3.04198 3.27393 3.00415 3.29144C2.96631 3.30896 2.93241 3.3338 2.90445 3.3645C2.87648 3.39521 2.85502 3.43115 2.84133 3.4702C2.82764 3.50926 2.822 3.55063 2.82475 3.59188C2.822 3.63313 2.82764 3.6745 2.84133 3.71356C2.85502 3.75261 2.87648 3.78855 2.90445 3.81925C2.93241 3.84996 2.96631 3.8748 3.00415 3.89232C3.04198 3.90983 3.08298 3.91966 3.12472 3.92123H4.99955C5.04115 3.91946 5.08198 3.90948 5.11963 3.89188C5.15728 3.87428 5.191 3.8494 5.2188 3.81872C5.2466 3.78804 5.26793 3.75216 5.28152 3.71321C5.29511 3.67425 5.3007 3.633 5.29796 3.59188C5.3007 3.55076 5.29511 3.50951 5.28152 3.47055C5.26793 3.4316 5.2466 3.39572 5.2188 3.36504C5.191 3.33436 5.15728 3.30948 5.11963 3.29188C5.08198 3.27428 5.04115 3.2643 4.99955 3.26253H3.12472ZM8.96325 1.71631L11.9114 4.43612H8.96012V1.71013L8.96325 1.71631ZM11.6817 14.9644C11.5911 14.8252 11.4255 14.635 11.4255 14.4696C11.4262 14.4159 11.4435 14.3637 11.4751 14.32C11.5066 14.2763 11.5509 14.2433 11.6021 14.2253C11.5943 14.0861 11.588 13.9438 11.588 13.8031C11.588 13.7212 11.588 13.6377 11.588 13.5557C11.5912 13.5033 11.6006 13.4514 11.6161 13.4011C11.6813 13.1905 11.8233 13.0114 12.0145 12.8986C12.0834 12.8578 12.1562 12.8236 12.2317 12.7966C12.3707 12.7471 12.302 12.5182 12.452 12.5151C12.8035 12.5059 13.3894 12.8244 13.6066 13.0671C13.7508 13.224 13.8329 13.4272 13.8378 13.6392L13.8237 14.2485C13.8569 14.2554 13.8877 14.2706 13.9134 14.2925C13.9391 14.3143 13.9587 14.3423 13.9706 14.3737C14.019 14.5654 13.8144 14.8051 13.7237 14.9582C13.6331 15.1112 13.3066 15.5566 13.3066 15.5597C13.3081 15.5855 13.3186 15.6101 13.3363 15.6292C13.8487 16.3281 15.3564 15.8875 15.3564 17.276H10.035C10.035 15.8844 11.5427 16.3281 12.0551 15.6308C12.0801 15.5937 12.0926 15.5736 12.0911 15.5581C12.0895 15.5426 11.7177 15.0138 11.6786 14.9597L11.6817 14.9644Z" fill="#737373"/>
</g>
<defs>
<clipPath id="clip0_207_101">
<rect width="17" height="19" fill="white"/>
</clipPath>
</defs>
</svg>
