<svg width="48" height="48" viewBox="0 0 48 48" fill="none" xmlns="http://www.w3.org/2000/svg">
<rect width="48" height="48" rx="24" fill="#4B1A85" fill-opacity="0.1"/>
<path d="M17.2333 30.7H26.4V28.7H17.2333V30.7ZM17.2333 25H30.7667V23H17.2333V25ZM17.2333 19.3H30.7667V17.3H17.2333V19.3ZM14 36C13.4667 36 13 35.8 12.6 35.4C12.2 35 12 34.5333 12 34V14C12 13.4667 12.2 13 12.6 12.6C13 12.2 13.4667 12 14 12H34C34.5333 12 35 12.2 35.4 12.6C35.8 13 36 13.4667 36 14V34C36 34.5333 35.8 35 35.4 35.4C35 35.8 34.5333 36 34 36H14ZM14 34H34V14H14V34Z" fill="#1C023B"/>
</svg>
