<svg width="48" height="48" viewBox="0 0 48 48" fill="none" xmlns="http://www.w3.org/2000/svg">
<rect width="48" height="48" rx="24" fill="#4B1A85" fill-opacity="0.1"/>
<path d="M20.92 29.55L22.21 28.26L19.18 25.2L22.21 22.17L20.92 20.88L16.6 25.215L20.92 29.55ZM26.68 29.55L31.03 25.2L26.71 20.88L25.42 22.17L28.45 25.2L25.39 28.26L26.68 29.55ZM14.8 36C14.305 36 13.8813 35.8237 13.5288 35.4712C13.1763 35.1187 13 34.695 13 34.2V16.2C13 15.705 13.1763 15.2812 13.5288 14.9288C13.8813 14.5762 14.305 14.4 14.8 14.4H20.95C21.05 13.7 21.37 13.125 21.91 12.675C22.45 12.225 23.08 12 23.8 12C24.52 12 25.15 12.225 25.69 12.675C26.23 13.125 26.55 13.7 26.65 14.4H32.8C33.295 14.4 33.7188 14.5762 34.0713 14.9288C34.4237 15.2812 34.6 15.705 34.6 16.2V34.2C34.6 34.695 34.4237 35.1187 34.0713 35.4712C33.7188 35.8237 33.295 36 32.8 36H14.8ZM14.8 34.2H32.8V16.2H14.8V34.2ZM23.8 15.69C24.08 15.69 24.325 15.585 24.535 15.375C24.745 15.165 24.85 14.92 24.85 14.64C24.85 14.36 24.745 14.115 24.535 13.905C24.325 13.695 24.08 13.59 23.8 13.59C23.52 13.59 23.275 13.695 23.065 13.905C22.855 14.115 22.75 14.36 22.75 14.64C22.75 14.92 22.855 15.165 23.065 15.375C23.275 15.585 23.52 15.69 23.8 15.69Z" fill="#1C023B"/>
</svg>
