<svg width="48" height="48" viewBox="0 0 48 48" fill="none" xmlns="http://www.w3.org/2000/svg">
<rect width="48" height="48" rx="24" fill="#4B1A85" fill-opacity="0.1"/>
<path d="M14 36C13.45 36 12.9792 35.8042 12.5875 35.4125C12.1958 35.0208 12 34.55 12 34V12L14.2333 14.2333L16.4333 12L18.6667 14.2333L20.9 12L23.1 14.2333L25.3333 12L27.5667 14.2333L29.7667 12L32 14.2333L34.2333 12L36.4333 14.2333L38.6667 12V34C38.6667 34.55 38.4708 35.0208 38.0792 35.4125C37.6875 35.8042 37.2167 36 36.6667 36H14ZM14 34H24.3333V24.6667H14V34ZM26.3333 34H36.6667V30.3333H26.3333V34ZM26.3333 28.3333H36.6667V24.6667H26.3333V28.3333ZM14 22.6667H36.6667V18.6667H14V22.6667Z" fill="#1C023B"/>
</svg>
