<svg width="48" height="48" viewBox="0 0 48 48" fill="none" xmlns="http://www.w3.org/2000/svg">
<rect width="48" height="48" rx="24" fill="#4B1A85" fill-opacity="0.1"/>
<path d="M17 35V33.1053H23.5684V29.8211H23.0947C21.3895 29.8211 19.9474 29.2316 18.7684 28.0526C17.5895 26.8737 17 25.4316 17 23.7263C17 22.4421 17.3684 21.2737 18.1053 20.2211C18.8421 19.1684 19.8105 18.4316 21.0105 18.0105C21.0947 17.1684 21.4632 16.4842 22.1158 15.9579C22.7684 15.4316 23.5263 15.2 24.3895 15.2632L23.7263 13.4L25.0211 12.9402L24.5789 11.7579L26.6632 11L27.1053 12.1684L28.3684 11.7263L31.9368 21.0421L30.5789 21.5158L31.0211 22.6842L29 23.4105L28.5579 22.2421L27.2 22.7474L26.4105 20.6C26.0947 20.9579 25.7211 21.2158 25.2895 21.3737C24.8579 21.5316 24.3965 21.6 23.9053 21.5789C23.3649 21.5579 22.8632 21.3895 22.4 21.0737C21.9368 20.7579 21.5684 20.3579 21.2947 19.8737C20.5579 20.2316 19.9737 20.7575 19.5421 21.4515C19.1105 22.1455 18.8947 22.9038 18.8947 23.7263C18.8947 24.893 19.3031 25.8847 20.1197 26.7013C20.9364 27.518 21.9281 27.9263 23.0947 27.9263H34.0526V29.8211H26.7263V33.1053H34.6842V35H17ZM28.2421 20.7263L29.9158 20.1263L27.3895 13.6211L25.7158 14.2211L28.2421 20.7263ZM24.1313 20C24.5771 20 24.9526 19.8492 25.2579 19.5476C25.5632 19.2461 25.7158 18.8724 25.7158 18.4266C25.7158 17.9808 25.565 17.6053 25.2634 17.3C24.9619 16.9947 24.5882 16.8421 24.1424 16.8421C23.6966 16.8421 23.3211 16.9929 23.0158 17.2945C22.7105 17.596 22.5579 17.9697 22.5579 18.4155C22.5579 18.8613 22.7087 19.2368 23.0103 19.5421C23.3118 19.8474 23.6855 20 24.1313 20Z" fill="#1C023B"/>
</svg>
