<svg width="751" height="699" viewBox="0 0 751 699" fill="none" xmlns="http://www.w3.org/2000/svg">
<g clip-path="url(#clip0_632_134)">
<path d="M68.2087 547.726V133.109C68.2087 96.3557 99.2189 65.3455 135.972 65.3455H266.904L249.676 141.148C248.527 148.039 250.824 154.93 256.567 158.376L339.261 213.505C346.152 218.099 348.449 228.436 343.855 235.327L282.983 328.358C278.389 335.249 279.537 343.289 285.28 349.031L357.637 417.943C361.083 421.388 363.38 427.131 362.231 432.874L346.152 513.27C342.706 530.498 364.528 539.686 374.865 525.904L443.776 422.537C448.371 416.794 447.222 408.755 442.628 403.012L394.39 350.18C388.647 344.437 388.647 335.249 394.39 328.358L485.123 226.139C492.015 219.248 490.866 207.763 482.826 203.169L407.024 150.336C400.133 145.742 398.984 137.703 401.281 129.663L433.44 65.3455H603.421C640.174 65.3455 671.184 96.3557 671.184 133.109V615.489C722.534 615.489 709.062 617.786 735.478 615.489L744.69 131.96C744.69 53.8603 681.521 -9.30859 603.421 -9.30859H135.972C57.872 -8.16007 -5.29688 55.0088 -5.29688 133.109V547.726C-5.29688 625.826 57.872 688.995 135.972 688.995C370.094 686.509 735.479 682.631 735.479 682.631L735.478 615.489H135.972C99.2189 615.489 68.2087 584.479 68.2087 547.726Z" fill="#737373"/>
</g>
<defs>
<clipPath id="clip0_632_134">
<rect width="750.778" height="699" fill="white"/>
</clipPath>
</defs>
</svg>
