<svg width="800" height="800" viewBox="0 0 800 800" fill="none" xmlns="http://www.w3.org/2000/svg">
<path d="M350.77 703.078V718.462C350.77 736.924 336.923 750.77 318.462 750.77H63.0772C44.6157 750.77 30.7695 736.924 30.7695 718.462V703.078C30.7695 664.616 76.9234 640.001 118.462 621.539C120 621.539 121.539 620.001 123.077 618.462C126.154 616.924 130.77 616.924 133.846 618.462C150.77 629.232 170.77 635.385 192.308 635.385C212.308 635.385 232.308 629.232 250.77 618.462C253.846 616.924 256.923 616.924 260 618.462C261.539 618.462 263.077 620.001 264.616 621.539C306.154 641.539 350.77 664.616 350.77 703.078Z" fill="#737373"/>
<path d="M190.77 606.154C234.952 606.154 270.77 566.893 270.77 518.462C270.77 470.031 234.952 430.77 190.77 430.77C146.587 430.77 110.77 470.031 110.77 518.462C110.77 566.893 146.587 606.154 190.77 606.154Z" fill="#737373"/>
<path d="M535.385 49.2305C404.615 49.2305 300 149.23 300 272.307C300 310.769 310.769 349.23 330.769 383.077C332.308 386.154 333.846 390.769 333.846 395.384L307.692 466.154C304.615 475.384 310.769 483.077 318.462 486.154C321.538 487.692 324.615 487.692 327.692 486.154L396.923 461.538C401.538 460 406.154 460 409.231 463.077C446.154 484.615 489.231 496.923 532.308 496.923C663.077 496.923 767.692 395.384 767.692 272.307C769.231 149.23 663.077 49.2305 535.385 49.2305ZM518.462 136.923H564.615V244.615L560 315.384H523.077L520 244.615V136.923H518.462ZM541.538 403.077C520 403.077 513.846 390.769 513.846 375.384C513.846 360 520 347.692 541.538 347.692C563.077 347.692 569.231 360 569.231 375.384C570.769 390.769 563.077 403.077 541.538 403.077Z" fill="#737373"/>
</svg>
