<svg width="699" height="699" viewBox="0 0 699 699" fill="none" xmlns="http://www.w3.org/2000/svg">
<path fill-rule="evenodd" clip-rule="evenodd" d="M331.954 443.933C360.916 504.558 350.289 579.37 300.074 629.585C236.379 693.28 133.11 693.28 69.4154 629.585C5.7209 565.891 5.7209 462.622 69.4154 398.927C119.602 348.741 194.357 338.097 254.964 366.997L397.739 224.222C371.035 170.989 375.139 108.888 408.41 62.7399C441.681 16.5914 498.694 -6.07909 556.663 3.78884C566.633 5.4684 575.092 12.5943 578.514 22.1957C581.937 31.7971 579.735 42.2258 572.827 49.134L525.407 96.5536C521.066 100.916 518.511 106.77 518.204 113.06L516.051 155.117C515.656 162.952 518.781 170.74 524.579 176.368C530.376 181.997 538.245 184.882 546.051 184.242L586.396 181.033C592.372 180.533 597.891 177.997 602.042 173.845L649.753 126.133C656.662 119.225 667.09 117.023 676.692 120.446C686.293 123.868 693.419 132.328 695.099 142.297C705.006 200.278 682.346 257.319 636.184 290.599C590.023 323.88 527.898 327.966 474.665 301.221L331.954 443.933ZM240.762 458.239L161.99 437.133L104.326 494.797L125.432 573.568L204.204 594.675L261.868 537.011L240.762 458.239Z" fill="#737373"/>
</svg>
