<svg width="738" height="738" viewBox="0 0 738 738" fill="none" xmlns="http://www.w3.org/2000/svg">
<g clip-path="url(#clip0_632_72)">
<path d="M708.094 137.891C700.819 128.99 689.911 123.805 678.391 123.805H178.105L161.07 65.3037L161.057 65.2677C153.23 39.0865 131.759 19.2645 105.052 13.542L43.9107 0.431965C33.5403 -1.78185 23.3426 4.80917 21.1288 15.1667C18.9164 25.5113 25.506 35.7219 35.865 37.9357L97.0062 51.0442C110.041 53.8313 120.497 63.5047 124.312 76.2589L236.067 460.181C233.548 461.354 231.127 462.639 228.779 464.033C216.722 471.212 207.063 481.287 200.581 493.052C194.394 504.24 191.092 516.909 190.786 529.981H190.725V531.974H190.774C191.03 542.172 193.194 551.98 196.986 560.918C203.027 575.2 213.078 587.295 225.747 595.866C238.416 604.426 253.799 609.453 270.196 609.44H629.663C640.265 609.44 648.848 600.856 648.848 590.266C648.848 579.677 640.264 571.079 629.663 571.079H270.196C264.461 571.079 259.105 569.942 254.203 567.863C246.854 564.758 240.531 559.524 236.092 552.944C231.837 546.634 229.342 539.174 229.122 531.006C229.342 521.261 232.448 512.81 237.901 506.049C240.738 502.552 244.212 499.494 248.441 496.964C252.624 494.469 257.54 492.501 263.311 491.253L624.636 432.435C648.261 428.583 667.02 410.546 671.789 387.104L715.981 169.831V169.805C716.494 167.287 716.765 164.719 716.753 162.176C716.765 153.41 713.743 144.812 708.094 137.891Z" fill="#737373"/>
<path d="M314.574 640.647C306.16 634.938 295.889 631.598 284.98 631.598C277.717 631.598 270.711 633.078 264.363 635.769C254.85 639.79 246.804 646.492 241.104 654.93C235.393 663.343 232.043 673.614 232.055 684.523C232.055 691.787 233.535 698.794 236.213 705.14C240.247 714.655 246.938 722.712 255.375 728.41C263.8 734.108 274.071 737.472 284.98 737.46C292.244 737.472 299.24 735.979 305.584 733.289C315.111 729.254 323.157 722.578 328.855 714.139C334.553 705.702 337.904 695.431 337.904 684.523C337.904 677.259 336.412 670.264 333.746 663.931C329.713 654.404 323.024 646.358 314.574 640.647ZM304.644 692.838C303.031 696.641 300.316 699.93 296.892 702.229C293.467 704.54 289.457 705.86 284.982 705.873C281.997 705.873 279.235 705.274 276.691 704.198C272.876 702.597 269.573 699.857 267.274 696.446C264.977 693.021 263.656 688.998 263.643 684.523C263.656 681.539 264.242 678.776 265.318 676.232C266.92 672.417 269.648 669.127 273.07 666.828C276.495 664.518 280.505 663.197 284.982 663.184C287.966 663.197 290.729 663.784 293.272 664.86C297.088 666.473 300.377 669.188 302.689 672.611C304.988 676.037 306.307 680.047 306.307 684.523C306.307 687.519 305.721 690.283 304.644 692.838Z" fill="#737373"/>
<path d="M604.849 640.647C596.425 634.938 586.164 631.598 575.257 631.598C567.994 631.598 560.973 633.078 554.64 635.769C545.127 639.79 537.08 646.492 531.37 654.93C525.659 663.343 522.307 673.614 522.32 684.523C522.32 691.787 523.801 698.794 526.49 705.14C530.526 714.655 537.203 722.712 545.64 728.41C554.077 734.108 564.35 737.472 575.257 737.46C582.52 737.472 589.514 735.979 595.849 733.289C605.375 729.254 613.434 722.578 619.132 714.139C624.83 705.702 628.18 695.431 628.18 684.523C628.18 677.259 626.688 670.264 624.01 663.931C619.976 654.404 613.287 646.358 604.849 640.647ZM594.921 692.838C593.306 696.641 590.58 699.93 587.168 702.229C583.744 704.54 579.732 705.86 575.259 705.873C572.263 705.873 569.486 705.274 566.942 704.198C563.151 702.597 559.85 699.857 557.551 696.446C555.252 693.021 553.919 688.998 553.907 684.523C553.907 681.539 554.518 678.776 555.582 676.232C557.184 672.417 559.922 669.127 563.323 666.828C566.748 664.518 570.782 663.197 575.259 663.184C578.242 663.197 581.004 663.784 583.549 664.86C587.363 666.473 590.642 669.188 592.952 672.611C595.251 676.037 596.585 680.047 596.585 684.523C596.583 687.519 595.997 690.283 594.921 692.838Z" fill="#737373"/>
</g>
<defs>
<clipPath id="clip0_632_72">
<rect width="737.457" height="737.457" fill="white"/>
</clipPath>
</defs>
</svg>
