<svg width="705" height="705" viewBox="0 0 705 705" fill="none" xmlns="http://www.w3.org/2000/svg">
<path d="M544.034 397.939C540.179 386.924 530.265 380.039 518.698 380.039H501.211V63.3398C501.211 31.0971 475.622 5.50781 443.379 5.50781H132.188C97.9564 5.50781 68.8477 34.6166 68.8477 68.8477V572.812C68.8477 605.584 99.0029 633.398 131.499 633.398H446.031C449.355 633.398 452.282 636.108 452.034 639.424C451.773 642.91 448.859 644.414 445.444 644.414H320.142L415.84 699.492H636.152L544.034 397.939ZM289.298 606.41C280.488 606.41 273.879 599.804 273.876 590.994C273.873 582.608 280.918 575.566 289.303 575.566C298.113 575.569 304.72 582.179 304.72 590.988C304.444 599.801 298.11 606.41 289.298 606.41ZM459.902 380.039H405.788C391.192 380.039 378.8 392.982 378.8 407.578C378.8 422.174 391.192 435.117 405.788 435.117H460.315V550.781H112.91V85.3711H459.902V380.039ZM251.589 207.526H167.988V123.926H251.589V207.526ZM402.07 123.926V207.526H318.47V123.926H402.07ZM167.988 274.407H251.589V358.008H167.988V274.407ZM301.748 207.526V157.366H285.029V140.645H301.748V123.926H268.308V174.085H285.029V190.804H268.31V224.245H285.029V207.526H301.748ZM167.988 224.248V240.967H184.707V224.248H167.988ZM385.351 240.967H368.632V257.686V274.405H318.47V291.124H351.911V307.843V324.562H385.351V307.843H368.632V291.124H385.351V274.405V257.686H402.07V240.967V224.248H385.351V240.967ZM301.748 224.248L285.029 224.245V240.967H301.748V224.248ZM335.189 257.686H351.908V240.967V224.248H318.47V240.967H335.189V257.686ZM184.707 257.686H201.426V240.967H184.707V257.686ZM285.029 240.967H234.87V224.248H201.429V240.967H218.148V257.686H268.308V274.405H285.029V257.686V240.967ZM318.47 257.686H301.751V274.405H318.47V257.686ZM301.748 274.407L285.029 274.405V291.126H301.748V274.407ZM402.07 307.848V291.129H385.351V307.848H402.07ZM301.748 307.848H318.467V291.129L301.748 291.126V307.848ZM301.748 324.567V307.848H285.029V291.126L268.31 291.129V307.848V324.567V341.286H285.029V324.567H301.748ZM335.189 324.567V307.848H318.467L318.47 324.567H335.189ZM335.189 341.289L285.029 341.286V358.008H351.911V341.289V324.57H335.192L335.189 341.289ZM402.07 341.289V324.57H385.351V341.289H402.07ZM368.63 358.008H385.349L385.351 341.289H368.63V358.008Z" fill="#737373"/>
</svg>
