<svg width="605" height="605" viewBox="0 0 605 605" fill="none" xmlns="http://www.w3.org/2000/svg">
<path d="M600.484 287.751C593.985 280.329 582.63 279.646 575.207 286.2L522.421 332.93L373.313 464.867C363.916 473.158 351.952 477.607 339.655 477.607C336.074 477.607 332.491 477.256 328.892 476.498L243.666 457.611L140.752 434.901L68.58 418.93L58.2596 416.622C54.9911 415.514 52.0926 414.075 49.545 412.172C45.4458 409.199 42.1963 405.341 39.963 400.91C37.673 396.46 36.4737 391.512 36.4737 386.471C36.4737 383.389 36.9912 380.157 37.9141 376.999C39.0402 373.583 40.6472 370.5 42.6217 367.767C45.5203 363.668 49.4528 360.419 53.8839 358.203C58.2596 355.895 63.1894 354.714 68.248 354.714C69.0976 354.714 69.9472 354.788 70.7956 354.788L145.183 370.851L317.703 408.165C339.065 412.855 361.35 407.057 377.746 392.545L483.817 299.103L592.121 203.705C601.851 195.082 605.95 181.752 602.627 169.215C599.378 156.568 589.297 146.912 576.576 144.178L563.079 141.28L464.688 120.01L340.08 93.1126C318.736 88.4227 296.451 94.221 280.037 108.75L113.592 254.961L63.5391 298.939L19.9839 337.195C18.1925 339.244 16.6599 341.294 15.2939 343.509C14.5188 344.451 13.8358 345.301 13.1516 346.335C8.88707 352.151 5.47095 358.797 3.1632 366.072C1.02089 372.811 0.00585938 379.735 0.00585938 386.474C0.00585938 401.078 4.69579 415 12.985 426.446C17.1574 432.262 22.1983 437.377 28.1065 441.641C33.9036 445.925 40.5692 449.341 47.8257 451.556L48.6008 451.815L124.521 468.469L196.435 484.181L321.301 511.507C327.357 512.873 333.505 513.482 339.653 513.482C360.572 513.482 380.992 505.968 397.055 491.862L401.319 488.114L549.579 356.841L598.949 313.12C606.373 306.528 607.056 295.191 600.484 287.751Z" fill="#737373"/>
</svg>
