<svg width="726" height="726" viewBox="0 0 726 726" fill="none" xmlns="http://www.w3.org/2000/svg">
<g clip-path="url(#clip0_632_62)">
<path d="M559.928 272.25C551.407 272.25 544.5 265.343 544.5 256.823V15.4275C544.5 6.90711 537.593 0 529.072 0H196.927C188.407 0 181.5 6.90713 181.5 15.4275V256.823C181.5 265.343 174.593 272.25 166.072 272.25H15.4275C6.90713 272.25 0 279.157 0 287.678V574.448C0 582.968 6.90713 589.875 15.4275 589.875H710.572C719.093 589.875 726 582.968 726 574.447V287.677C726 279.157 719.093 272.25 710.572 272.25H559.928ZM317.625 529.072C317.625 537.593 310.718 544.5 302.198 544.5H60.8025C52.2821 544.5 45.375 537.593 45.375 529.073V333.053C45.375 324.532 52.2821 317.625 60.8025 317.625H120.698C129.218 317.625 136.125 324.532 136.125 333.053V347.573C136.125 356.093 143.032 363 151.553 363H211.448C219.968 363 226.875 356.093 226.875 347.572V333.052C226.875 324.532 233.782 317.625 242.303 317.625H302.198C310.718 317.625 317.625 324.532 317.625 333.052V529.072ZM242.302 272.25C233.782 272.25 226.875 265.343 226.875 256.823V60.8025C226.875 52.2821 233.782 45.375 242.303 45.375H302.198C310.718 45.375 317.625 52.2821 317.625 60.8025V75.3225C317.625 83.8429 324.532 90.75 333.053 90.75H392.948C401.468 90.75 408.375 83.8429 408.375 75.3225V60.8025C408.375 52.2821 415.282 45.375 423.803 45.375H483.698C492.218 45.375 499.125 52.2821 499.125 60.8025V256.822C499.125 265.343 492.218 272.25 483.698 272.25H242.302ZM680.625 529.072C680.625 537.593 673.718 544.5 665.198 544.5H423.802C415.282 544.5 408.375 537.593 408.375 529.073V333.053C408.375 324.532 415.282 317.625 423.803 317.625H483.698C492.218 317.625 499.125 324.532 499.125 333.053V347.573C499.125 356.093 506.032 363 514.553 363H574.448C582.968 363 589.875 356.093 589.875 347.572V333.052C589.875 324.532 596.782 317.625 605.303 317.625H665.198C673.718 317.625 680.625 324.532 680.625 333.052V529.072Z" fill="#737373"/>
<path d="M0 710.573C0 719.093 6.90713 726 15.4275 726H120.697C129.218 726 136.125 719.093 136.125 710.572V696.052C136.125 687.532 143.032 680.625 151.552 680.625H574.448C582.968 680.625 589.875 687.532 589.875 696.053V710.573C589.875 719.093 596.782 726 605.302 726H710.572C719.093 726 726 719.093 726 710.572V650.677C726 642.157 719.093 635.25 710.572 635.25H15.4275C6.90713 635.25 0 642.157 0 650.678V710.573Z" fill="#737373"/>
</g>
<defs>
<clipPath id="clip0_632_62">
<rect width="726" height="726" fill="white"/>
</clipPath>
</defs>
</svg>
