<svg width="665" height="665" viewBox="0 0 665 665" fill="none" xmlns="http://www.w3.org/2000/svg">
<g clip-path="url(#clip0_632_116)">
<path d="M532 232.336V616.373H492.1V487.945H414.029V362.427H254.429V485.452H172.9V616.373H133V232.336H532Z" fill="#737373"/>
<path d="M442.225 493.363V559.863L412.3 532.133L382.375 559.863V493.363H442.225Z" fill="#737373"/>
<path d="M364.155 367.012V433.512L334.23 405.781L304.305 433.512V367.012H364.155Z" fill="#737373"/>
<path d="M282.625 493.363V559.863L252.7 532.133L222.775 559.863V493.363H282.625Z" fill="#737373"/>
<path d="M532 312.816H133V326.116H532V312.816Z" fill="#737373"/>
<path d="M605.15 612.797C605.15 616.47 602.173 619.447 598.5 619.447H532C528.327 619.447 525.35 616.47 525.35 612.797V240.397C525.35 236.724 522.373 233.747 518.7 233.747H146.3C142.627 233.747 139.65 236.724 139.65 240.397V612.797C139.65 616.47 136.673 619.447 133 619.447H66.5C62.8273 619.447 59.85 616.47 59.85 612.797V240.397C59.85 236.724 56.8727 233.747 53.2 233.747H39.9C36.2273 233.747 33.25 230.77 33.25 227.097V174.153C33.25 171.467 34.8816 169.049 37.373 168.045V168.045L330.028 48.5561C331.615 47.9084 333.39 47.8981 334.983 48.5272L335.027 48.5444L627.614 168.018C630.115 169.04 631.75 171.473 631.75 174.175V227.097C631.75 230.77 628.773 233.747 625.1 233.747H611.8C608.127 233.747 605.15 236.724 605.15 240.397V612.797ZM538.65 599.497C538.65 603.17 541.627 606.147 545.3 606.147H573.978C577.651 606.147 580.628 603.17 580.628 599.497V211.303C580.628 207.63 583.605 204.653 587.278 204.653H598.5C602.173 204.653 605.15 201.676 605.15 198.003V188.32C605.15 185.628 603.527 183.201 601.039 182.174L335.051 72.2915C333.418 71.6168 331.583 71.6199 329.952 72.3003L50.6398 188.816C48.163 189.849 46.55 192.27 46.55 194.953V198.003C46.55 201.676 49.5273 204.653 53.2 204.653H78.1375C81.8102 204.653 84.7875 207.63 84.7875 211.303V599.497C84.7875 603.17 87.7648 606.147 91.4375 606.147H119.7C123.373 606.147 126.35 603.17 126.35 599.497V227.097C126.35 223.424 129.327 220.447 133 220.447H532C535.673 220.447 538.65 223.424 538.65 227.097V599.497Z" fill="#737373"/>
<path d="M532 266.266H133V279.566H532V266.266Z" fill="#737373"/>
<path d="M492.1 618.452H172.9C171.136 618.452 169.445 617.751 168.198 616.504C166.951 615.257 166.25 613.566 166.25 611.802V487.38C166.25 485.617 166.951 483.925 168.198 482.678C169.445 481.431 171.136 480.73 172.9 480.73H492.1C493.864 480.73 495.555 481.431 496.802 482.678C498.049 483.925 498.75 485.617 498.75 487.38V611.802C498.75 613.566 498.049 615.257 496.802 616.504C495.555 617.751 493.864 618.452 492.1 618.452ZM179.55 605.152H485.45V494.03H179.55V605.152Z" fill="#737373"/>
<path d="M339.15 487.379H325.85V617.054H339.15V487.379Z" fill="#737373"/>
<path d="M420.679 490.704H407.379V367.679H261.079V490.704H247.779V361.029C247.779 359.265 248.48 357.574 249.727 356.327C250.974 355.08 252.666 354.379 254.429 354.379H414.029C415.793 354.379 417.484 355.08 418.732 356.327C419.979 357.574 420.679 359.265 420.679 361.029V490.704Z" fill="#737373"/>
</g>
<defs>
<clipPath id="clip0_632_116">
<rect width="665" height="665" fill="white"/>
</clipPath>
</defs>
</svg>
