<svg width="800" height="800" viewBox="0 0 800 800" fill="none" xmlns="http://www.w3.org/2000/svg">
<path d="M625 300C611.193 300 600 288.807 600 275V25C600 11.1929 588.807 0 575 0H225C211.193 0 200 11.1929 200 25V275C200 288.807 188.807 300 175 300H25C11.1929 300 0 311.193 0 325V625C0 638.807 11.1929 650 25 650H775C788.807 650 800 638.807 800 625V325C800 311.193 788.807 300 775 300H625ZM350 575C350 588.807 338.807 600 325 600H75C61.1929 600 50 588.807 50 575V375C50 361.193 61.1929 350 75 350H125C138.807 350 150 361.193 150 375V375C150 388.807 161.193 400 175 400H225C238.807 400 250 388.807 250 375V375C250 361.193 261.193 350 275 350H325C338.807 350 350 361.193 350 375V575ZM275 300C261.193 300 250 288.807 250 275V75C250 61.1929 261.193 50 275 50H325C338.807 50 350 61.1929 350 75V75C350 88.8071 361.193 100 375 100H425C438.807 100 450 88.8071 450 75V75C450 61.1929 461.193 50 475 50H525C538.807 50 550 61.1929 550 75V275C550 288.807 538.807 300 525 300H275ZM750 575C750 588.807 738.807 600 725 600H475C461.193 600 450 588.807 450 575V375C450 361.193 461.193 350 475 350H525C538.807 350 550 361.193 550 375V375C550 388.807 561.193 400 575 400H625C638.807 400 650 388.807 650 375V375C650 361.193 661.193 350 675 350H725C738.807 350 750 361.193 750 375V575Z" fill="#737373"/>
</svg>
