<svg width="36" height="36" viewBox="0 0 36 36" fill="none" xmlns="http://www.w3.org/2000/svg">
<circle cx="18" cy="18" r="18" fill="#121212" fill-opacity="0.1"/>
<path d="M18 8C14.13 8 11 11.13 11 15C11 16.74 11.5 18.37 12.41 19.84C13.36 21.38 14.61 22.7 15.57 24.24C16.04 24.99 16.38 25.69 16.74 26.5C17 27.05 17.21 28 18 28C18.79 28 19 27.05 19.25 26.5C19.62 25.69 19.95 24.99 20.42 24.24C21.38 22.71 22.63 21.39 23.58 19.84C24.5 18.37 25 16.74 25 15C25 11.13 21.87 8 18 8ZM18 17.75C16.62 17.75 15.5 16.63 15.5 15.25C15.5 13.87 16.62 12.75 18 12.75C19.38 12.75 20.5 13.87 20.5 15.25C20.5 16.63 19.38 17.75 18 17.75Z" fill="#808080"/>
</svg>
