<svg width="24" height="24" viewBox="0 0 24 24" fill="none" xmlns="http://www.w3.org/2000/svg">
<path d="M6 18.4667C6.26667 18.4667 6.5 18.3667 6.7 18.1667C6.9 17.9667 7 17.7333 7 17.4667C7 17.2 6.9 16.9667 6.7 16.7667C6.5 16.5667 6.26667 16.4667 6 16.4667C5.73333 16.4667 5.5 16.5667 5.3 16.7667C5.1 16.9667 5 17.2 5 17.4667C5 17.7333 5.1 17.9667 5.3 18.1667C5.5 18.3667 5.73333 18.4667 6 18.4667ZM6 13C6.26667 13 6.5 12.9 6.7 12.7C6.9 12.5 7 12.2667 7 12C7 11.7333 6.9 11.5 6.7 11.3C6.5 11.1 6.26667 11 6 11C5.73333 11 5.5 11.1 5.3 11.3C5.1 11.5 5 11.7333 5 12C5 12.2667 5.1 12.5 5.3 12.7C5.5 12.9 5.73333 13 6 13ZM6 7.53333C6.26667 7.53333 6.5 7.43333 6.7 7.23333C6.9 7.03333 7 6.8 7 6.53333C7 6.26667 6.9 6.03333 6.7 5.83333C6.5 5.63333 6.26667 5.53333 6 5.53333C5.73333 5.53333 5.5 5.63333 5.3 5.83333C5.1 6.03333 5 6.26667 5 6.53333C5 6.8 5.1 7.03333 5.3 7.23333C5.5 7.43333 5.73333 7.53333 6 7.53333ZM10.4 18.4667H18.5333V16.4667H10.4V18.4667ZM10.4 13H18.5333V11H10.4V13ZM10.4 7.53333H18.5333V5.53333H10.4V7.53333ZM2 24C1.46667 24 1 23.8 0.6 23.4C0.2 23 0 22.5333 0 22V2C0 1.46667 0.2 1 0.6 0.6C1 0.2 1.46667 0 2 0H22C22.5333 0 23 0.2 23.4 0.6C23.8 1 24 1.46667 24 2V22C24 22.5333 23.8 23 23.4 23.4C23 23.8 22.5333 24 22 24H2ZM2 22H22V2H2V22ZM2 2V22V2Z" fill="black" fill-opacity="0.6"/>
</svg>
