<svg width="42" height="42" viewBox="0 0 42 42" fill="none" xmlns="http://www.w3.org/2000/svg">
<circle cx="21" cy="21" r="21" fill="#001A72" fill-opacity="0.15"/>
<path d="M30.333 30.3334H15.1663C14.5475 30.3334 13.954 30.0875 13.5164 29.6499C13.0788 29.2124 12.833 28.6189 12.833 28V17.43L9.60134 13.58C9.43801 13.3817 9.33301 13.1134 9.33301 12.8334C9.33301 12.5239 9.45592 12.2272 9.67472 12.0084C9.89351 11.7896 10.1903 11.6667 10.4997 11.6667H30.333C30.9518 11.6667 31.5453 11.9125 31.9829 12.3501C32.4205 12.7877 32.6663 13.3812 32.6663 14V28C32.6663 28.6189 32.4205 29.2124 31.9829 29.6499C31.5453 30.0875 30.9518 30.3334 30.333 30.3334ZM16.9163 15.1667C16.7616 15.1667 16.6133 15.2281 16.5039 15.3375C16.3945 15.4469 16.333 15.5953 16.333 15.75V16.9167C16.333 17.0714 16.3945 17.2198 16.5039 17.3292C16.6133 17.4386 16.7616 17.5 16.9163 17.5H28.583C28.7377 17.5 28.8861 17.4386 28.9955 17.3292C29.1049 17.2198 29.1663 17.0714 29.1663 16.9167V15.75C29.1663 15.5953 29.1049 15.4469 28.9955 15.3375C28.8861 15.2281 28.7377 15.1667 28.583 15.1667H16.9163ZM16.9163 19.8334C16.7616 19.8334 16.6133 19.8948 16.5039 20.0042C16.3945 20.1136 16.333 20.262 16.333 20.4167V21.5834C16.333 21.7381 16.3945 21.8864 16.5039 21.9958C16.6133 22.1052 16.7616 22.1667 16.9163 22.1667H28.583C28.7377 22.1667 28.8861 22.1052 28.9955 21.9958C29.1049 21.8864 29.1663 21.7381 29.1663 21.5834V20.4167C29.1663 20.262 29.1049 20.1136 28.9955 20.0042C28.8861 19.8948 28.7377 19.8334 28.583 19.8334H16.9163ZM16.9163 24.5C16.7616 24.5 16.6133 24.5615 16.5039 24.6709C16.3945 24.7803 16.333 24.9286 16.333 25.0834V26.25C16.333 26.4047 16.3945 26.5531 16.5039 26.6625C16.6133 26.7719 16.7616 26.8334 16.9163 26.8334H22.7497C22.9044 26.8334 23.0528 26.7719 23.1622 26.6625C23.2716 26.5531 23.333 26.4047 23.333 26.25V25.0834C23.333 24.9286 23.2716 24.7803 23.1622 24.6709C23.0528 24.5615 22.9044 24.5 22.7497 24.5H16.9163Z" fill="#001A72"/>
</svg>
