<svg width="800" height="800" viewBox="0 0 800 800" fill="none" xmlns="http://www.w3.org/2000/svg">
<g clip-path="url(#clip0_437_2)">
<path d="M89.7752 591.247C92.531 594.016 96.7631 594.659 100.213 592.835L127.862 578.229L131.053 609.332C131.359 612.322 133.141 614.885 135.697 616.25C136.457 616.66 137.284 616.959 138.167 617.131C141.993 617.885 145.864 616.052 147.705 612.61L180.335 551.614L212.959 612.61C214.798 616.048 218.667 617.885 222.495 617.131C223.378 616.959 224.202 616.66 224.965 616.25C227.517 614.883 229.301 612.322 229.609 609.332L232.806 578.229L260.455 592.835C263.897 594.659 268.137 594.016 270.891 591.247C273.637 588.48 274.259 584.244 272.423 580.809L234.787 510.446C244.942 498.2 251.055 482.485 251.055 465.37C251.055 426.37 219.329 394.644 180.337 394.644C141.333 394.644 109.611 426.37 109.611 465.37C109.611 482.485 115.72 498.198 125.875 510.446L88.2422 580.809C86.3993 584.244 87.025 588.48 89.7752 591.247ZM180.335 429.572C200.068 429.572 216.131 445.631 216.131 465.37C216.131 485.105 200.07 501.167 180.335 501.167C160.594 501.167 144.533 485.105 144.533 465.37C144.533 445.631 160.594 429.572 180.335 429.572Z" fill="#737373"/>
<path d="M598.781 439.401V639.314H56.9903V274.547H357.607C358.294 271.589 359.225 268.657 360.484 265.79L384.329 211.429H37.8713C16.9869 211.429 -1.52588e-05 228.421 -1.52588e-05 249.302V664.556C-1.52588e-05 685.442 16.9869 702.427 37.8713 702.427H617.898C638.78 702.427 655.769 685.442 655.769 664.556V445.108C655.707 445.108 655.65 445.108 655.588 445.104C636.314 444.425 617.359 442.501 598.781 439.401Z" fill="#737373"/>
<path d="M794.365 259.58L649.868 117.398C644.668 110.862 636.573 107.311 628.233 107.912L425.056 97.5762C416.465 97.5762 407.474 104.054 403.697 112.656C399.928 121.25 401.221 131.231 407.069 138.581L435.493 174.321L428.948 189.243C408.319 236.291 415.261 220.467 390.893 275.994C386.986 284.905 388.909 295.297 395.745 302.215C431.9 338.782 473.102 367.369 518.209 387.155C518.216 387.159 518.216 387.159 518.222 387.159C563.344 406.947 612.269 417.912 663.649 419.73C673.374 420.08 682.315 414.454 686.222 405.546L730.826 303.87L753.736 302.217L753.786 362.898L750.636 362.896C748.446 362.704 746.507 364.28 746.259 366.465L742.18 401.843C742.055 402.923 742.375 404.007 743.059 404.852C743.741 405.693 744.735 406.23 745.815 406.332L778.208 406.306C779.295 406.194 780.289 405.665 780.96 404.818C781.652 403.977 781.958 402.889 781.837 401.811C781.021 394.863 780.212 387.918 779.399 380.972L777.706 366.437C777.45 364.263 775.507 362.69 773.322 362.881L770.177 362.885L770.126 300.799L781.96 299.534C789.139 298.217 794.738 292.348 797.734 285.506C801.51 276.909 800.688 266.111 794.365 259.58Z" fill="#737373"/>
</g>
<defs>
<clipPath id="clip0_437_2">
<rect width="800" height="800" fill="white"/>
</clipPath>
</defs>
</svg>
