<svg width="800" height="800" viewBox="0 0 800 800" fill="none" xmlns="http://www.w3.org/2000/svg">
<g clip-path="url(#clip0_436_2)">
<path d="M0.000488281 121.212V618.207C0.000488281 642.461 19.6629 662.124 43.9172 662.124H532.745V574.948C523.819 564.631 516.618 553.062 511.28 540.445C504.463 524.326 501.009 507.222 501.009 489.603C501.009 471.984 504.464 454.88 511.28 438.761C517.859 423.206 527.272 409.245 539.258 397.258C551.244 385.273 565.207 375.86 580.761 369.281C596.88 362.463 613.985 359.007 631.603 359.007C649.223 359.007 666.327 362.464 682.446 369.281C698 375.86 711.962 385.272 723.949 397.258C735.935 409.243 745.346 423.206 751.927 438.761C758.744 454.88 762.2 471.984 762.2 489.603C762.2 507.222 758.742 524.326 751.927 540.445C746.59 553.062 739.388 564.631 730.462 574.948V662.124H756.085C780.338 662.124 800.002 642.461 800.002 618.207V281.229H648.763C619.704 281.229 596.062 257.588 596.062 228.529V77.2949H43.9172C19.662 77.2949 0.000488281 96.9573 0.000488281 121.212ZM97.5177 215.119H536.142V263.427H97.5177V215.119ZM97.5177 387.931H469.388V414.281H97.5177V387.931ZM97.5177 470.495H316.829V496.845H97.5177V470.495Z" fill="#737373"/>
<path d="M622.413 81.4206V228.53C622.413 243.083 634.21 254.88 648.763 254.88H795.891H800L622.413 77.2881V81.4206Z" fill="#737373"/>
<path d="M704.11 662.125V598.244C697.299 602.797 690.065 606.703 682.445 609.926C666.326 616.743 649.222 620.2 631.603 620.2C613.984 620.2 596.879 616.743 580.76 609.926C573.141 606.703 565.906 602.796 559.095 598.244V662.125V722.711L631.601 693.831L704.108 722.711V662.125H704.11Z" fill="#737373"/>
<path d="M717.285 548.984C722.838 540.987 727.303 532.175 730.46 522.763C733.952 512.347 735.848 501.196 735.848 489.603C735.848 432.031 689.175 385.358 631.603 385.358C574.03 385.358 527.358 432.031 527.358 489.604C527.358 501.196 529.254 512.347 532.745 522.763C535.902 532.177 540.367 540.986 545.92 548.985C549.804 554.578 554.219 559.772 559.095 564.495C577.857 582.663 603.422 593.851 631.603 593.851C659.783 593.851 685.347 582.664 704.11 564.495C708.985 559.771 713.401 554.577 717.285 548.984Z" fill="#737373"/>
</g>
<defs>
<clipPath id="clip0_436_2">
<rect width="800" height="800" fill="white"/>
</clipPath>
</defs>
</svg>
