<svg width="24" height="24" viewBox="0 0 24 24" fill="none" xmlns="http://www.w3.org/2000/svg">
<path d="M7.5 3.75C7.5 3.3375 7.1625 3 6.75 3H3.75C3.3375 3 3 3.3375 3 3.75V7.5H7.5V3.75Z" fill="#737373"/>
<path d="M7.5 9H3V15H7.5V9Z" fill="#737373"/>
<path d="M12.75 3.75C12.75 3.3375 12.4125 3 12 3H9C8.5875 3 8.25 3.3375 8.25 3.75V15H12.75V3.75Z" fill="#737373"/>
<path d="M18.57 6.90746L17.9175 3.20996C17.8425 2.80496 17.46 2.52746 17.0475 2.60246L14.0925 3.11996C13.8975 3.15746 13.725 3.26246 13.605 3.42746C13.4925 3.59246 13.4475 3.79496 13.4775 3.98996L14.13 7.67996L18.5625 6.89996L18.57 6.90746Z" fill="#737373"/>
<path d="M22.5 17.25C22.0875 17.25 21.75 17.5875 21.75 18V19.5H20.7825C20.7825 19.5 20.7825 19.4775 20.7825 19.4625L18.8325 8.38501L14.4 9.16501L16.2225 19.5H12.75V16.5H8.25V19.5H7.5V16.5H3V19.5H2.25V18C2.25 17.5875 1.9125 17.25 1.5 17.25C1.0875 17.25 0.75 17.5875 0.75 18V20.25C0.75 20.6625 1.0875 21 1.5 21H22.5C22.9125 21 23.25 20.6625 23.25 20.25V18C23.25 17.5875 22.9125 17.25 22.5 17.25Z" fill="#737373"/>
</svg>
