<svg width="48" height="55" viewBox="0 0 48 55" fill="none" xmlns="http://www.w3.org/2000/svg">
<path d="M25.3321 33.35C25.9321 33.35 26.4321 33.15 26.8321 32.75C27.2321 32.35 27.4321 31.85 27.4321 31.25C27.4321 30.65 27.2321 30.15 26.8321 29.75C26.4321 29.35 25.9321 29.15 25.3321 29.15C24.7321 29.15 24.2321 29.35 23.8321 29.75C23.4321 30.15 23.2321 30.65 23.2321 31.25C23.2321 31.85 23.4321 32.35 23.8321 32.75C24.2321 33.15 24.7321 33.35 25.3321 33.35ZM23.9071 26.6H26.7571C26.7571 25.85 26.8196 25.2875 26.9446 24.9125C27.0696 24.5375 27.3571 24.075 27.8071 23.525C28.0071 23.325 28.2321 23.075 28.4821 22.775C28.7321 22.475 28.9821 22.2 29.2321 21.95C29.9321 21.15 30.4321 20.4375 30.7321 19.8125C31.0321 19.1875 31.1821 18.525 31.1821 17.825C31.1821 16.275 30.6696 15.025 29.6446 14.075C28.6196 13.125 27.2571 12.65 25.5571 12.65C24.1071 12.65 22.8446 13.0125 21.7696 13.7375C20.6946 14.4625 19.9321 15.475 19.4821 16.775L22.1071 17.825C22.3571 16.975 22.7821 16.3375 23.3821 15.9125C23.9821 15.4875 24.6571 15.275 25.4071 15.275C26.2571 15.275 26.9571 15.5375 27.5071 16.0625C28.0571 16.5875 28.3321 17.25 28.3321 18.05C28.3321 18.5 28.2196 18.9375 27.9946 19.3625C27.7696 19.7875 27.4071 20.25 26.9071 20.75C26.5071 21.15 26.1196 21.5 25.7446 21.8C25.3696 22.1 25.0571 22.45 24.8071 22.85C24.5071 23.3 24.2821 23.8125 24.1321 24.3875C23.9821 24.9625 23.9071 25.7 23.9071 26.6ZM15.4321 54.5V44.975H10.1071C8.90714 44.975 7.85714 44.525 6.95714 43.625C6.05714 42.725 5.60714 41.675 5.60714 40.475V32.15H2.60714C1.60714 32.15 0.857143 31.6875 0.357143 30.7625C-0.142857 29.8375 -0.117857 28.85 0.432143 27.8L5.60714 18.5C6.90714 13.05 9.46964 8.6875 13.2946 5.4125C17.1196 2.1375 21.6071 0.5 26.7571 0.5C32.5071 0.5 37.4446 2.5625 41.5696 6.6875C45.6946 10.8125 47.7571 15.75 47.7571 21.5C47.7571 25.75 46.5821 29.5 44.2321 32.75C41.8821 36 38.6821 38.6 34.6321 40.55V54.5H15.4321ZM19.9321 50H30.1321V37.625L32.2321 36.65C35.5821 35.1 38.2571 32.9875 40.2571 30.3125C42.2571 27.6375 43.2571 24.7 43.2571 21.5C43.2571 16.95 41.6446 13.0625 38.4196 9.8375C35.1946 6.6125 31.3071 5 26.7571 5C22.3071 5 18.5196 6.4875 15.3946 9.4625C12.2696 12.4375 10.5821 15.75 10.3321 19.4L5.75714 27.65H10.1071V40.475H19.9321V50Z" fill="white"/>
</svg>
