<svg width="30" height="45" viewBox="0 0 30 45" fill="none" xmlns="http://www.w3.org/2000/svg">
<path d="M20.25 45L3.125 27.25V23.125H11.25C13.625 23.125 15.7083 22.3542 17.5 20.8125C19.2917 19.2708 20.3333 17.125 20.625 14.375H0V10.625H20.3125C19.7708 8.625 18.6563 6.97917 16.9688 5.6875C15.2813 4.39583 13.375 3.75 11.25 3.75H0V0H30V3.75H20.375C21.3333 4.58333 22.1458 5.64583 22.8125 6.9375C23.4792 8.22917 23.9583 9.45833 24.25 10.625H30V14.375H24.375C24.0417 18.1667 22.6354 21.1979 20.1562 23.4688C17.6771 25.7396 14.7083 26.875 11.25 26.875H8L25.4375 45H20.25Z" fill="black" fill-opacity="0.5"/>
</svg>
