<svg width="53" height="53" viewBox="0 0 53 53" fill="none" xmlns="http://www.w3.org/2000/svg">
<path d="M14.2812 16.4688C14.8646 16.4688 15.375 16.25 15.8125 15.8125C16.25 15.375 16.4688 14.8646 16.4688 14.2812C16.4688 13.6979 16.25 13.1875 15.8125 12.75C15.375 12.3125 14.8646 12.0938 14.2812 12.0938C13.6979 12.0938 13.1875 12.3125 12.75 12.75C12.3125 13.1875 12.0938 13.6979 12.0938 14.2812C12.0938 14.8646 12.3125 15.375 12.75 15.8125C13.1875 16.25 13.6979 16.4688 14.2812 16.4688ZM14.2812 28.9375C14.8646 28.9375 15.375 28.7188 15.8125 28.2812C16.25 27.8438 16.4688 27.3333 16.4688 26.75C16.4688 26.1667 16.25 25.6563 15.8125 25.2188C15.375 24.7813 14.8646 24.5625 14.2812 24.5625C13.6979 24.5625 13.1875 24.7813 12.75 25.2188C12.3125 25.6563 12.0938 26.1667 12.0938 26.75C12.0938 27.3333 12.3125 27.8438 12.75 28.2812C13.1875 28.7188 13.6979 28.9375 14.2812 28.9375ZM14.2812 41.4062C14.8646 41.4062 15.375 41.1875 15.8125 40.75C16.25 40.3125 16.4688 39.8021 16.4688 39.2188C16.4688 38.6354 16.25 38.125 15.8125 37.6875C15.375 37.25 14.8646 37.0312 14.2812 37.0312C13.6979 37.0312 13.1875 37.25 12.75 37.6875C12.3125 38.125 12.0938 38.6354 12.0938 39.2188C12.0938 39.8021 12.3125 40.3125 12.75 40.75C13.1875 41.1875 13.6979 41.4062 14.2812 41.4062ZM4.875 53C3.70833 53 2.6875 52.5625 1.8125 51.6875C0.9375 50.8125 0.5 49.7917 0.5 48.625V4.875C0.5 3.70833 0.9375 2.6875 1.8125 1.8125C2.6875 0.9375 3.70833 0.5 4.875 0.5H38.5625L53 14.9375V48.625C53 49.7917 52.5625 50.8125 51.6875 51.6875C50.8125 52.5625 49.7917 53 48.625 53H4.875ZM4.875 48.625H48.625V17.3438H36.1563V4.875H4.875V48.625ZM4.875 4.875V17.3438V4.875V48.625V4.875Z" fill="black" fill-opacity="0.5"/>
</svg>
