<svg width="800" height="800" viewBox="0 0 800 800" fill="none" xmlns="http://www.w3.org/2000/svg">
<path d="M265.188 84.1204C297.25 75.2207 343.273 66.4547 400.037 66.5357C456.76 66.6167 502.747 75.377 534.783 84.2284C550.803 88.655 563.357 93.11 572.043 96.5284C576.39 98.238 579.77 99.6897 582.14 100.751C583.327 101.282 584.26 101.715 584.933 102.035L585.75 102.427L586.01 102.555L586.103 102.601L586.143 102.62C586.15 102.623 586.173 102.635 575 124.999L586.173 102.635C598.527 108.806 603.537 123.822 597.363 136.173C591.203 148.505 576.227 153.518 563.887 147.393C563.877 147.388 563.85 147.375 563.84 147.37L563.517 147.215C563.16 147.047 562.557 146.765 561.707 146.384C560.007 145.624 557.333 144.472 553.737 143.056C546.54 140.224 535.653 136.342 521.467 132.423C493.087 124.581 451.573 116.609 399.963 116.536C348.393 116.462 306.917 124.428 278.562 132.299C264.387 136.233 253.513 140.138 246.324 142.989C242.731 144.413 240.062 145.573 238.367 146.339C237.52 146.721 236.916 147.006 236.562 147.175L236.219 147.34C223.894 153.547 208.892 148.58 202.678 136.256C196.461 123.927 201.415 108.894 213.743 102.677L225 124.999C213.743 102.677 213.736 102.681 213.743 102.677L213.813 102.642L213.907 102.595L214.17 102.465L214.988 102.069C215.664 101.745 216.598 101.307 217.785 100.771C220.159 99.699 223.545 98.2334 227.895 96.509C236.591 93.0607 249.155 88.571 265.188 84.1204Z" fill="#737373"/>
<path d="M225 675C213.861 697.38 213.876 697.39 213.876 697.39L213.93 697.416L214.024 697.463L214.285 697.59L215.101 697.98C215.774 698.296 216.707 698.73 217.892 699.256C220.261 700.313 223.643 701.76 227.987 703.463C236.673 706.866 249.223 711.303 265.241 715.713C297.271 724.526 343.25 733.253 399.963 733.333C456.717 733.413 502.733 724.683 534.787 715.82C550.82 711.386 563.38 706.916 572.073 703.483C576.423 701.763 579.81 700.306 582.18 699.236C583.367 698.703 584.303 698.266 584.977 697.946L585.797 697.55L586.057 697.42L586.153 697.373L586.19 697.356C586.19 697.356 586.223 697.34 575 675L586.223 697.34C598.56 691.143 603.537 676.116 597.34 663.776C591.143 651.443 576.127 646.466 563.793 652.653L563.473 652.806C563.117 652.976 562.513 653.26 561.667 653.64C559.97 654.403 557.3 655.56 553.707 656.976C546.517 659.816 535.64 663.71 521.463 667.63C493.1 675.47 451.617 683.406 400.037 683.333C348.417 683.26 306.896 675.316 278.509 667.503C264.319 663.6 253.431 659.733 246.232 656.91C242.633 655.5 239.96 654.353 238.261 653.593C237.411 653.216 236.805 652.933 236.45 652.766L236.125 652.613C223.767 646.47 208.768 651.503 202.619 663.86C196.467 676.223 201.515 691.236 213.876 697.39L225 675Z" fill="#737373"/>
<path d="M208.333 216.666C166.912 216.666 133.333 250.245 133.333 291.666V508.333C133.333 549.753 166.912 583.333 208.333 583.333H425C466.42 583.333 500 549.753 500 508.333V291.666C500 250.245 466.42 216.666 425 216.666H208.333Z" fill="#737373"/>
<path d="M642.33 544.207L533.333 453.377V346.667L642.34 255.939C649.793 249.736 660.163 248.402 668.943 252.518C677.723 256.634 683.333 265.457 683.333 275.155V525C683.333 534.7 677.723 543.523 668.937 547.64C660.153 551.753 649.78 550.417 642.33 544.207Z" fill="#737373"/>
</svg>
