<svg width="754" height="754" viewBox="0 0 754 754" fill="none" xmlns="http://www.w3.org/2000/svg">
<path d="M478.084 393.921L463.078 257.961C465.361 241.456 472.829 215.581 473.946 189.683C475.944 145.568 478.512 0 351.375 0C338.01 0 322.338 1.64094 315.536 4.70878C308.735 7.75285 307.522 14.6971 303.122 16.1954C298.556 17.7412 291.992 17.1229 287.949 19.073C225.07 49.3709 227.258 123.308 227.258 123.308L236.557 275.06L224.214 393.945H60.3818V473.257H111.655V754H642.392V473.257H693.642V393.921H478.084ZM414.111 386.477C414.111 386.477 419.391 352.112 425.598 315.869L436.324 393.921H415.205L414.111 386.477ZM380.032 216.224V251.92H380.199L392.969 258.008L357.891 321.172V393.945H349.259V323.907L313.348 255.796L323.384 253.276V215.034C284.62 202.858 256.058 168.327 252.847 126.4L279.435 130.229V146.448H349.14V134.985H361.435V146.448H431.092V130.633L453.328 127.209C451.972 162.287 433.85 209.232 380.032 216.224ZM287.188 138.719V111.132H341.387V138.719H287.188ZM369.164 138.719V111.132H423.315V138.719H369.164ZM253.204 108.73C281.243 106.804 312.873 84.7581 315.346 54.0083C350.757 83.3788 400.984 84.7819 442.887 88.5632C448.072 90.9889 451.924 101.548 452.995 115.484L431.044 118.885V103.379H361.387V119.503H349.116V103.379H279.435V118.504L252.515 114.604C252.752 112.654 253.038 110.704 253.204 108.73ZM274.513 326.571C284.12 359.057 293.253 388.998 293.253 388.998L292.61 393.921H265.832L274.513 326.571Z" fill="#737373"/>
</svg>
