<svg width="800" height="800" viewBox="0 0 800 800" fill="none" xmlns="http://www.w3.org/2000/svg">
<path d="M567.874 238.022C568.096 255.252 565.986 272.432 561.6 289.096C557.792 303.154 552.292 316.699 545.221 329.433C538.74 340.938 531.228 351.832 522.779 361.98C514.568 371.79 506.526 381.096 498.863 389.685L497.853 390.78C490.695 398.359 484.042 405.643 478.147 412.506C471.777 419.903 466.137 427.898 461.305 436.38C456.245 445.344 452.368 454.925 449.768 464.885C446.837 476.699 445.436 488.841 445.6 501.011V503.117C445.108 514.277 440.328 524.817 432.257 532.54C424.185 540.264 413.445 544.575 402.274 544.575C391.102 544.575 380.362 540.264 372.291 532.54C364.219 524.817 359.44 514.277 358.947 503.117V501.011C358.773 481.351 361.136 461.751 365.979 442.696C370.489 425.486 377.196 408.928 385.937 393.433C393.564 380.124 402.447 367.576 412.463 355.959C419.116 348.211 426.568 339.959 434.568 331.58C441.558 323.706 448.884 315.159 456.463 306.19C461.522 300.098 466.018 293.559 469.895 286.654C473.466 280.06 476.236 273.063 478.147 265.811C480.42 256.729 481.454 247.381 481.221 238.022C481.398 227.014 479.291 216.09 475.032 205.938C470.997 195.991 465.045 186.935 457.516 179.285C450.054 171.762 441.183 165.781 431.411 161.685C421.806 157.535 411.43 155.469 400.968 155.622C390.183 155.441 379.48 157.536 369.558 161.769C349.341 170.168 333.287 186.252 324.926 206.485C320.699 216.424 318.605 227.139 318.779 237.938V239.117C319.037 244.967 318.107 250.809 316.046 256.291C313.985 261.772 310.836 266.779 306.787 271.01C302.738 275.241 297.875 278.609 292.489 280.909C287.104 283.21 281.309 284.396 275.453 284.396C269.597 284.396 263.801 283.21 258.416 280.909C253.031 278.609 248.167 275.241 244.118 271.01C240.07 266.779 236.92 261.772 234.859 256.291C232.798 250.809 231.868 244.967 232.126 239.117V237.938C231.95 215.365 236.452 193 245.347 172.254C262.446 131.675 294.696 99.3651 335.242 82.1904C355.996 73.2705 378.38 68.768 400.968 68.9694C423.311 68.7819 445.444 73.2861 465.937 82.1904C506.217 99.4042 538.144 131.724 554.863 172.211C563.659 193.028 568.059 215.424 567.874 238.022ZM452.589 651.075C455.474 657.962 456.96 665.355 456.96 672.822C456.96 680.289 455.474 687.682 452.589 694.569C446.883 708.037 436.163 718.758 422.695 724.464L422.484 724.59C415.765 727.465 408.53 728.941 401.221 728.927C390.07 729.027 379.14 725.816 369.816 719.699C360.492 713.583 353.192 704.837 348.842 694.569C344.469 684.363 343.271 673.076 345.404 662.179C347.537 651.282 352.902 641.279 360.8 633.475C366.094 628.397 372.292 624.356 379.074 621.559C386.085 618.614 393.617 617.111 401.221 617.138C408.529 617.131 415.762 618.607 422.484 621.475L422.695 621.601C429.331 624.42 435.396 628.43 440.589 633.433C445.721 638.442 449.8 644.426 452.589 651.033V651.075Z" fill="#737373"/>
</svg>
