<svg width="54" height="55" viewBox="0 0 54 55" fill="none" xmlns="http://www.w3.org/2000/svg">
<path d="M0 25.25V0.5H24.75V25.25H0ZM4.5 20.75H20.25V5H4.5V20.75ZM0 54.5V29.75H24.75V54.5H0ZM4.5 50H20.25V34.25H4.5V50ZM29.25 25.25V0.5H54V25.25H29.25ZM33.75 20.75H49.5V5H33.75V20.75ZM47.85 54.5V48.35H54V54.5H47.85ZM29.25 35.975V29.75H35.4V35.975H29.25ZM35.4 42.125V35.975H41.625V42.125H35.4ZM29.25 48.35V42.125H35.4V48.35H29.25ZM35.4 54.5V48.35H41.625V54.5H35.4ZM41.625 48.35V42.125H47.85V48.35H41.625ZM41.625 35.975V29.75H47.85V35.975H41.625ZM47.85 42.125V35.975H54V42.125H47.85Z" fill="black" fill-opacity="0.7"/>
</svg>
