<svg width="42" height="42" viewBox="0 0 42 42" fill="none" xmlns="http://www.w3.org/2000/svg">
<rect width="42" height="42" rx="2" fill="#E8E4EE"/>
<mask id="mask0_2658_4392" style="mask-type:alpha" maskUnits="userSpaceOnUse" x="9" y="9" width="24" height="24">
<rect x="9" y="9" width="24" height="24" fill="#D9D9D9"/>
</mask>
<g mask="url(#mask0_2658_4392)">
<path d="M14 30C13.45 30 12.979 29.8043 12.587 29.413C12.1957 29.021 12 28.55 12 28V14C12 13.45 12.1957 12.979 12.587 12.587C12.979 12.1957 13.45 12 14 12H18.2C18.4167 11.4 18.7793 10.9167 19.288 10.55C19.796 10.1833 20.3667 10 21 10C21.6333 10 22.2043 10.1833 22.713 10.55C23.221 10.9167 23.5833 11.4 23.8 12H28C28.55 12 29.021 12.1957 29.413 12.587C29.8043 12.979 30 13.45 30 14V28C30 28.55 29.8043 29.021 29.413 29.413C29.021 29.8043 28.55 30 28 30H14ZM16 26H23V24H16V26ZM16 22H26V20H16V22ZM16 18H26V16H16V18ZM21 13.25C21.2167 13.25 21.396 13.179 21.538 13.037C21.6793 12.8957 21.75 12.7167 21.75 12.5C21.75 12.2833 21.6793 12.104 21.538 11.962C21.396 11.8207 21.2167 11.75 21 11.75C20.7833 11.75 20.6043 11.8207 20.463 11.962C20.321 12.104 20.25 12.2833 20.25 12.5C20.25 12.7167 20.321 12.8957 20.463 13.037C20.6043 13.179 20.7833 13.25 21 13.25Z" fill="#121212" fill-opacity="0.8"/>
</g>
</svg>
