<svg width="22" height="18" viewBox="0 0 22 18" fill="none" xmlns="http://www.w3.org/2000/svg">
<path d="M17.2756 6.26818V6.43097L17.435 6.46401C19.9216 6.97951 21.8 9.1843 21.8 11.8165C21.8 14.8311 19.3581 17.283 16.3445 17.283C13.3302 17.283 10.8707 14.8302 10.8707 11.8165C10.8707 9.15557 12.8067 6.9321 15.2923 6.44868L15.4541 6.41721V6.25236V4.79293V4.59293H15.2541H14.4767V3.12689H15.2541H15.4541V2.92689V1.79399H17.2756V2.92689V3.12689H17.4756H18.1642V4.59293H17.4756H17.2756V4.79293V6.26818ZM12.707 11.8164C12.707 13.8264 14.342 15.4614 16.352 15.4614C18.3621 15.4614 19.997 13.8265 19.9971 11.8164C19.9971 9.80629 18.3621 8.1713 16.352 8.1713C14.342 8.1713 12.707 9.80629 12.707 11.8164Z" fill="#A0A0A0" stroke="white" stroke-width="0.4"/>
<path d="M4.79101 11.687V11.522L4.62908 11.4906C2.14324 11.0087 0.2 8.78411 0.2 6.12217C0.2 3.10866 2.66305 0.655688 5.67767 0.655688C8.69144 0.655688 11.1368 3.10781 11.1368 6.12217C11.1368 8.75283 9.25854 10.9568 6.77189 11.4736L6.61259 11.5067V11.6694V14.2174V14.6344L6.93781 14.3733L7.63146 13.8163L8.57171 14.9547L5.71636 17.2845L2.94823 14.9482L3.88663 13.8309L4.4604 14.3256L4.79101 14.6107V14.1742V11.687ZM5.68505 2.47717C3.67496 2.47717 2.03997 4.11216 2.03997 6.12217C2.03997 8.13226 3.67496 9.76725 5.68505 9.76725C7.69514 9.76725 9.33013 8.13226 9.33013 6.12217C9.33013 4.11216 7.69514 2.47717 5.68505 2.47717Z" fill="#A0A0A0" stroke="white" stroke-width="0.4"/>
</svg>
