<svg width="19" height="17" viewBox="0 0 19 17" fill="none" xmlns="http://www.w3.org/2000/svg">
<g clip-path="url(#clip0_207_87)">
<path d="M17.1291 12.1387C17.1925 12.1588 17.2373 12.1944 17.2651 12.2501C17.3115 12.3444 17.293 12.4852 17.2033 12.6878C17.2017 12.6909 17.2002 12.694 17.1987 12.6971L16.8709 13.2369C16.7441 13.4441 16.6157 13.6529 16.4456 13.8138C16.2678 13.9793 16.0498 14.0907 15.7514 14.0891C15.4731 14.0891 15.2628 13.9824 15.0896 13.8246C14.9226 13.673 14.7958 13.4766 14.6752 13.2833L14.3876 12.827C14.2825 12.6692 14.2284 12.5269 14.2237 12.4094C14.2222 12.3537 14.2314 12.3042 14.2515 12.2593C14.2732 12.2129 14.3057 12.1743 14.3505 12.1449C14.3722 12.131 14.3953 12.1186 14.4201 12.1093C14.4015 11.8618 14.3953 11.5494 14.4062 11.288C14.4124 11.2261 14.4247 11.1643 14.4417 11.1024C14.5144 10.8394 14.7 10.6291 14.9272 10.4837C15.0077 10.4327 15.0958 10.3894 15.1886 10.3569C15.7406 10.1573 16.4719 10.2656 16.8631 10.6894C17.0224 10.8626 17.1229 11.0916 17.1445 11.3932L17.1291 12.1387ZM2.3147 14.4077L2.82804 15.9204L3.08626 15.0233L2.95947 14.8841C2.90226 14.8006 2.88989 14.7279 2.92082 14.6645C2.98885 14.5284 3.1311 14.5547 3.26408 14.5547C3.40324 14.5547 3.57487 14.5284 3.61816 14.7032C3.63208 14.7619 3.61507 14.8223 3.57332 14.8857L3.44653 15.0249L3.70475 15.922L4.17017 14.4093C4.42839 14.6413 5.07316 14.731 5.52621 14.8532C5.56331 14.7774 5.60815 14.7078 5.65609 14.6444C5.77051 14.4943 5.91121 14.3814 6.06893 14.2948C6.56527 14.018 7.89966 13.936 8.35116 13.5307L9.04077 15.5616L9.38713 14.3567L9.21704 14.1711C9.13973 14.0597 9.12427 13.9607 9.16602 13.8772C9.25879 13.6947 9.44897 13.7287 9.62679 13.7287C9.81388 13.7287 10.0443 13.6931 10.103 13.9267C10.1231 14.0056 10.0984 14.086 10.0427 14.1711L9.87264 14.3567L10.219 15.5616L10.8437 13.5307C11.2952 13.936 12.6296 14.018 13.1259 14.2948C13.2836 14.383 13.4243 14.4943 13.5387 14.6444C13.5774 14.6954 13.613 14.7511 13.6454 14.8099C14.0768 14.7078 14.5979 14.6134 14.8237 14.4108L15.3385 15.9235L15.5968 15.0264L15.47 14.8872C15.4128 14.8037 15.4004 14.731 15.4313 14.6676C15.4994 14.5315 15.6416 14.5578 15.7746 14.5578C15.9137 14.5578 16.0854 14.5315 16.1287 14.7062C16.1426 14.765 16.1256 14.8253 16.0838 14.8888L15.957 15.028L16.2153 15.9251L16.6807 14.4124C17.0162 14.714 18.0104 14.7758 18.38 14.9816C18.4975 15.0465 18.6026 15.13 18.6877 15.2414C18.816 15.4116 18.8964 15.6343 18.9181 15.9173L18.9954 16.6675C18.9768 16.867 18.8639 16.983 18.6397 17H13.5326C13.514 17.0031 13.4954 17.0047 13.4769 17.0062H5.72258C5.70402 17.0047 5.68547 17.0031 5.66691 17H0.355632C0.132975 16.983 0.0185547 16.8686 0 16.6675L0.0773112 15.9173C0.0989583 15.6343 0.177816 15.4131 0.307699 15.2414C0.392741 15.1285 0.497884 15.0465 0.615397 14.9816C0.984945 14.7697 1.97917 14.7093 2.3147 14.4077ZM4.61548 12.1387C4.67887 12.1588 4.72371 12.1944 4.75155 12.2501C4.79793 12.3444 4.77938 12.4852 4.6897 12.6878C4.68815 12.6909 4.6866 12.694 4.68506 12.6971L4.35726 13.2369C4.23047 13.4441 4.10213 13.6529 3.93205 13.8138C3.75423 13.9793 3.53621 14.0907 3.23779 14.0891C2.95947 14.0891 2.74919 13.9824 2.57601 13.8246C2.40902 13.673 2.28223 13.4766 2.16162 13.2833L1.87402 12.827C1.76888 12.6692 1.71476 12.5269 1.71012 12.4094C1.70858 12.3537 1.71785 12.3042 1.73796 12.2593C1.7596 12.2129 1.79207 12.1743 1.83691 12.1449C1.85856 12.131 1.88175 12.1186 1.90649 12.1093C1.88794 11.8618 1.88175 11.5494 1.89258 11.288C1.89876 11.2261 1.91113 11.1643 1.92814 11.1024C2.00236 10.8394 2.18636 10.6291 2.41366 10.4837C2.49406 10.4327 2.58219 10.3894 2.67497 10.3569C3.22697 10.1573 3.95833 10.2656 4.34953 10.6894C4.50879 10.8626 4.60929 11.0916 4.63094 11.3932L4.61548 12.1387ZM2.09668 12.2624C2.04256 12.2655 2.00081 12.2779 1.97144 12.298C1.95288 12.3104 1.94051 12.3258 1.93123 12.3444C1.92196 12.3645 1.91732 12.3893 1.91886 12.4186C1.92196 12.5037 1.96525 12.6135 2.05184 12.7404L2.05339 12.7419L2.33171 13.1843C2.44303 13.3621 2.56055 13.5431 2.70589 13.6746C2.84505 13.8014 3.01514 13.888 3.23934 13.8896C3.4821 13.8896 3.65991 13.7999 3.80371 13.6653C3.9537 13.5246 4.07121 13.3328 4.18872 13.141L4.5026 12.6244C4.56755 12.4759 4.58765 12.3831 4.56445 12.3382C4.54744 12.3042 4.48714 12.2949 4.38664 12.3042C4.36963 12.3057 4.35262 12.3011 4.3387 12.2934C4.32324 12.2934 4.30778 12.2934 4.29077 12.2918L4.3016 12.2392C4.3016 12.2361 4.30005 12.2346 4.30005 12.2315C4.2985 12.2129 4.30314 12.1959 4.31242 12.1805L4.38355 11.8216C3.81144 11.8139 3.4187 11.7149 2.95483 11.4179C2.8033 11.3205 2.75692 11.2091 2.60384 11.2199C2.48942 11.2416 2.39201 11.2942 2.3147 11.3762C2.24048 11.455 2.18481 11.5633 2.14925 11.7025L2.22038 12.264C2.17554 12.2748 2.13534 12.2748 2.09668 12.2624ZM2.3147 8.53638L2.78939 9.93307C2.70744 9.95163 2.62703 9.97483 2.54972 10.0027C2.48633 10.0259 2.42757 10.0506 2.37655 10.0754C2.32707 10.1001 2.27295 10.1295 2.21574 10.1666C2.06112 10.2656 1.92196 10.3863 1.81217 10.527C1.70394 10.6647 1.62044 10.824 1.57096 11.0003C1.56014 11.0405 1.54932 11.0823 1.54159 11.1256C1.53385 11.1643 1.52922 11.2045 1.52458 11.2462C1.52303 11.254 1.52303 11.2632 1.52303 11.271C1.51839 11.3684 1.51685 11.4767 1.51685 11.5865H0.355632C0.131429 11.5695 0.0185547 11.455 0 11.2555L0.0773112 10.0413C0.0989583 9.75829 0.177816 9.53711 0.307699 9.36542C0.392741 9.25251 0.497884 9.17054 0.615397 9.10557C0.984945 8.89986 1.97917 8.83799 2.3147 8.53638ZM2.8667 9.9176L3.08781 9.15197L2.96102 9.01277C2.90381 8.92925 2.89144 8.85655 2.92236 8.79314C2.9904 8.65702 3.13265 8.68332 3.26563 8.68332C3.40479 8.68332 3.57642 8.65702 3.61971 8.8318C3.63363 8.89058 3.61662 8.9509 3.57487 9.01432L3.44808 9.15352L3.67074 9.92534C3.40788 9.8712 3.12956 9.86965 2.8667 9.9176ZM3.74186 9.93771L4.17326 8.53638C4.50879 8.83799 5.50301 8.89986 5.87256 9.10557C5.99007 9.17054 6.09522 9.25406 6.18026 9.36542C6.30859 9.53556 6.389 9.75829 6.41065 10.0413L6.48796 11.2555C6.4694 11.455 6.35653 11.571 6.13232 11.5881H5.00513L5.00822 11.4287C5.00977 11.4086 5.00977 11.3885 5.00822 11.3684C4.9943 11.1782 4.9541 11.008 4.89071 10.8518C4.82577 10.6925 4.73608 10.5533 4.6263 10.4342C4.39592 10.1821 4.08049 10.0181 3.74186 9.93771ZM4.61548 6.26889C4.67887 6.289 4.72371 6.32457 4.75155 6.38025C4.79793 6.4746 4.77938 6.61536 4.6897 6.81798C4.68815 6.82107 4.6866 6.82416 4.68506 6.82726L4.35726 7.36706C4.23047 7.57432 4.10213 7.78313 3.93205 7.94399C3.75423 8.10949 3.53621 8.22085 3.23779 8.2193C2.95947 8.2193 2.74919 8.11258 2.57601 7.95481C2.40902 7.80324 2.28223 7.6068 2.16162 7.41346L1.87402 6.95718C1.76888 6.79941 1.71476 6.65712 1.71012 6.53957C1.70858 6.48388 1.71785 6.43439 1.73796 6.38953C1.7596 6.34313 1.79207 6.30446 1.83691 6.27508C1.85856 6.26116 1.88175 6.24878 1.90649 6.2395C1.88794 5.99203 1.88175 5.67959 1.89258 5.41819C1.89876 5.35632 1.91113 5.29446 1.92814 5.23259C2.00236 4.96964 2.18636 4.75929 2.41366 4.6139C2.49406 4.56286 2.58219 4.51955 2.67497 4.48707C3.22697 4.28754 3.95833 4.39581 4.34953 4.81961C4.50879 4.99285 4.60929 5.22176 4.63094 5.52337L4.61548 6.26889ZM2.09668 6.37561C2.04256 6.37871 2.00081 6.39108 1.97144 6.41119C1.95288 6.42356 1.94051 6.43903 1.93123 6.45759C1.92196 6.4777 1.91732 6.50244 1.91886 6.53183C1.92196 6.6169 1.96525 6.72672 2.05184 6.85355L2.05339 6.8551L2.33171 7.29746C2.44303 7.47533 2.56055 7.6563 2.70589 7.78777C2.84505 7.9146 3.01514 8.00122 3.23934 8.00276C3.4821 8.00276 3.65991 7.91305 3.80371 7.77849C3.9537 7.63774 4.07121 7.44594 4.18872 7.25415L4.5026 6.73755C4.56755 6.58906 4.58765 6.49626 4.56445 6.4514C4.54744 6.41737 4.48714 6.40809 4.38664 6.41737C4.36963 6.41892 4.35262 6.41428 4.3387 6.40655C4.32324 6.40655 4.30778 6.40655 4.29077 6.405L4.3016 6.35241C4.3016 6.34932 4.30005 6.34777 4.30005 6.34468C4.2985 6.32612 4.30314 6.3091 4.31242 6.29364L4.38355 5.9348C3.81144 5.92706 3.4187 5.82807 2.95483 5.5311C2.8033 5.43366 2.75692 5.3223 2.60384 5.33312C2.48942 5.35478 2.39201 5.40737 2.3147 5.48934C2.24048 5.56823 2.18481 5.6765 2.14925 5.8157L2.22038 6.37716C2.17554 6.38799 2.13534 6.38644 2.09668 6.37561ZM11.4513 10.4822C11.5348 10.5084 11.5967 10.5579 11.6338 10.6322C11.6956 10.7575 11.6709 10.9477 11.5503 11.2199C11.5487 11.2246 11.5457 11.2292 11.5441 11.2323L11.105 11.9562C10.9349 12.2346 10.7633 12.5145 10.5344 12.7311C10.2963 12.9538 10.0025 13.1023 9.60205 13.1008C9.22787 13.0992 8.94645 12.9569 8.71452 12.745C8.49186 12.5408 8.32023 12.2779 8.15788 12.0196L7.77287 11.4055C7.63216 11.1952 7.55794 11.0019 7.5533 10.8441C7.55176 10.7698 7.56413 10.7018 7.59196 10.643C7.62134 10.5811 7.66463 10.5286 7.72494 10.4883C7.75277 10.4698 7.78369 10.4528 7.81925 10.4404C7.79452 10.1078 7.78524 9.68869 7.8007 9.33913C7.80843 9.25561 7.82544 9.17208 7.84863 9.08856C7.94759 8.73591 8.19499 8.45286 8.49959 8.25797C8.60783 8.18992 8.72534 8.13269 8.85059 8.08783C9.59123 7.82025 10.5731 7.96564 11.0988 8.53483C11.3137 8.76684 11.4467 9.07464 11.4761 9.47988L11.4513 10.4822ZM8.02026 10.6245C7.9445 10.6291 7.88729 10.6461 7.84709 10.6739C7.82235 10.691 7.80379 10.7126 7.79142 10.7374C7.77751 10.7652 7.77287 10.8008 7.77287 10.8394C7.77596 10.957 7.83781 11.1101 7.95687 11.2864L7.95842 11.2895L8.34342 11.9036C8.49805 12.1495 8.6604 12.4001 8.86141 12.5841C9.05469 12.7605 9.28971 12.8811 9.6005 12.8811C9.93604 12.8827 10.1819 12.7574 10.3829 12.5702C10.5901 12.3753 10.754 12.1093 10.9163 11.8433L11.3508 11.1271C11.4405 10.9214 11.4683 10.793 11.4374 10.7296C11.4142 10.6832 11.3307 10.6693 11.1916 10.6832C11.1668 10.6848 11.1436 10.6801 11.1251 10.6678C11.1034 10.6693 11.0818 10.6678 11.0586 10.6662L11.0725 10.5935C11.0725 10.5904 11.071 10.5858 11.071 10.5827C11.0679 10.5564 11.0756 10.5332 11.088 10.5131L11.1869 10.015C10.3922 10.0058 9.84945 9.86656 9.20622 9.45513C8.99593 9.32057 8.93099 9.1659 8.71916 9.18136C8.5599 9.2123 8.42537 9.28345 8.31869 9.3979C8.21663 9.50772 8.13932 9.65775 8.08984 9.85109L8.18726 10.6291C8.13005 10.6415 8.07284 10.6399 8.02026 10.6245ZM8.67122 4.14834L9.18457 5.66103L9.44279 4.76393L9.316 4.62473C9.25879 4.5412 9.24642 4.46851 9.27734 4.40509C9.34538 4.26898 9.48763 4.29527 9.62061 4.29527C9.75977 4.29527 9.9314 4.26898 9.97469 4.44376C9.98861 4.50254 9.9716 4.56286 9.92985 4.62627L9.80306 4.76548L10.0613 5.66258L10.5267 4.14988C10.8622 4.45149 11.8564 4.51336 12.226 4.71908C12.3435 4.78404 12.4486 4.86756 12.5337 4.97892C12.662 5.14906 12.7424 5.37179 12.7641 5.65484L12.8414 6.57823C12.8228 6.77776 12.71 6.89376 12.4858 6.91078H6.71216C6.4895 6.89376 6.37508 6.77931 6.35653 6.57823L6.43384 5.65484C6.45549 5.37179 6.53434 5.15061 6.66423 4.97892C6.74927 4.86601 6.85441 4.78404 6.97192 4.71908C7.34147 4.51027 8.33569 4.44995 8.67122 4.14834ZM10.972 1.8793C11.0354 1.89941 11.0802 1.93498 11.1081 1.99066C11.1545 2.08501 11.1359 2.22576 11.0462 2.42838C11.0447 2.43148 11.0431 2.43457 11.0416 2.43766L10.7138 2.97747C10.587 3.18473 10.4587 3.39354 10.2886 3.5544C10.1108 3.71989 9.89274 3.83126 9.59432 3.82971C9.316 3.82971 9.10571 3.72299 8.93254 3.56522C8.76554 3.41364 8.63875 3.21721 8.51815 3.02387L8.23055 2.56759C8.12541 2.40982 8.07129 2.26752 8.06665 2.14997C8.0651 2.09429 8.07438 2.0448 8.09448 1.99994C8.11613 1.95354 8.1486 1.91487 8.19344 1.88549C8.21509 1.87156 8.23828 1.85919 8.26302 1.84991C8.24447 1.60244 8.23828 1.29 8.24911 1.0286C8.25529 0.966733 8.26766 0.904865 8.28467 0.842996C8.35734 0.580053 8.54289 0.3697 8.77018 0.224308C8.85059 0.173266 8.93872 0.129958 9.0315 0.0974768C9.5835 -0.10205 10.3149 0.00622037 10.7061 0.430022C10.8653 0.603254 10.9658 0.832169 10.9875 1.13378L10.972 1.8793ZM8.45321 1.97674C8.39909 1.97984 8.35734 1.99221 8.32796 2.01232C8.30941 2.02469 8.29704 2.04016 8.28776 2.05872C8.27848 2.07883 8.27384 2.10357 8.27539 2.13296C8.27848 2.21803 8.32178 2.32785 8.40837 2.45468L8.40991 2.45622L8.68823 2.89859C8.79956 3.07646 8.91707 3.25743 9.06242 3.3889C9.20158 3.51573 9.37166 3.60234 9.59587 3.60389C9.83862 3.60389 10.0164 3.51418 10.1602 3.37962C10.3102 3.23887 10.4277 3.04707 10.5452 2.85528L10.8591 2.33867C10.9241 2.19019 10.9442 2.09739 10.921 2.05253C10.904 2.0185 10.8437 2.00922 10.7432 2.0185C10.7262 2.02005 10.7091 2.01541 10.6952 2.00768C10.6798 2.00768 10.6643 2.00768 10.6473 2.00613L10.6581 1.95354C10.6581 1.95045 10.6566 1.9489 10.6566 1.94581C10.655 1.92725 10.6597 1.91023 10.6689 1.89477L10.7401 1.53593C10.168 1.52819 9.77523 1.4292 9.31136 1.13223C9.15983 1.03479 9.11344 0.923425 8.96037 0.934252C8.84595 0.955906 8.74854 1.00849 8.67122 1.09047C8.59701 1.16935 8.54134 1.27762 8.50578 1.41683L8.57691 1.97829C8.53206 1.98912 8.49186 1.98912 8.45321 1.97674ZM17.1291 6.26889C17.1925 6.289 17.2373 6.32457 17.2651 6.38025C17.3115 6.4746 17.293 6.61536 17.2033 6.81798C17.2017 6.82107 17.2002 6.82416 17.1987 6.82726L16.8709 7.36706C16.7441 7.57432 16.6157 7.78313 16.4456 7.94399C16.2678 8.10949 16.0498 8.22085 15.7514 8.2193C15.4731 8.2193 15.2628 8.11258 15.0896 7.95481C14.9226 7.80324 14.7958 7.6068 14.6752 7.41346L14.3876 6.95718C14.2825 6.79941 14.2284 6.65712 14.2237 6.53957C14.2222 6.48388 14.2314 6.43439 14.2515 6.38953C14.2732 6.34313 14.3057 6.30446 14.3505 6.27508C14.3722 6.26116 14.3953 6.24878 14.4201 6.2395C14.4015 5.99203 14.3953 5.67959 14.4062 5.41819C14.4124 5.35632 14.4247 5.29446 14.4417 5.23259C14.5144 4.96964 14.7 4.75929 14.9272 4.6139C15.0077 4.56286 15.0958 4.51955 15.1886 4.48707C15.7406 4.28754 16.4719 4.39581 16.8631 4.81961C17.0224 4.99285 17.1229 5.22176 17.1445 5.52337L17.1291 6.26889ZM14.8267 8.53638L15.3014 9.93307C15.2195 9.95163 15.1391 9.97483 15.0618 10.0027C14.9984 10.0259 14.9396 10.0506 14.8886 10.0754C14.8391 10.1001 14.785 10.1295 14.7278 10.1666C14.5732 10.2656 14.434 10.3863 14.3242 10.527C14.216 10.6647 14.1325 10.824 14.083 11.0003V11.0019C14.0706 11.0436 14.0614 11.0854 14.0536 11.1256C14.0459 11.1643 14.0397 11.2045 14.0366 11.2462C14.0351 11.254 14.0351 11.2632 14.0351 11.271C14.0304 11.3684 14.0289 11.4767 14.0289 11.5865H12.8708C12.6481 11.5695 12.5337 11.455 12.5151 11.254L12.5924 10.0398C12.6141 9.75674 12.693 9.53556 12.8228 9.36388C12.9079 9.25097 13.013 9.16899 13.1305 9.10403C13.497 8.89986 14.4912 8.83799 14.8267 8.53638ZM15.3787 9.9176L15.5999 9.15197L15.4731 9.01277C15.4159 8.92925 15.4035 8.85655 15.4344 8.79314C15.5024 8.65702 15.6447 8.68332 15.7777 8.68332C15.9168 8.68332 16.0885 8.65702 16.1318 8.8318C16.1457 8.89058 16.1287 8.9509 16.0869 9.01432L15.9601 9.15352L16.1828 9.92534C15.9215 9.8712 15.6431 9.86965 15.3787 9.9176ZM16.2539 9.93771L16.6853 8.53638C17.0208 8.83799 18.0151 8.89986 18.3846 9.10557C18.5021 9.17054 18.6073 9.25406 18.6923 9.36542C18.8206 9.53556 18.901 9.75829 18.9227 10.0413L19 11.2555C18.9814 11.455 18.8686 11.571 18.6444 11.5881H17.5172L17.5203 11.4287C17.5218 11.4086 17.5218 11.3885 17.5203 11.3684C17.5063 11.1782 17.4661 11.008 17.4028 10.8518C17.3378 10.6925 17.2481 10.5533 17.1383 10.4342C16.908 10.1821 16.5925 10.0181 16.2539 9.93771ZM14.6087 6.37561C14.5546 6.37871 14.5129 6.39108 14.4835 6.41119C14.4649 6.42356 14.4526 6.43903 14.4433 6.45759C14.434 6.4777 14.4294 6.50244 14.4309 6.53183C14.434 6.6169 14.4773 6.72672 14.5639 6.85355L14.5654 6.8551L14.8438 7.29746C14.9551 7.47533 15.0726 7.6563 15.2179 7.78777C15.3571 7.9146 15.5272 8.00122 15.7514 8.00276C15.9941 8.00276 16.172 7.91305 16.3158 7.77849C16.4657 7.63774 16.5833 7.44594 16.7008 7.25415L17.0147 6.73755C17.0796 6.58906 17.0997 6.49626 17.0765 6.4514C17.0595 6.41737 16.9992 6.40809 16.8987 6.41737C16.8817 6.41892 16.8647 6.41428 16.8507 6.40655C16.8353 6.40655 16.8198 6.40655 16.8028 6.405L16.8136 6.35241C16.8136 6.34932 16.8121 6.34777 16.8121 6.34468C16.8105 6.32612 16.8152 6.3091 16.8245 6.29364L16.8956 5.9348C16.3235 5.92706 15.9307 5.82807 15.4669 5.5311C15.3153 5.43366 15.269 5.3223 15.1159 5.33312C15.0015 5.35478 14.9041 5.40737 14.8267 5.48934C14.7525 5.56823 14.6969 5.6765 14.6613 5.8157L14.7324 6.37716C14.6876 6.38799 14.6474 6.38644 14.6087 6.37561ZM14.6087 12.2624C14.5546 12.2655 14.5129 12.2779 14.4835 12.298C14.4649 12.3104 14.4526 12.3258 14.4433 12.3444C14.434 12.3645 14.4294 12.3893 14.4309 12.4186C14.434 12.5037 14.4773 12.6135 14.5639 12.7404L14.5654 12.7419L14.8438 13.1843C14.9551 13.3621 15.0726 13.5431 15.2179 13.6746C15.3571 13.8014 15.5272 13.888 15.7514 13.8896C15.9941 13.8896 16.172 13.7999 16.3158 13.6653C16.4657 13.5246 16.5833 13.3328 16.7008 13.141L17.0147 12.6244C17.0796 12.4759 17.0997 12.3831 17.0765 12.3382C17.0595 12.3042 16.9992 12.2949 16.8987 12.3042C16.8817 12.3057 16.8647 12.3011 16.8507 12.2934C16.8353 12.2934 16.8198 12.2934 16.8028 12.2918L16.8136 12.2392C16.8136 12.2361 16.8121 12.2346 16.8121 12.2315C16.8105 12.2129 16.8152 12.1959 16.8245 12.1805L16.8956 11.8216C16.3235 11.8139 15.9307 11.7149 15.4669 11.4179C15.3153 11.3205 15.269 11.2091 15.1159 11.2199C15.0015 11.2416 14.9041 11.2942 14.8267 11.3762C14.7525 11.455 14.6969 11.5633 14.6613 11.7025L14.7324 12.264C14.6876 12.2748 14.6474 12.2748 14.6087 12.2624Z" fill="#737373"/>
</g>
<defs>
<clipPath id="clip0_207_87">
<rect width="19" height="17" fill="white"/>
</clipPath>
</defs>
</svg>
