<svg width="26" height="26" viewBox="0 0 26 26" fill="none" xmlns="http://www.w3.org/2000/svg">
<path d="M3.25 5.41665V20.5833C3.25 20.7256 3.27802 20.8664 3.33246 20.9979C3.38691 21.1293 3.4667 21.2487 3.5673 21.3493C3.6679 21.4499 3.78732 21.5297 3.91876 21.5842C4.0502 21.6386 4.19107 21.6666 4.33333 21.6666H21.6667C21.8089 21.6666 21.9498 21.6386 22.0812 21.5842C22.2127 21.5297 22.3321 21.4499 22.4327 21.3493C22.5333 21.2487 22.6131 21.1293 22.6675 20.9979C22.722 20.8664 22.75 20.7256 22.75 20.5833V5.41665C22.75 5.12933 22.6359 4.85378 22.4327 4.65061C22.2295 4.44745 21.954 4.33331 21.6667 4.33331H4.33333C4.04602 4.33331 3.77047 4.44745 3.5673 4.65061C3.36414 4.85378 3.25 5.12933 3.25 5.41665Z" stroke="#737373" stroke-width="2"/>
<path d="M15.1667 19.5H19.5V21.6667H15.1667V19.5Z" fill="#737373"/>
<path d="M13 13C13.431 13 13.8443 12.8288 14.149 12.524C14.4538 12.2193 14.625 11.806 14.625 11.375C14.625 10.944 14.4538 10.5307 14.149 10.226C13.8443 9.9212 13.431 9.75 13 9.75C12.569 9.75 12.1557 9.9212 11.851 10.226C11.5462 10.5307 11.375 10.944 11.375 11.375C11.375 11.806 11.5462 12.2193 11.851 12.524C12.1557 12.8288 12.569 13 13 13ZM13 13.8125C11.9156 13.8125 9.75 14.3563 9.75 15.4375V16.25H16.25V15.4375C16.25 14.3563 14.0844 13.8125 13 13.8125Z" fill="#737373"/>
<path d="M17.0625 11.375C16.7393 11.375 16.4293 11.5034 16.2007 11.732C15.9722 11.9605 15.8438 12.2705 15.8438 12.5938C15.8438 12.917 15.9722 13.227 16.2007 13.4555C16.4293 13.6841 16.7393 13.8125 17.0625 13.8125C17.3857 13.8125 17.6957 13.6841 17.9243 13.4555C18.1528 13.227 18.2812 12.917 18.2812 12.5938C18.2812 12.2705 18.1528 11.9605 17.9243 11.732C17.6957 11.5034 17.3857 11.375 17.0625 11.375ZM17.0625 14.4224C16.8783 14.4224 16.6508 14.4441 16.4103 14.4853C16.6302 14.7398 16.7917 15.067 16.7917 15.4375V16.25H19.5V15.6401C19.5 14.8298 17.875 14.4224 17.0625 14.4224ZM15.1883 14.8937C14.8558 15.0843 14.625 15.3346 14.625 15.6412V15.7083H15.7083V15.4375C15.7083 15.3487 15.6737 15.262 15.5263 15.1266C15.4228 15.0364 15.3094 14.9583 15.1883 14.8937ZM8.9375 11.375C8.61427 11.375 8.30427 11.5034 8.07571 11.732C7.84715 11.9605 7.71875 12.2705 7.71875 12.5938C7.71875 12.917 7.84715 13.227 8.07571 13.4555C8.30427 13.6841 8.61427 13.8125 8.9375 13.8125C9.26073 13.8125 9.57073 13.6841 9.79929 13.4555C10.0278 13.227 10.1563 12.917 10.1563 12.5938C10.1563 12.2705 10.0278 11.9605 9.79929 11.732C9.57073 11.5034 9.26073 11.375 8.9375 11.375ZM8.9375 14.4224C8.125 14.4224 6.5 14.8298 6.5 15.6401V16.25H9.20833V15.4375C9.20833 15.067 9.37083 14.7398 9.58967 14.4853C9.37445 14.4457 9.1563 14.4254 8.9375 14.4224ZM10.8117 14.8937C10.6906 14.9583 10.5772 15.0364 10.4737 15.1266C10.3263 15.262 10.2917 15.3487 10.2917 15.4375V15.7083H11.375V15.6401C11.375 15.3346 11.1442 15.0843 10.8117 14.8937Z" fill="#737373"/>
</svg>
