<svg width="23" height="20" viewBox="0 0 23 20" fill="none" xmlns="http://www.w3.org/2000/svg">
<g clip-path="url(#clip0_254_2)">
<g clip-path="url(#clip1_254_2)">
<path d="M18 1.05563C18.0373 1.05563 18.0731 1.04081 18.0994 1.01444C18.1258 0.988069 18.1406 0.952294 18.1406 0.915V0.46875C18.1406 0.431454 18.1258 0.395685 18.0994 0.369313C18.0731 0.342941 18.0373 0.328125 18 0.328125C17.9627 0.328125 17.9269 0.342941 17.9006 0.369313C17.8742 0.395685 17.8594 0.431454 17.8594 0.46875V0.915C17.8594 0.952294 17.8742 0.988069 17.9006 1.01444C17.9269 1.04081 17.9627 1.05563 18 1.05563Z" fill="#737373"/>
<path d="M19.3668 1.62189C19.4041 1.62176 19.4398 1.60694 19.4662 1.58064L19.7812 1.2647C19.7944 1.25171 19.8048 1.23624 19.8119 1.21918C19.8191 1.20211 19.8227 1.18381 19.8227 1.16533C19.8227 1.14684 19.8191 1.12854 19.8119 1.11148C19.8048 1.09441 19.7944 1.07895 19.7812 1.06595C19.7547 1.03984 19.719 1.02521 19.6818 1.02521C19.6447 1.02521 19.609 1.03984 19.5825 1.06595L19.2675 1.38189C19.2543 1.39488 19.2439 1.41035 19.2368 1.42741C19.2296 1.44448 19.226 1.46278 19.226 1.48126C19.226 1.49975 19.2296 1.51805 19.2368 1.53511C19.2439 1.55218 19.2543 1.56765 19.2675 1.58064C19.2939 1.60694 19.3296 1.62176 19.3668 1.62189Z" fill="#737373"/>
<path d="M20.3794 2.70752H19.9331C19.8958 2.70752 19.86 2.72233 19.8337 2.7487C19.8073 2.77508 19.7925 2.81085 19.7925 2.84814C19.7925 2.88544 19.8073 2.9212 19.8337 2.94758C19.86 2.97395 19.8958 2.98877 19.9331 2.98877H20.3794C20.4166 2.98877 20.4524 2.97395 20.4788 2.94758C20.5052 2.9212 20.52 2.88544 20.52 2.84814C20.52 2.81085 20.5052 2.77508 20.4788 2.7487C20.4524 2.72233 20.4166 2.70752 20.3794 2.70752Z" fill="#737373"/>
<path d="M19.4663 4.11559C19.4539 4.10025 19.4385 4.08767 19.421 4.07867C19.4035 4.06966 19.3843 4.06444 19.3646 4.06334C19.3449 4.06222 19.3253 4.06526 19.3069 4.07223C19.2885 4.07921 19.2717 4.08997 19.2577 4.10383C19.2437 4.11768 19.2328 4.13432 19.2257 4.15267C19.2185 4.17102 19.2153 4.19066 19.2162 4.21033C19.2171 4.23 19.2222 4.24925 19.231 4.26685C19.2399 4.28444 19.2523 4.29998 19.2675 4.31247L19.5825 4.62747C19.609 4.6536 19.6447 4.66839 19.6819 4.66872C19.7093 4.66834 19.736 4.65995 19.7587 4.64459C19.7814 4.62923 19.7992 4.60757 19.8097 4.58227C19.8203 4.55697 19.8232 4.52912 19.8182 4.50218C19.8131 4.47524 19.8003 4.45035 19.7813 4.43059L19.4663 4.11559Z" fill="#737373"/>
<path d="M16.5338 4.1156L16.2188 4.4306C16.1992 4.45027 16.1858 4.47531 16.1804 4.50258C16.175 4.52984 16.1777 4.55809 16.1884 4.58378C16.199 4.60946 16.217 4.63141 16.2401 4.64687C16.2632 4.66232 16.2904 4.67058 16.3182 4.6706C16.3554 4.67027 16.391 4.65548 16.4175 4.62935L16.7325 4.31248C16.7464 4.29961 16.7574 4.28408 16.7651 4.26683C16.7728 4.24958 16.7769 4.23096 16.7773 4.21208C16.7776 4.19319 16.7741 4.17444 16.7671 4.15693C16.76 4.13942 16.7495 4.12352 16.7361 4.11016C16.7228 4.09681 16.7069 4.08628 16.6893 4.07921C16.6718 4.07213 16.6531 4.06866 16.6342 4.06899C16.6153 4.06933 16.5967 4.07346 16.5794 4.08114C16.5622 4.08883 16.5467 4.09991 16.5338 4.11373V4.1156Z" fill="#737373"/>
<path d="M16.0669 2.70752H15.6207C15.5834 2.70752 15.5476 2.72233 15.5212 2.7487C15.4949 2.77508 15.48 2.81085 15.48 2.84814C15.48 2.88544 15.4949 2.9212 15.5212 2.94758C15.5476 2.97395 15.5834 2.98877 15.6207 2.98877H16.0669C16.1042 2.98877 16.14 2.97395 16.1664 2.94758C16.1927 2.9212 16.2075 2.88544 16.2075 2.84814C16.2075 2.81085 16.1927 2.77508 16.1664 2.7487C16.14 2.72233 16.1042 2.70752 16.0669 2.70752Z" fill="#737373"/>
<path d="M16.5338 1.58064C16.5601 1.60697 16.5959 1.62177 16.6331 1.62177C16.6704 1.62177 16.7061 1.60697 16.7325 1.58064C16.7457 1.56765 16.7561 1.55218 16.7632 1.53511C16.7704 1.51805 16.774 1.49975 16.774 1.48126C16.774 1.46278 16.7704 1.44448 16.7632 1.42741C16.7561 1.41035 16.7457 1.39488 16.7325 1.38189L16.4175 1.06595C16.391 1.03984 16.3553 1.02521 16.3181 1.02521C16.2809 1.02521 16.2453 1.03984 16.2188 1.06595C16.2056 1.07895 16.1952 1.09441 16.188 1.11148C16.1809 1.12854 16.1772 1.14684 16.1772 1.16533C16.1772 1.18381 16.1809 1.20211 16.188 1.21918C16.1952 1.23624 16.2056 1.25171 16.2188 1.2647L16.5338 1.58064Z" fill="#737373"/>
<path d="M19.5431 2.71874C19.5221 2.46551 19.439 2.22134 19.3014 2.00777C19.1637 1.79421 18.9755 1.6178 18.7536 1.4941C18.5316 1.3704 18.2826 1.30323 18.0286 1.29849C17.7745 1.29375 17.5232 1.3516 17.2967 1.46693C17.0703 1.58226 16.8757 1.75153 16.7302 1.95982C16.5846 2.16811 16.4926 2.40901 16.4621 2.66128C16.4316 2.91356 16.4637 3.16946 16.5555 3.4064C16.6473 3.64335 16.796 3.85407 16.9884 4.01999C17.0989 4.1139 17.1878 4.23051 17.2491 4.36187C17.3104 4.49324 17.3427 4.63628 17.3437 4.78124V4.84687C17.3437 4.88417 17.3585 4.91994 17.3849 4.94631C17.4113 4.97268 17.4471 4.98749 17.4844 4.98749H17.5556V5.22656C17.5556 5.34442 17.6024 5.45744 17.6858 5.54078C17.7691 5.62411 17.8821 5.67093 18 5.67093C18.1178 5.67093 18.2309 5.62411 18.3142 5.54078C18.3975 5.45744 18.4444 5.34442 18.4444 5.22656V4.98843H18.5156C18.5529 4.98843 18.5887 4.97362 18.6151 4.94725C18.6414 4.92087 18.6562 4.88511 18.6562 4.84781V4.78124C18.6586 4.63445 18.6923 4.48985 18.755 4.35712C18.8177 4.22438 18.9081 4.10657 19.02 4.01156C19.2029 3.85251 19.3456 3.6525 19.4365 3.42784C19.5274 3.20318 19.5639 2.96022 19.5431 2.71874ZM18.1631 5.22749C18.1631 5.27076 18.1459 5.31225 18.1153 5.34284C18.0847 5.37343 18.0433 5.39062 18 5.39062C17.9567 5.39062 17.9152 5.37343 17.8846 5.34284C17.854 5.31225 17.8369 5.27076 17.8369 5.22749V4.98843H18.1631V5.22749Z" fill="#737373"/>
</g>
<path d="M12.9093 20.0001H9.10892C9.0372 20.0001 8.96842 19.9724 8.91771 19.9231C8.86699 19.8738 8.8385 19.8069 8.8385 19.7372V15.6682C8.8385 15.5984 8.86699 15.5316 8.91771 15.4823C8.96842 15.433 9.0372 15.4053 9.10892 15.4053H12.9091C12.9809 15.4053 13.0496 15.433 13.1004 15.4823C13.1511 15.5316 13.1796 15.5984 13.1796 15.6682V19.7372C13.1796 19.8069 13.1511 19.8737 13.1004 19.923C13.0497 19.9723 12.981 20 12.9093 20.0001Z" fill="#737373"/>
<path fill-rule="evenodd" clip-rule="evenodd" d="M7 3.26289V19.7372C7 19.8069 7.02849 19.8738 7.07921 19.9231C7.12992 19.9724 7.1987 20.0001 7.27042 20.0001H8.44059C8.40579 19.9165 8.38795 19.8273 8.38804 19.7372V15.6682C8.38804 15.4822 8.46402 15.3039 8.59925 15.1725C8.73449 15.041 8.91791 14.9671 9.10917 14.9671H12.9094C13.1006 14.9671 13.2841 15.041 13.4193 15.1725C13.5545 15.3039 13.6305 15.4822 13.6305 15.6682V19.7372C13.6306 19.8273 13.6128 19.9165 13.578 20.0001H14.7481C14.8199 20.0001 14.8886 19.9724 14.9394 19.9231C14.9901 19.8738 15.0186 19.8069 15.0186 19.7372V3.26289C15.0186 3.19317 14.9901 3.1263 14.9394 3.077C14.8886 3.0277 14.8199 3 14.7481 3H7.27042C7.1987 3 7.12992 3.0277 7.07921 3.077C7.02849 3.1263 7 3.19317 7 3.26289ZM8.62069 5.42198H9.81484C9.95633 5.4224 10.0919 5.47722 10.192 5.57449C10.292 5.67175 10.3484 5.80355 10.3488 5.9411V6.35353C10.3484 6.49107 10.292 6.62288 10.192 6.72013C10.0919 6.81738 9.95633 6.87218 9.81484 6.87255H8.62069C8.47921 6.87214 8.34365 6.81732 8.24359 6.72008C8.14353 6.62284 8.08712 6.49106 8.08665 6.35353V5.9411C8.08707 5.80353 8.14347 5.67172 8.24353 5.57444C8.34359 5.47717 8.47919 5.42234 8.62069 5.42194V5.42198ZM8.62069 7.73658H9.81484C9.95633 7.73699 10.0919 7.79182 10.192 7.88908C10.292 7.98634 10.3484 8.11814 10.3488 8.25569V8.66807C10.3484 8.80562 10.292 8.93743 10.192 9.03468C10.0919 9.13193 9.95633 9.18673 9.81484 9.1871H8.62069C8.47921 9.18669 8.34365 9.13187 8.24359 9.03463C8.14353 8.93739 8.08712 8.80561 8.08665 8.66807V8.25569C8.08702 8.1181 8.1434 7.98624 8.24347 7.88893C8.34353 7.79161 8.47915 7.73676 8.62069 7.73636V7.73658ZM8.62069 10.0512H9.81484C9.95633 10.0516 10.0919 10.1064 10.192 10.2037C10.292 10.3009 10.3484 10.4327 10.3488 10.5703V10.9827C10.3484 11.1202 10.292 11.252 10.192 11.3493C10.0919 11.4465 9.95633 11.5013 9.81484 11.5017H8.62069C8.55058 11.5017 8.48115 11.4883 8.41639 11.4621C8.35163 11.436 8.29281 11.3977 8.24332 11.3494L8.22858 11.3336C8.13752 11.2381 8.08683 11.1128 8.08665 10.9827V10.5703C8.08708 10.4327 8.14349 10.3009 8.24355 10.2037C8.34361 10.1064 8.47919 10.0516 8.62069 10.0512ZM8.62069 12.3657H9.81484C9.95634 12.3661 10.0919 12.421 10.192 12.5182C10.292 12.6155 10.3484 12.7473 10.3488 12.8849V13.2973C10.3484 13.4348 10.292 13.5666 10.192 13.6639C10.0919 13.7611 9.95633 13.8159 9.81484 13.8163H8.62069C8.55058 13.8163 8.48115 13.8029 8.41639 13.7767C8.35163 13.7506 8.29281 13.7123 8.24332 13.664L8.22858 13.6482C8.13752 13.5527 8.08683 13.4274 8.08665 13.2973V12.8849C8.08708 12.7473 8.14348 12.6155 8.24354 12.5182C8.3436 12.421 8.47919 12.3661 8.62069 12.3657ZM12.2038 6.87255C12.0623 6.87213 11.9268 6.81731 11.8267 6.72007C11.7267 6.62282 11.6703 6.49106 11.6698 6.35353V5.9411C11.6702 5.80355 11.7266 5.67175 11.8267 5.57449C11.9267 5.47722 12.0623 5.4224 12.2038 5.42198H13.398C13.4679 5.42204 13.5372 5.43552 13.6018 5.46166C13.6664 5.48779 13.7251 5.52606 13.7745 5.57428H13.7753L13.7896 5.58953C13.8811 5.68502 13.9319 5.81063 13.932 5.9411V6.35353C13.9316 6.49108 13.8752 6.62289 13.7751 6.72015C13.6751 6.8174 13.5395 6.87219 13.398 6.87255H12.2036H12.2038ZM12.2038 7.73658H13.398C13.5395 7.73679 13.6752 7.79154 13.7753 7.88885C13.8754 7.98616 13.9317 8.11808 13.9319 8.25569V8.66807C13.9319 8.73621 13.9181 8.80368 13.8912 8.86661C13.8644 8.92954 13.825 8.9867 13.7753 9.0348L13.7595 9.04874C13.6613 9.1376 13.5321 9.18703 13.398 9.1871H12.2037C12.0622 9.18669 11.9266 9.13187 11.8266 9.03463C11.7265 8.93738 11.6701 8.80561 11.6697 8.66807V8.25569C11.6697 8.18754 11.6835 8.12005 11.7104 8.05711C11.7373 7.99416 11.7766 7.93699 11.8263 7.88888L11.8421 7.87494C11.9403 7.7861 12.0695 7.73667 12.2037 7.73658H12.2038ZM12.2038 10.0512H13.398C13.5395 10.0514 13.6752 10.1061 13.7753 10.2034C13.8754 10.3008 13.9317 10.4327 13.9319 10.5703V10.9827C13.9319 11.0508 13.9181 11.1183 13.8912 11.1812C13.8644 11.2441 13.825 11.3013 13.7753 11.3494L13.7595 11.3633C13.6613 11.4522 13.5321 11.5016 13.398 11.5017H12.2037C12.0622 11.5013 11.9266 11.4465 11.8266 11.3492C11.7265 11.252 11.6701 11.1202 11.6697 10.9827V10.5703C11.6697 10.5021 11.6835 10.4346 11.7104 10.3717C11.7373 10.3088 11.7766 10.2516 11.8263 10.2035L11.8421 10.1895C11.9403 10.1007 12.0695 10.0513 12.2037 10.0512H12.2038ZM12.2038 12.3657H13.398C13.4681 12.3657 13.5375 12.3792 13.6023 12.4053C13.667 12.4314 13.7258 12.4697 13.7753 12.518L13.7896 12.5334C13.881 12.6289 13.9319 12.7544 13.9319 12.8849V13.2973C13.9315 13.4348 13.8751 13.5666 13.7751 13.6638C13.675 13.7611 13.5394 13.8159 13.398 13.8163H12.2037C12.0622 13.8159 11.9266 13.7611 11.8266 13.6638C11.7265 13.5666 11.6701 13.4348 11.6697 13.2973V12.8849C11.6701 12.7473 11.7265 12.6155 11.8265 12.5182C11.9266 12.421 12.0622 12.3661 12.2037 12.3657H12.2038Z" fill="#737373"/>
</g>
<defs>
<clipPath id="clip0_254_2">
<rect width="23" height="20" fill="white"/>
</clipPath>
<clipPath id="clip1_254_2">
<rect width="6" height="6" fill="white" transform="translate(15)"/>
</clipPath>
</defs>
</svg>
