<svg width="26" height="19" viewBox="0 0 26 19" fill="none" xmlns="http://www.w3.org/2000/svg">
<g clip-path="url(#clip0_207_90)">
<path d="M14.6904 19.0001H11.0308C10.9617 19.0001 10.8955 18.9724 10.8467 18.9231C10.7978 18.8738 10.7704 18.8069 10.7704 18.7372V14.6682C10.7704 14.5984 10.7978 14.5316 10.8467 14.4823C10.8955 14.433 10.9617 14.4053 11.0308 14.4053H14.6903C14.7593 14.4053 14.8256 14.433 14.8744 14.4823C14.9232 14.5316 14.9507 14.5984 14.9507 14.6682V18.7372C14.9507 18.8069 14.9233 18.8737 14.8745 18.923C14.8257 18.9723 14.7595 19 14.6904 19.0001Z" fill="#737373"/>
<path fill-rule="evenodd" clip-rule="evenodd" d="M9 2.26289V18.7372C9 18.8069 9.02744 18.8738 9.07627 18.9231C9.12511 18.9724 9.19134 19.0001 9.26041 19.0001H10.3872C10.3537 18.9165 10.3365 18.8273 10.3366 18.7372V14.6682C10.3366 14.4822 10.4098 14.3039 10.54 14.1725C10.6703 14.041 10.8469 13.9671 11.0311 13.9671H14.6905C14.8747 13.9671 15.0513 14.041 15.1816 14.1725C15.3118 14.3039 15.3849 14.4822 15.3849 14.6682V18.7372C15.385 18.8273 15.3678 18.9165 15.3343 19.0001H16.4612C16.5302 19.0001 16.5965 18.9724 16.6453 18.9231C16.6941 18.8738 16.7216 18.8069 16.7216 18.7372V2.26289C16.7216 2.19317 16.6941 2.1263 16.6453 2.077C16.5965 2.0277 16.5302 2 16.4612 2H9.26041C9.19134 2 9.12511 2.0277 9.07627 2.077C9.02744 2.1263 9 2.19317 9 2.26289ZM10.5607 4.42198H11.7106C11.8468 4.4224 11.9774 4.47722 12.0737 4.57449C12.1701 4.67175 12.2244 4.80355 12.2248 4.9411V5.35353C12.2244 5.49107 12.1701 5.62288 12.0738 5.72013C11.9774 5.81738 11.8468 5.87218 11.7106 5.87255H10.5607C10.4244 5.87214 10.2939 5.81732 10.1975 5.72008C10.1012 5.62284 10.0469 5.49106 10.0464 5.35353V4.9411C10.0468 4.80353 10.1011 4.67172 10.1975 4.57444C10.2938 4.47717 10.4244 4.42234 10.5607 4.42194V4.42198ZM10.5607 6.73658H11.7106C11.8468 6.73699 11.9774 6.79182 12.0737 6.88908C12.1701 6.98634 12.2244 7.11814 12.2248 7.25569V7.66807C12.2244 7.80562 12.1701 7.93743 12.0738 8.03468C11.9774 8.13193 11.8468 8.18673 11.7106 8.1871H10.5607C10.4244 8.18669 10.2939 8.13187 10.1975 8.03463C10.1012 7.93739 10.0469 7.80561 10.0464 7.66807V7.25569C10.0468 7.1181 10.1011 6.98624 10.1974 6.88893C10.2938 6.79161 10.4244 6.73676 10.5607 6.73636V6.73658ZM10.5607 9.05117H11.7106C11.8468 9.05159 11.9774 9.10641 12.0737 9.20367C12.1701 9.30094 12.2244 9.43273 12.2248 9.57029V9.98267C12.2244 10.1202 12.1701 10.252 12.0738 10.3493C11.9774 10.4465 11.8468 10.5013 11.7106 10.5017H10.5607C10.4931 10.5017 10.4263 10.4883 10.3639 10.4621C10.3016 10.436 10.2449 10.3977 10.1973 10.3494L10.1831 10.3336C10.0954 10.2381 10.0466 10.1128 10.0464 9.98267V9.57029C10.0468 9.43273 10.1011 9.30092 10.1975 9.20366C10.2938 9.10639 10.4244 9.05157 10.5607 9.05117ZM10.5607 11.3657H11.7106C11.8468 11.3661 11.9774 11.421 12.0738 11.5182C12.1701 11.6155 12.2244 11.7473 12.2248 11.8849V12.2973C12.2244 12.4348 12.1701 12.5666 12.0737 12.6639C11.9774 12.7611 11.8468 12.8159 11.7106 12.8163H10.5607C10.4931 12.8163 10.4263 12.8029 10.3639 12.7767C10.3016 12.7506 10.2449 12.7123 10.1973 12.664L10.1831 12.6482C10.0954 12.5527 10.0466 12.4274 10.0464 12.2973V11.8849C10.0468 11.7473 10.1011 11.6155 10.1975 11.5182C10.2938 11.421 10.4244 11.3661 10.5607 11.3657ZM14.0111 5.87255C13.8748 5.87213 13.7443 5.81731 13.648 5.72007C13.5516 5.62282 13.4973 5.49106 13.4969 5.35353V4.9411C13.4973 4.80355 13.5516 4.67175 13.6479 4.57449C13.7443 4.47722 13.8748 4.4224 14.0111 4.42198H15.161C15.2284 4.42204 15.2951 4.43552 15.3573 4.46166C15.4195 4.48779 15.476 4.52606 15.5236 4.57428H15.5244L15.5381 4.58953C15.6262 4.68502 15.6752 4.81063 15.6753 4.9411V5.35353C15.6749 5.49108 15.6206 5.62289 15.5242 5.72015C15.4278 5.8174 15.2973 5.87219 15.161 5.87255H14.0109H14.0111ZM14.0111 6.73658H15.161C15.2973 6.73679 15.428 6.79154 15.5244 6.88885C15.6208 6.98616 15.675 7.11808 15.6752 7.25569V7.66807C15.6752 7.73621 15.6619 7.80368 15.636 7.86661C15.6101 7.92954 15.5722 7.9867 15.5244 8.0348L15.5092 8.04874C15.4146 8.1376 15.2902 8.18703 15.161 8.1871H14.0109C13.8747 8.18669 13.7442 8.13187 13.6478 8.03463C13.5515 7.93738 13.4972 7.80561 13.4967 7.66807V7.25569C13.4967 7.18754 13.51 7.12005 13.5359 7.05711C13.5618 6.99416 13.5997 6.93699 13.6475 6.88888L13.6628 6.87494C13.7574 6.7861 13.8817 6.73667 14.0109 6.73658H14.0111ZM14.0111 9.05117H15.161C15.2973 9.05138 15.428 9.10614 15.5244 9.20345C15.6208 9.30075 15.675 9.43267 15.6752 9.57029V9.98267C15.6752 10.0508 15.6619 10.1183 15.636 10.1812C15.6101 10.2441 15.5722 10.3013 15.5244 10.3494L15.5092 10.3633C15.4146 10.4522 15.2902 10.5016 15.161 10.5017H14.0109C13.8747 10.5013 13.7442 10.4465 13.6478 10.3492C13.5515 10.252 13.4972 10.1202 13.4967 9.98267V9.57029C13.4967 9.50213 13.51 9.43465 13.5359 9.3717C13.5618 9.30875 13.5997 9.25158 13.6475 9.20347L13.6628 9.18954C13.7574 9.10069 13.8817 9.05126 14.0109 9.05117H14.0111ZM14.0111 11.3657H15.161C15.2285 11.3657 15.2954 11.3792 15.3577 11.4053C15.4201 11.4314 15.4767 11.4697 15.5244 11.518L15.5381 11.5334C15.6262 11.6289 15.6751 11.7544 15.6752 11.8849V12.2973C15.6748 12.4348 15.6205 12.5666 15.5241 12.6638C15.4278 12.7611 15.2972 12.8159 15.161 12.8163H14.0109C13.8747 12.8159 13.7442 12.7611 13.6478 12.6638C13.5515 12.5666 13.4972 12.4348 13.4967 12.2973V11.8849C13.4971 11.7473 13.5514 11.6155 13.6478 11.5182C13.7441 11.421 13.8747 11.3661 14.0109 11.3657H14.0111Z" fill="#737373"/>
<path d="M7.35145 20.0001H4.5529C4.50008 20.0001 4.44943 19.9789 4.41209 19.9412C4.37474 19.9035 4.35376 19.8524 4.35376 19.7991V16.6875C4.35376 16.6342 4.37474 16.583 4.41209 16.5453C4.44943 16.5076 4.50008 16.4865 4.5529 16.4865H7.35132C7.40413 16.4865 7.45478 16.5076 7.49213 16.5453C7.52947 16.583 7.55045 16.6342 7.55045 16.6875V19.7991C7.55045 19.8524 7.52949 19.9035 7.49217 19.9412C7.45486 19.9789 7.40424 20.0001 7.35145 20.0001Z" fill="#737373"/>
<path fill-rule="evenodd" clip-rule="evenodd" d="M3 7.20103V19.799C3 19.8524 3.02098 19.9035 3.05833 19.9412C3.09567 19.9789 3.14632 20.0001 3.19914 20.0001H4.06083C4.0352 19.9362 4.02206 19.8679 4.02213 19.799V16.6874C4.02213 16.5452 4.07808 16.4089 4.17767 16.3084C4.27725 16.2078 4.41232 16.1513 4.55316 16.1513H7.35158C7.49242 16.1513 7.62749 16.2078 7.72708 16.3084C7.82666 16.4089 7.88261 16.5452 7.88261 16.6874V19.799C7.88268 19.8679 7.86954 19.9362 7.84391 20.0001H8.70561C8.75842 20.0001 8.80907 19.9789 8.84642 19.9412C8.88376 19.9035 8.90474 19.8524 8.90474 19.799V7.20103C8.90474 7.14771 8.88376 7.09658 8.84642 7.05888C8.80907 7.02118 8.75842 7 8.70561 7H3.19914C3.14632 7 3.09567 7.02118 3.05833 7.05888C3.02098 7.09658 3 7.14771 3 7.20103ZM4.19345 8.85211H5.0728C5.177 8.85243 5.27683 8.89435 5.35051 8.96873C5.42419 9.04311 5.46572 9.14389 5.46603 9.24908V9.56446C5.46573 9.66965 5.42421 9.77044 5.35052 9.84481C5.27684 9.91918 5.177 9.96108 5.0728 9.96137H4.19345C4.08927 9.96105 3.98944 9.91913 3.91576 9.84477C3.84208 9.77041 3.80054 9.66964 3.80019 9.56446V9.24908C3.8005 9.14388 3.84203 9.04308 3.91572 8.9687C3.9894 8.89431 4.08925 8.85242 4.19345 8.85211ZM4.19345 10.6221H5.0728C5.177 10.6224 5.27683 10.6643 5.35051 10.7387C5.42419 10.8131 5.46572 10.9139 5.46603 11.0191V11.3344C5.46573 11.4396 5.42421 11.5404 5.35052 11.6148C5.27684 11.6891 5.177 11.731 5.0728 11.7313H4.19345C4.08927 11.731 3.98944 11.6891 3.91576 11.6147C3.84208 11.5404 3.80054 11.4396 3.80019 11.3344V11.0191C3.80047 10.9138 3.84198 10.813 3.91567 10.7386C3.98936 10.6642 4.08923 10.6224 4.19345 10.6221ZM4.19345 12.3921H5.0728C5.177 12.3924 5.27683 12.4343 5.35051 12.5087C5.42419 12.5831 5.46572 12.6839 5.46603 12.7891V13.1044C5.46573 13.2096 5.42421 13.3104 5.35052 13.3847C5.27684 13.4591 5.177 13.501 5.0728 13.5013H4.19345C4.14182 13.5013 4.09069 13.491 4.043 13.471C3.99532 13.4511 3.95201 13.4218 3.91556 13.3848L3.90471 13.3727C3.83765 13.2998 3.80033 13.2039 3.80019 13.1044V12.7891C3.80051 12.6839 3.84204 12.5831 3.91573 12.5087C3.98941 12.4343 4.08926 12.3924 4.19345 12.3921ZM4.19345 14.162H5.0728C5.177 14.1623 5.27684 14.2043 5.35052 14.2787C5.4242 14.353 5.46572 14.4538 5.46603 14.559V14.8744C5.46572 14.9796 5.4242 15.0804 5.35052 15.1547C5.27684 15.2291 5.17699 15.271 5.0728 15.2713H4.19345C4.14182 15.2713 4.09069 15.261 4.043 15.241C3.99532 15.221 3.95201 15.1918 3.91556 15.1548L3.90471 15.1427C3.83765 15.0698 3.80033 14.9739 3.80019 14.8744V14.559C3.80051 14.4538 3.84204 14.353 3.91573 14.2787C3.98941 14.2043 4.08925 14.1623 4.19345 14.162ZM6.832 9.96137C6.72782 9.96104 6.628 9.91912 6.55433 9.84476C6.48066 9.7704 6.43912 9.66964 6.43878 9.56446V9.24908C6.43909 9.14389 6.48062 9.04311 6.5543 8.96873C6.62797 8.89435 6.72781 8.85243 6.832 8.85211H7.71135C7.76289 8.85215 7.8139 8.86246 7.86148 8.88244C7.90906 8.90243 7.95226 8.9317 7.98862 8.96857L7.99977 8.98023C8.06711 9.05325 8.10457 9.14931 8.10461 9.24908V9.56446C8.10432 9.66965 8.06278 9.77045 7.9891 9.84482C7.91541 9.91919 7.81555 9.96109 7.71135 9.96137H6.832ZM6.832 10.6221H7.71135C7.8156 10.6223 7.91552 10.6641 7.98923 10.7385C8.06294 10.813 8.10442 10.9138 8.10458 11.0191V11.3344C8.10458 11.3865 8.09439 11.4381 8.0746 11.4862C8.05481 11.5344 8.0258 11.5781 7.98925 11.6149L7.9776 11.6255C7.90528 11.6935 7.81016 11.7313 7.71135 11.7313H6.8319C6.72772 11.731 6.6279 11.6891 6.55422 11.6147C6.48055 11.5404 6.43901 11.4396 6.43868 11.3344V11.0191C6.43867 10.9669 6.44886 10.9153 6.46865 10.8672C6.48844 10.8191 6.51745 10.7754 6.55401 10.7386L6.56566 10.7279C6.63799 10.66 6.73321 10.6222 6.832 10.6221ZM6.832 12.3921H7.71135C7.8156 12.3922 7.91552 12.4341 7.98923 12.5085C8.06294 12.5829 8.10442 12.6838 8.10458 12.7891V13.1044C8.10458 13.1565 8.09439 13.2081 8.0746 13.2562C8.05481 13.3043 8.0258 13.3481 7.98925 13.3848L7.9776 13.3955C7.90528 13.4635 7.81016 13.5013 7.71135 13.5013H6.8319C6.72772 13.501 6.6279 13.4591 6.55422 13.3847C6.48055 13.3103 6.43901 13.2096 6.43868 13.1044V12.7891C6.43867 12.7369 6.44886 12.6853 6.46865 12.6372C6.48844 12.5891 6.51745 12.5453 6.55401 12.5085L6.56566 12.4979C6.63799 12.4299 6.73321 12.3921 6.832 12.3921ZM6.832 14.162H7.71135C7.76299 14.162 7.81412 14.1723 7.8618 14.1923C7.90949 14.2123 7.9528 14.2416 7.98925 14.2785L7.99977 14.2902C8.06707 14.3633 8.10451 14.4593 8.10458 14.559V14.8744C8.10427 14.9796 8.06273 15.0803 7.98905 15.1547C7.91538 15.2291 7.81554 15.271 7.71135 15.2713H6.8319C6.72772 15.271 6.6279 15.2291 6.55422 15.1547C6.48055 15.0803 6.43901 14.9796 6.43868 14.8744V14.559C6.43897 14.4538 6.4805 14.353 6.55418 14.2787C6.62786 14.2043 6.7278 14.1623 6.832 14.162Z" fill="#737373"/>
<path d="M21.3515 20.0001H18.553C18.5001 20.0001 18.4495 19.9789 18.4121 19.9412C18.3748 19.9035 18.3538 19.8524 18.3538 19.7991V16.6875C18.3538 16.6342 18.3748 16.583 18.4121 16.5453C18.4495 16.5076 18.5001 16.4865 18.553 16.4865H21.3514C21.4042 16.4865 21.4548 16.5076 21.4922 16.5453C21.5295 16.583 21.5505 16.6342 21.5505 16.6875V19.7991C21.5505 19.8524 21.5296 19.9035 21.4922 19.9412C21.4549 19.9789 21.4043 20.0001 21.3515 20.0001Z" fill="#737373"/>
<path fill-rule="evenodd" clip-rule="evenodd" d="M17 7.20103V19.799C17 19.8524 17.021 19.9035 17.0583 19.9412C17.0957 19.9789 17.1463 20.0001 17.1991 20.0001H18.0608C18.0352 19.9362 18.0221 19.8679 18.0221 19.799V16.6874C18.0221 16.5452 18.0781 16.4089 18.1777 16.3084C18.2773 16.2078 18.4123 16.1513 18.5532 16.1513H21.3516C21.4924 16.1513 21.6275 16.2078 21.7271 16.3084C21.8267 16.4089 21.8826 16.5452 21.8826 16.6874V19.799C21.8827 19.8679 21.8695 19.9362 21.8439 20.0001H22.7056C22.7584 20.0001 22.8091 19.9789 22.8464 19.9412C22.8838 19.9035 22.9047 19.8524 22.9047 19.799V7.20103C22.9047 7.14771 22.8838 7.09658 22.8464 7.05888C22.8091 7.02118 22.7584 7 22.7056 7H17.1991C17.1463 7 17.0957 7.02118 17.0583 7.05888C17.021 7.09658 17 7.14771 17 7.20103ZM18.1935 8.85211H19.0728C19.177 8.85243 19.2768 8.89435 19.3505 8.96873C19.4242 9.04311 19.4657 9.14389 19.466 9.24908V9.56446C19.4657 9.66965 19.4242 9.77044 19.3505 9.84481C19.2768 9.91918 19.177 9.96108 19.0728 9.96137H18.1935C18.0893 9.96105 17.9894 9.91913 17.9158 9.84477C17.8421 9.77041 17.8005 9.66964 17.8002 9.56446V9.24908C17.8005 9.14388 17.842 9.04308 17.9157 8.9687C17.9894 8.89431 18.0892 8.85242 18.1935 8.85211ZM18.1935 10.6221H19.0728C19.177 10.6224 19.2768 10.6643 19.3505 10.7387C19.4242 10.8131 19.4657 10.9139 19.466 11.0191V11.3344C19.4657 11.4396 19.4242 11.5404 19.3505 11.6148C19.2768 11.6891 19.177 11.731 19.0728 11.7313H18.1935C18.0893 11.731 17.9894 11.6891 17.9158 11.6147C17.8421 11.5404 17.8005 11.4396 17.8002 11.3344V11.0191C17.8005 10.9138 17.842 10.813 17.9157 10.7386C17.9894 10.6642 18.0892 10.6224 18.1935 10.6221ZM18.1935 12.3921H19.0728C19.177 12.3924 19.2768 12.4343 19.3505 12.5087C19.4242 12.5831 19.4657 12.6839 19.466 12.7891V13.1044C19.4657 13.2096 19.4242 13.3104 19.3505 13.3847C19.2768 13.4591 19.177 13.501 19.0728 13.5013H18.1935C18.1418 13.5013 18.0907 13.491 18.043 13.471C17.9953 13.4511 17.952 13.4218 17.9156 13.3848L17.9047 13.3727C17.8376 13.2998 17.8003 13.2039 17.8002 13.1044V12.7891C17.8005 12.6839 17.842 12.5831 17.9157 12.5087C17.9894 12.4343 18.0893 12.3924 18.1935 12.3921ZM18.1935 14.162H19.0728C19.177 14.1623 19.2768 14.2043 19.3505 14.2787C19.4242 14.353 19.4657 14.4538 19.466 14.559V14.8744C19.4657 14.9796 19.4242 15.0804 19.3505 15.1547C19.2768 15.2291 19.177 15.271 19.0728 15.2713H18.1935C18.1418 15.2713 18.0907 15.261 18.043 15.241C17.9953 15.221 17.952 15.1918 17.9156 15.1548L17.9047 15.1427C17.8376 15.0698 17.8003 14.9739 17.8002 14.8744V14.559C17.8005 14.4538 17.842 14.353 17.9157 14.2787C17.9894 14.2043 18.0893 14.1623 18.1935 14.162ZM20.832 9.96137C20.7278 9.96104 20.628 9.91912 20.5543 9.84476C20.4807 9.7704 20.4391 9.66964 20.4388 9.56446V9.24908C20.4391 9.14389 20.4806 9.04311 20.5543 8.96873C20.628 8.89435 20.7278 8.85243 20.832 8.85211H21.7114C21.7629 8.85215 21.8139 8.86246 21.8615 8.88244C21.9091 8.90243 21.9523 8.9317 21.9886 8.96857L21.9998 8.98023C22.0671 9.05325 22.1046 9.14931 22.1046 9.24908V9.56446C22.1043 9.66965 22.0628 9.77045 21.9891 9.84482C21.9154 9.91919 21.8156 9.96109 21.7114 9.96137H20.832ZM20.832 10.6221H21.7114C21.8156 10.6223 21.9155 10.6641 21.9892 10.7385C22.0629 10.813 22.1044 10.9138 22.1046 11.0191V11.3344C22.1046 11.3865 22.0944 11.4381 22.0746 11.4862C22.0548 11.5344 22.0258 11.5781 21.9892 11.6149L21.9776 11.6255C21.9053 11.6935 21.8102 11.7313 21.7114 11.7313H20.8319C20.7277 11.731 20.6279 11.6891 20.5542 11.6147C20.4805 11.5404 20.439 11.4396 20.4387 11.3344V11.0191C20.4387 10.9669 20.4489 10.9153 20.4686 10.8672C20.4884 10.8191 20.5174 10.7754 20.554 10.7386L20.5657 10.7279C20.638 10.66 20.7332 10.6222 20.832 10.6221ZM20.832 12.3921H21.7114C21.8156 12.3922 21.9155 12.4341 21.9892 12.5085C22.0629 12.5829 22.1044 12.6838 22.1046 12.7891V13.1044C22.1046 13.1565 22.0944 13.2081 22.0746 13.2562C22.0548 13.3043 22.0258 13.3481 21.9892 13.3848L21.9776 13.3955C21.9053 13.4635 21.8102 13.5013 21.7114 13.5013H20.8319C20.7277 13.501 20.6279 13.4591 20.5542 13.3847C20.4805 13.3103 20.439 13.2096 20.4387 13.1044V12.7891C20.4387 12.7369 20.4489 12.6853 20.4686 12.6372C20.4884 12.5891 20.5174 12.5453 20.554 12.5085L20.5657 12.4979C20.638 12.4299 20.7332 12.3921 20.832 12.3921ZM20.832 14.162H21.7114C21.763 14.162 21.8141 14.1723 21.8618 14.1923C21.9095 14.2123 21.9528 14.2416 21.9892 14.2785L21.9998 14.2902C22.0671 14.3633 22.1045 14.4593 22.1046 14.559V14.8744C22.1043 14.9796 22.0627 15.0803 21.9891 15.1547C21.9154 15.2291 21.8155 15.271 21.7114 15.2713H20.8319C20.7277 15.271 20.6279 15.2291 20.5542 15.1547C20.4805 15.0803 20.439 14.9796 20.4387 14.8744V14.559C20.439 14.4538 20.4805 14.353 20.5542 14.2787C20.6279 14.2043 20.7278 14.1623 20.832 14.162Z" fill="#737373"/>
</g>
<defs>
<clipPath id="clip0_207_90">
<rect width="26" height="19" fill="white"/>
</clipPath>
</defs>
</svg>
