<svg width="27" height="27" viewBox="0 0 27 27" fill="none" xmlns="http://www.w3.org/2000/svg">
<g clip-path="url(#clip0_348_9)">
<path fill-rule="evenodd" clip-rule="evenodd" d="M8.66602 10.2205C8.39575 10.2313 8.19141 10.2855 8.05078 10.3787C7.97168 10.4306 7.91235 10.5 7.875 10.5801C7.83325 10.669 7.81348 10.7773 7.81787 10.9029C7.82886 11.2691 8.02222 11.7479 8.39795 12.2982L8.40234 12.3068L9.62402 14.2155C10.114 14.9824 10.626 15.7645 11.2632 16.3387C11.8762 16.8911 12.6189 17.2637 13.6011 17.2681C14.6646 17.2702 15.4446 16.8824 16.0752 16.2997C16.7322 15.693 17.2507 14.8611 17.7627 14.0313L19.136 11.7999C19.3931 11.2236 19.4854 10.8379 19.426 10.6126C19.3909 10.4783 19.2415 10.4111 18.9844 10.4003C18.9294 10.3982 18.8745 10.396 18.8174 10.3982C18.7559 10.4003 18.6921 10.4047 18.6262 10.409C18.5889 10.4133 18.5537 10.409 18.5208 10.4025C18.3977 10.409 18.2725 10.4003 18.145 10.383L18.6152 8.32916C15.1238 8.87078 12.5134 6.31432 8.82202 7.81787L9.08789 10.2378C8.93628 10.2443 8.79565 10.2378 8.66602 10.2205ZM10.8765 20.6131C10.2041 19.8592 10.147 19.0684 10.8765 18.2322C11.7026 18.438 12.4607 18.7868 13.1594 19.2591C13.3264 19.2049 13.5132 19.1919 13.6956 19.2179C14.436 18.6915 15.3896 18.4835 16.2202 18.0913C17.2046 19.0359 17.0991 19.9069 16.1301 20.7171C15.5457 20.585 14.9919 20.3748 14.4646 20.0997C14.458 20.2405 14.4229 20.3965 14.3525 20.5698L15.4292 24.2528C16.262 22.5283 17.1277 20.8146 17.3254 18.8561C16.9958 18.4748 16.6465 17.97 16.3433 17.5324C16.2532 17.4024 16.1697 17.2811 16.0884 17.1663C15.4226 17.6472 14.6228 17.9484 13.5989 17.944C12.498 17.9419 11.6499 17.5541 10.949 16.9691C10.9446 16.9756 10.9402 16.9843 10.9358 16.9908C10.8215 17.1468 10.6941 17.3309 10.5557 17.5302C10.2964 17.905 10.0063 18.3253 9.7207 18.6785C10.0898 20.9489 10.9731 22.5456 11.7729 24.2507L12.8496 20.5676C12.7112 20.338 12.6475 20.1387 12.6387 19.9654C12.0872 20.2752 11.4939 20.4766 10.8765 20.6131ZM16.5146 16.8218C16.6003 16.9431 16.697 17.0818 16.7981 17.2269C16.9871 17.4999 17.1958 17.801 17.4023 18.0762C18.8306 19.2916 22.9153 19.5429 24.4424 20.3835C24.928 20.65 25.3696 20.9923 25.7234 21.4516C26.2595 22.1492 26.5891 23.0634 26.6792 24.2225L27 25.6372C26.9209 26.4561 26.4507 26.9284 25.5212 26.9999H13.6011H1.47876C0.551514 26.9306 0.0791016 26.4583 0 25.6372L0.320801 24.2225C0.410889 23.0634 0.740478 22.1513 1.27661 21.4516C1.63037 20.9901 2.06982 20.65 2.55762 20.3835C4.00781 19.5862 7.76294 19.3197 9.36255 18.2538C9.61304 17.9354 9.87012 17.5606 10.103 17.2269C10.2458 17.0189 10.3799 16.8261 10.4919 16.6745C10.5117 16.6485 10.5337 16.6268 10.5601 16.6095C9.96899 16.0115 9.49439 15.2879 9.04175 14.5773L7.82227 12.6643C7.37622 12.0078 7.14551 11.4099 7.13013 10.9181C7.12354 10.6863 7.16309 10.4761 7.24878 10.292C7.33887 10.0992 7.47949 9.93669 7.66846 9.81103C7.75635 9.75254 7.85522 9.70271 7.96509 9.66155C7.88599 8.6238 7.85742 7.31741 7.90796 6.22333C7.93433 5.96335 7.98486 5.70338 8.05737 5.44556C8.36938 4.34716 9.15161 3.46323 10.1184 2.85661C10.459 2.64213 10.8325 2.46448 11.228 2.32366C11.929 2.07234 11.5884 1.0151 12.3662 0.997767C14.1877 0.956604 17.1716 2.47531 18.3362 3.71671C19.0129 4.44031 19.4392 5.39573 19.5293 6.66313L19.4524 9.78287C19.7908 9.88469 20.0061 10.0948 20.0962 10.4371C20.1951 10.8163 20.0874 11.3514 19.7622 12.0793C19.7556 12.0923 19.749 12.1053 19.7424 12.1183L18.3516 14.3758C17.8154 15.2446 17.2727 16.1177 16.5454 16.7871L16.5146 16.8218Z" fill="#737373"/>
</g>
<defs>
<clipPath id="clip0_348_9">
<rect width="27" height="27" fill="white"/>
</clipPath>
</defs>
</svg>
