<svg width="19" height="19" viewBox="0 0 19 19" fill="none" xmlns="http://www.w3.org/2000/svg">
<rect width="19" height="19" fill="white"/>
<path d="M7.88569 4.43694C6.34023 4.43694 5.86589 4.4524 4.30513 4.4524C4.12151 4.4524 3.9532 4.46786 3.80018 4.49878C3.63186 4.5297 3.47885 4.57608 3.34113 4.63792C3.18812 4.69976 3.05041 4.77705 2.91269 4.86981C2.77498 4.96257 2.65257 5.07079 2.53015 5.19447C2.40774 5.31814 2.30063 5.44182 2.20882 5.58096C2.11701 5.7201 2.0405 5.85923 1.9793 6.01383C1.91809 6.16843 1.87219 6.32303 1.84158 6.47762C1.81098 6.64768 1.79568 6.81774 1.79568 6.98779V12.1359C1.79568 12.3214 1.81098 12.4915 1.84158 12.6461C1.87219 12.8161 1.91809 12.9707 1.9793 13.1098C2.0405 13.2644 2.11701 13.4036 2.20882 13.5427C2.30063 13.6819 2.40774 13.8055 2.53015 13.9292C2.65257 14.0529 2.79028 14.1611 2.92799 14.2539C3.06571 14.3466 3.20342 14.4239 3.35644 14.4858C3.50945 14.5476 3.66247 14.594 3.81548 14.6249C3.9838 14.6558 4.15212 14.6713 4.32043 14.6713H6.24842C6.30963 14.6713 6.37084 14.6867 6.41674 14.7177C6.46265 14.7486 6.50855 14.7795 6.55446 14.8259C6.70747 15.0269 6.86049 15.2278 7.0288 15.4133C7.19712 15.5989 7.36544 15.7844 7.56436 15.9544C7.74798 16.1245 7.93159 16.2945 8.14581 16.4491C8.34473 16.6037 8.55896 16.7583 8.75788 16.8975C8.9568 17.0366 9.17102 17.1603 9.40054 17.284C9.61476 17.4076 9.84428 17.5159 10.0738 17.6241C10.1044 17.6395 10.135 17.6395 10.1503 17.6241C10.1962 17.5932 10.2115 17.5468 10.1809 17.5004C10.135 17.4231 10.1044 17.3613 10.0585 17.284C10.0279 17.2067 9.982 17.1448 9.9514 17.0675C9.89019 16.9129 9.82898 16.7738 9.76778 16.6192C9.70657 16.4646 9.64536 16.31 9.59946 16.1399C9.55356 15.9854 9.49235 15.8308 9.44644 15.6762C9.40054 15.5216 9.35464 15.367 9.30873 15.1969C9.29343 15.1505 9.29343 15.1041 9.29343 15.0578C9.29343 14.9496 9.33933 14.8568 9.40054 14.7795C9.47705 14.7022 9.56886 14.6558 9.67597 14.6558H11.9253C12.1089 14.6558 12.2772 14.6404 12.4302 14.6094C12.5833 14.5785 12.7363 14.5321 12.8893 14.4703C13.027 14.4085 13.18 14.3312 13.3024 14.2384C13.4401 14.1456 13.5779 14.0374 13.7003 13.8983C13.8227 13.7746 13.9298 13.6509 14.0216 13.5118C14.1134 13.3727 14.1899 13.2335 14.2511 13.0789C14.3123 12.9243 14.3582 12.7697 14.3888 12.6151C14.4194 12.4451 14.4347 12.275 14.4347 12.105V11.0537C14.4347 10.5281 15.108 10.5281 15.2304 10.8991V12.105C15.2304 12.3369 15.2151 12.5533 15.1692 12.7697C15.1233 12.9862 15.0621 13.1871 14.9856 13.4036C14.9091 13.6046 14.802 13.7901 14.6796 13.9756C14.5572 14.1611 14.4194 14.3312 14.2511 14.4858C14.0981 14.6558 13.9145 14.795 13.7462 14.9186C13.5626 15.0423 13.3789 15.1351 13.1953 15.2278C12.9964 15.3051 12.7822 15.367 12.5833 15.4133C12.369 15.4597 12.1548 15.4752 11.9253 15.4752H10.3339C10.3186 15.4752 10.3186 15.4752 10.3033 15.4752C10.2574 15.4906 10.2268 15.537 10.2421 15.5834C10.2727 15.6762 10.3033 15.7844 10.3339 15.8926C10.3798 16.0317 10.441 16.1863 10.5022 16.3255C10.5635 16.4646 10.6094 16.6037 10.6706 16.7274V16.7429C10.7318 16.882 10.793 17.0057 10.8695 17.1448C10.946 17.2685 11.0378 17.4076 11.1296 17.5313C11.2214 17.655 11.3285 17.7787 11.4509 17.9178C11.5734 18.0415 11.6958 18.1806 11.8488 18.2889C11.9253 18.3662 11.9712 18.4589 11.9865 18.5671C11.9865 18.6599 11.9559 18.7681 11.8947 18.8454C11.8488 18.9072 11.7876 18.9382 11.7111 18.9536C11.6499 18.9691 11.5734 18.9691 11.4968 18.9536C11.2061 18.8763 10.9154 18.7836 10.64 18.6908C10.3645 18.598 10.0891 18.4898 9.82898 18.3661C9.56886 18.2579 9.30873 18.1188 9.06391 17.9951C8.81908 17.856 8.57426 17.7168 8.34473 17.5622C8.11521 17.4076 7.88569 17.253 7.67147 17.083C7.45725 16.9129 7.24302 16.7274 7.0441 16.5419C6.87579 16.3873 6.70747 16.2172 6.55446 16.0317C6.40144 15.8617 6.23312 15.6762 6.09541 15.4906C6.08011 15.4597 6.0495 15.4443 6.0189 15.4443H4.30513C4.07561 15.4443 3.86139 15.4288 3.64716 15.3824C3.43294 15.336 3.23402 15.2742 3.0351 15.1969C2.83618 15.1196 2.65257 15.0114 2.46895 14.8877C2.28533 14.764 2.11701 14.6249 1.964 14.4703C1.79568 14.3002 1.65797 14.1302 1.53555 13.9601C1.41314 13.7746 1.30603 13.5891 1.22952 13.3881C1.15302 13.1871 1.09181 12.9862 1.0459 12.7697C1.0153 12.5842 1 12.3678 1 12.1359V6.95687C1 6.72498 1.0153 6.50854 1.06121 6.29211C1.10711 6.07567 1.16832 5.87469 1.24482 5.67372C1.32133 5.47274 1.42844 5.28723 1.55086 5.10171C1.67327 4.91619 1.81098 4.74613 1.9793 4.59154C2.14761 4.42148 2.31593 4.28234 2.48425 4.15867C2.66787 4.03499 2.85149 3.94223 3.0351 3.84947C3.23402 3.77217 3.44824 3.71033 3.66247 3.66395C3.87669 3.61758 4.09091 3.60212 4.32043 3.60212C5.92709 3.60212 6.46265 3.60212 8.06931 3.60212C8.45185 3.71033 8.46715 4.43694 7.88569 4.43694ZM16.2862 4.05045C16.3015 4.25142 16.2403 4.5297 16.1332 4.76159C16.0567 4.93165 15.9649 5.07079 15.8731 5.14809C16.072 5.45728 16.3015 5.75102 16.5311 5.99837C16.7606 6.24573 16.9901 6.4467 17.2349 6.6013H17.2502C17.2502 6.6013 17.2655 6.6013 17.2808 6.6013C17.2961 6.6013 17.3114 6.6013 17.3267 6.58584C17.342 6.58584 17.3573 6.57038 17.3573 6.57038C17.4032 6.524 17.4338 6.46216 17.4491 6.38487C17.4797 6.29211 17.4951 6.19935 17.4951 6.09113C17.5104 5.75102 17.4491 5.3336 17.3267 4.86981C17.189 4.35964 16.9748 3.80309 16.73 3.262C16.4851 2.73637 16.1944 2.21074 15.9037 1.77787C15.6283 1.36046 15.3375 1.00488 15.0774 0.772986C14.9856 0.680228 14.8785 0.618389 14.802 0.57201C14.7255 0.525631 14.6643 0.510171 14.6031 0.510171H14.5878C14.5725 0.525631 14.5572 0.54109 14.5419 0.57201C14.45 0.803906 14.45 1.17494 14.5113 1.62327C14.5725 2.0716 14.7102 2.58177 14.8938 3.1074C14.9397 3.09194 14.9703 3.09194 15.0315 3.09194C15.1998 3.07648 15.414 3.09194 15.6283 3.16924C15.8425 3.24654 16.0567 3.38568 16.1791 3.61757C16.225 3.72579 16.2709 3.86493 16.2862 4.05045ZM17.2196 7.12693C17.2043 7.12693 17.1737 7.12693 17.1584 7.12693C17.1431 7.12693 17.1125 7.12693 17.0972 7.11147L17.0207 7.09601C16.8371 7.08055 16.6382 7.03417 16.4392 7.00325H16.4239C16.2097 6.95687 16.0261 6.89504 15.8425 6.81774C15.414 6.64768 14.955 6.46216 14.0828 6.64768C14.0675 6.69406 14.0675 6.72498 14.0675 6.77136C14.0675 6.81774 14.0522 6.87958 14.0675 6.92596C14.0675 6.95687 14.0828 6.98779 14.0828 7.01871C14.0828 7.03417 14.0981 7.04963 14.0981 7.04963L14.1134 7.06509C14.2358 7.15785 14.297 7.20423 14.3429 7.32791C14.3888 7.43613 14.3735 7.54434 14.3735 7.65256C14.3582 7.76078 14.3582 7.869 14.4806 7.91538C14.6337 7.96176 14.7867 8.0236 14.8785 8.22457C14.8938 8.24003 14.8938 8.27095 14.9091 8.28641C14.9091 8.30187 14.9091 8.33279 14.9091 8.34825C14.8785 8.64198 14.45 9.0594 14.2052 9.29129C14.1593 9.33767 14.1134 9.38405 14.0828 9.41497L14.0675 9.43043C14.0369 9.46135 14.0063 9.49227 13.9757 9.52319V9.58503C13.7768 9.786 13.5779 9.8633 13.4095 9.8633C13.2259 9.8633 13.0729 9.77054 12.9352 9.63141C12.8434 9.53865 12.7669 9.41497 12.6904 9.29129C12.6292 9.16761 12.568 9.04394 12.5068 8.9048C12.4914 8.87388 12.4761 8.8275 12.4608 8.79658C12.2925 8.42555 12.1395 7.99268 12.0018 7.52888C11.5581 7.7144 11.1449 7.91538 10.64 7.76078C10.3492 7.66802 10.1044 7.48251 9.89019 7.25061C9.81368 7.15785 9.73717 7.04963 9.67597 6.94142C9.61476 6.8332 9.55355 6.72498 9.50765 6.6013C9.46175 6.47762 9.41584 6.36941 9.38524 6.24573C9.35464 6.12205 9.32403 5.99837 9.32403 5.87469C9.29343 5.5655 9.32403 5.27177 9.43114 5.02441C9.75247 4.31326 11.8641 3.38568 12.6904 2.4581C13.2412 1.82425 13.5626 1.23678 13.7921 0.803906V0.788446C13.9298 0.54109 14.0369 0.340114 14.144 0.200976C14.1746 0.170057 14.2052 0.139137 14.2358 0.108218C14.2664 0.0772986 14.297 0.0618389 14.3429 0.0309194C14.3888 0.0309194 14.4194 0.0154597 14.4653 0C14.5113 0 14.5572 0 14.6031 0C14.7255 0.0154597 14.8479 0.0463792 14.9856 0.108218C15.1233 0.170057 15.2457 0.262815 15.3834 0.386493C15.6742 0.649308 15.9955 1.02034 16.3015 1.46867C16.6229 1.93247 16.9136 2.47356 17.1737 3.03011C17.4338 3.60212 17.6634 4.18958 17.8164 4.74613C17.9541 5.25631 18.0153 5.7201 18 6.10659C17.9847 6.27665 17.9541 6.41579 17.9082 6.55492C17.8623 6.69406 17.8011 6.80228 17.7093 6.9105L17.694 6.92596L17.6787 6.95687C17.6175 7.00325 17.5563 7.03417 17.4951 7.06509C17.4338 7.09601 17.3726 7.11147 17.3267 7.11147C17.3114 7.11147 17.2808 7.11147 17.2655 7.11147L17.2196 7.12693ZM11.0531 12.3832C11.252 12.3832 11.4203 12.2132 11.4203 12.0122C11.4203 11.8112 11.252 11.6412 11.0531 11.6412L7.12061 11.5793L6.37084 11.533C6.17192 11.5175 5.9883 11.6721 5.973 11.8885C5.9577 12.0895 6.11071 12.275 6.32493 12.2905L7.07471 12.3369C7.09001 12.3214 10.7165 12.3678 11.0531 12.3832ZM9.87489 10.0334C10.0738 10.0334 10.2421 9.8633 10.2421 9.66233C10.2421 9.46135 10.0738 9.29129 9.87489 9.29129H4.56526C4.36634 9.29129 4.19802 9.46135 4.19802 9.66233C4.19802 9.8633 4.36634 10.0334 4.56526 10.0334H9.87489ZM8.22232 7.7917C8.42124 7.7917 8.58956 7.62164 8.58956 7.42067C8.58956 7.21969 8.42124 7.04963 8.22232 7.04963H4.56526C4.36634 7.04963 4.19802 7.21969 4.19802 7.42067C4.19802 7.62164 4.36634 7.7917 4.56526 7.7917H8.22232Z" fill="#737373"/>
</svg>
