<svg width="17" height="19" viewBox="0 0 17 19" fill="none" xmlns="http://www.w3.org/2000/svg">
<g clip-path="url(#clip0_207_109)">
<path d="M7.44048 18.0259C7.71729 18.0259 7.94161 18.2439 7.94161 18.5129C7.94161 18.782 7.71729 19 7.44048 19H1.16611C0.84475 19 0.553622 18.8732 0.342036 18.6676C0.130451 18.4619 0 18.179 0 17.8666V1.13338C0 0.821045 0.130451 0.538086 0.342036 0.332438C0.553622 0.12679 0.84475 0 1.16611 0H15.4871C15.8084 0 16.0996 0.128337 16.3112 0.332438C16.5227 0.538086 16.6532 0.821045 16.6532 1.13338V8.88615C16.6532 9.15519 16.4289 9.37321 16.1521 9.37321C15.8753 9.37321 15.6509 9.15519 15.6509 8.88615V1.13338C15.6509 1.09009 15.6319 1.04989 15.6016 1.02205C15.5714 0.992676 15.53 0.974121 15.4871 0.974121H1.16611C1.12156 0.974121 1.0802 0.992676 1.04997 1.02051C1.02134 1.05143 1.00225 1.09009 1.00225 1.13338V17.8651C1.00225 17.9084 1.02134 17.9486 1.05156 17.9764C1.08179 18.0058 1.12315 18.0243 1.1677 18.0243H7.44048V18.0259ZM15.7019 11.4946C15.6207 11.4189 15.5269 11.3833 15.4187 11.3848C15.3105 11.3864 15.2182 11.4281 15.1419 11.5055L14.5198 12.1348L16.265 13.7722L16.8934 13.1367C16.9682 13.0625 17 12.9666 16.9984 12.8615C16.9968 12.7579 16.9586 12.6636 16.8823 12.5924L15.7019 11.4946ZM12.4422 17.6285C12.2115 17.6996 11.9824 17.7738 11.7533 17.8465C11.5226 17.9207 11.2936 17.9965 11.0645 18.0707C10.522 18.2439 10.2181 18.3398 10.1545 18.3568C10.0925 18.3753 10.129 18.1279 10.2659 17.613L10.697 15.9972L13.9662 12.6914L15.7098 14.3227L12.4422 17.6285ZM5.02396 6.35189C4.74715 6.35189 4.52283 6.13387 4.52283 5.86483C4.52283 5.59579 4.74715 5.37777 5.02396 5.37777H11.6324C11.9092 5.37777 12.1335 5.59579 12.1335 5.86483C12.1335 6.13387 11.9092 6.35189 11.6324 6.35189H5.02396ZM5.02396 13.262C4.74715 13.262 4.52124 13.0409 4.52124 12.7687C4.52124 12.4966 4.74555 12.2755 5.02396 12.2755H8.28046C8.55727 12.2755 8.78317 12.4966 8.78317 12.7687C8.78317 13.0409 8.55886 13.262 8.28046 13.262H5.02396ZM5.02396 9.80461C4.74715 9.80461 4.52283 9.58659 4.52283 9.31755C4.52283 9.0485 4.74715 8.83049 5.02396 8.83049H11.6324C11.9092 8.83049 12.1335 9.0485 12.1335 9.31755C12.1335 9.58659 11.9092 9.80461 11.6324 9.80461H5.02396Z" fill="#737373"/>
</g>
<defs>
<clipPath id="clip0_207_109">
<rect width="17" height="19" fill="white"/>
</clipPath>
</defs>
</svg>
