<svg width="27" height="27" viewBox="0 0 27 27" fill="none" xmlns="http://www.w3.org/2000/svg">
<g clip-path="url(#clip0_152_119)">
<path fill-rule="evenodd" clip-rule="evenodd" d="M15.6968 14.898L15.7008 14.877L19.1157 13.6052L15.9791 15.3052C16.4999 15.7789 17.1092 16.0285 17.7999 16.0713C19.2239 16.1598 20.5376 15.5612 21.4163 14.5202C21.5823 14.3235 21.7273 14.1033 21.8543 13.8735C22.0084 13.5952 22.5609 12.6562 22.4814 12.4327C22.3649 12.1055 20.7384 11.8795 20.3669 11.8314C18.6271 11.6065 16.5381 11.8297 15.7569 13.4441C15.6664 13.0218 15.7178 12.4097 15.8165 11.8223C17.1884 11.783 18.427 11.2414 19.3327 10.3857C20.2739 9.4968 20.8561 8.26853 20.8561 6.91236C20.8561 5.55602 20.2739 4.32788 19.3327 3.439C18.3917 2.54994 17.0916 2 15.6557 2C14.22 2 12.9198 2.54994 11.9787 3.43887C11.0376 4.32788 10.4555 5.55602 10.4555 6.91236C10.4555 8.2687 11.0376 9.49679 11.9787 10.3859C12.7794 11.1421 13.8398 11.6529 15.0225 11.7886C15.0695 12.2638 15.096 12.7488 15.086 13.107C14.5095 12.0273 13.0589 11.6194 11.7672 11.539C11.4524 11.5195 10.0732 11.4457 9.91886 11.6963C9.81318 11.8679 10.1005 12.7289 10.1773 12.9827C10.2406 13.192 10.3208 13.3965 10.4224 13.5851C10.9595 14.5823 11.9346 15.2854 13.1228 15.439C13.6985 15.5134 14.2449 15.4053 14.7587 15.0986L12.4802 13.1987L14.9403 14.714L14.9399 14.7304C15.0924 15.2326 15.1059 15.4304 15.0162 16.0075C14.4236 15.9477 13.6926 16.0499 13.6731 16.4219C12.7522 15.8349 11.9555 15.8791 11.6175 16.3727C10.8217 16.1644 10.0558 16.1668 8.79503 16.1708L8.39771 16.1709C8.3653 15.8804 8.10376 15.6526 7.78785 15.6526H4.61332C4.27568 15.6526 4 15.913 4 16.2319V22.072C4 22.3909 4.27568 22.6513 4.61332 22.6513H7.78785C8.0713 22.6513 8.31117 22.4677 8.38071 22.2201L10.5369 23.2699C12.2689 24.2267 14.0019 24.26 15.7359 23.2693C16.8744 22.7731 18.0032 22.2164 19.1207 21.5962C20.244 20.973 21.35 20.2892 22.4369 19.5417L22.4668 19.5178C22.838 19.1715 22.9999 18.7753 23 18.3994C23.0001 18.1325 22.9183 17.8773 22.7719 17.6586C22.6261 17.4405 22.4167 17.2579 22.1612 17.1349C21.7737 16.948 21.2796 16.8961 20.7425 17.0637L20.7086 17.0768L19.2538 17.7582C19.0945 16.5784 18.3303 16.4449 17.386 16.9203C17.7489 15.9703 16.288 16.095 15.7334 16.2369C15.5952 15.6795 15.5123 15.4285 15.6968 14.898ZM14.0936 6.51777L14.3585 5.95413H15.3576C15.345 5.9139 15.3232 5.87457 15.2916 5.83623C15.259 5.79691 15.2196 5.76311 15.175 5.73627C15.1269 5.7071 15.0749 5.68411 15.0204 5.66791C14.9634 5.65001 14.9029 5.64142 14.8394 5.64142H14.0936L14.3585 5.07778H17.2183L16.9533 5.64142H16.2627C16.2897 5.66108 16.315 5.6841 16.3386 5.71063C16.362 5.73627 16.3829 5.7628 16.4009 5.79179C16.4182 5.81991 16.4335 5.84816 16.4461 5.87633C16.4579 5.90458 16.466 5.93095 16.4697 5.95413H17.2183L16.9533 6.51777H16.4119C16.372 6.61335 16.3133 6.70386 16.2346 6.78926C16.156 6.87552 16.0646 6.95156 15.9606 7.01992C15.8557 7.08823 15.7427 7.14465 15.6207 7.19158C15.5012 7.23668 15.3764 7.26823 15.249 7.28557L16.7517 8.74681H15.5637L14.2238 7.35809V6.84053H14.8169C14.8742 6.84066 14.931 6.83171 14.9851 6.81403C15.0395 6.79689 15.0912 6.77276 15.1387 6.74233C15.1845 6.71397 15.2257 6.67945 15.2609 6.63988C15.2952 6.60055 15.3197 6.56045 15.334 6.51777H14.0936ZM15.6558 3.09219C17.8894 3.09219 19.7 4.80255 19.7 6.91236C19.7 9.02217 17.8894 10.7325 15.6558 10.7325C13.4223 10.7325 11.6117 9.02217 11.6117 6.91236C11.6117 4.80255 13.4223 3.09219 15.6558 3.09219ZM15.6557 2.57635C18.1907 2.57635 20.2459 4.51775 20.2459 6.91236C20.2459 9.30697 18.1907 11.2483 15.6557 11.2483C13.1207 11.2483 11.0656 9.30697 11.0656 6.91236C11.0656 4.51775 13.1207 2.57635 15.6557 2.57635ZM8.4768 16.6642V21.7124L10.7882 22.8387C12.3513 23.7063 13.9138 23.7379 15.4749 22.8425L15.5051 22.8271C16.6508 22.3281 17.7695 21.7756 18.8572 21.1718C19.9522 20.5642 21.0386 19.8922 22.1156 19.1527C22.3684 18.9108 22.479 18.6456 22.479 18.3994C22.479 18.2279 22.4259 18.063 22.3307 17.921C22.2353 17.7781 22.0957 17.6573 21.9243 17.5748C21.6559 17.4455 21.3074 17.4107 20.9195 17.528L18.0311 18.8807L17.7673 19.4625L17.7469 19.4982C17.4131 19.9925 16.9737 20.2994 16.4527 20.4825C15.9504 20.6593 15.3774 20.7171 14.7532 20.7177C14.6733 20.7177 14.5773 20.7268 14.4801 20.7357C14.3246 20.7499 14.1661 20.7646 14.0094 20.7531C13.657 20.746 13.4294 20.5781 13.3256 20.3659C13.2823 20.2768 13.2612 20.1796 13.2638 20.0817C13.2662 19.985 13.292 19.8882 13.3402 19.801C13.4554 19.5924 13.6926 19.4365 14.041 19.4527L14.0513 19.4537C14.514 19.4929 14.9704 19.5193 15.3915 19.4772C15.7887 19.4375 16.1555 19.3352 16.4668 19.1197L16.474 19.1149C16.6501 19.0009 16.7551 18.8778 16.8016 18.7584C16.8378 18.6653 16.8384 18.5727 16.8101 18.4888C16.7799 18.3995 16.7164 18.3157 16.6275 18.2468C16.5019 18.1492 16.3262 18.0822 16.1183 18.0677H14.1043C14.0551 18.0671 14.0071 18.0537 13.9654 18.029C11.6527 16.6537 11.0777 16.6556 8.79503 16.663L8.4768 16.6642Z" fill="#737373"/>
</g>
<defs>
<clipPath id="clip0_152_119">
<rect width="19" height="22" fill="white" transform="translate(4 2)"/>
</clipPath>
</defs>
</svg>
