<svg width="23" height="31" viewBox="0 0 23 31" fill="none" xmlns="http://www.w3.org/2000/svg">
<g clip-path="url(#clip0_166_42)">
<path fill-rule="evenodd" clip-rule="evenodd" d="M9.2766 5.3353C8.81525 3.92366 8.39979 2.49603 8.04919 1.04612C9.35669 -0.44236 14.41 -0.244546 15.8634 1.02287L14.5178 4.34114C15.2414 3.3551 15.4847 2.95033 15.9164 2.40097C16.0974 2.52446 16.2689 2.66241 16.4293 2.81355C16.8121 3.17297 17.1539 3.57011 17.223 4.12371C17.2679 4.48271 17.1689 4.84745 16.8609 5.22032L13.7738 8.94984C13.3764 8.88227 12.9881 8.78339 12.6113 8.64443C12.7864 8.21707 12.9975 7.74691 13.1726 7.31949L12.0487 8.57861C10.8778 8.32237 9.93618 8.47526 9.05874 8.95662L5.92794 5.05926C5.74195 4.82681 5.65731 4.59436 5.65801 4.36191C5.66098 3.41983 7.01337 2.60677 7.72427 2.299L9.2766 5.3353ZM9.01309 19.9251L9.40852 19.0012H10.9C10.8058 18.6733 10.4362 18.4888 10.1266 18.4888H9.01309L9.40852 17.5648H13.6776L13.2822 18.4888H12.251C12.3878 18.5977 12.5344 18.822 12.5601 19.0012H13.6776L13.2822 19.9251H12.4737C12.2127 20.6142 11.4168 21.0824 10.738 21.1837L12.9812 23.5789H11.2077L9.20742 21.3026V20.4543H10.0929C10.3941 20.4543 10.7693 20.2347 10.8649 19.9251H9.01309ZM13.2886 12.3768L12.6776 9.47825C15.2947 9.98311 19.4895 15.505 20.845 18.0156C21.5368 19.297 22.1428 20.7088 22.6389 22.287C23.6273 26.1065 22.6752 29.6796 18.6806 30.5119C16.1776 31.0334 11.5099 31.0704 8.8776 30.9291C6.04778 30.7772 1.66856 30.7819 0.524628 27.7682C-1.32168 22.9038 2.06102 17.1088 5.14535 13.562C5.55118 13.0953 5.97084 12.6603 6.40504 12.2588C7.52696 11.235 8.73674 10.02 10.1809 9.51488L8.78601 12.209L10.8119 9.42309H11.8795L13.2886 12.3768ZM6.28601 17.7189C7.77342 14.8206 11.244 13.7218 14.0382 15.2646C16.8325 16.8074 17.8918 20.4071 16.4045 23.3055C14.9171 26.2038 11.4465 27.3026 8.65227 25.7599C5.85794 24.2171 4.79866 20.6173 6.28601 17.7189Z" fill="#737373"/>
</g>
<defs>
<clipPath id="clip0_166_42">
<rect width="23" height="31" fill="white"/>
</clipPath>
</defs>
</svg>
