<svg width="32" height="26" viewBox="0 0 32 26" fill="none" xmlns="http://www.w3.org/2000/svg">
<g clip-path="url(#clip0_171_115)">
<path fill-rule="evenodd" clip-rule="evenodd" d="M7.76823 22.6886V13.1448H12.0937C13.9271 13.4705 15.7604 14.4579 17.5937 15.6031H20.9531C22.474 15.6936 23.2708 17.2239 21.7917 18.2295C20.6146 19.0877 19.0599 19.0386 17.4661 18.8964C16.3672 18.8421 16.3203 20.3078 17.4661 20.313C17.8646 20.344 18.2969 20.2509 18.6745 20.2509C20.6615 20.2484 22.2995 19.8709 23.3021 18.3122L23.8047 17.1464L28.8021 14.688C31.3021 13.8711 33.0807 16.4665 31.237 18.2734C27.6172 20.8869 23.9062 23.0376 20.1094 24.7747C17.3516 26.4394 14.5937 26.3826 11.8385 24.7747L7.76823 22.6886ZM11.0443 0L29.6406 4.94512L27.0495 14.5432L8.45312 9.59813L11.0443 0ZM19.8125 4.45138C21.3854 4.87015 22.3177 6.47027 21.8958 8.03162C21.474 9.59296 19.862 10.5184 18.2891 10.0996C16.7161 9.68085 15.7839 8.08073 16.2057 6.51939C16.625 4.95804 18.237 4.03261 19.8125 4.45138ZM13.7578 2.28773L26.1224 5.57586C25.9115 6.35653 26.3802 7.16564 27.1693 7.37244L26.1458 11.1672C25.3594 10.9578 24.5443 11.4231 24.3359 12.2064L11.9687 8.91827C12.1797 8.1376 11.7109 7.33108 10.9219 7.12169L11.9453 3.3269C12.7318 3.53629 13.5469 3.07099 13.7578 2.28773ZM0 12.2271H6.46615V23.6476H0V12.2271Z" fill="#737373"/>
</g>
<defs>
<clipPath id="clip0_171_115">
<rect width="32" height="26" fill="white"/>
</clipPath>
</defs>
</svg>
