<svg width="22" height="22" viewBox="0 0 22 22" fill="none" xmlns="http://www.w3.org/2000/svg">
<g clip-path="url(#clip0_140_74)">
<path d="M13 9.38332V9.89456H6.58778C6.3788 9.8945 6.17441 9.93116 6 10C6.06531 9.87556 6.18747 9.76452 6.35269 9.67938C6.51792 9.59424 6.71964 9.53841 6.9351 9.51817L12.2562 9.00501C12.3479 8.99606 12.4417 8.99913 12.5312 9.01402C12.6207 9.02891 12.7037 9.05527 12.7745 9.09126C12.8452 9.12725 12.9021 9.17201 12.941 9.22245C12.9799 9.27288 13.0001 9.32777 13 9.38332Z" fill="#737373"/>
<path d="M10.2 13C10.2004 13.384 10.348 13.7521 10.6105 14.0236C10.873 14.2951 11.2288 14.4479 11.6 14.4483H14V14.9655C13.9996 15.2397 13.8941 15.5026 13.7066 15.6965C13.5192 15.8904 13.2651 15.9995 13 16H7.00001C6.73492 15.9996 6.48082 15.8904 6.29337 15.6965C6.10593 15.5026 6.00043 15.2397 6 14.9655V10.6207C6.00012 10.4561 6.06338 10.2983 6.17587 10.1819C6.28837 10.0656 6.44091 10.0001 6.6 10H13C13.2651 10.0005 13.5192 10.1096 13.7066 10.3035C13.894 10.4974 13.9995 10.7603 14 11.0345V11.5517H11.6C11.2288 11.5521 10.873 11.7049 10.6105 11.9764C10.348 12.2479 10.2004 12.616 10.2 13Z" fill="#737373"/>
<path d="M14.579 12H12.0526C11.7735 12 11.5057 12.1054 11.3083 12.2929C11.1109 12.4804 11 12.7348 11 13C11 13.2652 11.1109 13.5196 11.3083 13.7071C11.5057 13.8946 11.7735 14 12.0526 14H14.579C14.6343 14 14.689 13.9897 14.7401 13.9696C14.7912 13.9495 14.8376 13.92 14.8767 13.8829C14.9158 13.8457 14.9468 13.8016 14.968 13.7531C14.9891 13.7045 15 13.6525 15 13.6V12.4C15 12.3475 14.9891 12.2954 14.968 12.2469C14.9468 12.1984 14.9158 12.1543 14.8767 12.1171C14.8376 12.08 14.7912 12.0505 14.7401 12.0304C14.689 12.0103 14.6342 12 14.579 12ZM12.0526 13.4C11.9694 13.4 11.888 13.3765 11.8187 13.3326C11.7495 13.2886 11.6955 13.2262 11.6636 13.1531C11.6318 13.08 11.6234 12.9996 11.6397 12.922C11.6559 12.8444 11.696 12.7731 11.7549 12.7172C11.8138 12.6612 11.8888 12.6231 11.9705 12.6077C12.0522 12.5923 12.1368 12.6002 12.2137 12.6305C12.2907 12.6607 12.3564 12.712 12.4027 12.7778C12.449 12.8435 12.4737 12.9209 12.4737 13C12.4737 13.0525 12.4628 13.1045 12.4417 13.1531C12.4205 13.2016 12.3895 13.2457 12.3504 13.2829C12.3113 13.32 12.2649 13.3495 12.2138 13.3696C12.1627 13.3897 12.1079 13.4 12.0526 13.4V13.4Z" fill="#737373"/>
<path d="M9.03515 0.833704C8.90166 0.957451 8.8227 1.12908 8.81557 1.31097C8.80844 1.49285 8.87373 1.67013 8.99713 1.80395L10.6374 3.55605C8.66496 3.37279 6.68581 3.82803 4.99167 4.85468C3.29754 5.88134 1.97803 7.42509 1.22764 9.2584C0.477257 11.0917 0.335687 13.1176 0.823798 15.0375C1.31191 16.9573 2.40388 18.6696 3.93876 19.9219C5.47365 21.1742 7.37024 21.9003 9.349 21.9931C11.3278 22.086 13.284 21.5407 14.9294 20.4376C16.5748 19.3345 17.8223 17.732 18.488 15.8663C19.1538 14.0006 19.2025 11.9703 18.6271 10.0748C18.6028 9.98601 18.561 9.90301 18.5041 9.8307C18.4471 9.75839 18.3762 9.69825 18.2956 9.65384C18.215 9.60944 18.1263 9.58167 18.0347 9.57219C17.9432 9.56271 17.8507 9.57171 17.7627 9.59865C17.6747 9.62559 17.593 9.66993 17.5224 9.72904C17.4519 9.78815 17.3939 9.86082 17.352 9.94274C17.31 10.0247 17.2849 10.1142 17.2782 10.206C17.2715 10.2978 17.2833 10.39 17.3129 10.4771C17.6462 11.5695 17.7376 12.7213 17.581 13.8526C17.4243 14.9838 17.0232 16.0674 16.4056 17.0281C15.788 17.9888 14.9687 18.8035 14.0045 19.4157C13.0404 20.0278 11.9545 20.4228 10.8224 20.5731C9.69026 20.7234 8.53898 20.6254 7.44851 20.286C6.35804 19.9466 5.35453 19.3739 4.50767 18.6076C3.66081 17.8413 2.99091 16.8999 2.5445 15.8487C2.09808 14.7975 1.88585 13.6617 1.92255 12.5202C1.95958 11.3855 2.24155 10.2721 2.74913 9.2565C3.2567 8.24089 3.97788 7.34703 4.86322 6.63621C5.74856 5.92538 6.77713 5.4144 7.87843 5.13828C8.97973 4.86216 10.1277 4.82743 11.2437 5.03649L8.78917 7.30828C8.65531 7.43233 8.57622 7.60447 8.56929 7.78684C8.56235 7.9692 8.62815 8.14685 8.7522 8.28071C8.87625 8.41457 9.04839 8.49366 9.23076 8.50059C9.41312 8.50753 9.59078 8.44173 9.72463 8.31768L13.0839 5.2012L13.0907 5.18173C13.1178 5.15488 13.1426 5.12581 13.1649 5.09484L13.1785 5.05591C13.205 5.0138 13.2269 4.96895 13.2437 4.92212C13.2619 4.86957 13.2738 4.815 13.2789 4.7596L13.2925 4.72068C13.2937 4.67696 13.2908 4.63323 13.2837 4.59008L13.2767 4.54757C13.2645 4.49417 13.246 4.44242 13.2215 4.39342L13.2021 4.38659C13.1781 4.34334 13.1496 4.3028 13.117 4.26567L13.0975 4.25884L9.98104 0.899615C9.86198 0.769302 9.69736 0.689777 9.52128 0.677507C9.34519 0.665238 9.17113 0.721164 9.03515 0.833704Z" fill="#737373"/>
</g>
<defs>
<clipPath id="clip0_140_74">
<rect width="22" height="22" fill="white"/>
</clipPath>
</defs>
</svg>
