<svg width="31" height="31" viewBox="0 0 31 31" fill="none" xmlns="http://www.w3.org/2000/svg">
<path d="M14.6624 15.9131V15.851V11.6301C14.6624 11.1417 15.0584 10.7458 15.5468 10.7458C16.0352 10.7458 16.4311 11.1417 16.4311 11.6301V15.1805L18.62 17.3694C18.9654 17.7147 18.9654 18.2747 18.62 18.62L14.6624 15.9131ZM14.6624 15.9131L14.7063 15.9571L17.3694 18.62C17.3694 18.62 17.3694 18.62 17.3694 18.62C17.7147 18.9654 18.2746 18.9654 18.62 18.62L14.6624 15.9131ZM10.1811 9.65062C13.2714 6.84025 18.0924 6.94321 21.1214 9.97225C24.2407 13.0915 24.257 18.1112 21.1841 21.1841C18.1112 24.257 13.0915 24.2408 9.97221 21.1215C8.12596 19.2753 7.36559 16.7612 7.69234 14.3775L7.54373 14.3571L7.69234 14.3775C7.75866 13.8935 7.42015 13.4475 6.93625 13.3812C6.45237 13.3149 6.0063 13.6533 5.93997 14.1373C5.54076 17.0498 6.47049 20.1212 8.72151 22.3722C12.5197 26.1703 18.6593 26.2103 22.4348 22.4348C26.2103 18.6594 26.1703 12.5197 22.3722 8.72155C18.6598 5.00909 12.7102 4.88717 8.91799 8.40919L8.91607 8.02731C8.91362 7.53888 8.51569 7.14493 8.02727 7.14738C7.53885 7.14984 7.14488 7.54777 7.14735 8.03619L7.15987 10.5287C7.16231 11.0137 7.55483 11.4062 8.03979 11.4086L10.5323 11.4212C11.0207 11.4236 11.4187 11.0297 11.4211 10.5412C11.4236 10.0528 11.0296 9.65488 10.5412 9.65243L10.1811 9.65062Z" fill="#737373" stroke="#737373" stroke-width="0.3"/>
</svg>
