<svg width="29" height="27" viewBox="0 0 29 27" fill="none" xmlns="http://www.w3.org/2000/svg">
<path d="M13.9026 11.7546C17.1058 11.7546 19.7117 9.11803 19.7117 5.87745C19.7117 2.63655 17.1055 0 13.9026 0C10.6993 0 8.09314 2.63655 8.09314 5.87745C8.09314 9.11803 10.6993 11.7546 13.9026 11.7546Z" fill="#737373"/>
<path d="M4.00036 16.4349C3.98567 15.9191 3.52483 15.5049 2.95537 15.5049C2.37703 15.5049 1.90793 15.9324 1.90793 16.46V18.5176H2.55726C2.96883 17.7835 3.45109 17.0863 4.00036 16.4349Z" fill="#737373"/>
<path d="M26.0758 18.8282V16.7706C26.0758 16.2431 25.6067 15.8152 25.0281 15.8152C24.5541 15.8152 24.1584 16.1044 24.029 16.4979C24.6318 17.2214 25.148 18.0041 25.5816 18.8282H26.0758Z" fill="#737373"/>
<path d="M20.9736 24.4832C20.9736 24.2179 21.0382 23.968 21.1477 23.7451H18.3744C18.2854 23.4863 18.1783 23.2361 18.0489 22.9999L20.9868 20.3621C21.0538 19.5058 21.7554 18.8281 22.618 18.8281H23.981H24.5376C24.3638 18.528 24.178 18.2355 23.981 17.9522C23.7068 17.5584 23.4127 17.1797 23.096 16.8215C23.0813 16.8026 23.0706 16.7819 23.0544 16.7636C23.0403 16.7472 23.0232 16.7358 23.0088 16.7206C20.7732 14.2438 17.5574 12.6871 13.9885 12.6871C10.4212 12.6871 7.20666 14.2426 4.97133 16.7181C4.95572 16.7345 4.93767 16.7466 4.92268 16.7636C4.90768 16.7807 4.89758 16.8005 4.88351 16.8187C4.56863 17.1748 4.2761 17.5516 4.00315 17.9429C3.87248 18.1302 3.74855 18.3231 3.62799 18.5175H4.00315H5.36607C6.27275 18.5175 7.01051 19.264 7.01051 20.1816C7.01051 20.2445 7.00225 20.3052 6.99552 20.3661L9.81653 22.8996C9.662 23.1662 9.53257 23.4488 9.43067 23.7451H6.94993C6.98634 23.8823 7.01051 24.0244 7.01051 24.173C7.01051 25.0903 6.27275 25.8368 5.36607 25.8368H2.04199C2.27731 26.147 2.64359 26.3501 3.05975 26.3501H24.9179C24.9195 26.3504 24.9204 26.3504 24.9216 26.3504C24.9228 26.3504 24.9238 26.3504 24.9244 26.3501C25.1765 26.3501 25.41 26.2739 25.6086 26.1473H22.618C21.7114 26.1473 20.9736 25.4009 20.9736 24.4832ZM13.9026 20.5243C13.0978 20.5243 12.3404 20.7287 11.6767 21.0869L7.78255 17.5903C9.46096 16.1581 11.6262 15.2921 13.9885 15.2921C16.3509 15.2921 18.5161 16.1581 20.1945 17.5903L16.2334 21.1476C15.5449 20.7525 14.7505 20.5243 13.9026 20.5243Z" fill="#737373"/>
<path d="M6.2455 24.173C6.2455 24.0169 6.20235 23.8727 6.13258 23.7451C5.98264 23.4708 5.69776 23.2832 5.36605 23.2832H4.50803H2.72925V23.0535H4.5524H5.36575C5.59555 23.0535 5.80302 22.9624 5.95939 22.8163C6.13381 22.6538 6.24519 22.4228 6.24519 22.1637C6.24519 21.9197 6.14788 21.699 5.9906 21.538C5.83117 21.3751 5.61024 21.2736 5.36575 21.2736H5.10351H3.69713H2.72925V21.0714H3.86084H5.18827H5.36575C5.85167 21.0714 6.24519 20.6729 6.24519 20.1816C6.24519 19.9494 6.15523 19.7398 6.0111 19.5813C5.85045 19.4045 5.62187 19.2915 5.36575 19.2915H4.00282H3.18672H2.15703H1.90795H1.55513C1.52453 19.2915 1.49638 19.2977 1.46669 19.3008C1.41988 19.2952 1.37367 19.2915 1.32899 19.2915C-0.0574911 19.2915 0.000342911 22.1634 0.000342911 22.1634C0.000342911 22.1634 -0.00271718 25.0624 1.32899 25.0624C1.37367 25.0624 1.41988 25.0587 1.46669 25.0535C1.49638 25.0572 1.52453 25.0624 1.55513 25.0624H1.77361H5.36575C5.85167 25.0628 6.2455 24.6646 6.2455 24.173Z" fill="#737373"/>
<path d="M26.6548 19.6021C26.6101 19.6021 26.5636 19.6058 26.5174 19.611C26.4877 19.6079 26.4592 19.6021 26.4286 19.6021H26.0761H25.955H24.9488H23.981H22.618C22.421 19.6021 22.241 19.6702 22.0945 19.7807C21.8797 19.9429 21.7389 20.1999 21.7389 20.4922C21.7389 20.9832 22.1321 21.3816 22.618 21.3816H22.9197H24.1229H25.2545V21.5838H24.2866H22.9999H22.618C22.4164 21.5838 22.2325 21.655 22.0844 21.7708C21.8754 21.9333 21.7389 22.1863 21.7389 22.4736C21.7389 22.5953 21.7634 22.7107 21.8068 22.816C21.9393 23.1374 22.2524 23.3637 22.618 23.3637H23.4831H25.2545V23.5931H23.5204H22.618C22.436 23.5931 22.267 23.6491 22.1269 23.7448C21.8928 23.9049 21.7389 24.1758 21.7389 24.4829C21.7389 24.9745 22.1321 25.373 22.618 25.373H26.1664H26.4286C26.4592 25.373 26.4877 25.3671 26.5174 25.3637C26.5636 25.3693 26.6104 25.373 26.6548 25.373C27.9862 25.373 27.9831 22.4736 27.9831 22.4736C27.9831 22.4736 28.0413 19.6021 26.6548 19.6021Z" fill="#737373"/>
</svg>
