<svg width="20" height="20" viewBox="0 0 20 20" fill="none" xmlns="http://www.w3.org/2000/svg">
<path d="M8.08402 5.07031C8.28279 4.32848 7.84254 3.56597 7.10071 3.36721C6.35888 3.16845 5.59638 3.60869 5.39761 4.35052C5.19885 5.09235 5.63909 5.85486 6.38092 6.05362C7.12276 6.25238 7.88526 5.81214 8.08402 5.07031Z" fill="#737373"/>
<path d="M9.93298 7.60956C9.69861 7.54706 9.46423 7.67206 9.38611 7.92206L8.21423 12.2502C8.02673 13.0158 7.35486 13.5783 6.58923 13.6408C6.52673 13.6408 6.43298 13.6408 6.43298 13.6408H4.74548C4.49548 13.6408 4.30798 13.8283 4.30798 14.0783C4.32361 14.3439 4.51111 14.5314 4.76111 14.5314H6.44861C6.44861 14.5314 6.57361 14.5314 6.68298 14.5158C7.83923 14.4221 8.79236 13.6096 9.08923 12.4689L10.2455 8.14081C10.308 7.92206 10.1674 7.68768 9.93298 7.60956Z" fill="#737373"/>
<path d="M6.49546 12.9377C7.02671 12.9064 7.44858 12.5314 7.57358 12.0314L8.77671 7.5783C8.88608 7.15642 8.63608 6.71892 8.21421 6.62517C8.18296 6.62517 8.04233 6.60955 8.04233 6.60955C6.91733 6.50017 5.83921 7.2033 5.54233 8.34392C5.54233 8.35955 5.49546 8.53142 5.47983 8.60955C5.24546 9.50017 5.12046 10.3752 5.05796 11.2502H2.72983C2.52671 11.2502 2.29233 11.3439 2.12046 11.5158C1.94858 11.672 2.01108 12.2189 2.01108 12.4377V16.4533C2.01108 16.9377 2.24546 17.0158 2.72983 17.0158C3.21421 17.0158 3.60483 16.6252 3.60483 16.1408V12.9377H6.38608H6.49546Z" fill="#737373"/>
<path d="M16.4844 5.06298C16.6832 4.32115 16.2429 3.55865 15.5011 3.35989C14.7593 3.16112 13.9968 3.60137 13.798 4.3432C13.5992 5.08503 14.0395 5.84753 14.7813 6.0463C15.5231 6.24506 16.2856 5.80482 16.4844 5.06298Z" fill="#737373"/>
<path d="M18.3236 7.60956C18.0892 7.54706 17.8549 7.67206 17.7767 7.92206L16.6049 12.2502C16.4174 13.0158 15.7455 13.5783 14.9799 13.6408C14.9174 13.6408 14.8236 13.6408 14.8236 13.6408H13.1361C12.8861 13.6408 12.6986 13.8283 12.6986 14.0783C12.7142 14.3439 12.9017 14.5314 13.1517 14.5314H14.8392C14.8392 14.5314 14.9642 14.5314 15.0736 14.5158C16.2299 14.4221 17.183 13.6096 17.4799 12.4689L18.6361 8.14081C18.7142 7.92206 18.5736 7.68768 18.3236 7.60956Z" fill="#737373"/>
<path d="M14.8861 12.9377C15.4174 12.9064 15.8392 12.5314 15.9642 12.0314L17.1674 7.5783C17.2767 7.15642 17.0267 6.71892 16.6049 6.62517C16.5736 6.62517 16.433 6.60955 16.433 6.60955C15.308 6.50017 14.2299 7.2033 13.933 8.34392C13.933 8.35955 13.8861 8.53142 13.8705 8.60955C13.6361 9.50017 13.5111 10.3752 13.4486 11.2502H11.1361C10.933 11.2502 10.6986 11.3439 10.5267 11.5158C10.3549 11.672 10.2611 11.9064 10.2611 12.1252V16.1408C10.2611 16.6252 10.6517 17.0158 11.1361 17.0158C11.6205 17.0158 12.0111 16.6252 12.0111 16.1408V12.9377H14.7924H14.8861Z" fill="#737373"/>
</svg>
