<svg width="20" height="20" viewBox="0 0 20 20" fill="none" xmlns="http://www.w3.org/2000/svg">
<path d="M17.7642 8.56834L18.3734 8.51925C18.4599 8.51218 18.54 8.47115 18.5963 8.40513C18.6526 8.33911 18.6804 8.25349 18.6737 8.16699L18.5992 7.25458C18.5959 7.21179 18.5841 7.17008 18.5646 7.13184C18.5451 7.09361 18.5182 7.05959 18.4856 7.03174C18.4529 7.0039 18.4151 6.98279 18.3742 6.9696C18.3334 6.9564 18.2903 6.9514 18.2475 6.95487H16.8881L15.4162 3.6494C15.307 3.43735 15.137 3.26272 14.9279 3.1479C14.7188 3.03309 14.4803 2.98331 14.2427 3.00494H5.58059C5.34279 2.98361 5.10402 3.03351 4.89466 3.14827C4.68529 3.26303 4.51479 3.43747 4.40485 3.6494L2.93459 6.95487H1.57521C1.48881 6.94816 1.40327 6.97592 1.33727 7.03208C1.27127 7.08823 1.23017 7.16822 1.22295 7.25458L1.14961 8.16699C1.14275 8.25343 1.17045 8.33905 1.22664 8.40509C1.28282 8.47113 1.3629 8.51219 1.44932 8.51925L2.05856 8.56834C1.36508 9.55841 0.995296 10.739 1.00005 11.9477L1.13749 13.6946C1.14909 13.8588 1.20306 14.0172 1.29415 14.1544C1.38524 14.2915 1.51033 14.4027 1.65721 14.4771V15.401C1.71496 16.6628 2.11226 16.6628 2.99638 16.6628C3.8805 16.6628 4.33613 16.6628 4.39561 15.401V14.5828H9.91108H15.3786V15.3999C15.4364 16.6617 15.8331 16.6617 16.7178 16.6617C17.6025 16.6617 18.0575 16.6617 18.1164 15.3999V14.4759C18.2689 14.4036 18.4006 14.294 18.4993 14.1572C18.598 14.0204 18.6606 13.8609 18.6812 13.6934L18.821 11.9466C18.826 10.7384 18.4568 9.55829 17.7642 8.56834ZM6.75922 12.5356C6.75907 12.6223 6.7246 12.7054 6.66335 12.7668C6.6021 12.8281 6.51906 12.8627 6.43237 12.863H3.21178C3.16873 12.8631 3.1261 12.8547 3.0863 12.8383C3.04651 12.8219 3.01035 12.7978 2.97988 12.7673C2.94942 12.7369 2.92525 12.7008 2.90875 12.661C2.89226 12.6213 2.88377 12.5787 2.88377 12.5356V11.3576C2.88362 11.3145 2.892 11.2718 2.90844 11.2319C2.92488 11.1921 2.94904 11.1559 2.97954 11.1255C3.01003 11.095 3.04626 11.0709 3.08612 11.0546C3.12598 11.0382 3.16869 11.0299 3.21178 11.0301L6.43237 11.2917C6.51896 11.292 6.60192 11.3266 6.66315 11.3878C6.72438 11.449 6.75892 11.532 6.75922 11.6186V12.5356ZM3.92959 7.92735L5.51302 4.2852H14.3091L15.892 7.92735H3.93074H3.92959ZM16.9401 12.5356C16.9401 12.6224 16.9056 12.7057 16.8442 12.7671C16.7828 12.8285 16.6995 12.863 16.6127 12.863H13.3921C13.3053 12.8629 13.2221 12.8283 13.1608 12.767C13.0994 12.7056 13.0648 12.6224 13.0647 12.5356V11.6186C13.0651 11.5319 13.0998 11.449 13.1611 11.3878C13.2224 11.3265 13.3055 11.292 13.3921 11.2917L16.6127 11.0301C16.6557 11.03 16.6984 11.0383 16.7382 11.0547C16.778 11.0711 16.8141 11.0953 16.8446 11.1257C16.875 11.1561 16.8991 11.1923 16.9155 11.2321C16.9319 11.2719 16.9403 11.3145 16.9401 11.3576V12.5356Z" fill="#737373"/>
</svg>
