<svg width="36" height="36" viewBox="0 0 36 36" fill="none" xmlns="http://www.w3.org/2000/svg">
<circle cx="18" cy="18" r="18" fill="#121212" fill-opacity="0.1"/>
<path d="M18 12C19.11 12 20 11.1 20 10C20 9.62 19.9 9.27 19.71 8.97L18 6L16.29 8.97C16.1 9.27 16 9.62 16 10C16 11.1 16.9 12 18 12ZM22.6 21.99L21.53 20.92L20.45 21.99C19.15 23.29 16.87 23.3 15.56 21.99L14.49 20.92L13.4 21.99C12.75 22.64 11.88 23 10.96 23C10.23 23 9.56 22.77 9 22.39V27C9 27.55 9.45 28 10 28H26C26.55 28 27 27.55 27 27V22.39C26.44 22.77 25.77 23 25.04 23C24.12 23 23.25 22.64 22.6 21.99ZM24 15H19V13H17V15H12C10.34 15 9 16.34 9 18V19.54C9 20.62 9.88 21.5 10.96 21.5C11.48 21.5 11.98 21.3 12.34 20.93L14.48 18.8L16.61 20.93C17.35 21.67 18.64 21.67 19.38 20.93L21.52 18.8L23.65 20.93C24.02 21.3 24.51 21.5 25.03 21.5C26.11 21.5 26.99 20.62 26.99 19.54V18C27 16.34 25.66 15 24 15Z" fill="#808080"/>
</svg>
