<svg width="36" height="36" viewBox="0 0 36 36" fill="none" xmlns="http://www.w3.org/2000/svg">
<circle cx="18" cy="18" r="18" fill="#121212" fill-opacity="0.1"/>
<path d="M20.2698 12C19.7198 12.95 20.0498 14.18 20.9998 14.73C21.9498 15.28 23.1798 14.95 23.7298 14C24.2798 13.05 23.9498 11.82 22.9998 11.27C22.0498 10.72 20.8198 11.05 20.2698 12Z" fill="#808080"/>
<path d="M21.8398 16.4098C21.8398 16.4098 20.2098 15.4698 19.2398 14.9098C16.8598 13.5298 16.0398 10.4698 17.4198 8.08984L15.6898 7.08984C14.0998 9.82984 14.5998 13.2098 16.6598 15.3998L11.5098 24.3198L13.2398 25.3198L14.7398 22.7198L16.4698 23.7198L13.4698 28.9198L15.1998 29.9198L21.4898 19.0298C22.6298 20.5798 22.8198 22.7198 21.7998 24.4898L23.5298 25.4898C25.1298 22.7398 24.8098 18.9098 21.8398 16.4098Z" fill="#808080"/>
<path d="M18.7497 9.7999C19.4697 10.2099 20.3797 9.9699 20.7997 9.2499C21.2097 8.5299 20.9697 7.6199 20.2497 7.1999C19.5297 6.7899 18.6197 7.0299 18.1997 7.7499C17.7897 8.4699 18.0297 9.3899 18.7497 9.7999Z" fill="#808080"/>
</svg>
