<svg width="48" height="48" viewBox="0 0 48 48" fill="none" xmlns="http://www.w3.org/2000/svg">
<rect width="48" height="48" rx="6" fill="#001A72" fill-opacity="0.1"/>
<path d="M26.2464 23.5345C26.7673 22.8934 27.1531 22.2321 27.4035 21.5509C27.654 20.8696 27.7792 20.0781 27.7792 19.1765C27.7792 18.2748 27.654 17.4833 27.4035 16.8021C27.1531 16.1208 26.7673 15.4596 26.2464 14.8184C27.7692 14.4778 29.1067 14.7082 30.2588 15.5097C31.4109 16.3112 31.987 17.5334 31.987 19.1765C31.987 20.8195 31.4109 22.0418 30.2588 22.8433C29.1067 23.6447 27.7692 23.8752 26.2464 23.5345ZM32.7384 33.3327V30.5075C32.7384 29.4856 32.4779 28.5338 31.957 27.6522C31.436 26.7705 30.5343 26.0292 29.2519 25.428C32.7184 25.8689 35.0877 26.51 36.3601 27.3516C37.6325 28.1932 38.2686 29.2451 38.2686 30.5075V33.3327H32.7384ZM36.0445 24.6466V21.641H33.039V19.8377H36.0445V16.8321H37.8479V19.8377H40.8534V21.641H37.8479V24.6466H36.0445ZM21.4675 23.6848C20.1451 23.6848 19.0631 23.264 18.2215 22.4225C17.38 21.5809 16.9592 20.4989 16.9592 19.1765C16.9592 17.854 17.38 16.772 18.2215 15.9305C19.0631 15.0889 20.1451 14.6681 21.4675 14.6681C22.79 14.6681 23.872 15.0889 24.7135 15.9305C25.5551 16.772 25.9759 17.854 25.9759 19.1765C25.9759 20.4989 25.5551 21.5809 24.7135 22.4225C23.872 23.264 22.79 23.6848 21.4675 23.6848ZM12 33.3327V30.5075C12 29.8062 12.1853 29.17 12.556 28.5989C12.9267 28.0279 13.4226 27.6021 14.0438 27.3216C15.4865 26.6804 16.7738 26.2195 17.9059 25.939C19.038 25.6585 20.2252 25.5182 21.4675 25.5182C22.7098 25.5182 23.892 25.6585 25.0141 25.939C26.1362 26.2195 27.4185 26.6804 28.8612 27.3216C29.4824 27.6021 29.9833 28.0279 30.364 28.5989C30.7447 29.17 30.9351 29.8062 30.9351 30.5075V33.3327H12Z" fill="#1C023B"/>
</svg>
