<svg width="28" height="28" viewBox="0 0 28 28" fill="none" xmlns="http://www.w3.org/2000/svg">
<path d="M13.055 21H15.155V15.19H21V13.09H15.155V7H13.055V13.09H7V15.19H13.055V21ZM14 28C12.0867 28 10.2783 27.6325 8.575 26.8975C6.87167 26.1625 5.38417 25.1592 4.1125 23.8875C2.84083 22.6158 1.8375 21.1283 1.1025 19.425C0.3675 17.7217 0 15.9017 0 13.965C0 12.0517 0.3675 10.2433 1.1025 8.54C1.8375 6.83667 2.84083 5.355 4.1125 4.095C5.38417 2.835 6.87167 1.8375 8.575 1.1025C10.2783 0.3675 12.0983 0 14.035 0C15.9483 0 17.7567 0.3675 19.46 1.1025C21.1633 1.8375 22.645 2.835 23.905 4.095C25.165 5.355 26.1625 6.83667 26.8975 8.54C27.6325 10.2433 28 12.0633 28 14C28 15.9133 27.6325 17.7217 26.8975 19.425C26.1625 21.1283 25.165 22.6158 23.905 23.8875C22.645 25.1592 21.1633 26.1625 19.46 26.8975C17.7567 27.6325 15.9367 28 14 28Z" fill="#1C023B"/>
</svg>
