<svg width="48" height="48" viewBox="0 0 48 48" fill="none" xmlns="http://www.w3.org/2000/svg">
<rect width="48" height="48" rx="6" fill="#001A72" fill-opacity="0.1"/>
<path d="M20.4933 38.3991C18.8933 38.3991 17.5395 37.8391 16.4318 36.7191C15.3241 35.5991 14.7703 34.2514 14.7703 32.676V19.7898C13.9087 19.4698 13.201 18.9591 12.6472 18.2575C12.0933 17.556 11.8164 16.7621 11.8164 15.876C11.8164 14.7437 12.2164 13.7837 13.0164 12.996C13.8164 12.2083 14.7826 11.8145 15.9149 11.8145C17.0226 11.8145 17.9703 12.2083 18.7579 12.996C19.5456 13.7837 19.9395 14.7437 19.9395 15.876C19.9395 16.7621 19.6626 17.556 19.1087 18.2575C18.5549 18.9591 17.8472 19.4698 16.9856 19.7898V32.676C16.9856 33.636 17.3241 34.4606 18.001 35.1498C18.6779 35.8391 19.521 36.1837 20.5303 36.1837C21.5149 36.1837 22.3395 35.8391 23.0041 35.1498C23.6687 34.4606 24.001 33.636 24.001 32.676V17.5375C24.001 15.9375 24.5549 14.5837 25.6626 13.476C26.7703 12.3683 28.1241 11.8145 29.7241 11.8145C31.3241 11.8145 32.6779 12.3683 33.7856 13.476C34.8933 14.5837 35.4472 15.9375 35.4472 17.5375V30.4237C36.3087 30.7437 37.0164 31.2545 37.5703 31.956C38.1241 32.6575 38.401 33.4514 38.401 34.3375C38.401 35.4452 38.0072 36.3991 37.2195 37.1991C36.4318 37.9991 35.4718 38.3991 34.3395 38.3991C33.2318 38.3991 32.2779 37.9991 31.4779 37.1991C30.6779 36.3991 30.2779 35.4452 30.2779 34.3375C30.2779 33.4514 30.5549 32.6514 31.1087 31.9375C31.6626 31.2237 32.3703 30.7191 33.2318 30.4237V17.5375C33.2318 16.5529 32.8933 15.7221 32.2164 15.0452C31.5395 14.3683 30.7087 14.0298 29.7241 14.0298C28.7395 14.0298 27.9087 14.3683 27.2318 15.0452C26.5549 15.7221 26.2164 16.5529 26.2164 17.5375V32.676C26.2164 34.2514 25.6626 35.5991 24.5549 36.7191C23.4472 37.8391 22.0933 38.3991 20.4933 38.3991ZM15.9149 17.7221C16.4072 17.7221 16.8318 17.5375 17.1887 17.1683C17.5456 16.7991 17.7241 16.356 17.7241 15.8391C17.7241 15.3468 17.5456 14.9221 17.1887 14.5652C16.8318 14.2083 16.3949 14.0298 15.8779 14.0298C15.3856 14.0298 14.9549 14.2083 14.5856 14.5652C14.2164 14.9221 14.0318 15.3591 14.0318 15.876C14.0318 16.3683 14.2164 16.7991 14.5856 17.1683C14.9549 17.5375 15.3979 17.7221 15.9149 17.7221ZM34.3764 36.1837C34.8687 36.1837 35.2933 35.9991 35.6503 35.6298C36.0072 35.2606 36.1856 34.8175 36.1856 34.3006C36.1856 33.8083 36.0072 33.3837 35.6503 33.0268C35.2933 32.6698 34.8564 32.4914 34.3395 32.4914C33.8472 32.4914 33.4164 32.6698 33.0472 33.0268C32.6779 33.3837 32.4933 33.8206 32.4933 34.3375C32.4933 34.8298 32.6779 35.2606 33.0472 35.6298C33.4164 35.9991 33.8595 36.1837 34.3764 36.1837Z" fill="#1C023B"/>
</svg>
