<svg width="425" height="475" viewBox="0 0 425 475" fill="none" xmlns="http://www.w3.org/2000/svg">
<g clip-path="url(#clip0_607_69)">
<path fill-rule="evenodd" clip-rule="evenodd" d="M246.849 47.5938L328.136 123.736H246.849V47.5938ZM85.9759 287.886C83.6642 288.015 81.4965 289.05 79.9429 290.767C78.3893 292.484 77.5752 294.744 77.6771 297.057C77.6043 298.207 77.7627 299.361 78.143 300.449C78.5233 301.537 79.1177 302.538 79.8913 303.393C80.6648 304.248 81.6018 304.939 82.6468 305.426C83.6919 305.912 84.8238 306.185 85.9759 306.227H187.969V287.886H85.9759ZM85.9759 353.572C83.6642 353.7 81.4965 354.735 79.9429 356.452C78.3893 358.169 77.5752 360.429 77.6771 362.742C77.6043 363.892 77.7627 365.046 78.143 366.134C78.5233 367.222 79.1177 368.223 79.8913 369.078C80.6648 369.933 81.6018 370.624 82.6468 371.111C83.6919 371.598 84.8238 371.87 85.9759 371.912H136.972H187.969V353.572H85.9759ZM85.9759 156.474C83.6642 156.603 81.4965 157.638 79.9429 159.355C78.3893 161.072 77.5752 163.332 77.6771 165.645C77.61 166.794 77.7724 167.945 78.1548 169.031C78.5372 170.117 79.132 171.116 79.9045 171.969C80.677 172.823 81.6116 173.514 82.654 174.002C83.6964 174.491 84.8257 174.767 85.9759 174.815H180.292C182.604 174.686 184.772 173.651 186.325 171.934C187.879 170.218 188.693 167.958 188.591 165.645C188.652 164.497 188.486 163.348 188.102 162.264C187.717 161.181 187.122 160.184 186.35 159.332C185.579 158.48 184.647 157.788 183.607 157.298C182.567 156.807 181.441 156.528 180.292 156.474H85.9759ZM85.9759 90.7892C83.6642 90.918 81.4965 91.953 79.9429 93.6697C78.3893 95.3864 77.5752 97.6464 77.6771 99.9594C77.6043 101.11 77.7627 102.263 78.143 103.352C78.5233 104.44 79.1177 105.441 79.8913 106.296C80.6648 107.151 81.6018 107.842 82.6468 108.328C83.6919 108.815 84.8238 109.088 85.9759 109.13H137.844C140.155 109.001 142.323 107.966 143.877 106.249C145.43 104.532 146.244 102.272 146.142 99.9594C146.209 98.8102 146.047 97.659 145.665 96.5732C145.282 95.4874 144.687 94.4885 143.915 93.635C143.143 92.7814 142.208 92.0901 141.165 91.6016C140.123 91.113 138.994 90.8368 137.844 90.7892H85.9759ZM85.9759 222.201C83.6642 222.33 81.4965 223.365 79.9429 225.082C78.3893 226.798 77.5752 229.058 77.6771 231.371C77.6156 232.519 77.7819 233.668 78.1665 234.752C78.551 235.835 79.1461 236.832 79.9175 237.684C80.6889 238.536 81.6214 239.228 82.6612 239.718C83.7009 240.209 84.8275 240.488 85.9759 240.542H245.479C247.787 240.402 249.949 239.364 251.5 237.65C253.051 235.936 253.869 233.682 253.778 231.371C253.845 230.222 253.683 229.071 253.3 227.985C252.918 226.899 252.323 225.9 251.551 225.047C250.778 224.193 249.844 223.502 248.801 223.014C247.759 222.525 246.63 222.249 245.479 222.201H85.9759ZM373.447 134.649C373.451 131.702 372.492 128.835 370.717 126.483C368.942 124.132 366.448 122.424 363.613 121.619L243.737 4.97933C242.485 3.42124 240.899 2.16467 239.097 1.30273C237.294 0.440783 235.32 -0.00444381 233.322 3.54078e-05H24.3571C21.1604 -0.00541964 17.9941 0.619496 15.0392 1.83902C12.0843 3.05855 9.39888 4.84876 7.13657 7.10721C4.87427 9.36567 3.07948 12.048 1.85492 15.0008C0.630352 17.9537 3.83693e-05 21.1189 4.30238e-05 24.3156V440.875C-0.00598548 444.075 0.62158 447.243 1.84653 450.199C3.07148 453.155 4.86956 455.838 7.13704 458.095C11.7206 462.633 17.9073 465.182 24.3571 465.191H188.342V438.012H27.1787V27.2202H219.67V137.263C219.67 140.883 221.108 144.356 223.668 146.916C226.229 149.476 229.701 150.914 233.322 150.914H346.186V239.919H373.447V134.649Z" fill="#737373"/>
<path fill-rule="evenodd" clip-rule="evenodd" d="M390.175 298.046L404.599 312.471C408.395 316.268 408.395 322.479 404.599 326.275L392.983 337.891C396.188 343.875 398.633 350.324 400.189 357.114H415.236C420.606 357.114 425 361.508 425 366.877V387.276C425 392.646 420.606 397.04 415.236 397.04H398.815C396.801 403.686 393.921 409.956 390.302 415.717L400.954 426.366C404.751 430.166 404.751 436.377 400.954 440.171L386.53 454.597C382.734 458.392 376.521 458.392 372.726 454.597L361.109 442.98C355.127 446.186 348.676 448.633 341.884 450.187V465.235C341.884 470.603 337.492 474.997 332.122 474.997H311.724C306.354 474.997 301.96 470.603 301.96 465.235V448.813C295.314 446.798 289.044 443.917 283.285 440.299L272.634 450.951C268.834 454.748 262.623 454.748 258.827 450.951L244.403 436.527C240.606 432.73 240.606 426.519 244.403 422.723L256.02 411.106C252.814 405.124 250.367 398.674 248.814 391.884H233.762C228.394 391.884 224 387.492 224 382.122V361.722C224 356.352 228.394 351.96 233.762 351.96H250.184C252.199 345.314 255.079 339.044 258.696 333.283L248.046 322.634C244.249 318.836 244.249 312.623 248.046 308.829L262.471 294.403C266.268 290.606 272.479 290.606 276.275 294.403L287.891 306.018C293.875 302.812 300.324 300.365 307.116 298.811V283.764C307.116 278.394 311.51 274 316.878 274H337.278C342.646 274 347.04 278.394 347.04 283.764V300.18C353.688 302.194 359.959 305.074 365.723 308.693L376.367 298.046C380.167 294.249 386.378 294.249 390.175 298.046ZM324.501 334.392C346.649 334.392 364.608 352.353 364.608 374.499C364.608 396.644 346.649 414.606 324.501 414.606C302.354 414.606 284.394 396.646 284.394 374.499C284.394 352.353 302.354 334.392 324.501 334.392Z" fill="#737373"/>
</g>
<defs>
<clipPath id="clip0_607_69">
<rect width="425" height="475" fill="white"/>
</clipPath>
</defs>
</svg>
