<svg width="709" height="767" viewBox="0 0 709 767" fill="none" xmlns="http://www.w3.org/2000/svg">
<path d="M671.51 134.496H585.713V58.6627C600.406 56.9737 611.891 44.6445 611.891 29.4441C611.891 13.2303 598.717 0.0566406 582.504 0.0566406H434.553C418.339 0.0566406 405.166 13.2303 405.166 29.4441C405.166 43.9689 415.637 55.9604 429.486 58.4938V134.665H336.426C316.496 134.665 300.283 150.878 300.283 170.977V212.525H364.462C385.405 212.525 403.814 223.84 413.779 240.73H461.407H609.527C616.113 240.73 621.349 245.965 621.349 252.552C621.349 259.139 616.113 264.375 609.527 264.375H578.788V281.095C578.788 287.682 573.552 292.918 566.965 292.918C560.379 292.918 555.143 287.682 555.143 281.095V264.375H423.575C422.899 264.375 422.224 264.375 421.548 264.206H421.379C421.548 266.064 421.717 267.922 421.717 269.779V345.613H504.137C539.436 345.613 568.317 374.324 568.317 409.792V725.285C568.317 740.654 562.912 754.672 553.792 765.819H671.679C691.609 765.819 707.823 749.606 707.823 729.676V170.639C707.654 150.71 691.44 134.496 671.51 134.496ZM453.131 134.496V58.8316H562.068V134.496H453.131Z" fill="#737373"/>
<path d="M0.665527 409.454V724.947C0.665527 747.41 18.7371 765.482 41.1999 765.482H97.9481V368.92H41.1999C18.7371 368.92 0.665527 386.992 0.665527 409.454Z" fill="#737373"/>
<path d="M503.968 368.92H447.22V765.313H503.968C526.262 765.313 544.502 747.241 544.502 724.778V409.454C544.502 386.992 526.262 368.92 503.968 368.92Z" fill="#737373"/>
<path d="M324.941 368.92H220.058V765.313H324.941V368.92Z" fill="#737373"/>
<path d="M397.903 368.92V269.442C397.903 250.864 382.871 235.832 364.293 235.832H180.875C162.296 235.832 147.265 250.864 147.265 269.442V368.92H121.593V765.313H196.413V368.92H170.741V269.442C170.741 263.868 175.132 259.477 180.706 259.477H364.293C369.866 259.477 374.258 263.868 374.258 269.442V368.92H348.586V765.313H423.406V368.92H397.903Z" fill="#737373"/>
</svg>
