<svg width="465" height="510" viewBox="0 0 465 510" fill="none" xmlns="http://www.w3.org/2000/svg">
<g clip-path="url(#clip0_606_63)">
<path fill-rule="evenodd" clip-rule="evenodd" d="M235.479 471.249V311.497C235.512 301.261 239.593 291.454 246.83 284.217C254.068 276.979 263.875 272.898 274.11 272.866H425.564C435.799 272.898 445.606 276.979 452.844 284.217C460.082 291.454 464.162 301.261 464.195 311.497V471.249C464.162 481.484 460.082 491.291 452.844 498.529C445.606 505.767 435.799 509.847 425.564 509.88H274.11C263.875 509.847 254.068 505.767 246.83 498.529C239.593 491.291 235.512 481.484 235.479 471.249ZM246.849 47.5938L328.136 123.736H246.849V47.5938ZM85.9759 287.886C83.6642 288.015 81.4965 289.05 79.9429 290.767C78.3893 292.484 77.5752 294.744 77.6771 297.057C77.6042 298.207 77.7627 299.361 78.143 300.449C78.5232 301.537 79.1177 302.538 79.8913 303.393C80.6648 304.248 81.6018 304.939 82.6468 305.426C83.6919 305.912 84.8238 306.185 85.9759 306.227H187.969V287.886H85.9759ZM85.9759 353.572C83.6642 353.7 81.4965 354.735 79.9429 356.452C78.3893 358.169 77.5752 360.429 77.6771 362.742C77.6042 363.892 77.7627 365.046 78.143 366.134C78.5232 367.222 79.1177 368.223 79.8913 369.078C80.6648 369.933 81.6018 370.624 82.6468 371.111C83.6919 371.598 84.8238 371.87 85.9759 371.912H187.969V353.572H85.9759ZM85.9759 156.474C83.6642 156.603 81.4965 157.638 79.9429 159.355C78.3893 161.072 77.5752 163.332 77.6771 165.645C77.61 166.794 77.7724 167.945 78.1548 169.031C78.5372 170.117 79.132 171.116 79.9045 171.969C80.677 172.823 81.6116 173.514 82.654 174.002C83.6964 174.491 84.8257 174.767 85.9759 174.815H180.292C182.604 174.686 184.772 173.651 186.325 171.934C187.879 170.218 188.693 167.958 188.591 165.645C188.652 164.497 188.486 163.348 188.102 162.264C187.717 161.181 187.122 160.184 186.35 159.332C185.579 158.48 184.647 157.788 183.607 157.298C182.567 156.807 181.441 156.528 180.292 156.474H85.9759ZM85.9759 90.7892C83.6642 90.918 81.4965 91.953 79.9429 93.6697C78.3893 95.3864 77.5752 97.6464 77.6771 99.9594C77.6042 101.11 77.7627 102.263 78.143 103.352C78.5232 104.44 79.1177 105.441 79.8913 106.296C80.6648 107.151 81.6018 107.842 82.6468 108.328C83.6919 108.815 84.8238 109.088 85.9759 109.13H137.844C140.155 109.001 142.323 107.966 143.877 106.249C145.43 104.532 146.244 102.272 146.142 99.9594C146.209 98.8102 146.047 97.659 145.665 96.5732C145.282 95.4874 144.687 94.4885 143.915 93.635C143.143 92.7814 142.208 92.0901 141.165 91.6016C140.123 91.113 138.994 90.8368 137.844 90.7892H85.9759ZM85.9759 222.201C83.6642 222.33 81.4965 223.365 79.9429 225.082C78.3893 226.798 77.5752 229.058 77.6771 231.371C77.6156 232.519 77.782 233.668 78.1665 234.752C78.551 235.835 79.1461 236.832 79.9175 237.684C80.6889 238.536 81.6214 239.228 82.6612 239.718C83.7009 240.209 84.8275 240.488 85.9759 240.542H245.479C247.787 240.402 249.949 239.364 251.5 237.65C253.051 235.936 253.869 233.682 253.778 231.371C253.845 230.222 253.683 229.071 253.3 227.985C252.918 226.899 252.323 225.9 251.551 225.047C250.778 224.193 249.844 223.502 248.801 223.014C247.759 222.525 246.63 222.249 245.479 222.201H85.9759ZM373.447 134.649C373.451 131.702 372.492 128.835 370.717 126.483C368.942 124.132 366.448 122.424 363.613 121.619L243.737 4.97933C242.485 3.42124 240.899 2.16467 239.097 1.30273C237.294 0.440783 235.32 -0.00444381 233.322 3.54078e-05H24.3571C21.1604 -0.00541964 17.9941 0.619496 15.0392 1.83902C12.0843 3.05855 9.39888 4.84876 7.13657 7.10721C4.87427 9.36567 3.07948 12.048 1.85492 15.0008C0.630351 17.9537 3.83693e-05 21.1189 4.30238e-05 24.3156V440.875C-0.00598548 444.075 0.62158 447.243 1.84653 450.199C3.07148 453.155 4.86956 455.838 7.13704 458.095C11.7206 462.633 17.9073 465.182 24.3571 465.191H188.342V438.012H27.1787V27.2202H219.67V137.263C219.67 140.883 221.108 144.356 223.668 146.916C226.229 149.476 229.701 150.914 233.322 150.914H346.186V239.919H373.447V134.649ZM314.858 372.078L334.65 390.667L381.746 342.783C385.896 338.634 388.593 335.148 393.779 340.459L410.377 357.638C415.896 363.074 415.605 366.269 410.377 371.331L344.401 436.684C333.447 447.431 335.314 448.095 324.235 437.016L286.891 399.672C286.353 399.183 285.933 398.581 285.659 397.908C285.386 397.236 285.266 396.511 285.31 395.786C285.354 395.062 285.56 394.356 285.912 393.722C286.265 393.087 286.755 392.54 287.347 392.12L306.849 371.912C309.795 368.883 312.119 369.09 315.148 371.912L314.858 372.078Z" fill="#737373"/>
</g>
<defs>
<clipPath id="clip0_606_63">
<rect width="464.195" height="509.88" fill="white"/>
</clipPath>
</defs>
</svg>
