<svg width="72" height="82" viewBox="0 0 72 82" fill="none" xmlns="http://www.w3.org/2000/svg">
<g clip-path="url(#clip0_611_86)">
<path fill-rule="evenodd" clip-rule="evenodd" d="M5.34736 0H66.646C68.0654 0.00175781 69.4262 0.566403 70.4299 1.57009C71.4336 2.57378 71.9982 3.93457 72 5.354V56.9543C71.9947 58.3721 71.4288 59.7301 70.4256 60.732C69.4225 61.7339 68.0637 62.2982 66.646 62.3017H41.5632V62.1954C41.5632 61.2986 41.5632 60.4218 41.5234 58.9538H67.3368C67.5311 58.9538 67.7234 58.9154 67.9027 58.8409C68.0821 58.7664 68.2449 58.6571 68.3819 58.5195C68.519 58.3819 68.6275 58.2185 68.7012 58.0388C68.7749 57.8591 68.8124 57.6667 68.8115 57.4725V12.9267H3.40105V57.4725C3.39974 57.598 3.41538 57.7231 3.44755 57.8444C3.36709 58.1909 3.32477 58.545 3.32134 58.9006C3.30315 59.855 3.49833 60.8013 3.89261 61.6706C3.96034 61.8315 4.04029 61.987 4.13175 62.1356C2.96305 61.858 1.92106 61.1968 1.17214 60.2577C0.423214 59.3185 0.0105396 58.1555 0 56.9543L0 5.354C0.00175312 3.93572 0.565485 2.57593 1.56774 1.57243C2.56999 0.568934 3.92908 0.00351387 5.34736 0ZM17.8555 45.881C18.1601 45.8601 18.4657 45.9019 18.7535 46.0038C19.0413 46.1058 19.3051 46.2656 19.5286 46.4736C19.7521 46.6815 19.9306 46.9331 20.053 47.2128C20.1754 47.4925 20.2391 47.7943 20.2402 48.0996V62.3283H21.6817V55.3468C21.6817 52.5237 26.1323 52.61 26.1323 55.5062V62.481H26.1987H27.7598V56.9145C27.7598 54.0913 32.2104 54.1777 32.2104 57.0673V62.222H33.778V58.2962C33.778 55.473 38.2286 55.5594 38.2286 58.4489C38.2286 61.7038 38.4146 65.5433 38.295 68.7916C38.1688 72.3587 37.4315 76.3775 34.8475 78.6227C33.5011 79.8051 31.9085 80.6731 30.1851 81.1637C28.4617 81.6543 26.6507 81.7552 24.8835 81.4592C18.7589 80.4893 17.2112 76.7362 14.295 72.1129L6.88846 60.382C6.43011 59.3125 6.4899 58.5884 6.94824 58.1234C8.94105 56.848 12.1162 59.5583 15.6634 63.3911H15.7896V47.9469C15.7914 47.3995 16.0096 46.875 16.3967 46.488C16.7837 46.101 17.3082 45.8827 17.8555 45.881ZM11.4785 26.77C11.1713 26.254 11.0738 25.6397 11.2061 25.0539C11.3384 24.4681 11.6904 23.9554 12.1896 23.6214C12.6888 23.2875 13.297 23.1579 13.889 23.2592C14.481 23.3605 15.0115 23.6851 15.3712 24.1661L16.6399 25.561L20.3665 20.9112C20.7611 20.432 21.3299 20.1292 21.9478 20.0694C22.5657 20.0096 23.182 20.1977 23.6612 20.5923C24.1404 20.9869 24.4432 21.5558 24.503 22.1737C24.5628 22.7915 24.3747 23.4079 23.9801 23.8871L18.3471 30.656C18.1896 30.8608 18.0014 31.0401 17.7891 31.1874C17.5319 31.358 17.2436 31.4762 16.9407 31.5352C16.6377 31.5942 16.3261 31.5928 16.0237 31.531C15.7213 31.4693 15.4341 31.3485 15.1785 31.1756C14.9229 31.0026 14.7039 30.7809 14.5342 30.5231L11.4785 26.7501V26.77ZM58.5419 45.5488C59.1708 45.5161 59.7631 45.2433 60.1967 44.7865C60.6303 44.3298 60.872 43.7241 60.872 43.0944C60.872 42.4646 60.6303 41.8589 60.1967 41.4022C59.7631 40.9455 59.1708 40.6726 58.5419 40.6399H32.8879C32.5548 40.6226 32.2217 40.6732 31.9089 40.7887C31.596 40.9043 31.3099 41.0822 31.068 41.3119C30.8261 41.5415 30.6335 41.8179 30.5019 42.1244C30.3703 42.4308 30.3024 42.7609 30.3024 43.0944C30.3024 43.4279 30.3703 43.7579 30.5019 44.0644C30.6335 44.3708 30.8261 44.6473 31.068 44.8769C31.3099 45.1065 31.596 45.2845 31.9089 45.4C32.2217 45.5155 32.5548 45.5662 32.8879 45.5488H58.5419ZM58.5419 28.2779C59.1708 28.2452 59.7631 27.9723 60.1967 27.5156C60.6303 27.0589 60.872 26.4531 60.872 25.8234C60.872 25.1937 60.6303 24.588 60.1967 24.1313C59.7631 23.6745 59.1708 23.4017 58.5419 23.3689H32.8879C32.5548 23.3516 32.2217 23.4022 31.9089 23.5178C31.596 23.6333 31.3099 23.8113 31.068 24.0409C30.8261 24.2705 30.6335 24.547 30.5019 24.8534C30.3703 25.1599 30.3024 25.4899 30.3024 25.8234C30.3024 26.1569 30.3703 26.487 30.5019 26.7934C30.6335 27.0998 30.8261 27.3763 31.068 27.6059C31.3099 27.8355 31.596 28.0135 31.9089 28.1291C32.2217 28.2446 32.5548 28.2952 32.8879 28.2779H58.5419ZM11.7177 36.289H23.9136C24.3558 36.289 24.7799 36.4646 25.0926 36.7773C25.4053 37.09 25.581 37.5141 25.581 37.9563V48.2325C25.5792 48.6742 25.403 49.0972 25.0907 49.4095C24.7784 49.7218 24.3553 49.8981 23.9136 49.8998H23.5616V48.0996C23.5744 46.7873 23.1012 45.5167 22.233 44.5325V39.6236H13.385V45.0042C12.8048 45.8759 12.4952 46.8997 12.4949 47.9469V49.8998H11.7177C11.276 49.8981 10.853 49.7218 10.5407 49.4095C10.2283 49.0972 10.0521 48.6742 10.0504 48.2325V37.9563C10.0504 37.5141 10.226 37.09 10.5387 36.7773C10.8514 36.4646 11.2755 36.289 11.7177 36.289ZM61.5511 4.64988C62.0766 4.64988 62.5903 4.80571 63.0273 5.09767C63.4642 5.38964 63.8048 5.80461 64.0059 6.29013C64.207 6.77565 64.2596 7.30989 64.1571 7.82532C64.0546 8.34074 63.8015 8.81418 63.4299 9.18578C63.0583 9.55738 62.5849 9.81044 62.0694 9.91296C61.554 10.0155 61.0198 9.96287 60.5342 9.76176C60.0487 9.56065 59.6338 9.22009 59.3418 8.78314C59.0498 8.34618 58.894 7.83247 58.894 7.30695C58.894 6.60225 59.1739 5.92641 59.6722 5.42811C60.1705 4.92982 60.8464 4.64988 61.5511 4.64988ZM43.649 4.64988C44.1746 4.64988 44.6883 4.80571 45.1252 5.09767C45.5622 5.38964 45.9027 5.80461 46.1039 6.29013C46.305 6.77565 46.3576 7.30989 46.2551 7.82532C46.1525 8.34074 45.8995 8.81418 45.5279 9.18578C45.1563 9.55738 44.6828 9.81044 44.1674 9.91296C43.652 10.0155 43.1177 9.96287 42.6322 9.76176C42.1467 9.56065 41.7317 9.22009 41.4398 8.78314C41.1478 8.34618 40.992 7.83247 40.992 7.30695C40.992 6.60225 41.2719 5.92641 41.7702 5.42811C42.2685 4.92982 42.9443 4.64988 43.649 4.64988ZM52.6034 4.64988C53.1289 4.64988 53.6426 4.80571 54.0796 5.09767C54.5165 5.38964 54.8571 5.80461 55.0582 6.29013C55.2593 6.77565 55.3119 7.30989 55.2094 7.82532C55.1069 8.34074 54.8538 8.81418 54.4822 9.18578C54.1106 9.55738 53.6372 9.81044 53.1217 9.91296C52.6063 10.0155 52.0721 9.96287 51.5866 9.76176C51.101 9.56065 50.6861 9.22009 50.3941 8.78314C50.1021 8.34618 49.9463 7.83247 49.9463 7.30695C49.9463 6.60225 50.2262 5.92641 50.7245 5.42811C51.2228 4.92982 51.8987 4.64988 52.6034 4.64988Z" fill="#737373"/>
</g>
<defs>
<clipPath id="clip0_611_86">
<rect width="72" height="81.6252" fill="white"/>
</clipPath>
</defs>
</svg>
