<svg width="425" height="475" viewBox="0 0 425 475" fill="none" xmlns="http://www.w3.org/2000/svg">
<path fill-rule="evenodd" clip-rule="evenodd" d="M246.849 47.5938L328.136 123.736H246.849V47.5938ZM85.9759 287.886C83.6642 288.015 81.4965 289.05 79.9429 290.767C78.3893 292.484 77.5752 294.744 77.6771 297.057C77.6043 298.207 77.7627 299.361 78.143 300.449C78.5233 301.537 79.1177 302.538 79.8913 303.393C80.6648 304.248 81.6018 304.939 82.6468 305.426C83.6919 305.912 84.8238 306.185 85.9759 306.227H187.969V287.886H85.9759ZM85.9759 353.572C83.6642 353.7 81.4965 354.735 79.9429 356.452C78.3893 358.169 77.5752 360.429 77.6771 362.742C77.6043 363.892 77.7627 365.046 78.143 366.134C78.5233 367.222 79.1177 368.223 79.8913 369.078C80.6648 369.933 81.6018 370.624 82.6468 371.111C83.6919 371.598 84.8238 371.87 85.9759 371.912H136.972H187.969V353.572H85.9759ZM85.9759 156.474C83.6642 156.603 81.4965 157.638 79.9429 159.355C78.3893 161.072 77.5752 163.332 77.6771 165.645C77.61 166.794 77.7724 167.945 78.1548 169.031C78.5372 170.117 79.132 171.116 79.9045 171.969C80.677 172.823 81.6116 173.514 82.654 174.002C83.6964 174.491 84.8257 174.767 85.9759 174.815H180.292C182.604 174.686 184.772 173.651 186.325 171.934C187.879 170.218 188.693 167.958 188.591 165.645C188.652 164.497 188.486 163.348 188.102 162.264C187.717 161.181 187.122 160.184 186.35 159.332C185.579 158.48 184.647 157.788 183.607 157.298C182.567 156.807 181.441 156.528 180.292 156.474H85.9759ZM85.9759 90.7892C83.6642 90.918 81.4965 91.953 79.9429 93.6697C78.3893 95.3864 77.5752 97.6464 77.6771 99.9594C77.6043 101.11 77.7627 102.263 78.143 103.352C78.5233 104.44 79.1177 105.441 79.8913 106.296C80.6648 107.151 81.6018 107.842 82.6468 108.328C83.6919 108.815 84.8238 109.088 85.9759 109.13H137.844C140.155 109.001 142.323 107.966 143.877 106.249C145.43 104.532 146.244 102.272 146.142 99.9594C146.209 98.8102 146.047 97.659 145.665 96.5732C145.282 95.4874 144.687 94.4885 143.915 93.635C143.143 92.7814 142.208 92.0901 141.165 91.6016C140.123 91.113 138.994 90.8368 137.844 90.7892H85.9759ZM85.9759 222.201C83.6642 222.33 81.4965 223.365 79.9429 225.082C78.3893 226.798 77.5752 229.058 77.6771 231.371C77.6156 232.519 77.7819 233.668 78.1665 234.752C78.551 235.835 79.1461 236.832 79.9175 237.684C80.6889 238.536 81.6214 239.228 82.6612 239.718C83.7009 240.209 84.8275 240.488 85.9759 240.542H245.479C247.787 240.402 249.949 239.364 251.5 237.65C253.051 235.936 253.869 233.682 253.778 231.371C253.845 230.222 253.683 229.071 253.3 227.985C252.918 226.899 252.323 225.9 251.551 225.047C250.778 224.193 249.844 223.502 248.801 223.014C247.759 222.525 246.63 222.249 245.479 222.201H85.9759ZM373.447 134.649C373.451 131.702 372.492 128.835 370.717 126.483C368.942 124.132 366.448 122.424 363.613 121.619L243.737 4.97933C242.485 3.42124 240.899 2.16467 239.097 1.30273C237.294 0.440783 235.32 -0.00444381 233.322 3.54078e-05H24.3571C21.1604 -0.00541964 17.9941 0.619496 15.0392 1.83902C12.0843 3.05855 9.39888 4.84876 7.13657 7.10721C4.87427 9.36567 3.07948 12.048 1.85492 15.0008C0.630352 17.9537 3.83693e-05 21.1189 4.30238e-05 24.3156V440.875C-0.00598548 444.075 0.62158 447.243 1.84653 450.199C3.07148 453.155 4.86956 455.838 7.13704 458.095C11.7206 462.633 17.9073 465.182 24.3571 465.191H188.342V438.012H27.1787V27.2202H219.67V137.263C219.67 140.883 221.108 144.356 223.668 146.916C226.229 149.476 229.701 150.914 233.322 150.914H346.186V239.919H373.447V134.649Z" fill="#737373"/>
<path d="M322.506 405.488H273.681V400.622C273.681 392.326 274.601 385.574 276.488 380.397C278.375 375.173 281.182 370.479 284.909 366.19C288.636 361.886 297.01 354.339 310.047 343.548C316.986 337.887 320.448 332.71 320.448 328.016C320.448 323.275 319.044 319.642 316.284 317.007C313.477 314.418 309.267 313.108 303.606 313.108C297.509 313.108 292.503 315.12 288.511 319.159C284.519 323.151 281.977 330.215 280.87 340.211L231 334.02C232.715 315.681 239.374 300.945 250.96 289.748C262.578 278.567 280.402 273 304.386 273C323.068 273 338.116 276.899 349.609 284.664C365.187 295.237 373 309.272 373 326.831C373 334.113 370.988 341.177 366.949 347.93C362.957 354.682 354.708 362.978 342.295 372.709C333.656 379.601 328.167 385.075 325.89 389.254C323.66 393.371 322.506 398.813 322.506 405.488ZM271.981 418.477H324.315V464.636H271.981V418.477Z" fill="#737373"/>
</svg>
