<svg width="42" height="42" viewBox="0 0 42 42" fill="none" xmlns="http://www.w3.org/2000/svg">
<circle cx="21" cy="21" r="21" fill="#001A72" fill-opacity="0.15"/>
<path d="M20.7666 19.7167C18.1183 19.0283 17.2666 18.3167 17.2666 17.2083C17.2666 15.9367 18.445 15.05 20.4166 15.05C22.4933 15.05 23.2633 16.0417 23.3333 17.5H25.9116C25.83 15.4933 24.605 13.65 22.1666 13.055V10.5H18.6666V13.02C16.4033 13.51 14.5833 14.98 14.5833 17.2317C14.5833 19.9267 16.8116 21.2683 20.0666 22.05C22.9833 22.75 23.5666 23.7767 23.5666 24.8617C23.5666 25.6667 22.995 26.95 20.4166 26.95C18.0133 26.95 17.0683 25.8767 16.94 24.5H14.3733C14.5133 27.055 16.4266 28.49 18.6666 28.9683V31.5H22.1666V28.9917C24.4416 28.56 26.25 27.2417 26.25 24.85C26.25 21.5367 23.415 20.405 20.7666 19.7167Z" fill="#001A72"/>
</svg>
