<svg width="58" height="58" viewBox="0 0 58 58" fill="none" xmlns="http://www.w3.org/2000/svg">
<circle cx="29" cy="29" r="29" fill="#F8F1EB"/>
<circle cx="29" cy="29" r="29" fill="#F8F1EB"/>
<path d="M42.9833 41.282L36.2999 38.9987L33.9999 45.6654L28.8666 35.6654L23.9999 45.6654L21.6999 38.9987L15.0166 41.282L19.8833 31.282C18.2833 29.282 17.3333 26.7487 17.3333 23.9987C17.3333 20.9045 18.5624 17.937 20.7504 15.7491C22.9383 13.5612 25.9057 12.332 28.9999 12.332C32.0941 12.332 35.0616 13.5612 37.2495 15.7491C39.4374 17.937 40.6666 20.9045 40.6666 23.9987C40.6666 26.7487 39.7166 29.282 38.1166 31.282L42.9833 41.282ZM20.6666 23.9987L25.1499 26.232L24.8333 31.232L28.9999 28.4654L33.1666 31.2154L32.8833 26.232L37.3333 23.9987L32.8666 21.7487L33.1666 16.782L28.9999 19.5154L24.8333 16.7487L25.1166 21.7654L20.6666 23.9987Z" fill="#FF9A3D"/>
<path d="M42.9833 41.282L36.2999 38.9987L33.9999 45.6654L28.8666 35.6654L23.9999 45.6654L21.6999 38.9987L15.0166 41.282L19.8833 31.282C18.2833 29.282 17.3333 26.7487 17.3333 23.9987C17.3333 20.9045 18.5624 17.937 20.7504 15.7491C22.9383 13.5612 25.9057 12.332 28.9999 12.332C32.0941 12.332 35.0616 13.5612 37.2495 15.7491C39.4374 17.937 40.6666 20.9045 40.6666 23.9987C40.6666 26.7487 39.7166 29.282 38.1166 31.282L42.9833 41.282ZM20.6666 23.9987L25.1499 26.232L24.8333 31.232L28.9999 28.4654L33.1666 31.2154L32.8833 26.232L37.3333 23.9987L32.8666 21.7487L33.1666 16.782L28.9999 19.5154L24.8333 16.7487L25.1166 21.7654L20.6666 23.9987Z" fill="#FF9A3D"/>
</svg>
