<svg width="58" height="22" viewBox="0 0 58 22" fill="none" xmlns="http://www.w3.org/2000/svg">
<path d="M29.1869 16V7.27273H34.4199V8.21023H30.2438V11.1591H34.0279V12.0966H30.2438V16H29.1869ZM36.0936 16V9.45455H37.0992V16H36.0936ZM36.6049 8.36364C36.4089 8.36364 36.2399 8.29688 36.0978 8.16335C35.9586 8.02983 35.889 7.86932 35.889 7.68182C35.889 7.49432 35.9586 7.33381 36.0978 7.20028C36.2399 7.06676 36.4089 7 36.6049 7C36.8009 7 36.9686 7.06676 37.1078 7.20028C37.2498 7.33381 37.3208 7.49432 37.3208 7.68182C37.3208 7.86932 37.2498 8.02983 37.1078 8.16335C36.9686 8.29688 36.8009 8.36364 36.6049 8.36364ZM39.9469 7.27273V16H38.9412V7.27273H39.9469ZM44.6355 9.45455V10.3068H41.2434V9.45455H44.6355ZM42.232 7.88636H43.2377V14.125C43.2377 14.4091 43.2789 14.6222 43.3613 14.7642C43.4465 14.9034 43.5545 14.9972 43.6852 15.0455C43.8187 15.0909 43.9593 15.1136 44.107 15.1136C44.2178 15.1136 44.3087 15.108 44.3798 15.0966C44.4508 15.0824 44.5076 15.071 44.5502 15.0625L44.7548 15.9659C44.6866 15.9915 44.5914 16.017 44.4693 16.0426C44.3471 16.071 44.1923 16.0852 44.0048 16.0852C43.7207 16.0852 43.4423 16.0241 43.1695 15.902C42.8997 15.7798 42.6752 15.5938 42.4962 15.3438C42.3201 15.0938 42.232 14.7784 42.232 14.3977V7.88636ZM48.8222 16.1364C48.1916 16.1364 47.6475 15.9972 47.1901 15.7188C46.7356 15.4375 46.3847 15.0455 46.1376 14.5426C45.8933 14.0369 45.7711 13.4489 45.7711 12.7784C45.7711 12.108 45.8933 11.517 46.1376 11.0057C46.3847 10.4915 46.7285 10.0909 47.1688 9.80398C47.612 9.5142 48.1291 9.36932 48.72 9.36932C49.0609 9.36932 49.3975 9.42614 49.7299 9.53977C50.0623 9.65341 50.3649 9.83807 50.6376 10.0938C50.9103 10.3466 51.1276 10.6818 51.2896 11.0994C51.4515 11.517 51.5325 12.0312 51.5325 12.642V13.0682H46.487V12.1989H50.5097C50.5097 11.8295 50.4359 11.5 50.2882 11.2102C50.1433 10.9205 49.9359 10.6918 49.666 10.5241C49.3989 10.3565 49.0836 10.2727 48.72 10.2727C48.3194 10.2727 47.9728 10.3722 47.6802 10.571C47.3904 10.767 47.1674 11.0227 47.0112 11.3381C46.8549 11.6534 46.7768 11.9915 46.7768 12.3523V12.9318C46.7768 13.4261 46.862 13.8452 47.0325 14.1889C47.2058 14.5298 47.4458 14.7898 47.7526 14.9688C48.0595 15.1449 48.416 15.233 48.8222 15.233C49.0864 15.233 49.3251 15.196 49.5382 15.1222C49.7541 15.0455 49.9401 14.9318 50.0964 14.7812C50.2526 14.6278 50.3734 14.4375 50.4586 14.2102L51.4302 14.483C51.3279 14.8125 51.1561 15.1023 50.9146 15.3523C50.6731 15.5994 50.3748 15.7926 50.0197 15.9318C49.6646 16.0682 49.2654 16.1364 48.8222 16.1364ZM53.0623 16V9.45455H54.0339V10.4432H54.1021C54.2214 10.1193 54.4373 9.85653 54.7498 9.65483C55.0623 9.45312 55.4146 9.35227 55.8066 9.35227C55.8805 9.35227 55.9728 9.35369 56.0836 9.35653C56.1944 9.35937 56.2782 9.36364 56.335 9.36932V10.392C56.3009 10.3835 56.2228 10.3707 56.1007 10.3537C55.9813 10.3338 55.8549 10.3239 55.7214 10.3239C55.4032 10.3239 55.1191 10.3906 54.8691 10.5241C54.622 10.6548 54.4259 10.8366 54.2811 11.0696C54.139 11.2997 54.068 11.5625 54.068 11.858V16H53.0623Z" fill="white" fill-opacity="0.6"/>
<g clip-path="url(#clip0_1757_2520)">
<path d="M3.91387 5.14185C5.77415 7.51602 9.20922 11.916 9.20922 11.916V17.416C9.20922 17.9202 9.62363 18.3327 10.1301 18.3327H11.972C12.4785 18.3327 12.8929 17.9202 12.8929 17.416V11.916C12.8929 11.916 16.3188 7.51602 18.1791 5.14185C18.6488 4.53685 18.2159 3.66602 17.4515 3.66602H4.6414C3.87703 3.66602 3.44419 4.53685 3.91387 5.14185Z" fill="white" fill-opacity="0.6"/>
</g>
<defs>
<clipPath id="clip0_1757_2520">
<rect width="22.1023" height="22" fill="white"/>
</clipPath>
</defs>
</svg>
