<svg width="58" height="65" viewBox="0 0 58 65" fill="none" xmlns="http://www.w3.org/2000/svg">
<path d="M26 25.5H32V43.4685H26V25.5ZM3.5 10.5H5V15H3.5V10.5Z" fill="black" fill-opacity="0.6"/>
<path d="M53.75 0H4.25C3.2558 0.00119089 2.30267 0.396662 1.59967 1.09967C0.896662 1.80267 0.501191 2.7558 0.5 3.75V21.75C0.5 23.817 2.183 25.5 4.25 25.5H24.5V40.4685H25.25C25.349 40.4685 25.447 40.4881 25.5384 40.5262C25.6298 40.5642 25.7127 40.62 25.7825 40.6903C25.8522 40.7606 25.9073 40.844 25.9446 40.9356C25.982 41.0273 26.0008 41.1255 26 41.2245L25.976 43.467H33.5V25.5H53.75C55.8185 25.5 57.5 23.817 57.5 21.75V3.75C57.5 1.683 55.8185 0 53.75 0ZM54.5 21.75C54.5 21.9489 54.421 22.1397 54.2803 22.2803C54.1397 22.421 53.9489 22.5 53.75 22.5H4.25C4.05109 22.5 3.86032 22.421 3.71967 22.2803C3.57902 22.1397 3.5 21.9489 3.5 21.75V16.5H5V21H53V16.5H54.5V21.75ZM16.25 9V16.5H20.75V13.5H18.5C18.3011 13.5 18.1103 13.421 17.9697 13.2803C17.829 13.1397 17.75 12.9489 17.75 12.75C17.75 12.5511 17.829 12.3603 17.9697 12.2197C18.1103 12.079 18.3011 12 18.5 12H21.5C21.6989 12 21.8897 12.079 22.0303 12.2197C22.171 12.3603 22.25 12.5511 22.25 12.75V17.25C22.25 17.4489 22.171 17.6397 22.0303 17.7803C21.8897 17.921 21.6989 18 21.5 18H15.5C15.3011 18 15.1103 17.921 14.9697 17.7803C14.829 17.6397 14.75 17.4489 14.75 17.25V8.25C14.75 8.05109 14.829 7.86032 14.9697 7.71967C15.1103 7.57902 15.3011 7.5 15.5 7.5H21.5C21.6989 7.5 21.8897 7.57902 22.0303 7.71967C22.171 7.86032 22.25 8.05109 22.25 8.25V9.75C22.25 9.94891 22.171 10.1397 22.0303 10.2803C21.8897 10.421 21.6989 10.5 21.5 10.5C21.3011 10.5 21.1103 10.421 20.9697 10.2803C20.829 10.1397 20.75 9.94891 20.75 9.75V9H16.25ZM31.25 16.5V13.5H26C25.8011 13.5 25.6103 13.421 25.4697 13.2803C25.329 13.1397 25.25 12.9489 25.25 12.75V8.25C25.25 8.05109 25.329 7.86032 25.4697 7.71967C25.6103 7.57902 25.8011 7.5 26 7.5H32C32.1989 7.5 32.3897 7.57902 32.5303 7.71967C32.671 7.86032 32.75 8.05109 32.75 8.25V9.75C32.75 9.94891 32.671 10.1397 32.5303 10.2803C32.3897 10.421 32.1989 10.5 32 10.5C31.8011 10.5 31.6103 10.421 31.4697 10.2803C31.329 10.1397 31.25 9.94891 31.25 9.75V9H26.75V12H32C32.1989 12 32.3897 12.079 32.5303 12.2197C32.671 12.3603 32.75 12.5511 32.75 12.75V17.25C32.75 17.4489 32.671 17.6397 32.5303 17.7803C32.3897 17.921 32.1989 18 32 18H26C25.8011 18 25.6103 17.921 25.4697 17.7803C25.329 17.6397 25.25 17.4489 25.25 17.25V15.75C25.25 15.5511 25.329 15.3603 25.4697 15.2197C25.6103 15.079 25.8011 15 26 15C26.1989 15 26.3897 15.079 26.5303 15.2197C26.671 15.3603 26.75 15.5511 26.75 15.75V16.5H31.25ZM40.25 9V17.25C40.25 17.4489 40.171 17.6397 40.0303 17.7803C39.8897 17.921 39.6989 18 39.5 18C39.3011 18 39.1103 17.921 38.9697 17.7803C38.829 17.6397 38.75 17.4489 38.75 17.25V9H37.25V9.75C37.25 9.94891 37.171 10.1397 37.0303 10.2803C36.8897 10.421 36.6989 10.5 36.5 10.5C36.3011 10.5 36.1103 10.421 35.9697 10.2803C35.829 10.1397 35.75 9.94891 35.75 9.75V8.25C35.75 8.05109 35.829 7.86032 35.9697 7.71967C36.1103 7.57902 36.3011 7.5 36.5 7.5H42.5C42.6989 7.5 42.8897 7.57902 43.0303 7.71967C43.171 7.86032 43.25 8.05109 43.25 8.25V9.75C43.25 9.94891 43.171 10.1397 43.0303 10.2803C42.8897 10.421 42.6989 10.5 42.5 10.5C42.3011 10.5 42.1103 10.421 41.9697 10.2803C41.829 10.1397 41.75 9.94891 41.75 9.75V9H40.25ZM54.5 9H53V4.5H5V9H3.5V3.75C3.5 3.55109 3.57902 3.36032 3.71967 3.21967C3.86032 3.07902 4.05109 3 4.25 3H53.75C53.9489 3 54.1397 3.07902 54.2803 3.21967C54.421 3.36032 54.5 3.55109 54.5 3.75V9Z" fill="black" fill-opacity="0.6"/>
<path d="M28.2185 40.4985H35C35.3978 40.4985 35.7794 40.3405 36.0607 40.0592C36.342 39.7779 36.5 39.3963 36.5 38.9985C36.5 38.6007 36.342 38.2191 36.0607 37.9378C35.7794 37.6565 35.3978 37.4985 35 37.4985H28.2185C28.0196 37.4985 27.8288 37.4195 27.6882 37.2788C27.5475 37.1382 27.4685 36.9474 27.4685 36.7485C27.4685 36.5496 27.5475 36.3588 27.6882 36.2182C27.8288 36.0775 28.0196 35.9985 28.2185 35.9985H35C35.3978 35.9985 35.7794 35.8405 36.0607 35.5592C36.342 35.2779 36.5 34.8963 36.5 34.4985C36.5 34.1007 36.342 33.7191 36.0607 33.4378C35.7794 33.1565 35.3978 32.9985 35 32.9985H25.2185C25.1195 32.9985 25.0215 32.9789 24.9301 32.9408C24.8387 32.9028 24.7558 32.847 24.686 32.7767C24.6163 32.7064 24.5612 32.623 24.5239 32.5314C24.4865 32.4397 24.4677 32.3415 24.4685 32.2425L24.4925 30H21.0605L18.2795 32.781C18.2097 32.8506 18.1269 32.9058 18.0358 32.9433C17.9447 32.9809 17.8471 33.0002 17.7485 33H12.5V46.5H14.75C14.9491 46.5007 15.1399 46.5799 15.281 46.7205L18.0605 49.5H35C35.3978 49.5 35.7794 49.342 36.0607 49.0607C36.342 48.7794 36.5 48.3978 36.5 48C36.5 47.6022 36.342 47.2206 36.0607 46.9393C35.7794 46.658 35.3978 46.5 35 46.5H28.2185C28.0196 46.5 27.8288 46.421 27.6882 46.2803C27.5475 46.1397 27.4685 45.9489 27.4685 45.75C27.4685 45.5511 27.5475 45.3603 27.6882 45.2197C27.8288 45.079 28.0196 45 28.2185 45H35C35.3978 45 35.7794 44.842 36.0607 44.5607C36.342 44.2794 36.5 43.8978 36.5 43.5C36.5 43.1022 36.342 42.7206 36.0607 42.4393C35.7794 42.158 35.3978 42 35 42H28.2185C28.0194 42 27.8284 41.9209 27.6876 41.7801C27.5468 41.6393 27.4678 41.4484 27.4678 41.2492C27.4678 41.0501 27.5468 40.8592 27.6876 40.7184C27.8284 40.5776 28.0194 40.4985 28.2185 40.4985ZM3.5 49.4985H11V31.4985H3.5V49.4985ZM7.2035 44.2485C8.03 44.2485 8.7035 44.922 8.7035 45.7485C8.7035 46.575 8.03 47.2485 7.2035 47.2485C6.377 47.2485 5.7035 46.575 5.7035 45.7485C5.7035 44.922 6.377 44.2485 7.2035 44.2485ZM29.7185 50.9985H24.5V63.78C24.5 63.9789 24.579 64.1697 24.7197 64.3103C24.8603 64.451 25.0511 64.53 25.25 64.53H32.75C32.9489 64.53 33.1397 64.451 33.2803 64.3103C33.421 64.1697 33.5 63.9789 33.5 63.78V50.9985H29.7185Z" fill="black" fill-opacity="0.6"/>
</svg>
