<svg width="56" height="56" viewBox="0 0 56 56" fill="none" xmlns="http://www.w3.org/2000/svg">
<path d="M27.7257 55.4C20.1257 55.4 13.6757 52.725 8.3757 47.375C3.0757 42.025 0.450701 35.525 0.500701 27.875H5.6007C5.6007 34.075 7.7382 39.3625 12.0132 43.7375C16.2882 48.1125 21.5257 50.3 27.7257 50.3C34.0257 50.3 39.3632 48.0875 43.7382 43.6625C48.1132 39.2375 50.3007 33.875 50.3007 27.575C50.3007 21.425 48.0882 16.225 43.6632 11.975C39.2382 7.725 33.9257 5.6 27.7257 5.6C24.4257 5.6 21.3257 6.3375 18.4257 7.8125C15.5257 9.2875 12.9757 11.25 10.7757 13.7H18.2757V18.425H2.2257V2.45H6.9507V10.25C9.6007 7.2 12.7132 4.8125 16.2882 3.0875C19.8632 1.3625 23.6757 0.5 27.7257 0.5C31.5257 0.5 35.1007 1.2125 38.4507 2.6375C41.8007 4.0625 44.7382 6.0125 47.2632 8.4875C49.7882 10.9625 51.7757 13.85 53.2257 17.15C54.6757 20.45 55.4007 24 55.4007 27.8C55.4007 31.6 54.6757 35.175 53.2257 38.525C51.7757 41.875 49.7882 44.8 47.2632 47.3C44.7382 49.8 41.8007 51.775 38.4507 53.225C35.1007 54.675 31.5257 55.4 27.7257 55.4ZM37.2507 40.25L25.7007 28.85V12.725H30.3507V26.9L40.6257 36.875L37.2507 40.25Z" fill="black" fill-opacity="0.7"/>
</svg>
