<svg width="54" height="61" viewBox="0 0 54 61" fill="none" xmlns="http://www.w3.org/2000/svg">
<path d="M38.5275 30.7394C45.609 30.7394 51.3563 23.9658 51.3563 15.6197C51.3563 7.27362 45.609 0.5 38.5275 0.5C31.446 0.5 25.6987 7.27362 25.6987 15.6197C25.6987 23.9658 31.446 30.7394 38.5275 30.7394ZM52.5109 47.6734C51.5103 46.4638 50.2531 45.8591 48.7906 45.8591H30.8302L25.4934 43.6516L26.3401 40.8091L30.8302 42.8351H38.0144C38.9124 42.8351 39.6308 42.4118 40.2209 41.7163C40.8111 41.0208 41.0933 40.1741 41.0933 39.2366C41.0933 37.6037 40.4262 36.4848 39.092 35.8498L20.4389 27.7154H15.4356V54.9309L33.396 60.9787L53.9991 51.9069C54.0247 50.3042 53.5116 48.883 52.5109 47.6734ZM10.3041 27.7154H0V60.9787H10.3041V27.7154Z" fill="#121212" fill-opacity="0.6"/>
</svg>
