<svg width="24" height="24" viewBox="0 0 24 24" fill="none" xmlns="http://www.w3.org/2000/svg">
<path d="M5.58 13.5C6 13.5 6.355 13.355 6.645 13.065C6.935 12.775 7.08 12.42 7.08 12C7.08 11.58 6.935 11.225 6.645 10.935C6.355 10.645 6 10.5 5.58 10.5C5.16 10.5 4.805 10.645 4.515 10.935C4.225 11.225 4.08 11.58 4.08 12C4.08 12.42 4.225 12.775 4.515 13.065C4.805 13.355 5.16 13.5 5.58 13.5ZM12 13.5C12.42 13.5 12.775 13.355 13.065 13.065C13.355 12.775 13.5 12.42 13.5 12C13.5 11.58 13.355 11.225 13.065 10.935C12.775 10.645 12.42 10.5 12 10.5C11.58 10.5 11.225 10.645 10.935 10.935C10.645 11.225 10.5 11.58 10.5 12C10.5 12.42 10.645 12.775 10.935 13.065C11.225 13.355 11.58 13.5 12 13.5ZM18.39 13.5C18.81 13.5 19.165 13.355 19.455 13.065C19.745 12.775 19.89 12.42 19.89 12C19.89 11.58 19.745 11.225 19.455 10.935C19.165 10.645 18.81 10.5 18.39 10.5C17.97 10.5 17.615 10.645 17.325 10.935C17.035 11.225 16.89 11.58 16.89 12C16.89 12.42 17.035 12.775 17.325 13.065C17.615 13.355 17.97 13.5 18.39 13.5ZM12 24C10.36 24 8.81 23.685 7.35 23.055C5.89 22.425 4.615 21.565 3.525 20.475C2.435 19.385 1.575 18.11 0.945 16.65C0.315 15.19 0 13.63 0 11.97C0 10.33 0.315 8.78 0.945 7.32C1.575 5.86 2.435 4.59 3.525 3.51C4.615 2.43 5.89 1.575 7.35 0.945C8.81 0.315 10.37 0 12.03 0C13.67 0 15.22 0.315 16.68 0.945C18.14 1.575 19.41 2.43 20.49 3.51C21.57 4.59 22.425 5.86 23.055 7.32C23.685 8.78 24 10.34 24 12C24 13.64 23.685 15.19 23.055 16.65C22.425 18.11 21.57 19.385 20.49 20.475C19.41 21.565 18.14 22.425 16.68 23.055C15.22 23.685 13.66 24 12 24Z" fill="white"/>
</svg>
