<svg width="24" height="18" viewBox="0 0 24 18" fill="none" xmlns="http://www.w3.org/2000/svg">
<path d="M0.333984 17.1668V9.72933C0.333984 9.24322 0.431207 8.78627 0.625651 8.3585C0.820095 7.93072 1.11176 7.58072 1.50065 7.3085V3.92516C1.50065 3.05016 1.79718 2.31614 2.39023 1.72308C2.98329 1.13002 3.71732 0.833496 4.59232 0.833496H9.84232C10.2701 0.833496 10.6687 0.930718 11.0382 1.12516C11.4076 1.31961 11.7284 1.58211 12.0007 1.91266C12.2729 1.58211 12.5888 1.31961 12.9486 1.12516C13.3083 0.930718 13.702 0.833496 14.1298 0.833496H19.3798C20.2548 0.833496 20.9937 1.13002 21.5965 1.72308C22.1993 2.31614 22.5007 3.05016 22.5007 3.92516V7.3085C22.8895 7.58072 23.1812 7.93072 23.3757 8.3585C23.5701 8.78627 23.6673 9.24322 23.6673 9.72933V17.1668H21.9173V14.8335H2.08398V17.1668H0.333984ZM12.8757 6.81266H20.7507V3.92516C20.7507 3.53627 20.6194 3.21544 20.3569 2.96266C20.0944 2.70989 19.7687 2.5835 19.3798 2.5835H14.0423C13.7118 2.5835 13.4347 2.71961 13.2111 2.99183C12.9875 3.26405 12.8757 3.57516 12.8757 3.92516V6.81266ZM3.25065 6.81266H11.1257V3.92516C11.1257 3.57516 11.0138 3.26405 10.7902 2.99183C10.5666 2.71961 10.2895 2.5835 9.95898 2.5835H4.59232C4.22287 2.5835 3.9069 2.71475 3.6444 2.97725C3.3819 3.23975 3.25065 3.55572 3.25065 3.92516V6.81266ZM2.08398 13.0835H21.9173V9.72933C21.9173 9.39877 21.8055 9.12169 21.5819 8.89808C21.3583 8.67447 21.0812 8.56266 20.7507 8.56266H3.25065C2.9201 8.56266 2.64301 8.67447 2.4194 8.89808C2.19579 9.12169 2.08398 9.39877 2.08398 9.72933V13.0835Z" fill="black"/>
</svg>
