<svg width="30" height="33" viewBox="0 0 30 33" fill="none" xmlns="http://www.w3.org/2000/svg">
<path d="M11.6667 24.7917C11.6667 26.3667 12.0313 27.8396 12.6583 29.1667H2.91667C1.29792 29.1667 0 27.8687 0 26.25V2.91667C0 1.3125 1.29792 0 2.91667 0H4.375V10.2083L8.02083 8.02083L11.6667 10.2083V0H20.4167C22.0208 0 23.3333 1.29792 23.3333 2.91667V14.7C22.8521 14.6271 22.3708 14.5833 21.875 14.5833C16.2313 14.5833 11.6667 19.1479 11.6667 24.7917ZM28.875 26.8333C29.0208 26.8333 29.0208 26.9792 28.875 27.125L27.4167 29.6042C27.2708 29.75 27.125 29.75 26.9792 29.75L25.2292 29.1667C24.7917 29.4583 24.5 29.6042 24.0625 29.8958L23.7708 31.7917C23.7708 31.9375 23.625 32.0833 23.4792 32.0833H20.5625C20.4167 32.0833 20.2708 31.9375 20.125 31.7917L19.8333 29.8958C19.3958 29.75 18.9583 29.4583 18.6667 29.1667L16.9167 29.8958C16.7708 29.8958 16.625 29.8958 16.4792 29.75L15.0208 27.2708C14.875 27.125 15.0208 26.9792 15.1667 26.8333L16.7708 25.6667V24.2083L15.1667 23.0417C15.0208 22.8958 15.0208 22.75 15.0208 22.6042L16.4792 20.125C16.625 19.9792 16.7708 19.9792 16.9167 19.9792L18.6667 20.7083C19.1042 20.4167 19.3958 20.2708 19.8333 19.9792L20.125 18.0833C20.125 17.9375 20.2708 17.7917 20.5625 17.7917H23.4792C23.625 17.7917 23.7708 17.9375 23.7708 18.0833L24.0625 19.9792C24.5 20.125 24.9375 20.4167 25.375 20.7083L27.125 19.9792C27.2708 19.9792 27.5625 19.9792 27.5625 20.125L29.0208 22.6042C29.1667 22.75 29.0208 22.8958 28.875 23.0417L27.2708 24.2083V25.6667L28.875 26.8333ZM24.0625 24.7917C24.0625 23.625 23.0417 22.6042 21.875 22.6042C20.7083 22.6042 19.6875 23.625 19.6875 24.7917C19.6875 25.9583 20.7083 26.9792 21.875 26.9792C23.0417 26.9792 24.0625 25.9583 24.0625 24.7917Z" fill="#121212" fill-opacity="0.6"/>
</svg>
