<svg width="50" height="40" viewBox="0 0 50 40" fill="none" xmlns="http://www.w3.org/2000/svg">
<path d="M40.625 21.875V18.125H50V21.875H40.625ZM43.75 40L36.1875 34.375L38.4375 31.375L46 37L43.75 40ZM38.625 8.5625L36.375 5.5625L43.75 0L46 3L38.625 8.5625ZM8.125 37.5V27.5H3.75C2.70833 27.5 1.82292 27.1354 1.09375 26.4062C0.364583 25.6771 0 24.7917 0 23.75V16.25C0 15.2083 0.364583 14.3229 1.09375 13.5938C1.82292 12.8646 2.70833 12.5 3.75 12.5H15L27.5 5V35L15 27.5H11.875V37.5H8.125ZM30 28.375V11.625C31.125 12.625 32.0312 13.8438 32.7188 15.2812C33.4062 16.7188 33.75 18.2917 33.75 20C33.75 21.7083 33.4062 23.2812 32.7188 24.7188C32.0312 26.1562 31.125 27.375 30 28.375ZM3.75 16.25V23.75H16L23.75 28.375V11.625L16 16.25H3.75Z" fill="black" fill-opacity="0.6"/>
</svg>
