<svg width="40" height="36" viewBox="0 0 40 36" fill="none" xmlns="http://www.w3.org/2000/svg">
<path d="M16.5159 24.3597L18.8374 22.0381C14.3742 18.0654 11.4478 15.3842 11.4478 12.8338C11.4478 11.1172 12.7557 9.80926 14.4723 9.80926C16.287 9.80926 16.99 10.8719 18.8538 13.079H20.3742C22.2053 10.9373 22.8756 9.80926 24.7557 9.80926C26.178 9.80926 27.2897 10.6921 27.6494 11.9673C28.2216 11.9019 28.7611 11.8692 29.2843 11.8692C29.8728 11.8692 30.4287 11.9183 30.9682 12C30.5758 8.87738 28.0091 6.53951 24.772 6.53951C24.5758 6.53951 24.396 6.58855 24.1998 6.6049C24.396 6.06539 24.5268 5.50954 24.5268 4.90463C24.5268 2.19074 22.3361 0 19.6222 0C16.9083 0 14.7175 2.19074 14.7175 4.90463C14.7175 5.50954 14.8483 6.06539 15.0445 6.6049C14.8483 6.58855 14.6685 6.53951 14.4723 6.53951C10.941 6.53951 8.17802 9.30245 8.17802 12.8338C8.17802 16.7902 11.5132 19.8801 16.5159 24.3597Z" fill="black" fill-opacity="0.6"/>
<path d="M36.7881 24.9154C36.2649 24.6211 35.7091 24.4413 35.1532 24.3432C35.2676 24.1797 35.3984 24.0489 35.4965 23.8854C37.2622 20.8282 36.2486 17.0516 33.1914 15.286C29.7745 13.3078 25.4093 14.6484 19.0497 16.7574L19.8998 19.929C25.5728 18.0653 29.3657 16.8555 31.5728 18.1307C33.0606 18.9971 33.5347 20.7628 32.6845 22.2669C31.769 23.8364 30.5102 23.9018 27.6655 24.4249L26.8971 25.7492C27.8453 28.3977 28.4829 29.5584 27.5347 31.177C26.6682 32.6647 24.9025 33.1388 23.3984 32.2887C23.3003 32.2396 23.2186 32.1416 23.1205 32.0762C22.63 33.1715 22.0742 34.1034 21.4366 34.9045C21.551 34.9699 21.6491 35.0516 21.7636 35.1334C24.8208 36.899 28.5973 35.8854 30.363 32.8282C30.4611 32.6647 30.5102 32.4849 30.5919 32.305C30.9516 32.7465 31.3766 33.1388 31.8998 33.4331C34.2377 34.7901 37.2459 33.989 38.6028 31.6347C39.9597 29.2805 39.126 26.256 36.7881 24.9154Z" fill="black" fill-opacity="0.6"/>
<path d="M20.1443 21.2698C18.9345 27.1227 18.068 30.9973 15.8609 32.2726C14.3731 33.139 12.5911 32.6649 11.7246 31.1608C10.8091 29.5914 11.3977 28.4469 12.3622 25.733L11.6102 24.4088C8.83091 23.902 7.52301 23.8693 6.59113 22.2508C5.72465 20.763 6.19876 18.981 7.70285 18.1145C7.84999 18.0328 8.01347 17.9837 8.17696 17.9347C7.60475 17.0191 7.13064 16.0219 6.83636 14.9102C6.57478 15.0246 6.3132 15.139 6.05162 15.2862C2.9944 17.0518 1.98078 20.8284 3.74644 23.8856C3.84454 24.0491 3.97533 24.1799 4.08977 24.3434C3.53391 24.4415 2.97805 24.6213 2.45489 24.9156C0.117016 26.2726 -0.700422 29.2644 0.656526 31.6186C2.01347 33.9728 5.0053 34.7739 7.35952 33.417C7.88268 33.1227 8.30775 32.7303 8.66742 32.2889C8.74917 32.4687 8.79821 32.6486 8.89631 32.8121C10.662 35.8693 14.4385 36.8829 17.4958 35.1172C20.9127 33.139 21.9263 28.6922 23.2996 22.1363L20.1443 21.2698Z" fill="black" fill-opacity="0.6"/>
</svg>
