<svg width="36" height="36" viewBox="0 0 36 36" fill="none" xmlns="http://www.w3.org/2000/svg">
<path d="M1.5 35.32C1.06667 35.32 0.708333 35.1783 0.425 34.895C0.141667 34.6117 0 34.2533 0 33.82V10.27C0 9.97 0.0833333 9.68667 0.25 9.42C0.416667 9.15333 0.65 8.97 0.95 8.87L23.7 0.12C24.2 -0.0799999 24.6667 -0.0300002 25.1 0.27C25.5333 0.57 25.75 0.986666 25.75 1.52V17.32H30C30 16.4867 30.2917 15.7783 30.875 15.195C31.4583 14.6117 32.1667 14.32 33 14.32C33.8333 14.32 34.5417 14.6117 35.125 15.195C35.7083 15.7783 36 16.4867 36 17.32V33.82C36 34.2533 35.8583 34.6117 35.575 34.895C35.2917 35.1783 34.9333 35.32 34.5 35.32H1.5ZM3 32.32H12.5V18.82C12.5 18.3867 12.6417 18.0283 12.925 17.745C13.2083 17.4617 13.5667 17.32 14 17.32H22.75V3.67L3 11.27V32.32ZM15.5 32.32H22.75V28.32C22.75 27.8867 22.8917 27.5283 23.175 27.245C23.4583 26.9617 23.8167 26.82 24.25 26.82C24.6833 26.82 25.0417 26.9617 25.325 27.245C25.6083 27.5283 25.75 27.8867 25.75 28.32V32.32H33V20.32H15.5V32.32Z" fill="black" fill-opacity="0.6"/>
</svg>
