<svg width="264" height="149" viewBox="0 0 264 149" fill="none" xmlns="http://www.w3.org/2000/svg">
<g clip-path="url(#clip0_2830_1067)">
<path d="M290.4 -14.85H-26.4004V163.35H290.4V-14.85Z" fill="white"/>
<path d="M290.4 -14.85H-26.4004V163.35H290.4V-14.85Z" fill="white"/>
<path d="M290.4 -14.85H-26.4004V163.35H290.4V-14.85Z" fill="#ECEBEC"/>
<path d="M7.88834 -12.1437C-26.9235 -4.13503 -63.2343 28.4195 -59.2066 71.7585C-55.179 115.098 -8.33093 136.802 15.8232 163.276C39.9774 189.749 74.0681 217.01 111.787 184.139C149.541 151.295 140.604 128.391 115.058 63.5143C89.5118 -1.36283 74.6947 -27.5272 7.88834 -12.1437Z" fill="#C6CAC6"/>
<path d="M175.629 -12.0907C168.812 -0.197643 171.721 14.9775 175.516 28.262C179.31 41.5479 183.799 55.7899 179.553 68.924C178.269 72.8958 176.199 76.6749 175.899 80.8543C175.327 88.8343 181.588 95.9213 188.744 98.768C195.899 101.615 203.798 101.234 211.451 101.077C219.105 100.919 227.118 101.118 233.851 104.925C247.517 112.651 250.933 131.898 262.58 142.648C271.425 150.815 284.163 153.061 295.861 151.428C307.561 149.796 318.528 144.731 329.314 139.723C345.289 132.303 361.386 124.813 375.62 114.207C388.856 104.347 400.527 91.517 406.651 75.779C412.777 60.0403 412.715 41.1548 404.063 26.7746C396.962 14.9775 384.208 5.49643 383.826 -8.43475C383.602 -16.621 387.956 -24.6447 386.529 -32.6985C383.267 -51.092 358.182 -53.8563 344.174 -51.8267C327.414 -49.3983 313.413 -39.5284 301.713 -27.2565C294.144 -19.3187 286.986 -9.38508 275.632 -7.78592C258.714 -5.40259 241.466 -18.3047 226.007 -23.554C209.349 -29.213 185.987 -30.1655 175.629 -12.0907Z" fill="#C6CAC6"/>
<path d="M-45.8457 75.8807L4.71204 53.8793L36.8627 127.761L-13.6951 149.763L-45.8457 75.8807Z" fill="#ECEBEC"/>
</g>
<defs>
<clipPath id="clip0_2830_1067">
<path d="M0 6C0 2.68629 2.68629 0 6 0H258C261.314 0 264 2.68629 264 6V148.5H0V6Z" fill="white"/>
</clipPath>
</defs>
</svg>
