<svg width="90" height="90" viewBox="0 0 90 90" fill="none" xmlns="http://www.w3.org/2000/svg">
<path d="M45 0C20.1469 0 0 20.1469 0 45C0 69.8531 20.1469 90 45 90C69.8531 90 90 69.8531 90 45C90 20.1469 69.8531 0 45 0Z" fill="#ECEBEC"/>
<path d="M69.8492 61.85C69.8492 62.6797 69.1742 63.3523 68.3398 63.3523H21.5094C20.6773 63.3523 20 62.6797 20 61.85V27.5023C20 26.6727 20.6773 26 21.5094 26H68.3398C69.1742 26 69.8492 26.6727 69.8492 27.5023V61.85Z" fill="#C39F71"/>
<path d="M21.4863 61.416H68.366V27.9355H21.4863V61.416Z" fill="#6F593E"/>
<path d="M22.2666 60.859H67.583V28.4941H22.2666V60.859Z" fill="#19522E"/>
<path d="M22.9717 60.3551H66.8795V28.998H22.9717V60.3551Z" fill="#20683C"/>
<path d="M52.7734 62.6051H64.082V60.2402H52.7734V62.6051Z" fill="#473826"/>
<path d="M57.9434 60.2402H64.016V57.873H57.9434V60.2402Z" fill="#FFFBA8"/>
<path d="M57.5479 60.24H64.4127V59.2861H57.5479V60.24Z" fill="#291E14"/>
<path d="M55.3748 60.2139L57.9271 57.6709C58.1123 57.4857 58.1123 57.1857 57.9271 57.0029C57.742 56.8154 57.4396 56.8154 57.2545 57.0029L54.7021 59.5436L55.3748 60.2139Z" fill="white"/>
<path d="M56.9396 60.1627H53.3303C53.0678 60.1627 52.8545 59.9494 52.8545 59.6893C52.8545 59.4268 53.0678 59.2158 53.3303 59.2158H56.9396V60.1627Z" fill="#F57B8C"/>
<path d="M39.9781 63.3523H21.5094C20.6773 63.3523 20 62.6797 20 61.85V56.3047C20.4852 56.5555 20.9797 56.7969 21.4859 57.0266V61.4164H50.1875C47.0258 62.4289 43.5898 63.0969 39.9781 63.3523ZM68.3656 45.7508V35.8016C68.8766 37.4023 69.1461 39.0664 69.1461 40.775C69.1461 42.4836 68.8766 44.15 68.3656 45.7508ZM63.4508 27.9359H59.7945C59.0516 27.2539 58.25 26.607 57.3922 26H68.3398C69.1742 26 69.8492 26.6727 69.8492 27.5023C69.8492 26.6727 69.1742 26 68.3398 26H61.318C62.0773 26.6164 62.7898 27.2633 63.4508 27.9359Z" fill="#AA8A62"/>
<path d="M50.1879 61.416H21.4863V57.0262C21.7441 57.1434 22.0043 57.2582 22.2668 57.3684V60.8582H51.8098C51.2777 61.0527 50.7387 61.2379 50.1879 61.416ZM67.5832 47.752V33.7996C67.8855 34.4535 68.148 35.1215 68.366 35.8012V45.7504C68.148 46.4277 67.8855 47.098 67.5832 47.752ZM63.9832 28.4934H60.3809C60.191 28.3059 59.9941 28.1184 59.7949 27.9355H63.4512C63.6316 28.1207 63.8098 28.3059 63.9832 28.4934Z" fill="#624E37"/>
<path d="M51.8096 60.859H22.2666V57.3691C22.501 57.4676 22.733 57.5637 22.9721 57.6574V60.3551H52.7729V60.4887C52.4564 60.6152 52.133 60.7371 51.8096 60.859ZM66.8799 49.1238V32.4293C67.1354 32.8793 67.3697 33.3363 67.583 33.8004V47.7527C67.3697 48.2168 67.1354 48.6738 66.8799 49.1238ZM64.4354 28.998H60.8729C60.7135 28.827 60.5494 28.6605 60.3807 28.4941H63.983C64.1377 28.6605 64.2877 28.827 64.4354 28.998Z" fill="#164827"/>
<path d="M52.7725 60.3551H22.9717V57.6574C27.1225 59.3004 31.9154 60.2402 37.0201 60.2402C52.8404 60.2402 65.6654 51.2379 65.6654 40.1332C65.6654 36.0129 63.9006 32.1855 60.8725 28.998H64.435C65.3818 30.0832 66.1998 31.2316 66.8795 32.4293V49.1238C64.9576 52.5176 61.8943 55.5105 58.0271 57.873H57.9428V57.9246C57.7248 58.0559 57.5045 58.1871 57.2818 58.3137L57.9264 57.6715C58.1115 57.4863 58.1115 57.1863 57.9264 57.0035C57.8326 56.9098 57.7131 56.8629 57.5889 56.8629C57.4693 56.8629 57.3475 56.9098 57.2537 57.0035L55.0318 59.216H53.3303C53.0678 59.216 52.8545 59.427 52.8545 59.6895C52.8545 59.9496 53.0678 60.1629 53.3303 60.1629H53.56C53.5014 60.1887 53.4381 60.2145 53.3795 60.2402H52.7725V60.3551Z" fill="#1C5B33"/>
<path d="M52.7734 60.4887V60.2402H53.3805C53.1789 60.3246 52.9773 60.4066 52.7734 60.4887Z" fill="#403222"/>
<path d="M57.9434 57.9246V57.873H58.0277C57.9973 57.8895 57.9715 57.9059 57.9434 57.9246Z" fill="#DEDA92"/>
<path d="M55.6041 59.2154H55.0322L57.2541 57.0029C57.3479 56.9092 57.4697 56.8623 57.5893 56.8623C57.7135 56.8623 57.833 56.9092 57.9268 57.0029C58.1119 57.1857 58.1119 57.4857 57.9268 57.6709L57.2822 58.3131C56.7361 58.6271 56.1783 58.9271 55.6041 59.2154Z" fill="#DEDEDE"/>
<path d="M53.56 60.1627H53.3303C53.0678 60.1627 52.8545 59.9494 52.8545 59.6893C52.8545 59.4268 53.0678 59.2158 53.3303 59.2158H55.6037C54.9404 59.5486 54.2584 59.865 53.56 60.1627Z" fill="#D66B79"/>
<path d="M68.3402 63.3523H39.9785C43.5902 63.0969 47.0262 62.4289 50.1879 61.4164H52.773V62.6047H64.0816V61.4164H68.366V45.7508C68.877 44.15 69.1465 42.4836 69.1465 40.775C69.1465 39.0664 68.877 37.4023 68.366 35.8016V27.9359H63.4512C62.7902 27.2633 62.0777 26.6164 61.3184 26H68.3402C69.1746 26 69.8496 26.6727 69.8496 27.5023V61.85C69.8496 62.6797 69.1746 63.3523 68.3402 63.3523Z" fill="#947855"/>
<path d="M68.3656 61.416H64.0813V60.8582H67.5828V47.752C67.8852 47.098 68.1477 46.4277 68.3656 45.7504V61.416ZM52.7727 61.416H50.1875C50.7383 61.2379 51.2773 61.0527 51.8094 60.8582H52.7727V61.416ZM68.3656 35.8012C68.1477 35.1215 67.8852 34.4535 67.5828 33.7996V28.4934H63.9828C63.8094 28.3059 63.6313 28.1207 63.4508 27.9355H68.3656V35.8012Z" fill="#584530"/>
<path d="M67.583 60.859H64.0814V60.3551H66.8799V49.1238C67.1354 48.6738 67.3697 48.2168 67.583 47.7527V60.859ZM52.7729 60.859H51.8096C52.133 60.7371 52.4564 60.6152 52.7729 60.4887V60.859ZM67.583 33.8004C67.3697 33.3363 67.1354 32.8793 66.8799 32.4293V28.998H64.4354C64.2877 28.827 64.1377 28.6605 63.983 28.4941H67.583V33.8004Z" fill="#133F22"/>
<path d="M66.8799 60.3551H64.0814V60.2402H64.4119V59.2863H64.0158V57.873H58.0275C61.8947 55.5105 64.958 52.5176 66.8799 49.1238V60.3551ZM57.5471 60.2402H53.3799C53.4385 60.2145 53.5018 60.1887 53.5604 60.1629H55.3229L55.3744 60.2145L55.426 60.1629H56.94V59.216H56.3752L57.2822 58.3137C57.5049 58.1871 57.7252 58.0559 57.9432 57.9246V59.2863H57.5471V60.2402ZM66.8799 32.4293C66.2002 31.2316 65.3822 30.0832 64.4354 28.998H66.8799V32.4293Z" fill="#184F2C"/>
<path d="M64.082 62.6051H52.7734V60.4887C52.9773 60.4066 53.1789 60.3246 53.3805 60.2402H64.082V62.6051Z" fill="#3B2D1F"/>
<path d="M64.016 59.2863H57.9434V57.9246C57.9715 57.9059 57.9973 57.8895 58.0277 57.873H64.016V59.2863Z" fill="#C2BE80"/>
<path d="M64.4127 60.24H57.5479V59.2861H64.4127V60.24Z" fill="#241A11"/>
<path d="M55.3748 60.2143L55.3232 60.1627H55.4264L55.3748 60.2143ZM56.3756 59.2158H55.6045C56.1787 58.9275 56.7365 58.6275 57.2826 58.3135L56.3756 59.2158Z" fill="#C3C2C2"/>
<path d="M56.9402 60.1627H53.5605C54.259 59.865 54.941 59.5486 55.6043 59.2158H56.9402V60.1627Z" fill="#BB5D68"/>
</svg>
