<svg width="21" height="21" viewBox="0 0 21 21" fill="none" xmlns="http://www.w3.org/2000/svg">
<path d="M19 15.6455C19.5304 15.6455 20.0391 15.4392 20.4142 15.0719C20.7893 14.7047 21 14.2066 21 13.6872V2.91634C21 2.39696 20.7893 1.89885 20.4142 1.53159C20.0391 1.16433 19.5304 0.958008 19 0.958008H8.46C8.81 1.5553 9 2.23092 9 2.91634H19V13.6872H10V15.6455H19ZM14 5.85384V7.81217H8V20.5413H6V14.6663H4V20.5413H2V12.708H0.5V7.81217C0.5 7.29279 0.710714 6.79468 1.08579 6.42742C1.46086 6.06016 1.96957 5.85384 2.5 5.85384H14ZM7 2.91634C7 3.43572 6.78929 3.93383 6.41421 4.30109C6.03914 4.66835 5.53043 4.87467 5 4.87467C4.46957 4.87467 3.96086 4.66835 3.58579 4.30109C3.21071 3.93383 3 3.43572 3 2.91634C3 2.39696 3.21071 1.89885 3.58579 1.53159C3.96086 1.16433 4.46957 0.958008 5 0.958008C5.53043 0.958008 6.03914 1.16433 6.41421 1.53159C6.78929 1.89885 7 2.39696 7 2.91634Z" fill="white"/>
</svg>
