<svg width="18" height="20" viewBox="0 0 18 20" fill="none" xmlns="http://www.w3.org/2000/svg">
<path d="M11.7494 8.19L12.3794 8.32L16.5494 10.4C17.2494 10.63 17.7094 11.32 17.6494 12.06V12.19V12.32L16.7494 18.44C16.6894 18.87 16.4994 19.27 16.1494 19.55C15.8394 19.85 15.4294 20 14.9994 20H8.11938C7.62938 20 7.17938 19.82 6.84938 19.47L0.859375 13.5L1.75938 12.5C1.99938 12.25 2.37937 12.11 2.73937 12.13H3.02938L6.99938 13V2.5C6.99938 1.96957 7.21009 1.46086 7.58516 1.08579C7.96024 0.710714 8.46894 0.5 8.99938 0.5C9.52981 0.5 10.0385 0.710714 10.4136 1.08579C10.7887 1.46086 10.9994 1.96957 10.9994 2.5V8.19H11.7494Z" fill="#121212" fill-opacity="0.8"/>
</svg>
