<svg width="943" height="757" viewBox="0 0 943 757" fill="none" xmlns="http://www.w3.org/2000/svg">
<g clip-path="url(#clip0_594_54)">
<path fill-rule="evenodd" clip-rule="evenodd" d="M57.9399 126.161L55.2539 306.887V685.377C55.2539 689.828 57.019 693.742 59.9351 696.734C62.9281 699.727 66.8419 701.416 71.2929 701.416H732.191C736.642 701.416 740.556 699.651 743.549 696.734C746.542 693.742 748.23 689.828 748.23 685.377L801.105 685.453V698.116C801.105 730.04 775.013 756.056 743.165 756.056H57.9399C26.0921 756.132 0 730.04 0 698.116V184.101C0 152.253 26.0921 126.161 57.9399 126.161ZM199.835 -0.00195312H885.06C916.985 -0.00195312 943 26.0902 943 57.9379V571.953C943 603.8 916.908 629.893 885.06 629.893H199.835C167.987 629.893 141.895 603.8 141.895 571.953V57.9379C141.818 26.0902 167.91 -0.00195312 199.835 -0.00195312ZM890.355 180.724H197.072V559.214C197.072 563.665 198.837 567.578 201.754 570.571C204.746 573.564 208.66 575.253 213.111 575.253H874.009C878.46 575.253 882.374 573.488 885.367 570.571C888.36 567.578 890.048 563.665 890.048 559.214V180.724H890.355ZM829.883 65.1516C845.692 65.1516 858.508 77.9675 858.508 93.7762C858.508 109.585 845.692 122.401 829.883 122.401C814.074 122.401 801.258 109.585 801.258 93.7762C801.182 77.9675 813.997 65.1516 829.883 65.1516ZM635.804 65.1516C651.612 65.1516 664.428 77.9675 664.428 93.7762C664.428 109.585 651.612 122.401 635.804 122.401C619.995 122.401 607.179 109.585 607.179 93.7762C607.102 77.9675 619.918 65.1516 635.804 65.1516ZM732.805 65.1516C748.614 65.1516 761.43 77.9675 761.43 93.7762C761.43 109.585 748.614 122.401 732.805 122.401C716.996 122.401 704.18 109.585 704.18 93.7762C704.18 77.9675 716.996 65.1516 732.805 65.1516Z" fill="#737373"/>
</g>
<defs>
<clipPath id="clip0_594_54">
<rect width="943" height="756.134" fill="white"/>
</clipPath>
</defs>
</svg>
