<svg width="221" height="42" viewBox="0 0 221 42" fill="none" xmlns="http://www.w3.org/2000/svg">
<path d="M57.9787 17H56.348L60.0121 6.81818H61.7869L65.451 17H63.8203L60.9418 8.66761H60.8622L57.9787 17ZM58.2521 13.0128H63.5419V14.3054H58.2521V13.0128ZM72.4696 11.228L71.1223 11.4666C71.066 11.2943 70.9765 11.1302 70.8539 10.9744C70.7346 10.8187 70.5721 10.6911 70.3667 10.5916C70.1612 10.4922 69.9043 10.4425 69.5961 10.4425C69.1751 10.4425 68.8238 10.5369 68.5421 10.7259C68.2604 10.9115 68.1195 11.1518 68.1195 11.4467C68.1195 11.7019 68.214 11.9074 68.4029 12.0632C68.5918 12.219 68.8967 12.3466 69.3176 12.446L70.5307 12.7244C71.2334 12.8868 71.757 13.1371 72.1017 13.4751C72.4464 13.8132 72.6188 14.2524 72.6188 14.7926C72.6188 15.25 72.4862 15.6577 72.2211 16.0156C71.9592 16.3703 71.593 16.6487 71.1223 16.8509C70.655 17.053 70.1131 17.1541 69.4966 17.1541C68.6415 17.1541 67.9438 16.9718 67.4036 16.6072C66.8633 16.2393 66.5319 15.7173 66.4093 15.0412L67.8461 14.8224C67.9355 15.197 68.1195 15.4804 68.3979 15.6726C68.6763 15.8615 69.0392 15.956 69.4867 15.956C69.9739 15.956 70.3633 15.8549 70.655 15.6527C70.9467 15.4472 71.0925 15.197 71.0925 14.902C71.0925 14.6634 71.003 14.4628 70.824 14.3004C70.6484 14.138 70.3783 14.0154 70.0137 13.9325L68.7211 13.6491C68.0085 13.4867 67.4815 13.2282 67.1401 12.8736C66.802 12.5189 66.633 12.0698 66.633 11.5263C66.633 11.0755 66.7589 10.6811 67.0108 10.343C67.2627 10.005 67.6107 9.74148 68.0549 9.55256C68.499 9.36032 69.0078 9.2642 69.5811 9.2642C70.4064 9.2642 71.056 9.44318 71.53 9.80114C72.004 10.1558 72.3172 10.6314 72.4696 11.228ZM79.9755 11.228L78.6282 11.4666C78.5719 11.2943 78.4824 11.1302 78.3597 10.9744C78.2404 10.8187 78.078 10.6911 77.8725 10.5916C77.667 10.4922 77.4102 10.4425 77.1019 10.4425C76.681 10.4425 76.3297 10.5369 76.0479 10.7259C75.7662 10.9115 75.6254 11.1518 75.6254 11.4467C75.6254 11.7019 75.7198 11.9074 75.9087 12.0632C76.0977 12.219 76.4026 12.3466 76.8235 12.446L78.0366 12.7244C78.7392 12.8868 79.2629 13.1371 79.6076 13.4751C79.9523 13.8132 80.1246 14.2524 80.1246 14.7926C80.1246 15.25 79.9921 15.6577 79.7269 16.0156C79.4651 16.3703 79.0988 16.6487 78.6282 16.8509C78.1609 17.053 77.619 17.1541 77.0025 17.1541C76.1474 17.1541 75.4497 16.9718 74.9094 16.6072C74.3692 16.2393 74.0378 15.7173 73.9151 15.0412L75.3519 14.8224C75.4414 15.197 75.6254 15.4804 75.9038 15.6726C76.1822 15.8615 76.5451 15.956 76.9925 15.956C77.4798 15.956 77.8692 15.8549 78.1609 15.6527C78.4525 15.4472 78.5984 15.197 78.5984 14.902C78.5984 14.6634 78.5089 14.4628 78.3299 14.3004C78.1542 14.138 77.8841 14.0154 77.5195 13.9325L76.2269 13.6491C75.5143 13.4867 74.9873 13.2282 74.646 12.8736C74.3079 12.5189 74.1388 12.0698 74.1388 11.5263C74.1388 11.0755 74.2648 10.6811 74.5167 10.343C74.7686 10.005 75.1166 9.74148 75.5607 9.55256C76.0049 9.36032 76.5136 9.2642 77.087 9.2642C77.9123 9.2642 78.5619 9.44318 79.0359 9.80114C79.5098 10.1558 79.823 10.6314 79.9755 11.228ZM81.7591 17V9.36364H83.2456V17H81.7591ZM82.5098 8.18537C82.2512 8.18537 82.0292 8.09919 81.8436 7.92685C81.6613 7.75118 81.5701 7.54238 81.5701 7.30043C81.5701 7.05516 81.6613 6.84635 81.8436 6.67401C82.0292 6.49834 82.2512 6.41051 82.5098 6.41051C82.7683 6.41051 82.9887 6.49834 83.171 6.67401C83.3566 6.84635 83.4494 7.05516 83.4494 7.30043C83.4494 7.54238 83.3566 7.75118 83.171 7.92685C82.9887 8.09919 82.7683 8.18537 82.5098 8.18537ZM88.4471 20.0227C87.8406 20.0227 87.3185 19.9432 86.881 19.7841C86.4469 19.625 86.0922 19.4145 85.8171 19.1527C85.542 18.8909 85.3365 18.6042 85.2006 18.2926L86.4783 17.7656C86.5678 17.9115 86.6871 18.0656 86.8363 18.228C86.9888 18.3937 87.1942 18.5346 87.4528 18.6506C87.7146 18.7666 88.051 18.8246 88.462 18.8246C89.0254 18.8246 89.4911 18.687 89.859 18.4119C90.2269 18.1402 90.4109 17.706 90.4109 17.1094V15.608H90.3164C90.2269 15.7704 90.0977 15.951 89.9286 16.1499C89.7629 16.3487 89.5342 16.5211 89.2425 16.6669C88.9509 16.8127 88.5714 16.8857 88.104 16.8857C87.5008 16.8857 86.9573 16.7448 86.4734 16.4631C85.9928 16.178 85.6116 15.7588 85.3299 15.2053C85.0515 14.6484 84.9123 13.964 84.9123 13.152C84.9123 12.34 85.0498 11.6439 85.3249 11.0639C85.6033 10.4839 85.9845 10.0398 86.4684 9.73153C86.9523 9.41998 87.5008 9.2642 88.114 9.2642C88.5879 9.2642 88.9708 9.34375 89.2624 9.50284C89.5541 9.65862 89.7811 9.84091 89.9435 10.0497C90.1093 10.2585 90.2369 10.4425 90.3263 10.6016H90.4357V9.36364H91.8924V17.169C91.8924 17.8253 91.7399 18.3639 91.435 18.7848C91.1301 19.2057 90.7174 19.5173 90.1971 19.7195C89.68 19.9216 89.0967 20.0227 88.4471 20.0227ZM88.4322 15.6527C88.8597 15.6527 89.221 15.5533 89.516 15.3544C89.8143 15.1522 90.0397 14.8639 90.1921 14.4893C90.3479 14.1115 90.4258 13.6591 90.4258 13.1321C90.4258 12.6184 90.3496 12.166 90.1971 11.7749C90.0446 11.3838 89.8209 11.0788 89.5259 10.8601C89.2309 10.638 88.8664 10.527 88.4322 10.527C87.9847 10.527 87.6119 10.643 87.3136 10.875C87.0153 11.1037 86.7899 11.4152 86.6374 11.8097C86.4883 12.2041 86.4137 12.6449 86.4137 13.1321C86.4137 13.6326 86.4899 14.0717 86.6424 14.4496C86.7949 14.8274 87.0202 15.1224 87.3185 15.3345C87.6201 15.5466 87.9914 15.6527 88.4322 15.6527ZM95.3725 12.4659V17H93.886V9.36364H95.3129V10.6065H95.4073C95.583 10.2022 95.8581 9.87737 96.2326 9.6321C96.6104 9.38684 97.0861 9.2642 97.6594 9.2642C98.1798 9.2642 98.6355 9.37358 99.0266 9.59233C99.4177 9.80777 99.721 10.1293 99.9364 10.5568C100.152 10.9844 100.26 11.513 100.26 12.1428V17H98.7731V12.3217C98.7731 11.7682 98.6289 11.3357 98.3406 11.0241C98.0522 10.7093 97.6561 10.5518 97.1523 10.5518C96.8076 10.5518 96.5011 10.6264 96.2326 10.7756C95.9674 10.9247 95.757 11.1435 95.6012 11.4318C95.4487 11.7169 95.3725 12.0616 95.3725 12.4659ZM106.078 17V6.81818H112.392V8.14062H107.614V11.2429H111.939V12.5604H107.614V17H106.078ZM114.161 17V9.36364H115.648V17H114.161ZM114.912 8.18537C114.654 8.18537 114.432 8.09919 114.246 7.92685C114.064 7.75118 113.972 7.54238 113.972 7.30043C113.972 7.05516 114.064 6.84635 114.246 6.67401C114.432 6.49834 114.654 6.41051 114.912 6.41051C115.171 6.41051 115.391 6.49834 115.573 6.67401C115.759 6.84635 115.852 7.05516 115.852 7.30043C115.852 7.54238 115.759 7.75118 115.573 7.92685C115.391 8.09919 115.171 8.18537 114.912 8.18537ZM119.134 12.4659V17H117.648V9.36364H119.075V10.6065H119.169C119.345 10.2022 119.62 9.87737 119.994 9.6321C120.372 9.38684 120.848 9.2642 121.421 9.2642C121.942 9.2642 122.397 9.37358 122.788 9.59233C123.179 9.80777 123.483 10.1293 123.698 10.5568C123.914 10.9844 124.021 11.513 124.021 12.1428V17H122.535V12.3217C122.535 11.7682 122.391 11.3357 122.102 11.0241C121.814 10.7093 121.418 10.5518 120.914 10.5518C120.569 10.5518 120.263 10.6264 119.994 10.7756C119.729 10.9247 119.519 11.1435 119.363 11.4318C119.21 11.7169 119.134 12.0616 119.134 12.4659ZM128.237 17.169C127.753 17.169 127.316 17.0795 126.925 16.9006C126.534 16.7183 126.224 16.4548 125.995 16.1101C125.77 15.7654 125.657 15.3428 125.657 14.8423C125.657 14.4115 125.74 14.0568 125.906 13.7784C126.071 13.5 126.295 13.2796 126.577 13.1172C126.858 12.9548 127.173 12.8321 127.521 12.7493C127.869 12.6664 128.224 12.6035 128.585 12.5604C129.043 12.5073 129.414 12.4643 129.699 12.4311C129.984 12.3946 130.191 12.3366 130.32 12.2571C130.45 12.1776 130.514 12.0483 130.514 11.8693V11.8345C130.514 11.4003 130.392 11.0639 130.146 10.8253C129.904 10.5866 129.543 10.4673 129.062 10.4673C128.562 10.4673 128.168 10.5784 127.879 10.8004C127.594 11.0192 127.397 11.2628 127.288 11.5312L125.891 11.2131C126.056 10.7491 126.298 10.3745 126.616 10.0895C126.938 9.80114 127.308 9.59233 127.725 9.46307C128.143 9.33049 128.582 9.2642 129.043 9.2642C129.348 9.2642 129.671 9.30066 130.012 9.37358C130.357 9.44318 130.678 9.57244 130.977 9.76136C131.278 9.95028 131.525 10.2204 131.717 10.5717C131.91 10.9197 132.006 11.3722 132.006 11.929V17H130.554V15.956H130.494C130.398 16.1482 130.254 16.3371 130.062 16.5227C129.87 16.7083 129.623 16.8625 129.321 16.9851C129.019 17.1077 128.658 17.169 128.237 17.169ZM128.56 15.9759C128.971 15.9759 129.323 15.8946 129.614 15.7322C129.909 15.5698 130.133 15.3577 130.286 15.0959C130.441 14.8307 130.519 14.5473 130.519 14.2457V13.2614C130.466 13.3144 130.363 13.3641 130.211 13.4105C130.062 13.4536 129.891 13.4917 129.699 13.5249C129.507 13.5547 129.319 13.5829 129.137 13.6094C128.955 13.6326 128.802 13.6525 128.68 13.669C128.391 13.7055 128.128 13.7668 127.889 13.853C127.654 13.9392 127.465 14.0634 127.322 14.2259C127.183 14.3849 127.114 14.5971 127.114 14.8622C127.114 15.2301 127.25 15.5085 127.521 15.6974C127.793 15.883 128.139 15.9759 128.56 15.9759ZM135.472 12.4659V17H133.986V9.36364H135.412V10.6065H135.507C135.683 10.2022 135.958 9.87737 136.332 9.6321C136.71 9.38684 137.186 9.2642 137.759 9.2642C138.279 9.2642 138.735 9.37358 139.126 9.59233C139.517 9.80777 139.821 10.1293 140.036 10.5568C140.251 10.9844 140.359 11.513 140.359 12.1428V17H138.873V12.3217C138.873 11.7682 138.729 11.3357 138.44 11.0241C138.152 10.7093 137.756 10.5518 137.252 10.5518C136.907 10.5518 136.601 10.6264 136.332 10.7756C136.067 10.9247 135.857 11.1435 135.701 11.4318C135.548 11.7169 135.472 12.0616 135.472 12.4659ZM145.569 17.1541C144.83 17.1541 144.194 16.9867 143.66 16.652C143.13 16.3139 142.722 15.8482 142.437 15.255C142.152 14.6617 142.01 13.9822 142.01 13.2166C142.01 12.4411 142.156 11.7566 142.447 11.1634C142.739 10.5668 143.15 10.1011 143.68 9.76633C144.211 9.43158 144.835 9.2642 145.555 9.2642C146.135 9.2642 146.652 9.37192 147.106 9.58736C147.56 9.79948 147.926 10.0978 148.204 10.4822C148.486 10.8667 148.653 11.3158 148.706 11.8295H147.26C147.18 11.4716 146.998 11.1634 146.713 10.9048C146.431 10.6463 146.053 10.517 145.579 10.517C145.165 10.517 144.802 10.6264 144.491 10.8452C144.182 11.0606 143.942 11.3688 143.77 11.7699C143.597 12.1676 143.511 12.6383 143.511 13.1818C143.511 13.7386 143.596 14.2192 143.765 14.6236C143.934 15.0279 144.172 15.3411 144.481 15.5632C144.792 15.7853 145.158 15.8963 145.579 15.8963C145.861 15.8963 146.116 15.8449 146.345 15.7422C146.577 15.6361 146.771 15.4853 146.927 15.2898C147.086 15.0942 147.197 14.8589 147.26 14.5838H148.706C148.653 15.0777 148.493 15.5185 148.224 15.9062C147.956 16.294 147.596 16.599 147.145 16.821C146.698 17.0431 146.173 17.1541 145.569 17.1541ZM153.587 17.1541C152.835 17.1541 152.187 16.9934 151.643 16.6719C151.103 16.3471 150.686 15.8913 150.391 15.3047C150.099 14.7147 149.953 14.0237 149.953 13.2315C149.953 12.4493 150.099 11.7599 150.391 11.1634C150.686 10.5668 151.097 10.1011 151.624 9.76633C152.154 9.43158 152.774 9.2642 153.483 9.2642C153.914 9.2642 154.331 9.33546 154.736 9.47798C155.14 9.6205 155.503 9.84422 155.825 10.1491C156.146 10.4541 156.4 10.8501 156.585 11.3374C156.771 11.8213 156.864 12.4096 156.864 13.1023V13.6293H150.793V12.5156H155.407C155.407 12.1245 155.327 11.7782 155.168 11.4766C155.009 11.1716 154.786 10.9313 154.497 10.7557C154.212 10.58 153.877 10.4922 153.493 10.4922C153.075 10.4922 152.711 10.5949 152.399 10.8004C152.091 11.0026 151.852 11.2678 151.683 11.5959C151.518 11.9207 151.435 12.2737 151.435 12.6548V13.5249C151.435 14.0353 151.524 14.4695 151.703 14.8274C151.885 15.1854 152.139 15.4588 152.464 15.6477C152.789 15.8333 153.168 15.9261 153.602 15.9261C153.884 15.9261 154.141 15.8864 154.373 15.8068C154.605 15.724 154.805 15.6013 154.974 15.4389C155.143 15.2765 155.273 15.076 155.362 14.8374L156.769 15.0909C156.656 15.5052 156.454 15.8681 156.163 16.1797C155.874 16.4879 155.511 16.7282 155.074 16.9006C154.64 17.0696 154.144 17.1541 153.587 17.1541ZM162.337 6.81818H164.202L167.443 14.733H167.562L170.804 6.81818H172.668V17H171.207V9.6321H171.112L168.109 16.9851H166.896L163.893 9.62713H163.799V17H162.337V6.81818ZM177.005 17.169C176.521 17.169 176.083 17.0795 175.692 16.9006C175.301 16.7183 174.991 16.4548 174.763 16.1101C174.537 15.7654 174.425 15.3428 174.425 14.8423C174.425 14.4115 174.507 14.0568 174.673 13.7784C174.839 13.5 175.063 13.2796 175.344 13.1172C175.626 12.9548 175.941 12.8321 176.289 12.7493C176.637 12.6664 176.992 12.6035 177.353 12.5604C177.81 12.5073 178.181 12.4643 178.466 12.4311C178.751 12.3946 178.959 12.3366 179.088 12.2571C179.217 12.1776 179.282 12.0483 179.282 11.8693V11.8345C179.282 11.4003 179.159 11.0639 178.914 10.8253C178.672 10.5866 178.311 10.4673 177.83 10.4673C177.33 10.4673 176.935 10.5784 176.647 10.8004C176.362 11.0192 176.165 11.2628 176.055 11.5312L174.658 11.2131C174.824 10.7491 175.066 10.3745 175.384 10.0895C175.706 9.80114 176.075 9.59233 176.493 9.46307C176.91 9.33049 177.349 9.2642 177.81 9.2642C178.115 9.2642 178.438 9.30066 178.78 9.37358C179.124 9.44318 179.446 9.57244 179.744 9.76136C180.046 9.95028 180.293 10.2204 180.485 10.5717C180.677 10.9197 180.773 11.3722 180.773 11.929V17H179.322V15.956H179.262C179.166 16.1482 179.022 16.3371 178.829 16.5227C178.637 16.7083 178.39 16.8625 178.089 16.9851C177.787 17.1077 177.426 17.169 177.005 17.169ZM177.328 15.9759C177.739 15.9759 178.09 15.8946 178.382 15.7322C178.677 15.5698 178.901 15.3577 179.053 15.0959C179.209 14.8307 179.287 14.5473 179.287 14.2457V13.2614C179.234 13.3144 179.131 13.3641 178.979 13.4105C178.829 13.4536 178.659 13.4917 178.466 13.5249C178.274 13.5547 178.087 13.5829 177.905 13.6094C177.722 13.6326 177.57 13.6525 177.447 13.669C177.159 13.7055 176.895 13.7668 176.657 13.853C176.421 13.9392 176.233 14.0634 176.09 14.2259C175.951 14.3849 175.881 14.5971 175.881 14.8622C175.881 15.2301 176.017 15.5085 176.289 15.6974C176.561 15.883 176.907 15.9759 177.328 15.9759ZM184.24 12.4659V17H182.753V9.36364H184.18V10.6065H184.275C184.45 10.2022 184.725 9.87737 185.1 9.6321C185.478 9.38684 185.953 9.2642 186.527 9.2642C187.047 9.2642 187.503 9.37358 187.894 9.59233C188.285 9.80777 188.588 10.1293 188.804 10.5568C189.019 10.9844 189.127 11.513 189.127 12.1428V17H187.64V12.3217C187.64 11.7682 187.496 11.3357 187.208 11.0241C186.919 10.7093 186.523 10.5518 186.02 10.5518C185.675 10.5518 185.368 10.6264 185.1 10.7756C184.835 10.9247 184.624 11.1435 184.468 11.4318C184.316 11.7169 184.24 12.0616 184.24 12.4659ZM193.343 17.169C192.859 17.169 192.421 17.0795 192.03 16.9006C191.639 16.7183 191.329 16.4548 191.1 16.1101C190.875 15.7654 190.762 15.3428 190.762 14.8423C190.762 14.4115 190.845 14.0568 191.011 13.7784C191.177 13.5 191.4 13.2796 191.682 13.1172C191.964 12.9548 192.279 12.8321 192.627 12.7493C192.975 12.6664 193.329 12.6035 193.691 12.5604C194.148 12.5073 194.519 12.4643 194.804 12.4311C195.089 12.3946 195.297 12.3366 195.426 12.2571C195.555 12.1776 195.62 12.0483 195.62 11.8693V11.8345C195.62 11.4003 195.497 11.0639 195.252 10.8253C195.01 10.5866 194.649 10.4673 194.168 10.4673C193.667 10.4673 193.273 10.5784 192.985 10.8004C192.7 11.0192 192.502 11.2628 192.393 11.5312L190.996 11.2131C191.162 10.7491 191.404 10.3745 191.722 10.0895C192.043 9.80114 192.413 9.59233 192.831 9.46307C193.248 9.33049 193.687 9.2642 194.148 9.2642C194.453 9.2642 194.776 9.30066 195.118 9.37358C195.462 9.44318 195.784 9.57244 196.082 9.76136C196.384 9.95028 196.631 10.2204 196.823 10.5717C197.015 10.9197 197.111 11.3722 197.111 11.929V17H195.659V15.956H195.6C195.504 16.1482 195.359 16.3371 195.167 16.5227C194.975 16.7083 194.728 16.8625 194.426 16.9851C194.125 17.1077 193.764 17.169 193.343 17.169ZM193.666 15.9759C194.077 15.9759 194.428 15.8946 194.72 15.7322C195.015 15.5698 195.239 15.3577 195.391 15.0959C195.547 14.8307 195.625 14.5473 195.625 14.2457V13.2614C195.572 13.3144 195.469 13.3641 195.316 13.4105C195.167 13.4536 194.997 13.4917 194.804 13.5249C194.612 13.5547 194.425 13.5829 194.243 13.6094C194.06 13.6326 193.908 13.6525 193.785 13.669C193.497 13.7055 193.233 13.7668 192.995 13.853C192.759 13.9392 192.57 14.0634 192.428 14.2259C192.289 14.3849 192.219 14.5971 192.219 14.8622C192.219 15.2301 192.355 15.5085 192.627 15.6974C192.899 15.883 193.245 15.9759 193.666 15.9759ZM202.293 20.0227C201.686 20.0227 201.164 19.9432 200.727 19.7841C200.293 19.625 199.938 19.4145 199.663 19.1527C199.388 18.8909 199.182 18.6042 199.046 18.2926L200.324 17.7656C200.414 17.9115 200.533 18.0656 200.682 18.228C200.834 18.3937 201.04 18.5346 201.298 18.6506C201.56 18.7666 201.897 18.8246 202.308 18.8246C202.871 18.8246 203.337 18.687 203.705 18.4119C204.073 18.1402 204.257 17.706 204.257 17.1094V15.608H204.162C204.073 15.7704 203.943 15.951 203.774 16.1499C203.609 16.3487 203.38 16.5211 203.088 16.6669C202.797 16.8127 202.417 16.8857 201.95 16.8857C201.347 16.8857 200.803 16.7448 200.319 16.4631C199.838 16.178 199.457 15.7588 199.176 15.2053C198.897 14.6484 198.758 13.964 198.758 13.152C198.758 12.34 198.896 11.6439 199.171 11.0639C199.449 10.4839 199.83 10.0398 200.314 9.73153C200.798 9.41998 201.347 9.2642 201.96 9.2642C202.434 9.2642 202.816 9.34375 203.108 9.50284C203.4 9.65862 203.627 9.84091 203.789 10.0497C203.955 10.2585 204.083 10.4425 204.172 10.6016H204.281V9.36364H205.738V17.169C205.738 17.8253 205.586 18.3639 205.281 18.7848C204.976 19.2057 204.563 19.5173 204.043 19.7195C203.526 19.9216 202.942 20.0227 202.293 20.0227ZM202.278 15.6527C202.705 15.6527 203.067 15.5533 203.362 15.3544C203.66 15.1522 203.885 14.8639 204.038 14.4893C204.194 14.1115 204.271 13.6591 204.271 13.1321C204.271 12.6184 204.195 12.166 204.043 11.7749C203.89 11.3838 203.667 11.0788 203.372 10.8601C203.077 10.638 202.712 10.527 202.278 10.527C201.83 10.527 201.458 10.643 201.159 10.875C200.861 11.1037 200.636 11.4152 200.483 11.8097C200.334 12.2041 200.259 12.6449 200.259 13.1321C200.259 13.6326 200.336 14.0717 200.488 14.4496C200.641 14.8274 200.866 15.1224 201.164 15.3345C201.466 15.5466 201.837 15.6527 202.278 15.6527ZM211.023 17.1541C210.271 17.1541 209.623 16.9934 209.079 16.6719C208.539 16.3471 208.121 15.8913 207.826 15.3047C207.535 14.7147 207.389 14.0237 207.389 13.2315C207.389 12.4493 207.535 11.7599 207.826 11.1634C208.121 10.5668 208.532 10.1011 209.059 9.76633C209.589 9.43158 210.209 9.2642 210.919 9.2642C211.349 9.2642 211.767 9.33546 212.171 9.47798C212.576 9.6205 212.939 9.84422 213.26 10.1491C213.582 10.4541 213.835 10.8501 214.021 11.3374C214.206 11.8213 214.299 12.4096 214.299 13.1023V13.6293H208.229V12.5156H212.843C212.843 12.1245 212.763 11.7782 212.604 11.4766C212.445 11.1716 212.221 10.9313 211.933 10.7557C211.648 10.58 211.313 10.4922 210.928 10.4922C210.511 10.4922 210.146 10.5949 209.835 10.8004C209.526 11.0026 209.288 11.2678 209.119 11.5959C208.953 11.9207 208.87 12.2737 208.87 12.6548V13.5249C208.87 14.0353 208.96 14.4695 209.139 14.8274C209.321 15.1854 209.575 15.4588 209.899 15.6477C210.224 15.8333 210.604 15.9261 211.038 15.9261C211.32 15.9261 211.576 15.8864 211.808 15.8068C212.04 15.724 212.241 15.6013 212.41 15.4389C212.579 15.2765 212.708 15.076 212.798 14.8374L214.205 15.0909C214.092 15.5052 213.89 15.8681 213.598 16.1797C213.31 16.4879 212.947 16.7282 212.509 16.9006C212.075 17.0696 211.58 17.1541 211.023 17.1541ZM215.949 17V9.36364H217.385V10.5767H217.465C217.604 10.1657 217.849 9.84257 218.201 9.60724C218.555 9.36861 218.956 9.24929 219.404 9.24929C219.497 9.24929 219.606 9.2526 219.732 9.25923C219.861 9.26586 219.962 9.27415 220.035 9.28409V10.706C219.975 10.6894 219.869 10.6712 219.717 10.6513C219.565 10.6281 219.412 10.6165 219.26 10.6165C218.908 10.6165 218.595 10.6911 218.32 10.8402C218.048 10.986 217.833 11.1899 217.674 11.4517C217.515 11.7102 217.435 12.0052 217.435 12.3366V17H215.949Z" fill="#121212"/>
<path d="M61.8295 29.4545C61.7784 29.0227 61.571 28.6875 61.2074 28.4489C60.8438 28.2102 60.3977 28.0909 59.8693 28.0909C59.483 28.0909 59.1449 28.1534 58.8551 28.2784C58.5682 28.4034 58.3438 28.5753 58.1818 28.794C58.0227 29.0128 57.9432 29.2614 57.9432 29.5398C57.9432 29.7727 57.9986 29.973 58.1094 30.1406C58.223 30.3054 58.3679 30.4432 58.544 30.554C58.7202 30.6619 58.9048 30.7514 59.098 30.8224C59.2912 30.8906 59.4688 30.946 59.6307 30.9886L60.517 31.2273C60.7443 31.2869 60.9972 31.3693 61.2756 31.4744C61.5568 31.5795 61.8253 31.723 62.081 31.9048C62.3395 32.0838 62.5526 32.3139 62.7202 32.5952C62.8878 32.8764 62.9716 33.2216 62.9716 33.6307C62.9716 34.1023 62.848 34.5284 62.6009 34.9091C62.3565 35.2898 61.9986 35.5923 61.527 35.8168C61.0582 36.0412 60.4886 36.1534 59.8182 36.1534C59.1932 36.1534 58.652 36.0526 58.1946 35.8509C57.7401 35.6491 57.3821 35.3679 57.1207 35.0071C56.8622 34.6463 56.7159 34.2273 56.6818 33.75H57.7727C57.8011 34.0795 57.9119 34.3523 58.1051 34.5682C58.3011 34.7812 58.5483 34.9403 58.8466 35.0455C59.1477 35.1477 59.4716 35.1989 59.8182 35.1989C60.2216 35.1989 60.5838 35.1335 60.9048 35.0028C61.2259 34.8693 61.4801 34.6847 61.6676 34.4489C61.8551 34.2102 61.9489 33.9318 61.9489 33.6136C61.9489 33.3239 61.8679 33.0881 61.706 32.9062C61.544 32.7244 61.331 32.5767 61.0668 32.4631C60.8026 32.3494 60.517 32.25 60.2102 32.1648L59.1364 31.858C58.4545 31.6619 57.9148 31.3821 57.517 31.0185C57.1193 30.6548 56.9205 30.179 56.9205 29.5909C56.9205 29.1023 57.0526 28.6761 57.3168 28.3125C57.5838 27.946 57.9418 27.6619 58.3906 27.4602C58.8423 27.2557 59.3466 27.1534 59.9034 27.1534C60.4659 27.1534 60.9659 27.2543 61.4034 27.456C61.8409 27.6548 62.1875 27.9276 62.4432 28.2741C62.7017 28.6207 62.8381 29.0142 62.8523 29.4545H61.8295ZM67.3171 36.1364C66.6864 36.1364 66.1424 35.9972 65.685 35.7188C65.2305 35.4375 64.8796 35.0455 64.6325 34.5426C64.3881 34.0369 64.266 33.4489 64.266 32.7784C64.266 32.108 64.3881 31.517 64.6325 31.0057C64.8796 30.4915 65.2234 30.0909 65.6637 29.804C66.1069 29.5142 66.6239 29.3693 67.2148 29.3693C67.5558 29.3693 67.8924 29.4261 68.2248 29.5398C68.5572 29.6534 68.8597 29.8381 69.1325 30.0938C69.4052 30.3466 69.6225 30.6818 69.7844 31.0994C69.9464 31.517 70.0273 32.0312 70.0273 32.642V33.0682H64.9819V32.1989H69.0046C69.0046 31.8295 68.9308 31.5 68.783 31.2102C68.6381 30.9205 68.4308 30.6918 68.1609 30.5241C67.8938 30.3565 67.5785 30.2727 67.2148 30.2727C66.8143 30.2727 66.4677 30.3722 66.1751 30.571C65.8853 30.767 65.6623 31.0227 65.506 31.3381C65.3498 31.6534 65.2717 31.9915 65.2717 32.3523V32.9318C65.2717 33.4261 65.3569 33.8452 65.5273 34.1889C65.7006 34.5298 65.9407 34.7898 66.2475 34.9688C66.5543 35.1449 66.9109 35.233 67.3171 35.233C67.5813 35.233 67.82 35.196 68.033 35.1222C68.2489 35.0455 68.435 34.9318 68.5913 34.7812C68.7475 34.6278 68.8683 34.4375 68.9535 34.2102L69.9251 34.483C69.8228 34.8125 69.6509 35.1023 69.4094 35.3523C69.168 35.5994 68.8697 35.7926 68.5146 35.9318C68.1594 36.0682 67.7603 36.1364 67.3171 36.1364ZM73.4833 36.1534C73.0685 36.1534 72.6921 36.0753 72.354 35.919C72.016 35.7599 71.7475 35.5312 71.5487 35.233C71.3498 34.9318 71.2504 34.5682 71.2504 34.142C71.2504 33.767 71.3242 33.4631 71.4719 33.2301C71.6197 32.9943 71.8171 32.8097 72.0643 32.6761C72.3114 32.5426 72.5842 32.4432 72.8825 32.3778C73.1836 32.3097 73.4862 32.2557 73.7901 32.2159C74.1879 32.1648 74.5103 32.1264 74.7575 32.1009C75.0075 32.0724 75.1893 32.0256 75.3029 31.9602C75.4194 31.8949 75.4776 31.7812 75.4776 31.6193V31.5852C75.4776 31.1648 75.3626 30.8381 75.1325 30.6051C74.9052 30.3722 74.56 30.2557 74.0969 30.2557C73.6168 30.2557 73.2404 30.3608 72.9677 30.571C72.695 30.7812 72.5032 31.0057 72.3924 31.2443L71.4379 30.9034C71.6083 30.5057 71.8356 30.196 72.1197 29.9744C72.4066 29.75 72.7191 29.5937 73.0572 29.5057C73.3981 29.4148 73.7333 29.3693 74.0629 29.3693C74.2731 29.3693 74.5146 29.3949 74.7873 29.446C75.0629 29.4943 75.3285 29.5952 75.5842 29.7486C75.8427 29.902 76.0572 30.1335 76.2276 30.4432C76.3981 30.7528 76.4833 31.1676 76.4833 31.6875V36H75.4776V35.1136H75.4265C75.3583 35.2557 75.2447 35.4077 75.0856 35.5696C74.9265 35.7315 74.7148 35.8693 74.4506 35.983C74.1864 36.0966 73.864 36.1534 73.4833 36.1534ZM73.6367 35.25C74.0344 35.25 74.3697 35.1719 74.6424 35.0156C74.918 34.8594 75.1254 34.6577 75.2646 34.4105C75.4066 34.1634 75.4776 33.9034 75.4776 33.6307V32.7102C75.435 32.7614 75.3413 32.8082 75.1964 32.8509C75.0543 32.8906 74.8896 32.9261 74.7021 32.9574C74.5174 32.9858 74.337 33.0114 74.1609 33.0341C73.9876 33.054 73.8469 33.071 73.739 33.0852C73.4776 33.1193 73.2333 33.1747 73.006 33.2514C72.7816 33.3253 72.5998 33.4375 72.4606 33.5881C72.3242 33.7358 72.256 33.9375 72.256 34.1932C72.256 34.5426 72.3853 34.8068 72.6438 34.9858C72.9052 35.1619 73.2362 35.25 73.6367 35.25ZM78.3189 36V29.4545H79.2905V30.4432H79.3587C79.478 30.1193 79.6939 29.8565 80.0064 29.6548C80.3189 29.4531 80.6712 29.3523 81.0632 29.3523C81.1371 29.3523 81.2294 29.3537 81.3402 29.3565C81.451 29.3594 81.5348 29.3636 81.5916 29.3693V30.392C81.5575 30.3835 81.4794 30.3707 81.3572 30.3537C81.2379 30.3338 81.1115 30.3239 80.978 30.3239C80.6598 30.3239 80.3757 30.3906 80.1257 30.5241C79.8786 30.6548 79.6825 30.8366 79.5376 31.0696C79.3956 31.2997 79.3246 31.5625 79.3246 31.858V36H78.3189ZM85.2436 36.1364C84.63 36.1364 84.1016 35.9915 83.6584 35.7017C83.2152 35.4119 82.8743 35.0128 82.6357 34.5043C82.397 33.9957 82.2777 33.4148 82.2777 32.7614C82.2777 32.0966 82.3999 31.5099 82.6442 31.0014C82.8913 30.4901 83.2351 30.0909 83.6754 29.804C84.1186 29.5142 84.6357 29.3693 85.2266 29.3693C85.6868 29.3693 86.1016 29.4545 86.4709 29.625C86.8402 29.7955 87.1428 30.0341 87.3786 30.3409C87.6143 30.6477 87.7607 31.0057 87.8175 31.4148H86.8118C86.7351 31.1165 86.5646 30.8523 86.3004 30.6222C86.0391 30.3892 85.6868 30.2727 85.2436 30.2727C84.8516 30.2727 84.5078 30.375 84.2124 30.5795C83.9197 30.7812 83.6911 31.0668 83.5263 31.4361C83.3643 31.8026 83.2834 32.233 83.2834 32.7273C83.2834 33.233 83.3629 33.6733 83.522 34.0483C83.6839 34.4233 83.9112 34.7145 84.2038 34.9219C84.4993 35.1293 84.8459 35.233 85.2436 35.233C85.505 35.233 85.7422 35.1875 85.9553 35.0966C86.1683 35.0057 86.3487 34.875 86.4964 34.7045C86.6442 34.5341 86.7493 34.3295 86.8118 34.0909H87.8175C87.7607 34.4773 87.62 34.8253 87.3956 35.1349C87.174 35.4418 86.88 35.6861 86.5135 35.8679C86.1499 36.0469 85.7266 36.1364 85.2436 36.1364ZM90.2933 32.0625V36H89.2876V27.2727H90.2933V30.4773H90.3786C90.532 30.1392 90.7621 29.8707 91.0689 29.6719C91.3786 29.4702 91.7905 29.3693 92.3047 29.3693C92.7507 29.3693 93.1413 29.4588 93.4766 29.6378C93.8118 29.8139 94.0717 30.0852 94.2564 30.4517C94.4439 30.8153 94.5376 31.2784 94.5376 31.8409V36H93.532V31.9091C93.532 31.3892 93.397 30.9872 93.1271 30.7031C92.8601 30.4162 92.4893 30.2727 92.0149 30.2727C91.6854 30.2727 91.3899 30.3423 91.1286 30.4815C90.87 30.6207 90.6655 30.8239 90.5149 31.0909C90.3672 31.358 90.2933 31.6818 90.2933 32.0625ZM102.667 29.4545V30.3068H99.1388V29.4545H102.667ZM100.196 36V28.5511C100.196 28.1761 100.284 27.8636 100.46 27.6136C100.636 27.3636 100.865 27.1761 101.146 27.0511C101.427 26.9261 101.724 26.8636 102.037 26.8636C102.284 26.8636 102.485 26.8835 102.642 26.9233C102.798 26.9631 102.914 27 102.991 27.0341L102.701 27.9034C102.65 27.8864 102.579 27.8651 102.488 27.8395C102.4 27.8139 102.284 27.8011 102.139 27.8011C101.806 27.8011 101.566 27.8849 101.419 28.0526C101.274 28.2202 101.201 28.4659 101.201 28.7898V36H100.196ZM104.077 36V29.4545H105.048V30.4432H105.116C105.236 30.1193 105.452 29.8565 105.764 29.6548C106.077 29.4531 106.429 29.3523 106.821 29.3523C106.895 29.3523 106.987 29.3537 107.098 29.3565C107.209 29.3594 107.293 29.3636 107.349 29.3693V30.392C107.315 30.3835 107.237 30.3707 107.115 30.3537C106.996 30.3338 106.869 30.3239 106.736 30.3239C106.418 30.3239 106.134 30.3906 105.884 30.5241C105.636 30.6548 105.44 30.8366 105.295 31.0696C105.153 31.2997 105.082 31.5625 105.082 31.858V36H104.077ZM111.001 36.1364C110.411 36.1364 109.892 35.9957 109.446 35.7145C109.003 35.4332 108.656 35.0398 108.406 34.5341C108.159 34.0284 108.036 33.4375 108.036 32.7614C108.036 32.0795 108.159 31.4844 108.406 30.9759C108.656 30.4673 109.003 30.0724 109.446 29.7912C109.892 29.5099 110.411 29.3693 111.001 29.3693C111.592 29.3693 112.109 29.5099 112.553 29.7912C112.999 30.0724 113.345 30.4673 113.592 30.9759C113.842 31.4844 113.967 32.0795 113.967 32.7614C113.967 33.4375 113.842 34.0284 113.592 34.5341C113.345 35.0398 112.999 35.4332 112.553 35.7145C112.109 35.9957 111.592 36.1364 111.001 36.1364ZM111.001 35.233C111.45 35.233 111.82 35.1179 112.109 34.8878C112.399 34.6577 112.614 34.3551 112.753 33.9801C112.892 33.6051 112.962 33.1989 112.962 32.7614C112.962 32.3239 112.892 31.9162 112.753 31.5384C112.614 31.1605 112.399 30.8551 112.109 30.6222C111.82 30.3892 111.45 30.2727 111.001 30.2727C110.553 30.2727 110.183 30.3892 109.893 30.6222C109.604 30.8551 109.389 31.1605 109.25 31.5384C109.111 31.9162 109.041 32.3239 109.041 32.7614C109.041 33.1989 109.111 33.6051 109.25 33.9801C109.389 34.3551 109.604 34.6577 109.893 34.8878C110.183 35.1179 110.553 35.233 111.001 35.233ZM115.502 36V29.4545H116.474V30.4773H116.559C116.696 30.1278 116.916 29.8565 117.22 29.6634C117.524 29.4673 117.889 29.3693 118.315 29.3693C118.747 29.3693 119.106 29.4673 119.393 29.6634C119.683 29.8565 119.909 30.1278 120.071 30.4773H120.139C120.306 30.1392 120.558 29.8707 120.893 29.6719C121.228 29.4702 121.63 29.3693 122.099 29.3693C122.684 29.3693 123.163 29.5526 123.535 29.919C123.907 30.2827 124.093 30.8494 124.093 31.6193V36H123.088V31.6193C123.088 31.1364 122.956 30.7912 122.691 30.5838C122.427 30.3764 122.116 30.2727 121.758 30.2727C121.298 30.2727 120.941 30.4119 120.689 30.6903C120.436 30.9659 120.309 31.3153 120.309 31.7386V36H119.287V31.517C119.287 31.1449 119.166 30.8452 118.924 30.6179C118.683 30.3878 118.372 30.2727 117.991 30.2727C117.73 30.2727 117.485 30.3423 117.258 30.4815C117.034 30.6207 116.852 30.8139 116.713 31.0611C116.576 31.3054 116.508 31.5881 116.508 31.9091V36H115.502ZM129.307 29.4545H130.313V36.4773C130.313 36.8807 130.243 37.2301 130.104 37.5256C129.968 37.821 129.76 38.0497 129.482 38.2116C129.206 38.3736 128.858 38.4545 128.438 38.4545C128.404 38.4545 128.37 38.4545 128.336 38.4545C128.301 38.4545 128.267 38.4545 128.233 38.4545V37.517C128.267 37.517 128.299 37.517 128.327 37.517C128.355 37.517 128.387 37.517 128.421 37.517C128.728 37.517 128.952 37.4261 129.094 37.2443C129.236 37.0653 129.307 36.8097 129.307 36.4773V29.4545ZM129.801 28.3636C129.605 28.3636 129.436 28.2969 129.294 28.1634C129.155 28.0298 129.086 27.8693 129.086 27.6818C129.086 27.4943 129.155 27.3338 129.294 27.2003C129.436 27.0668 129.605 27 129.801 27C129.998 27 130.165 27.0668 130.304 27.2003C130.446 27.3338 130.517 27.4943 130.517 27.6818C130.517 27.8693 130.446 28.0298 130.304 28.1634C130.165 28.2969 129.998 28.3636 129.801 28.3636ZM134.814 36.1364C134.223 36.1364 133.705 35.9957 133.259 35.7145C132.815 35.4332 132.469 35.0398 132.219 34.5341C131.972 34.0284 131.848 33.4375 131.848 32.7614C131.848 32.0795 131.972 31.4844 132.219 30.9759C132.469 30.4673 132.815 30.0724 133.259 29.7912C133.705 29.5099 134.223 29.3693 134.814 29.3693C135.405 29.3693 135.922 29.5099 136.365 29.7912C136.811 30.0724 137.158 30.4673 137.405 30.9759C137.655 31.4844 137.78 32.0795 137.78 32.7614C137.78 33.4375 137.655 34.0284 137.405 34.5341C137.158 35.0398 136.811 35.4332 136.365 35.7145C135.922 35.9957 135.405 36.1364 134.814 36.1364ZM134.814 35.233C135.263 35.233 135.632 35.1179 135.922 34.8878C136.212 34.6577 136.426 34.3551 136.565 33.9801C136.705 33.6051 136.774 33.1989 136.774 32.7614C136.774 32.3239 136.705 31.9162 136.565 31.5384C136.426 31.1605 136.212 30.8551 135.922 30.6222C135.632 30.3892 135.263 30.2727 134.814 30.2727C134.365 30.2727 133.996 30.3892 133.706 30.6222C133.416 30.8551 133.202 31.1605 133.062 31.5384C132.923 31.9162 132.854 32.3239 132.854 32.7614C132.854 33.1989 132.923 33.6051 133.062 33.9801C133.202 34.3551 133.416 34.6577 133.706 34.8878C133.996 35.1179 134.365 35.233 134.814 35.233ZM139.315 36V29.4545H140.321V36H139.315ZM139.826 28.3636C139.63 28.3636 139.461 28.2969 139.319 28.1634C139.18 28.0298 139.11 27.8693 139.11 27.6818C139.11 27.4943 139.18 27.3338 139.319 27.2003C139.461 27.0668 139.63 27 139.826 27C140.022 27 140.19 27.0668 140.329 27.2003C140.471 27.3338 140.542 27.4943 140.542 27.6818C140.542 27.8693 140.471 28.0298 140.329 28.1634C140.19 28.2969 140.022 28.3636 139.826 28.3636ZM143.168 32.0625V36H142.163V29.4545H143.134V30.4773H143.219C143.373 30.1449 143.606 29.8778 143.918 29.6761C144.231 29.4716 144.634 29.3693 145.129 29.3693C145.572 29.3693 145.96 29.4602 146.292 29.642C146.624 29.821 146.883 30.0938 147.067 30.4602C147.252 30.8239 147.344 31.2841 147.344 31.8409V36H146.339V31.9091C146.339 31.3949 146.205 30.9943 145.938 30.7074C145.671 30.4176 145.305 30.2727 144.839 30.2727C144.518 30.2727 144.231 30.3423 143.978 30.4815C143.728 30.6207 143.531 30.8239 143.386 31.0909C143.241 31.358 143.168 31.6818 143.168 32.0625ZM151.926 36.1364C151.296 36.1364 150.752 35.9972 150.294 35.7188C149.84 35.4375 149.489 35.0455 149.242 34.5426C148.998 34.0369 148.875 33.4489 148.875 32.7784C148.875 32.108 148.998 31.517 149.242 31.0057C149.489 30.4915 149.833 30.0909 150.273 29.804C150.716 29.5142 151.233 29.3693 151.824 29.3693C152.165 29.3693 152.502 29.4261 152.834 29.5398C153.167 29.6534 153.469 29.8381 153.742 30.0938C154.015 30.3466 154.232 30.6818 154.394 31.0994C154.556 31.517 154.637 32.0312 154.637 32.642V33.0682H149.591V32.1989H153.614C153.614 31.8295 153.54 31.5 153.392 31.2102C153.248 30.9205 153.04 30.6918 152.77 30.5241C152.503 30.3565 152.188 30.2727 151.824 30.2727C151.424 30.2727 151.077 30.3722 150.784 30.571C150.495 30.767 150.272 31.0227 150.115 31.3381C149.959 31.6534 149.881 31.9915 149.881 32.3523V32.9318C149.881 33.4261 149.966 33.8452 150.137 34.1889C150.31 34.5298 150.55 34.7898 150.857 34.9688C151.164 35.1449 151.52 35.233 151.926 35.233C152.191 35.233 152.429 35.196 152.642 35.1222C152.858 35.0455 153.044 34.9318 153.201 34.7812C153.357 34.6278 153.478 34.4375 153.563 34.2102L154.534 34.483C154.432 34.8125 154.26 35.1023 154.019 35.3523C153.777 35.5994 153.479 35.7926 153.124 35.9318C152.769 36.0682 152.37 36.1364 151.926 36.1364ZM158.638 36.1364C158.093 36.1364 157.611 35.9986 157.194 35.723C156.776 35.4446 156.449 35.0526 156.213 34.5469C155.978 34.0384 155.86 33.4375 155.86 32.7443C155.86 32.0568 155.978 31.4602 156.213 30.9545C156.449 30.4489 156.777 30.0582 157.198 29.7827C157.618 29.5071 158.104 29.3693 158.655 29.3693C159.081 29.3693 159.418 29.4403 159.665 29.5824C159.915 29.7216 160.105 29.8807 160.236 30.0597C160.37 30.2358 160.473 30.3807 160.547 30.4943H160.632V27.2727H161.638V36H160.667V34.9943H160.547C160.473 35.1136 160.368 35.2642 160.232 35.446C160.096 35.625 159.901 35.7855 159.648 35.9276C159.395 36.0668 159.059 36.1364 158.638 36.1364ZM158.775 35.233C159.178 35.233 159.519 35.1278 159.797 34.9176C160.076 34.7045 160.287 34.4105 160.432 34.0355C160.577 33.6577 160.65 33.2216 160.65 32.7273C160.65 32.2386 160.578 31.8111 160.436 31.4446C160.294 31.0753 160.084 30.7884 159.806 30.5838C159.527 30.3764 159.184 30.2727 158.775 30.2727C158.348 30.2727 157.993 30.3821 157.709 30.6009C157.428 30.8168 157.216 31.1108 157.074 31.483C156.935 31.8523 156.865 32.267 156.865 32.7273C156.865 33.1932 156.936 33.6165 157.078 33.9972C157.223 34.375 157.436 34.6761 157.718 34.9006C158.002 35.1222 158.354 35.233 158.775 35.233ZM168 27.2727V36H166.995V27.2727H168ZM169.842 36V29.4545H170.848V36H169.842ZM170.354 28.3636C170.158 28.3636 169.989 28.2969 169.847 28.1634C169.707 28.0298 169.638 27.8693 169.638 27.6818C169.638 27.4943 169.707 27.3338 169.847 27.2003C169.989 27.0668 170.158 27 170.354 27C170.55 27 170.717 27.0668 170.857 27.2003C170.999 27.3338 171.07 27.4943 171.07 27.6818C171.07 27.8693 170.999 28.0298 170.857 28.1634C170.717 28.2969 170.55 28.3636 170.354 28.3636ZM177.326 30.9205L176.423 31.1761C176.366 31.0256 176.282 30.8793 176.172 30.7372C176.064 30.5923 175.916 30.473 175.728 30.3793C175.541 30.2855 175.301 30.2386 175.008 30.2386C174.608 30.2386 174.274 30.331 174.007 30.5156C173.743 30.6974 173.61 30.929 173.61 31.2102C173.61 31.4602 173.701 31.6577 173.883 31.8026C174.065 31.9474 174.349 32.0682 174.735 32.1648L175.707 32.4034C176.292 32.5455 176.728 32.7628 177.015 33.0554C177.302 33.3452 177.446 33.7187 177.446 34.1761C177.446 34.5511 177.338 34.8864 177.122 35.1818C176.909 35.4773 176.61 35.7102 176.227 35.8807C175.843 36.0511 175.397 36.1364 174.889 36.1364C174.221 36.1364 173.669 35.9915 173.231 35.7017C172.794 35.4119 172.517 34.9886 172.4 34.4318L173.355 34.1932C173.446 34.5455 173.618 34.8097 173.87 34.9858C174.126 35.1619 174.46 35.25 174.872 35.25C175.341 35.25 175.713 35.1506 175.988 34.9517C176.267 34.75 176.406 34.5085 176.406 34.2273C176.406 34 176.326 33.8097 176.167 33.6562C176.008 33.5 175.764 33.3835 175.434 33.3068L174.343 33.0511C173.744 32.9091 173.304 32.6889 173.022 32.3906C172.744 32.0895 172.605 31.7131 172.605 31.2614C172.605 30.892 172.708 30.5653 172.916 30.2812C173.126 29.9972 173.412 29.7741 173.772 29.6122C174.136 29.4503 174.548 29.3693 175.008 29.3693C175.656 29.3693 176.164 29.5114 176.534 29.7955C176.906 30.0795 177.17 30.4545 177.326 30.9205ZM181.806 29.4545V30.3068H178.414V29.4545H181.806ZM179.403 27.8864H180.408V34.125C180.408 34.4091 180.45 34.6222 180.532 34.7642C180.617 34.9034 180.725 34.9972 180.856 35.0455C180.989 35.0909 181.13 35.1136 181.278 35.1136C181.388 35.1136 181.479 35.108 181.55 35.0966C181.621 35.0824 181.678 35.071 181.721 35.0625L181.925 35.9659C181.857 35.9915 181.762 36.017 181.64 36.0426C181.518 36.071 181.363 36.0852 181.175 36.0852C180.891 36.0852 180.613 36.0241 180.34 35.902C180.07 35.7798 179.846 35.5938 179.667 35.3438C179.491 35.0938 179.403 34.7784 179.403 34.3977V27.8864Z" fill="#121212" fill-opacity="0.6"/>
<circle cx="21" cy="21" r="21" fill="#DADADA"/>
<path d="M26.3295 25.1855H14.7764C11.5862 25.1855 8.99991 27.7718 8.99991 30.9621V33.8504H20.553H32.1061V30.9621C32.1061 27.7718 29.5198 25.1855 26.3295 25.1855Z" fill="#C4C4C4"/>
<path d="M20.553 19.5531C23.7432 19.5531 26.3295 16.9668 26.3295 13.7765C26.3295 10.5862 23.7432 8 20.553 8C17.3627 8 14.7764 10.5862 14.7764 13.7765C14.7764 16.9668 17.3627 19.5531 20.553 19.5531Z" fill="#C4C4C4"/>
</svg>
