<svg width="46" height="54" viewBox="0 0 46 54" fill="none" xmlns="http://www.w3.org/2000/svg">
<path d="M36.5 42.9286C34.0025 42.9286 32 45.2887 32 48.2322C32 49.6387 32.4741 50.9877 33.318 51.9823C34.1619 52.977 35.3065 53.5357 36.5 53.5357C37.6935 53.5357 38.8381 52.977 39.682 51.9823C40.5259 50.9877 41 49.6387 41 48.2322C41 45.2887 38.975 42.9286 36.5 42.9286ZM0.5 0.5V5.80357H5L13.1 25.9306L10.04 32.4275C9.7025 33.17 9.5 34.0451 9.5 34.9732C9.5 36.3798 9.97411 37.7288 10.818 38.7234C11.6619 39.718 12.8065 40.2768 14 40.2768H41V34.9732H14.945C14.7958 34.9732 14.6527 34.9034 14.5473 34.779C14.4418 34.6547 14.3825 34.4861 14.3825 34.3103C14.3825 34.1777 14.405 34.0716 14.45 33.9921L16.475 29.6696H33.2375C34.925 29.6696 36.41 28.5559 37.175 26.9383L45.23 9.78125C45.3875 9.35697 45.5 8.90616 45.5 8.45536C45.5 7.75206 45.2629 7.07757 44.841 6.58026C44.419 6.08296 43.8467 5.80357 43.25 5.80357H9.9725L7.8575 0.5M14 42.9286C11.5025 42.9286 9.5 45.2887 9.5 48.2322C9.5 49.6387 9.97411 50.9877 10.818 51.9823C11.6619 52.977 12.8065 53.5357 14 53.5357C15.1935 53.5357 16.3381 52.977 17.182 51.9823C18.0259 50.9877 18.5 49.6387 18.5 48.2322C18.5 45.2887 16.475 42.9286 14 42.9286Z" fill="#121212" fill-opacity="0.6"/>
</svg>
