<svg width="30" height="46" viewBox="0 0 30 46" fill="none" xmlns="http://www.w3.org/2000/svg">
<path d="M20.25 45.5L3.125 27.75V23.625H11.25C13.625 23.625 15.7083 22.8542 17.5 21.3125C19.2917 19.7708 20.3333 17.625 20.625 14.875H0V11.125H20.3125C19.7708 9.125 18.6563 7.47917 16.9688 6.1875C15.2813 4.89583 13.375 4.25 11.25 4.25H0V0.5H30V4.25H20.375C21.3333 5.08333 22.1458 6.14583 22.8125 7.4375C23.4792 8.72917 23.9583 9.95833 24.25 11.125H30V14.875H24.375C24.0417 18.6667 22.6354 21.6979 20.1562 23.9688C17.6771 26.2396 14.7083 27.375 11.25 27.375H8L25.4375 45.5H20.25Z" fill="black" fill-opacity="0.5"/>
</svg>
