<svg width="54" height="47" viewBox="0 0 54 47" fill="none" xmlns="http://www.w3.org/2000/svg">
<path d="M9.81818 0H54V34.7143H9.81818V0ZM31.9091 8.67857C33.862 8.67857 35.735 9.59292 37.116 11.2205C38.4969 12.848 39.2727 15.0554 39.2727 17.3571C39.2727 19.6588 38.4969 21.8663 37.116 23.4938C35.735 25.1214 33.862 26.0357 31.9091 26.0357C29.9561 26.0357 28.0832 25.1214 26.7022 23.4938C25.3213 21.8663 24.5455 19.6588 24.5455 17.3571C24.5455 15.0554 25.3213 12.848 26.7022 11.2205C28.0832 9.59292 29.9561 8.67857 31.9091 8.67857ZM19.6364 5.78571C19.6364 7.32018 19.1192 8.7918 18.1985 9.87683C17.2779 10.9619 16.0292 11.5714 14.7273 11.5714V23.1429C16.0292 23.1429 17.2779 23.7524 18.1985 24.8375C19.1192 25.9225 19.6364 27.3941 19.6364 28.9286H44.1818C44.1818 27.3941 44.699 25.9225 45.6197 24.8375C46.5403 23.7524 47.7889 23.1429 49.0909 23.1429V11.5714C47.7889 11.5714 46.5403 10.9619 45.6197 9.87683C44.699 8.7918 44.1818 7.32018 44.1818 5.78571H19.6364ZM0 11.5714H4.90909V40.5H44.1818V46.2857H0V11.5714Z" fill="#121212" fill-opacity="0.6"/>
</svg>
