<svg width="58" height="58" viewBox="0 0 58 58" fill="none" xmlns="http://www.w3.org/2000/svg">
<circle cx="29" cy="29" r="29" fill="#F8F0DE"/>
<g clip-path="url(#clip0_1788_2063)">
<path d="M35.6663 32.3346H38.1663V37.0346L42.233 39.3846L40.983 41.5513L35.6663 38.4846V32.3346ZM48.9997 37.3346C48.9997 40.4288 47.7705 43.3963 45.5826 45.5842C43.3947 47.7721 40.4272 49.0013 37.333 49.0013C32.683 49.0013 28.6663 46.268 26.783 42.3346H15.6663C13.8163 42.3346 12.333 40.8346 12.333 39.0013V19.0013C12.333 17.1513 13.8163 15.668 15.6663 15.668H42.333C43.2171 15.668 44.0649 16.0192 44.69 16.6443C45.3152 17.2694 45.6663 18.1172 45.6663 19.0013V29.168C47.733 31.268 48.9997 34.1513 48.9997 37.3346ZM37.333 29.0013C35.1229 29.0013 33.0033 29.8793 31.4405 31.4421C29.8776 33.0049 28.9997 35.1245 28.9997 37.3346C28.9997 39.5448 29.8776 41.6644 31.4405 43.2272C33.0033 44.79 35.1229 45.668 37.333 45.668C39.5431 45.668 41.6628 44.79 43.2256 43.2272C44.7884 41.6644 45.6663 39.5448 45.6663 37.3346C45.6663 35.1245 44.7884 33.0049 43.2256 31.4421C41.6628 29.8793 39.5431 29.0013 37.333 29.0013ZM42.333 25.668V20.668H15.6663V25.668H42.333Z" fill="#FFC83F"/>
</g>
<defs>
<clipPath id="clip0_1788_2063">
<rect width="40" height="40" fill="white" transform="translate(9 9)"/>
</clipPath>
</defs>
</svg>
