<svg width="58" height="58" viewBox="0 0 58 58" fill="none" xmlns="http://www.w3.org/2000/svg">
<circle cx="29" cy="29" r="29" fill="#E8F4EA"/>
<path d="M17.2163 17.2168C14.1997 20.2335 12.333 24.4001 12.333 29.0001C12.333 33.6001 14.1997 37.7668 17.2163 40.7835L19.5663 38.4335C17.1497 36.0335 15.6663 32.7001 15.6663 29.0001C15.6663 25.3168 17.1497 21.9668 19.5663 19.5668L17.2163 17.2168ZM40.783 17.2168L38.433 19.5668C40.8497 21.9668 42.333 25.3168 42.333 29.0001C42.333 32.7001 40.8497 36.0335 38.433 38.4335L40.783 40.7835C43.7997 37.7668 45.6663 33.6001 45.6663 29.0001C45.6663 24.4001 43.7997 20.2335 40.783 17.2168ZM21.933 21.9335C20.1163 23.7501 18.9997 26.2501 18.9997 29.0001C18.9997 31.7501 20.1163 34.2501 21.933 36.0668L24.283 33.7168C23.083 32.5168 22.333 30.8501 22.333 29.0001C22.333 27.1501 23.083 25.4835 24.283 24.2835L21.933 21.9335ZM36.0663 21.9335L33.7163 24.2835C34.9163 25.4835 35.6663 27.1501 35.6663 29.0001C35.6663 30.8501 34.9163 32.5168 33.7163 33.7168L36.0663 36.0668C37.883 34.2501 38.9997 31.7501 38.9997 29.0001C38.9997 26.2501 37.883 23.7501 36.0663 21.9335ZM28.9997 25.6668C28.1156 25.6668 27.2678 26.018 26.6427 26.6431C26.0175 27.2682 25.6663 28.1161 25.6663 29.0001C25.6663 29.8842 26.0175 30.732 26.6427 31.3572C27.2678 31.9823 28.1156 32.3335 28.9997 32.3335C29.8837 32.3335 30.7316 31.9823 31.3567 31.3572C31.9818 30.732 32.333 29.8842 32.333 29.0001C32.333 28.1161 31.9818 27.2682 31.3567 26.6431C30.7316 26.018 29.8837 25.6668 28.9997 25.6668Z" fill="#0FC92E"/>
</svg>
