<svg width="58" height="58" viewBox="0 0 58 58" fill="none" xmlns="http://www.w3.org/2000/svg">
<circle cx="29" cy="29" r="29" fill="#FCF0F0"/>
<path d="M36.5 36.082L41.2667 38.8987L40.0167 40.932L34 37.332V28.9987H36.5V36.082ZM47.3333 35.6654C47.3333 42.1154 42.1167 47.332 35.6667 47.332C31.6833 47.332 28.1667 45.332 26.0833 42.332C19.3 41.982 14 39.132 14 35.6654V30.6654C14 33.7987 18.3 36.3987 24.1 37.132C24.05 36.6487 24 36.1654 24 35.6654C24 35.032 24.0667 34.4154 24.1667 33.7987C18.3333 33.082 14 30.4654 14 27.332V22.332C14 25.8154 19.3333 28.6654 26.1167 28.9987C27.1167 27.5654 28.4 26.3987 29.8833 25.5487C29.0667 25.6154 28.1667 25.6654 27.3333 25.6654C19.9667 25.6654 14 22.682 14 18.9987C14 15.3154 19.9667 12.332 27.3333 12.332C34.7 12.332 40.6667 15.3154 40.6667 18.9987C40.6667 20.9987 38.8833 22.7987 36.0833 23.9987C37.3333 24.0654 38.5833 24.3154 39.7333 24.7487C40.3167 23.9987 40.6667 23.1654 40.6667 22.332V25.132C44.6 27.0154 47.3333 31.0154 47.3333 35.6654ZM44 35.6654C44 31.0654 40.2667 27.332 35.6667 27.332C31.0667 27.332 27.3333 31.0654 27.3333 35.6654C27.3333 40.2654 31.0667 43.9987 35.6667 43.9987C40.2667 43.9987 44 40.2654 44 35.6654Z" fill="#FF6359"/>
</svg>
