<svg width="58" height="54" viewBox="0 0 58 54" fill="none" xmlns="http://www.w3.org/2000/svg">
<path d="M40.4 31.8C41.65 31.8 42.7625 31.3125 43.7375 30.3375C44.7125 29.3625 45.2 28.225 45.2 26.925C45.2 25.675 44.7125 24.575 43.7375 23.625C42.7625 22.675 41.65 22.2 40.4 22.2C39.15 22.2 38.0375 22.675 37.0625 23.625C36.0875 24.575 35.6 25.675 35.6 26.925C35.6 28.225 36.0875 29.3625 37.0625 30.3375C38.0375 31.3125 39.15 31.8 40.4 31.8ZM31.85 41.025C30.15 41.025 28.8 40.525 27.8 39.525C26.8 38.525 26.3 37.2 26.3 35.55V18.525C26.3 16.825 26.8 15.4875 27.8 14.5125C28.8 13.5375 30.15 13.05 31.85 13.05H52.025C53.725 13.05 55.075 13.5375 56.075 14.5125C57.075 15.4875 57.575 16.825 57.575 18.525V35.55C57.575 37.2 57.075 38.525 56.075 39.525C55.075 40.525 53.725 41.025 52.025 41.025H31.85ZM5 54C3.85 54 2.8125 53.55 1.8875 52.65C0.9625 51.75 0.5 50.7 0.5 49.5V4.5C0.5 3.35 0.9625 2.3125 1.8875 1.3875C2.8125 0.4625 3.85 0 5 0H50C51.2 0 52.25 0.4625 53.15 1.3875C54.05 2.3125 54.5 3.35 54.5 4.5V8.55H31.85C28.95 8.55 26.55 9.5 24.65 11.4C22.75 13.3 21.8 15.675 21.8 18.525V35.55C21.8 38.4 22.75 40.775 24.65 42.675C26.55 44.575 28.95 45.525 31.85 45.525H54.5V49.5C54.5 50.7 54.05 51.75 53.15 52.65C52.25 53.55 51.2 54 50 54H5Z" fill="white"/>
</svg>
