<svg width="58" height="58" viewBox="0 0 58 58" fill="none" xmlns="http://www.w3.org/2000/svg">
<circle cx="29" cy="29" r="29" fill="#EAF5FA"/>
<path d="M35.6663 28.9987C40.2663 28.9987 43.9996 25.2654 43.9996 20.6654C43.9996 16.0654 40.2663 12.332 35.6663 12.332C31.0663 12.332 27.333 16.0654 27.333 20.6654C27.333 25.2654 31.0663 28.9987 35.6663 28.9987ZM44.7496 38.332C44.0997 37.6654 43.283 37.332 42.333 37.332H30.6663L27.1996 36.1154L27.7496 34.5487L30.6663 35.6654H35.333C35.9163 35.6654 36.383 35.432 36.7663 35.0487C37.1496 34.6654 37.333 34.1987 37.333 33.682C37.333 32.782 36.8996 32.1654 36.033 31.8154L23.9163 27.332H20.6663V42.332L32.333 45.6654L45.7163 40.6654C45.733 39.782 45.3997 38.9987 44.7496 38.332ZM17.333 27.332H10.6396V45.6654H17.333V27.332Z" fill="#1CA3E7"/>
</svg>
