<svg width="24" height="17" viewBox="0 0 24 17" fill="none" xmlns="http://www.w3.org/2000/svg">
<path d="M3.6 7.57539C4.92375 7.57539 6 6.52156 6 5.22539C6 3.92922 4.92375 2.87539 3.6 2.87539C2.27625 2.87539 1.2 3.92922 1.2 5.22539C1.2 6.52156 2.27625 7.57539 3.6 7.57539ZM20.4 7.57539C21.7238 7.57539 22.8 6.52156 22.8 5.22539C22.8 3.92922 21.7238 2.87539 20.4 2.87539C19.0763 2.87539 18 3.92922 18 5.22539C18 6.52156 19.0763 7.57539 20.4 7.57539ZM21.6 8.75039H19.2C18.54 8.75039 17.9438 9.01109 17.5088 9.43336C19.02 10.2448 20.0925 11.7099 20.325 13.4504H22.8C23.4638 13.4504 24 12.9253 24 12.2754V11.1004C24 9.80422 22.9238 8.75039 21.6 8.75039ZM12 8.75039C14.3213 8.75039 16.2 6.91078 16.2 4.63789C16.2 2.365 14.3213 0.525391 12 0.525391C9.67875 0.525391 7.8 2.365 7.8 4.63789C7.8 6.91078 9.67875 8.75039 12 8.75039ZM14.88 9.92539H14.5688C13.7888 10.2926 12.9225 10.5129 12 10.5129C11.0775 10.5129 10.215 10.2926 9.43125 9.92539H9.12C6.735 9.92539 4.8 11.8201 4.8 14.1554V15.2129C4.8 16.1859 5.60625 16.9754 6.6 16.9754H17.4C18.3938 16.9754 19.2 16.1859 19.2 15.2129V14.1554C19.2 11.8201 17.265 9.92539 14.88 9.92539ZM6.49125 9.43336C6.05625 9.01109 5.46 8.75039 4.8 8.75039H2.4C1.07625 8.75039 0 9.80422 0 11.1004V12.2754C0 12.9253 0.53625 13.4504 1.2 13.4504H3.67125C3.9075 11.7099 4.98 10.2448 6.49125 9.43336Z" fill="white"/>
</svg>
