<svg width="24" height="21" viewBox="0 0 24 21" fill="none" xmlns="http://www.w3.org/2000/svg">
<path d="M23 0.958008H1C0.734784 0.958008 0.48043 1.06117 0.292893 1.2448C0.105357 1.42843 0 1.67748 0 1.93717L0 19.5622C0 19.8219 0.105357 20.0709 0.292893 20.2546C0.48043 20.4382 0.734784 20.5413 1 20.5413H23C23.2652 20.5413 23.5196 20.4382 23.7071 20.2546C23.8946 20.0709 24 19.8219 24 19.5622V1.93717C24 1.67748 23.8946 1.42843 23.7071 1.2448C23.5196 1.06117 23.2652 0.958008 23 0.958008ZM22 18.583H20V17.6038H15V18.583H2V2.91634H22V18.583ZM10.29 8.50738C10.29 8.06331 10.4702 7.63743 10.7908 7.32342C11.1115 7.00942 11.5465 6.83301 12 6.83301C12.95 6.83301 13.71 7.58697 13.71 8.50738C13.71 9.43759 12.95 10.1916 12 10.1916C11.05 10.1916 10.29 9.43759 10.29 8.50738ZM5.71 10.0545C5.71 9.35926 6.29 8.79134 7 8.79134C7.34213 8.79134 7.67025 8.92442 7.91217 9.1613C8.15409 9.39818 8.29 9.71946 8.29 10.0545C8.29 10.7497 7.71 11.3078 7 11.3078C6.29 11.3078 5.71 10.7497 5.71 10.0545ZM15.71 10.0545C15.71 9.71946 15.8459 9.39818 16.0878 9.1613C16.3298 8.92442 16.6579 8.79134 17 8.79134C17.3421 8.79134 17.6702 8.92442 17.9122 9.1613C18.1541 9.39818 18.29 9.71946 18.29 10.0545C18.29 10.7497 17.71 11.3078 17 11.3078C16.29 11.3078 15.71 10.7497 15.71 10.0545ZM20 13.8243V14.6663H16H14H10H8H4V13.8243C4 12.9038 5.55 12.1499 7 12.1499C7.55 12.1499 8.11 12.2576 8.6 12.4436C9.35 11.768 10.7 11.3078 12 11.3078C13.3 11.3078 14.65 11.768 15.4 12.4436C15.89 12.2576 16.45 12.1499 17 12.1499C18.45 12.1499 20 12.9038 20 13.8243Z" fill="#121212" fill-opacity="0.8"/>
</svg>
