<svg width="18" height="20" viewBox="0 0 18 20" fill="none" xmlns="http://www.w3.org/2000/svg">
<path d="M11.7499 8.19L12.3799 8.32L16.5499 10.4C17.2499 10.63 17.7099 11.32 17.6499 12.06V12.19V12.32L16.7499 18.44C16.6899 18.87 16.4999 19.27 16.1499 19.55C15.8399 19.85 15.4299 20 14.9999 20H8.11986C7.62986 20 7.17986 19.82 6.84986 19.47L0.859863 13.5L1.75986 12.5C1.99986 12.25 2.37986 12.11 2.73986 12.13H3.02986L6.99986 13V2.5C6.99986 1.96957 7.21058 1.46086 7.58565 1.08579C7.96072 0.710714 8.46943 0.5 8.99986 0.5C9.5303 0.5 10.039 0.710714 10.4141 1.08579C10.7891 1.46086 10.9999 1.96957 10.9999 2.5V8.19H11.7499Z" fill="white"/>
</svg>
