<svg width="96" height="96" viewBox="0 0 96 96" fill="none" xmlns="http://www.w3.org/2000/svg">
<rect width="96" height="96" rx="6" fill="#001A72" fill-opacity="0.1"/>
<path d="M22 66.0563V24.1539C22 23.4531 22.3254 22.7522 22.9762 22.0513C23.627 21.3504 24.3029 21 25.0038 21H63.9775C64.7284 21 65.4293 21.3379 66.0801 22.0138C66.7309 22.6896 67.0563 23.403 67.0563 24.1539V50.8874C67.0563 51.5882 66.7309 52.2891 66.0801 52.99C65.4293 53.6909 64.7284 54.0413 63.9775 54.0413H34.015L22 66.0563ZM37.0939 69.0601C36.393 69.0601 35.7046 68.7096 35.0288 68.0088C34.3529 67.3079 34.015 66.607 34.015 65.9061V58.5469H71.562V33.015H79.0713C79.7722 33.015 80.4481 33.3655 81.0989 34.0663C81.7497 34.7672 82.0751 35.4931 82.0751 36.2441V81L70.1352 69.0601H37.0939ZM62.5507 25.5056H26.5056V55.1677L32.1377 49.5357H62.5507V25.5056Z" fill="#1C023B"/>
</svg>
