<svg width="24" height="24" viewBox="0 0 24 24" fill="none" xmlns="http://www.w3.org/2000/svg">
<path d="M3.6 10.8001C4.92375 10.8001 6 9.72385 6 8.4001C6 7.07635 4.92375 6.0001 3.6 6.0001C2.27625 6.0001 1.2 7.07635 1.2 8.4001C1.2 9.72385 2.27625 10.8001 3.6 10.8001ZM20.4 10.8001C21.7238 10.8001 22.8 9.72385 22.8 8.4001C22.8 7.07635 21.7238 6.0001 20.4 6.0001C19.0763 6.0001 18 7.07635 18 8.4001C18 9.72385 19.0763 10.8001 20.4 10.8001ZM21.6 12.0001H19.2C18.54 12.0001 17.9438 12.2663 17.5088 12.6976C19.02 13.5263 20.0925 15.0226 20.325 16.8001H22.8C23.4638 16.8001 24 16.2638 24 15.6001V14.4001C24 13.0763 22.9238 12.0001 21.6 12.0001ZM12 12.0001C14.3213 12.0001 16.2 10.1213 16.2 7.8001C16.2 5.47885 14.3213 3.6001 12 3.6001C9.67875 3.6001 7.8 5.47885 7.8 7.8001C7.8 10.1213 9.67875 12.0001 12 12.0001ZM14.88 13.2001H14.5688C13.7888 13.5751 12.9225 13.8001 12 13.8001C11.0775 13.8001 10.215 13.5751 9.43125 13.2001H9.12C6.735 13.2001 4.8 15.1351 4.8 17.5201V18.6001C4.8 19.5938 5.60625 20.4001 6.6 20.4001H17.4C18.3938 20.4001 19.2 19.5938 19.2 18.6001V17.5201C19.2 15.1351 17.265 13.2001 14.88 13.2001ZM6.49125 12.6976C6.05625 12.2663 5.46 12.0001 4.8 12.0001H2.4C1.07625 12.0001 0 13.0763 0 14.4001V15.6001C0 16.2638 0.53625 16.8001 1.2 16.8001H3.67125C3.9075 15.0226 4.98 13.5263 6.49125 12.6976Z" fill="white"/>
</svg>
