<svg width="73" height="59" viewBox="0 0 73 59" fill="none" xmlns="http://www.w3.org/2000/svg">
<path d="M67.775 24.65C63.375 20.45 58.5625 17.1 53.3375 14.6C48.1125 12.1 42.5 10.85 36.5 10.85C34.65 10.85 32.875 10.9625 31.175 11.1875C29.475 11.4125 28.05 11.725 26.9 12.125L21.425 6.65C23.625 5.85 26.0125 5.225 28.5875 4.775C31.1625 4.325 33.8 4.1 36.5 4.1C43.5 4.1 50.0875 5.55 56.2625 8.45C62.4375 11.35 67.85 15.175 72.5 19.925L67.775 24.65ZM55.1 37.325C53.45 35.725 51.95 34.4375 50.6 33.4625C49.25 32.4875 47.525 31.525 45.425 30.575L36.95 22.1C41.7 22.2 45.8875 23.175 49.5125 25.025C53.1375 26.875 56.575 29.4 59.825 32.6L55.1 37.325ZM60.875 58.925L31.325 29.375C28.625 30.025 26.1375 31.075 23.8625 32.525C21.5875 33.975 19.6 35.575 17.9 37.325L13.175 32.6C15.025 30.75 16.9375 29.125 18.9125 27.725C20.8875 26.325 23.25 25.075 26 23.975L17.675 15.65C15.325 16.8 13.1 18.1625 11 19.7375C8.9 21.3125 6.975 22.95 5.225 24.65L0.5 19.925C2.3 18.075 4.225 16.35 6.275 14.75C8.325 13.15 10.425 11.775 12.575 10.625L5.675 3.725L8.9 0.5L64.1 55.7L60.875 58.925ZM36.5 55.925L25.4 44.75C26.85 43.3 28.5125 42.1625 30.3875 41.3375C32.2625 40.5125 34.3 40.1 36.5 40.1C38.7 40.1 40.7375 40.5125 42.6125 41.3375C44.4875 42.1625 46.15 43.3 47.6 44.75L36.5 55.925Z" fill="#95A5A6"/>
</svg>
