<svg width="19" height="19" viewBox="0 0 19 19" fill="none" xmlns="http://www.w3.org/2000/svg">
<path d="M19 10.6809V12.1291C19 12.9961 18.2955 13.701 17.4286 13.701H16.0381C15.6834 13.701 15.3938 13.4124 15.3938 13.0567V9.75278C15.3938 9.42335 15.6436 9.15457 15.9614 9.11625C15.2555 6.20041 12.6308 4.02493 9.50049 4.02493C6.37021 4.02493 3.74498 6.20089 3.03907 9.11673C3.35734 9.15506 3.60671 9.42336 3.60671 9.75327V13.0572C3.60671 13.4129 3.31755 13.7015 2.96241 13.7015H1.57145C0.704458 13.701 0 12.9961 0 12.1291V10.6809C0 9.8144 0.704458 9.10945 1.57145 9.10945H1.71506C2.44668 5.47994 5.65847 2.73779 9.50049 2.73779C13.3425 2.73779 16.5543 5.47994 17.2859 9.10945H17.43C18.2955 9.10848 19 9.81391 19 10.6809ZM11.4431 13.7389C11.2214 14.0877 10.7731 14.3293 10.251 14.3293C9.51019 14.3293 8.90907 13.849 8.90907 13.2566C8.90907 12.6633 9.5097 12.183 10.251 12.183C10.7731 12.183 11.2214 12.4246 11.4431 12.7734H14.6714C14.9334 12.1272 15.0808 11.4213 15.0808 10.6814C15.0808 7.59865 12.5822 5.10006 9.49951 5.10006C6.41678 5.10006 3.9177 7.59914 3.9177 10.6814C3.9177 13.7641 6.41678 16.2627 9.49951 16.2627C11.4513 16.2627 13.1678 15.2594 14.1653 13.7413H11.4431V13.7389Z" fill="#737373"/>
</svg>
