<svg width="28" height="28" viewBox="0 0 28 28" fill="none" xmlns="http://www.w3.org/2000/svg">
<g filter="url(#filter0_d_132_2)">
<path d="M16.4656 14.5L20.2206 9.5L24 14.5H21.5V15.75C21.5 17.8181 19.8181 19.5 17.75 19.5H10.25C8.18187 19.5 6.5 17.8181 6.5 15.75V14.5H9V15.75C9 16.4387 9.56125 17 10.25 17H17.75C18.4388 17 19 16.4387 19 15.75V14.5H16.4656Z" fill="#737373"/>
<path d="M11.5344 7L7.77938 12L4 7H6.5V5.75C6.5 3.68187 8.18188 2 10.25 2H17.75C19.8181 2 21.5 3.68187 21.5 5.75V7H19V5.75C19 5.06125 18.4388 4.5 17.75 4.5H10.25C9.56125 4.5 9 5.06125 9 5.75V7H11.5344Z" fill="#737373"/>
</g>
<defs>
<filter id="filter0_d_132_2" x="0" y="0" width="28" height="28" filterUnits="userSpaceOnUse" color-interpolation-filters="sRGB">
<feFlood flood-opacity="0" result="BackgroundImageFix"/>
<feColorMatrix in="SourceAlpha" type="matrix" values="0 0 0 0 0 0 0 0 0 0 0 0 0 0 0 0 0 0 127 0" result="hardAlpha"/>
<feOffset dy="4"/>
<feGaussianBlur stdDeviation="2"/>
<feComposite in2="hardAlpha" operator="out"/>
<feColorMatrix type="matrix" values="0 0 0 0 0 0 0 0 0 0 0 0 0 0 0 0 0 0 0.25 0"/>
<feBlend mode="normal" in2="BackgroundImageFix" result="effect1_dropShadow_132_2"/>
<feBlend mode="normal" in="SourceGraphic" in2="effect1_dropShadow_132_2" result="shape"/>
</filter>
</defs>
</svg>
