<svg width="18" height="23" viewBox="0 0 18 23" fill="none" xmlns="http://www.w3.org/2000/svg">
<g clip-path="url(#clip0_208_123)">
<path d="M3.46695 7.81404C4.13345 10.3585 6.28308 12.7025 9.00765 12.7025C11.7727 12.7025 13.9569 10.369 14.6399 7.83131C14.8996 7.80204 15.1143 7.60388 15.1375 7.33368L15.2239 6.33092C15.2456 6.06972 15.082 5.84605 14.8441 5.76349C14.8396 5.70345 14.8381 5.64265 14.8313 5.58335C14.7803 3.28511 14.381 1.42971 12.5721 0.662627C10.6626 -0.146485 8.97988 -0.157744 7.74444 0.32262C7.66338 0.354894 7.45397 0.633355 7.37216 0.683643C7.29034 0.733931 6.85727 0.591323 6.69289 0.629602C3.98334 1.0169 3.08941 3.56958 3.28681 5.56009C3.28081 5.61563 3.27706 5.67192 3.27255 5.72821C3.0106 5.79351 2.82296 6.03144 2.84698 6.30915L2.93254 7.31191C2.95731 7.59563 3.18999 7.80128 3.46695 7.81404ZM4.04414 5.82804C5.23079 5.39346 7.51326 4.48452 7.76095 4.00716C8.79899 5.08573 12.4648 5.69144 14.074 5.89334C14.0807 5.99767 14.0897 6.09899 14.0897 6.20407C14.0897 8.84983 11.8696 11.9257 9.00765 11.9257C6.15624 11.9257 4.02537 8.90537 4.02537 6.20407C4.02462 6.07723 4.03438 5.95339 4.04414 5.82804Z" fill="#737373"/>
<path d="M13.3736 11.7905C13.231 11.7687 13.0914 11.801 12.9998 11.8378L10.7174 14.9249L8.98581 13.5438L8.9753 13.5528V13.5626L8.97305 13.5603L7.24149 14.9414L4.95901 11.8543C4.86819 11.8168 4.72783 11.7845 4.58522 11.8063C0.273207 12.4142 0 22.1536 0 22.1536L8.98355 22.1596V22.1438L17.9589 22.1378C17.9589 22.1378 17.6849 12.3985 13.3736 11.7905Z" fill="#737373"/>
</g>
<defs>
<clipPath id="clip0_208_123">
<rect width="18" height="23" fill="white"/>
</clipPath>
</defs>
</svg>
