<svg width="20" height="26" viewBox="0 0 20 26" fill="none" xmlns="http://www.w3.org/2000/svg">
<g clip-path="url(#clip0_347_4)">
<path d="M3.85217 8.83326C4.59272 11.7096 6.9812 14.3593 10.0085 14.3593C13.0808 14.3593 15.5077 11.7215 16.2666 8.85278C16.5551 8.8197 16.7937 8.59569 16.8194 8.29025L16.9154 7.15669C16.9396 6.86142 16.7578 6.60858 16.4934 6.51525C16.4884 6.44738 16.4868 6.37865 16.4792 6.31161C16.4226 3.7136 15.9789 1.61619 13.969 0.749057C11.8473 -0.165592 9.97764 -0.178319 8.60493 0.364701C8.51487 0.401184 8.28219 0.715966 8.19129 0.772814C8.10038 0.829661 7.61919 0.668452 7.43654 0.711724C4.42593 1.14954 3.43268 4.03518 3.65201 6.28532C3.64534 6.3481 3.64118 6.41174 3.63617 6.47537C3.34511 6.54919 3.13662 6.81815 3.16331 7.13208L3.25838 8.26564C3.2859 8.58636 3.54443 8.81884 3.85217 8.83326ZM4.49349 6.58822C5.81199 6.09695 8.34807 5.06946 8.62328 4.52983C9.77666 5.74909 13.8498 6.4338 15.6378 6.66204C15.6452 6.77997 15.6552 6.89451 15.6552 7.0133C15.6552 10.0042 13.1884 13.4812 10.0085 13.4812C6.84027 13.4812 4.47263 10.0669 4.47263 7.0133C4.4718 6.86991 4.48264 6.72992 4.49349 6.58822Z" fill="#737373"/>
<path d="M14.8596 13.3284C14.7011 13.3038 14.546 13.3403 14.4442 13.3819L11.9082 16.8717L9.98423 15.3104L9.97256 15.3206V15.3317L9.97006 15.3291L8.0461 16.8903L5.51001 13.4005C5.4091 13.3581 5.25314 13.3216 5.09469 13.3463C0.303563 14.0335 0 25.0432 0 25.0432L9.98172 25.05V25.0322L19.9543 25.0254C19.9543 25.0254 19.6499 14.0157 14.8596 13.3284Z" fill="#737373"/>
</g>
<defs>
<clipPath id="clip0_347_4">
<rect width="20" height="26" fill="white"/>
</clipPath>
</defs>
</svg>
