<svg width="60" height="60" viewBox="0 0 60 60" fill="none" xmlns="http://www.w3.org/2000/svg">
<g clip-path="url(#clip0_331_2)">
<path d="M52.9552 22.8252C52.7774 16.8522 50.2796 11.1833 45.9918 7.0211C41.7039 2.85892 35.9633 0.53087 29.9875 0.530762C24.0118 0.530653 18.2711 2.8585 13.9831 7.02052C9.69506 11.1825 7.19711 16.8513 7.01907 22.8244C2.67182 23.7674 0.226807 27.6757 0.226807 33.8674C0.226807 41.0262 3.49525 45.1326 9.19353 45.1326C9.80094 45.1326 10.3837 44.8922 10.8144 44.464C11.2452 44.0357 11.489 43.4544 11.4926 42.847L11.6071 23.5215C11.6071 21.105 12.0832 18.7122 13.0083 16.4798C13.9334 14.2475 15.2893 12.2192 16.9986 10.5111C18.7079 8.80299 20.737 7.44843 22.97 6.52484C25.203 5.60126 27.5962 5.12676 30.0126 5.12845C32.4291 5.13015 34.8216 5.60801 37.0533 6.53473C39.285 7.46144 41.3122 8.81885 43.0191 10.5294C44.726 12.2399 46.0791 14.27 47.0011 16.5037C47.923 18.7374 48.3958 21.1309 48.3923 23.5473L48.6225 43.9831C48.6225 49.0221 43.759 51.7144 34.1712 52.0013C33.5989 51.0684 32.731 50.3537 31.7055 49.9711C30.6801 49.5884 29.5561 49.5599 28.5125 49.8899C27.469 50.2199 26.5658 50.8896 25.9469 51.7923C25.3279 52.6949 25.0287 53.7787 25.0969 54.8711C25.1651 55.9635 25.5968 57.0017 26.3233 57.8203C27.0498 58.639 28.0292 59.191 29.1057 59.3887C30.1823 59.5863 31.2939 59.4181 32.2638 58.9109C33.2337 58.4036 34.006 57.5865 34.4578 56.5896C49.0726 56.0887 52.831 50.1934 53.1884 44.8508C57.4009 43.8232 59.7732 39.9468 59.7732 33.8674C59.7732 27.665 57.3161 23.7599 52.9552 22.8252Z" fill="#737373"/>
<path d="M30.151 17C34.61 17 39 19.0712 39 24.0253C39 28.5938 33.8093 30.3507 32.6946 32.0015C31.8577 33.2295 32.1372 34.9549 29.8378 34.9549C28.34 34.9549 27.6083 33.7261 27.6083 32.6018C27.6083 28.418 33.7033 27.4711 33.7033 24.0261C33.7033 22.1299 32.4521 21.0055 30.3607 21.0055C25.9016 21.0055 27.6428 25.6421 24.2657 25.6421C23.0465 25.6421 22 24.9041 22 23.4996C21.9992 20.0537 25.9 17 30.151 17ZM29.9776 37.2359C31.5428 37.2359 32.8343 38.5343 32.8343 40.1179C32.8343 41.7016 31.5453 43 29.9776 43C28.4098 43 27.12 41.7032 27.12 40.1179C27.12 38.5351 28.4098 37.2359 29.9776 37.2359Z" fill="#737373"/>
</g>
<defs>
<clipPath id="clip0_331_2">
<rect width="60" height="60" fill="white"/>
</clipPath>
</defs>
</svg>
