<svg width="214" height="214" viewBox="0 0 214 214" fill="none" xmlns="http://www.w3.org/2000/svg">
<g filter="url(#filter0_dd_1330_8232)">
<rect x="31" y="30" width="150" height="150" rx="12" fill="white"/>
<rect x="31.2" y="30.2" width="149.6" height="149.6" rx="11.8" stroke="black" stroke-opacity="0.15" stroke-width="0.4"/>
</g>
<path d="M133.333 121.333H100C98.2319 121.333 96.5362 120.631 95.286 119.381C94.0357 118.13 93.3333 116.435 93.3333 114.667V74.6667C93.3333 72.8986 94.0357 71.2029 95.286 69.9526C96.5362 68.7024 98.2319 68 100 68H103.333V84.6667L110 79.6667L116.667 84.6667V68H133.333C135.101 68 136.797 68.7024 138.047 69.9526C139.298 71.2029 140 72.8986 140 74.6667V114.667C140 116.435 139.298 118.13 138.047 119.381C136.797 120.631 135.101 121.333 133.333 121.333ZM126.667 128V134.667H86.6667C84.8986 134.667 83.2029 133.964 81.9526 132.714C80.7024 131.464 80 129.768 80 128V81.3333H86.6667V128H126.667Z" fill="#121212" fill-opacity="0.6"/>
<defs>
<filter id="filter0_dd_1330_8232" x="0" y="0" width="214" height="214" filterUnits="userSpaceOnUse" color-interpolation-filters="sRGB">
<feFlood flood-opacity="0" result="BackgroundImageFix"/>
<feColorMatrix in="SourceAlpha" type="matrix" values="0 0 0 0 0 0 0 0 0 0 0 0 0 0 0 0 0 0 127 0" result="hardAlpha"/>
<feOffset dx="1" dy="2"/>
<feGaussianBlur stdDeviation="16"/>
<feComposite in2="hardAlpha" operator="out"/>
<feColorMatrix type="matrix" values="0 0 0 0 0 0 0 0 0 0 0 0 0 0 0 0 0 0 0.02 0"/>
<feBlend mode="normal" in2="BackgroundImageFix" result="effect1_dropShadow_1330_8232"/>
<feColorMatrix in="SourceAlpha" type="matrix" values="0 0 0 0 0 0 0 0 0 0 0 0 0 0 0 0 0 0 127 0" result="hardAlpha"/>
<feOffset dy="4"/>
<feGaussianBlur stdDeviation="2"/>
<feComposite in2="hardAlpha" operator="out"/>
<feColorMatrix type="matrix" values="0 0 0 0 0 0 0 0 0 0 0 0 0 0 0 0 0 0 0.25 0"/>
<feBlend mode="normal" in2="effect1_dropShadow_1330_8232" result="effect2_dropShadow_1330_8232"/>
<feBlend mode="normal" in="SourceGraphic" in2="effect2_dropShadow_1330_8232" result="shape"/>
</filter>
</defs>
</svg>
