<svg width="54" height="58" viewBox="0 0 54 58" fill="none" xmlns="http://www.w3.org/2000/svg">
<path d="M25.5789 48.8158C25.5789 51.9421 26.4316 54.8411 27.8811 57.3421H5.68421C2.52947 57.3421 0 54.8126 0 51.6579V6.18421C0 3.05789 2.52947 0.5 5.68421 0.5H8.52632V20.3947L15.6316 16.1316L22.7368 20.3947V0.5H39.7895C42.9158 0.5 45.4737 3.02947 45.4737 6.18421V32.0189C44.5358 31.8768 43.5979 31.7632 42.6316 31.7632C33.2242 31.7632 25.5789 39.4084 25.5789 48.8158ZM54 48.8158L45.4737 40.2895V45.9737H34.1053V51.6579H45.4737V57.3421L54 48.8158Z" fill="#121212" fill-opacity="0.6"/>
</svg>
