<svg width="67" height="47" viewBox="0 0 67 47" fill="none" xmlns="http://www.w3.org/2000/svg">
<path d="M0 46.575V39.525C0 37.775 0.45 36.1875 1.35 34.7625C2.25 33.3375 3.5 32.275 5.1 31.575C8.75 29.975 12.0375 28.825 14.9625 28.125C17.8875 27.425 20.9 27.075 24 27.075C27.1 27.075 30.1 27.425 33 28.125C35.9 28.825 39.175 29.975 42.825 31.575C44.425 32.275 45.6875 33.3375 46.6125 34.7625C47.5375 36.1875 48 37.775 48 39.525V46.575H0ZM52.5 46.575V39.525C52.5 36.375 51.7 33.7875 50.1 31.7625C48.5 29.7375 46.4 28.1 43.8 26.85C47.25 27.25 50.5 27.8375 53.55 28.6125C56.6 29.3875 59.075 30.275 60.975 31.275C62.625 32.225 63.925 33.4 64.875 34.8C65.825 36.2 66.3 37.775 66.3 39.525V46.575H52.5ZM24 22.5C20.7 22.5 18 21.45 15.9 19.35C13.8 17.25 12.75 14.55 12.75 11.25C12.75 7.95 13.8 5.25 15.9 3.15C18 1.05 20.7 0 24 0C27.3 0 30 1.05 32.1 3.15C34.2 5.25 35.25 7.95 35.25 11.25C35.25 14.55 34.2 17.25 32.1 19.35C30 21.45 27.3 22.5 24 22.5ZM51 11.25C51 14.55 49.95 17.25 47.85 19.35C45.75 21.45 43.05 22.5 39.75 22.5C39.2 22.5 38.5875 22.4625 37.9125 22.3875C37.2375 22.3125 36.625 22.175 36.075 21.975C37.275 20.725 38.1875 19.1875 38.8125 17.3625C39.4375 15.5375 39.75 13.5 39.75 11.25C39.75 9 39.4375 7.0125 38.8125 5.2875C38.1875 3.5625 37.275 1.975 36.075 0.525001C36.625 0.375001 37.2375 0.250001 37.9125 0.150001C38.5875 0.0500006 39.2 0 39.75 0C43.05 0 45.75 1.05 47.85 3.15C49.95 5.25 51 7.95 51 11.25ZM4.5 42.075H43.5V39.525C43.5 38.725 43.2625 37.95 42.7875 37.2C42.3125 36.45 41.725 35.925 41.025 35.625C37.425 34.025 34.4 32.95 31.95 32.4C29.5 31.85 26.85 31.575 24 31.575C21.15 31.575 18.4875 31.85 16.0125 32.4C13.5375 32.95 10.5 34.025 6.9 35.625C6.2 35.925 5.625 36.45 5.175 37.2C4.725 37.95 4.5 38.725 4.5 39.525V42.075ZM24 18C25.95 18 27.5625 17.3625 28.8375 16.0875C30.1125 14.8125 30.75 13.2 30.75 11.25C30.75 9.3 30.1125 7.6875 28.8375 6.4125C27.5625 5.1375 25.95 4.5 24 4.5C22.05 4.5 20.4375 5.1375 19.1625 6.4125C17.8875 7.6875 17.25 9.3 17.25 11.25C17.25 13.2 17.8875 14.8125 19.1625 16.0875C20.4375 17.3625 22.05 18 24 18Z" fill="black" fill-opacity="0.6"/>
</svg>
