<svg width="25" height="13" viewBox="0 0 25 13" fill="none" xmlns="http://www.w3.org/2000/svg">
<path fill-rule="evenodd" clip-rule="evenodd" d="M17.7373 8.54911L18.0498 8.54094L18.3102 8.53439C18.0059 7.5955 18.1084 6.73349 18.8376 6.00069C18.9613 6.40307 19.2396 6.73512 19.7116 6.98048C19.9378 7.14895 20.1559 7.35342 20.3675 7.58732C20.4049 7.43193 20.2633 7.24382 20.0892 7.04918C20.2503 7.12933 20.3968 7.24055 20.5026 7.45483C20.6246 7.70346 20.623 7.91446 20.5823 8.18272C20.5628 8.30867 20.5335 8.4248 20.4895 8.53276H20.9209C21.3766 7.55134 21.0869 6.09556 20.1543 5.4789C19.8678 5.2908 19.6627 5.29734 19.3275 5.29734C18.9434 5.29734 18.7464 5.30879 18.4176 5.52797C17.9326 5.85021 17.6348 6.40798 17.5095 7.1833C17.485 7.57096 17.4671 8.23833 17.7373 8.54911ZM2.5 12.0283C2.53743 10.9683 4.14547 10.9258 5.13178 10.3075L5.79258 12.0283H2.5ZM7.12881 11.4459H7.25902C7.3762 11.4459 7.47223 11.3494 7.47223 11.2317V10.8849C7.47223 10.7671 7.3762 10.6706 7.25902 10.6706H6.48755C6.37036 10.6706 6.27434 10.7671 6.27434 10.8849V11.2317C6.27434 11.3494 6.37036 11.4459 6.48755 11.4459H6.61938L6.50545 12.0283H7.23949L7.12881 11.4459ZM5.77956 9.55998C5.80397 9.35879 5.21316 8.69633 5.10411 8.32993C4.873 7.96026 4.78999 7.57587 5.04227 7.18494C5.14318 7.02955 5.10086 6.60917 5.10086 6.3949C5.10086 4.26848 8.80847 4.26685 8.80847 6.3949C8.80847 6.66315 8.74662 7.01319 8.89147 7.22583C9.13398 7.57914 9.00866 8.00279 8.80358 8.33157C8.67338 8.71759 8.05327 9.34243 8.09559 9.56161C8.13302 10.651 5.77142 10.615 5.77956 9.55998ZM11.8781 9.14287L12.8058 11.8827L13.2729 10.2568L13.0434 10.0065C12.9392 9.8544 12.9181 9.72355 12.975 9.60905C13.0987 9.36369 13.3543 9.40786 13.5935 9.40786C13.8442 9.40786 14.155 9.36042 14.2332 9.67611C14.2592 9.78243 14.2267 9.89202 14.1534 10.0065L13.9239 10.2568L14.391 11.8827L15.2309 9.14287C16.323 10.1325 18.5251 9.55343 18.792 12.0283H8.02398C8.30392 9.42094 10.7762 10.1407 11.8781 9.14287ZM11.1212 5.51489C11.1261 5.66864 11.2059 5.87147 11.3638 6.10538L11.367 6.10865L11.8862 6.93631C12.0945 7.26836 12.3094 7.60368 12.5795 7.85067C12.8351 8.08621 13.1476 8.24651 13.5577 8.24651C14.0037 8.24815 14.3276 8.0813 14.5929 7.83268C14.8695 7.5726 15.0893 7.21438 15.3057 6.85616L15.8884 5.89274C16.0072 5.62121 16.043 5.456 16.004 5.37585C15.9828 5.33005 15.9014 5.3137 15.7712 5.32024C15.6817 5.34641 15.5759 5.34478 15.4522 5.31043L15.6882 4.40098C13.8604 4.59072 12.8318 2.8716 11.5298 4.17852L11.7023 5.25481C11.4907 5.29898 11.1082 5.16158 11.1212 5.51489ZM16.0414 5.00946C16.1635 5.04708 16.253 5.11741 16.3067 5.22701C16.3946 5.40366 16.3588 5.66537 16.1944 6.04158C16.1911 6.04813 16.1879 6.05467 16.1846 6.06121L15.5938 7.03773C15.3643 7.41557 15.1332 7.79506 14.8223 8.08785C14.5001 8.39209 14.0997 8.59655 13.5545 8.59328C13.045 8.59164 12.6609 8.39699 12.3468 8.10747C12.0441 7.82941 11.8146 7.47282 11.5949 7.12278L11.0773 6.29512C10.8852 6.00724 10.786 5.74389 10.7795 5.52634C10.7762 5.42165 10.7941 5.32842 10.8332 5.24336C10.8739 5.15667 10.9357 5.08143 11.0203 5.02418C11.061 4.99801 11.1082 4.97347 11.1571 4.95548C11.1245 4.50893 11.1131 3.95607 11.1359 3.49153C11.1473 3.37866 11.1684 3.2658 11.1994 3.15294C11.3312 2.67695 11.6649 2.29583 12.075 2.03085C12.2199 1.93925 12.3777 1.86073 12.547 1.80021C13.5431 1.43872 14.8614 1.63501 15.5678 2.40379C15.8559 2.7162 16.0365 3.13167 16.0756 3.68127L16.0414 5.00946ZM18.9254 10.3337L19.1582 9.51909L19.0443 9.39314C18.9922 9.31789 18.9824 9.25083 19.0101 9.19522C19.0719 9.07254 19.2005 9.09544 19.3193 9.09544C19.4446 9.09544 19.5993 9.0709 19.6383 9.22957C19.6513 9.28191 19.6351 9.33752 19.5993 9.39477L19.4853 9.52072L19.7181 10.3353L19.3209 10.651L18.9254 10.3337ZM21.0136 10.0507C20.8362 9.69411 20.6132 9.3915 20.3512 9.10852C20.8427 9.2999 21.3456 9.48801 21.7167 9.72355C21.9527 9.8724 22.0764 9.98526 22.1708 10.1652C22.3743 10.5496 22.3971 10.8931 22.4264 11.3102L22.498 12.0299H19.6253C19.5472 11.6978 19.5049 11.4198 19.3421 11.0517C19.8369 10.5578 20.3675 10.1586 21.0136 10.0507ZM17.4899 9.42912C17.765 9.30808 18.0482 9.20339 18.2956 9.10852C18.154 9.26228 18.0238 9.42094 17.9066 9.58942C17.7748 9.53381 17.6348 9.47983 17.4899 9.42912Z" fill="#737373"/>
</svg>
