<svg width="24" height="27" viewBox="0 0 24 27" fill="none" xmlns="http://www.w3.org/2000/svg">
<g clip-path="url(#clip0_348_7)">
<path fill-rule="evenodd" clip-rule="evenodd" d="M11.7125 26.1648V20.2739C11.2129 19.5822 10.4972 19.0799 9.68058 18.8479C8.73379 18.5513 7.73542 18.4607 6.75136 18.582L6.70127 24.919C7.68735 24.8868 8.67262 25.0046 9.62396 25.2683C10.3587 25.4712 11.0616 25.7766 11.7125 26.1758V26.1648ZM17.608 19.9422C17.6067 19.9231 17.6067 19.904 17.608 19.885C17.6058 19.8668 17.6058 19.8483 17.608 19.8301V18.5974C16.6101 18.504 15.6037 18.6054 14.6439 18.8963C13.8318 19.1278 13.112 19.6104 12.5858 20.2761V26.2285C13.3055 25.8081 14.0696 25.4705 14.8639 25.2222C15.7505 24.9418 16.6806 24.8279 17.608 24.886V19.9422ZM18.612 26.1472C17.7187 25.9629 16.8101 25.8643 15.8984 25.8528C14.7289 25.8528 13.5615 26.4944 12.3898 26.9382C12.3131 26.9783 12.228 26.9992 12.1416 26.9992C12.0552 26.9992 11.97 26.9783 11.8933 26.9382C10.7194 26.4988 9.54991 25.8396 8.38476 25.8528C7.46506 25.8634 6.54843 25.962 5.64719 26.1472C5.64719 25.1497 5.66461 24.2993 5.69292 23.5105H0C0.476951 21.7263 0.348457 20.5662 1.23702 18.8809C1.59855 18.1953 2.06243 17.7713 2.95535 17.2044C4.35572 16.3145 6.25481 15.6004 8.1147 14.8731C7.83811 16.3386 8.34991 17.3406 9.22759 17.9492C9.4842 18.0017 9.73791 18.0677 9.98766 18.147C10.3655 18.2687 10.7304 18.4285 11.0766 18.6238C12.0213 18.7522 12.9825 18.6666 13.8904 18.3733C14.0167 18.3228 14.143 18.2744 14.2715 18.2327C15.7198 17.6306 16.6476 16.4463 15.894 14.8731C17.7452 15.6004 19.6399 16.3145 21.0446 17.2044C21.9376 17.7713 22.4015 18.1953 22.763 18.8809C23.6537 20.5662 23.5209 21.7263 24 23.5105H18.5837C18.5989 24.2883 18.612 25.1343 18.612 26.1472ZM6.57713 9.60402C6.74483 9.136 6.99746 8.98659 7.33285 8.99538L7.11506 8.84596C6.99746 7.34084 7.34809 4.7217 5.72559 4.23171C8.79202 0.397477 12.3332 -1.68773 14.9924 1.72023C18.1917 1.88942 19.4788 7.02223 16.9263 9.19094C16.9263 9.23488 16.9263 9.27883 16.9111 9.32277C17.0066 9.29067 17.1051 9.26858 17.2051 9.25685C17.385 9.24035 17.566 9.27458 17.7278 9.35573C17.9013 9.44862 18.0318 9.60637 18.0915 9.79518C18.1603 10.0491 18.155 10.3177 18.0762 10.5686C18.0772 10.5796 18.0772 10.5906 18.0762 10.6016L17.6864 11.7134V11.7332C17.6407 11.8903 17.5488 12.0298 17.4229 12.1331C17.2664 12.2457 17.0729 12.2929 16.8828 12.2649C16.8458 12.2671 16.8087 12.2671 16.7717 12.2649C16.7456 13.5393 16.1183 14.1238 15.3191 14.8906L15.0054 15.1785C14.1887 15.9739 13.2936 16.3606 12.392 16.3606C11.4904 16.3606 10.5408 15.9629 9.68058 15.1895C9.59347 15.1104 9.4824 15.0137 9.37568 14.9214L9.35826 14.9038C8.57423 14.2227 7.92087 13.647 7.79673 12.2671H7.72704C7.56187 12.267 7.39962 12.2231 7.25662 12.1397C7.0301 11.9904 6.85508 11.7739 6.75572 11.52C6.63474 11.2191 6.56551 10.8996 6.551 10.5752C6.551 10.4763 6.551 10.2786 6.551 10.0896C6.551 9.90065 6.56189 9.7798 6.57495 9.69191C6.57917 9.66645 6.58573 9.64144 6.59456 9.61721L6.57713 9.60402ZM7.88385 9.75344C7.52015 9.62599 7.26316 9.56447 7.16298 9.79518C7.10635 10.3621 7.06715 11.876 7.98185 11.6013C8.0114 11.5916 8.04224 11.5864 8.07332 11.586C8.11336 11.5851 8.15319 11.5922 8.19051 11.6068C8.22783 11.6215 8.26193 11.6434 8.29085 11.6714C8.31977 11.6993 8.34295 11.7328 8.35906 11.7698C8.37518 11.8067 8.38391 11.8466 8.38476 11.887C8.41525 13.2647 9.01633 13.8008 9.75245 14.438L9.77205 14.4534L10.077 14.7215C10.824 15.3806 11.6015 15.7388 12.3833 15.7388C13.1652 15.7388 13.8838 15.4158 14.5917 14.7346C14.7027 14.6248 14.8094 14.5281 14.9053 14.4336C15.6871 13.6931 16.2621 13.1482 16.151 11.8189C16.1472 11.7616 16.1592 11.7044 16.1858 11.6536C16.2123 11.6028 16.2524 11.5604 16.3014 11.5313C16.3504 11.5021 16.4065 11.4873 16.4634 11.4884C16.5203 11.4895 16.5757 11.5065 16.6236 11.5376C16.6748 11.5721 16.7295 11.6009 16.7869 11.6233C16.8295 11.6398 16.8743 11.6494 16.9198 11.6519C16.963 11.6596 17.0072 11.6596 17.0505 11.6519C17.0722 11.6343 18.2156 8.99318 16.7303 10.0896C16.683 10.131 16.6242 10.1568 16.5619 10.1633C16.4996 10.1698 16.4369 10.1569 16.3821 10.1261C16.3274 10.0954 16.2834 10.0484 16.2561 9.99157C16.2287 9.93471 16.2194 9.87075 16.2294 9.80837C16.5169 8.11647 16.384 7.01564 16.0269 6.26418C15.7337 5.67626 15.259 5.20044 14.6744 4.90846C13.4679 5.83351 12.6316 5.93239 11.78 6.04445C10.9486 6.09739 10.1477 6.38018 9.46497 6.86183C9.06565 7.12468 8.76034 7.50972 8.59383 7.96047C8.43924 8.45968 8.42717 8.99273 8.55898 9.49855C8.57053 9.55564 8.56678 9.61481 8.54809 9.66994C8.52014 9.7461 8.46346 9.80802 8.39043 9.84219C8.3174 9.87635 8.23394 9.87999 8.15826 9.85231L8.10817 9.83473L7.89038 9.75344H7.88385Z" fill="#737373"/>
</g>
<defs>
<clipPath id="clip0_348_7">
<rect width="24" height="27" fill="white"/>
</clipPath>
</defs>
</svg>
