<svg width="20" height="24" viewBox="0 0 20 24" fill="none" xmlns="http://www.w3.org/2000/svg">
<path d="M17.0001 21.483H17.1501V21.333V8.49967V8.34968H17.0001H11.3167V2.66634V2.51634H11.1667H3.00008H2.85008V2.66634V21.333V21.483H3.00008H17.0001ZM7.31677 18.6847L8.0456 15.7694L8.06799 15.6798L7.99812 15.6195L5.70716 13.6409L8.72707 13.4327L8.82037 13.4262L8.85566 13.3396L10.0027 10.5242L11.1453 13.2248L11.1812 13.3096L11.2731 13.316L14.293 13.5243L12.002 15.5028L11.9322 15.5632L11.9546 15.6527L12.687 18.5824L10.0734 17.1188L9.99749 17.0763L9.92291 17.1211L7.31677 18.6847ZM3.00008 0.483008H12.2713L19.1834 7.39514V21.333C19.1834 22.5335 18.2006 23.5163 17.0001 23.5163H3.00008C1.79959 23.5163 0.816748 22.5335 0.816748 21.333V2.66634C0.816748 1.46585 1.79959 0.483008 3.00008 0.483008Z" fill="#121212" fill-opacity="0.5" stroke="white" stroke-width="0.3"/>
</svg>
