<svg width="20" height="20" viewBox="0 0 20 20" fill="none" xmlns="http://www.w3.org/2000/svg">
<path d="M10 0C4.48 0 0 4.48 0 10C0 15.52 4.48 20 10 20C15.52 20 20 15.52 20 10C20 4.48 15.52 0 10 0ZM6.46 12.45L5.1 11.83C5.38 11.22 5.51 10.59 5.5 9.97C5.49 9.34 5.36 8.73 5.1 8.17L6.46 7.54C6.81 8.29 6.99 9.1 7 9.94C7.01 10.8 6.83 11.64 6.46 12.45ZM9.53 14.01L8.23 13.27C8.75 12.35 9.01 11.29 9.01 10.12C9.01 8.93 8.74 7.79 8.21 6.72L9.55 6.05C10.19 7.33 10.51 8.7 10.51 10.12C10.51 11.55 10.18 12.86 9.53 14.01ZM12.67 15.33L11.32 14.67C12.1 13.07 12.5 11.49 12.5 9.98C12.5 8.47 12.1 6.91 11.32 5.34L12.66 4.67C13.56 6.45 14 8.23 14 9.98C14 11.72 13.56 13.52 12.67 15.33Z" fill="#002BBE"/>
</svg>
