<svg width="24" height="20" viewBox="0 0 24 20" fill="none" xmlns="http://www.w3.org/2000/svg">
<path d="M17.3913 5.70841L22.1499 0.949836L23.5004 2.30033L17.2499 8.55081L13.4494 4.75033L14.7999 3.39983L17.1085 5.70841L17.2499 5.84983L17.3913 5.70841ZM22.2171 11.6337L19.3252 14.5256L19.1837 14.667L19.3252 14.8084L22.2171 17.7003L20.8666 19.0508L17.9747 16.1589L17.8333 16.0175L17.6918 16.1589L14.7999 19.0508L13.4494 17.7003L16.3413 14.8084L16.4828 14.667L16.3413 14.5256L13.4494 11.6337L14.7999 10.2832L17.6918 13.1751L17.8333 13.3165L17.9747 13.1751L20.8666 10.2832L22.2171 11.6337ZM0.533252 6.30033V4.36699H10.6333V6.30033H0.533252ZM0.533252 15.6337V13.7003H10.6333V15.6337H0.533252Z" fill="#121212" fill-opacity="0.6" stroke="white" stroke-width="0.4"/>
</svg>
