<svg width="42" height="42" viewBox="0 0 42 42" fill="none" xmlns="http://www.w3.org/2000/svg">
<circle cx="21" cy="21" r="21" fill="#001A72" fill-opacity="0.15"/>
<path d="M34.417 26.834L28.5837 32.6673L24.5003 28.584L26.2503 26.834L28.5837 29.1673L32.667 25.084L34.417 26.834ZM14.0003 9.33398C12.7053 9.33398 11.667 10.3723 11.667 11.6673V30.334C11.667 31.629 12.7053 32.6673 14.0003 32.6673H23.112C22.4937 31.6057 22.167 30.3923 22.167 29.1673C22.167 28.7823 22.202 28.3857 22.2603 28.0007H14.0003V25.6673H23.112C23.6487 24.734 24.3953 23.9173 25.2937 23.334H14.0003V21.0007H28.0003V22.2607C28.3853 22.2023 28.782 22.1673 29.167 22.1673C29.5637 22.1673 29.9487 22.2023 30.3337 22.2607V16.334L23.3337 9.33398M22.167 11.084L28.5837 17.5007H22.167V11.084Z" fill="#001A72"/>
</svg>
