<svg width="61" height="61" viewBox="0 0 61 61" fill="none" xmlns="http://www.w3.org/2000/svg">
<path d="M30 60.5C25.75 60.5 21.8 59.7375 18.15 58.2125C14.5 56.6875 11.325 54.575 8.625 51.875C5.925 49.175 3.8125 46 2.2875 42.35C0.7625 38.7 0 34.75 0 30.5C0 26.3 0.7625 22.375 2.2875 18.725C3.8125 15.075 5.925 11.9 8.625 9.2C11.325 6.5 14.5 4.375 18.15 2.825C21.8 1.275 25.75 0.5 30 0.5C33.75 0.5 37.25 1.1 40.5 2.3C43.75 3.5 46.675 5.15 49.275 7.25L46.05 10.475C43.85 8.725 41.4 7.375 38.7 6.425C36 5.475 33.1 5 30 5C22.75 5 16.6875 7.4375 11.8125 12.3125C6.9375 17.1875 4.5 23.25 4.5 30.5C4.5 37.75 6.9375 43.8125 11.8125 48.6875C16.6875 53.5625 22.75 56 30 56C37.25 56 43.3125 53.5625 48.1875 48.6875C53.0625 43.8125 55.5 37.75 55.5 30.5C55.5 29 55.3875 27.5375 55.1625 26.1125C54.9375 24.6875 54.6 23.3 54.15 21.95L57.6 18.5C58.4 20.35 59 22.275 59.4 24.275C59.8 26.275 60 28.35 60 30.5C60 34.75 59.225 38.7 57.675 42.35C56.125 46 54 49.175 51.3 51.875C48.6 54.575 45.425 56.6875 41.775 58.2125C38.125 59.7375 34.2 60.5 30 60.5ZM25.575 44.15L13.2 31.7L16.575 28.325L25.575 37.325L56.625 6.275L60.075 9.65L25.575 44.15Z" fill="black" fill-opacity="0.6"/>
</svg>
