<svg width="65" height="20" viewBox="0 0 65 20" fill="none" xmlns="http://www.w3.org/2000/svg">
<path d="M26.6676 14L24.2472 5.27273H25.6321L27.3324 12.0312H27.4134L29.1818 5.27273H30.554L32.3224 12.0355H32.4034L34.0994 5.27273H35.4886L33.0639 14H31.7386L29.902 7.46307H29.8338L27.9972 14H26.6676ZM36.587 14V7.45455H37.8612V14H36.587ZM37.2305 6.4446C37.0089 6.4446 36.8185 6.37074 36.6594 6.22301C36.5032 6.07244 36.4251 5.89347 36.4251 5.68608C36.4251 5.47585 36.5032 5.29687 36.6594 5.14915C36.8185 4.99858 37.0089 4.9233 37.2305 4.9233C37.4521 4.9233 37.641 4.99858 37.7972 5.14915C37.9563 5.29687 38.0359 5.47585 38.0359 5.68608C38.0359 5.89347 37.9563 6.07244 37.7972 6.22301C37.641 6.37074 37.4521 6.4446 37.2305 6.4446ZM40.8494 10.1136V14H39.5753V7.45455H40.7983V8.51989H40.8793C41.0298 8.1733 41.2656 7.89489 41.5866 7.68466C41.9105 7.47443 42.3182 7.36932 42.8097 7.36932C43.2557 7.36932 43.6463 7.46307 43.9815 7.65057C44.3168 7.83523 44.5767 8.1108 44.7614 8.47727C44.946 8.84375 45.0384 9.29687 45.0384 9.83665V14H43.7642V9.99006C43.7642 9.51562 43.6406 9.14489 43.3935 8.87784C43.1463 8.60795 42.8068 8.47301 42.375 8.47301C42.0795 8.47301 41.8168 8.53693 41.5866 8.66477C41.3594 8.79261 41.179 8.98011 41.0455 9.22727C40.9148 9.47159 40.8494 9.76705 40.8494 10.1136ZM48.0213 10.1136V14H46.7472V7.45455H47.9702V8.51989H48.0511C48.2017 8.1733 48.4375 7.89489 48.7585 7.68466C49.0824 7.47443 49.4901 7.36932 49.9815 7.36932C50.4276 7.36932 50.8182 7.46307 51.1534 7.65057C51.4886 7.83523 51.7486 8.1108 51.9332 8.47727C52.1179 8.84375 52.2102 9.29687 52.2102 9.83665V14H50.9361V9.99006C50.9361 9.51562 50.8125 9.14489 50.5653 8.87784C50.3182 8.60795 49.9787 8.47301 49.5469 8.47301C49.2514 8.47301 48.9886 8.53693 48.7585 8.66477C48.5313 8.79261 48.3509 8.98011 48.2173 9.22727C48.0866 9.47159 48.0213 9.76705 48.0213 10.1136ZM56.7401 14.1321C56.0952 14.1321 55.5398 13.9943 55.0739 13.7188C54.6108 13.4403 54.2528 13.0497 54 12.5469C53.75 12.0412 53.625 11.4489 53.625 10.7699C53.625 10.0994 53.75 9.50852 54 8.99716C54.2528 8.4858 54.6051 8.08665 55.0568 7.79972C55.5114 7.51278 56.0426 7.36932 56.6506 7.36932C57.0199 7.36932 57.3778 7.4304 57.7244 7.55256C58.071 7.67472 58.3821 7.86648 58.6577 8.12784C58.9332 8.3892 59.1506 8.72869 59.3097 9.14631C59.4688 9.56108 59.5483 10.0653 59.5483 10.6591V11.1108H54.3452V10.1562H58.2997C58.2997 9.82102 58.2315 9.52415 58.0952 9.26562C57.9588 9.00426 57.767 8.7983 57.5199 8.64773C57.2756 8.49716 56.9886 8.42188 56.6591 8.42188C56.3011 8.42188 55.9886 8.50994 55.7216 8.68608C55.4574 8.85937 55.2528 9.08665 55.108 9.3679C54.9659 9.64631 54.8949 9.94886 54.8949 10.2756V11.0213C54.8949 11.4588 54.9716 11.831 55.125 12.1378C55.2812 12.4446 55.4986 12.679 55.777 12.8409C56.0554 13 56.3807 13.0795 56.7528 13.0795C56.9943 13.0795 57.2145 13.0455 57.4134 12.9773C57.6122 12.9062 57.7841 12.8011 57.929 12.6619C58.0739 12.5227 58.1847 12.3509 58.2614 12.1463L59.4673 12.3636C59.3707 12.7187 59.1974 13.0298 58.9474 13.2969C58.7003 13.5611 58.3892 13.767 58.0142 13.9148C57.642 14.0597 57.2173 14.1321 56.7401 14.1321ZM60.962 14V7.45455H62.1935V8.49432H62.2617C62.381 8.14205 62.5913 7.86506 62.8924 7.66335C63.1964 7.45881 63.5401 7.35653 63.9237 7.35653C64.0032 7.35653 64.0969 7.35937 64.2049 7.36506C64.3157 7.37074 64.4023 7.37784 64.4648 7.38636V8.60511C64.4137 8.59091 64.3228 8.57528 64.1921 8.55824C64.0614 8.53835 63.9308 8.52841 63.8001 8.52841C63.4989 8.52841 63.2305 8.59233 62.9947 8.72017C62.7617 8.84517 62.5771 9.01989 62.4407 9.24432C62.3043 9.46591 62.2362 9.71875 62.2362 10.0028V14H60.962Z" fill="#FCAB40"/>
<mask id="mask0_2266_2633" style="mask-type:alpha" maskUnits="userSpaceOnUse" x="0" y="0" width="20" height="20">
<rect width="20" height="20" fill="#D9D9D9"/>
</mask>
<g mask="url(#mask0_2266_2633)">
<path d="M6.66675 14.9993L10.0001 12.4577L13.3334 14.9993L12.0834 10.8743L15.4167 8.49935H11.3334L10.0001 4.16602L8.66675 8.49935H4.58341L7.91675 10.8743L6.66675 14.9993ZM10.0001 18.3327C8.8473 18.3327 7.76397 18.1138 6.75008 17.676C5.73619 17.2388 4.85425 16.6452 4.10425 15.8952C3.35425 15.1452 2.76064 14.2632 2.32341 13.2493C1.88564 12.2355 1.66675 11.1521 1.66675 9.99935C1.66675 8.84657 1.88564 7.76324 2.32341 6.74935C2.76064 5.73546 3.35425 4.85352 4.10425 4.10352C4.85425 3.35352 5.73619 2.75963 6.75008 2.32185C7.76397 1.88463 8.8473 1.66602 10.0001 1.66602C11.1529 1.66602 12.2362 1.88463 13.2501 2.32185C14.264 2.75963 15.1459 3.35352 15.8959 4.10352C16.6459 4.85352 17.2395 5.73546 17.6767 6.74935C18.1145 7.76324 18.3334 8.84657 18.3334 9.99935C18.3334 11.1521 18.1145 12.2355 17.6767 13.2493C17.2395 14.2632 16.6459 15.1452 15.8959 15.8952C15.1459 16.6452 14.264 17.2388 13.2501 17.676C12.2362 18.1138 11.1529 18.3327 10.0001 18.3327Z" fill="#FCAB40"/>
</g>
</svg>
