<svg width="49" height="36" viewBox="0 0 49 36" fill="none" xmlns="http://www.w3.org/2000/svg">
<path d="M31.3125 22.125C25.4719 22.125 13.8125 25.0344 13.8125 30.875V35.25H48.8125V30.875C48.8125 25.0344 37.1531 22.125 31.3125 22.125ZM11.625 13.375V6.8125H7.25V13.375H0.6875V17.75H7.25V24.3125H11.625V17.75H18.1875V13.375H11.625ZM31.3125 17.75C33.6331 17.75 35.8587 16.8281 37.4997 15.1872C39.1406 13.5462 40.0625 11.3206 40.0625 9C40.0625 6.67936 39.1406 4.45376 37.4997 2.81282C35.8587 1.17187 33.6331 0.25 31.3125 0.25C28.9919 0.25 26.7663 1.17187 25.1253 2.81282C23.4844 4.45376 22.5625 6.67936 22.5625 9C22.5625 11.3206 23.4844 13.5462 25.1253 15.1872C26.7663 16.8281 28.9919 17.75 31.3125 17.75Z" fill="#121212" fill-opacity="0.6"/>
</svg>
