<svg width="24" height="24" viewBox="0 0 24 24" fill="none" xmlns="http://www.w3.org/2000/svg">
<path d="M17.6223 18.0491L17.6619 18.1163L17.7397 18.1225L19.058 18.2275L19.1333 18.2335L19.1829 18.1767C20.7347 16.3998 21.5183 14.3349 21.5183 11.9997C21.5183 11.9474 21.5061 11.8975 21.4984 11.8654C21.4977 11.8629 21.4972 11.8605 21.4966 11.8582C21.4876 11.8208 21.4833 11.7989 21.4833 11.778V11.7776V11.7772V11.7768V11.7764V11.776V11.7756V11.7751V11.7747V11.7743V11.7739V11.7735V11.7731V11.7727V11.7723V11.7719V11.7715V11.7711V11.7707V11.7703V11.7699V11.7695V11.7691V11.7686V11.7682V11.7678V11.7674V11.767V11.7666V11.7662V11.7658V11.7654V11.765V11.7646V11.7642V11.7638V11.7634V11.763V11.7626V11.7622V11.7618V11.7614V11.761V11.7606V11.7602V11.7598V11.7594V11.759V11.7586V11.7582V11.7578V11.7575V11.7571V11.7567V11.7563V11.7559V11.7555V11.7551V11.7547V11.7543V11.7539V11.7535V11.7531V11.7527V11.7523V11.7519V11.7515V11.7512V11.7508V11.7504V11.75V11.7496V11.7492V11.7488V11.7484V11.748V11.7476V11.7473V11.7469V11.7465V11.7461V11.7457V11.7453V11.7449V11.7445V11.7442V11.7438V11.7434V11.743V11.7426V11.7422V11.7419V11.7415V11.7411V11.7407V11.7403V11.7399V11.7396V11.7392V11.7388V11.7384V11.738V11.7377V11.7373V11.7369V11.7365V11.7361V11.7358V11.7354V11.735V11.7346V11.7342V11.7339V11.7335V11.7331V11.7327V11.7324V11.732V11.7316V11.7312V11.7309V11.7305V11.7301V11.7297V11.7294V11.729V11.7286V11.7283V11.7279V11.7275V11.7271V11.7268V11.7264V11.726V11.7257V11.7253V11.7249V11.7245V11.7242V11.7238V11.7234V11.7231V11.7227V11.7223V11.722V11.7216V11.7212V11.7209V11.7205V11.7201V11.7198V11.7194V11.7191V11.7187V11.7183V11.718V11.7176V11.7172V11.7169V11.7165V11.7162V11.7158V11.7154V11.7151V11.7147V11.7144V11.714V11.7136V11.7133V11.7129V11.7126V11.7122V11.7119V11.7115V11.7111V11.7108V11.7104V11.7101V11.7097V11.7094V11.709V11.7087V11.7083V11.708V11.7076V11.7073V11.7069V11.7065V11.7062V11.7058V11.7055V11.7051V11.7048V11.7044V11.7041V11.7038V11.7034V11.7031V11.7027V11.7024V11.702V11.7017V11.7013V11.701V11.7006V11.7003V11.6999V11.6996V11.6993V11.6989V11.6986V11.6982V11.6979V11.6975V11.6972V11.6969V11.6965V11.6962V11.6958V11.6955V11.6952V11.6948V11.6945V11.6941V11.6938V11.6935V11.6931V11.6928V11.6925V11.6921V11.6918V11.6915V11.6911V11.6908V11.6905V11.6901V11.6898V11.6895V11.6891V11.6888V11.6885V11.6881V11.6878V11.6875V11.6871V11.6868V11.6865V11.6862V11.6858V11.6855V11.6852V11.6848V11.6845V11.6842V11.6839V11.6835V11.6832V11.6829V11.6826V11.6822V11.6819V11.6816V11.6813V11.681V11.6806V11.6803V11.68V11.6797V11.6793V11.679V11.6787V11.6784V11.6781V11.6778V11.6774V11.6771V11.6768V11.6765V11.6762V11.6759V11.6755V11.6752V11.6749V11.6746V11.6743V11.674V11.6737V11.6733V11.673V11.6727V11.6724V11.6721V11.6718V11.6715V11.6712V11.6709V11.6706V11.6702V11.6699V11.6696V11.6693V11.669V11.6687V11.6684V11.6681V11.6678V11.6675V11.6672V11.6669V11.6666V11.6663V11.666V11.6657V11.6654V11.6651V11.6648V11.6645V11.6642V11.6639V11.6636V11.6633V11.663V11.6627V11.6624V11.6621V11.6618V11.6615V11.6612V11.6609V11.6606V11.6603V11.66V11.6597V11.6594V11.6592V11.6589V11.6586V11.6583V11.658V11.6577V11.6574V11.6571V11.6568V11.6565V11.6563V11.656V11.6557V11.6554V11.6551V11.6548V11.6545V11.6543V11.654V11.6537V11.6534V11.6531V11.6528V11.6526V11.6523V11.652V11.6517V11.6514V11.6512V11.6509V11.6506V11.6503V11.65V11.6498V11.6495V11.6492V11.6489V11.6487V11.6484V11.6481V11.6478V11.6476V11.6473V11.647V11.6467V11.6465V11.6462V11.6459V11.6457V11.6454V11.6451V11.6448V11.6446V11.6443V11.644V11.6438V11.6435V11.6432V11.643V11.6427V11.6425V11.6422V11.6419V11.6417V11.6414V11.6411V11.6409V11.6406V11.6403V11.6401V11.6398V11.6396V11.6393V11.6391V11.6388V11.6385V11.6383V11.638V11.6378V11.6375V11.6373V11.637V11.6367V11.6365V11.6362V11.636V11.6357V11.6355V11.6352V11.635V11.6347V11.6345V11.6342V11.634V11.6337V11.6335V11.6332V11.633V11.6327V11.6325V11.6323V11.632V11.6318V11.6315V11.6313V11.631V11.6308V11.6306V11.6303V11.6301V11.6298V11.6296V11.6293V11.6291V11.6289V11.6286V11.6284V11.6282V11.6279V11.6277V11.6275V11.6272V11.627V11.6267V11.6265V11.6263V11.626V11.6258V11.6256V11.6254V11.6251V11.6249V11.6247V11.6244V11.6242V11.624V11.6238V11.6235V11.6233V11.6231V11.6228V11.6226V11.6224V11.6222V11.622V11.6217V11.6215V11.6213V11.6211V11.6208V11.6206V11.6204V11.6202V11.62V11.6198V11.6195V11.6193V11.6191V11.6189V11.6187V11.6185V11.6182V11.618V11.6178V11.6176V11.6174V11.6172V11.617V11.6168V11.6165V11.6163V11.6161V11.6159V11.6157V11.6155V11.6153V11.6151V11.6149V11.6147V11.5397L21.4233 11.4947L20.2566 10.6197L20.1937 10.5725L20.1192 10.5974L18.4742 11.1457L18.4031 11.1694L18.3793 11.2405L16.676 16.3388L16.6544 16.4036L16.689 16.4624L17.6223 18.0491ZM9.2329 15.548L9.26748 15.6497H9.37492H14.6249H14.7324L14.7669 15.548L16.3653 10.8463L16.4015 10.7398L16.3094 10.6752L12.0861 7.71189L11.9999 7.65143L11.9138 7.71189L7.69043 10.6752L7.59837 10.7398L7.63457 10.8463L9.2329 15.548ZM8.94682 20.9404L8.97324 20.9982L9.03314 21.0194C9.9716 21.352 10.9569 21.518 11.9999 21.518C13.0429 21.518 14.0282 21.352 14.9667 21.0194L15.0266 20.9982L15.053 20.9404L15.858 19.1787L15.8895 19.1098L15.8528 19.0436L15.1411 17.7603L15.0983 17.683H15.0099H9.04825H8.96332L8.91963 17.7558L8.14963 19.0392L8.10901 19.1069L8.14182 19.1787L8.94682 20.9404ZM4.8159 18.1755L4.86559 18.2336L4.94183 18.2275L6.26016 18.1225L6.33797 18.1163L6.37754 18.0491L7.31088 16.4624L7.34549 16.4036L7.32386 16.3388L5.62052 11.2405L5.59678 11.1694L5.52569 11.1457L3.88069 10.5974L3.80613 10.5725L3.74325 10.6197L2.57659 11.4947L2.51659 11.5397V11.6147V11.6149V11.6151V11.6153V11.6155V11.6157V11.6159V11.6161V11.6163V11.6165V11.6168V11.617V11.6172V11.6174V11.6176V11.6178V11.618V11.6182V11.6185V11.6187V11.6189V11.6191V11.6193V11.6195V11.6198V11.62V11.6202V11.6204V11.6206V11.6208V11.6211V11.6213V11.6215V11.6217V11.622V11.6222V11.6224V11.6226V11.6228V11.6231V11.6233V11.6235V11.6238V11.624V11.6242V11.6244V11.6247V11.6249V11.6251V11.6254V11.6256V11.6258V11.626V11.6263V11.6265V11.6267V11.627V11.6272V11.6275V11.6277V11.6279V11.6282V11.6284V11.6286V11.6289V11.6291V11.6293V11.6296V11.6298V11.6301V11.6303V11.6306V11.6308V11.631V11.6313V11.6315V11.6318V11.632V11.6323V11.6325V11.6327V11.633V11.6332V11.6335V11.6337V11.634V11.6342V11.6345V11.6347V11.635V11.6352V11.6355V11.6357V11.636V11.6362V11.6365V11.6367V11.637V11.6373V11.6375V11.6378V11.638V11.6383V11.6385V11.6388V11.6391V11.6393V11.6396V11.6398V11.6401V11.6403V11.6406V11.6409V11.6411V11.6414V11.6417V11.6419V11.6422V11.6425V11.6427V11.643V11.6432V11.6435V11.6438V11.644V11.6443V11.6446V11.6448V11.6451V11.6454V11.6457V11.6459V11.6462V11.6465V11.6467V11.647V11.6473V11.6476V11.6478V11.6481V11.6484V11.6487V11.6489V11.6492V11.6495V11.6498V11.65V11.6503V11.6506V11.6509V11.6512V11.6514V11.6517V11.652V11.6523V11.6526V11.6528V11.6531V11.6534V11.6537V11.654V11.6543V11.6545V11.6548V11.6551V11.6554V11.6557V11.656V11.6563V11.6565V11.6568V11.6571V11.6574V11.6577V11.658V11.6583V11.6586V11.6589V11.6592V11.6594V11.6597V11.66V11.6603V11.6606V11.6609V11.6612V11.6615V11.6618V11.6621V11.6624V11.6627V11.663V11.6633V11.6636V11.6639V11.6642V11.6645V11.6648V11.6651V11.6654V11.6657V11.666V11.6663V11.6666V11.6669V11.6672V11.6675V11.6678V11.6681V11.6684V11.6687V11.669V11.6693V11.6696V11.6699V11.6702V11.6706V11.6709V11.6712V11.6715V11.6718V11.6721V11.6724V11.6727V11.673V11.6733V11.6737V11.674V11.6743V11.6746V11.6749V11.6752V11.6755V11.6759V11.6762V11.6765V11.6768V11.6771V11.6774V11.6778V11.6781V11.6784V11.6787V11.679V11.6793V11.6797V11.68V11.6803V11.6806V11.681V11.6813V11.6816V11.6819V11.6822V11.6826V11.6829V11.6832V11.6835V11.6839V11.6842V11.6845V11.6848V11.6852V11.6855V11.6858V11.6862V11.6865V11.6868V11.6871V11.6875V11.6878V11.6881V11.6885V11.6888V11.6891V11.6895V11.6898V11.6901V11.6905V11.6908V11.6911V11.6915V11.6918V11.6921V11.6925V11.6928V11.6931V11.6935V11.6938V11.6941V11.6945V11.6948V11.6952V11.6955V11.6958V11.6962V11.6965V11.6969V11.6972V11.6975V11.6979V11.6982V11.6986V11.6989V11.6993V11.6996V11.6999V11.7003V11.7006V11.701V11.7013V11.7017V11.702V11.7024V11.7027V11.7031V11.7034V11.7038V11.7041V11.7044V11.7048V11.7051V11.7055V11.7058V11.7062V11.7065V11.7069V11.7073V11.7076V11.708V11.7083V11.7087V11.709V11.7094V11.7097V11.7101V11.7104V11.7108V11.7111V11.7115V11.7119V11.7122V11.7126V11.7129V11.7133V11.7136V11.714V11.7144V11.7147V11.7151V11.7154V11.7158V11.7162V11.7165V11.7169V11.7172V11.7176V11.718V11.7183V11.7187V11.7191V11.7194V11.7198V11.7201V11.7205V11.7209V11.7212V11.7216V11.722V11.7223V11.7227V11.7231V11.7234V11.7238V11.7242V11.7245V11.7249V11.7253V11.7257V11.726V11.7264V11.7268V11.7271V11.7275V11.7279V11.7283V11.7286V11.729V11.7294V11.7297V11.7301V11.7305V11.7309V11.7312V11.7316V11.732V11.7324V11.7327V11.7331V11.7335V11.7339V11.7342V11.7346V11.735V11.7354V11.7358V11.7361V11.7365V11.7369V11.7373V11.7377V11.738V11.7384V11.7388V11.7392V11.7396V11.7399V11.7403V11.7407V11.7411V11.7415V11.7419V11.7422V11.7426V11.743V11.7434V11.7438V11.7442V11.7445V11.7449V11.7453V11.7457V11.7461V11.7465V11.7469V11.7473V11.7476V11.748V11.7484V11.7488V11.7492V11.7496V11.75V11.7504V11.7508V11.7512V11.7515V11.7519V11.7523V11.7527V11.7531V11.7535V11.7539V11.7543V11.7547V11.7551V11.7555V11.7559V11.7563V11.7567V11.7571V11.7575V11.7578V11.7582V11.7586V11.759V11.7594V11.7598V11.7602V11.7606V11.761V11.7614V11.7618V11.7622V11.7626V11.763V11.7634V11.7638V11.7642V11.7646V11.765V11.7654V11.7658V11.7662V11.7666V11.767V11.7674V11.7678V11.7682V11.7686V11.7691V11.7695V11.7699V11.7703V11.7707V11.7711V11.7715V11.7719V11.7723V11.7727V11.7731V11.7735V11.7739V11.7743V11.7747V11.7751V11.7756V11.776V11.7764V11.7768V11.7772V11.7776V11.778C2.51659 11.7989 2.51221 11.8208 2.50323 11.8582C2.50268 11.8605 2.5021 11.8629 2.50149 11.8654C2.4937 11.8975 2.48159 11.9474 2.48159 11.9997C2.48159 12.9685 2.72058 14.0605 3.17981 15.2616L3.17999 15.262C3.63889 16.4505 4.18315 17.4353 4.8159 18.1755ZM10.9833 4.17134V4.09301L10.919 4.04824L9.34397 2.95158L9.28578 2.91106L9.21753 2.93031C8.28497 3.19334 7.31143 3.70544 6.29693 4.48401C5.28364 5.26166 4.51216 6.06706 3.98732 6.87819L3.94926 6.937L3.96993 7.00394L4.45993 8.5906L4.48319 8.6659L4.55839 8.68948L6.12172 9.17948L6.1917 9.20141L6.25198 9.15966L10.9187 5.92799L10.9833 5.88326V5.80468V4.17134ZM14.7823 2.93031L14.7141 2.91106L14.6559 2.95158L13.0809 4.04824L13.0166 4.09301V4.17134V5.81634V5.89492L13.0812 5.93966L17.7479 9.17133L17.8087 9.21343L17.8791 9.19083L19.4424 8.68917L19.5168 8.66529L19.5399 8.5906L20.0299 7.00394L20.0506 6.937L20.0125 6.87819C19.4877 6.06706 18.7162 5.26166 17.7029 4.48401C16.6884 3.70544 15.7149 3.19334 14.7823 2.93031ZM0.483252 11.9997C0.483252 8.8324 1.63323 6.11679 3.85765 3.85741C6.11703 1.63299 8.83265 0.483008 11.9999 0.483008C15.1693 0.483008 17.9187 1.5994 20.1414 3.85659C22.3663 6.11613 23.5166 8.83202 23.5166 11.9997C23.5166 15.169 22.4002 17.9185 20.143 20.1411C17.8835 22.3661 15.1676 23.5163 11.9999 23.5163C8.83056 23.5163 6.0811 22.4 3.85847 20.1428C1.63351 17.8832 0.483252 15.1673 0.483252 11.9997Z" fill="#121212" fill-opacity="0.5" stroke="white" stroke-width="0.3"/>
</svg>
