<svg width="18" height="21" viewBox="0 0 18 21" fill="none" xmlns="http://www.w3.org/2000/svg">
<path d="M3.68256 18.5417L7.28466 9.81553L7.28879 9.80552L7.29364 9.79584C7.40228 9.57854 7.61735 9.47762 7.81593 9.47762H8.47625C8.67483 9.47762 8.8899 9.57854 8.99855 9.79584L9.00339 9.80552L9.00752 9.81553L12.6139 18.552L12.6223 18.5724L12.6276 18.5938C12.6433 18.6566 12.6802 18.7061 12.8771 18.8045L12.8938 18.8129L12.9093 18.8232C12.9104 18.824 12.9248 18.8346 12.9833 18.8307C13.0467 18.8264 13.1211 18.8088 13.2289 18.7818C13.2454 18.7777 13.2709 18.7655 13.3125 18.7157C13.3333 18.6907 13.3546 18.6605 13.3791 18.623C13.386 18.6125 13.3961 18.5966 13.4073 18.5791C13.4246 18.552 13.4444 18.521 13.4584 18.5001C13.4852 18.4599 13.5066 18.3759 13.4397 18.2419L13.4346 18.2318L13.4303 18.2213L3.68256 18.5417ZM3.68256 18.5417C3.58724 18.7304 3.53836 18.7664 3.47651 18.7818L3.44456 18.7898L3.4151 18.8045C3.28114 18.8715 3.19712 18.85 3.15695 18.8232L3.12821 18.8041L3.09587 18.792C2.8786 18.7105 2.75897 18.4512 2.86347 18.1667L6.67086 8.97818L6.69371 8.92303V8.86334V8.86304V8.86274V8.86245V8.86215V8.86186V8.86157V8.86128V8.86099V8.8607V8.86042V8.86013V8.85985V8.85956V8.85928V8.859V8.85872V8.85844V8.85816V8.85789V8.85761V8.85734V8.85706V8.85679V8.85652V8.85625V8.85598V8.85571V8.85544V8.85518V8.85491V8.85465V8.85438V8.85412V8.85386V8.8536V8.85334V8.85308V8.85283V8.85257V8.85231V8.85206V8.85181V8.85155V8.8513V8.85105V8.8508V8.85055V8.85031V8.85006V8.84981V8.84957V8.84933V8.84908V8.84884V8.8486V8.84836V8.84812V8.84788V8.84764V8.84741V8.84717V8.84694V8.8467V8.84647V8.84624V8.84601V8.84578V8.84555V8.84532V8.84509V8.84486V8.84464V8.84441V8.84419V8.84397V8.84374V8.84352V8.8433V8.84308V8.84286V8.84264V8.84242V8.84221V8.84199V8.84177V8.84156V8.84134V8.84113V8.84092V8.84071V8.8405V8.84029V8.84008V8.83987V8.83966V8.83945V8.83925V8.83904V8.83883V8.83863V8.83843V8.83822V8.83802V8.83782V8.83762V8.83742V8.83722V8.83702V8.83682V8.83663V8.83643V8.83623V8.83604V8.83584V8.83565V8.83545V8.83526V8.83507V8.83488V8.83469V8.83449V8.8343V8.83412V8.83393V8.83374V8.83355V8.83336V8.83318V8.83299V8.83281V8.83262V8.83244V8.83226V8.83207V8.83189V8.83171V8.83153V8.83135V8.83117V8.83099V8.83081V8.83063V8.83045V8.83027V8.8301V8.82992V8.82974V8.82957V8.82939V8.82922V8.82904V8.82887V8.8287V8.82852V8.82835V8.82818V8.82801V8.82784V8.82767V8.8275V8.82733V8.82716V8.82699V8.82682V8.82666V8.82649V8.82632V8.82615V8.82599V8.82582V8.82566V8.82549V8.82533V8.82516V8.825V8.82483V8.82467V8.82451V8.82435V8.82418V8.82402V8.82386V8.8237V8.82354V8.82338V8.82322V8.82306V8.8229V8.82274V8.82258V8.82242V8.82226V8.82211V8.82195V8.82179V8.82164V8.82148V8.82132V8.82117V8.82101V8.82085V8.8207V8.82054V8.82039V8.82023V8.82008V8.81992V8.81977V8.81962V8.81946V8.81931V8.81915V8.819V8.81885V8.8187V8.81854V8.81839V8.81824V8.81809V8.81793V8.81778V8.81763V8.81748V8.81733V8.81718V8.81703V8.81688V8.81673V8.81658V8.81643V8.81627V8.81612V8.81598V8.81582V8.81567V8.81553V8.81538V8.81523V8.81508V8.81493V8.81478V8.81463V8.81448V8.81433V8.81418V8.81403V8.81388V8.81373V8.81359V8.81344V8.81329V8.81314V8.81299V8.81284V8.81269V8.81254V8.81239V8.81225V8.8121V8.81195V8.8118V8.81165V8.8115V8.81135V8.8112V8.81105V8.81091V8.81076V8.81061V8.81046V8.81031V8.81016V8.81001V8.80986V8.80971V8.80956V8.80941V8.80926V8.80911V8.80896V8.80881V8.80866V8.80851V8.80836V8.80821V8.80806V8.80791V8.80776V8.8076V8.80745V8.8073V8.80715V8.807V8.80685V8.80669V8.80654V8.80639V8.80624V8.80608V8.80593V8.80578V8.80562V8.80547V8.80532V8.80516V8.80501V8.80485V8.8047V8.80454V8.80439V8.80423V8.80408V8.80392V8.80376V8.80361V8.80345V8.80329V8.80314V8.80298V8.80282V8.80266V8.8025V8.80235V8.80219V8.80203V8.80187V8.80171V8.80155V8.80138V8.80122V8.80106V8.8009V8.80074V8.80058V8.80041V8.80025V8.80009V8.79992V8.79976V8.79959V8.79943V8.79926V8.7991V8.79893V8.79877V8.7986V8.79843V8.79826V8.79809V8.79793V8.79776V8.79759V8.79742V8.79725V8.79708V8.79691V8.79673V8.79656V8.79639V8.79622V8.79604V8.79587V8.79569V8.79552V8.79534V8.79517V8.79499V8.79481V8.79464V8.79446V8.79428V8.7941V8.79392V8.79374V8.79356V8.79338V8.7932V8.79301V8.79283V8.79265V8.79246V8.79228V8.79209V8.79191V8.79172V8.79153V8.79135V8.79116V8.79097V8.79078V8.79059V8.7904V8.79021V8.79002V8.78983V8.78963V8.78944V8.78924V8.78905V8.78885V8.78866V8.78846V8.78826V8.78807V8.78787V8.78767V8.78747V8.78727V8.78706V8.78686V8.78666V8.78646V8.78625V8.78605V8.78584V8.78563V8.78543V8.78522V8.78501V8.7848V8.78459V8.78438V8.78417V8.78395V8.78374V8.78353V8.78331V8.7831V8.78288V8.78266V8.78244V8.78223V8.78201V8.78179V8.78156V8.78134V8.78112V8.7809V8.78067V8.78045V8.78022V8.77999V8.77977V8.77954V8.77931V8.77908V8.77885V8.77861V8.77838V8.77815V8.77791V8.77768V8.77744V8.7772V8.77697V8.77673V8.77649V8.77625V8.776V8.77576V8.77552V8.77527V8.77503V8.77478V8.77453V8.77428V8.77403V8.77378V8.77353V8.77328V8.77303V8.77277V8.77252V8.77226V8.772V8.77175V8.77149V8.77123V8.77096V8.7707V8.77044V8.77017V8.76991V8.76964V8.76938V8.76911V8.76884V8.76857V8.7683V8.76802V8.76775V8.76748V8.7672V8.76692V8.76664V8.76637V8.76609V8.7658V8.76552V8.76524V8.76495V8.76467V8.76438V8.76409V8.7638V8.76351V8.76322V8.76293V8.76264V8.76234V8.76205V8.76175V8.55381H9.64926V8.81254V8.81284V8.81314V8.81343V8.81372V8.81402V8.81431V8.8146V8.81489V8.81517V8.81546V8.81575V8.81603V8.81631V8.8166V8.81688V8.81716V8.81744V8.81772V8.81799V8.81827V8.81854V8.81882V8.81909V8.81936V8.81963V8.8199V8.82017V8.82044V8.8207V8.82097V8.82123V8.8215V8.82176V8.82202V8.82228V8.82254V8.8228V8.82305V8.82331V8.82357V8.82382V8.82407V8.82432V8.82458V8.82483V8.82508V8.82533V8.82557V8.82582V8.82606V8.82631V8.82655V8.8268V8.82704V8.82728V8.82752V8.82776V8.828V8.82823V8.82847V8.82871V8.82894V8.82917V8.82941V8.82964V8.82987V8.8301V8.83033V8.83056V8.83079V8.83101V8.83124V8.83146V8.83169V8.83191V8.83214V8.83236V8.83258V8.8328V8.83302V8.83324V8.83346V8.83367V8.83389V8.8341V8.83432V8.83453V8.83475V8.83496V8.83517V8.83538V8.83559V8.8358V8.83601V8.83622V8.83643V8.83663V8.83684V8.83704V8.83725V8.83745V8.83766V8.83786V8.83806V8.83826V8.83846V8.83866V8.83886V8.83906V8.83925V8.83945V8.83965V8.83984V8.84004V8.84023V8.84043V8.84062V8.84081V8.841V8.84119V8.84138V8.84157V8.84176V8.84195V8.84214V8.84233V8.84251V8.8427V8.84289V8.84307V8.84326V8.84344V8.84362V8.84381V8.84399V8.84417V8.84435V8.84453V8.84471V8.84489V8.84507V8.84525V8.84543V8.84561V8.84578V8.84596V8.84614V8.84631V8.84649V8.84666V8.84683V8.84701V8.84718V8.84735V8.84753V8.8477V8.84787V8.84804V8.84821V8.84838V8.84855V8.84872V8.84889V8.84906V8.84922V8.84939V8.84956V8.84972V8.84989V8.85006V8.85022V8.85039V8.85055V8.85072V8.85088V8.85104V8.85121V8.85137V8.85153V8.85169V8.85186V8.85202V8.85218V8.85234V8.8525V8.85266V8.85282V8.85298V8.85314V8.8533V8.85346V8.85361V8.85377V8.85393V8.85409V8.85424V8.8544V8.85456V8.85471V8.85487V8.85503V8.85518V8.85534V8.85549V8.85565V8.8558V8.85596V8.85611V8.85626V8.85642V8.85657V8.85672V8.85688V8.85703V8.85718V8.85734V8.85749V8.85764V8.85779V8.85794V8.8581V8.85825V8.8584V8.85855V8.8587V8.85885V8.859V8.85915V8.8593V8.85945V8.8596V8.85975V8.8599V8.86005V8.8602V8.86035V8.8605V8.86065V8.8608V8.86095V8.8611V8.86125V8.8614V8.86155V8.8617V8.86185V8.862V8.86215V8.86229V8.86244V8.86259V8.86274V8.86289V8.86304V8.86319V8.86334V8.86349V8.86363V8.86378V8.86393V8.86408V8.86423V8.86438V8.86453V8.86468V8.86483V8.86497V8.86512V8.86527V8.86542V8.86557V8.86572V8.86587V8.86602V8.86617V8.86632V8.86647V8.86662V8.86677V8.86692V8.86707V8.86722V8.86737V8.86752V8.86767V8.86782V8.86797V8.86812V8.86827V8.86843V8.86858V8.86873V8.86888V8.86903V8.86918V8.86934V8.86949V8.86964V8.86979V8.86995V8.8701V8.87026V8.87041V8.87056V8.87072V8.87087V8.87103V8.87118V8.87134V8.87149V8.87165V8.8718V8.87196V8.87212V8.87227V8.87243V8.87259V8.87274V8.8729V8.87306V8.87322V8.87337V8.87353V8.87369V8.87385V8.87401V8.87417V8.87433V8.87449V8.87465V8.87482V8.87498V8.87514V8.8753V8.87547V8.87563V8.87579V8.87596V8.87612V8.87628V8.87645V8.87662V8.87678V8.87695V8.87711V8.87728V8.87745V8.87762V8.87778V8.87795V8.87812V8.87829V8.87846V8.87863V8.8788V8.87897V8.87915V8.87932V8.87949V8.87966V8.87984V8.88001V8.88019V8.88036V8.88054V8.88071V8.88089V8.88107V8.88124V8.88142V8.8816V8.88178V8.88196V8.88214V8.88232V8.8825V8.88268V8.88287V8.88305V8.88323V8.88342V8.8836V8.88379V8.88397V8.88416V8.88434V8.88453V8.88472V8.88491V8.8851V8.88529V8.88548V8.88567V8.88586V8.88605V8.88625V8.88644V8.88663V8.88683V8.88702V8.88722V8.88742V8.88762V8.88781V8.88801V8.88821V8.88841V8.88861V8.88881V8.88902V8.88922V8.88942V8.88963V8.88983V8.89004V8.89025V8.89045V8.89066V8.89087V8.89108V8.89129V8.8915V8.89171V8.89193V8.89214V8.89235V8.89257V8.89278V8.893V8.89322V8.89343V8.89365V8.89387V8.89409V8.89431V8.89454V8.89476V8.89498V8.89521V8.89543V8.89566V8.89589V8.89611V8.89634V8.89657V8.8968V8.89703V8.89727V8.8975V8.89773V8.89797V8.8982V8.89844V8.89868V8.89891V8.89915V8.89939V8.89963V8.89988V8.90012V8.90036V8.90061V8.90085V8.9011V8.90135V8.9016V8.90185V8.9021V8.90235V8.9026V8.90285V8.90311V8.90336V8.90362V8.90388V8.90413V8.90439V8.90465V8.90491V8.90518V8.90544V8.9057V8.90597V8.90624V8.9065V8.90677V8.90704V8.90731V8.90758V8.90786V8.90813V8.9084V8.90868V8.90896V8.90924V8.90951V8.90979V8.91008V8.91036V8.91064V8.91093V8.91121V8.9115V8.91179V8.91208V8.91236V8.91266V8.91295V8.91324V8.91354V8.91383V8.91413V8.97309L9.67158 9.02766L3.68256 18.5417ZM11.9721 5.87547C12.5886 6.49203 13.5963 6.51082 14.1794 5.87021L17.0693 2.98023L16.8572 2.7681L17.0693 2.98023C17.3772 2.67233 17.5694 2.23427 17.5126 1.73324C17.5075 1.39755 17.3677 1.13718 17.1988 0.911909L17.1088 0.791908H16.9588H16.6032H16.2014C15.9784 0.706937 15.7417 0.712952 15.5218 0.791908H15.2826H14.8255H14.7012L14.6133 0.879776L12.9969 2.49622L11.3804 0.879776L11.2406 0.739897L11.0569 0.813365L10.8029 0.914953L10.549 1.01654L10.1265 1.18551L10.4482 1.50721L12.5816 3.64055C12.8003 3.85929 13.1427 3.85929 13.3614 3.64055L15.4947 1.50721C15.544 1.45795 15.5939 1.41985 15.6434 1.39191H16.0627C16.0778 1.40155 16.0924 1.41225 16.1064 1.42396L16.1123 1.42888L16.1185 1.4335C16.2558 1.53646 16.3032 1.65493 16.3032 1.75223C16.3032 1.92786 16.2557 2.08189 16.1879 2.14962L13.2927 5.04486C13.1051 5.23246 12.8379 5.23246 12.6503 5.04486L12.6503 5.04484L12.6477 5.04232L10.5153 2.96062C10.4378 2.88411 10.3309 2.83998 10.2506 2.81991C10.2053 2.80859 10.1468 2.79926 10.0834 2.80378C10.0347 2.80726 9.95784 2.82104 9.88548 2.87211C9.68971 2.98508 9.59847 3.1888 9.59847 3.37762V7.44588H6.64292V3.39064C6.81246 3.32062 6.97678 3.21882 7.11378 3.08182C7.33693 2.85866 7.53836 2.6012 7.60391 2.20789L7.608 2.1834V2.15858V2.15798V2.15739V2.15679V2.1562V2.15561V2.15502V2.15444V2.15385V2.15326V2.15268V2.1521V2.15151V2.15093V2.15035V2.14977V2.1492V2.14862V2.14804V2.14747V2.1469V2.14632V2.14575V2.14518V2.14461V2.14405V2.14348V2.14291V2.14235V2.14178V2.14122V2.14066V2.1401V2.13954V2.13898V2.13842V2.13786V2.13731V2.13675V2.1362V2.13565V2.1351V2.13454V2.13399V2.13345V2.1329V2.13235V2.1318V2.13126V2.13072V2.13017V2.12963V2.12909V2.12855V2.12801V2.12747V2.12693V2.12639V2.12586V2.12532V2.12479V2.12426V2.12372V2.12319V2.12266V2.12213V2.1216V2.12108V2.12055V2.12002V2.1195V2.11897V2.11845V2.11793V2.1174V2.11688V2.11636V2.11584V2.11532V2.11481V2.11429V2.11377V2.11326V2.11274V2.11223V2.11171V2.1112V2.11069V2.11018V2.10967V2.10916V2.10865V2.10814V2.10764V2.10713V2.10662V2.10612V2.10562V2.10511V2.10461V2.10411V2.10361V2.10311V2.10261V2.10211V2.10161V2.10111V2.10061V2.10012V2.09962V2.09913V2.09863V2.09814V2.09764V2.09715V2.09666V2.09617V2.09568V2.09519V2.0947V2.09421V2.09372V2.09323V2.09275V2.09226V2.09177V2.09129V2.09081V2.09032V2.08984V2.08935V2.08887V2.08839V2.08791V2.08743V2.08695V2.08647V2.08599V2.08551V2.08504V2.08456V2.08408V2.08361V2.08313V2.08265V2.08218V2.08171V2.08123V2.08076V2.08029V2.07981V2.07934V2.07887V2.0784V2.07793V2.07746V2.07699V2.07652V2.07605V2.07559V2.07512V2.07465V2.07418V2.07372V2.07325V2.07279V2.07232V2.07186V2.07139V2.07093V2.07047V2.07V2.06954V2.06908V2.06862V2.06815V2.06769V2.06723V2.06677V2.06631V2.06585V2.06539V2.06493V2.06447V2.06402V2.06356V2.0631V2.06264V2.06219V2.06173V2.06127V2.06082V2.06036V2.05991V2.05945V2.05899V2.05854V2.05809V2.05763V2.05718V2.05672V2.05627V2.05582V2.05536V2.05491V2.05446V2.05401V2.05356V2.0531V2.05265V2.0522V2.05175V2.0513V2.05085V2.0504V2.04995V2.0495V2.04905V2.0486V2.04815V2.0477V2.04725V2.0468V2.04635V2.0459V2.04545V2.045V2.04456V2.04411V2.04366V2.04321V2.04276V2.04232V2.04187V2.04142V2.04097V2.04053V2.04008V2.03963V2.03918V2.03874V2.03829V2.03784V2.0374V2.03695V2.0365V2.03606V2.03561V2.03516V2.03472V2.03427V2.03382V2.03338V2.03293V2.03248V2.03204V2.03159V2.03114V2.0307V2.03025V2.02981V2.02936V2.02891V2.02847V2.02802V2.02757V2.02713V2.02668V2.02623V2.02579V2.02534V2.02489V2.02444V2.024V2.02355V2.0231V2.02266V2.02221V2.02176V2.02131V2.02087V2.02042V2.01997V2.01952V2.01907V2.01863V2.01818V2.01773V2.01728V2.01683V2.01638V2.01593V2.01548V2.01503V2.01459V2.01414V2.01369V2.01324V2.01278V2.01233V2.01188V2.01143V2.01098V2.01053V2.01008V2.00963V2.00917V2.00872V2.00827V2.00782V2.00736V2.00691V2.00646V2.006V2.00555V2.0051V2.00464V2.00419V2.00373V2.00328V2.00282V2.00237V2.00191V2.00145V2.001V2.00054V2.00008V1.99962V1.99917V1.99871V1.99825V1.99779V1.99733V1.99687V1.99641V1.99595V1.99549V1.99503V1.99457V1.9941V1.99364V1.99318V1.99272V1.99225V1.99179V1.99133V1.99086V1.9904V1.98993V1.98946V1.989V1.98853V1.98806V1.9876V1.98713V1.98666V1.98619V1.98572V1.98525V1.98478V1.98431V1.98384V1.98337V1.9829V1.98242V1.98195V1.98148V1.981V1.98053V1.98005V1.97958V1.9791V1.97862V1.97815V1.97767V1.97719V1.97671V1.97623V1.97575V1.97527V1.97479V1.97431V1.97383V1.97334V1.97286V1.97238V1.97189V1.97141V1.97092V1.97044V1.96995V1.96946V1.96897V1.96848V1.96799V1.9675V1.96701V1.96652V1.96603V1.96554V1.96505V1.96455V1.96406V1.96356V1.96307V1.96257V1.96207V1.96157V1.96108V1.96058V1.96008V1.95958V1.95907V1.95857V1.95807V1.95757V1.95706V1.95656V1.95605V1.95555V1.95504V1.95453V1.95402V1.95351V1.953V1.95249V1.95198V1.95147V1.95095V1.95044V1.94993V1.94941V1.94889V1.94838V1.94786V1.94734V1.94682V1.9463V1.94578V1.94526V1.94473V1.94421V1.94368V1.94316V1.94263V1.94211V1.94158V1.94105V1.94052V1.93999V1.93946V1.93893V1.93839V1.93786V1.93732V1.93679V1.93625V1.93571V1.93517V1.93463V1.93409V1.93355V1.93301V1.93247V1.93192V1.93138V1.93083V1.93028V1.92974V1.92919V1.92864V1.92809V1.92753V1.92698V1.92643V1.92587V1.92532V1.92476V1.9242V1.92364V1.92308V1.92252V1.92196V1.9214V1.92083V1.92027V1.9197V1.91914V1.91857V1.918V1.91743V1.91686V1.91629V1.91571V1.91514V1.91456V1.91398V1.91341V1.91283V1.91225V1.91167V1.91109V1.9105V1.90992V1.90933V1.90875V1.90816V1.90757V1.90698V1.90639V1.90579V1.9052V1.90461C7.608 1.53872 7.4881 1.22942 7.30877 0.982669C7.2311 0.841554 7.10121 0.711661 6.96009 0.633991C6.71889 0.45869 6.41141 0.334766 6.08895 0.334766H2.02546C1.14866 0.334766 0.455615 1.02781 0.455615 1.90461C0.455615 2.76502 1.08194 3.47445 1.97466 3.47445H5.48419V7.99984V8.70175L1.69774 17.7892L1.69763 17.7892L1.69466 17.7969C1.38123 18.6118 1.76325 19.483 2.55589 19.8513C2.94416 20.0437 3.39722 20.043 3.78502 19.8491C4.13011 19.6766 4.44864 19.429 4.63771 18.9879L4.63773 18.9879L4.63913 18.9845L8.0953 10.6403L11.5515 18.9845L11.5555 18.9943L11.5603 19.0039C11.7329 19.3489 11.9804 19.6675 12.4216 19.8565L12.433 19.8615L12.4449 19.8654L12.4532 19.8682C12.6044 19.9186 12.7956 19.9824 13.0477 19.9824C13.2429 19.9824 13.3906 19.9395 13.5193 19.9021C13.5571 19.8911 13.5932 19.8806 13.6284 19.8718L13.6603 19.8639L13.6898 19.8491C14.0328 19.6776 14.3496 19.432 14.539 18.9958C14.728 18.6117 14.7283 18.1646 14.5399 17.7803L10.7572 8.70175V7.99984V4.66062L11.9721 5.87547ZM6.08895 1.4427L6.11714 1.44278L6.13007 1.45571L6.19726 1.4781C6.37312 1.53672 6.50006 1.72211 6.50006 1.90461C6.50006 1.95793 6.48622 2.01923 6.46082 2.07849C6.43487 2.13905 6.40381 2.18135 6.38475 2.20041C6.27447 2.31069 6.14376 2.36651 6.03816 2.36651H5.78419H5.37784H5.02228H1.97466C1.734 2.36651 1.51276 2.14527 1.51276 1.90461C1.51276 1.66394 1.734 1.4427 1.97466 1.4427H5.02228H5.37784H5.78419H6.03816H6.03816H6.03816H6.03817H6.03817H6.03818H6.03818H6.03819H6.03819H6.03819H6.0382H6.03821H6.03821H6.03822H6.03823H6.03823H6.03823H6.03824H6.03824H6.03825H6.03825H6.03825H6.03826H6.03826H6.03827H6.03827H6.03828H6.03828H6.03829H6.0383H6.0383H6.03831H6.03831H6.03832H6.03833H6.03833H6.03834H6.03835H6.03836H6.03836H6.03837H6.03838H6.03839H6.0384H6.0384H6.03841H6.03842H6.03843H6.03844H6.03845H6.03846H6.03847H6.03848H6.03849H6.0385H6.03851H6.03852H6.03853H6.03854H6.03856H6.03857H6.03858H6.03859H6.03861H6.03862H6.03863H6.03865H6.03866H6.03867H6.03869H6.0387H6.03872H6.03873H6.03875H6.03876H6.03878H6.03879H6.03881H6.03883H6.03884H6.03886H6.03888H6.03889H6.03891H6.03893H6.03895H6.03897H6.03899H6.03901H6.03903H6.03905H6.03907H6.03909H6.03911H6.03913H6.03915H6.03917H6.03919H6.03922H6.03924H6.03926H6.03928H6.03931H6.03933H6.03936H6.03938H6.03941H6.03943H6.03946H6.03948H6.03951H6.03954H6.03956H6.03959H6.03962H6.03965H6.03968H6.0397H6.03973H6.03976H6.03979H6.03982H6.03986H6.03989H6.03992H6.03995H6.03998H6.04001H6.04005H6.04008H6.04011H6.04015H6.04018H6.04022H6.04025H6.04029H6.04033H6.04036H6.0404H6.04044H6.04047H6.04051H6.04055H6.04059H6.04063H6.04067H6.04071H6.04075H6.04079H6.04083H6.04088H6.04092H6.04096H6.041H6.04105H6.04109H6.04114H6.04118H6.04123H6.04127H6.04132H6.04137H6.04142H6.04146H6.04151H6.04156H6.04161H6.04166H6.04171H6.04176H6.04181H6.04186H6.04192H6.04197H6.04202H6.04208H6.04213H6.04218H6.04224H6.0423H6.04235H6.04241H6.04247H6.04252H6.04258H6.04264H6.0427H6.04276H6.04282H6.04288H6.04294H6.043H6.04307H6.04313H6.04319H6.04326H6.04332H6.04339H6.04345H6.04352H6.04358H6.04365H6.04372H6.04379H6.04386H6.04393H6.044H6.04407H6.04414H6.04421H6.04428H6.04436H6.04443H6.0445H6.04458H6.04465H6.04473H6.04481H6.04488H6.04496H6.04504H6.04512H6.0452H6.04528H6.04536H6.04544H6.04552H6.0456H6.04569H6.04577H6.04585H6.04594H6.04602H6.04611H6.0462H6.04629H6.04637H6.04646H6.04655H6.04664H6.04673H6.04682H6.04692H6.04701H6.0471H6.04719H6.04729H6.04738H6.04748H6.04758H6.04767H6.04777H6.04787H6.04797H6.04807H6.04817H6.04827H6.04837H6.04847H6.04858H6.04868H6.04879H6.04889H6.049H6.0491H6.04921H6.04932H6.04943H6.04954H6.04965H6.04976H6.04987H6.04998H6.0501H6.05021H6.05032H6.05044H6.05056H6.05067H6.05079H6.05091H6.05103H6.05115H6.05127H6.05139H6.05151H6.05163H6.05175H6.05188H6.052H6.05213H6.05226H6.05238H6.05251H6.05264H6.05277H6.0529H6.05303H6.05316H6.05329H6.05343H6.05356H6.05369H6.05383H6.05397H6.0541H6.05424H6.05438H6.05452H6.05466H6.0548H6.05494H6.05509H6.05523H6.05537H6.05552H6.05566H6.05581H6.05596H6.05611H6.05626H6.05641H6.05656H6.05671H6.05686H6.05701H6.05717H6.05732H6.05748H6.05764H6.05779H6.05795H6.05811H6.05827H6.05843H6.05859H6.05876H6.05892H6.05908H6.05925H6.05942H6.05958H6.05975H6.05992H6.06009H6.06026H6.06043H6.0606H6.06078H6.06095H6.06113H6.0613H6.06148H6.06166H6.06183H6.06201H6.06219H6.06237H6.06256H6.06274H6.06292H6.06311H6.06329H6.06348H6.06367H6.06386H6.06405H6.06424H6.06443H6.06462H6.06481H6.06501H6.0652H6.0654H6.0656H6.06579H6.06599H6.06619H6.06639H6.06659H6.0668H6.067H6.06721H6.06741H6.06762H6.06783H6.06803H6.06824H6.06845H6.06866H6.06888H6.06909H6.0693H6.06952H6.06974H6.06995H6.07017H6.07039H6.07061H6.07083H6.07106H6.07128H6.0715H6.07173H6.07195H6.07218H6.07241H6.07264H6.07287H6.0731H6.07333H6.07357H6.0738H6.07404H6.07427H6.07451H6.07475H6.07499H6.07523H6.07547H6.07572H6.07596H6.0762H6.07645H6.0767H6.07695H6.07719H6.07745H6.0777H6.07795H6.0782H6.07846H6.07871H6.07897H6.07923H6.07949H6.07975H6.08001H6.08027H6.08053H6.0808H6.08106H6.08133H6.0816H6.08186H6.08213H6.08241H6.08268H6.08295H6.08322H6.0835H6.08378H6.08405H6.08433H6.08461H6.08489H6.08518H6.08546H6.08574H6.08603H6.08632H6.0866H6.08689H6.08718H6.08747H6.08777H6.08806H6.08836H6.08865H6.08895Z" fill="#888888" stroke="#888888" stroke-width="0.6"/>
</svg>
