<svg width="42" height="42" viewBox="0 0 42 42" fill="none" xmlns="http://www.w3.org/2000/svg">
<circle cx="21" cy="21" r="21" fill="#001A72" fill-opacity="0.15"/>
<path d="M30.333 30.3337H15.1663C14.5475 30.3337 13.954 30.0878 13.5164 29.6502C13.0788 29.2127 12.833 28.6192 12.833 28.0003V17.4303L9.60134 13.5803C9.43801 13.382 9.33301 13.1137 9.33301 12.8337C9.33301 12.5242 9.45592 12.2275 9.67472 12.0087C9.89351 11.7899 10.1903 11.667 10.4997 11.667H30.333C30.9518 11.667 31.5453 11.9128 31.9829 12.3504C32.4205 12.788 32.6663 13.3815 32.6663 14.0003V28.0003C32.6663 28.6192 32.4205 29.2127 31.9829 29.6502C31.5453 30.0878 30.9518 30.3337 30.333 30.3337ZM16.9163 15.167C16.7616 15.167 16.6133 15.2285 16.5039 15.3378C16.3945 15.4472 16.333 15.5956 16.333 15.7503V16.917C16.333 17.0717 16.3945 17.2201 16.5039 17.3295C16.6133 17.4389 16.7616 17.5003 16.9163 17.5003H28.583C28.7377 17.5003 28.8861 17.4389 28.9955 17.3295C29.1049 17.2201 29.1663 17.0717 29.1663 16.917V15.7503C29.1663 15.5956 29.1049 15.4472 28.9955 15.3378C28.8861 15.2285 28.7377 15.167 28.583 15.167H16.9163ZM16.9163 19.8337C16.7616 19.8337 16.6133 19.8951 16.5039 20.0045C16.3945 20.1139 16.333 20.2623 16.333 20.417V21.5837C16.333 21.7384 16.3945 21.8867 16.5039 21.9961C16.6133 22.1055 16.7616 22.167 16.9163 22.167H28.583C28.7377 22.167 28.8861 22.1055 28.9955 21.9961C29.1049 21.8867 29.1663 21.7384 29.1663 21.5837V20.417C29.1663 20.2623 29.1049 20.1139 28.9955 20.0045C28.8861 19.8951 28.7377 19.8337 28.583 19.8337H16.9163ZM16.9163 24.5003C16.7616 24.5003 16.6133 24.5618 16.5039 24.6712C16.3945 24.7806 16.333 24.9289 16.333 25.0837V26.2503C16.333 26.405 16.3945 26.5534 16.5039 26.6628C16.6133 26.7722 16.7616 26.8337 16.9163 26.8337H22.7497C22.9044 26.8337 23.0528 26.7722 23.1622 26.6628C23.2716 26.5534 23.333 26.405 23.333 26.2503V25.0837C23.333 24.9289 23.2716 24.7806 23.1622 24.6712C23.0528 24.5618 22.9044 24.5003 22.7497 24.5003H16.9163Z" fill="#001A72"/>
</svg>
