<svg width="20" height="24" viewBox="0 0 20 24" fill="none" xmlns="http://www.w3.org/2000/svg">
<path d="M10.1501 8.49967V0.483008H17.0001C18.2011 0.483008 19.1834 1.45467 19.1834 2.66634V21.333C19.1834 21.9121 18.9534 22.4674 18.5439 22.8769C18.1345 23.2863 17.5791 23.5163 17.0001 23.5163H3.00008C2.42103 23.5163 1.86569 23.2863 1.45623 22.8769C1.04678 22.4674 0.816748 21.9121 0.816748 21.333V2.66634C0.816748 2.08729 1.04678 1.53195 1.45623 1.12249C1.86569 0.713037 2.42103 0.483008 3.00008 0.483008H4.01675V8.49967V8.7646L4.24392 8.6283L7.08341 6.9246L9.92291 8.6283L10.1501 8.7646V8.49967Z" fill="#121212" fill-opacity="0.5" stroke="white" stroke-width="0.3"/>
</svg>
