<svg width="622" height="512" viewBox="0 0 622 512" fill="none" xmlns="http://www.w3.org/2000/svg">
<g clip-path="url(#clip0_601_76)">
<path fill-rule="evenodd" clip-rule="evenodd" d="M266.961 190.44C271.01 197.171 273.186 204.408 273.186 211.847C273.186 217.414 271.971 222.779 269.694 227.991C259.724 223.234 249.197 219.489 238.215 216.857C251.171 209.317 261.04 200.308 266.961 190.44ZM199.854 239.125C275.109 239.125 336.093 300.109 336.093 375.364C336.093 450.619 275.109 511.603 199.854 511.603C124.599 511.603 63.6152 450.619 63.6152 375.364C63.6152 300.109 124.649 239.125 199.854 239.125ZM225.614 312.913H242.264C244.288 312.913 245.908 314.482 245.908 316.354C245.908 317.063 245.705 317.721 245.3 318.277L177.839 435.943C177.181 437.107 175.916 437.764 174.651 437.764H158C155.976 437.764 154.357 436.196 154.357 434.323C154.357 433.615 154.559 432.957 154.964 432.4L222.476 314.735C223.083 313.571 224.298 312.913 225.614 312.913ZM122.524 345.302C122.524 342.519 122.878 339.735 123.485 337.053C124.143 334.421 125.105 331.79 126.421 329.259C127.787 326.628 129.508 324.249 131.583 322.225C133.658 320.2 136.036 318.48 138.82 317.113C141.553 315.696 144.488 314.684 147.676 313.976C150.814 313.267 154.205 312.963 157.747 312.963C163.011 312.963 167.819 313.672 172.07 315.14C176.422 316.607 180.218 318.885 183.406 321.871C186.594 324.856 188.973 328.348 190.592 332.296L190.643 332.498C192.161 336.345 192.92 340.646 192.92 345.353C192.92 350.161 192.161 354.564 190.592 358.461C189.024 362.459 186.594 365.951 183.406 368.937C180.218 371.923 176.422 374.149 172.07 375.617C167.819 377.085 163.011 377.793 157.747 377.793C154.205 377.793 150.814 377.439 147.676 376.781C144.437 376.072 141.502 375.06 138.82 373.643L138.567 373.491C135.935 372.125 133.607 370.455 131.583 368.481C129.508 366.457 127.787 364.078 126.421 361.447L126.319 361.244C125.054 358.764 124.143 356.234 123.485 353.602L123.435 353.501C122.827 350.819 122.524 348.086 122.524 345.302ZM152.18 345.454C152.18 348.339 152.433 350.768 152.889 352.742C153.294 354.513 153.901 355.88 154.66 356.892L154.711 356.993C155.015 357.398 155.419 357.702 155.824 357.904C156.33 358.106 156.988 358.258 157.747 358.258C159.114 358.258 160.126 357.853 160.733 356.993L160.784 356.892C161.543 355.88 162.15 354.513 162.555 352.742C163.011 350.768 163.264 348.339 163.264 345.454C163.264 342.62 163.011 340.191 162.555 338.268C162.15 336.496 161.543 335.079 160.733 334.017C160.43 333.612 160.075 333.308 159.671 333.156C159.164 332.954 158.507 332.802 157.747 332.802C156.938 332.802 156.28 332.903 155.774 333.156C155.318 333.359 154.913 333.662 154.61 334.067C153.851 335.079 153.243 336.496 152.838 338.217L152.788 338.318C152.383 340.241 152.18 342.671 152.18 345.454ZM206.838 405.071C206.838 399.403 208.154 393.988 210.735 388.927C212.051 386.295 213.771 383.967 215.846 381.943C217.921 379.919 220.3 378.198 223.083 376.73L223.286 376.629C225.968 375.263 228.853 374.251 231.99 373.593C235.128 372.884 238.468 372.58 242.062 372.58C252.892 372.58 261.445 375.566 267.771 381.538C270.959 384.524 273.338 388.016 274.957 392.014C276.526 395.911 277.285 400.314 277.285 405.122C277.285 409.93 276.526 414.282 274.957 418.23C273.388 422.228 270.959 425.72 267.771 428.706C261.445 434.677 252.841 437.663 242.062 437.663C238.519 437.663 235.179 437.309 231.99 436.651C228.802 435.943 225.867 434.93 223.134 433.513H223.083C220.3 432.096 217.921 430.376 215.846 428.351C213.771 426.327 212.051 423.948 210.735 421.367C209.47 418.837 208.457 416.205 207.85 413.523C207.142 410.638 206.838 407.905 206.838 405.071ZM236.444 405.274C236.444 408.158 236.697 410.588 237.152 412.561C237.557 414.333 238.165 415.75 238.924 416.762V416.812C239.227 417.217 239.582 417.521 239.987 417.673C240.493 417.875 241.151 418.027 241.96 418.027C243.377 418.027 244.44 417.572 245.098 416.762L245.199 416.661C245.908 415.648 246.464 414.282 246.869 412.561C247.325 410.588 247.578 408.158 247.578 405.274C247.578 399.859 246.768 395.962 245.098 393.735C244.794 393.33 244.39 392.976 243.934 392.824C243.428 392.571 242.77 392.47 241.96 392.47C240.594 392.47 239.582 392.875 238.974 393.735L238.823 393.937C238.114 394.949 237.557 396.316 237.152 397.986C236.697 399.96 236.444 402.389 236.444 405.274ZM71.5101 274.804C28.9482 262.658 0 239.024 0 211.847C0 204.408 2.17618 197.221 6.22487 190.44C21.0026 215.187 60.7811 234.216 110.023 239.277C95.3468 248.994 82.3404 260.988 71.5101 274.804ZM615.655 297.072C619.704 303.854 621.88 311.04 621.88 318.48C621.88 358.005 560.694 390.091 485.287 390.091C409.88 390.091 348.694 358.005 348.694 318.48C348.694 311.04 350.87 303.854 354.919 297.072C372.278 326.172 424.101 347.276 485.287 347.276C546.473 347.276 598.296 326.172 615.655 297.072ZM505.126 192.363L504.873 174.65C508.871 174.498 512.16 173.283 514.691 171.006C517.272 168.729 518.638 165.996 518.942 162.757C519.246 159.062 518.031 155.823 515.298 152.989C512.515 150.155 508.112 148.485 502.089 147.979C496.472 147.473 492.119 148.384 489.032 150.712C485.996 152.989 484.275 156.178 483.921 160.226C483.465 165.287 485.338 170.044 489.488 174.447L486.147 188.567L439.031 175.358L443.079 128.697L459.578 130.114L456.693 163.415L472.078 167.514C470.459 163.415 469.801 159.315 470.155 155.165C470.813 147.372 474.254 140.944 480.429 136.035C486.603 131.076 494.245 129.001 503.304 129.81C510.895 130.468 517.474 133.252 522.991 138.161C530.582 144.841 533.922 153.495 533.011 164.123C532.252 172.625 529.418 179.356 524.357 184.316C519.347 189.326 512.919 192.009 505.126 192.363ZM485.287 121.258C547.283 121.258 597.537 140.995 597.537 165.287C597.537 189.63 547.283 209.317 485.287 209.317C423.291 209.317 373.037 189.579 373.037 165.287C373.037 140.944 423.291 121.258 485.287 121.258ZM485.287 106.632C560.694 106.632 621.88 138.718 621.88 178.243C621.88 217.768 560.694 249.854 485.287 249.854C409.88 249.854 348.694 217.768 348.694 178.243C348.694 138.718 409.88 106.632 485.287 106.632ZM616.161 226.018C619.906 232.546 621.88 239.429 621.88 246.565C621.88 286.09 560.694 318.176 485.287 318.176C409.88 318.176 348.694 286.141 348.694 246.565C348.694 239.429 350.718 232.496 354.413 226.018C371.266 255.522 423.494 277.031 485.287 277.031C547.08 277.031 599.309 255.522 616.161 226.018ZM185.936 42.4597L184.368 60.2234L117.311 54.4034C122.827 61.438 126.674 69.4848 128.799 78.5438L112.655 77.1267C111.542 72.3695 109.112 67.0556 105.367 61.2862C101.572 55.4662 96.9663 51.3163 91.45 48.7858L92.7152 34.3623L185.936 42.4597ZM136.593 14.5743C198.589 14.5743 248.843 34.3117 248.843 58.6039C248.843 82.8961 198.589 102.634 136.593 102.634C74.5973 102.634 24.3428 82.8961 24.3428 58.6039C24.3428 34.3117 74.5973 14.5743 136.593 14.5743ZM136.593 -0.000976562C212 -0.000976562 273.186 32.0343 273.186 71.6104C273.186 111.136 212 143.222 136.593 143.222C61.1859 143.222 0 111.136 0 71.6104C0 32.0343 61.1859 -0.000976562 136.593 -0.000976562ZM267.467 119.334C271.212 125.863 273.186 132.746 273.186 139.882C273.186 179.407 212 211.493 136.593 211.493C61.1859 211.493 0 179.407 0 139.882C0 132.746 2.02435 125.863 5.71879 119.334C22.5715 148.839 74.7997 170.399 136.593 170.399C198.386 170.399 250.614 148.839 267.467 119.334ZM40.5376 409.98C15.4863 397.024 0 379.008 0 359.119C0 351.173 2.47983 343.48 7.08522 336.345C13.4619 346.315 23.8873 355.272 37.3492 362.712C37.0456 366.862 36.8938 371.062 36.8938 375.313C36.8432 387.257 38.1084 398.846 40.5376 409.98ZM41.651 335.889C15.9924 322.883 0 304.613 0 284.42C0 276.829 2.27739 269.541 6.42731 262.709C15.2838 277.284 32.8451 289.886 55.9226 298.742C49.6978 310.382 44.8899 322.832 41.651 335.889Z" fill="#737373"/>
</g>
<defs>
<clipPath id="clip0_601_76">
<rect width="621.88" height="511.553" fill="white"/>
</clipPath>
</defs>
</svg>
