<svg width="658" height="548" viewBox="0 0 658 548" fill="none" xmlns="http://www.w3.org/2000/svg">
<g clip-path="url(#clip0_599_54)">
<path d="M364.275 263.147L389.839 263.01C406.058 246.026 425.638 225.83 451.226 227.329C476.913 225.947 496.394 245.79 512.616 263.01C523.471 263.427 544.426 261.815 554.587 265.607V102.913H103.414V362.679H290.308L303.025 349.826L303.298 324.26C303.447 308.122 309.915 292.684 321.314 281.259C332.714 269.835 348.137 263.332 364.275 263.147ZM192.281 206.135C165.401 205.731 165.251 165.555 192.281 165.119H465.719C492.565 165.595 492.722 205.627 465.719 206.135H192.281Z" fill="#737373"/>
<path d="M636.617 0.373129H21.3828C15.9628 0.357807 10.7584 2.49476 6.913 6.31448C3.06765 10.1342 0.895933 15.3242 0.875 20.7442V444.709C0.890788 450.143 3.05649 455.35 6.89904 459.193C10.7416 463.035 15.9487 465.201 21.3828 465.217H295.778C277.606 449.153 264.165 428.1 268.024 403.693H82.9062C77.4721 403.678 72.265 401.512 68.4225 397.669C64.5799 393.827 62.4142 388.62 62.3984 383.186V82.4044C62.3947 79.7102 62.9225 77.0417 63.9518 74.5519C64.9811 72.0621 66.4915 69.7998 68.3966 67.8947C70.3017 65.9896 72.5639 64.4792 75.0538 63.4499C77.5436 62.4206 80.2121 61.8928 82.9062 61.8966H575.094C580.528 61.9121 585.735 64.0778 589.578 67.9204C593.42 71.763 595.586 76.9702 595.602 82.4044V304.025C600.802 315.601 599.066 337.21 599.43 349.825L617.478 368.008C646.32 398.433 637.571 440.05 606.676 465.217H636.617C642.044 465.178 647.238 463.005 651.075 459.167C654.913 455.33 657.086 450.136 657.125 444.709V20.7442C657.081 15.3314 654.902 10.1549 651.061 6.34019C647.221 2.52547 642.03 0.38102 636.617 0.373129Z" fill="#737373"/>
<path fill-rule="evenodd" clip-rule="evenodd" d="M320 417.167C320 345.278 378.278 287 450.167 287C522.055 287 580.333 345.278 580.333 417.167C580.333 489.055 522.055 547.333 450.167 547.333C378.278 547.333 320 489.055 320 417.167ZM456.083 340.25C462.619 340.25 467.917 345.548 467.917 352.083V399.417H515.25C521.786 399.417 527.083 404.714 527.083 411.25V423.083C527.083 429.619 521.786 434.917 515.25 434.917H467.917V482.25C467.917 488.786 462.619 494.083 456.083 494.083H444.25C437.714 494.083 432.417 488.786 432.417 482.25V434.917H385.083C378.548 434.917 373.25 429.619 373.25 423.083V411.25C373.25 404.714 378.548 399.417 385.083 399.417H432.417V352.083C432.417 345.548 437.714 340.25 444.25 340.25H456.083Z" fill="#737373"/>
</g>
<defs>
<clipPath id="clip0_599_54">
<rect width="658" height="548" fill="white"/>
</clipPath>
</defs>
</svg>
