<svg width="36" height="36" viewBox="0 0 36 36" fill="none" xmlns="http://www.w3.org/2000/svg">
<g id="library_add_FILL0_wght400_GRAD0_opsz24 1">
<path id="Vector" d="M19.5 21H22.5V16.5H27V13.5H22.5V9H19.5V13.5H15V16.5H19.5V21ZM12 27C11.175 27 10.4688 26.7063 9.88125 26.1188C9.29375 25.5312 9 24.825 9 24V6C9 5.175 9.29375 4.46875 9.88125 3.88125C10.4688 3.29375 11.175 3 12 3H30C30.825 3 31.5313 3.29375 32.1188 3.88125C32.7063 4.46875 33 5.175 33 6V24C33 24.825 32.7063 25.5312 32.1188 26.1188C31.5313 26.7063 30.825 27 30 27H12ZM12 24H30V6H12V24ZM6 33C5.175 33 4.46875 32.7063 3.88125 32.1188C3.29375 31.5313 3 30.825 3 30V9H6V30H27V33H6Z" fill="black"/>
</g>
</svg>
