<svg width="36" height="36" viewBox="0 0 36 36" fill="none" xmlns="http://www.w3.org/2000/svg">
<g id="frame_source_FILL1_wght400_GRAD0_opsz24 1">
<path id="Vector" d="M12.9 23.4L7.5 18L12.9 12.6L15 14.7375L11.7375 18L15 21.2625L12.9 23.4ZM23.1 23.4L21 21.2625L24.2625 18L21 14.7375L23.1 12.6L28.5 18L23.1 23.4ZM7.5 31.5C6.675 31.5 5.96875 31.2063 5.38125 30.6188C4.79375 30.0313 4.5 29.325 4.5 28.5V22.5H7.5V28.5H13.5V31.5H7.5ZM22.5 31.5V28.5H28.5V22.5H31.5V28.5C31.5 29.325 31.2063 30.0313 30.6188 30.6188C30.0313 31.2063 29.325 31.5 28.5 31.5H22.5ZM4.5 13.5V7.5C4.5 6.675 4.79375 5.96875 5.38125 5.38125C5.96875 4.79375 6.675 4.5 7.5 4.5H13.5V7.5H7.5V13.5H4.5ZM28.5 13.5V7.5H22.5V4.5H28.5C29.325 4.5 30.0313 4.79375 30.6188 5.38125C31.2063 5.96875 31.5 6.675 31.5 7.5V13.5H28.5Z" fill="black"/>
</g>
</svg>
