<svg width="20" height="23" viewBox="0 0 20 23" fill="none" xmlns="http://www.w3.org/2000/svg">
<path d="M3.15625 22.5C2.64062 22.5 2.19922 22.3164 1.83203 21.9492C1.46484 21.582 1.28125 21.1406 1.28125 20.625V2.8125H0.9375C0.671875 2.8125 0.449219 2.72214 0.269531 2.54141C0.0898438 2.36066 0 2.1367 0 1.86953C0 1.60234 0.0898438 1.38021 0.269531 1.20312C0.449219 1.02604 0.671875 0.9375 0.9375 0.9375H5.875C5.875 0.666667 5.96484 0.442708 6.14453 0.265625C6.32422 0.0885417 6.54688 0 6.8125 0H13.1875C13.4531 0 13.6758 0.0898438 13.8555 0.269531C14.0352 0.449219 14.125 0.671875 14.125 0.9375H19.0625C19.3281 0.9375 19.5508 1.02786 19.7305 1.20859C19.9102 1.38934 20 1.6133 20 1.88047C20 2.14766 19.9102 2.36979 19.7305 2.54688C19.5508 2.72396 19.3281 2.8125 19.0625 2.8125H18.7188V20.625C18.7188 21.1406 18.5352 21.582 18.168 21.9492C17.8008 22.3164 17.3594 22.5 16.8438 22.5H3.15625ZM7.41172 17.9375C7.67891 17.9375 7.90104 17.8477 8.07812 17.668C8.25521 17.4883 8.34375 17.2656 8.34375 17V6.40625C8.34375 6.14062 8.25339 5.91797 8.07266 5.73828C7.89191 5.55859 7.66795 5.46875 7.40078 5.46875C7.13359 5.46875 6.91146 5.55859 6.73438 5.73828C6.55729 5.91797 6.46875 6.14062 6.46875 6.40625V17C6.46875 17.2656 6.55911 17.4883 6.73984 17.668C6.92059 17.8477 7.14455 17.9375 7.41172 17.9375ZM12.5992 17.9375C12.8664 17.9375 13.0885 17.8477 13.2656 17.668C13.4427 17.4883 13.5312 17.2656 13.5312 17V6.40625C13.5312 6.14062 13.4409 5.91797 13.2602 5.73828C13.0794 5.55859 12.8554 5.46875 12.5883 5.46875C12.3211 5.46875 12.099 5.55859 11.9219 5.73828C11.7448 5.91797 11.6562 6.14062 11.6562 6.40625V17C11.6562 17.2656 11.7466 17.4883 11.9273 17.668C12.1081 17.8477 12.3321 17.9375 12.5992 17.9375Z" fill="white"/>
</svg>
