<svg width="36" height="36" viewBox="0 0 36 36" fill="none" xmlns="http://www.w3.org/2000/svg">
<g id="qr_code_scanner_FILL1_wght400_GRAD0_opsz24 1">
<path id="Vector" d="M3 10.5V3H10.5V6H6V10.5H3ZM3 33V25.5H6V30H10.5V33H3ZM25.5 33V30H30V25.5H33V33H25.5ZM30 10.5V6H25.5V3H33V10.5H30ZM26.25 26.25H28.5V28.5H26.25V26.25ZM26.25 21.75H28.5V24H26.25V21.75ZM24 24H26.25V26.25H24V24ZM21.75 26.25H24V28.5H21.75V26.25ZM19.5 24H21.75V26.25H19.5V24ZM24 19.5H26.25V21.75H24V19.5ZM21.75 21.75H24V24H21.75V21.75ZM19.5 19.5H21.75V21.75H19.5V19.5ZM28.5 7.5V16.5H19.5V7.5H28.5ZM16.5 19.5V28.5H7.5V19.5H16.5ZM16.5 7.5V16.5H7.5V7.5H16.5ZM14.25 26.25V21.75H9.75V26.25H14.25ZM14.25 14.25V9.75H9.75V14.25H14.25ZM26.25 14.25V9.75H21.75V14.25H26.25Z" fill="black"/>
</g>
</svg>
