<svg width="36" height="36" viewBox="0 0 36 36" fill="none" xmlns="http://www.w3.org/2000/svg">
<g id="manage_search_FILL1_wght400_GRAD0_opsz24 1">
<path id="Vector" d="M3 28.5V25.5H18V28.5H3ZM3 21V18H10.5V21H3ZM3 13.5V10.5H10.5V13.5H3ZM30.9 28.5L25.125 22.725C24.525 23.15 23.8688 23.4688 23.1562 23.6813C22.4438 23.8938 21.725 24 21 24C18.925 24 17.1563 23.2688 15.6938 21.8063C14.2313 20.3438 13.5 18.575 13.5 16.5C13.5 14.425 14.2313 12.6563 15.6938 11.1938C17.1563 9.73125 18.925 9 21 9C23.075 9 24.8438 9.73125 26.3063 11.1938C27.7688 12.6563 28.5 14.425 28.5 16.5C28.5 17.225 28.3938 17.9438 28.1813 18.6562C27.9688 19.3688 27.65 20.025 27.225 20.625L33 26.4L30.9 28.5ZM21 21C22.25 21 23.3125 20.5625 24.1875 19.6875C25.0625 18.8125 25.5 17.75 25.5 16.5C25.5 15.25 25.0625 14.1875 24.1875 13.3125C23.3125 12.4375 22.25 12 21 12C19.75 12 18.6875 12.4375 17.8125 13.3125C16.9375 14.1875 16.5 15.25 16.5 16.5C16.5 17.75 16.9375 18.8125 17.8125 19.6875C18.6875 20.5625 19.75 21 21 21Z" fill="black"/>
</g>
</svg>
