<svg width="21" height="21" viewBox="0 0 21 21" fill="none" xmlns="http://www.w3.org/2000/svg">
<g clip-path="url(#clip0_205_51)">
<path fill-rule="evenodd" clip-rule="evenodd" d="M0.772461 0H20.6052C20.8223 0 21.0017 0.178213 21.0017 0.397552V1.74443C21.0017 1.96206 20.824 2.14198 20.6052 2.14198H20.3181V12.4766C20.3181 12.6343 20.2532 12.7799 20.1489 12.8845C20.0447 12.989 19.8994 13.0541 19.7405 13.0541H15.6594V13.8235H14.8186V15.0179C14.5708 14.6032 14.2632 14.2827 13.9248 14.06C13.5215 13.7944 13.0754 13.6624 12.626 13.6641C12.1731 13.6659 11.7288 13.8047 11.3271 14.0754C10.8948 14.3684 10.5171 14.8225 10.2573 15.4308H8.78076C8.75342 15.4206 8.72437 15.4103 8.69531 15.4C8.4458 15.3126 8.18604 15.2698 7.93652 15.2698C7.68701 15.2698 7.42896 15.3126 7.17773 15.4C7.14868 15.4103 7.12134 15.4206 7.09229 15.4308H6.55396V13.8235H5.71314V13.0541H1.63721C1.47827 13.0541 1.33301 12.989 1.22876 12.8845C1.21851 12.8742 1.20996 12.8639 1.20142 12.8536C1.11255 12.7525 1.05957 12.6188 1.05957 12.4766V2.14198H0.772461C0.55542 2.14198 0.375977 1.96377 0.375977 1.74443V0.397552C0.375977 0.178213 0.553711 0 0.772461 0ZM11.3049 18.5273C9.58569 18.5273 10.717 18.6627 10.9512 16.788C11.3015 13.9846 13.959 13.9846 14.3521 16.788C14.6033 18.5907 15.6816 18.5273 13.9983 18.5273H13.3267C13.3232 18.9865 13.2532 19.2213 13.7283 19.4783C13.9709 19.6103 14.4221 19.708 14.8066 19.8605C15.3945 19.3567 16.4387 19.6891 16.5464 18.7655C16.5635 18.625 16.2319 18.0886 16.1567 17.8316C15.9944 17.5711 15.9363 17.1599 16.114 16.8857C16.1841 16.776 16.155 16.3785 16.155 16.2294C16.155 14.7368 18.7646 14.7351 18.7646 16.2294C18.7646 16.4179 18.7219 16.7657 18.8228 16.9131C18.9937 17.1616 18.9048 17.602 18.7612 17.8316C18.6689 18.1023 18.3169 18.613 18.3477 18.7655C18.6006 20.0575 20.3574 18.6747 20.3574 21C13.5728 21 6.78638 21 0.00170898 21C0.00170898 18.637 2.22681 19.9444 2.39771 18.4965C2.4165 18.3388 2.04565 17.7373 1.96021 17.4494C1.77905 17.1581 1.7124 16.6955 1.91235 16.3887C1.99097 16.2671 1.9585 15.8215 1.9585 15.6519C1.9585 13.9777 4.88257 13.9777 4.88257 15.6519C4.88257 15.8644 4.83472 16.2534 4.94922 16.4196C5.14062 16.6972 5.0415 17.1907 4.88086 17.4494C4.77661 17.7528 4.38354 18.3251 4.41602 18.4965C4.53906 19.1219 6.09424 19.5469 6.63599 19.7765C6.9419 19.6189 7.18799 19.4321 7.21362 19.2162C7.22729 19.1031 6.9624 18.6764 6.90259 18.4707C6.77271 18.2634 6.72656 17.9344 6.86841 17.7151C6.9248 17.6277 6.90088 17.3106 6.90088 17.1907C6.90088 15.9998 8.98413 15.998 8.98413 17.1907C8.98413 17.3415 8.94995 17.6191 9.03027 17.7373C9.16699 17.9361 9.09692 18.2874 8.98071 18.4707C8.90723 18.6867 8.62695 19.0945 8.65088 19.2162C8.80469 19.9976 9.64722 19.5537 10.0454 20.1004C10.4214 19.8039 11.1699 19.7217 11.6262 19.4475C12.0432 19.1973 11.9731 18.9454 11.9697 18.529L11.3049 18.5273ZM5.23804 10.2507H8.76025V9.24651H8.59106C8.5022 9.24651 8.42871 9.17283 8.42871 9.08372V8.6776C8.42871 8.36573 8.68335 8.10869 8.99609 8.10869H9.15332C9.46436 8.10869 9.7207 8.36401 9.7207 8.6776V9.08201C9.7207 9.17111 9.64722 9.2448 9.55835 9.2448H9.38916V10.249H11.9526V9.2448H11.7834C11.6946 9.2448 11.6211 9.17111 11.6211 9.08201V8.67589C11.6211 8.36401 11.8757 8.10698 12.1885 8.10698H12.3457C12.6567 8.10698 12.9131 8.3623 12.9131 8.67589V9.08029C12.9131 9.1694 12.8396 9.24308 12.7507 9.24308H12.5815V10.2472H16.1396C16.2866 10.2472 16.4062 10.3672 16.4062 10.5146V12.1476C16.4062 12.2282 16.3704 12.3018 16.3123 12.3515H19.6191V2.18654H1.75854V12.355H5.06543C5.00732 12.3053 4.97144 12.2333 4.97144 12.151V10.518C4.97144 10.3706 5.09106 10.2507 5.23804 10.2507Z" fill="#737373"/>
</g>
<defs>
<clipPath id="clip0_205_51">
<rect width="21" height="21" fill="white"/>
</clipPath>
</defs>
</svg>
