<svg width="16" height="18" viewBox="0 0 16 18" fill="none" xmlns="http://www.w3.org/2000/svg">
<g clip-path="url(#clip0_229_2)" filter="url(#filter0_i_229_2)">
<path fill-rule="evenodd" clip-rule="evenodd" d="M5.65961 1.9367C5.65364 2.19392 5.69672 2.3177 5.91883 2.31799H11.262C12.2295 2.39431 13.0954 2.6508 13.8274 3.1506C14.3356 3.49762 14.7065 3.90982 14.9864 4.36671C15.483 5.17778 15.7636 6.34731 15.9156 7.29154C15.9811 7.69978 16.0118 8.08137 15.9418 8.25832C15.9086 8.34167 15.8595 8.39792 15.7929 8.42458C15.4255 8.57268 15.0372 8.06365 14.8302 7.82005C13.8448 6.66019 12.4126 6.18031 10.7239 6.09023H5.83922C5.66441 6.1207 5.60241 6.25077 5.61987 6.45145V7.83587C5.60968 8.29597 5.37913 8.45256 4.9221 8.29729L0.716109 4.97549L0.302453 4.64869L0.196637 4.56519C-0.141478 4.25919 -0.00247674 3.98058 0.300997 3.74005L0.622083 3.48576L4.65239 0.292862C5.14421 -0.0969296 5.65961 -0.201226 5.65961 0.638855V1.9367ZM10.3402 16.0634C10.3462 15.806 10.3033 15.6822 10.0812 15.6819H4.73798C3.7705 15.6056 2.90462 15.3493 2.17264 14.8493C1.66117 14.5001 1.28885 14.0851 1.00852 13.625C0.501276 12.7921 0.170584 11.4364 0.0491939 10.4635C0.0104773 10.1531 0.00247198 9.88253 0.0583636 9.74176C0.0914037 9.65841 0.1406 9.60216 0.207117 9.57535C0.574488 9.42726 0.962818 9.93629 1.16979 10.1799C2.15532 11.3397 3.58754 11.8196 5.27623 11.9097H10.1609C10.3356 11.8794 10.3977 11.7492 10.3803 11.5485V10.1641C10.3905 9.70397 10.621 9.54738 11.078 9.70265L15.2839 13.0244L15.6977 13.3513L15.8035 13.4347C16.1416 13.7408 16.0025 14.0194 15.699 14.2599L15.3781 14.5142L11.3479 17.7071C10.8559 18.0969 10.3405 18.2012 10.3405 17.3611V16.0634H10.3402Z" fill="#737373"/>
</g>
<defs>
<filter id="filter0_i_229_2" x="0" y="0" width="16" height="22" filterUnits="userSpaceOnUse" color-interpolation-filters="sRGB">
<feFlood flood-opacity="0" result="BackgroundImageFix"/>
<feBlend mode="normal" in="SourceGraphic" in2="BackgroundImageFix" result="shape"/>
<feColorMatrix in="SourceAlpha" type="matrix" values="0 0 0 0 0 0 0 0 0 0 0 0 0 0 0 0 0 0 127 0" result="hardAlpha"/>
<feOffset dy="4"/>
<feGaussianBlur stdDeviation="2"/>
<feComposite in2="hardAlpha" operator="arithmetic" k2="-1" k3="1"/>
<feColorMatrix type="matrix" values="0 0 0 0 0 0 0 0 0 0 0 0 0 0 0 0 0 0 0.25 0"/>
<feBlend mode="normal" in2="shape" result="effect1_innerShadow_229_2"/>
</filter>
<clipPath id="clip0_229_2">
<rect width="16" height="18" fill="white"/>
</clipPath>
</defs>
</svg>
