<svg width="27" height="27" viewBox="0 0 27 27" fill="none" xmlns="http://www.w3.org/2000/svg">
<g clip-path="url(#clip0_139_53)">
<path d="M13.5 27C20.9558 27 27 20.9558 27 13.5C27 6.04416 20.9558 0 13.5 0C6.04416 0 0 6.04416 0 13.5C0 20.9558 6.04416 27 13.5 27Z" fill="#737373"/>
<path fill-rule="evenodd" clip-rule="evenodd" d="M21.4754 13.4075C21.4754 11.2504 20.601 9.29752 19.1874 7.88391C17.7738 6.4703 15.8209 5.59595 13.6638 5.59595C11.5067 5.59595 9.55384 6.4703 8.14023 7.88391C6.72662 9.29752 5.85226 11.2504 5.85226 13.4075C5.85226 14.1648 5.96099 14.8989 6.16375 15.595C6.3605 16.2705 6.64612 16.9082 7.00704 17.4948L5.55159 21.042C5.52252 21.0993 5.51546 21.1678 5.53736 21.2336C5.58084 21.3641 5.72198 21.4348 5.85257 21.3913L9.66805 20.1195C10.2467 20.4648 10.873 20.7374 11.5343 20.9245C12.2122 21.1163 12.9266 21.2191 13.6638 21.2191C15.8209 21.2191 17.7738 20.3447 19.1874 18.9311C20.601 17.5175 21.4754 15.5646 21.4754 13.4075ZM11.4328 12.1316C11.5095 11.5056 11.7364 11.0252 12.1135 10.6919C12.4906 10.3586 12.9898 10.1927 13.6095 10.1927C14.2668 10.1927 14.791 10.3711 15.1822 10.7294C15.5734 11.0862 15.769 11.5181 15.769 12.0267C15.769 12.3193 15.7002 12.5901 15.5625 12.8373C15.4248 13.0846 15.1572 13.3866 14.7566 13.7402C14.4874 13.9797 14.3122 14.1549 14.2292 14.2676C14.1463 14.3818 14.0852 14.5117 14.0461 14.6573C14.0054 14.8044 13.9835 15.0422 13.9773 15.3724H13.1839C13.1808 15.2629 13.1792 15.1799 13.1792 15.1252C13.1792 14.8012 13.2246 14.5211 13.3169 14.2864C13.3842 14.1096 13.4922 13.9312 13.6424 13.7496C13.7519 13.6182 13.9507 13.4273 14.2355 13.1753C14.5218 12.9218 14.7065 12.7215 14.7926 12.5713C14.8786 12.4226 14.9209 12.2583 14.9209 12.0815C14.9209 11.7607 14.7957 11.479 14.5453 11.2349C14.2949 10.9923 13.9867 10.8703 13.6236 10.8703C13.2715 10.8703 12.9789 10.9814 12.7442 11.2005C12.5079 11.4211 12.3545 11.7654 12.281 12.2333L11.4328 12.1316ZM13.1338 17.028V16.0875H14.0727V17.028H13.1338Z" fill="#FFFFFE" stroke="#737373" stroke-width="0.666708"/>
</g>
<defs>
<clipPath id="clip0_139_53">
<rect width="27" height="27" fill="white"/>
</clipPath>
</defs>
</svg>
