<svg width="18" height="18" viewBox="0 0 18 18" fill="none" xmlns="http://www.w3.org/2000/svg">
<path d="M1.28571 17.1429C0.942857 17.1429 0.642857 17.0143 0.385714 16.7571C0.128571 16.5 0 16.2 0 15.8571V2.57143C0 2.22857 0.128571 1.92857 0.385714 1.67143C0.642857 1.41429 0.942857 1.28571 1.28571 1.28571H2.67857V0H4.07143V1.28571H11.3571V0H12.75V1.28571H14.1429C14.4857 1.28571 14.7857 1.41429 15.0429 1.67143C15.3 1.92857 15.4286 2.22857 15.4286 2.57143V9.02143H14.1429V6.64286H1.28571V15.8571H8.12143V17.1429H1.28571ZM16.4786 12.45L14.9571 10.9286L15.5786 10.3071C15.6929 10.1929 15.8429 10.1357 16.0286 10.1357C16.2143 10.1357 16.3643 10.1929 16.4786 10.3071L17.1 10.9286C17.2143 11.0429 17.2714 11.1929 17.2714 11.3786C17.2714 11.5643 17.2143 11.7143 17.1 11.8286L16.4786 12.45ZM9.40714 18V16.4786L14.0357 11.85L15.5571 13.3714L10.9286 18H9.40714ZM1.28571 5.35714H14.1429V2.57143H1.28571V5.35714ZM1.28571 5.35714V2.57143V5.35714Z" fill="black" fill-opacity="0.6"/>
</svg>
