<svg width="22" height="22" viewBox="0 0 22 22" fill="none" xmlns="http://www.w3.org/2000/svg">
<path d="M11.0003 3.66675C11.9728 3.66675 12.9054 4.05306 13.5931 4.74069C14.2807 5.42832 14.667 6.36095 14.667 7.33341C14.667 8.30587 14.2807 9.23851 13.5931 9.92614C12.9054 10.6138 11.9728 11.0001 11.0003 11.0001C10.0279 11.0001 9.09523 10.6138 8.4076 9.92614C7.71997 9.23851 7.33366 8.30587 7.33366 7.33341C7.33366 6.36095 7.71997 5.42832 8.4076 4.74069C9.09523 4.05306 10.0279 3.66675 11.0003 3.66675ZM11.0003 12.8334C15.052 12.8334 18.3337 14.4742 18.3337 16.5001V18.3334H3.66699V16.5001C3.66699 14.4742 6.94866 12.8334 11.0003 12.8334Z" fill="#121212" fill-opacity="0.45"/>
</svg>
