<svg width="36" height="36" viewBox="0 0 36 36" fill="none" xmlns="http://www.w3.org/2000/svg">
<circle cx="18" cy="18" r="18" fill="#4B1A85" fill-opacity="0.1"/>
<path d="M26.39 25.37L22.38 24L21 28L17.92 22L15 28L13.62 24L9.60999 25.37L12.53 19.37C11.57 18.17 11 16.65 11 15C11 13.1435 11.7375 11.363 13.0502 10.0503C14.363 8.7375 16.1435 8 18 8C19.8565 8 21.637 8.7375 22.9497 10.0503C24.2625 11.363 25 13.1435 25 15C25 16.65 24.43 18.17 23.47 19.37L26.39 25.37ZM13 15L15.69 16.34L15.5 19.34L18 17.68L20.5 19.33L20.33 16.34L23 15L20.32 13.65L20.5 10.67L18 12.31L15.5 10.65L15.67 13.66L13 15Z" fill="#1C023B" fill-opacity="0.8"/>
</svg>
