<svg width="22" height="22" viewBox="0 0 22 22" fill="none" xmlns="http://www.w3.org/2000/svg">
<path d="M2.36523 17.4263L2.34689 17.4447C2.09939 16.9038 1.94356 16.2897 1.87939 15.6113C1.94356 16.2805 2.11773 16.8855 2.36523 17.4263Z" fill="#436DFA"/>
<path d="M8.25003 9.51568C9.45493 9.51568 10.4317 8.53891 10.4317 7.33401C10.4317 6.12911 9.45493 5.15234 8.25003 5.15234C7.04512 5.15234 6.06836 6.12911 6.06836 7.33401C6.06836 8.53891 7.04512 9.51568 8.25003 9.51568Z" fill="#436DFA"/>
<path d="M14.841 1.83398H7.15933C3.82266 1.83398 1.8335 3.82315 1.8335 7.15982V14.8415C1.8335 15.8407 2.00766 16.7115 2.34683 17.4448C3.13516 19.1865 4.82183 20.1673 7.15933 20.1673H14.841C18.1777 20.1673 20.1668 18.1782 20.1668 14.8415V12.7423V7.15982C20.1668 3.82315 18.1777 1.83398 14.841 1.83398ZM18.6727 11.459C17.9577 10.8448 16.8027 10.8448 16.0877 11.459L12.2743 14.7315C11.5593 15.3457 10.4043 15.3457 9.68933 14.7315L9.37766 14.4748C8.72683 13.9065 7.691 13.8515 6.95766 14.3465L3.52933 16.6473C3.32766 16.134 3.2085 15.5382 3.2085 14.8415V7.15982C3.2085 4.57482 4.57433 3.20898 7.15933 3.20898H14.841C17.426 3.20898 18.7918 4.57482 18.7918 7.15982V11.5598L18.6727 11.459Z" fill="#436DFA"/>
</svg>
