<svg width="96" height="22" viewBox="0 0 96 22" fill="none" xmlns="http://www.w3.org/2000/svg">
<path d="M33.6357 17L32.4053 13.8281H28.3994L27.1758 17H26L29.9102 6.96484H30.9561L34.8389 17H33.6357ZM32.0566 12.7959L30.8877 9.64453C30.8604 9.5625 30.8148 9.42806 30.751 9.24121C30.6917 9.05436 30.6302 8.86068 30.5664 8.66016C30.5026 8.45964 30.4502 8.29785 30.4092 8.1748C30.3636 8.36165 30.3135 8.5485 30.2588 8.73535C30.2087 8.91764 30.1585 9.08854 30.1084 9.24805C30.0583 9.40299 30.015 9.53516 29.9785 9.64453L28.7891 12.7959H32.0566ZM38.7217 17.1367C37.7738 17.1367 37.0218 16.8132 36.4658 16.166C35.9144 15.5189 35.6387 14.5573 35.6387 13.2812C35.6387 11.9915 35.9212 11.0186 36.4863 10.3623C37.0514 9.7015 37.8034 9.37109 38.7422 9.37109C39.1387 9.37109 39.485 9.4235 39.7812 9.52832C40.0775 9.63314 40.3327 9.77441 40.5469 9.95215C40.7611 10.1253 40.9411 10.3236 41.0869 10.5469H41.1689C41.1507 10.4056 41.1325 10.2119 41.1143 9.96582C41.096 9.71973 41.0869 9.51921 41.0869 9.36426V6.36328H42.2217V17H41.3057L41.1348 15.9336H41.0869C40.9456 16.1569 40.7656 16.3597 40.5469 16.542C40.3327 16.7243 40.0752 16.8701 39.7744 16.9795C39.4782 17.0843 39.1273 17.1367 38.7217 17.1367ZM38.8994 16.1934C39.7015 16.1934 40.2689 15.9655 40.6016 15.5098C40.9342 15.054 41.1006 14.3773 41.1006 13.4795V13.2744C41.1006 12.3219 40.9411 11.5905 40.6221 11.0801C40.3076 10.5697 39.7334 10.3145 38.8994 10.3145C38.2021 10.3145 37.6803 10.5833 37.334 11.1211C36.9876 11.6543 36.8145 12.3835 36.8145 13.3086C36.8145 14.2292 36.9854 14.9401 37.3271 15.4414C37.6735 15.9427 38.1976 16.1934 38.8994 16.1934ZM47.2939 17.1367C46.346 17.1367 45.5941 16.8132 45.0381 16.166C44.4867 15.5189 44.2109 14.5573 44.2109 13.2812C44.2109 11.9915 44.4935 11.0186 45.0586 10.3623C45.6237 9.7015 46.3757 9.37109 47.3145 9.37109C47.7109 9.37109 48.0573 9.4235 48.3535 9.52832C48.6497 9.63314 48.9049 9.77441 49.1191 9.95215C49.3333 10.1253 49.5133 10.3236 49.6592 10.5469H49.7412C49.723 10.4056 49.7048 10.2119 49.6865 9.96582C49.6683 9.71973 49.6592 9.51921 49.6592 9.36426V6.36328H50.7939V17H49.8779L49.707 15.9336H49.6592C49.5179 16.1569 49.3379 16.3597 49.1191 16.542C48.9049 16.7243 48.6475 16.8701 48.3467 16.9795C48.0505 17.0843 47.6995 17.1367 47.2939 17.1367ZM47.4717 16.1934C48.2738 16.1934 48.8411 15.9655 49.1738 15.5098C49.5065 15.054 49.6729 14.3773 49.6729 13.4795V13.2744C49.6729 12.3219 49.5133 11.5905 49.1943 11.0801C48.8799 10.5697 48.3057 10.3145 47.4717 10.3145C46.7744 10.3145 46.2526 10.5833 45.9062 11.1211C45.5599 11.6543 45.3867 12.3835 45.3867 13.3086C45.3867 14.2292 45.5576 14.9401 45.8994 15.4414C46.2458 15.9427 46.7699 16.1934 47.4717 16.1934ZM57.9717 9.50781V17H56.8369V9.50781H57.9717ZM57.418 6.70508C57.6048 6.70508 57.7643 6.7666 57.8965 6.88965C58.0332 7.00814 58.1016 7.19499 58.1016 7.4502C58.1016 7.70085 58.0332 7.8877 57.8965 8.01074C57.7643 8.13379 57.6048 8.19531 57.418 8.19531C57.222 8.19531 57.0579 8.13379 56.9258 8.01074C56.7982 7.8877 56.7344 7.70085 56.7344 7.4502C56.7344 7.19499 56.7982 7.00814 56.9258 6.88965C57.0579 6.7666 57.222 6.70508 57.418 6.70508ZM68.5127 9.37109C69.3376 9.37109 69.9596 9.58757 70.3789 10.0205C70.7982 10.4489 71.0078 11.1393 71.0078 12.0918V17H69.8867V12.1465C69.8867 11.5404 69.7546 11.0869 69.4902 10.7861C69.2305 10.4808 68.8431 10.3281 68.3281 10.3281C67.6035 10.3281 67.0771 10.5378 66.749 10.957C66.4209 11.3763 66.2568 11.9938 66.2568 12.8096V17H65.1289V12.1465C65.1289 11.7409 65.0697 11.4036 64.9512 11.1348C64.8372 10.8659 64.6641 10.6654 64.4316 10.5332C64.2038 10.3965 63.9144 10.3281 63.5635 10.3281C63.0667 10.3281 62.668 10.4307 62.3672 10.6357C62.0664 10.8408 61.8477 11.1462 61.7109 11.5518C61.5788 11.9528 61.5127 12.4473 61.5127 13.0352V17H60.3779V9.50781H61.2939L61.4648 10.5674H61.5264C61.6768 10.3076 61.8659 10.0889 62.0938 9.91113C62.3216 9.7334 62.5768 9.59896 62.8594 9.50781C63.1419 9.41667 63.4427 9.37109 63.7617 9.37109C64.3314 9.37109 64.8076 9.47819 65.1904 9.69238C65.5778 9.90202 65.8581 10.2233 66.0312 10.6562H66.0928C66.3389 10.2233 66.6761 9.90202 67.1045 9.69238C67.5329 9.47819 68.0023 9.37109 68.5127 9.37109ZM76.1416 9.38477C77.0348 9.38477 77.6979 9.58529 78.1309 9.98633C78.5638 10.3874 78.7803 11.0277 78.7803 11.9072V17H77.9531L77.7344 15.8926H77.6797C77.4701 16.166 77.2513 16.3962 77.0234 16.583C76.7956 16.7653 76.5312 16.9043 76.2305 17C75.9342 17.0911 75.5697 17.1367 75.1367 17.1367C74.681 17.1367 74.2754 17.057 73.9199 16.8975C73.569 16.738 73.291 16.4964 73.0859 16.1729C72.8854 15.8493 72.7852 15.4391 72.7852 14.9424C72.7852 14.195 73.0814 13.6208 73.6738 13.2197C74.2663 12.8187 75.1686 12.5999 76.3809 12.5635L77.6729 12.5088V12.0508C77.6729 11.4036 77.5339 10.9502 77.2559 10.6904C76.9779 10.4307 76.5859 10.3008 76.0801 10.3008C75.6882 10.3008 75.3145 10.3577 74.959 10.4717C74.6035 10.5856 74.2663 10.7201 73.9473 10.875L73.5986 10.0137C73.9359 9.84049 74.3232 9.69238 74.7607 9.56934C75.1982 9.44629 75.6585 9.38477 76.1416 9.38477ZM77.6592 13.3086L76.5176 13.3564C75.5833 13.3929 74.9248 13.5456 74.542 13.8145C74.1592 14.0833 73.9678 14.4639 73.9678 14.9561C73.9678 15.3844 74.0977 15.7012 74.3574 15.9062C74.6172 16.1113 74.9613 16.2139 75.3896 16.2139C76.055 16.2139 76.5996 16.0293 77.0234 15.6602C77.4473 15.291 77.6592 14.7373 77.6592 13.999V13.3086ZM83.21 20.3633C82.2256 20.3633 81.4668 20.1787 80.9336 19.8096C80.4004 19.445 80.1338 18.9323 80.1338 18.2715C80.1338 17.8021 80.2819 17.401 80.5781 17.0684C80.8789 16.7357 81.2936 16.5146 81.8223 16.4053C81.6263 16.3141 81.4577 16.1774 81.3164 15.9951C81.1797 15.8128 81.1113 15.6032 81.1113 15.3662C81.1113 15.0928 81.1865 14.8535 81.3369 14.6484C81.4919 14.4388 81.7266 14.2383 82.041 14.0469C81.6491 13.8874 81.3301 13.6185 81.084 13.2402C80.8424 12.8574 80.7217 12.4131 80.7217 11.9072C80.7217 11.3695 80.8333 10.9115 81.0566 10.5332C81.2799 10.1504 81.6035 9.85872 82.0273 9.6582C82.4512 9.45768 82.9639 9.35742 83.5654 9.35742C83.6976 9.35742 83.8298 9.36426 83.9619 9.37793C84.0986 9.38704 84.2285 9.40299 84.3516 9.42578C84.4746 9.44401 84.5817 9.4668 84.6729 9.49414H87.2432V10.2256L85.8623 10.3965C85.999 10.5742 86.113 10.7884 86.2041 11.0391C86.2952 11.2897 86.3408 11.5677 86.3408 11.873C86.3408 12.6204 86.0879 13.2152 85.582 13.6572C85.0762 14.0947 84.3812 14.3135 83.4971 14.3135C83.2874 14.3135 83.0732 14.2952 82.8545 14.2588C82.6312 14.3818 82.4603 14.5186 82.3418 14.6689C82.2279 14.8193 82.1709 14.9925 82.1709 15.1885C82.1709 15.3343 82.2142 15.4505 82.3008 15.5371C82.3919 15.6237 82.5218 15.6875 82.6904 15.7285C82.859 15.765 83.0618 15.7832 83.2988 15.7832H84.6182C85.4339 15.7832 86.0583 15.9541 86.4912 16.2959C86.9287 16.6377 87.1475 17.1367 87.1475 17.793C87.1475 18.6224 86.8102 19.2581 86.1357 19.7002C85.4613 20.1423 84.486 20.3633 83.21 20.3633ZM83.2441 19.4746C83.8639 19.4746 84.3766 19.4108 84.7822 19.2832C85.1924 19.1602 85.4977 18.9801 85.6982 18.7432C85.9033 18.5107 86.0059 18.2327 86.0059 17.9092C86.0059 17.6084 85.9375 17.3805 85.8008 17.2256C85.6641 17.0752 85.4635 16.9749 85.1992 16.9248C84.9349 16.8701 84.6113 16.8428 84.2285 16.8428H82.9297C82.5924 16.8428 82.2985 16.8952 82.0479 17C81.7972 17.1048 81.6035 17.2598 81.4668 17.4648C81.3346 17.6699 81.2686 17.9251 81.2686 18.2305C81.2686 18.6361 81.4395 18.9437 81.7812 19.1533C82.123 19.3675 82.6107 19.4746 83.2441 19.4746ZM83.5381 13.4863C84.0804 13.4863 84.4883 13.3496 84.7617 13.0762C85.0352 12.8027 85.1719 12.404 85.1719 11.8799C85.1719 11.3193 85.0329 10.9001 84.7549 10.6221C84.4769 10.3395 84.0667 10.1982 83.5244 10.1982C83.0049 10.1982 82.6038 10.3441 82.3213 10.6357C82.0433 10.9229 81.9043 11.3444 81.9043 11.9004C81.9043 12.4108 82.0456 12.8027 82.3281 13.0762C82.6107 13.3496 83.014 13.4863 83.5381 13.4863ZM91.6045 9.37109C92.2425 9.37109 92.7894 9.51237 93.2451 9.79492C93.7008 10.0775 94.0495 10.474 94.291 10.9844C94.5326 11.4902 94.6533 12.0827 94.6533 12.7617V13.4658H89.4785C89.4922 14.3454 89.7109 15.0153 90.1348 15.4756C90.5586 15.9359 91.1556 16.166 91.9258 16.166C92.3997 16.166 92.819 16.1227 93.1836 16.0361C93.5482 15.9495 93.9264 15.8219 94.3184 15.6533V16.6514C93.9401 16.82 93.5641 16.943 93.1904 17.0205C92.8213 17.098 92.3838 17.1367 91.8779 17.1367C91.1579 17.1367 90.529 16.9909 89.9912 16.6992C89.458 16.403 89.0433 15.9701 88.7471 15.4004C88.4508 14.8307 88.3027 14.1335 88.3027 13.3086C88.3027 12.502 88.4372 11.8047 88.7061 11.2168C88.9795 10.6243 89.3623 10.1686 89.8545 9.84961C90.3512 9.5306 90.9346 9.37109 91.6045 9.37109ZM91.5908 10.3008C90.9847 10.3008 90.5016 10.499 90.1416 10.8955C89.7816 11.292 89.5674 11.8457 89.499 12.5566H93.4639C93.4593 12.11 93.3887 11.7181 93.252 11.3809C93.1198 11.0391 92.917 10.7747 92.6436 10.5879C92.3701 10.3965 92.0192 10.3008 91.5908 10.3008Z" fill="#121212" fill-opacity="0.6"/>
<path d="M10.9987 3.20825C5.04036 3.20825 3.20703 5.04159 3.20703 10.9999C3.20703 13.2263 3.463 14.8767 4.09449 16.0708C5.15303 18.0724 7.26673 18.7916 10.9987 18.7916C16.1554 18.7916 18.2224 17.4184 18.6852 13.1864C18.7572 12.5286 18.7904 11.8015 18.7904 10.9999C18.7904 5.04159 16.957 3.20825 10.9987 3.20825Z" stroke="#717171" stroke-width="1.5" stroke-linecap="round" stroke-linejoin="round"/>
<path fill-rule="evenodd" clip-rule="evenodd" d="M9.79748 8.10867C9.79748 9.04275 9.0394 9.80084 8.10531 9.80084C7.17215 9.80084 6.41406 9.04275 6.41406 8.10867C6.41406 7.17459 7.17215 6.4165 8.10531 6.4165C9.0394 6.4165 9.79748 7.17459 9.79748 8.10867Z" stroke="#717171" stroke-width="1.5" stroke-linecap="round" stroke-linejoin="round"/>
<path d="M4.09375 16.0709L6.9516 13.213C7.66756 12.4971 8.82836 12.4971 9.5443 13.213L9.70161 13.3703C10.4175 14.0863 11.5784 14.0863 12.2943 13.3703L14.2849 11.3797C15.0009 10.6638 16.1617 10.6638 16.8776 11.3797L18.6845 13.1866" stroke="#717171" stroke-width="1.5" stroke-linecap="round" stroke-linejoin="round"/>
</svg>
