<svg width="58" height="20" viewBox="0 0 58 20" fill="none" xmlns="http://www.w3.org/2000/svg">
<path d="M49.6673 8.68398H54.3173V11.3173H49.6673H49.3173V11.6673V16.3173H46.684V11.6673V11.3173H46.334H41.684V8.68398H46.334H46.684V8.33398V3.68398H49.3173V8.33398V8.68398H49.6673Z" fill="white" stroke="#002BBE" stroke-width="0.7"/>
<path d="M2.71449 16H0.850852L5.03835 4.36364H7.06676L11.2543 16H9.39062L6.10085 6.47727H6.00994L2.71449 16ZM3.02699 11.4432H9.07244V12.9205H3.02699V11.4432ZM15.9247 16.1705C15.2202 16.1705 14.5914 15.9905 14.0384 15.6307C13.4891 15.267 13.0573 14.75 12.7429 14.0795C12.4323 13.4053 12.277 12.5966 12.277 11.6534C12.277 10.7102 12.4342 9.90341 12.7486 9.23295C13.0668 8.5625 13.5024 8.04924 14.0554 7.69318C14.6084 7.33712 15.2353 7.15909 15.9361 7.15909C16.4777 7.15909 16.9134 7.25 17.2429 7.43182C17.5762 7.60985 17.8338 7.81818 18.0156 8.05682C18.2012 8.29545 18.3452 8.50568 18.4474 8.6875H18.5497V4.36364H20.2486V16H18.5895V14.642H18.4474C18.3452 14.8277 18.1974 15.0398 18.0043 15.2784C17.8149 15.517 17.5535 15.7254 17.2202 15.9034C16.8868 16.0814 16.455 16.1705 15.9247 16.1705ZM16.2997 14.7216C16.7884 14.7216 17.2012 14.5928 17.5384 14.3352C17.8793 14.0739 18.1368 13.7121 18.3111 13.25C18.4891 12.7879 18.5781 12.25 18.5781 11.6364C18.5781 11.0303 18.491 10.5 18.3168 10.0455C18.1425 9.59091 17.8868 9.23674 17.5497 8.98295C17.2126 8.72917 16.7959 8.60227 16.2997 8.60227C15.7884 8.60227 15.3622 8.73485 15.0213 9C14.6804 9.26515 14.4228 9.62689 14.2486 10.0852C14.0781 10.5436 13.9929 11.0606 13.9929 11.6364C13.9929 12.2197 14.08 12.7443 14.2543 13.2102C14.4285 13.6761 14.6861 14.0455 15.027 14.3182C15.3717 14.5871 15.7959 14.7216 16.2997 14.7216ZM25.9403 16.1705C25.2358 16.1705 24.607 15.9905 24.054 15.6307C23.5047 15.267 23.0729 14.75 22.7585 14.0795C22.4479 13.4053 22.2926 12.5966 22.2926 11.6534C22.2926 10.7102 22.4498 9.90341 22.7642 9.23295C23.0824 8.5625 23.518 8.04924 24.071 7.69318C24.6241 7.33712 25.2509 7.15909 25.9517 7.15909C26.4934 7.15909 26.929 7.25 27.2585 7.43182C27.5919 7.60985 27.8494 7.81818 28.0312 8.05682C28.2169 8.29545 28.3608 8.50568 28.4631 8.6875H28.5653V4.36364H30.2642V16H28.6051V14.642H28.4631C28.3608 14.8277 28.2131 15.0398 28.0199 15.2784C27.8305 15.517 27.5691 15.7254 27.2358 15.9034C26.9025 16.0814 26.4706 16.1705 25.9403 16.1705ZM26.3153 14.7216C26.804 14.7216 27.2169 14.5928 27.554 14.3352C27.8949 14.0739 28.1525 13.7121 28.3267 13.25C28.5047 12.7879 28.5938 12.25 28.5938 11.6364C28.5938 11.0303 28.5066 10.5 28.3324 10.0455C28.1581 9.59091 27.9025 9.23674 27.5653 8.98295C27.2282 8.72917 26.8116 8.60227 26.3153 8.60227C25.804 8.60227 25.3778 8.73485 25.0369 9C24.696 9.26515 24.4384 9.62689 24.2642 10.0852C24.0938 10.5436 24.0085 11.0606 24.0085 11.6364C24.0085 12.2197 24.0956 12.7443 24.2699 13.2102C24.4441 13.6761 24.7017 14.0455 25.0426 14.3182C25.3873 14.5871 25.8116 14.7216 26.3153 14.7216Z" fill="white"/>
</svg>
