<svg width="40" height="40" viewBox="0 0 40 40" fill="none" xmlns="http://www.w3.org/2000/svg">
<path d="M3 21.85V27H37V21.85H3ZM3 0H37C37.825 0 38.5312 0.29375 39.1188 0.88125C39.7063 1.46875 40 2.175 40 3V27C40 27.825 39.7063 28.5312 39.1188 29.1187C38.5312 29.7062 37.825 30 37 30H27.3V40L20 36.3L12.7 40V30H3C2.175 30 1.46875 29.7062 0.88125 29.1187C0.29375 28.5312 0 27.825 0 27V3C0 2.175 0.29375 1.46875 0.88125 0.88125C1.46875 0.29375 2.175 0 3 0ZM3 16.45H37V3H3V16.45Z" fill="black" fill-opacity="0.6"/>
</svg>
