<svg width="48" height="48" viewBox="0 0 48 48" fill="none" xmlns="http://www.w3.org/2000/svg">
<rect width="48" height="48" rx="24" fill="#4B1A85" fill-opacity="0.1"/>
<path d="M31 33.4834H31.15V33.3334V20.5V20.35H31H25.3167V14.6667V14.5167H25.1667H17H16.85V14.6667V33.3334V33.4834H17H31ZM21.3167 30.6851L22.0455 27.7698L22.0679 27.6802L21.998 27.6199L19.7071 25.6413L22.727 25.433L22.8203 25.4266L22.8556 25.34L24.0026 22.5245L25.1452 25.2252L25.1811 25.31L25.273 25.3164L28.2929 25.5246L26.0019 27.5032L25.9321 27.5635L25.9545 27.6531L26.6869 30.5828L24.0733 29.1192L23.9974 29.0767L23.9228 29.1214L21.3167 30.6851ZM17 12.4834H26.2712L33.1833 19.3955V33.3334C33.1833 34.5339 32.2005 35.5167 31 35.5167H17C15.7995 35.5167 14.8167 34.5339 14.8167 33.3334V14.6667C14.8167 13.4662 15.7995 12.4834 17 12.4834Z" fill="#1C023B" stroke="#EDE8F3" stroke-width="0.3"/>
</svg>
