<svg width="123" height="24" viewBox="0 0 123 24" fill="none" xmlns="http://www.w3.org/2000/svg">
<path d="M43.9787 16.9375H42.348L46.0121 6.75568H47.7869L51.451 16.9375H49.8203L46.9418 8.60511H46.8622L43.9787 16.9375ZM44.2521 12.9503H49.5419V14.2429H44.2521V12.9503ZM54.2885 6.75568V16.9375H52.802V6.75568H54.2885ZM57.7749 6.75568V16.9375H56.2884V6.75568H57.7749ZM69.1523 9.4304C69.0993 8.95975 68.8806 8.59517 68.4961 8.33665C68.1116 8.07481 67.6277 7.94389 67.0444 7.94389C66.6268 7.94389 66.2655 8.01018 65.9606 8.14276C65.6557 8.27202 65.4187 8.45099 65.2496 8.67969C65.0839 8.90507 65.0011 9.16193 65.0011 9.45028C65.0011 9.69223 65.0574 9.90104 65.1701 10.0767C65.2861 10.2524 65.4369 10.3999 65.6225 10.5192C65.8114 10.6352 66.0136 10.733 66.229 10.8125C66.4445 10.8887 66.6516 10.9517 66.8505 11.0014L67.8448 11.2599C68.1696 11.3395 68.5027 11.4472 68.8441 11.5831C69.1855 11.719 69.502 11.898 69.7937 12.12C70.0853 12.3421 70.3207 12.6172 70.4996 12.9453C70.6819 13.2734 70.7731 13.6662 70.7731 14.1236C70.7731 14.7003 70.6239 15.2124 70.3256 15.6598C70.0307 16.1072 69.6014 16.4602 69.038 16.7188C68.4779 16.9773 67.8001 17.1065 67.0046 17.1065C66.2423 17.1065 65.5827 16.9856 65.0259 16.7436C64.4691 16.5017 64.0333 16.1586 63.7184 15.7145C63.4035 15.267 63.2295 14.7367 63.1964 14.1236H64.7376C64.7674 14.4915 64.8867 14.7981 65.0955 15.0433C65.3076 15.2853 65.5778 15.4659 65.9059 15.5852C66.2373 15.7012 66.6003 15.7592 66.9947 15.7592C67.4289 15.7592 67.815 15.6913 68.1531 15.5554C68.4944 15.4162 68.7629 15.224 68.9585 14.9787C69.154 14.7301 69.2518 14.4401 69.2518 14.1087C69.2518 13.8071 69.1656 13.5601 68.9933 13.3679C68.8242 13.1757 68.5939 13.0166 68.3022 12.8906C68.0138 12.7647 67.6874 12.6536 67.3228 12.5575L66.1197 12.2294C65.3043 12.0073 64.658 11.6809 64.1808 11.25C63.7068 10.8191 63.4698 10.2491 63.4698 9.53977C63.4698 8.95312 63.6289 8.44105 63.9471 8.00355C64.2653 7.56605 64.6961 7.22633 65.2397 6.98438C65.7833 6.73911 66.3964 6.61648 67.0792 6.61648C67.7686 6.61648 68.3768 6.73745 68.9038 6.9794C69.4341 7.22135 69.8517 7.55445 70.1566 7.97869C70.4615 8.39962 70.6206 8.88352 70.6339 9.4304H69.1523ZM76.0542 9.30114V10.4943H71.883V9.30114H76.0542ZM73.0016 7.47159H74.4881V14.6953C74.4881 14.9837 74.5312 15.2008 74.6174 15.3466C74.7035 15.4891 74.8146 15.5869 74.9505 15.6399C75.0897 15.6896 75.2405 15.7145 75.4029 15.7145C75.5222 15.7145 75.6266 15.7062 75.7161 15.6896C75.8056 15.6731 75.8752 15.6598 75.9249 15.6499L76.1934 16.8778C76.1072 16.911 75.9846 16.9441 75.8255 16.9773C75.6664 17.0137 75.4675 17.0336 75.2289 17.0369C74.8378 17.0436 74.4732 16.974 74.1351 16.8281C73.7971 16.6823 73.5236 16.4569 73.3148 16.152C73.106 15.8471 73.0016 15.4643 73.0016 15.0036V7.47159ZM82.5359 13.7706V9.30114H84.0273V16.9375H82.5657V15.6151H82.4862C82.3105 16.0227 82.0288 16.3625 81.641 16.6342C81.2565 16.9027 80.7776 17.0369 80.2042 17.0369C79.7137 17.0369 79.2795 16.9292 78.9016 16.7138C78.5271 16.495 78.2321 16.1719 78.0167 15.7443C77.8046 15.3168 77.6985 14.7881 77.6985 14.1584V9.30114H79.185V13.9794C79.185 14.4998 79.3292 14.9141 79.6175 15.2223C79.9059 15.5305 80.2804 15.6847 80.7411 15.6847C81.0195 15.6847 81.2963 15.6151 81.5714 15.4759C81.8498 15.3366 82.0801 15.1262 82.2624 14.8445C82.448 14.5627 82.5392 14.2048 82.5359 13.7706ZM88.8833 17.0866C88.2669 17.0866 87.7167 16.9292 87.2328 16.6143C86.7522 16.2962 86.3743 15.8437 86.0993 15.2571C85.8275 14.6671 85.6916 13.9595 85.6916 13.1342C85.6916 12.3089 85.8291 11.603 86.1042 11.0163C86.3826 10.4297 86.7638 9.98059 87.2477 9.66903C87.7316 9.35748 88.2801 9.2017 88.8933 9.2017C89.3672 9.2017 89.7484 9.28125 90.0368 9.44034C90.3284 9.59612 90.5538 9.77841 90.7129 9.98722C90.8753 10.196 91.0012 10.38 91.0907 10.5391H91.1802V6.75568H92.6667V16.9375H91.215V15.7493H91.0907C91.0012 15.9117 90.872 16.0973 90.7029 16.3061C90.5372 16.5149 90.3085 16.6972 90.0169 16.853C89.7252 17.0088 89.3474 17.0866 88.8833 17.0866ZM89.2115 15.8189C89.639 15.8189 90.0003 15.7062 90.2953 15.4808C90.5936 15.2521 90.819 14.9356 90.9714 14.5312C91.1272 14.1269 91.2051 13.6562 91.2051 13.1193C91.2051 12.589 91.1288 12.125 90.9764 11.7273C90.8239 11.3295 90.6002 11.0196 90.3052 10.7976C90.0102 10.5755 89.6457 10.4645 89.2115 10.4645C88.764 10.4645 88.3912 10.5805 88.0929 10.8125C87.7946 11.0445 87.5692 11.361 87.4167 11.7621C87.2676 12.1631 87.193 12.6155 87.193 13.1193C87.193 13.6297 87.2692 14.0888 87.4217 14.4964C87.5742 14.9041 87.7995 15.2273 88.0978 15.4659C88.3994 15.7012 88.7707 15.8189 89.2115 15.8189ZM98.0795 17.0916C97.3272 17.0916 96.6792 16.9309 96.1357 16.6094C95.5954 16.2846 95.1778 15.8288 94.8828 15.2422C94.5911 14.6522 94.4453 13.9612 94.4453 13.169C94.4453 12.3868 94.5911 11.6974 94.8828 11.1009C95.1778 10.5043 95.5888 10.0386 96.1158 9.70383C96.6461 9.36908 97.2659 9.2017 97.9751 9.2017C98.406 9.2017 98.8236 9.27296 99.228 9.41548C99.6323 9.558 99.9953 9.78172 100.317 10.0866C100.638 10.3916 100.892 10.7876 101.077 11.2749C101.263 11.7588 101.356 12.3471 101.356 13.0398V13.5668H95.2855V12.4531H99.8991C99.8991 12.062 99.8196 11.7157 99.6605 11.4141C99.5014 11.1091 99.2777 10.8688 98.9893 10.6932C98.7043 10.5175 98.3696 10.4297 97.9851 10.4297C97.5675 10.4297 97.2029 10.5324 96.8913 10.7379C96.5831 10.9401 96.3445 11.2053 96.1754 11.5334C96.0097 11.8582 95.9268 12.2112 95.9268 12.5923V13.4624C95.9268 13.9728 96.0163 14.407 96.1953 14.7649C96.3776 15.1229 96.6312 15.3963 96.956 15.5852C97.2808 15.7708 97.6603 15.8636 98.0945 15.8636C98.3762 15.8636 98.633 15.8239 98.8651 15.7443C99.0971 15.6615 99.2976 15.5388 99.4666 15.3764C99.6357 15.214 99.7649 15.0135 99.8544 14.7749L101.261 15.0284C101.149 15.4427 100.946 15.8056 100.655 16.1172C100.366 16.4254 100.004 16.6657 99.5661 16.8381C99.1319 17.0071 98.6364 17.0916 98.0795 17.0916ZM104.492 12.4034V16.9375H103.005V9.30114H104.432V10.544H104.526C104.702 10.1397 104.977 9.81487 105.352 9.5696C105.73 9.32434 106.205 9.2017 106.779 9.2017C107.299 9.2017 107.755 9.31108 108.146 9.52983C108.537 9.74527 108.84 10.0668 109.056 10.4943C109.271 10.9219 109.379 11.4505 109.379 12.0803V16.9375H107.892V12.2592C107.892 11.7057 107.748 11.2732 107.46 10.9616C107.171 10.6468 106.775 10.4893 106.271 10.4893C105.927 10.4893 105.62 10.5639 105.352 10.7131C105.087 10.8622 104.876 11.081 104.72 11.3693C104.568 11.6544 104.492 11.9991 104.492 12.4034ZM114.937 9.30114V10.4943H110.766V9.30114H114.937ZM111.884 7.47159H113.371V14.6953C113.371 14.9837 113.414 15.2008 113.5 15.3466C113.586 15.4891 113.697 15.5869 113.833 15.6399C113.972 15.6896 114.123 15.7145 114.286 15.7145C114.405 15.7145 114.509 15.7062 114.599 15.6896C114.688 15.6731 114.758 15.6598 114.808 15.6499L115.076 16.8778C114.99 16.911 114.867 16.9441 114.708 16.9773C114.549 17.0137 114.35 17.0336 114.112 17.0369C113.721 17.0436 113.356 16.974 113.018 16.8281C112.68 16.6823 112.406 16.4569 112.198 16.152C111.989 15.8471 111.884 15.4643 111.884 15.0036V7.47159ZM122.181 11.1655L120.833 11.4041C120.777 11.2318 120.687 11.0677 120.565 10.9119C120.445 10.7562 120.283 10.6286 120.078 10.5291C119.872 10.4297 119.615 10.38 119.307 10.38C118.886 10.38 118.535 10.4744 118.253 10.6634C117.971 10.849 117.83 11.0893 117.83 11.3842C117.83 11.6394 117.925 11.8449 118.114 12.0007C118.303 12.1565 118.608 12.2841 119.029 12.3835L120.242 12.6619C120.944 12.8243 121.468 13.0746 121.813 13.4126C122.157 13.7507 122.33 14.1899 122.33 14.7301C122.33 15.1875 122.197 15.5952 121.932 15.9531C121.67 16.3078 121.304 16.5862 120.833 16.7884C120.366 16.9905 119.824 17.0916 119.208 17.0916C118.352 17.0916 117.655 16.9093 117.115 16.5447C116.574 16.1768 116.243 15.6548 116.12 14.9787L117.557 14.7599C117.646 15.1345 117.83 15.4179 118.109 15.6101C118.387 15.799 118.75 15.8935 119.198 15.8935C119.685 15.8935 120.074 15.7924 120.366 15.5902C120.658 15.3847 120.803 15.1345 120.803 14.8395C120.803 14.6009 120.714 14.4003 120.535 14.2379C120.359 14.0755 120.089 13.9529 119.725 13.87L118.432 13.5866C117.719 13.4242 117.192 13.1657 116.851 12.8111C116.513 12.4564 116.344 12.0073 116.344 11.4638C116.344 11.013 116.47 10.6186 116.722 10.2805C116.974 9.94247 117.322 9.67898 117.766 9.49006C118.21 9.29782 118.719 9.2017 119.292 9.2017C120.117 9.2017 120.767 9.38068 121.241 9.73864C121.715 10.0933 122.028 10.5689 122.181 11.1655Z" fill="white"/>
<path d="M20 17C20.5304 17 21.0391 16.7893 21.4142 16.4142C21.7893 16.0391 22 15.5304 22 15V4C22 3.46957 21.7893 2.96086 21.4142 2.58579C21.0391 2.21071 20.5304 2 20 2H9.46C9.81 2.61 10 3.3 10 4H20V15H11V17H20ZM15 7V9H9V22H7V16H5V22H3V14H1.5V9C1.5 8.46957 1.71071 7.96086 2.08579 7.58579C2.46086 7.21071 2.96957 7 3.5 7H15ZM8 4C8 4.53043 7.78929 5.03914 7.41421 5.41421C7.03914 5.78929 6.53043 6 6 6C5.46957 6 4.96086 5.78929 4.58579 5.41421C4.21071 5.03914 4 4.53043 4 4C4 3.46957 4.21071 2.96086 4.58579 2.58579C4.96086 2.21071 5.46957 2 6 2C6.53043 2 7.03914 2.21071 7.41421 2.58579C7.78929 2.96086 8 3.46957 8 4Z" fill="white"/>
</svg>
