<svg width="97" height="24" viewBox="0 0 97 24" fill="none" xmlns="http://www.w3.org/2000/svg">
<path d="M43.9787 16.9375H42.348L46.0121 6.75568H47.7869L51.451 16.9375H49.8203L46.9418 8.60511H46.8622L43.9787 16.9375ZM44.2521 12.9503H49.5419V14.2429H44.2521V12.9503ZM54.2885 6.75568V16.9375H52.802V6.75568H54.2885ZM57.7749 6.75568V16.9375H56.2884V6.75568H57.7749ZM69.1523 9.4304C69.0993 8.95975 68.8806 8.59517 68.4961 8.33665C68.1116 8.07481 67.6277 7.94389 67.0444 7.94389C66.6268 7.94389 66.2655 8.01018 65.9606 8.14276C65.6557 8.27202 65.4187 8.45099 65.2496 8.67969C65.0839 8.90507 65.0011 9.16193 65.0011 9.45028C65.0011 9.69223 65.0574 9.90104 65.1701 10.0767C65.2861 10.2524 65.4369 10.3999 65.6225 10.5192C65.8114 10.6352 66.0136 10.733 66.229 10.8125C66.4445 10.8887 66.6516 10.9517 66.8505 11.0014L67.8448 11.2599C68.1696 11.3395 68.5027 11.4472 68.8441 11.5831C69.1855 11.719 69.502 11.898 69.7937 12.12C70.0853 12.3421 70.3207 12.6172 70.4996 12.9453C70.6819 13.2734 70.7731 13.6662 70.7731 14.1236C70.7731 14.7003 70.6239 15.2124 70.3256 15.6598C70.0307 16.1072 69.6014 16.4602 69.038 16.7188C68.4779 16.9773 67.8001 17.1065 67.0046 17.1065C66.2423 17.1065 65.5827 16.9856 65.0259 16.7436C64.4691 16.5017 64.0333 16.1586 63.7184 15.7145C63.4035 15.267 63.2295 14.7367 63.1964 14.1236H64.7376C64.7674 14.4915 64.8867 14.7981 65.0955 15.0433C65.3076 15.2853 65.5778 15.4659 65.9059 15.5852C66.2373 15.7012 66.6003 15.7592 66.9947 15.7592C67.4289 15.7592 67.815 15.6913 68.1531 15.5554C68.4944 15.4162 68.7629 15.224 68.9585 14.9787C69.154 14.7301 69.2518 14.4401 69.2518 14.1087C69.2518 13.8071 69.1656 13.5601 68.9933 13.3679C68.8242 13.1757 68.5939 13.0166 68.3022 12.8906C68.0138 12.7647 67.6874 12.6536 67.3228 12.5575L66.1197 12.2294C65.3043 12.0073 64.658 11.6809 64.1808 11.25C63.7068 10.8191 63.4698 10.2491 63.4698 9.53977C63.4698 8.95312 63.6289 8.44105 63.9471 8.00355C64.2653 7.56605 64.6961 7.22633 65.2397 6.98438C65.7833 6.73911 66.3964 6.61648 67.0792 6.61648C67.7686 6.61648 68.3768 6.73745 68.9038 6.9794C69.4341 7.22135 69.8517 7.55445 70.1566 7.97869C70.4615 8.39962 70.6206 8.88352 70.6339 9.4304H69.1523ZM76.0542 9.30114V10.4943H71.883V9.30114H76.0542ZM73.0016 7.47159H74.4881V14.6953C74.4881 14.9837 74.5312 15.2008 74.6174 15.3466C74.7035 15.4891 74.8146 15.5869 74.9505 15.6399C75.0897 15.6896 75.2405 15.7145 75.4029 15.7145C75.5222 15.7145 75.6266 15.7062 75.7161 15.6896C75.8056 15.6731 75.8752 15.6598 75.9249 15.6499L76.1934 16.8778C76.1072 16.911 75.9846 16.9441 75.8255 16.9773C75.6664 17.0137 75.4675 17.0336 75.2289 17.0369C74.8378 17.0436 74.4732 16.974 74.1351 16.8281C73.7971 16.6823 73.5236 16.4569 73.3148 16.152C73.106 15.8471 73.0016 15.4643 73.0016 15.0036V7.47159ZM79.9208 17.1065C79.4369 17.1065 78.9994 17.017 78.6083 16.8381C78.2172 16.6558 77.9073 16.3923 77.6786 16.0476C77.4532 15.7029 77.3406 15.2803 77.3406 14.7798C77.3406 14.349 77.4234 13.9943 77.5891 13.7159C77.7549 13.4375 77.9786 13.2171 78.2603 13.0547C78.542 12.8923 78.8569 12.7696 79.2049 12.6868C79.5529 12.6039 79.9076 12.541 80.2688 12.4979C80.7262 12.4448 81.0974 12.4018 81.3825 12.3686C81.6675 12.3321 81.8746 12.2741 82.0039 12.1946C82.1332 12.1151 82.1978 11.9858 82.1978 11.8068V11.772C82.1978 11.3378 82.0752 11.0014 81.8299 10.7628C81.588 10.5241 81.2267 10.4048 80.7461 10.4048C80.2456 10.4048 79.8512 10.5159 79.5629 10.7379C79.2778 10.9567 79.0806 11.2003 78.9712 11.4688L77.5742 11.1506C77.7399 10.6866 77.9819 10.312 78.3001 10.027C78.6216 9.73864 78.9911 9.52983 79.4087 9.40057C79.8263 9.26799 80.2655 9.2017 80.7262 9.2017C81.0311 9.2017 81.3543 9.23816 81.6957 9.31108C82.0404 9.38068 82.3619 9.50994 82.6602 9.69886C82.9618 9.88778 83.2087 10.1579 83.4009 10.5092C83.5932 10.8572 83.6893 11.3097 83.6893 11.8665V16.9375H82.2376V15.8935H82.1779C82.0818 16.0857 81.9376 16.2746 81.7454 16.4602C81.5531 16.6458 81.3062 16.8 81.0046 16.9226C80.703 17.0452 80.3417 17.1065 79.9208 17.1065ZM80.244 15.9134C80.6549 15.9134 81.0063 15.8321 81.2979 15.6697C81.5929 15.5073 81.8166 15.2952 81.9691 15.0334C82.1249 14.7682 82.2028 14.4848 82.2028 14.1832V13.1989C82.1497 13.2519 82.047 13.3016 81.8945 13.348C81.7454 13.3911 81.5747 13.4292 81.3825 13.4624C81.1902 13.4922 81.003 13.5204 80.8207 13.5469C80.6384 13.5701 80.4859 13.59 80.3633 13.6065C80.0749 13.643 79.8114 13.7043 79.5728 13.7905C79.3375 13.8767 79.1486 14.0009 79.006 14.1634C78.8668 14.3224 78.7972 14.5346 78.7972 14.7997C78.7972 15.1676 78.9331 15.446 79.2049 15.6349C79.4767 15.8205 79.823 15.9134 80.244 15.9134ZM89.3034 9.30114V10.4943H84.9881V9.30114H89.3034ZM86.1713 16.9375V8.41619C86.1713 7.93892 86.2757 7.54285 86.4846 7.22798C86.6934 6.9098 86.9701 6.67282 87.3148 6.51705C87.6595 6.35795 88.034 6.27841 88.4384 6.27841C88.7367 6.27841 88.9919 6.30327 89.204 6.35298C89.4161 6.39938 89.5736 6.44247 89.6763 6.48224L89.3283 7.68537C89.2587 7.66548 89.1692 7.64228 89.0598 7.61577C88.9505 7.58594 88.8179 7.57102 88.6621 7.57102C88.3008 7.57102 88.0423 7.66051 87.8865 7.83949C87.7341 8.01847 87.6578 8.27699 87.6578 8.61506V16.9375H86.1713ZM94.4714 9.30114V10.4943H90.1561V9.30114H94.4714ZM91.3393 16.9375V8.41619C91.3393 7.93892 91.4437 7.54285 91.6525 7.22798C91.8613 6.9098 92.1381 6.67282 92.4828 6.51705C92.8275 6.35795 93.202 6.27841 93.6064 6.27841C93.9047 6.27841 94.1599 6.30327 94.372 6.35298C94.5841 6.39938 94.7415 6.44247 94.8443 6.48224L94.4963 7.68537C94.4267 7.66548 94.3372 7.64228 94.2278 7.61577C94.1184 7.58594 93.9859 7.57102 93.8301 7.57102C93.4688 7.57102 93.2103 7.66051 93.0545 7.83949C92.902 8.01847 92.8258 8.27699 92.8258 8.61506V16.9375H91.3393Z" fill="#121212" fill-opacity="0.8"/>
<path d="M20 17C20.5304 17 21.0391 16.7893 21.4142 16.4142C21.7893 16.0391 22 15.5304 22 15V4C22 3.46957 21.7893 2.96086 21.4142 2.58579C21.0391 2.21071 20.5304 2 20 2H9.46C9.81 2.61 10 3.3 10 4H20V15H11V17H20ZM15 7V9H9V22H7V16H5V22H3V14H1.5V9C1.5 8.46957 1.71071 7.96086 2.08579 7.58579C2.46086 7.21071 2.96957 7 3.5 7H15ZM8 4C8 4.53043 7.78929 5.03914 7.41421 5.41421C7.03914 5.78929 6.53043 6 6 6C5.46957 6 4.96086 5.78929 4.58579 5.41421C4.21071 5.03914 4 4.53043 4 4C4 3.46957 4.21071 2.96086 4.58579 2.58579C4.96086 2.21071 5.46957 2 6 2C6.53043 2 7.03914 2.21071 7.41421 2.58579C7.78929 2.96086 8 3.46957 8 4Z" fill="#121212" fill-opacity="0.8"/>
</svg>
