<svg width="32" height="32" viewBox="0 0 32 32" fill="none" xmlns="http://www.w3.org/2000/svg">
<path d="M22 20.08C21.24 20.08 20.56 20.38 20.04 20.85L12.91 16.7C12.96 16.47 13 16.24 13 16C13 15.76 12.96 15.53 12.91 15.3L19.96 11.19C20.5 11.69 21.21 12 22 12C22.7956 12 23.5587 11.6839 24.1213 11.1213C24.6839 10.5587 25 9.79565 25 9C25 8.20435 24.6839 7.44129 24.1213 6.87868C23.5587 6.31607 22.7956 6 22 6C21.2044 6 20.4413 6.31607 19.8787 6.87868C19.3161 7.44129 19 8.20435 19 9C19 9.24 19.04 9.47 19.09 9.7L12.04 13.81C11.5 13.31 10.79 13 10 13C9.20435 13 8.44129 13.3161 7.87868 13.8787C7.31607 14.4413 7 15.2044 7 16C7 16.7956 7.31607 17.5587 7.87868 18.1213C8.44129 18.6839 9.20435 19 10 19C10.79 19 11.5 18.69 12.04 18.19L19.16 22.34C19.11 22.55 19.08 22.77 19.08 23C19.08 24.61 20.39 25.91 22 25.91C23.61 25.91 24.92 24.61 24.92 23C24.92 22.2256 24.6124 21.4829 24.0648 20.9352C23.5171 20.3876 22.7744 20.08 22 20.08Z" fill="#9D9D9D"/>
</svg>
