<svg width="26" height="29" viewBox="0 0 26 29" fill="none" xmlns="http://www.w3.org/2000/svg">
<rect width="26" height="21.2727" rx="2" fill="#001A72"/>
<path d="M12.4102 28.3633L6.78099 20.386H18.0393L12.4102 28.3633Z" fill="#001A72"/>
<path d="M9.17637 16.5262V7.86137L12.9841 3.8336C13.1421 3.67564 13.3254 3.58257 13.5342 3.55436C13.7429 3.52615 13.9431 3.56846 14.1349 3.68129C14.3267 3.79411 14.4706 3.94924 14.5665 4.14668C14.6624 4.34412 14.6878 4.55002 14.6426 4.76438L13.9826 7.86137H19.0427C19.3135 7.86137 19.5504 7.96291 19.7535 8.16599C19.9566 8.36907 20.0581 8.606 20.0581 8.87677V10.2645C20.0581 10.3435 20.0666 10.4253 20.0835 10.5099C20.1004 10.5945 20.092 10.6763 20.0581 10.7553L17.9258 15.6631C17.8242 15.9 17.6578 16.1031 17.4265 16.2723C17.1952 16.4415 16.9499 16.5262 16.6904 16.5262H9.17637ZM10.1918 8.28445V15.5107H16.9104L19.0427 10.4506V8.87677H12.7303L13.6272 4.66284L10.1918 8.28445ZM6.92556 16.5262C6.6435 16.5262 6.40376 16.4274 6.20632 16.23C6.00888 16.0326 5.91016 15.7928 5.91016 15.5107V8.87677C5.91016 8.59472 6.00888 8.35497 6.20632 8.15753C6.40376 7.96009 6.6435 7.86137 6.92556 7.86137H9.17637V8.87677H6.92556V15.5107H9.17637V16.5262H6.92556ZM10.1918 15.5107V8.28445V15.5107Z" fill="white"/>
</svg>
