<svg width="16" height="20" viewBox="0 0 16 20" fill="none" xmlns="http://www.w3.org/2000/svg">
<path d="M14.2648 2.60801C12.057 0.400195 8.46171 0.400195 6.25624 2.60801L0.139054 8.72051C0.09921 8.76035 0.0781162 8.81426 0.0781162 8.87051C0.0781162 8.92676 0.09921 8.98066 0.139054 9.02051L1.0039 9.88535C1.04343 9.92471 1.09694 9.94681 1.15273 9.94681C1.20851 9.94681 1.26202 9.92471 1.30155 9.88535L7.41874 3.77285C8.17812 3.01348 9.18827 2.59629 10.2617 2.59629C11.3351 2.59629 12.3453 3.01348 13.1023 3.77285C13.8617 4.53223 14.2789 5.54238 14.2789 6.61348C14.2789 7.68691 13.8617 8.69473 13.1023 9.4541L6.86796 15.6861L5.8578 16.6963C4.91327 17.6408 3.37812 17.6408 2.43358 16.6963C1.97655 16.2393 1.72577 15.6322 1.72577 14.9854C1.72577 14.3385 1.97655 13.7314 2.43358 13.2744L8.61874 7.0916C8.77577 6.93691 8.98202 6.85019 9.20233 6.85019H9.20468C9.42499 6.85019 9.6289 6.93691 9.78358 7.0916C9.94061 7.24863 10.025 7.45488 10.025 7.67519C10.025 7.89316 9.93827 8.09941 9.78358 8.2541L4.72812 13.3049C4.68827 13.3447 4.66718 13.3986 4.66718 13.4549C4.66718 13.5111 4.68827 13.565 4.72812 13.6049L5.59296 14.4697C5.63249 14.5091 5.686 14.5312 5.74179 14.5312C5.79757 14.5312 5.85108 14.5091 5.89062 14.4697L10.9437 9.4166C11.4101 8.9502 11.6656 8.33145 11.6656 7.67285C11.6656 7.01426 11.4078 6.39316 10.9437 5.9291C9.98046 4.96582 8.41483 4.96816 7.45155 5.9291L6.85155 6.53145L1.26874 12.1119C0.889829 12.4886 0.589472 12.9368 0.38509 13.4304C0.180707 13.9241 0.0763656 14.4534 0.0781162 14.9877C0.0781162 16.0729 0.502335 17.0924 1.26874 17.8588C2.06327 18.651 3.1039 19.0471 4.14452 19.0471C5.18515 19.0471 6.22577 18.651 7.01796 17.8588L14.2648 10.6166C15.3312 9.54785 15.9219 8.1252 15.9219 6.61348C15.9242 5.09941 15.3336 3.67676 14.2648 2.60801Z" fill="#333333"/>
</svg>
