<svg width="84" height="27" viewBox="0 0 84 27" fill="none" xmlns="http://www.w3.org/2000/svg">
<path d="M22.9375 22V6H28.5313C29.6458 6 30.5651 6.19271 31.2891 6.57813C32.013 6.95833 32.5521 7.47135 32.9063 8.11719C33.2604 8.75781 33.4375 9.46875 33.4375 10.25C33.4375 10.9375 33.3151 11.5052 33.0703 11.9531C32.8307 12.401 32.513 12.7552 32.1172 13.0156C31.7266 13.276 31.3021 13.4687 30.8438 13.5937V13.75C31.3333 13.7812 31.8255 13.9531 32.3203 14.2656C32.8151 14.5781 33.2292 15.026 33.5625 15.6094C33.8958 16.1927 34.0625 16.9062 34.0625 17.75C34.0625 18.5521 33.8802 19.2734 33.5156 19.9141C33.151 20.5547 32.5755 21.0625 31.7891 21.4375C31.0026 21.8125 29.9792 22 28.7188 22H22.9375ZM24.875 20.2812H28.7188C29.9844 20.2812 30.8828 20.0365 31.4141 19.5469C31.9505 19.0521 32.2188 18.4531 32.2188 17.75C32.2188 17.2083 32.0807 16.7083 31.8047 16.25C31.5286 15.7865 31.1354 15.4167 30.625 15.1406C30.1146 14.8594 29.5104 14.7188 28.8125 14.7188H24.875V20.2812ZM24.875 13.0312H28.4688C29.0521 13.0312 29.5781 12.9167 30.0469 12.6875C30.5208 12.4583 30.8958 12.1354 31.1719 11.7187C31.4531 11.3021 31.5938 10.8125 31.5938 10.25C31.5938 9.54687 31.349 8.95052 30.8594 8.46094C30.3698 7.96615 29.5938 7.71875 28.5313 7.71875H24.875V13.0312ZM40.5273 22.2813C39.7669 22.2813 39.0768 22.138 38.457 21.8516C37.8372 21.5599 37.3451 21.1406 36.9805 20.5938C36.6159 20.0417 36.4336 19.375 36.4336 18.5937C36.4336 17.9062 36.569 17.349 36.8398 16.9219C37.1107 16.4896 37.4727 16.151 37.9258 15.9062C38.3789 15.6615 38.8789 15.4792 39.4258 15.3594C39.9779 15.2344 40.5326 15.1354 41.0898 15.0625C41.819 14.9687 42.4102 14.8984 42.8633 14.8516C43.3216 14.7995 43.6549 14.7135 43.8633 14.5937C44.0768 14.474 44.1836 14.2656 44.1836 13.9687V13.9062C44.1836 13.1354 43.9727 12.5365 43.5508 12.1094C43.1341 11.6823 42.5013 11.4687 41.6523 11.4687C40.7721 11.4687 40.082 11.6615 39.582 12.0469C39.082 12.4323 38.7305 12.8437 38.5273 13.2812L36.7773 12.6562C37.0898 11.9271 37.5065 11.3594 38.0273 10.9531C38.5534 10.5417 39.1263 10.2552 39.7461 10.0937C40.3711 9.92708 40.9857 9.84375 41.5898 9.84375C41.9753 9.84375 42.418 9.89062 42.918 9.98437C43.4232 10.0729 43.9102 10.2578 44.3789 10.5391C44.8529 10.8203 45.2461 11.2448 45.5586 11.8125C45.8711 12.3802 46.0273 13.1406 46.0273 14.0938V22H44.1836V20.375H44.0898C43.9648 20.6354 43.7565 20.9141 43.4648 21.2109C43.1732 21.5078 42.7852 21.7604 42.3008 21.9687C41.8164 22.1771 41.2253 22.2813 40.5273 22.2813ZM40.8086 20.625C41.5378 20.625 42.1523 20.4818 42.6523 20.1953C43.1576 19.9089 43.5378 19.5391 43.793 19.0859C44.0534 18.6328 44.1836 18.1562 44.1836 17.6562V15.9687C44.1055 16.0625 43.9336 16.1484 43.668 16.2266C43.4076 16.2995 43.1055 16.3646 42.7617 16.4219C42.4232 16.474 42.0924 16.5208 41.7695 16.5625C41.4518 16.599 41.194 16.6302 40.9961 16.6562C40.5169 16.7187 40.069 16.8203 39.6523 16.9609C39.2409 17.0964 38.9076 17.3021 38.6523 17.5781C38.4023 17.849 38.2773 18.2187 38.2773 18.6875C38.2773 19.3281 38.5143 19.8125 38.9883 20.1406C39.4674 20.4635 40.0742 20.625 40.8086 20.625ZM54.2676 22.25C53.1426 22.25 52.1738 21.9844 51.3613 21.4531C50.5488 20.9219 49.9238 20.1901 49.4863 19.2578C49.0488 18.3255 48.8301 17.2604 48.8301 16.0625C48.8301 14.8437 49.054 13.7682 49.502 12.8359C49.9551 11.8984 50.5853 11.1667 51.3926 10.6406C52.2051 10.1094 53.153 9.84375 54.2363 9.84375C55.0801 9.84375 55.8405 10 56.5176 10.3125C57.1947 10.625 57.7493 11.0625 58.1816 11.625C58.6139 12.1875 58.8822 12.8437 58.9863 13.5937H57.1426C57.002 13.0469 56.6895 12.5625 56.2051 12.1406C55.7259 11.7135 55.0801 11.5 54.2676 11.5C53.5488 11.5 52.9186 11.6875 52.377 12.0625C51.8405 12.4323 51.4212 12.9557 51.1191 13.6328C50.8223 14.3047 50.6738 15.0937 50.6738 16C50.6738 16.9271 50.8197 17.7344 51.1113 18.4219C51.4082 19.1094 51.8249 19.6432 52.3613 20.0234C52.903 20.4036 53.5384 20.5938 54.2676 20.5938C54.7467 20.5938 55.1816 20.5104 55.5723 20.3437C55.9629 20.1771 56.2936 19.9375 56.5645 19.625C56.8353 19.3125 57.028 18.9375 57.1426 18.5H58.9863C58.8822 19.2083 58.6243 19.8464 58.2129 20.4141C57.8066 20.9766 57.2676 21.4245 56.5957 21.7578C55.929 22.0859 55.153 22.25 54.2676 22.25ZM63.4004 17.625L63.3691 15.3438H63.7441L68.9941 10H71.2754L65.6816 15.6562H65.5254L63.4004 17.625ZM61.6816 22V6H63.5254V22H61.6816ZM69.3066 22L64.6191 16.0625L65.9316 14.7812L71.6504 22H69.3066Z" fill="#121212" fill-opacity="0.8"/>
<path d="M11.2794 26.6553L0.281984 15.658C0.177546 15.5535 0.104439 15.4491 0.0626632 15.3446C0.0208877 15.2402 0 15.1253 0 15C0 14.8747 0.0208877 14.7598 0.0626632 14.6554C0.104439 14.5509 0.177546 14.4465 0.281984 14.342L11.2794 3.34465C11.5091 3.11488 11.8016 3 12.1567 3C12.5117 3 12.8042 3.11488 13.0339 3.34465C13.2846 3.5953 13.4099 3.89295 13.4099 4.2376C13.4099 4.58225 13.2846 4.8799 13.0339 5.13055L3.16449 15L13.0339 24.8695C13.2846 25.1201 13.4047 25.4178 13.3943 25.7624C13.3838 26.107 13.2637 26.3943 13.0339 26.624C12.7833 26.8747 12.4856 27 12.141 27C11.7963 27 11.5091 26.8851 11.2794 26.6553Z" fill="black"/>
</svg>
