<svg width="97" height="24" viewBox="0 0 97 24" fill="none" xmlns="http://www.w3.org/2000/svg">
<path d="M43.1186 15.9585V5.77668H46.8473C47.5698 5.77668 48.1681 5.896 48.642 6.13463C49.116 6.36995 49.4706 6.68979 49.706 7.09415C49.9413 7.49519 50.0589 7.94761 50.0589 8.45139C50.0589 8.87564 49.9811 9.23359 49.8253 9.52526C49.6695 9.81361 49.4607 10.0456 49.1989 10.2213C48.9403 10.3936 48.6553 10.5196 48.3438 10.5991V10.6986C48.6818 10.7151 49.0116 10.8245 49.3331 11.0267C49.6579 11.2255 49.9264 11.5089 50.1385 11.8768C50.3506 12.2447 50.4567 12.6922 50.4567 13.2191C50.4567 13.7395 50.334 14.2068 50.0888 14.6211C49.8468 15.0321 49.4723 15.3586 48.9652 15.6005C48.4581 15.8392 47.8101 15.9585 47.0213 15.9585H43.1186ZM44.6548 14.641H46.8722C47.608 14.641 48.1349 14.4985 48.4531 14.2135C48.7713 13.9284 48.9304 13.5721 48.9304 13.1446C48.9304 12.8231 48.8492 12.5281 48.6868 12.2596C48.5244 11.9912 48.2924 11.7774 47.9908 11.6183C47.6925 11.4592 47.3378 11.3797 46.9268 11.3797H44.6548V14.641ZM44.6548 10.1815H46.7131C47.0578 10.1815 47.3677 10.1152 47.6428 9.98264C47.9212 9.85007 48.1416 9.66446 48.304 9.42583C48.4697 9.18387 48.5526 8.89884 48.5526 8.57071C48.5526 8.14978 48.4051 7.7968 48.1101 7.51176C47.8151 7.22672 47.3627 7.08421 46.7528 7.08421H44.6548V10.1815ZM54.3817 16.1275C53.8978 16.1275 53.4603 16.038 53.0692 15.8591C52.6781 15.6768 52.3683 15.4133 52.1396 15.0686C51.9142 14.7239 51.8015 14.3013 51.8015 13.8008C51.8015 13.37 51.8844 13.0153 52.0501 12.7369C52.2158 12.4585 52.4395 12.2381 52.7212 12.0757C53.003 11.9133 53.3178 11.7906 53.6658 11.7078C54.0138 11.6249 54.3685 11.562 54.7298 11.5189C55.1871 11.4658 55.5584 11.4227 55.8434 11.3896C56.1284 11.3531 56.3356 11.2951 56.4648 11.2156C56.5941 11.1361 56.6587 11.0068 56.6587 10.8278V10.793C56.6587 10.3588 56.5361 10.0224 56.2908 9.78378C56.0489 9.54514 55.6876 9.42583 55.207 9.42583C54.7066 9.42583 54.3121 9.53686 54.0238 9.75892C53.7388 9.97767 53.5415 10.2213 53.4322 10.4897L52.0352 10.1716C52.2009 9.70755 52.4428 9.33302 52.761 9.04798C53.0825 8.75963 53.4521 8.55083 53.8697 8.42156C54.2873 8.28899 54.7264 8.2227 55.1871 8.2227C55.4921 8.2227 55.8152 8.25916 56.1566 8.33208C56.5013 8.40168 56.8228 8.53094 57.1211 8.71986C57.4227 8.90878 57.6696 9.1789 57.8619 9.53023C58.0541 9.87824 58.1502 10.3307 58.1502 10.8875V15.9585H56.6985V14.9145H56.6388C56.5427 15.1067 56.3986 15.2956 56.2063 15.4812C56.0141 15.6668 55.7672 15.8209 55.4656 15.9436C55.1639 16.0662 54.8027 16.1275 54.3817 16.1275ZM54.7049 14.9343C55.1159 14.9343 55.4672 14.8531 55.7589 14.6907C56.0539 14.5283 56.2776 14.3162 56.43 14.0544C56.5858 13.7892 56.6637 13.5058 56.6637 13.2042V12.2199C56.6107 12.2729 56.5079 12.3226 56.3555 12.369C56.2063 12.4121 56.0356 12.4502 55.8434 12.4834C55.6512 12.5132 55.4639 12.5414 55.2816 12.5679C55.0993 12.5911 54.9469 12.611 54.8242 12.6275C54.5359 12.664 54.2724 12.7253 54.0337 12.8115C53.7984 12.8977 53.6095 13.0219 53.467 13.1843C53.3278 13.3434 53.2582 13.5556 53.2582 13.8207C53.2582 14.1886 53.3941 14.467 53.6658 14.6559C53.9376 14.8415 54.284 14.9343 54.7049 14.9343ZM63.6948 8.32213V9.51531H59.5236V8.32213H63.6948ZM60.6422 6.49259H62.1287V13.7163C62.1287 14.0047 62.1718 14.2218 62.258 14.3676C62.3442 14.5101 62.4552 14.6079 62.5911 14.6609C62.7303 14.7106 62.8811 14.7355 63.0435 14.7355C63.1628 14.7355 63.2672 14.7272 63.3567 14.7106C63.4462 14.6941 63.5158 14.6808 63.5655 14.6709L63.834 15.8988C63.7478 15.932 63.6252 15.9651 63.4661 15.9983C63.307 16.0347 63.1081 16.0546 62.8695 16.0579C62.4784 16.0646 62.1138 15.995 61.7757 15.8491C61.4377 15.7033 61.1642 15.4779 60.9554 15.173C60.7466 14.8681 60.6422 14.4852 60.6422 14.0245V6.49259ZM68.4737 16.1126C67.7346 16.1126 67.0982 15.9452 66.5646 15.6105C66.0343 15.2724 65.6267 14.8067 65.3416 14.2135C65.0566 13.6202 64.9141 12.9407 64.9141 12.1751C64.9141 11.3995 65.0599 10.7151 65.3516 10.1218C65.6432 9.52526 66.0542 9.05958 66.5845 8.72483C67.1148 8.39008 67.7396 8.2227 68.4588 8.2227C69.0388 8.2227 69.5559 8.33042 70.0099 8.54585C70.464 8.75797 70.8303 9.05627 71.1087 9.44074C71.3904 9.82521 71.5578 10.2743 71.6108 10.788H70.1641C70.0845 10.4301 69.9022 10.1218 69.6172 9.86333C69.3355 9.6048 68.9576 9.47554 68.4837 9.47554C68.0694 9.47554 67.7064 9.58492 67.3949 9.80367C67.0866 10.0191 66.8464 10.3273 66.674 10.7284C66.5017 11.1261 66.4155 11.5968 66.4155 12.1403C66.4155 12.6971 66.5 13.1777 66.669 13.5821C66.8381 13.9864 67.0767 14.2996 67.3849 14.5217C67.6965 14.7438 68.0627 14.8548 68.4837 14.8548C68.7654 14.8548 69.0206 14.8034 69.2493 14.7007C69.4813 14.5946 69.6752 14.4438 69.831 14.2483C69.9901 14.0527 70.1011 13.8174 70.1641 13.5423H71.6108C71.5578 14.0361 71.397 14.477 71.1286 14.8647C70.8601 15.2525 70.5005 15.5575 70.0497 15.7795C69.6023 16.0016 69.0769 16.1126 68.4737 16.1126ZM74.687 11.4244V15.9585H73.2005V5.77668H74.6671V9.56503H74.7615C74.9405 9.15405 75.214 8.82758 75.5819 8.58563C75.9498 8.34368 76.4303 8.2227 77.0236 8.2227C77.5473 8.2227 78.0047 8.33042 78.3958 8.54585C78.7902 8.76129 79.0951 9.08279 79.3105 9.51034C79.5293 9.93458 79.6387 10.4649 79.6387 11.1013V15.9585H78.1522V11.2802C78.1522 10.7201 78.008 10.2859 77.7196 9.97767C77.4313 9.66612 77.0302 9.51034 76.5165 9.51034C76.1652 9.51034 75.8503 9.58492 75.5719 9.73406C75.2968 9.88321 75.0797 10.102 74.9206 10.3903C74.7649 10.6754 74.687 11.02 74.687 11.4244ZM84.9135 16.1126C84.1612 16.1126 83.5132 15.9519 82.9696 15.6304C82.4294 15.3056 82.0118 14.8498 81.7168 14.2632C81.4251 13.6732 81.2793 12.9822 81.2793 12.19C81.2793 11.4078 81.4251 10.7184 81.7168 10.1218C82.0118 9.52526 82.4228 9.05958 82.9498 8.72483C83.4801 8.39008 84.0998 8.2227 84.8091 8.2227C85.24 8.2227 85.6576 8.29396 86.062 8.43648C86.4663 8.579 86.8292 8.80272 87.1507 9.10764C87.4722 9.41257 87.7258 9.80864 87.9114 10.2959C88.097 10.7798 88.1898 11.3681 88.1898 12.0608V12.5878H82.1195V11.4741H86.7331C86.7331 11.083 86.6536 10.7367 86.4945 10.4351C86.3354 10.1301 86.1117 9.88984 85.8233 9.71418C85.5383 9.53851 85.2035 9.45068 84.8191 9.45068C84.4015 9.45068 84.0369 9.55343 83.7253 9.75892C83.4171 9.9611 83.1784 10.2263 83.0094 10.5544C82.8437 10.8792 82.7608 11.2322 82.7608 11.6133V12.4834C82.7608 12.9938 82.8503 13.428 83.0293 13.7859C83.2116 14.1439 83.4651 14.4173 83.79 14.6062C84.1148 14.7918 84.4943 14.8846 84.9284 14.8846C85.2102 14.8846 85.467 14.8449 85.699 14.7653C85.931 14.6825 86.1316 14.5598 86.3006 14.3974C86.4696 14.235 86.5989 14.0345 86.6884 13.7959L88.0953 14.0494C87.9827 14.4637 87.7805 14.8266 87.4888 15.1382C87.2005 15.4464 86.8375 15.6867 86.4 15.8591C85.9658 16.0281 85.4703 16.1126 84.9135 16.1126ZM95.5614 10.1865L94.2141 10.4251C94.1578 10.2528 94.0683 10.0887 93.9457 9.93293C93.8263 9.77715 93.6639 9.64955 93.4585 9.55012C93.253 9.45068 92.9961 9.40097 92.6879 9.40097C92.2669 9.40097 91.9156 9.49543 91.6339 9.68435C91.3522 9.86995 91.2113 10.1102 91.2113 10.4052C91.2113 10.6604 91.3058 10.8659 91.4947 11.0217C91.6836 11.1775 91.9885 11.3051 92.4094 11.4045L93.6225 11.6829C94.3252 11.8453 94.8488 12.0956 95.1935 12.4336C95.5382 12.7717 95.7106 13.2109 95.7106 13.7511C95.7106 14.2085 95.578 14.6162 95.3129 14.9741C95.051 15.3288 94.6848 15.6072 94.2141 15.8093C93.7468 16.0115 93.2049 16.1126 92.5884 16.1126C91.7333 16.1126 91.0356 15.9303 90.4954 15.5657C89.9551 15.1978 89.6237 14.6758 89.5011 13.9997L90.9379 13.7809C91.0273 14.1555 91.2113 14.4388 91.4897 14.6311C91.7681 14.82 92.131 14.9145 92.5785 14.9145C93.0657 14.9145 93.4551 14.8134 93.7468 14.6112C94.0385 14.4057 94.1843 14.1555 94.1843 13.8605C94.1843 13.6218 94.0948 13.4213 93.9158 13.2589C93.7402 13.0965 93.4701 12.9739 93.1055 12.891L91.8129 12.6076C91.1003 12.4452 90.5733 12.1867 90.2319 11.8321C89.8938 11.4774 89.7248 11.0283 89.7248 10.4848C89.7248 10.034 89.8507 9.6396 90.1026 9.30154C90.3545 8.96347 90.7025 8.69997 91.1467 8.51105C91.5908 8.31882 92.0996 8.2227 92.6729 8.2227C93.4982 8.2227 94.1478 8.40168 94.6218 8.75963C95.0958 9.11427 95.409 9.58989 95.5614 10.1865Z" fill="white"/>
<path d="M3.6 10.5749C4.92375 10.5749 6 9.52107 6 8.2249C6 6.92873 4.92375 5.8749 3.6 5.8749C2.27625 5.8749 1.2 6.92873 1.2 8.2249C1.2 9.52107 2.27625 10.5749 3.6 10.5749ZM20.4 10.5749C21.7238 10.5749 22.8 9.52107 22.8 8.2249C22.8 6.92873 21.7238 5.8749 20.4 5.8749C19.0763 5.8749 18 6.92873 18 8.2249C18 9.52107 19.0763 10.5749 20.4 10.5749ZM21.6 11.7499H19.2C18.54 11.7499 17.9438 12.0106 17.5088 12.4329C19.02 13.2444 20.0925 14.7094 20.325 16.4499H22.8C23.4638 16.4499 24 15.9248 24 15.2749V14.0999C24 12.8037 22.9238 11.7499 21.6 11.7499ZM12 11.7499C14.3213 11.7499 16.2 9.91029 16.2 7.6374C16.2 5.36451 14.3213 3.5249 12 3.5249C9.67875 3.5249 7.8 5.36451 7.8 7.6374C7.8 9.91029 9.67875 11.7499 12 11.7499ZM14.88 12.9249H14.5688C13.7888 13.2921 12.9225 13.5124 12 13.5124C11.0775 13.5124 10.215 13.2921 9.43125 12.9249H9.12C6.735 12.9249 4.8 14.8196 4.8 17.1549V18.2124C4.8 19.1854 5.60625 19.9749 6.6 19.9749H17.4C18.3938 19.9749 19.2 19.1854 19.2 18.2124V17.1549C19.2 14.8196 17.265 12.9249 14.88 12.9249ZM6.49125 12.4329C6.05625 12.0106 5.46 11.7499 4.8 11.7499H2.4C1.07625 11.7499 0 12.8037 0 14.0999V15.2749C0 15.9248 0.53625 16.4499 1.2 16.4499H3.67125C3.9075 14.7094 4.98 13.2444 6.49125 12.4329Z" fill="white"/>
</svg>
