<svg width="96" height="24" viewBox="0 0 96 24" fill="none" xmlns="http://www.w3.org/2000/svg">
<path d="M43.233 15.9585V5.77668H46.7926C47.5019 5.77668 48.0869 5.89931 48.5476 6.14458C49.0083 6.38653 49.3513 6.71299 49.5767 7.12398C49.8021 7.53165 49.9148 7.98406 49.9148 8.48122C49.9148 8.91872 49.8369 9.27999 49.6811 9.56503C49.5286 9.85007 49.3265 10.0754 49.0746 10.2412C48.826 10.4069 48.5559 10.5295 48.2642 10.6091V10.7085C48.5758 10.7284 48.889 10.8378 49.2038 11.0366C49.5187 11.2355 49.7822 11.5205 49.9943 11.8917C50.2064 12.2629 50.3125 12.717 50.3125 13.254C50.3125 13.7644 50.1965 14.2234 49.9645 14.6311C49.7325 15.0388 49.3662 15.3619 48.8658 15.6005C48.3653 15.8392 47.714 15.9585 46.9119 15.9585H43.233ZM44.4659 14.8647H46.9119C47.7173 14.8647 48.2891 14.709 48.6271 14.3974C48.9685 14.0825 49.1392 13.7014 49.1392 13.254C49.1392 12.9093 49.0514 12.5911 48.8757 12.2994C48.7 12.0044 48.4498 11.7691 48.125 11.5934C47.8002 11.4145 47.4157 11.325 46.9716 11.325H44.4659V14.8647ZM44.4659 10.2511H46.7528C47.1241 10.2511 47.4588 10.1782 47.7571 10.0324C48.0587 9.88653 48.2973 9.68103 48.473 9.41588C48.652 9.15073 48.7415 8.83918 48.7415 8.48122C48.7415 8.03378 48.5857 7.65428 48.2741 7.34273C47.9626 7.02786 47.4688 6.87043 46.7926 6.87043H44.4659V10.2511ZM54.4265 16.1375C53.9426 16.1375 53.5034 16.0463 53.109 15.864C52.7146 15.6784 52.4014 15.4116 52.1694 15.0636C51.9374 14.7123 51.8214 14.288 51.8214 13.7909C51.8214 13.3534 51.9076 12.9987 52.0799 12.727C52.2522 12.4519 52.4826 12.2364 52.771 12.0807C53.0593 11.9249 53.3775 11.8089 53.7255 11.7326C54.0768 11.6531 54.4298 11.5901 54.7844 11.5437C55.2485 11.4841 55.6246 11.4393 55.913 11.4095C56.2047 11.3763 56.4168 11.3217 56.5494 11.2454C56.6853 11.1692 56.7532 11.0366 56.7532 10.8477V10.8079C56.7532 10.3174 56.619 9.93624 56.3505 9.66446C56.0853 9.39268 55.6826 9.25679 55.1424 9.25679C54.5823 9.25679 54.1431 9.37942 53.8249 9.62469C53.5067 9.86995 53.283 10.1318 53.1538 10.4102L52.0401 10.0125C52.239 9.54846 52.5041 9.18719 52.8356 8.92867C53.1703 8.66683 53.5349 8.48454 53.9293 8.38179C54.3271 8.27573 54.7182 8.2227 55.1026 8.2227C55.3479 8.2227 55.6296 8.25253 55.9478 8.31219C56.2693 8.36853 56.5792 8.48619 56.8775 8.66517C57.1791 8.84415 57.4293 9.11427 57.6282 9.47554C57.8271 9.83681 57.9265 10.3207 57.9265 10.9272V15.9585H56.7532V14.9244H56.6935C56.614 15.0901 56.4814 15.2674 56.2958 15.4564C56.1102 15.6453 55.8633 15.806 55.555 15.9386C55.2468 16.0712 54.8706 16.1375 54.4265 16.1375ZM54.6055 15.0835C55.0695 15.0835 55.4606 14.9924 55.7788 14.8101C56.1003 14.6278 56.3422 14.3924 56.5046 14.1041C56.6703 13.8157 56.7532 13.5125 56.7532 13.1943V12.1204C56.7035 12.1801 56.5941 12.2348 56.4251 12.2845C56.2594 12.3309 56.0671 12.3723 55.8484 12.4088C55.6329 12.4419 55.4225 12.4718 55.217 12.4983C55.0148 12.5215 54.8507 12.5414 54.7248 12.5579C54.4199 12.5977 54.1348 12.6623 53.8697 12.7518C53.6078 12.838 53.3957 12.9689 53.2333 13.1446C53.0742 13.3169 52.9947 13.5522 52.9947 13.8505C52.9947 14.2582 53.1455 14.5665 53.4471 14.7753C53.752 14.9807 54.1381 15.0835 54.6055 15.0835ZM63.389 8.32213V9.31645H59.4316V8.32213H63.389ZM60.585 6.49259H61.7583V13.771C61.7583 14.1024 61.8064 14.351 61.9025 14.5167C62.002 14.6791 62.1279 14.7885 62.2804 14.8449C62.4361 14.8979 62.6002 14.9244 62.7725 14.9244C62.9018 14.9244 63.0079 14.9178 63.0907 14.9045C63.1736 14.8879 63.2399 14.8747 63.2896 14.8647L63.5282 15.9187C63.4487 15.9486 63.3377 15.9784 63.1951 16.0082C63.0526 16.0414 62.872 16.0579 62.6532 16.0579C62.3218 16.0579 61.997 15.9867 61.6788 15.8441C61.3639 15.7016 61.1021 15.4845 60.8933 15.1929C60.6878 14.9012 60.585 14.5333 60.585 14.0892V6.49259ZM68.1742 16.1176C67.4583 16.1176 66.8418 15.9486 66.3248 15.6105C65.8077 15.2724 65.41 14.8067 65.1316 14.2135C64.8532 13.6202 64.714 12.9424 64.714 12.1801C64.714 11.4045 64.8565 10.7201 65.1415 10.1268C65.4299 9.53023 65.8309 9.06456 66.3446 8.7298C66.8617 8.39173 67.4649 8.2227 68.1543 8.2227C68.6912 8.2227 69.1751 8.32213 69.606 8.521C70.0369 8.71986 70.3899 8.99827 70.665 9.35622C70.94 9.71418 71.1107 10.1318 71.177 10.6091H70.0037C69.9142 10.2611 69.7154 9.95281 69.4071 9.68435C69.1022 9.41257 68.6912 9.27668 68.1742 9.27668C67.7168 9.27668 67.3158 9.396 66.9711 9.63463C66.6297 9.86995 66.3629 10.2031 66.1706 10.6339C65.9817 11.0615 65.8873 11.5636 65.8873 12.1403C65.8873 12.7303 65.9801 13.244 66.1657 13.6815C66.3546 14.119 66.6197 14.4587 66.9611 14.7007C67.3058 14.9426 67.7102 15.0636 68.1742 15.0636C68.4791 15.0636 68.7559 15.0106 69.0044 14.9045C69.253 14.7985 69.4635 14.646 69.6358 14.4471C69.8082 14.2483 69.9308 14.0096 70.0037 13.7312H71.177C71.1107 14.182 70.9467 14.588 70.6848 14.9493C70.4263 15.3072 70.0833 15.5923 69.6557 15.8044C69.2315 16.0132 68.7376 16.1176 68.1742 16.1176ZM74.0655 11.3647V15.9585H72.8922V5.77668H74.0655V9.51531H74.165C74.3439 9.1209 74.6124 8.80769 74.9703 8.57568C75.3316 8.34036 75.8122 8.2227 76.4121 8.2227C76.9325 8.2227 77.3882 8.3271 77.7793 8.53591C78.1704 8.7414 78.4737 9.05793 78.6891 9.48548C78.9078 9.90973 79.0172 10.45 79.0172 11.1062V15.9585H77.8439V11.1858C77.8439 10.5792 77.6865 10.1102 77.3716 9.77881C77.0601 9.44405 76.6275 9.27668 76.074 9.27668C75.6896 9.27668 75.3449 9.35788 75.04 9.52029C74.7383 9.68269 74.4997 9.91967 74.324 10.2312C74.1517 10.5428 74.0655 10.9206 74.0655 11.3647ZM84.3654 16.1176C83.6296 16.1176 82.9949 15.9552 82.4613 15.6304C81.931 15.3022 81.5217 14.8449 81.2333 14.2582C80.9483 13.6682 80.8058 12.9822 80.8058 12.2C80.8058 11.4178 80.9483 10.7284 81.2333 10.1318C81.5217 9.53189 81.9227 9.06456 82.4364 8.7298C82.9535 8.39173 83.5567 8.2227 84.2461 8.2227C84.6438 8.2227 85.0366 8.28899 85.4244 8.42156C85.8121 8.55414 86.1651 8.76958 86.4833 9.06787C86.8015 9.36285 87.055 9.75395 87.244 10.2412C87.4329 10.7284 87.5273 11.3283 87.5273 12.0409V12.538H81.641V11.5238H86.3342C86.3342 11.093 86.248 10.7085 86.0756 10.3704C85.9066 10.0324 85.6647 9.76555 85.3498 9.57C85.0382 9.37445 84.6703 9.27668 84.2461 9.27668C83.7788 9.27668 83.3744 9.39268 83.033 9.62469C82.695 9.85338 82.4348 10.1517 82.2525 10.5196C82.0702 10.8875 81.979 11.2819 81.979 11.7028V12.379C81.979 12.9557 82.0785 13.4445 82.2773 13.8456C82.4795 14.2433 82.7596 14.5466 83.1175 14.7554C83.4755 14.9609 83.8915 15.0636 84.3654 15.0636C84.6737 15.0636 84.9521 15.0205 85.2006 14.9343C85.4525 14.8449 85.6696 14.7123 85.8519 14.5366C86.0342 14.3576 86.1751 14.1356 86.2745 13.8704L87.408 14.1886C87.2887 14.5731 87.0882 14.9111 86.8065 15.2028C86.5247 15.4912 86.1767 15.7165 85.7624 15.879C85.3481 16.038 84.8825 16.1176 84.3654 16.1176ZM94.7212 10.0324L93.6673 10.3307C93.601 10.155 93.5032 9.9843 93.3739 9.81858C93.248 9.64955 93.0756 9.51034 92.8569 9.40097C92.6381 9.29159 92.3581 9.2369 92.0167 9.2369C91.5494 9.2369 91.1599 9.34462 90.8484 9.56006C90.5401 9.77218 90.386 10.0423 90.386 10.3704C90.386 10.6621 90.4921 10.8924 90.7042 11.0615C90.9163 11.2305 91.2478 11.3714 91.6985 11.4841L92.832 11.7625C93.5148 11.9282 94.0236 12.1817 94.3583 12.5231C94.6931 12.8612 94.8604 13.297 94.8604 13.8307C94.8604 14.2682 94.7345 14.6593 94.4826 15.004C94.234 15.3486 93.886 15.6204 93.4386 15.8193C92.9911 16.0182 92.4708 16.1176 91.8775 16.1176C91.0986 16.1176 90.454 15.9486 89.9435 15.6105C89.4331 15.2724 89.11 14.7786 88.9741 14.129L90.0877 13.8505C90.1938 14.2615 90.3943 14.5698 90.6893 14.7753C90.9876 14.9807 91.377 15.0835 91.8576 15.0835C92.4045 15.0835 92.8387 14.9675 93.1602 14.7355C93.485 14.5002 93.6474 14.2184 93.6474 13.8903C93.6474 13.6252 93.5546 13.4031 93.369 13.2241C93.1834 13.0418 92.8983 12.9059 92.5138 12.8165L91.2411 12.5182C90.5418 12.3524 90.0281 12.0956 89.6999 11.7476C89.3751 11.3962 89.2127 10.9571 89.2127 10.4301C89.2127 9.99922 89.3337 9.61806 89.5756 9.28662C89.8209 8.95518 90.154 8.695 90.5749 8.50608C90.9992 8.31716 91.4798 8.2227 92.0167 8.2227C92.7724 8.2227 93.3656 8.38842 93.7965 8.71986C94.2307 9.0513 94.5389 9.4888 94.7212 10.0324Z" fill="#121212" fill-opacity="0.8"/>
<path d="M3.6 10.5749C4.92375 10.5749 6 9.52107 6 8.2249C6 6.92873 4.92375 5.8749 3.6 5.8749C2.27625 5.8749 1.2 6.92873 1.2 8.2249C1.2 9.52107 2.27625 10.5749 3.6 10.5749ZM20.4 10.5749C21.7238 10.5749 22.8 9.52107 22.8 8.2249C22.8 6.92873 21.7238 5.8749 20.4 5.8749C19.0763 5.8749 18 6.92873 18 8.2249C18 9.52107 19.0763 10.5749 20.4 10.5749ZM21.6 11.7499H19.2C18.54 11.7499 17.9438 12.0106 17.5088 12.4329C19.02 13.2444 20.0925 14.7094 20.325 16.4499H22.8C23.4638 16.4499 24 15.9248 24 15.2749V14.0999C24 12.8037 22.9238 11.7499 21.6 11.7499ZM12 11.7499C14.3213 11.7499 16.2 9.91029 16.2 7.6374C16.2 5.36451 14.3213 3.5249 12 3.5249C9.67875 3.5249 7.8 5.36451 7.8 7.6374C7.8 9.91029 9.67875 11.7499 12 11.7499ZM14.88 12.9249H14.5688C13.7888 13.2921 12.9225 13.5124 12 13.5124C11.0775 13.5124 10.215 13.2921 9.43125 12.9249H9.12C6.735 12.9249 4.8 14.8196 4.8 17.1549V18.2124C4.8 19.1854 5.60625 19.9749 6.6 19.9749H17.4C18.3938 19.9749 19.2 19.1854 19.2 18.2124V17.1549C19.2 14.8196 17.265 12.9249 14.88 12.9249ZM6.49125 12.4329C6.05625 12.0106 5.46 11.7499 4.8 11.7499H2.4C1.07625 11.7499 0 12.8037 0 14.0999V15.2749C0 15.9248 0.53625 16.4499 1.2 16.4499H3.67125C3.9075 14.7094 4.98 13.2444 6.49125 12.4329Z" fill="#121212" fill-opacity="0.8"/>
</svg>
