<svg width="22" height="22" viewBox="0 0 22 22" fill="none" xmlns="http://www.w3.org/2000/svg">
<path d="M19.25 17.4166V18.3333H2.75V17.4166L4.58333 15.5833V10.0833C4.58333 7.24159 6.44417 4.73909 9.16667 3.93242C9.16667 3.84075 9.16667 3.75825 9.16667 3.66659C9.16667 3.18036 9.35982 2.71404 9.70364 2.37022C10.0475 2.02641 10.5138 1.83325 11 1.83325C11.4862 1.83325 11.9525 2.02641 12.2964 2.37022C12.6402 2.71404 12.8333 3.18036 12.8333 3.66659C12.8333 3.75825 12.8333 3.84075 12.8333 3.93242C15.5558 4.73909 17.4167 7.24159 17.4167 10.0833V15.5833L19.25 17.4166ZM12.8333 19.2499C12.8333 19.7361 12.6402 20.2025 12.2964 20.5463C11.9525 20.8901 11.4862 21.0833 11 21.0833C10.5138 21.0833 10.0475 20.8901 9.70364 20.5463C9.35982 20.2025 9.16667 19.7361 9.16667 19.2499" fill="#121212" fill-opacity="0.45"/>
</svg>
