<svg width="36" height="36" viewBox="0 0 36 36" fill="none" xmlns="http://www.w3.org/2000/svg">
<circle cx="18" cy="18" r="18" fill="#4B1A85" fill-opacity="0.1"/>
<path d="M12.62 16.79C14.06 19.62 16.38 21.94 19.21 23.38L21.41 21.18C21.69 20.9 22.08 20.82 22.43 20.93C23.55 21.3 24.75 21.5 26 21.5C26.2652 21.5 26.5196 21.6054 26.7071 21.7929C26.8946 21.9804 27 22.2348 27 22.5V26C27 26.2652 26.8946 26.5196 26.7071 26.7071C26.5196 26.8946 26.2652 27 26 27C21.4913 27 17.1673 25.2089 13.9792 22.0208C10.7911 18.8327 9 14.5087 9 10C9 9.73478 9.10536 9.48043 9.29289 9.29289C9.48043 9.10536 9.73478 9 10 9H13.5C13.7652 9 14.0196 9.10536 14.2071 9.29289C14.3946 9.48043 14.5 9.73478 14.5 10C14.5 11.25 14.7 12.45 15.07 13.57C15.18 13.92 15.1 14.31 14.82 14.59L12.62 16.79Z" fill="#1C023B" fill-opacity="0.8"/>
</svg>
