<svg width="20" height="19" viewBox="0 0 20 19" fill="none" xmlns="http://www.w3.org/2000/svg">
<path d="M11.925 0.50393C12.317 0.503898 12.7023 0.606305 13.0426 0.801002C13.3829 0.9957 13.6664 1.27593 13.865 1.61393L14.679 3.00093H16.75C17.6118 3.00093 18.4383 3.3432 19.0477 3.95248C19.6572 4.56176 19.9997 5.38815 20 6.24993V15.7499C20 16.1767 19.9159 16.5993 19.7526 16.9937C19.5893 17.388 19.3499 17.7462 19.0481 18.048C18.7463 18.3498 18.388 18.5892 17.9937 18.7525C17.5994 18.9159 17.1768 18.9999 16.75 18.9999H3.25C2.38805 18.9999 1.5614 18.6575 0.951903 18.048C0.34241 17.4385 0 16.6119 0 15.7499V6.24993C0 5.38798 0.34241 4.56133 0.951903 3.95183C1.5614 3.34234 2.38805 2.99993 3.25 2.99993H5.33L6.205 1.57593C6.40619 1.24815 6.68804 0.977411 7.02364 0.789564C7.35925 0.601717 7.7374 0.503031 8.122 0.50293H11.925V0.50393ZM11.925 2.00393H8.122C8.01256 2.00402 7.90448 2.02806 7.80532 2.07435C7.70616 2.12065 7.61833 2.18809 7.548 2.27193L7.483 2.36193L6.39 4.14193C6.32298 4.25125 6.22904 4.34156 6.11717 4.40424C6.0053 4.46692 5.87923 4.49986 5.751 4.49993H3.251C3.0211 4.4998 2.79343 4.54497 2.581 4.63285C2.36856 4.72074 2.17552 4.84962 2.01292 5.01214C1.85031 5.17465 1.72131 5.36762 1.63331 5.58C1.5453 5.79239 1.5 6.02003 1.5 6.24993V15.7499C1.5 16.7159 2.284 17.4999 3.25 17.4999H16.75C17.2141 17.4999 17.6592 17.3156 17.9874 16.9874C18.3156 16.6592 18.5 16.2141 18.5 15.7499V6.24993C18.5 5.7858 18.3156 5.34068 17.9874 5.01249C17.6592 4.6843 17.2141 4.49993 16.75 4.49993H14.25C14.1193 4.5 13.9908 4.46589 13.8773 4.40099C13.7638 4.33609 13.6692 4.24264 13.603 4.12993L12.571 2.37293C12.5048 2.26036 12.4104 2.16701 12.2971 2.10212C12.1838 2.03723 12.0556 2.00304 11.925 2.00293V2.00393ZM10 5.99993C11.1935 5.99993 12.3381 6.47404 13.182 7.31795C14.0259 8.16186 14.5 9.30646 14.5 10.4999C14.5 11.6934 14.0259 12.838 13.182 13.6819C12.3381 14.5258 11.1935 14.9999 10 14.9999C8.80653 14.9999 7.66193 14.5258 6.81802 13.6819C5.97411 12.838 5.5 11.6934 5.5 10.4999C5.5 9.30646 5.97411 8.16186 6.81802 7.31795C7.66193 6.47404 8.80653 5.99993 10 5.99993ZM10 7.49993C9.60603 7.49993 9.21593 7.57753 8.85195 7.72829C8.48797 7.87905 8.15726 8.10003 7.87868 8.37861C7.6001 8.65718 7.37913 8.9879 7.22836 9.35188C7.0776 9.71586 7 10.106 7 10.4999C7 10.8939 7.0776 11.284 7.22836 11.648C7.37913 12.012 7.6001 12.3427 7.87868 12.6213C8.15726 12.8998 8.48797 13.1208 8.85195 13.2716C9.21593 13.4223 9.60603 13.4999 10 13.4999C10.7956 13.4999 11.5587 13.1839 12.1213 12.6213C12.6839 12.0586 13 11.2956 13 10.4999C13 9.70428 12.6839 8.94122 12.1213 8.37861C11.5587 7.816 10.7956 7.49993 10 7.49993Z" fill="#333333"/>
</svg>
