<svg width="36" height="36" viewBox="0 0 36 36" fill="none" xmlns="http://www.w3.org/2000/svg">
<circle cx="18" cy="18" r="18" fill="#D9D9D9"/>
<path d="M22.6132 18C22.6132 18.15 22.5882 18.2875 22.5382 18.4125C22.4882 18.5375 22.4007 18.6625 22.2757 18.7875L14.8507 26.2125C14.6507 26.4125 14.3819 26.5063 14.0444 26.4938C13.7069 26.4813 13.4382 26.375 13.2382 26.175C12.9882 25.925 12.8819 25.6563 12.9194 25.3688C12.9569 25.0813 13.0757 24.825 13.2757 24.6L19.8757 18L13.2757 11.4C13.0757 11.2 12.9632 10.9313 12.9382 10.5938C12.9132 10.2563 13.0257 9.98752 13.2757 9.78752C13.4757 9.53752 13.7382 9.43127 14.0632 9.46877C14.3882 9.50627 14.6632 9.62502 14.8882 9.82502L22.2757 17.2125C22.4007 17.3375 22.4882 17.4625 22.5382 17.5875C22.5882 17.7125 22.6132 17.85 22.6132 18Z" fill="black"/>
</svg>
