<svg width="22" height="22" viewBox="0 0 22 22" fill="none" xmlns="http://www.w3.org/2000/svg">
<path d="M9.00173 11.4584C9.02007 11.3026 9.0384 11.1559 9.0384 11.0001C9.0384 10.8442 9.02007 10.6976 9.00173 10.5417L9.99173 9.79925C10.0834 9.73508 10.0834 9.62508 10.0467 9.50591L9.10257 7.92008C9.04757 7.81925 8.91924 7.79175 8.8184 7.81925L7.64507 8.27758C7.39757 8.09425 7.13174 7.94758 6.84757 7.82841L6.66424 6.60925C6.66424 6.49925 6.5634 6.41675 6.44424 6.41675H4.5834C4.4459 6.41675 4.34507 6.49925 4.32674 6.60925L4.12507 7.81925C3.85924 7.92925 3.5934 8.09425 3.3459 8.25008L2.17257 7.79175C2.06257 7.76425 1.9434 7.79175 1.8884 7.91091L0.944235 9.49675C0.889235 9.62508 0.916735 9.72591 1.0084 9.79925L1.9984 10.5417C1.98007 10.6976 1.9709 10.8534 1.9709 11.0001C1.9709 11.1559 1.98924 11.3026 2.00757 11.4584L1.0084 12.2101C0.916735 12.2742 0.916735 12.4026 0.953402 12.5034L1.89757 14.0892C1.95257 14.2084 2.0809 14.2084 2.18174 14.2084L3.35507 13.7501C3.60257 13.9151 3.8684 14.0617 4.15257 14.1809L4.3359 15.3909C4.34507 15.5009 4.4459 15.5834 4.5834 15.5834H6.4534C6.57257 15.5834 6.6734 15.5009 6.68257 15.3909L6.87507 14.1809C7.15007 14.0709 7.4159 13.9059 7.6634 13.7501L8.83674 14.2084C8.94674 14.2359 9.0659 14.2084 9.1209 14.0892L10.0834 12.5034C10.1201 12.4026 10.0834 12.2834 10.0101 12.2101L9.00173 11.4584ZM5.50007 12.6042C4.5834 12.6042 3.85007 11.8892 3.85007 11.0001C3.85007 10.1109 4.5834 9.39591 5.50007 9.39591C6.41674 9.39591 7.15007 10.1109 7.15007 11.0001C7.15007 11.8892 6.41674 12.6042 5.50007 12.6042ZM15.5834 0.916748H6.41674C5.93051 0.916748 5.46419 1.1099 5.12037 1.45372C4.77656 1.79754 4.5834 2.26385 4.5834 2.75008V5.50008H6.41674V3.66675H15.5834V18.3334H6.41674V16.5001H4.5834V19.2501C4.5834 19.7363 4.77656 20.2026 5.12037 20.5464C5.46419 20.8903 5.93051 21.0834 6.41674 21.0834H15.5834C16.0696 21.0834 16.5359 20.8903 16.8798 20.5464C17.2236 20.2026 17.4167 19.7363 17.4167 19.2501V2.75008C17.4167 2.26385 17.2236 1.79754 16.8798 1.45372C16.5359 1.1099 16.0696 0.916748 15.5834 0.916748Z" fill="#121212" fill-opacity="0.45"/>
</svg>
