<svg width="121" height="24" viewBox="0 0 121 24" fill="none" xmlns="http://www.w3.org/2000/svg">
<path d="M51.5753 11.1293H50.0241C49.9645 10.7978 49.8535 10.5062 49.6911 10.2543C49.5286 10.0024 49.3298 9.78859 49.0945 9.61293C48.8591 9.43726 48.5956 9.30469 48.304 9.2152C48.0156 9.12571 47.709 9.08097 47.3842 9.08097C46.7976 9.08097 46.2723 9.22846 45.8082 9.52344C45.3475 9.81842 44.983 10.2509 44.7145 10.821C44.4493 11.3911 44.3168 12.0871 44.3168 12.9091C44.3168 13.7377 44.4493 14.437 44.7145 15.0071C44.983 15.5772 45.3492 16.008 45.8132 16.2997C46.2772 16.5914 46.7992 16.7372 47.3793 16.7372C47.7008 16.7372 48.0057 16.6941 48.294 16.608C48.5857 16.5185 48.8492 16.3875 49.0845 16.2152C49.3198 16.0429 49.5187 15.8324 49.6811 15.5838C49.8468 15.3319 49.9612 15.0436 50.0241 14.7188L51.5753 14.7237C51.4924 15.2242 51.3317 15.6849 51.093 16.1058C50.8577 16.5234 50.5545 16.8847 50.1832 17.1896C49.8153 17.4912 49.3944 17.7249 48.9205 17.8906C48.4465 18.0563 47.9295 18.1392 47.3693 18.1392C46.4877 18.1392 45.7022 17.9304 45.0128 17.5128C44.3234 17.0919 43.7798 16.4903 43.3821 15.7081C42.9877 14.9259 42.7905 13.9929 42.7905 12.9091C42.7905 11.822 42.9893 10.889 43.3871 10.1101C43.7848 9.32789 44.3284 8.72798 45.0178 8.31037C45.7071 7.88944 46.491 7.67898 47.3693 7.67898C47.9096 7.67898 48.4134 7.75687 48.8807 7.91264C49.3513 8.0651 49.7739 8.29048 50.1484 8.58878C50.523 8.88376 50.8329 9.24503 51.0781 9.67258C51.3234 10.0968 51.4891 10.5824 51.5753 11.1293ZM56.5854 18.1541C55.833 18.1541 55.1851 17.9934 54.6415 17.6719C54.1013 17.3471 53.6837 16.8913 53.3887 16.3047C53.097 15.7147 52.9512 15.0237 52.9512 14.2315C52.9512 13.4493 53.097 12.7599 53.3887 12.1634C53.6837 11.5668 54.0946 11.1011 54.6216 10.7663C55.1519 10.4316 55.7717 10.2642 56.481 10.2642C56.9119 10.2642 57.3295 10.3355 57.7338 10.478C58.1382 10.6205 58.5011 10.8442 58.8226 11.1491C59.1441 11.4541 59.3977 11.8501 59.5833 12.3374C59.7689 12.8213 59.8617 13.4096 59.8617 14.1023V14.6293H53.7914V13.5156H58.405C58.405 13.1245 58.3255 12.7782 58.1664 12.4766C58.0073 12.1716 57.7836 11.9313 57.4952 11.7557C57.2102 11.58 56.8754 11.4922 56.4909 11.4922C56.0733 11.4922 55.7087 11.5949 55.3972 11.8004C55.089 12.0026 54.8503 12.2678 54.6813 12.5959C54.5156 12.9207 54.4327 13.2737 54.4327 13.6548V14.5249C54.4327 15.0353 54.5222 15.4695 54.7012 15.8274C54.8835 16.1854 55.137 16.4588 55.4618 16.6477C55.7866 16.8333 56.1661 16.9261 56.6003 16.9261C56.882 16.9261 57.1389 16.8864 57.3709 16.8068C57.6029 16.724 57.8034 16.6013 57.9725 16.4389C58.1415 16.2765 58.2708 16.076 58.3603 15.8374L59.7672 16.0909C59.6545 16.5052 59.4524 16.8681 59.1607 17.1797C58.8723 17.4879 58.5094 17.7282 58.0719 17.9006C57.6377 18.0696 57.1422 18.1541 56.5854 18.1541ZM61.511 18V10.3636H62.9478V11.5767H63.0273C63.1665 11.1657 63.4118 10.8426 63.7631 10.6072C64.1178 10.3686 64.5188 10.2493 64.9663 10.2493C65.0591 10.2493 65.1684 10.2526 65.2944 10.2592C65.4237 10.2659 65.5247 10.2741 65.5977 10.2841V11.706C65.538 11.6894 65.4319 11.6712 65.2795 11.6513C65.127 11.6281 64.9746 11.6165 64.8221 11.6165C64.4708 11.6165 64.1576 11.6911 63.8825 11.8402C63.6107 11.986 63.3952 12.1899 63.2362 12.4517C63.0771 12.7102 62.9975 13.0052 62.9975 13.3366V18H61.511ZM70.8999 10.3636V11.5568H66.7287V10.3636H70.8999ZM67.8473 8.53409H69.3338V15.7578C69.3338 16.0462 69.3769 16.2633 69.4631 16.4091C69.5492 16.5516 69.6603 16.6494 69.7962 16.7024C69.9354 16.7521 70.0862 16.777 70.2486 16.777C70.3679 16.777 70.4723 16.7687 70.5618 16.7521C70.6513 16.7356 70.7209 16.7223 70.7706 16.7124L71.0391 17.9403C70.9529 17.9735 70.8303 18.0066 70.6712 18.0398C70.5121 18.0762 70.3132 18.0961 70.0746 18.0994C69.6835 18.1061 69.3189 18.0365 68.9808 17.8906C68.6428 17.7448 68.3693 17.5194 68.1605 17.2145C67.9517 16.9096 67.8473 16.5268 67.8473 16.0661V8.53409ZM72.5442 18V10.3636H74.0307V18H72.5442ZM73.2949 9.18537C73.0364 9.18537 72.8143 9.09919 72.6287 8.92685C72.4464 8.75118 72.3553 8.54238 72.3553 8.30043C72.3553 8.05516 72.4464 7.84635 72.6287 7.67401C72.8143 7.49834 73.0364 7.41051 73.2949 7.41051C73.5534 7.41051 73.7739 7.49834 73.9561 7.67401C74.1417 7.84635 74.2346 8.05516 74.2346 8.30043C74.2346 8.54238 74.1417 8.75118 73.9561 8.92685C73.7739 9.09919 73.5534 9.18537 73.2949 9.18537ZM79.6648 10.3636V11.5568H75.3494V10.3636H79.6648ZM76.5327 18V9.47869C76.5327 9.00142 76.6371 8.60535 76.8459 8.29048C77.0547 7.9723 77.3314 7.73532 77.6761 7.57955C78.0208 7.42045 78.3954 7.34091 78.7997 7.34091C79.098 7.34091 79.3532 7.36577 79.5653 7.41548C79.7775 7.46188 79.9349 7.50497 80.0376 7.54474L79.6896 8.74787C79.62 8.72798 79.5305 8.70478 79.4212 8.67827C79.3118 8.64844 79.1792 8.63352 79.0234 8.63352C78.6622 8.63352 78.4036 8.72301 78.2479 8.90199C78.0954 9.08097 78.0192 9.33949 78.0192 9.67756V18H76.5327ZM81.1985 18V10.3636H82.685V18H81.1985ZM81.9492 9.18537C81.6907 9.18537 81.4686 9.09919 81.283 8.92685C81.1007 8.75118 81.0096 8.54238 81.0096 8.30043C81.0096 8.05516 81.1007 7.84635 81.283 7.67401C81.4686 7.49834 81.6907 7.41051 81.9492 7.41051C82.2077 7.41051 82.4281 7.49834 82.6104 7.67401C82.796 7.84635 82.8888 8.05516 82.8888 8.30043C82.8888 8.54238 82.796 8.75118 82.6104 8.92685C82.4281 9.09919 82.2077 9.18537 81.9492 9.18537ZM87.9015 18.1541C87.1623 18.1541 86.526 17.9867 85.9924 17.652C85.4621 17.3139 85.0544 16.8482 84.7694 16.255C84.4843 15.6617 84.3418 14.9822 84.3418 14.2166C84.3418 13.4411 84.4876 12.7566 84.7793 12.1634C85.071 11.5668 85.4819 11.1011 86.0123 10.7663C86.5426 10.4316 87.1673 10.2642 87.8865 10.2642C88.4666 10.2642 88.9836 10.3719 89.4377 10.5874C89.8917 10.7995 90.258 11.0978 90.5364 11.4822C90.8181 11.8667 90.9855 12.3158 91.0385 12.8295H89.5918C89.5123 12.4716 89.33 12.1634 89.0449 11.9048C88.7632 11.6463 88.3854 11.517 87.9114 11.517C87.4971 11.517 87.1342 11.6264 86.8226 11.8452C86.5144 12.0606 86.2741 12.3688 86.1017 12.7699C85.9294 13.1676 85.8432 13.6383 85.8432 14.1818C85.8432 14.7386 85.9277 15.2192 86.0968 15.6236C86.2658 16.0279 86.5044 16.3411 86.8127 16.5632C87.1242 16.7853 87.4905 16.8963 87.9114 16.8963C88.1931 16.8963 88.4483 16.8449 88.677 16.7422C88.909 16.6361 89.1029 16.4853 89.2587 16.2898C89.4178 16.0942 89.5288 15.8589 89.5918 15.5838H91.0385C90.9855 16.0777 90.8248 16.5185 90.5563 16.9062C90.2878 17.294 89.9282 17.599 89.4775 17.821C89.03 18.0431 88.5047 18.1541 87.9015 18.1541ZM94.8505 18.169C94.3666 18.169 93.9291 18.0795 93.538 17.9006C93.1469 17.7183 92.837 17.4548 92.6083 17.1101C92.3829 16.7654 92.2702 16.3428 92.2702 15.8423C92.2702 15.4115 92.3531 15.0568 92.5188 14.7784C92.6845 14.5 92.9083 14.2796 93.19 14.1172C93.4717 13.9548 93.7866 13.8321 94.1346 13.7493C94.4826 13.6664 94.8372 13.6035 95.1985 13.5604C95.6559 13.5073 96.0271 13.4643 96.3121 13.4311C96.5972 13.3946 96.8043 13.3366 96.9336 13.2571C97.0629 13.1776 97.1275 13.0483 97.1275 12.8693V12.8345C97.1275 12.4003 97.0049 12.0639 96.7596 11.8253C96.5176 11.5866 96.1564 11.4673 95.6758 11.4673C95.1753 11.4673 94.7809 11.5784 94.4925 11.8004C94.2075 12.0192 94.0103 12.2628 93.9009 12.5312L92.5039 12.2131C92.6696 11.7491 92.9116 11.3745 93.2298 11.0895C93.5513 10.8011 93.9208 10.5923 94.3384 10.4631C94.756 10.3305 95.1952 10.2642 95.6559 10.2642C95.9608 10.2642 96.284 10.3007 96.6254 10.3736C96.9701 10.4432 97.2915 10.5724 97.5898 10.7614C97.8915 10.9503 98.1384 11.2204 98.3306 11.5717C98.5228 11.9197 98.619 12.3722 98.619 12.929V18H97.1673V16.956H97.1076C97.0115 17.1482 96.8673 17.3371 96.6751 17.5227C96.4828 17.7083 96.2359 17.8625 95.9343 17.9851C95.6327 18.1077 95.2714 18.169 94.8505 18.169ZM95.1737 16.9759C95.5846 16.9759 95.936 16.8946 96.2276 16.7322C96.5226 16.5698 96.7463 16.3577 96.8988 16.0959C97.0546 15.8307 97.1325 15.5473 97.1325 15.2457V14.2614C97.0794 14.3144 96.9767 14.3641 96.8242 14.4105C96.6751 14.4536 96.5044 14.4917 96.3121 14.5249C96.1199 14.5547 95.9326 14.5829 95.7504 14.6094C95.5681 14.6326 95.4156 14.6525 95.293 14.669C95.0046 14.7055 94.7411 14.7668 94.5025 14.853C94.2672 14.9392 94.0782 15.0634 93.9357 15.2259C93.7965 15.3849 93.7269 15.5971 93.7269 15.8622C93.7269 16.2301 93.8628 16.5085 94.1346 16.6974C94.4064 16.883 94.7527 16.9759 95.1737 16.9759ZM104.164 10.3636V11.5568H99.9924V10.3636H104.164ZM101.111 8.53409H102.597V15.7578C102.597 16.0462 102.641 16.2633 102.727 16.4091C102.813 16.5516 102.924 16.6494 103.06 16.7024C103.199 16.7521 103.35 16.777 103.512 16.777C103.632 16.777 103.736 16.7687 103.825 16.7521C103.915 16.7356 103.985 16.7223 104.034 16.7124L104.303 17.9403C104.217 17.9735 104.094 18.0066 103.935 18.0398C103.776 18.0762 103.577 18.0961 103.338 18.0994C102.947 18.1061 102.583 18.0365 102.244 17.8906C101.906 17.7448 101.633 17.5194 101.424 17.2145C101.215 16.9096 101.111 16.5268 101.111 16.0661V8.53409ZM109.017 18.1541C108.265 18.1541 107.617 17.9934 107.073 17.6719C106.533 17.3471 106.115 16.8913 105.82 16.3047C105.529 15.7147 105.383 15.0237 105.383 14.2315C105.383 13.4493 105.529 12.7599 105.82 12.1634C106.115 11.5668 106.526 11.1011 107.053 10.7663C107.584 10.4316 108.203 10.2642 108.913 10.2642C109.344 10.2642 109.761 10.3355 110.165 10.478C110.57 10.6205 110.933 10.8442 111.254 11.1491C111.576 11.4541 111.829 11.8501 112.015 12.3374C112.201 12.8213 112.293 13.4096 112.293 14.1023V14.6293H106.223V13.5156H110.837C110.837 13.1245 110.757 12.7782 110.598 12.4766C110.439 12.1716 110.215 11.9313 109.927 11.7557C109.642 11.58 109.307 11.4922 108.923 11.4922C108.505 11.4922 108.14 11.5949 107.829 11.8004C107.521 12.0026 107.282 12.2678 107.113 12.5959C106.947 12.9207 106.864 13.2737 106.864 13.6548V14.5249C106.864 15.0353 106.954 15.4695 107.133 15.8274C107.315 16.1854 107.569 16.4588 107.893 16.6477C108.218 16.8333 108.598 16.9261 109.032 16.9261C109.314 16.9261 109.571 16.8864 109.803 16.8068C110.035 16.724 110.235 16.6013 110.404 16.4389C110.573 16.2765 110.702 16.076 110.792 15.8374L112.199 16.0909C112.086 16.5052 111.884 16.8681 111.592 17.1797C111.304 17.4879 110.941 17.7282 110.504 17.9006C110.069 18.0696 109.574 18.1541 109.017 18.1541ZM119.665 12.228L118.318 12.4666C118.261 12.2943 118.172 12.1302 118.049 11.9744C117.93 11.8187 117.767 11.6911 117.562 11.5916C117.356 11.4922 117.1 11.4425 116.791 11.4425C116.37 11.4425 116.019 11.5369 115.737 11.7259C115.456 11.9115 115.315 12.1518 115.315 12.4467C115.315 12.7019 115.409 12.9074 115.598 13.0632C115.787 13.219 116.092 13.3466 116.513 13.446L117.726 13.7244C118.429 13.8868 118.952 14.1371 119.297 14.4751C119.642 14.8132 119.814 15.2524 119.814 15.7926C119.814 16.25 119.682 16.6577 119.416 17.0156C119.155 17.3703 118.788 17.6487 118.318 17.8509C117.85 18.053 117.308 18.1541 116.692 18.1541C115.837 18.1541 115.139 17.9718 114.599 17.6072C114.059 17.2393 113.727 16.7173 113.605 16.0412L115.041 15.8224C115.131 16.197 115.315 16.4804 115.593 16.6726C115.872 16.8615 116.235 16.956 116.682 16.956C117.169 16.956 117.559 16.8549 117.85 16.6527C118.142 16.4472 118.288 16.197 118.288 15.902C118.288 15.6634 118.198 15.4628 118.019 15.3004C117.844 15.138 117.574 15.0154 117.209 14.9325L115.916 14.6491C115.204 14.4867 114.677 14.2282 114.335 13.8736C113.997 13.5189 113.828 13.0698 113.828 12.5263C113.828 12.0755 113.954 11.6811 114.206 11.343C114.458 11.005 114.806 10.7415 115.25 10.5526C115.694 10.3603 116.203 10.2642 116.776 10.2642C117.602 10.2642 118.251 10.4432 118.725 10.8011C119.199 11.1558 119.512 11.6314 119.665 12.228Z" fill="#121212" fill-opacity="0.8"/>
<path d="M4 3C2.89 3 2 3.89 2 5V15C2 15.5304 2.21071 16.0391 2.58579 16.4142C2.96086 16.7893 3.46957 17 4 17H12V22L15 19L18 22V17H20C20.5304 17 21.0391 16.7893 21.4142 16.4142C21.7893 16.0391 22 15.5304 22 15V8V6V5C22 4.46957 21.7893 3.96086 21.4142 3.58579C21.0391 3.21071 20.5304 3 20 3H16H4ZM12 5L15 7L18 5V8.5L21 10L18 11.5V15L15 13L12 15V11.5L9 10L12 8.5V5ZM4 5H9V7H4V5ZM4 9H7V11H4V9ZM4 13H9V15H4V13Z" fill="#121212" fill-opacity="0.8"/>
</svg>
