<svg width="18" height="18" viewBox="0 0 18 18" fill="none" xmlns="http://www.w3.org/2000/svg">
<path d="M6 6C5.80109 6 5.61032 6.07902 5.46967 6.21967C5.32902 6.36032 5.25 6.55109 5.25 6.75C5.25 6.94891 5.17098 7.13968 5.03033 7.28033C4.88968 7.42098 4.69891 7.5 4.5 7.5C4.30109 7.5 4.11032 7.42098 3.96967 7.28033C3.82902 7.13968 3.75 6.94891 3.75 6.75C3.75 6.15326 3.98705 5.58097 4.40901 5.15901C4.83097 4.73705 5.40326 4.5 6 4.5C6.59674 4.5 7.16903 4.73705 7.59099 5.15901C8.01295 5.58097 8.25 6.15326 8.25 6.75C8.25 6.94891 8.17098 7.13968 8.03033 7.28033C7.88968 7.42098 7.69891 7.5 7.5 7.5C7.30109 7.5 7.11032 7.42098 6.96967 7.28033C6.82902 7.13968 6.75 6.94891 6.75 6.75C6.75 6.55109 6.67098 6.36032 6.53033 6.21967C6.38968 6.07902 6.19891 6 6 6ZM12 6C11.8011 6 11.6103 6.07902 11.4697 6.21967C11.329 6.36032 11.25 6.55109 11.25 6.75C11.25 6.94891 11.171 7.13968 11.0303 7.28033C10.8897 7.42098 10.6989 7.5 10.5 7.5C10.3011 7.5 10.1103 7.42098 9.96967 7.28033C9.82902 7.13968 9.75 6.94891 9.75 6.75C9.75 6.15326 9.98705 5.58097 10.409 5.15901C10.831 4.73705 11.4033 4.5 12 4.5C12.5967 4.5 13.169 4.73705 13.591 5.15901C14.0129 5.58097 14.25 6.15326 14.25 6.75C14.25 6.94891 14.171 7.13968 14.0303 7.28033C13.8897 7.42098 13.6989 7.5 13.5 7.5C13.3011 7.5 13.1103 7.42098 12.9697 7.28033C12.829 7.13968 12.75 6.94891 12.75 6.75C12.75 6.55109 12.671 6.36032 12.5303 6.21967C12.3897 6.07902 12.1989 6 12 6ZM3.8025 9C3.69515 9.00002 3.58905 9.02308 3.49137 9.06763C3.3937 9.11218 3.30673 9.17718 3.23634 9.25823C3.16595 9.33929 3.11378 9.43451 3.08336 9.53747C3.05294 9.64042 3.04497 9.7487 3.06 9.855C3.26379 11.2852 3.97677 12.5939 5.06798 13.5406C6.15918 14.4874 7.55534 15.0086 9 15.0086C10.4447 15.0086 11.8408 14.4874 12.932 13.5406C14.0232 12.5939 14.7362 11.2852 14.94 9.855C14.955 9.74858 14.947 9.64016 14.9165 9.53711C14.886 9.43405 14.8337 9.33875 14.7632 9.25767C14.6926 9.17659 14.6055 9.11162 14.5076 9.06716C14.4097 9.02271 14.3035 8.9998 14.196 9H3.8025ZM9 13.5C8.06913 13.5 7.16111 13.2116 6.40092 12.6744C5.64072 12.1371 5.0657 11.3775 4.755 10.5H13.245C12.9343 11.3775 12.3593 12.1371 11.5991 12.6744C10.8389 13.2116 9.93087 13.5 9 13.5ZM18 9C18 7.8181 17.7672 6.64778 17.3149 5.55585C16.8626 4.46392 16.1997 3.47177 15.364 2.63604C14.5282 1.80031 13.5361 1.13738 12.4442 0.685084C11.3522 0.232792 10.1819 0 9 0C7.8181 0 6.64778 0.232792 5.55585 0.685084C4.46392 1.13738 3.47177 1.80031 2.63604 2.63604C1.80031 3.47177 1.13738 4.46392 0.685084 5.55585C0.232792 6.64778 -1.76116e-08 7.8181 0 9C3.55683e-08 11.3869 0.948211 13.6761 2.63604 15.364C4.32387 17.0518 6.61305 18 9 18C11.3869 18 13.6761 17.0518 15.364 15.364C17.0518 13.6761 18 11.3869 18 9ZM1.5 9C1.5 7.01088 2.29018 5.10322 3.6967 3.6967C5.10322 2.29018 7.01088 1.5 9 1.5C10.9891 1.5 12.8968 2.29018 14.3033 3.6967C15.7098 5.10322 16.5 7.01088 16.5 9C16.5 10.9891 15.7098 12.8968 14.3033 14.3033C12.8968 15.7098 10.9891 16.5 9 16.5C7.01088 16.5 5.10322 15.7098 3.6967 14.3033C2.29018 12.8968 1.5 10.9891 1.5 9Z" fill="#121212"/>
</svg>
