<svg width="40" height="32" viewBox="0 0 40 32" fill="none" xmlns="http://www.w3.org/2000/svg">
<path d="M26.1 24.05H32.65C33.0833 24.05 33.4417 23.9083 33.725 23.625C34.0083 23.3417 34.15 22.9833 34.15 22.55V9.45C34.15 9.01667 34.0083 8.65833 33.725 8.375C33.4417 8.09167 33.0833 7.95 32.65 7.95H26.1C25.6667 7.95 25.3083 8.09167 25.025 8.375C24.7417 8.65833 24.6 9.01667 24.6 9.45V22.55C24.6 22.9833 24.7417 23.3417 25.025 23.625C25.3083 23.9083 25.6667 24.05 26.1 24.05ZM27.6 21.05V10.95H31.15V21.05H27.6ZM13.7 24.05H20C20.4333 24.05 20.7917 23.9083 21.075 23.625C21.3583 23.3417 21.5 22.9833 21.5 22.55V9.45C21.5 9.01667 21.3583 8.65833 21.075 8.375C20.7917 8.09167 20.4333 7.95 20 7.95H13.7C13.2667 7.95 12.9083 8.09167 12.625 8.375C12.3417 8.65833 12.2 9.01667 12.2 9.45V22.55C12.2 22.9833 12.3417 23.3417 12.625 23.625C12.9083 23.9083 13.2667 24.05 13.7 24.05ZM15.2 21.05V10.95H18.5V21.05H15.2ZM5.85 24.05H8.85V7.95H5.85V24.05ZM0 32V0H40V32H0ZM3 29H37V3H3V29Z" fill="black" fill-opacity="0.8"/>
</svg>
