<svg width="95" height="24" viewBox="0 0 95 24" fill="none" xmlns="http://www.w3.org/2000/svg">
<path d="M51.5753 10.0668H50.0241C49.9645 9.73532 49.8535 9.44365 49.6911 9.19176C49.5286 8.93987 49.3298 8.72609 49.0945 8.55043C48.8591 8.37476 48.5956 8.24219 48.304 8.1527C48.0156 8.06321 47.709 8.01847 47.3842 8.01847C46.7976 8.01847 46.2723 8.16596 45.8082 8.46094C45.3475 8.75592 44.983 9.18845 44.7145 9.75852C44.4493 10.3286 44.3168 11.0246 44.3168 11.8466C44.3168 12.6752 44.4493 13.3745 44.7145 13.9446C44.983 14.5147 45.3492 14.9455 45.8132 15.2372C46.2772 15.5289 46.7992 15.6747 47.3793 15.6747C47.7008 15.6747 48.0057 15.6316 48.294 15.5455C48.5857 15.456 48.8492 15.325 49.0845 15.1527C49.3198 14.9804 49.5187 14.7699 49.6811 14.5213C49.8468 14.2694 49.9612 13.9811 50.0241 13.6562L51.5753 13.6612C51.4924 14.1617 51.3317 14.6224 51.093 15.0433C50.8577 15.4609 50.5545 15.8222 50.1832 16.1271C49.8153 16.4287 49.3944 16.6624 48.9205 16.8281C48.4465 16.9938 47.9295 17.0767 47.3693 17.0767C46.4877 17.0767 45.7022 16.8679 45.0128 16.4503C44.3234 16.0294 43.7798 15.4278 43.3821 14.6456C42.9877 13.8634 42.7905 12.9304 42.7905 11.8466C42.7905 10.7595 42.9893 9.82647 43.3871 9.04758C43.7848 8.26539 44.3284 7.66548 45.0178 7.24787C45.7071 6.82694 46.491 6.61648 47.3693 6.61648C47.9096 6.61648 48.4134 6.69437 48.8807 6.85014C49.3513 7.0026 49.7739 7.22798 50.1484 7.52628C50.523 7.82126 50.8329 8.18253 51.0781 8.61008C51.3234 9.03433 51.4891 9.51989 51.5753 10.0668ZM54.7807 6.75568V16.9375H53.2942V6.75568H54.7807ZM59.0028 17.1065C58.5189 17.1065 58.0814 17.017 57.6903 16.8381C57.2992 16.6558 56.9893 16.3923 56.7607 16.0476C56.5353 15.7029 56.4226 15.2803 56.4226 14.7798C56.4226 14.349 56.5054 13.9943 56.6712 13.7159C56.8369 13.4375 57.0606 13.2171 57.3423 13.0547C57.6241 12.8923 57.9389 12.7696 58.2869 12.6868C58.6349 12.6039 58.9896 12.541 59.3509 12.4979C59.8082 12.4448 60.1795 12.4018 60.4645 12.3686C60.7495 12.3321 60.9567 12.2741 61.0859 12.1946C61.2152 12.1151 61.2798 11.9858 61.2798 11.8068V11.772C61.2798 11.3378 61.1572 11.0014 60.9119 10.7628C60.67 10.5241 60.3087 10.4048 59.8281 10.4048C59.3277 10.4048 58.9332 10.5159 58.6449 10.7379C58.3598 10.9567 58.1626 11.2003 58.0533 11.4688L56.6562 11.1506C56.822 10.6866 57.0639 10.312 57.3821 10.027C57.7036 9.73864 58.0732 9.52983 58.4908 9.40057C58.9084 9.26799 59.3475 9.2017 59.8082 9.2017C60.1132 9.2017 60.4363 9.23816 60.7777 9.31108C61.1224 9.38068 61.4439 9.50994 61.7422 9.69886C62.0438 9.88778 62.2907 10.1579 62.483 10.5092C62.6752 10.8572 62.7713 11.3097 62.7713 11.8665V16.9375H61.3196V15.8935H61.2599C61.1638 16.0857 61.0196 16.2746 60.8274 16.4602C60.6352 16.6458 60.3883 16.8 60.0866 16.9226C59.785 17.0452 59.4238 17.1065 59.0028 17.1065ZM59.326 15.9134C59.737 15.9134 60.0883 15.8321 60.38 15.6697C60.675 15.5073 60.8987 15.2952 61.0511 15.0334C61.2069 14.7682 61.2848 14.4848 61.2848 14.1832V13.1989C61.2318 13.2519 61.129 13.3016 60.9766 13.348C60.8274 13.3911 60.6567 13.4292 60.4645 13.4624C60.2723 13.4922 60.085 13.5204 59.9027 13.5469C59.7204 13.5701 59.5679 13.59 59.4453 13.6065C59.157 13.643 58.8935 13.7043 58.6548 13.7905C58.4195 13.8767 58.2306 14.0009 58.0881 14.1634C57.9489 14.3224 57.8793 14.5346 57.8793 14.7997C57.8793 15.1676 58.0152 15.446 58.2869 15.6349C58.5587 15.8205 58.9051 15.9134 59.326 15.9134ZM70.4735 11.1655L69.1262 11.4041C69.0699 11.2318 68.9804 11.0677 68.8578 10.9119C68.7385 10.7562 68.5761 10.6286 68.3706 10.5291C68.1651 10.4297 67.9082 10.38 67.6 10.38C67.179 10.38 66.8277 10.4744 66.546 10.6634C66.2643 10.849 66.1234 11.0893 66.1234 11.3842C66.1234 11.6394 66.2179 11.8449 66.4068 12.0007C66.5957 12.1565 66.9006 12.2841 67.3216 12.3835L68.5346 12.6619C69.2373 12.8243 69.7609 13.0746 70.1056 13.4126C70.4503 13.7507 70.6227 14.1899 70.6227 14.7301C70.6227 15.1875 70.4901 15.5952 70.225 15.9531C69.9631 16.3078 69.5969 16.5862 69.1262 16.7884C68.6589 16.9905 68.117 17.0916 67.5005 17.0916C66.6454 17.0916 65.9477 16.9093 65.4075 16.5447C64.8672 16.1768 64.5358 15.6548 64.4132 14.9787L65.85 14.7599C65.9395 15.1345 66.1234 15.4179 66.4018 15.6101C66.6802 15.799 67.0431 15.8935 67.4906 15.8935C67.9778 15.8935 68.3672 15.7924 68.6589 15.5902C68.9506 15.3847 69.0964 15.1345 69.0964 14.8395C69.0964 14.6009 69.0069 14.4003 68.8279 14.2379C68.6523 14.0755 68.3822 13.9529 68.0176 13.87L66.725 13.5866C66.0124 13.4242 65.4854 13.1657 65.144 12.8111C64.8059 12.4564 64.6369 12.0073 64.6369 11.4638C64.6369 11.013 64.7628 10.6186 65.0147 10.2805C65.2666 9.94247 65.6146 9.67898 66.0588 9.49006C66.5029 9.29782 67.0117 9.2017 67.585 9.2017C68.4103 9.2017 69.06 9.38068 69.5339 9.73864C70.0079 10.0933 70.3211 10.5689 70.4735 11.1655ZM77.9794 11.1655L76.6321 11.4041C76.5758 11.2318 76.4863 11.0677 76.3636 10.9119C76.2443 10.7562 76.0819 10.6286 75.8764 10.5291C75.6709 10.4297 75.4141 10.38 75.1058 10.38C74.6849 10.38 74.3336 10.4744 74.0518 10.6634C73.7701 10.849 73.6293 11.0893 73.6293 11.3842C73.6293 11.6394 73.7237 11.8449 73.9126 12.0007C74.1016 12.1565 74.4065 12.2841 74.8274 12.3835L76.0405 12.6619C76.7431 12.8243 77.2668 13.0746 77.6115 13.4126C77.9562 13.7507 78.1286 14.1899 78.1286 14.7301C78.1286 15.1875 77.996 15.5952 77.7308 15.9531C77.469 16.3078 77.1027 16.5862 76.6321 16.7884C76.1648 16.9905 75.6229 17.0916 75.0064 17.0916C74.1513 17.0916 73.4536 16.9093 72.9134 16.5447C72.3731 16.1768 72.0417 15.6548 71.919 14.9787L73.3558 14.7599C73.4453 15.1345 73.6293 15.4179 73.9077 15.6101C74.1861 15.799 74.549 15.8935 74.9964 15.8935C75.4837 15.8935 75.8731 15.7924 76.1648 15.5902C76.4564 15.3847 76.6023 15.1345 76.6023 14.8395C76.6023 14.6009 76.5128 14.4003 76.3338 14.2379C76.1581 14.0755 75.888 13.9529 75.5234 13.87L74.2308 13.5866C73.5182 13.4242 72.9912 13.1657 72.6499 12.8111C72.3118 12.4564 72.1428 12.0073 72.1428 11.4638C72.1428 11.013 72.2687 10.6186 72.5206 10.2805C72.7725 9.94247 73.1205 9.67898 73.5646 9.49006C74.0088 9.29782 74.5175 9.2017 75.0909 9.2017C75.9162 9.2017 76.5658 9.38068 77.0398 9.73864C77.5137 10.0933 77.8269 10.5689 77.9794 11.1655ZM83.0542 17.0916C82.3018 17.0916 81.6538 16.9309 81.1103 16.6094C80.57 16.2846 80.1524 15.8288 79.8574 15.2422C79.5658 14.6522 79.4199 13.9612 79.4199 13.169C79.4199 12.3868 79.5658 11.6974 79.8574 11.1009C80.1524 10.5043 80.5634 10.0386 81.0904 9.70383C81.6207 9.36908 82.2405 9.2017 82.9498 9.2017C83.3806 9.2017 83.7982 9.27296 84.2026 9.41548C84.6069 9.558 84.9699 9.78172 85.2914 10.0866C85.6129 10.3916 85.8664 10.7876 86.052 11.2749C86.2376 11.7588 86.3304 12.3471 86.3304 13.0398V13.5668H80.2601V12.4531H84.8738C84.8738 12.062 84.7942 11.7157 84.6351 11.4141C84.476 11.1091 84.2523 10.8688 83.964 10.6932C83.6789 10.5175 83.3442 10.4297 82.9597 10.4297C82.5421 10.4297 82.1775 10.5324 81.8659 10.7379C81.5577 10.9401 81.3191 11.2053 81.15 11.5334C80.9843 11.8582 80.9015 12.2112 80.9015 12.5923V13.4624C80.9015 13.9728 80.9909 14.407 81.1699 14.7649C81.3522 15.1229 81.6058 15.3963 81.9306 15.5852C82.2554 15.7708 82.6349 15.8636 83.0691 15.8636C83.3508 15.8636 83.6077 15.8239 83.8397 15.7443C84.0717 15.6615 84.2722 15.5388 84.4412 15.3764C84.6103 15.214 84.7395 15.0135 84.829 14.7749L86.236 15.0284C86.1233 15.4427 85.9211 15.8056 85.6294 16.1172C85.3411 16.4254 84.9782 16.6657 84.5407 16.8381C84.1065 17.0071 83.611 17.0916 83.0542 17.0916ZM93.7021 11.1655L92.3548 11.4041C92.2984 11.2318 92.2089 11.0677 92.0863 10.9119C91.967 10.7562 91.8046 10.6286 91.5991 10.5291C91.3936 10.4297 91.1367 10.38 90.8285 10.38C90.4076 10.38 90.0562 10.4744 89.7745 10.6634C89.4928 10.849 89.3519 11.0893 89.3519 11.3842C89.3519 11.6394 89.4464 11.8449 89.6353 12.0007C89.8242 12.1565 90.1291 12.2841 90.5501 12.3835L91.7631 12.6619C92.4658 12.8243 92.9895 13.0746 93.3342 13.4126C93.6789 13.7507 93.8512 14.1899 93.8512 14.7301C93.8512 15.1875 93.7186 15.5952 93.4535 15.9531C93.1916 16.3078 92.8254 16.5862 92.3548 16.7884C91.8874 16.9905 91.3455 17.0916 90.729 17.0916C89.8739 17.0916 89.1763 16.9093 88.636 16.5447C88.0958 16.1768 87.7643 15.6548 87.6417 14.9787L89.0785 14.7599C89.168 15.1345 89.3519 15.4179 89.6303 15.6101C89.9087 15.799 90.2717 15.8935 90.7191 15.8935C91.2063 15.8935 91.5958 15.7924 91.8874 15.5902C92.1791 15.3847 92.3249 15.1345 92.3249 14.8395C92.3249 14.6009 92.2354 14.4003 92.0565 14.2379C91.8808 14.0755 91.6107 13.9529 91.2461 13.87L89.9535 13.5866C89.2409 13.4242 88.7139 13.1657 88.3725 12.8111C88.0344 12.4564 87.8654 12.0073 87.8654 11.4638C87.8654 11.013 87.9914 10.6186 88.2433 10.2805C88.4951 9.94247 88.8432 9.67898 89.2873 9.49006C89.7314 9.29782 90.2402 9.2017 90.8136 9.2017C91.6388 9.2017 92.2885 9.38068 92.7624 9.73864C93.2364 10.0933 93.5496 10.5689 93.7021 11.1655Z" fill="white"/>
<g clip-path="url(#clip0_542_6149)">
<path d="M23 1.9585H1C0.734784 1.9585 0.48043 2.06166 0.292893 2.24529C0.105357 2.42892 0 2.67797 0 2.93766L0 20.5627C0 20.8224 0.105357 21.0714 0.292893 21.255C0.48043 21.4387 0.734784 21.5418 1 21.5418H23C23.2652 21.5418 23.5196 21.4387 23.7071 21.255C23.8946 21.0714 24 20.8224 24 20.5627V2.93766C24 2.67797 23.8946 2.42892 23.7071 2.24529C23.5196 2.06166 23.2652 1.9585 23 1.9585ZM22 19.5835H20V18.6043H15V19.5835H2V3.91683H22V19.5835ZM10.29 9.50787C10.29 9.0638 10.4702 8.63792 10.7908 8.32391C11.1115 8.0099 11.5465 7.8335 12 7.8335C12.95 7.8335 13.71 8.58745 13.71 9.50787C13.71 10.4381 12.95 11.192 12 11.192C11.05 11.192 10.29 10.4381 10.29 9.50787ZM5.71 11.055C5.71 10.3597 6.29 9.79183 7 9.79183C7.34213 9.79183 7.67025 9.92491 7.91217 10.1618C8.15409 10.3987 8.29 10.72 8.29 11.055C8.29 11.7502 7.71 12.3083 7 12.3083C6.29 12.3083 5.71 11.7502 5.71 11.055ZM15.71 11.055C15.71 10.72 15.8459 10.3987 16.0878 10.1618C16.3298 9.92491 16.6579 9.79183 17 9.79183C17.3421 9.79183 17.6702 9.92491 17.9122 10.1618C18.1541 10.3987 18.29 10.72 18.29 11.055C18.29 11.7502 17.71 12.3083 17 12.3083C16.29 12.3083 15.71 11.7502 15.71 11.055ZM20 14.8247V15.6668H16H14H10H8H4V14.8247C4 13.9043 5.55 13.1504 7 13.1504C7.55 13.1504 8.11 13.2581 8.6 13.4441C9.35 12.7685 10.7 12.3083 12 12.3083C13.3 12.3083 14.65 12.7685 15.4 13.4441C15.89 13.2581 16.45 13.1504 17 13.1504C18.45 13.1504 20 13.9043 20 14.8247Z" fill="white"/>
</g>
<defs>
<clipPath id="clip0_542_6149">
<rect width="24" height="23.5" fill="white"/>
</clipPath>
</defs>
</svg>
