<svg width="44" height="44" viewBox="0 0 44 44" fill="none" xmlns="http://www.w3.org/2000/svg">
<path d="M20.5 7.5V0H23.5V7.5H20.5ZM33.3 12.8L31.2 10.7L36.5 5.35L38.6 7.5L33.3 12.8ZM36.5 23.5V20.5H44V23.5H36.5ZM20.5 44V36.5H23.5V44H20.5ZM10.65 12.75L5.4 7.5L7.5 5.4L12.8 10.7L10.65 12.75ZM36.55 38.6L31.2 33.3L33.25 31.25L38.65 36.45L36.55 38.6ZM0 23.5V20.5H7.5V23.5H0ZM7.55 38.6L5.4 36.5L10.65 31.25L11.75 32.25L12.85 33.3L7.55 38.6ZM22 34C18.6667 34 15.8333 32.8333 13.5 30.5C11.1667 28.1667 10 25.3333 10 22C10 18.6667 11.1667 15.8333 13.5 13.5C15.8333 11.1667 18.6667 10 22 10C25.3333 10 28.1667 11.1667 30.5 13.5C32.8333 15.8333 34 18.6667 34 22C34 25.3333 32.8333 28.1667 30.5 30.5C28.1667 32.8333 25.3333 34 22 34ZM22 31C24.5 31 26.625 30.125 28.375 28.375C30.125 26.625 31 24.5 31 22C31 19.5 30.125 17.375 28.375 15.625C26.625 13.875 24.5 13 22 13C19.5 13 17.375 13.875 15.625 15.625C13.875 17.375 13 19.5 13 22C13 24.5 13.875 26.625 15.625 28.375C17.375 30.125 19.5 31 22 31Z" fill="black" fill-opacity="0.8"/>
</svg>
