<svg width="118" height="24" viewBox="0 0 118 24" fill="none" xmlns="http://www.w3.org/2000/svg">
<path d="M51.5753 11.1293H50.0241C49.9645 10.7978 49.8535 10.5062 49.6911 10.2543C49.5286 10.0024 49.3298 9.78859 49.0945 9.61293C48.8591 9.43726 48.5956 9.30469 48.304 9.2152C48.0156 9.12571 47.709 9.08097 47.3842 9.08097C46.7976 9.08097 46.2723 9.22846 45.8082 9.52344C45.3475 9.81842 44.983 10.2509 44.7145 10.821C44.4493 11.3911 44.3168 12.0871 44.3168 12.9091C44.3168 13.7377 44.4493 14.437 44.7145 15.0071C44.983 15.5772 45.3492 16.008 45.8132 16.2997C46.2772 16.5914 46.7992 16.7372 47.3793 16.7372C47.7008 16.7372 48.0057 16.6941 48.294 16.608C48.5857 16.5185 48.8492 16.3875 49.0845 16.2152C49.3198 16.0429 49.5187 15.8324 49.6811 15.5838C49.8468 15.3319 49.9612 15.0436 50.0241 14.7188L51.5753 14.7237C51.4924 15.2242 51.3317 15.6849 51.093 16.1058C50.8577 16.5234 50.5545 16.8847 50.1832 17.1896C49.8153 17.4912 49.3944 17.7249 48.9205 17.8906C48.4465 18.0563 47.9295 18.1392 47.3693 18.1392C46.4877 18.1392 45.7022 17.9304 45.0128 17.5128C44.3234 17.0919 43.7798 16.4903 43.3821 15.7081C42.9877 14.9259 42.7905 13.9929 42.7905 12.9091C42.7905 11.822 42.9893 10.889 43.3871 10.1101C43.7848 9.32789 44.3284 8.72798 45.0178 8.31037C45.7071 7.88944 46.491 7.67898 47.3693 7.67898C47.9096 7.67898 48.4134 7.75687 48.8807 7.91264C49.3513 8.0651 49.7739 8.29048 50.1484 8.58878C50.523 8.88376 50.8329 9.24503 51.0781 9.67258C51.3234 10.0968 51.4891 10.5824 51.5753 11.1293ZM56.5108 18.1541C55.7949 18.1541 55.1702 17.9901 54.6365 17.6619C54.1029 17.3338 53.6886 16.8748 53.3936 16.2848C53.0987 15.6948 52.9512 15.0054 52.9512 14.2166C52.9512 13.4245 53.0987 12.7318 53.3936 12.1385C53.6886 11.5452 54.1029 11.0845 54.6365 10.7564C55.1702 10.4283 55.7949 10.2642 56.5108 10.2642C57.2267 10.2642 57.8515 10.4283 58.3851 10.7564C58.9187 11.0845 59.333 11.5452 59.628 12.1385C59.923 12.7318 60.0705 13.4245 60.0705 14.2166C60.0705 15.0054 59.923 15.6948 59.628 16.2848C59.333 16.8748 58.9187 17.3338 58.3851 17.6619C57.8515 17.9901 57.2267 18.1541 56.5108 18.1541ZM56.5158 16.9062C56.9798 16.9062 57.3643 16.7836 57.6692 16.5384C57.9741 16.2931 58.1995 15.9666 58.3453 15.5589C58.4945 15.1513 58.5691 14.7022 58.5691 14.2116C58.5691 13.7244 58.4945 13.277 58.3453 12.8693C58.1995 12.4583 57.9741 12.1286 57.6692 11.88C57.3643 11.6314 56.9798 11.5071 56.5158 11.5071C56.0485 11.5071 55.6607 11.6314 55.3525 11.88C55.0475 12.1286 54.8205 12.4583 54.6713 12.8693C54.5255 13.277 54.4526 13.7244 54.4526 14.2116C54.4526 14.7022 54.5255 15.1513 54.6713 15.5589C54.8205 15.9666 55.0475 16.2931 55.3525 16.5384C55.6607 16.7836 56.0485 16.9062 56.5158 16.9062ZM61.7298 18V10.3636H63.1566V11.6065H63.2511C63.4102 11.1856 63.6703 10.8575 64.0316 10.6222C64.3929 10.3835 64.8254 10.2642 65.3292 10.2642C65.8396 10.2642 66.2672 10.3835 66.6119 10.6222C66.9599 10.8608 67.2167 11.1889 67.3825 11.6065H67.462C67.6443 11.1989 67.9343 10.8741 68.332 10.6321C68.7298 10.3868 69.2037 10.2642 69.7539 10.2642C70.4466 10.2642 71.0117 10.4813 71.4492 10.9155C71.89 11.3497 72.1104 12.0043 72.1104 12.8793V18H70.6239V13.0185C70.6239 12.5014 70.4831 12.1269 70.2013 11.8949C69.9196 11.6629 69.5832 11.5469 69.1921 11.5469C68.7082 11.5469 68.332 11.696 68.0636 11.9943C67.7951 12.2893 67.6609 12.6688 67.6609 13.1328V18H66.1793V12.924C66.1793 12.5097 66.0501 12.1766 65.7915 11.9247C65.533 11.6728 65.1966 11.5469 64.7823 11.5469C64.5006 11.5469 64.2404 11.6214 64.0018 11.7706C63.7665 11.9164 63.5759 12.1203 63.43 12.3821C63.2875 12.6439 63.2163 12.9472 63.2163 13.2919V18H61.7298ZM74.1028 20.8636V10.3636H75.5545V11.6016H75.6788C75.765 11.4425 75.8893 11.2585 76.0517 11.0497C76.2141 10.8409 76.4395 10.6586 76.7278 10.5028C77.0162 10.3438 77.3973 10.2642 77.8713 10.2642C78.4877 10.2642 79.0379 10.42 79.5218 10.7315C80.0057 11.0431 80.3852 11.4922 80.6603 12.0788C80.9387 12.6655 81.0779 13.3714 81.0779 14.1967C81.0779 15.022 80.9404 15.7296 80.6653 16.3196C80.3902 16.9062 80.0124 17.3587 79.5318 17.6768C79.0512 17.9917 78.5027 18.1491 77.8862 18.1491C77.4222 18.1491 77.0427 18.0713 76.7477 17.9155C76.456 17.7597 76.2273 17.5774 76.0616 17.3686C75.8959 17.1598 75.7683 16.9742 75.6788 16.8118H75.5893V20.8636H74.1028ZM75.5595 14.1818C75.5595 14.7187 75.6374 15.1894 75.7931 15.5938C75.9489 15.9981 76.1743 16.3146 76.4693 16.5433C76.7643 16.7687 77.1255 16.8814 77.5531 16.8814C77.9972 16.8814 78.3684 16.7637 78.6667 16.5284C78.965 16.2898 79.1904 15.9666 79.3429 15.5589C79.4986 15.1513 79.5765 14.6922 79.5765 14.1818C79.5765 13.678 79.5003 13.2256 79.3478 12.8246C79.1987 12.4235 78.9733 12.107 78.6717 11.875C78.3734 11.643 78.0005 11.527 77.5531 11.527C77.1222 11.527 76.7576 11.638 76.4593 11.8601C76.1644 12.0821 75.9406 12.392 75.7882 12.7898C75.6357 13.1875 75.5595 13.6515 75.5595 14.1818ZM84.2299 7.81818V18H82.7434V7.81818H84.2299ZM88.4521 18.169C87.9682 18.169 87.5307 18.0795 87.1396 17.9006C86.7485 17.7183 86.4386 17.4548 86.2099 17.1101C85.9845 16.7654 85.8718 16.3428 85.8718 15.8423C85.8718 15.4115 85.9547 15.0568 86.1204 14.7784C86.2861 14.5 86.5098 14.2796 86.7915 14.1172C87.0733 13.9548 87.3881 13.8321 87.7362 13.7493C88.0842 13.6664 88.4388 13.6035 88.8001 13.5604C89.2575 13.5073 89.6287 13.4643 89.9137 13.4311C90.1987 13.3946 90.4059 13.3366 90.5352 13.2571C90.6644 13.1776 90.729 13.0483 90.729 12.8693V12.8345C90.729 12.4003 90.6064 12.0639 90.3612 11.8253C90.1192 11.5866 89.7579 11.4673 89.2773 11.4673C88.7769 11.4673 88.3825 11.5784 88.0941 11.8004C87.8091 12.0192 87.6119 12.2628 87.5025 12.5312L86.1055 12.2131C86.2712 11.7491 86.5131 11.3745 86.8313 11.0895C87.1528 10.8011 87.5224 10.5923 87.94 10.4631C88.3576 10.3305 88.7968 10.2642 89.2575 10.2642C89.5624 10.2642 89.8855 10.3007 90.2269 10.3736C90.5716 10.4432 90.8931 10.5724 91.1914 10.7614C91.493 10.9503 91.7399 11.2204 91.9322 11.5717C92.1244 11.9197 92.2205 12.3722 92.2205 12.929V18H90.7688V16.956H90.7092C90.613 17.1482 90.4689 17.3371 90.2766 17.5227C90.0844 17.7083 89.8375 17.8625 89.5359 17.9851C89.2343 18.1077 88.873 18.169 88.4521 18.169ZM88.7752 16.9759C89.1862 16.9759 89.5375 16.8946 89.8292 16.7322C90.1242 16.5698 90.3479 16.3577 90.5004 16.0959C90.6561 15.8307 90.734 15.5473 90.734 15.2457V14.2614C90.681 14.3144 90.5782 14.3641 90.4258 14.4105C90.2766 14.4536 90.1059 14.4917 89.9137 14.5249C89.7215 14.5547 89.5342 14.5829 89.3519 14.6094C89.1696 14.6326 89.0172 14.6525 88.8945 14.669C88.6062 14.7055 88.3427 14.7668 88.104 14.853C87.8687 14.9392 87.6798 15.0634 87.5373 15.2259C87.3981 15.3849 87.3285 15.5971 87.3285 15.8622C87.3285 16.2301 87.4644 16.5085 87.7362 16.6974C88.0079 16.883 88.3543 16.9759 88.7752 16.9759ZM94.2005 18V10.3636H95.687V18H94.2005ZM94.9512 9.18537C94.6926 9.18537 94.4706 9.09919 94.285 8.92685C94.1027 8.75118 94.0115 8.54238 94.0115 8.30043C94.0115 8.05516 94.1027 7.84635 94.285 7.67401C94.4706 7.49834 94.6926 7.41051 94.9512 7.41051C95.2097 7.41051 95.4301 7.49834 95.6124 7.67401C95.798 7.84635 95.8908 8.05516 95.8908 8.30043C95.8908 8.54238 95.798 8.75118 95.6124 8.92685C95.4301 9.09919 95.2097 9.18537 94.9512 9.18537ZM99.1733 13.4659V18H97.6868V10.3636H99.1136V11.6065H99.2081C99.3838 11.2022 99.6589 10.8774 100.033 10.6321C100.411 10.3868 100.887 10.2642 101.46 10.2642C101.981 10.2642 102.436 10.3736 102.827 10.5923C103.219 10.8078 103.522 11.1293 103.737 11.5568C103.953 11.9844 104.06 12.513 104.06 13.1428V18H102.574V13.3217C102.574 12.7682 102.43 12.3357 102.141 12.0241C101.853 11.7093 101.457 11.5518 100.953 11.5518C100.608 11.5518 100.302 11.6264 100.033 11.7756C99.7682 11.9247 99.5578 12.1435 99.402 12.4318C99.2495 12.7169 99.1733 13.0616 99.1733 13.4659ZM109.619 10.3636V11.5568H105.447V10.3636H109.619ZM106.566 8.53409H108.053V15.7578C108.053 16.0462 108.096 16.2633 108.182 16.4091C108.268 16.5516 108.379 16.6494 108.515 16.7024C108.654 16.7521 108.805 16.777 108.967 16.777C109.087 16.777 109.191 16.7687 109.281 16.7521C109.37 16.7356 109.44 16.7223 109.489 16.7124L109.758 17.9403C109.672 17.9735 109.549 18.0066 109.39 18.0398C109.231 18.0762 109.032 18.0961 108.793 18.0994C108.402 18.1061 108.038 18.0365 107.7 17.8906C107.362 17.7448 107.088 17.5194 106.879 17.2145C106.67 16.9096 106.566 16.5268 106.566 16.0661V8.53409ZM116.862 12.228L115.515 12.4666C115.459 12.2943 115.369 12.1302 115.246 11.9744C115.127 11.8187 114.965 11.6911 114.759 11.5916C114.554 11.4922 114.297 11.4425 113.989 11.4425C113.568 11.4425 113.216 11.5369 112.935 11.7259C112.653 11.9115 112.512 12.1518 112.512 12.4467C112.512 12.7019 112.607 12.9074 112.795 13.0632C112.984 13.219 113.289 13.3466 113.71 13.446L114.923 13.7244C115.626 13.8868 116.15 14.1371 116.494 14.4751C116.839 14.8132 117.011 15.2524 117.011 15.7926C117.011 16.25 116.879 16.6577 116.614 17.0156C116.352 17.3703 115.986 17.6487 115.515 17.8509C115.048 18.053 114.506 18.1541 113.889 18.1541C113.034 18.1541 112.336 17.9718 111.796 17.6072C111.256 17.2393 110.924 16.7173 110.802 16.0412L112.239 15.8224C112.328 16.197 112.512 16.4804 112.79 16.6726C113.069 16.8615 113.432 16.956 113.879 16.956C114.366 16.956 114.756 16.8549 115.048 16.6527C115.339 16.4472 115.485 16.197 115.485 15.902C115.485 15.6634 115.396 15.4628 115.217 15.3004C115.041 15.138 114.771 15.0154 114.406 14.9325L113.114 14.6491C112.401 14.4867 111.874 14.2282 111.533 13.8736C111.195 13.5189 111.026 13.0698 111.026 12.5263C111.026 12.0755 111.152 11.6811 111.403 11.343C111.655 11.005 112.003 10.7415 112.447 10.5526C112.892 10.3603 113.4 10.2642 113.974 10.2642C114.799 10.2642 115.449 10.4432 115.923 10.8011C116.397 11.1558 116.71 11.6314 116.862 12.228Z" fill="white"/>
<path d="M13 8C13 9.06087 12.5786 10.0783 11.8284 10.8284C11.0783 11.5786 10.0609 12 9 12C7.93913 12 6.92172 11.5786 6.17157 10.8284C5.42143 10.0783 5 9.06087 5 8C5 6.93913 5.42143 5.92172 6.17157 5.17157C6.92172 4.42143 7.93913 4 9 4C10.0609 4 11.0783 4.42143 11.8284 5.17157C12.5786 5.92172 13 6.93913 13 8ZM17 18V20H1V18C1 15.79 4.58 14 9 14C13.42 14 17 15.79 17 18ZM20.5 14.5V16H19V14.5H20.5ZM18.5 9.5H17V9C17 8.20435 17.3161 7.44129 17.8787 6.87868C18.4413 6.31607 19.2044 6 20 6C20.7956 6 21.5587 6.31607 22.1213 6.87868C22.6839 7.44129 23 8.20435 23 9C23 9.97 22.5 10.88 21.71 11.41L21.41 11.6C20.84 12 20.5 12.61 20.5 13.3V13.5H19V13.3C19 12.11 19.6 11 20.59 10.35L20.88 10.16C21.27 9.9 21.5 9.47 21.5 9C21.5 8.60218 21.342 8.22064 21.0607 7.93934C20.7794 7.65804 20.3978 7.5 20 7.5C19.6022 7.5 19.2206 7.65804 18.9393 7.93934C18.658 8.22064 18.5 8.60218 18.5 9V9.5Z" fill="white"/>
</svg>
