<svg width="12" height="12" viewBox="0 0 12 12" fill="none" xmlns="http://www.w3.org/2000/svg">
<path d="M4.695 8.4H7.29C7.43 8.4 7.5325 8.3525 7.5975 8.2575C7.6625 8.1625 7.695 8.045 7.695 7.905V6.81H6.795V7.5H5.19V4.5H6.795V5.205H7.695V4.11C7.695 3.97 7.6625 3.85 7.5975 3.75C7.5325 3.65 7.43 3.6 7.29 3.6H4.695C4.555 3.6 4.4525 3.65 4.3875 3.75C4.3225 3.85 4.29 3.97 4.29 4.11V7.905C4.29 8.045 4.3225 8.1625 4.3875 8.2575C4.4525 8.3525 4.555 8.4 4.695 8.4ZM6 12C5.18 12 4.405 11.8425 3.675 11.5275C2.945 11.2125 2.3075 10.7825 1.7625 10.2375C1.2175 9.6925 0.7875 9.055 0.4725 8.325C0.1575 7.595 0 6.82 0 6C0 5.17 0.1575 4.39 0.4725 3.66C0.7875 2.93 1.2175 2.295 1.7625 1.755C2.3075 1.215 2.945 0.7875 3.675 0.4725C4.405 0.1575 5.18 0 6 0C6.83 0 7.61 0.1575 8.34 0.4725C9.07 0.7875 9.705 1.215 10.245 1.755C10.785 2.295 11.2125 2.93 11.5275 3.66C11.8425 4.39 12 5.17 12 6C12 6.82 11.8425 7.595 11.5275 8.325C11.2125 9.055 10.785 9.6925 10.245 10.2375C9.705 10.7825 9.07 11.2125 8.34 11.5275C7.61 11.8425 6.83 12 6 12ZM6 11.1C7.42 11.1 8.625 10.6025 9.615 9.6075C10.605 8.6125 11.1 7.41 11.1 6C11.1 4.58 10.605 3.375 9.615 2.385C8.625 1.395 7.42 0.9 6 0.9C4.59 0.9 3.3875 1.395 2.3925 2.385C1.3975 3.375 0.9 4.58 0.9 6C0.9 7.41 1.3975 8.6125 2.3925 9.6075C3.3875 10.6025 4.59 11.1 6 11.1Z" fill="black"/>
</svg>
