<svg width="84" height="84" viewBox="0 0 84 84" fill="none" xmlns="http://www.w3.org/2000/svg">
<path d="M79.4999 33.6668H62.8333V25.3335L44.0833 17.8335V8.66683H54.4999V0.333496H39.9166V17.8335L21.1666 25.3335V33.6668H4.49992C2.20825 33.6668 0.333252 35.5418 0.333252 37.8335V83.6668H33.6666V62.8335H50.3333V83.6668H83.6666V37.8335C83.6666 35.5418 81.7916 33.6668 79.4999 33.6668ZM25.3333 75.3335H8.66659V62.8335H25.3333V75.3335ZM25.3333 54.5002H8.66659V42.0002H25.3333V54.5002ZM41.9999 25.3335C44.2916 25.3335 46.1666 27.2085 46.1666 29.5002C46.1666 31.7918 44.2916 33.6668 41.9999 33.6668C39.7083 33.6668 37.8333 31.7918 37.8333 29.5002C37.8333 27.2085 39.7083 25.3335 41.9999 25.3335ZM50.3333 54.5002H33.6666V42.0002H50.3333V54.5002ZM75.3333 75.3335H58.6666V62.8335H75.3333V75.3335ZM75.3333 54.5002H58.6666V42.0002H75.3333V54.5002Z" fill="#001A72"/>
</svg>
