<svg width="86" height="84" viewBox="0 0 86 84" fill="none" xmlns="http://www.w3.org/2000/svg">
<path d="M77.3333 62.8335C79.5435 62.8335 81.6631 61.9555 83.2259 60.3927C84.7887 58.8299 85.6667 56.7103 85.6667 54.5002V8.66683C85.6667 6.45669 84.7887 4.33708 83.2259 2.77427C81.6631 1.21147 79.5435 0.333496 77.3333 0.333496H33.4167C34.875 2.87516 35.6667 5.75016 35.6667 8.66683H77.3333V54.5002H39.8333V62.8335H77.3333ZM56.5 21.1668V29.5002H31.5V83.6668H23.1667V58.6668H14.8333V83.6668H6.5V50.3335H0.25V29.5002C0.25 27.29 1.12797 25.1704 2.69078 23.6076C4.25358 22.0448 6.3732 21.1668 8.58333 21.1668H56.5ZM27.3333 8.66683C27.3333 10.877 26.4554 12.9966 24.8926 14.5594C23.3298 16.1222 21.2101 17.0002 19 17.0002C16.7899 17.0002 14.6702 16.1222 13.1074 14.5594C11.5446 12.9966 10.6667 10.877 10.6667 8.66683C10.6667 6.45669 11.5446 4.33708 13.1074 2.77427C14.6702 1.21147 16.7899 0.333496 19 0.333496C21.2101 0.333496 23.3298 1.21147 24.8926 2.77427C26.4554 4.33708 27.3333 6.45669 27.3333 8.66683Z" fill="#001A72"/>
</svg>
