<svg width="64" height="64" viewBox="0 0 64 64" fill="none" xmlns="http://www.w3.org/2000/svg">
<path d="M11.1995 38.5601V35.1996C11.1995 34.3196 11.9116 33.5998 12.7994 33.5998H30.3994V38.5596C30.9117 38.4558 31.4474 38.3995 31.9993 38.3995C32.5433 38.3995 33.0791 38.4553 33.5991 38.5596L33.5997 33.5998H51.9997C52.8797 33.5998 53.5995 34.3196 53.5995 35.1996V38.5596C54.1118 38.4558 54.6475 38.3995 55.1994 38.3995C55.7435 38.3995 56.2792 38.4553 56.7992 38.5596L56.7998 35.1996C56.7998 32.5518 54.6397 30.3993 51.9995 30.3993L33.5995 30.3999V25.5996H30.3998V30.3999H12.7998C10.1519 30.3999 7.99951 32.5516 7.99951 35.2002V38.5602C8.51178 38.4564 9.0475 38.4 9.59937 38.4C10.1435 38.4 10.6797 38.4558 11.1992 38.5602L11.1995 38.5601Z" fill="white"/>
<path d="M36.5679 52.9514C35.2716 53.8632 33.6958 54.3996 31.9998 54.3996C30.2955 54.3996 28.7196 53.8633 27.4239 52.9514C24.5518 53.5837 22.3999 56.1434 22.3999 59.1991V62.3988C22.3999 63.2789 23.112 63.9987 23.9998 63.9987H39.9998C40.8798 63.9987 41.5996 63.2788 41.5996 62.3988V59.1991C41.5996 56.1433 39.4395 53.5836 36.5678 52.9514H36.5679Z" fill="white"/>
<path d="M59.5437 53.1043C58.2875 53.9207 56.7998 54.4006 55.1994 54.4006C53.4315 54.4006 51.7992 53.8164 50.4711 52.8403C47.2875 53.2003 44.7998 55.9123 44.7998 59.2003V62.4C44.7998 63.2801 45.5119 63.9999 46.3997 63.9999H62.3997C63.2797 63.9999 63.9995 63.28 63.9995 62.4V59.2003C63.9995 56.3526 62.1195 53.9286 59.5437 53.1043V53.1043Z" fill="white"/>
<path d="M14.168 52.9514C12.8722 53.8632 11.2959 54.3996 9.59986 54.3996C7.89557 54.3996 6.31971 53.8633 5.024 52.9514C2.15186 53.5837 0 56.1434 0 59.1991V62.3988C0 63.2789 0.712058 63.9987 1.59986 63.9987H17.5999C18.4799 63.9987 19.1997 63.2788 19.1997 62.3988V59.1991C19.1997 56.1433 17.0401 53.5836 14.1679 52.9514H14.168Z" fill="white"/>
<path d="M36.7995 46.4C36.7995 49.0507 34.6505 51.1997 31.9993 51.1997C29.348 51.1997 27.199 49.0507 27.199 46.4C27.199 43.7487 29.348 41.5997 31.9993 41.5997C34.6505 41.5997 36.7995 43.7487 36.7995 46.4Z" fill="white"/>
<path d="M23.9994 22.4H39.9994C40.8794 22.4 41.5993 21.6802 41.5993 20.8002V17.6005C41.5993 14.5446 39.4391 11.9845 36.5674 11.3527C35.2711 12.264 33.6953 12.8003 31.9993 12.8003C30.295 12.8003 28.7191 12.264 27.4234 11.3522C24.5513 11.9839 22.3994 14.5442 22.3994 17.5999V20.7996C22.3994 21.6802 23.1115 22.4 23.9993 22.4H23.9994Z" fill="white"/>
<path d="M36.7995 4.80028C36.7995 7.451 34.6505 9.6 31.9993 9.6C29.348 9.6 27.199 7.451 27.199 4.80028C27.199 2.149 29.348 0 31.9993 0C34.6505 0 36.7995 2.149 36.7995 4.80028Z" fill="white"/>
<path d="M59.9994 46.4C59.9994 49.0507 57.8504 51.1997 55.1991 51.1997C52.5484 51.1997 50.3994 49.0507 50.3994 46.4C50.3994 43.7487 52.5484 41.5997 55.1991 41.5997C57.8504 41.5997 59.9994 43.7487 59.9994 46.4Z" fill="white"/>
<path d="M14.3993 46.4C14.3993 49.0507 12.2503 51.1997 9.59903 51.1997C6.94832 51.1997 4.79932 49.0507 4.79932 46.4C4.79932 43.7487 6.94832 41.5997 9.59903 41.5997C12.2503 41.5997 14.3993 43.7487 14.3993 46.4Z" fill="white"/>
</svg>
