<svg width="48" height="48" viewBox="0 0 48 48" fill="none" xmlns="http://www.w3.org/2000/svg">
<rect width="48" height="48" rx="24" fill="#4B1A85" fill-opacity="0.1"/>
<path d="M29.6833 21.6666V21.8166H29.8333H34.5C35.0588 21.8166 35.5167 22.2745 35.5167 22.8333V35.5166H26.4833V29.8333V29.6833H26.3333H21.6667H21.5167V29.8333V35.5166H12.4833V22.8333C12.4833 22.2745 12.9412 21.8166 13.5 21.8166H18.1667H18.3167V21.6666V19.4349L23.4724 17.3726L23.5667 17.3349V17.2333V12.4833H27.35V14.5166H24.5833H24.4333V14.6666V17.2333V17.3349L24.5276 17.3726L29.6833 19.4349V21.6666ZM19.3333 33.4833H19.4833V33.3333V29.8333V29.6833H19.3333H14.6667H14.5167V29.8333V33.3333V33.4833H14.6667H19.3333ZM19.3333 27.65H19.4833V27.5V24V23.85H19.3333H14.6667H14.5167V24V27.5V27.65H14.6667H19.3333ZM26.3333 27.65H26.4833V27.5V24V23.85H26.3333H21.6667H21.5167V24V27.5V27.65H21.6667H26.3333ZM33.3333 33.4833H33.4833V33.3333V29.8333V29.6833H33.3333H28.6667H28.5167V29.8333V33.3333V33.4833H28.6667H33.3333ZM33.3333 27.65H33.4833V27.5V24V23.85H33.3333H28.6667H28.5167V24V27.5V27.65H28.6667H33.3333ZM25.3167 20.5C25.3167 19.7755 24.7245 19.1833 24 19.1833C23.2755 19.1833 22.6833 19.7755 22.6833 20.5C22.6833 21.2245 23.2755 21.8166 24 21.8166C24.7245 21.8166 25.3167 21.2245 25.3167 20.5Z" fill="#1C023B" stroke="#EDE8F3" stroke-width="0.3"/>
</svg>
