<svg width="64" height="64" viewBox="0 0 64 64" fill="none" xmlns="http://www.w3.org/2000/svg">
<path d="M11.2 38.5601V35.1996C11.2 34.3196 11.9121 33.5998 12.7999 33.5998H30.3999V38.5596C30.9122 38.4558 31.4479 38.3995 31.9997 38.3995C32.5438 38.3995 33.0795 38.4553 33.5996 38.5596L33.6002 33.5998H52.0002C52.8802 33.5998 53.6 34.3196 53.6 35.1996V38.5596C54.1123 38.4558 54.648 38.3995 55.1999 38.3995C55.744 38.3995 56.2797 38.4553 56.7997 38.5596L56.8003 35.1996C56.8003 32.5518 54.6401 30.3993 52 30.3993L33.6 30.3999V25.5996H30.4003V30.3999H12.8003C10.1524 30.3999 8 32.5516 8 35.2002V38.5602C8.51227 38.4564 9.04798 38.4 9.59986 38.4C10.1439 38.4 10.6802 38.4558 11.1997 38.5602L11.2 38.5601Z" fill="#010D31" fill-opacity="0.8"/>
<path d="M36.5684 52.9514C35.2721 53.8632 33.6962 54.3996 32.0002 54.3996C30.296 54.3996 28.7201 53.8633 27.4244 52.9514C24.5522 53.5837 22.4004 56.1434 22.4004 59.1991V62.3988C22.4004 63.2789 23.1124 63.9987 24.0002 63.9987H40.0002C40.8803 63.9987 41.6001 63.2788 41.6001 62.3988V59.1991C41.6001 56.1433 39.44 53.5836 36.5683 52.9514H36.5684Z" fill="#010D31" fill-opacity="0.8"/>
<path d="M59.5441 53.1043C58.288 53.9207 56.8003 54.4006 55.1999 54.4006C53.432 54.4006 51.7997 53.8164 50.4716 52.8403C47.288 53.2003 44.8003 55.9123 44.8003 59.2003V62.4C44.8003 63.2801 45.5124 63.9999 46.4002 63.9999H62.4002C63.2802 63.9999 64 63.28 64 62.4V59.2003C64 56.3526 62.12 53.9286 59.5441 53.1043V53.1043Z" fill="#010D31" fill-opacity="0.8"/>
<path d="M14.1685 52.9514C12.8727 53.8632 11.2963 54.3996 9.60035 54.3996C7.89606 54.3996 6.3202 53.8633 5.02449 52.9514C2.15235 53.5837 0.000488281 56.1434 0.000488281 59.1991V62.3988C0.000488281 63.2789 0.712546 63.9987 1.60035 63.9987H17.6003C18.4804 63.9987 19.2002 63.2788 19.2002 62.3988V59.1991C19.2002 56.1433 17.0406 53.5836 14.1683 52.9514H14.1685Z" fill="#010D31" fill-opacity="0.8"/>
<path d="M36.8 46.4C36.8 49.0507 34.651 51.1997 31.9997 51.1997C29.3485 51.1997 27.1995 49.0507 27.1995 46.4C27.1995 43.7487 29.3485 41.5997 31.9997 41.5997C34.651 41.5997 36.8 43.7487 36.8 46.4Z" fill="#010D31" fill-opacity="0.8"/>
<path d="M23.9999 22.4H39.9999C40.8799 22.4 41.5998 21.6802 41.5998 20.8002V17.6005C41.5998 14.5446 39.4396 11.9845 36.5679 11.3527C35.2716 12.264 33.6958 12.8003 31.9998 12.8003C30.2955 12.8003 28.7196 12.264 27.4239 11.3522C24.5518 11.9839 22.3999 14.5442 22.3999 17.5999V20.7996C22.3999 21.6802 23.112 22.4 23.9998 22.4H23.9999Z" fill="#010D31" fill-opacity="0.8"/>
<path d="M36.8 4.80028C36.8 7.451 34.651 9.6 31.9997 9.6C29.3485 9.6 27.1995 7.451 27.1995 4.80028C27.1995 2.149 29.3485 0 31.9997 0C34.651 0 36.8 2.149 36.8 4.80028Z" fill="#010D31" fill-opacity="0.8"/>
<path d="M59.9999 46.4C59.9999 49.0507 57.8509 51.1997 55.1996 51.1997C52.5489 51.1997 50.3999 49.0507 50.3999 46.4C50.3999 43.7487 52.5489 41.5997 55.1996 41.5997C57.8509 41.5997 59.9999 43.7487 59.9999 46.4Z" fill="#010D31" fill-opacity="0.8"/>
<path d="M14.3998 46.4C14.3998 49.0507 12.2508 51.1997 9.59952 51.1997C6.9488 51.1997 4.7998 49.0507 4.7998 46.4C4.7998 43.7487 6.9488 41.5997 9.59952 41.5997C12.2508 41.5997 14.3998 43.7487 14.3998 46.4Z" fill="#010D31" fill-opacity="0.8"/>
</svg>
