<svg width="82" height="27" viewBox="0 0 82 27" fill="none" xmlns="http://www.w3.org/2000/svg">
<path d="M2.77557 15.603C3.00544 15.8962 3.23533 16.1893 3.4652 16.4804C3.51582 16.5436 3.52216 16.6048 3.4842 16.6765C3.39984 16.8368 3.31759 16.9971 3.23744 17.1594C3.02655 17.5876 2.8262 18.0199 2.60687 18.4438C2.43393 18.7791 2.29262 19.1271 2.25044 19.4962C2.19139 20.0129 2.22514 20.5317 2.41916 21.0231C2.74395 21.8435 3.27329 22.4951 4.04728 22.9338C4.20756 23.0245 4.20334 23.0224 4.30668 22.8642C4.78541 22.1345 5.26417 21.4048 5.74712 20.6772C5.90529 20.4389 6.06557 20.1985 6.22164 19.958L2.77557 15.603Z" fill="url(#paint0_linear_79_232)"/>
<path d="M7.26573 14.7915C7.03163 14.279 6.72793 13.796 6.439 13.3089C6.12688 12.7837 5.79367 12.2691 5.471 11.7503C5.15676 11.2442 4.84253 10.738 4.52829 10.2319C4.20984 9.72151 3.89138 9.21114 3.57293 8.69866C3.31352 8.27898 3.06044 7.85718 2.80104 7.4375C2.50578 6.96087 2.20842 6.48635 1.91106 6.01184C1.72336 5.71236 1.53779 5.41289 1.34587 5.10498C1.31634 5.12185 1.30369 5.12607 1.29526 5.13662C1.00844 5.50147 0.774318 5.89795 0.58662 6.32185C0.392595 6.75841 0.234423 7.20973 0.164827 7.68425C0.103667 8.09971 0.038295 8.51729 0.0129874 8.93697C-0.0165382 9.39462 0.00243945 9.85648 0.0889071 10.3099C0.158503 10.6663 0.215443 11.027 0.297693 11.3813C0.348308 11.6027 0.417926 11.8199 0.504393 12.0308C0.671002 12.44 0.839699 12.8491 1.03794 13.2435C1.28891 13.7412 1.63689 14.1756 1.98698 14.6101C2.25271 14.9391 2.51422 15.2723 2.77573 15.6034L6.20072 19.9943C6.51284 19.5134 6.83127 18.9904 7.0738 18.4674C7.28681 18.0097 7.45553 17.5394 7.55043 17.0375C7.69806 16.2509 7.59051 15.5001 7.26573 14.7915Z" fill="url(#paint1_linear_79_232)"/>
<path d="M15.7315 8.57681C15.7167 8.27944 15.6766 8.02004 15.6239 7.72268C15.6155 7.67839 15.6049 7.6341 15.5965 7.5877C15.5712 7.43797 15.5227 7.24816 15.4805 7.10475C15.3223 6.57962 15.1199 6.07136 14.8309 5.60106C14.7086 5.40281 14.5694 5.21301 14.426 5C14.135 5.46397 13.8629 5.88998 13.5951 6.32021C13.2682 6.84535 12.9476 7.3747 12.6228 7.90194C12.3634 8.32162 12.1019 8.74131 11.8425 9.16099C11.5304 9.66504 11.2183 10.1691 10.904 10.671C10.613 11.1371 10.3093 11.5968 10.0288 12.0693L12.2432 16.5782C12.2348 16.5318 12.2432 16.4854 12.2854 16.4348C12.4584 16.226 12.6186 16.0088 12.7852 15.7958C13.2218 15.2411 13.6605 14.6865 14.097 14.1318C14.4471 13.6847 14.7402 13.1997 14.9659 12.6809C15.1283 12.3076 15.2886 11.928 15.3983 11.5357C15.5185 11.1076 15.5775 10.6626 15.664 10.2239C15.7715 9.6798 15.7589 9.12725 15.7315 8.57681Z" fill="url(#paint2_linear_79_232)"/>
<g opacity="0.55" filter="url(#filter0_d_79_232)">
<path d="M12.2173 16.5449L12.6496 15.9755L10.0303 12.0718L12.2173 16.5449Z" fill="#596880"/>
</g>
<path d="M12.9372 18.0588C12.855 17.888 12.7917 17.7087 12.7095 17.5379C12.5661 17.2384 12.4163 16.9453 12.2687 16.6479C12.2582 16.6247 12.2497 16.6036 12.2455 16.5825L10.0311 12.0735C10.3116 11.6011 10.6153 11.1435 10.9063 10.6753C10.5879 11.1857 10.2525 11.6855 9.95094 12.2064C9.59875 12.8159 9.26554 13.4359 8.93865 14.0581C8.597 14.7097 8.33759 15.3931 8.19207 16.1206C8.02757 16.9495 8.15622 17.7277 8.56536 18.4447C8.92178 19.0669 9.33514 19.6553 9.72741 20.2563C10.0733 20.7857 10.4255 21.3087 10.7734 21.8338C11.0286 22.2198 11.2859 22.6078 11.5453 23.0001C11.655 22.9347 11.7583 22.8799 11.8532 22.8145C11.9608 22.7428 12.0683 22.6669 12.1675 22.5825C12.9815 21.8887 13.4814 21.0388 13.5109 19.9421C13.5235 19.4381 13.3822 18.9783 13.1882 18.5185C13.1081 18.3646 13.0132 18.2149 12.9372 18.0588Z" fill="url(#paint3_linear_79_232)"/>
<path opacity="0.3" d="M6.18469 19.9661L3.52106 16.5854L3.27222 17.0958L6.18469 19.9661Z" fill="#7F8E9B"/>
<path d="M36.448 22.376L33.946 19.874C33.334 20.042 32.71 20.126 32.074 20.126C30.91 20.126 29.848 19.856 28.888 19.316C27.928 18.764 27.166 18.002 26.602 17.03C26.05 16.046 25.774 14.942 25.774 13.718C25.774 12.494 26.05 11.396 26.602 10.424C27.166 9.44 27.928 8.678 28.888 8.138C29.848 7.586 30.91 7.31 32.074 7.31C33.25 7.31 34.318 7.586 35.278 8.138C36.238 8.678 36.994 9.434 37.546 10.406C38.098 11.378 38.374 12.482 38.374 13.718C38.374 14.918 38.11 15.998 37.582 16.958C37.054 17.918 36.328 18.674 35.404 19.226L38.572 22.376H36.448ZM27.448 13.718C27.448 14.714 27.646 15.59 28.042 16.346C28.45 17.102 29.002 17.684 29.698 18.092C30.406 18.5 31.198 18.704 32.074 18.704C32.95 18.704 33.736 18.5 34.432 18.092C35.14 17.684 35.692 17.102 36.088 16.346C36.496 15.59 36.7 14.714 36.7 13.718C36.7 12.71 36.496 11.834 36.088 11.09C35.692 10.334 35.146 9.752 34.45 9.344C33.754 8.936 32.962 8.732 32.074 8.732C31.186 8.732 30.394 8.936 29.698 9.344C29.002 9.752 28.45 10.334 28.042 11.09C27.646 11.834 27.448 12.71 27.448 13.718ZM44.2435 18.488L47.3035 10.136H49.0495L45.1795 20H43.2715L39.4015 10.136H41.1655L44.2435 18.488ZM51.5074 8.534C51.1954 8.534 50.9314 8.426 50.7154 8.21C50.4994 7.994 50.3914 7.73 50.3914 7.418C50.3914 7.106 50.4994 6.842 50.7154 6.626C50.9314 6.41 51.1954 6.302 51.5074 6.302C51.8074 6.302 52.0594 6.41 52.2634 6.626C52.4794 6.842 52.5874 7.106 52.5874 7.418C52.5874 7.73 52.4794 7.994 52.2634 8.21C52.0594 8.426 51.8074 8.534 51.5074 8.534ZM52.2994 10.136V20H50.6614V10.136H52.2994ZM56.7291 11.954C57.0531 11.39 57.5331 10.922 58.1691 10.55C58.8171 10.166 59.5671 9.974 60.4191 9.974C61.2951 9.974 62.0871 10.184 62.7951 10.604C63.5151 11.024 64.0791 11.618 64.4871 12.386C64.8951 13.142 65.0991 14.024 65.0991 15.032C65.0991 16.028 64.8951 16.916 64.4871 17.696C64.0791 18.476 63.5151 19.082 62.7951 19.514C62.0871 19.946 61.2951 20.162 60.4191 20.162C59.5791 20.162 58.8351 19.976 58.1871 19.604C57.5511 19.22 57.0651 18.746 56.7291 18.182V24.68H55.0911V10.136H56.7291V11.954ZM63.4251 15.032C63.4251 14.288 63.2751 13.64 62.9751 13.088C62.6751 12.536 62.2671 12.116 61.7511 11.828C61.2471 11.54 60.6891 11.396 60.0771 11.396C59.4771 11.396 58.9191 11.546 58.4031 11.846C57.8991 12.134 57.4911 12.56 57.1791 13.124C56.8791 13.676 56.7291 14.318 56.7291 15.05C56.7291 15.794 56.8791 16.448 57.1791 17.012C57.4911 17.564 57.8991 17.99 58.4031 18.29C58.9191 18.578 59.4771 18.722 60.0771 18.722C60.6891 18.722 61.2471 18.578 61.7511 18.29C62.2671 17.99 62.6751 17.564 62.9751 17.012C63.2751 16.448 63.4251 15.788 63.4251 15.032ZM68.8931 6.68V20H67.2551V6.68H68.8931ZM80.6848 14.69C80.6848 15.002 80.6668 15.332 80.6308 15.68H72.7468C72.8068 16.652 73.1368 17.414 73.7368 17.966C74.3488 18.506 75.0868 18.776 75.9508 18.776C76.6588 18.776 77.2468 18.614 77.7148 18.29C78.1948 17.954 78.5308 17.51 78.7228 16.958H80.4868C80.2228 17.906 79.6948 18.68 78.9028 19.28C78.1108 19.868 77.1268 20.162 75.9508 20.162C75.0148 20.162 74.1748 19.952 73.4308 19.532C72.6988 19.112 72.1228 18.518 71.7028 17.75C71.2828 16.97 71.0728 16.07 71.0728 15.05C71.0728 14.03 71.2768 13.136 71.6848 12.368C72.0928 11.6 72.6628 11.012 73.3948 10.604C74.1388 10.184 74.9908 9.974 75.9508 9.974C76.8868 9.974 77.7148 10.178 78.4348 10.586C79.1548 10.994 79.7068 11.558 80.0908 12.278C80.4868 12.986 80.6848 13.79 80.6848 14.69ZM78.9928 14.348C78.9928 13.724 78.8548 13.19 78.5788 12.746C78.3028 12.29 77.9248 11.948 77.4448 11.72C76.9768 11.48 76.4548 11.36 75.8788 11.36C75.0508 11.36 74.3428 11.624 73.7548 12.152C73.1788 12.68 72.8488 13.412 72.7648 14.348H78.9928Z" fill="#233F93"/>
<defs>
<filter id="filter0_d_79_232" x="6.03027" y="12.0718" width="10.6194" height="12.4731" filterUnits="userSpaceOnUse" color-interpolation-filters="sRGB">
<feFlood flood-opacity="0" result="BackgroundImageFix"/>
<feColorMatrix in="SourceAlpha" type="matrix" values="0 0 0 0 0 0 0 0 0 0 0 0 0 0 0 0 0 0 127 0" result="hardAlpha"/>
<feOffset dy="4"/>
<feGaussianBlur stdDeviation="2"/>
<feComposite in2="hardAlpha" operator="out"/>
<feColorMatrix type="matrix" values="0 0 0 0 0 0 0 0 0 0 0 0 0 0 0 0 0 0 0.25 0"/>
<feBlend mode="normal" in2="BackgroundImageFix" result="effect1_dropShadow_79_232"/>
<feBlend mode="normal" in="SourceGraphic" in2="effect1_dropShadow_79_232" result="shape"/>
</filter>
<linearGradient id="paint0_linear_79_232" x1="3.4419" y1="16.9255" x2="4.22288" y2="22.9943" gradientUnits="userSpaceOnUse">
<stop stop-color="#214496"/>
<stop offset="1" stop-color="#438DCA"/>
</linearGradient>
<linearGradient id="paint1_linear_79_232" x1="0.491722" y1="5.2452" x2="6.39239" y2="19.9969" gradientUnits="userSpaceOnUse">
<stop stop-color="#3484C8"/>
<stop offset="1" stop-color="#26B9EA"/>
</linearGradient>
<linearGradient id="paint2_linear_79_232" x1="15.243" y1="5" x2="11.0634" y2="15.695" gradientUnits="userSpaceOnUse">
<stop offset="0.010247" stop-color="#2BBAF3"/>
<stop offset="1" stop-color="#3A86C1"/>
</linearGradient>
<linearGradient id="paint3_linear_79_232" x1="10.8171" y1="10.6753" x2="10.8171" y2="23.0001" gradientUnits="userSpaceOnUse">
<stop stop-color="#233F93"/>
<stop offset="1" stop-color="#4494CF"/>
</linearGradient>
</defs>
</svg>
