<svg width="24" height="24" viewBox="0 0 24 24" fill="none" xmlns="http://www.w3.org/2000/svg">
<g clip-path="url(#clip0_12_1033)">
<path d="M10.0209 16.0007C9.55661 15.4528 9.07491 14.8613 8.6 14.2449V19.5671L15.4 21.8338V14.2453C14.9252 14.8617 14.4435 15.4533 13.9789 16.0013L10.0209 16.0007ZM10.0209 16.0007C10.5149 16.5839 11.2367 16.9196 12 16.9196M10.0209 16.0007L12 16.9196M12 16.9196C12.7633 16.9196 13.485 16.584 13.9789 16.0014L12 16.9196ZM11.9536 14.3629L11.9535 14.3629C11.3027 13.5951 10.1341 12.1605 9.13133 10.635C8.62975 9.87196 8.17776 9.09825 7.85308 8.38251C7.52304 7.65492 7.35 7.04154 7.35 6.58334C7.35 4.01512 9.43179 1.93334 12 1.93334C14.5682 1.93334 16.65 4.01512 16.65 6.58334C16.65 7.04154 16.477 7.65492 16.1469 8.38251C15.8222 9.09825 15.3702 9.87196 14.8687 10.635C13.8659 12.1605 12.6973 13.5951 12.0465 14.3629L12.0461 14.3633C12.031 14.3811 12.0152 14.3865 12.0002 14.3865C11.9851 14.3865 11.969 14.3811 11.9536 14.3629ZM1.06115 10.8883L0.838333 10.3313L1.06116 10.8883L5.43883 9.13735C5.61729 9.56646 5.82864 10.0024 6.06667 10.4418V19.6139L0.685019 22.0634C0.643095 22.0755 0.6 22.0441 0.6 21.9992V11.5693C0.6 11.5693 0.6 11.5692 0.6 11.5692C0.600059 11.4226 0.644006 11.2795 0.726178 11.1581C0.808373 11.0367 0.925047 10.9428 1.06115 10.8883ZM22.939 19.7783L22.9388 19.7783L17.9333 21.7805V11.0528L23.315 8.60327C23.3569 8.59119 23.4 8.62257 23.4 8.6675V19.0975C23.4 19.2441 23.3561 19.3872 23.2739 19.5086C23.1917 19.6299 23.0751 19.7239 22.939 19.7783ZM9.65 6.58334C9.65 7.88137 10.702 8.93334 12 8.93334C13.298 8.93334 14.35 7.88137 14.35 6.58334C14.35 5.2853 13.298 4.23334 12 4.23334C10.702 4.23334 9.65 5.2853 9.65 6.58334Z" stroke="#A0A0A0" stroke-width="1.2"/>
</g>
<defs>
<clipPath id="clip0_12_1033">
<rect width="24" height="24" fill="white"/>
</clipPath>
</defs>
</svg>
