<svg width="22" height="22" viewBox="0 0 22 22" fill="none" xmlns="http://www.w3.org/2000/svg">
<path d="M11 21.5C16.799 21.5 21.5 16.799 21.5 11C21.5 5.20101 16.799 0.5 11 0.5C5.20101 0.5 0.5 5.20101 0.5 11C0.5 16.799 5.20101 21.5 11 21.5Z" fill="#DECAF5"/>
<path d="M11 16.8334V16.8251V16.8334Z" fill="#DECAF5"/>
<path d="M11 16.8334V16.8251" stroke="#4B1A85" stroke-width="1.5" stroke-linecap="round" stroke-linejoin="round"/>
<path d="M10.9999 14.3332C10.9999 10.5833 14.4999 11.4166 14.4999 8.49996C14.4999 6.65901 12.9329 5.16663 10.9999 5.16663C9.43275 5.16663 8.10615 6.14759 7.66016 7.49996" fill="#DECAF5"/>
<path d="M10.9999 14.3332C10.9999 10.5833 14.4999 11.4166 14.4999 8.49996C14.4999 6.65901 12.9329 5.16663 10.9999 5.16663C9.43275 5.16663 8.10615 6.14759 7.66016 7.49996" stroke="#4B1A85" stroke-width="1.5" stroke-linecap="round" stroke-linejoin="round"/>
</svg>
