<svg width="22" height="22" viewBox="0 0 22 22" fill="none" xmlns="http://www.w3.org/2000/svg">
<path d="M10.835 0C12.2579 0 13.6668 0.280256 14.9814 0.824765C16.2959 1.36928 17.4904 2.16738 18.4965 3.1735C19.5026 4.17962 20.3007 5.37406 20.8452 6.68862C21.3897 8.00319 21.67 9.41213 21.67 10.835C21.67 13.7086 20.5285 16.4645 18.4965 18.4965C16.4645 20.5285 13.7086 21.67 10.835 21.67C9.41213 21.67 8.00319 21.3897 6.68862 20.8452C5.37406 20.3007 4.17962 19.5026 3.1735 18.4965C1.14154 16.4645 0 13.7086 0 10.835C0 7.96138 1.14154 5.20545 3.1735 3.1735C5.20545 1.14154 7.96138 0 10.835 0ZM10.835 16.2525L16.2525 10.835H13.002V6.501H8.668V10.835H5.4175L10.835 16.2525Z" fill="#001A72"/>
</svg>
