<svg width="26" height="26" viewBox="0 0 26 26" fill="none" xmlns="http://www.w3.org/2000/svg">
<circle cx="12.8333" cy="12.8333" r="10.8333" fill="#FAFAFA"/>
<path d="M12.835 2C14.2579 2 15.6668 2.28026 16.9814 2.82477C18.2959 3.36928 19.4904 4.16738 20.4965 5.1735C21.5026 6.17962 22.3007 7.37406 22.8452 8.68862C23.3897 10.0032 23.67 11.4121 23.67 12.835C23.67 15.7086 22.5285 18.4645 20.4965 20.4965C18.4645 22.5285 15.7086 23.67 12.835 23.67C11.4121 23.67 10.0032 23.3897 8.68862 22.8452C7.37406 22.3007 6.17962 21.5026 5.1735 20.4965C3.14154 18.4645 2 15.7086 2 12.835C2 9.96138 3.14154 7.20545 5.1735 5.1735C7.20545 3.14154 9.96138 2 12.835 2ZM12.835 18.2525L18.2525 12.835H15.002V8.501H10.668V12.835H7.4175L12.835 18.2525Z" fill="#9D9D9D"/>
</svg>
