<svg width="73" height="55" viewBox="0 0 73 55" fill="none" xmlns="http://www.w3.org/2000/svg">
<path d="M71.7059 50.7615L63.1855 38.2819V2.39979C63.1855 1.07974 62.1057 0 60.7857 0H11.3457C10.0256 0 8.9459 1.07981 8.9459 2.39979V38.2798L0.425466 50.7594C-0.0541698 51.4792 -0.174703 52.4393 0.305771 53.2798C0.665706 54.1202 1.50611 54.5998 2.46534 54.5998H27.5453C28.8654 54.5998 29.9451 53.52 29.9451 52.2V49.0803H42.3051V52.2C42.3051 53.5201 43.3849 54.5998 44.7049 54.5998H69.6649C70.5053 54.5998 71.3449 54.1202 71.8245 53.2798C72.1844 52.4402 72.1844 51.4801 71.7048 50.7602L71.7059 50.7615ZM58.3859 36.6011H13.7459V4.80107H58.2659V36.6011H58.3859ZM37.9861 25.5611L46.8663 21.4813V26.7615C46.8663 30.6019 40.9861 31.9211 36.0668 31.9211C33.4268 31.9211 31.0268 31.5611 29.2263 30.961C25.9861 29.8812 25.2663 28.0807 25.2663 26.7605V21.4803L34.1465 25.5601C34.7467 25.8003 35.3469 25.92 36.0667 25.92C36.7858 26.0406 37.3859 25.8012 37.9861 25.5609L37.9861 25.5611ZM22.7459 15.9609C22.7459 15.3607 23.1058 14.7605 23.706 14.5211L35.5862 9.12133C35.9462 8.88109 36.4266 8.88109 36.9063 9.12133L48.7865 14.5211C49.3866 14.7613 49.7466 15.3615 49.7466 15.9609C49.7466 16.561 49.3866 17.1612 48.7865 17.4006L36.9063 22.8004C36.666 22.9201 36.4266 22.9201 36.3061 22.9201C36.0659 22.9201 35.8265 22.9201 35.7059 22.8004L23.8257 17.4006C23.1058 17.1612 22.7459 16.561 22.7459 15.9609Z" fill="white"/>
</svg>
