<svg width="74" height="56" viewBox="0 0 74 56" fill="none" xmlns="http://www.w3.org/2000/svg">
<path d="M72.64 51.52L64.1196 39.0405V3.15833C64.1196 1.83829 63.0397 0.758545 61.7198 0.758545H12.2798C10.9597 0.758545 9.87998 1.83835 9.87998 3.15833V39.0383L1.35955 51.5179C0.879912 52.2378 0.759379 53.1979 1.23985 54.0383C1.59979 54.8787 2.44019 55.3584 3.39942 55.3584H28.4794C29.7995 55.3584 30.8792 54.2786 30.8792 52.9586V49.8388H43.2392V52.9586C43.2392 54.2786 44.319 55.3584 45.639 55.3584H70.599C71.4394 55.3584 72.279 54.8787 72.7586 54.0383C73.1185 53.1988 73.1185 52.2387 72.6389 51.5188L72.64 51.52ZM59.32 37.3596H14.68V5.55962H59.2V37.3596H59.32ZM38.9202 26.3196L47.8004 22.2398V27.52C47.8004 31.3605 41.9202 32.6796 37.0008 32.6796C34.3608 32.6796 31.9608 32.3197 30.1604 31.7195C26.9202 30.6397 26.2004 28.8393 26.2004 27.5191V22.2389L35.0806 26.3187C35.6808 26.5589 36.281 26.6786 37.0008 26.6786C37.7198 26.7991 38.32 26.5597 38.9202 26.3195L38.9202 26.3196ZM23.68 16.7194C23.68 16.1192 24.0399 15.5191 24.6401 15.2797L36.5203 9.87987C36.8802 9.63964 37.3607 9.63964 37.8403 9.87987L49.7206 15.2797C50.3207 15.5199 50.6807 16.1201 50.6807 16.7194C50.6807 17.3196 50.3207 17.9197 49.7206 18.1591L37.8403 23.5589C37.6001 23.6786 37.3607 23.6786 37.2402 23.6786C36.9999 23.6786 36.7605 23.6786 36.64 23.5589L24.7598 18.1591C24.0399 17.9197 23.68 17.3196 23.68 16.7194Z" fill="#010D31" fill-opacity="0.8"/>
</svg>
