<svg width="48" height="48" viewBox="0 0 48 48" fill="none" xmlns="http://www.w3.org/2000/svg">
<rect width="48" height="48" rx="24" fill="#4B1A85" fill-opacity="0.1"/>
<path d="M14.6667 16.85H14.5167V17V28.6667V28.8167H14.6667H33.3333H33.4833V28.6667V17V16.85H33.3333H14.6667ZM14.6667 31V30.85C14.0876 30.85 13.5323 30.62 13.1228 30.2105C12.7134 29.8011 12.4833 29.2457 12.4833 28.6667V17C12.4833 15.7879 13.4545 14.8167 14.6667 14.8167H33.3333C34.5343 14.8167 35.5167 15.7884 35.5167 17V28.6667C35.5167 29.2457 35.2866 29.8011 34.8772 30.2105C34.4677 30.62 33.9124 30.85 33.3333 30.85V31V31.15H37.85V33.1834H10.15V31.15H14.6667V31Z" fill="#1C023B" stroke="#EDE8F3" stroke-width="0.3"/>
</svg>
