<svg width="48" height="48" viewBox="0 0 48 48" fill="none" xmlns="http://www.w3.org/2000/svg">
<path d="M36 36C42.6274 29.3726 42.6274 18.6274 36 12C29.3726 5.37258 18.6274 5.37258 12 12C5.37259 18.6274 5.37258 29.3726 12 36C18.6274 42.6274 29.3726 42.6274 36 36Z" fill="#FFD05D"/>
<path d="M32.8796 9.51562C34.5699 12.1536 35.5495 15.2913 35.5495 18.656C35.5495 28.0273 27.9521 35.6267 18.5787 35.6267C15.3236 35.6267 12.2834 34.7089 9.70117 33.1201C12.7174 37.8287 17.9954 40.9485 24.0021 40.9485C33.3734 40.9485 40.9728 33.3511 40.9728 23.9778C40.9708 17.8616 37.7335 12.502 32.8796 9.51562Z" fill="#FDC453"/>
<path d="M9.33672 25.7917C9.33672 17.0893 16.3906 10.0354 25.093 10.0354C30.1798 10.0354 34.7012 12.4465 37.5821 16.1874C34.8605 11.4649 29.7617 8.2854 23.9203 8.2854C15.2179 8.2854 8.16406 15.3393 8.16406 24.0417C8.16406 27.6572 9.38252 30.988 11.4312 33.6459C10.0993 31.3325 9.33672 28.6507 9.33672 25.7917Z" fill="#FFD77F"/>
<path d="M17.0452 26.5658C16.6072 26.1417 15.9084 26.6116 16.1334 27.177C17.3877 30.3108 20.4497 32.5227 24.0314 32.5227C27.5534 32.5227 30.5736 30.3824 31.8637 27.3323C32.0987 26.7768 31.3939 26.295 30.9599 26.7151C28.4772 29.1242 23.2052 32.5506 17.0452 26.5658Z" fill="#5E4939"/>
<path d="M19.6193 21.5685C19.1395 20.368 17.9927 19.5916 16.7006 19.5916C15.4364 19.5916 14.2996 20.3441 13.8058 21.5108C13.7122 21.7338 13.7859 21.9866 13.987 22.124C14.1881 22.2614 14.4489 22.2395 14.6241 22.0703C15.5658 21.1564 17.055 20.4238 18.7991 22.12C18.8966 22.2156 19.024 22.2654 19.1515 22.2654C19.249 22.2654 19.3466 22.2375 19.4342 22.1778C19.6333 22.0444 19.7089 21.7935 19.6193 21.5685Z" fill="#303030"/>
<path d="M34.1984 21.5685C33.7186 20.368 32.5718 19.5916 31.2797 19.5916C30.0154 19.5916 28.8786 20.3441 28.3849 21.5088C28.2893 21.7318 28.365 21.9847 28.564 22.122C28.7651 22.2594 29.0259 22.2375 29.2011 22.0683C30.1429 21.1544 31.6301 20.4218 33.3761 22.118C33.4737 22.2136 33.6011 22.2634 33.7285 22.2634C33.8261 22.2634 33.9236 22.2355 34.0112 22.1758C34.2123 22.0444 34.288 21.7935 34.1984 21.5685Z" fill="#303030"/>
<path d="M11.5231 29.4563C13.1592 29.4563 14.4856 28.1299 14.4856 26.4938C14.4856 24.8576 13.1592 23.5312 11.5231 23.5312C9.88691 23.5312 8.56055 24.8576 8.56055 26.4938C8.56055 28.1299 9.88691 29.4563 11.5231 29.4563Z" fill="#F5A6AC"/>
<path d="M36.4762 29.4563C38.1123 29.4563 39.4387 28.1299 39.4387 26.4938C39.4387 24.8576 38.1123 23.5312 36.4762 23.5312C34.84 23.5312 33.5137 24.8576 33.5137 26.4938C33.5137 28.1299 34.84 29.4563 36.4762 29.4563Z" fill="#F5A6AC"/>
</svg>
