<svg width="48" height="48" viewBox="0 0 48 48" fill="none" xmlns="http://www.w3.org/2000/svg">
<path d="M36 36.0002C42.6274 29.3728 42.6274 18.6277 36 12.0002C29.3726 5.37283 18.6274 5.37283 12 12.0002C5.37258 18.6277 5.37258 29.3728 12 36.0002C18.6274 42.6277 29.3726 42.6277 36 36.0002Z" fill="#FFD05D"/>
<path d="M32.8796 9.46851C34.5699 12.1065 35.5495 15.2442 35.5495 18.6089C35.5495 27.9802 27.9521 35.5796 18.5787 35.5796C15.3236 35.5796 12.2834 34.6618 9.70117 33.073C12.7174 37.7816 17.9954 40.9014 24.002 40.9014C33.3734 40.9014 40.9728 33.304 40.9728 23.9307C40.9708 17.8145 37.7335 12.4549 32.8796 9.46851Z" fill="#FDC453"/>
<path d="M9.33868 25.7565C9.33868 17.0542 16.3926 10.0003 25.0949 10.0003C30.1818 10.0003 34.7032 12.4113 37.5841 16.1523C34.8625 11.4298 29.7637 8.25024 23.9223 8.25024C15.2199 8.25024 8.16602 15.3041 8.16602 24.0065C8.16602 27.622 9.38447 30.9529 11.4331 33.6108C10.0992 31.2973 9.33868 28.6155 9.33868 25.7565Z" fill="#FFD77F"/>
<path d="M17.0452 25.7575C16.6072 25.3334 15.9084 25.8032 16.1334 26.3687C17.3877 29.5024 20.4497 31.7143 24.0314 31.7143C27.5534 31.7143 30.5736 29.5741 31.8638 26.524C32.0987 25.9685 31.3939 25.4867 30.9599 25.9068C28.4772 28.3158 23.2052 31.7422 17.0452 25.7575Z" fill="#5E4939"/>
<path d="M28.3807 20.2903C28.8605 21.4909 30.0073 22.2673 31.2994 22.2673C32.5637 22.2673 33.7005 21.5148 34.1943 20.3481C34.2878 20.1251 34.2142 19.8722 34.0131 19.7349C33.812 19.5975 33.5512 19.6194 33.376 19.7886C32.4343 20.7025 30.945 21.4351 29.201 19.7388C29.1034 19.6433 28.976 19.5935 28.8486 19.5935C28.751 19.5935 28.6535 19.6214 28.5659 19.6811C28.3688 19.8145 28.2911 20.0654 28.3807 20.2903Z" fill="#303030"/>
<path d="M13.8026 20.2883C14.2824 21.4889 15.4292 22.2653 16.7213 22.2653C17.9855 22.2653 19.1223 21.5128 19.6161 20.3481C19.7116 20.1251 19.636 19.8722 19.4369 19.7349C19.2358 19.5975 18.975 19.6194 18.7998 19.7886C17.8581 20.7025 16.3709 21.4351 14.6248 19.7388C14.5273 19.6433 14.3998 19.5935 14.2724 19.5935C14.1749 19.5935 14.0773 19.6214 13.9897 19.6811C13.7906 19.8125 13.713 20.0634 13.8026 20.2883Z" fill="#303030"/>
<path d="M11.525 29.3628C13.1611 29.3628 14.4875 28.0364 14.4875 26.4003C14.4875 24.7641 13.1611 23.4377 11.525 23.4377C9.88884 23.4377 8.5625 24.7641 8.5625 26.4003C8.5625 28.0364 9.88884 29.3628 11.525 29.3628Z" fill="#F5A6AC"/>
<path d="M36.4781 29.3628C38.1143 29.3628 39.4406 28.0364 39.4406 26.4003C39.4406 24.7641 38.1143 23.4377 36.4781 23.4377C34.842 23.4377 33.5156 24.7641 33.5156 26.4003C33.5156 28.0364 34.842 29.3628 36.4781 29.3628Z" fill="#F5A6AC"/>
</svg>
