<svg width="48" height="48" viewBox="0 0 48 48" fill="none" xmlns="http://www.w3.org/2000/svg">
<path d="M36 36.0002C42.6274 29.3728 42.6274 18.6277 36 12.0002C29.3726 5.37283 18.6274 5.37283 12 12.0002C5.37258 18.6277 5.37259 29.3728 12 36.0002C18.6274 42.6277 29.3726 42.6277 36 36.0002Z" fill="#FFD05D"/>
<path d="M32.8796 9.5166C34.5699 12.1546 35.5495 15.2923 35.5495 18.657C35.5495 28.0283 27.9521 35.6277 18.5788 35.6277C15.3236 35.6277 12.2834 34.7099 9.70117 33.1211C12.7174 37.8297 17.9954 40.9495 24.0021 40.9495C33.3734 40.9495 40.9728 33.3521 40.9728 23.9788C40.9728 17.8626 37.7355 12.503 32.8796 9.5166Z" fill="#FDC453"/>
<path d="M9.33868 25.7907C9.33868 17.0883 16.3926 10.0345 25.0949 10.0345C30.1818 10.0345 34.7032 12.4455 37.5841 16.1864C34.8625 11.4639 29.7637 8.28442 23.9223 8.28442C15.2199 8.28442 8.16602 15.3383 8.16602 24.0407C8.16602 27.6562 9.38447 30.9871 11.4331 33.6449C10.0992 31.3315 9.33868 28.6497 9.33868 25.7907Z" fill="#FFD77F"/>
<path d="M17.7503 22.9507C18.4408 22.9507 19.0006 22.0067 19.0006 20.8423C19.0006 19.6778 18.4408 18.7339 17.7503 18.7339C17.0598 18.7339 16.5 19.6778 16.5 20.8423C16.5 22.0067 17.0598 22.9507 17.7503 22.9507Z" fill="#303030"/>
<path d="M31.5045 20.8423C31.5045 22.007 30.9451 22.9507 30.2542 22.9507C29.5634 22.9507 29.0039 22.007 29.0039 20.8423C29.0039 19.6776 29.5634 18.7339 30.2542 18.7339C30.9451 18.7339 31.5045 19.6776 31.5045 20.8423Z" fill="#303030"/>
<path d="M17.4754 14.1118L16.3379 15.2493L20.1347 19.0461L21.2722 17.9086L17.4754 14.1118Z" fill="#303030"/>
<path d="M31.6629 15.2481L30.5254 14.1106L26.7286 17.9074L27.8661 19.0449L31.6629 15.2481Z" fill="#303030"/>
<path d="M30.2531 31.7657C29.8907 28.0188 27.2209 25.11 23.9876 25.116C20.7523 25.1239 18.0964 28.0427 17.75 31.7916L30.2531 31.7657Z" fill="#695342"/>
<path d="M17.75 31.7931C17.75 31.7931 23.014 26.5111 30.2531 31.7652L17.75 31.7931Z" fill="#F06669"/>
</svg>
