<svg width="37" height="40" viewBox="0 0 37 40" fill="none" xmlns="http://www.w3.org/2000/svg">
<path d="M5.25 40C3.78333 40 2.54167 39.4917 1.525 38.475C0.508333 37.4583 0 36.2167 0 34.75V28.5H6.35V0L9.35 3L12.35 0L15.3 3L18.3 0L21.3 3L24.3 0L27.3 3L30.3 0L33.3 3L36.3 0V34.75C36.3 36.2167 35.7917 37.4583 34.775 38.475C33.7583 39.4917 32.5167 40 31.05 40H5.25ZM31.05 37C31.7167 37 32.2583 36.7917 32.675 36.375C33.0917 35.9583 33.3 35.4167 33.3 34.75V5H9.35V28.5H28.8V34.75C28.8 35.4167 29.0083 35.9583 29.425 36.375C29.8417 36.7917 30.3833 37 31.05 37ZM12 12.9V9.9H24V12.9H12ZM12 19.6V16.6H24V19.6H12ZM28.65 12.9C28.25 12.9 27.9 12.75 27.6 12.45C27.3 12.15 27.15 11.8 27.15 11.4C27.15 11 27.3 10.65 27.6 10.35C27.9 10.05 28.25 9.9 28.65 9.9C29.05 9.9 29.4 10.05 29.7 10.35C30 10.65 30.15 11 30.15 11.4C30.15 11.8 30 12.15 29.7 12.45C29.4 12.75 29.05 12.9 28.65 12.9ZM28.65 19.35C28.25 19.35 27.9 19.2 27.6 18.9C27.3 18.6 27.15 18.25 27.15 17.85C27.15 17.45 27.3 17.1 27.6 16.8C27.9 16.5 28.25 16.35 28.65 16.35C29.05 16.35 29.4 16.5 29.7 16.8C30 17.1 30.15 17.45 30.15 17.85C30.15 18.25 30 18.6 29.7 18.9C29.4 19.2 29.05 19.35 28.65 19.35ZM5.2 37H25.8V31.5H3V34.75C3 35.4167 3.20833 35.9583 3.625 36.375C4.04167 36.7917 4.56667 37 5.2 37Z" fill="black" fill-opacity="0.5"/>
</svg>
