<svg width="20" height="30" viewBox="0 0 20 30" fill="none" xmlns="http://www.w3.org/2000/svg">
<path d="M13.5 30L2.08333 18.1667V15.4167H7.5C9.08333 15.4167 10.4722 14.9028 11.6667 13.875C12.8611 12.8472 13.5556 11.4167 13.75 9.58333H0V7.08333H13.5417C13.1806 5.75 12.4375 4.65278 11.3125 3.79167C10.1875 2.93056 8.91667 2.5 7.5 2.5H0V0H20V2.5H13.5833C14.2222 3.05556 14.7639 3.76389 15.2083 4.625C15.6528 5.48611 15.9722 6.30556 16.1667 7.08333H20V9.58333H16.25C16.0278 12.1111 15.0903 14.1319 13.4375 15.6458C11.7847 17.1597 9.80556 17.9167 7.5 17.9167H5.33333L16.9583 30H13.5Z" fill="black" fill-opacity="0.5"/>
</svg>
