<svg width="192" height="44" viewBox="0 0 192 44" fill="none" xmlns="http://www.w3.org/2000/svg">
<rect width="192" height="44" rx="6" fill="#436DFA"/>
<path d="M94.233 28V17.8182H100.338V18.9119H95.4659V22.3523H99.8807V23.446H95.4659V28H94.233ZM102.291 28V20.3636H103.464V28H102.291ZM102.887 19.0909C102.659 19.0909 102.461 19.013 102.296 18.8572C102.133 18.7015 102.052 18.5142 102.052 18.2955C102.052 18.0767 102.133 17.8894 102.296 17.7337C102.461 17.5779 102.659 17.5 102.887 17.5C103.116 17.5 103.311 17.5779 103.474 17.7337C103.64 17.8894 103.722 18.0767 103.722 18.2955C103.722 18.5142 103.64 18.7015 103.474 18.8572C103.311 19.013 103.116 19.0909 102.887 19.0909ZM106.786 17.8182V28H105.613V17.8182H106.786ZM112.256 20.3636V21.358H108.299V20.3636H112.256ZM109.452 18.5341H110.626V25.8125C110.626 26.1439 110.674 26.3925 110.77 26.5582C110.869 26.7206 110.995 26.83 111.148 26.8864C111.303 26.9394 111.467 26.9659 111.64 26.9659C111.769 26.9659 111.875 26.9593 111.958 26.946C112.041 26.9295 112.107 26.9162 112.157 26.9062L112.395 27.9602C112.316 27.9901 112.205 28.0199 112.062 28.0497C111.92 28.0829 111.739 28.0994 111.52 28.0994C111.189 28.0994 110.864 28.0282 110.546 27.8857C110.231 27.7431 109.969 27.526 109.76 27.2344C109.555 26.9427 109.452 26.5748 109.452 26.1307V18.5341ZM117.141 28.1591C116.405 28.1591 115.77 27.9967 115.237 27.6719C114.706 27.3438 114.297 26.8864 114.009 26.2997C113.724 25.7098 113.581 25.0237 113.581 24.2415C113.581 23.4593 113.724 22.7699 114.009 22.1733C114.297 21.5734 114.698 21.1061 115.212 20.7713C115.729 20.4332 116.332 20.2642 117.021 20.2642C117.419 20.2642 117.812 20.3305 118.2 20.4631C118.588 20.5956 118.941 20.8111 119.259 21.1094C119.577 21.4044 119.83 21.7955 120.019 22.2827C120.208 22.7699 120.303 23.3698 120.303 24.0824V24.5795H114.416V23.5653H119.11C119.11 23.1345 119.023 22.75 118.851 22.4119C118.682 22.0739 118.44 21.8071 118.125 21.6115C117.814 21.416 117.446 21.3182 117.021 21.3182C116.554 21.3182 116.15 21.4342 115.808 21.6662C115.47 21.8949 115.21 22.1932 115.028 22.5611C114.846 22.929 114.754 23.3234 114.754 23.7443V24.4205C114.754 24.9972 114.854 25.486 115.053 25.8871C115.255 26.2848 115.535 26.5881 115.893 26.7969C116.251 27.0024 116.667 27.1051 117.141 27.1051C117.449 27.1051 117.727 27.062 117.976 26.9759C118.228 26.8864 118.445 26.7538 118.627 26.5781C118.81 26.3991 118.95 26.1771 119.05 25.9119L120.183 26.2301C120.064 26.6146 119.864 26.9527 119.582 27.2443C119.3 27.5327 118.952 27.758 118.538 27.9205C118.124 28.0795 117.658 28.1591 117.141 28.1591ZM122.088 28V20.3636H123.221V21.517H123.301C123.44 21.1392 123.692 20.8326 124.056 20.5973C124.421 20.362 124.832 20.2443 125.289 20.2443C125.375 20.2443 125.483 20.246 125.612 20.2493C125.742 20.2526 125.839 20.2576 125.906 20.2642V21.4574C125.866 21.4474 125.775 21.4325 125.632 21.4126C125.493 21.3894 125.346 21.3778 125.19 21.3778C124.819 21.3778 124.487 21.4557 124.195 21.6115C123.907 21.764 123.678 21.9761 123.509 22.2479C123.344 22.5163 123.261 22.8229 123.261 23.1676V28H122.088Z" fill="white"/>
<path d="M68.8961 16.1438C70.7478 18.518 74.167 22.918 74.167 22.918V28.418C74.167 28.9221 74.5795 29.3346 75.0836 29.3346H76.917C77.4211 29.3346 77.8336 28.9221 77.8336 28.418V22.918C77.8336 22.918 81.2436 18.518 83.0953 16.1438C83.5628 15.5388 83.132 14.668 82.3711 14.668H69.6203C68.8595 14.668 68.4286 15.5388 68.8961 16.1438Z" fill="white"/>
</svg>
