<svg width="48" height="48" viewBox="0 0 48 48" fill="none" xmlns="http://www.w3.org/2000/svg">
<rect width="48" height="48" rx="24" fill="#4B1A85" fill-opacity="0.1"/>
<mask id="path-2-inside-1_73_575" fill="white">
<path d="M17 29.25L13.5 32.68V22.8333H17V29.25ZM22.8333 27.1033L21.0017 25.54L19.3333 27.08V18.1667H22.8333V27.1033ZM28.6667 25.1667L25.1667 28.6667V13.5H28.6667V25.1667ZM31.945 24.945L29.8333 22.8333H35.6667V28.6667L33.5783 26.5783L25.1667 34.92L21.1183 31.3967L16.7083 35.6667H13.5L21.0483 28.27L25.1667 31.7467"/>
</mask>
<path d="M17 29.25L13.5 32.68V22.8333H17V29.25ZM22.8333 27.1033L21.0017 25.54L19.3333 27.08V18.1667H22.8333V27.1033ZM28.6667 25.1667L25.1667 28.6667V13.5H28.6667V25.1667ZM31.945 24.945L29.8333 22.8333H35.6667V28.6667L33.5783 26.5783L25.1667 34.92L21.1183 31.3967L16.7083 35.6667H13.5L21.0483 28.27L25.1667 31.7467" fill="#1C023B"/>
<path d="M17 29.25L17.21 29.4643L17.3 29.376V29.25H17ZM13.5 32.68H13.2V33.394L13.71 32.8943L13.5 32.68ZM13.5 22.8333V22.5333H13.2V22.8333H13.5ZM17 22.8333H17.3V22.5333H17V22.8333ZM22.8333 27.1033L22.6386 27.3315L23.1333 27.7538V27.1033H22.8333ZM21.0017 25.54L21.1964 25.3118L20.9939 25.1389L20.7982 25.3196L21.0017 25.54ZM19.3333 27.08H19.0333V27.7652L19.5368 27.3004L19.3333 27.08ZM19.3333 18.1667V17.8667H19.0333V18.1667H19.3333ZM22.8333 18.1667H23.1333V17.8667H22.8333V18.1667ZM28.6667 25.1667L28.8788 25.3788L28.9667 25.2909V25.1667H28.6667ZM25.1667 28.6667H24.8667V29.3909L25.3788 28.8788L25.1667 28.6667ZM25.1667 13.5V13.2H24.8667V13.5H25.1667ZM28.6667 13.5H28.9667V13.2H28.6667V13.5ZM29.8333 22.8333V22.5333H29.1091L29.6212 23.0455L29.8333 22.8333ZM35.6667 22.8333H35.9667V22.5333H35.6667V22.8333ZM35.6667 28.6667L35.4545 28.8788L35.9667 29.3909V28.6667H35.6667ZM33.5783 26.5783L33.7905 26.3662L33.5792 26.155L33.3671 26.3653L33.5783 26.5783ZM25.1667 34.92L24.9697 35.1463L25.18 35.3293L25.3779 35.133L25.1667 34.92ZM21.1183 31.3967L21.3153 31.1704L21.1075 30.9895L20.9096 31.1811L21.1183 31.3967ZM16.7083 35.6667V35.9667H16.8298L16.917 35.8822L16.7083 35.6667ZM13.5 35.6667L13.29 35.4524L12.7652 35.9667H13.5V35.6667ZM21.0483 28.27L21.2419 28.0408L21.0333 27.8647L20.8384 28.0557L21.0483 28.27ZM16.79 29.0357L13.29 32.4657L13.71 32.8943L17.21 29.4643L16.79 29.0357ZM13.8 32.68V22.8333H13.2V32.68H13.8ZM13.5 23.1333H17V22.5333H13.5V23.1333ZM16.7 22.8333V29.25H17.3V22.8333H16.7ZM23.0281 26.8751L21.1964 25.3118L20.8069 25.7682L22.6386 27.3315L23.0281 26.8751ZM20.7982 25.3196L19.1298 26.8596L19.5368 27.3004L21.2052 25.7604L20.7982 25.3196ZM19.6333 27.08V18.1667H19.0333V27.08H19.6333ZM19.3333 18.4667H22.8333V17.8667H19.3333V18.4667ZM22.5333 18.1667V27.1033H23.1333V18.1667H22.5333ZM28.4545 24.9545L24.9545 28.4545L25.3788 28.8788L28.8788 25.3788L28.4545 24.9545ZM25.4667 28.6667V13.5H24.8667V28.6667H25.4667ZM25.1667 13.8H28.6667V13.2H25.1667V13.8ZM28.3667 13.5V25.1667H28.9667V13.5H28.3667ZM32.1571 24.7329L30.0455 22.6212L29.6212 23.0455L31.7329 25.1571L32.1571 24.7329ZM29.8333 23.1333H35.6667V22.5333H29.8333V23.1333ZM35.3667 22.8333V28.6667H35.9667V22.8333H35.3667ZM35.8788 28.4545L33.7905 26.3662L33.3662 26.7905L35.4545 28.8788L35.8788 28.4545ZM33.3671 26.3653L24.9554 34.707L25.3779 35.133L33.7896 26.7913L33.3671 26.3653ZM25.3636 34.6937L21.3153 31.1704L20.9214 31.623L24.9697 35.1463L25.3636 34.6937ZM20.9096 31.1811L16.4996 35.4511L16.917 35.8822L21.327 31.6122L20.9096 31.1811ZM16.7083 35.3667H13.5V35.9667H16.7083V35.3667ZM13.71 35.8809L21.2583 28.4843L20.8384 28.0557L13.29 35.4524L13.71 35.8809ZM20.8548 28.4992L24.9731 31.9759L25.3602 31.5174L21.2419 28.0408L20.8548 28.4992Z" fill="#EDE8F3" mask="url(#path-2-inside-1_73_575)"/>
</svg>
