<svg width="207" height="107" viewBox="0 0 207 107" fill="none" xmlns="http://www.w3.org/2000/svg">
<path d="M4.158 84.2467V88.7347H9.438V90.7807H4.158V95.4667H10.098V97.5127H1.65V82.2007H10.098V84.2467H4.158ZM27.8611 85.1927C28.8144 85.1927 29.6651 85.3907 30.4131 85.7867C31.1758 86.1827 31.7698 86.7694 32.1951 87.5467C32.6351 88.324 32.8551 89.2627 32.8551 90.3627V97.5127H30.3691V90.7367C30.3691 89.6514 30.0978 88.8227 29.5551 88.2507C29.0124 87.664 28.2718 87.3707 27.3331 87.3707C26.3944 87.3707 25.6464 87.664 25.0891 88.2507C24.5464 88.8227 24.2751 89.6514 24.2751 90.7367V97.5127H21.7891V90.7367C21.7891 89.6514 21.5178 88.8227 20.9751 88.2507C20.4324 87.664 19.6918 87.3707 18.7531 87.3707C17.8144 87.3707 17.0664 87.664 16.5091 88.2507C15.9664 88.8227 15.6951 89.6514 15.6951 90.7367V97.5127H13.1871V85.3907H15.6951V86.7767C16.1058 86.278 16.6264 85.8894 17.2571 85.6107C17.8878 85.332 18.5624 85.1927 19.2811 85.1927C20.2491 85.1927 21.1144 85.398 21.8771 85.8087C22.6398 86.2194 23.2264 86.8134 23.6371 87.5907C24.0038 86.8574 24.5758 86.278 25.3531 85.8527C26.1304 85.4127 26.9664 85.1927 27.8611 85.1927ZM38.5545 87.1947C38.9798 86.608 39.5592 86.1314 40.2925 85.7647C41.0405 85.3834 41.8692 85.1927 42.7785 85.1927C43.8492 85.1927 44.8172 85.4494 45.6825 85.9627C46.5478 86.476 47.2298 87.2094 47.7285 88.1627C48.2272 89.1014 48.4765 90.1794 48.4765 91.3967C48.4765 92.614 48.2272 93.7067 47.7285 94.6747C47.2298 95.628 46.5405 96.376 45.6605 96.9187C44.7952 97.4467 43.8345 97.7107 42.7785 97.7107C41.8398 97.7107 41.0038 97.5274 40.2705 97.1607C39.5518 96.794 38.9798 96.3247 38.5545 95.7527V97.5127H36.0465V81.2327H38.5545V87.1947ZM45.9245 91.3967C45.9245 90.5607 45.7485 89.842 45.3965 89.2407C45.0592 88.6247 44.6045 88.1627 44.0325 87.8547C43.4752 87.532 42.8738 87.3707 42.2285 87.3707C41.5978 87.3707 40.9965 87.532 40.4245 87.8547C39.8672 88.1774 39.4125 88.6467 39.0605 89.2627C38.7232 89.8787 38.5545 90.6047 38.5545 91.4407C38.5545 92.2767 38.7232 93.01 39.0605 93.6407C39.4125 94.2567 39.8672 94.726 40.4245 95.0487C40.9965 95.3714 41.5978 95.5327 42.2285 95.5327C42.8738 95.5327 43.4752 95.3714 44.0325 95.0487C44.6045 94.7114 45.0592 94.2274 45.3965 93.5967C45.7485 92.966 45.9245 92.2327 45.9245 91.3967ZM53.4646 87.1507C53.8313 86.5347 54.3153 86.058 54.9166 85.7207C55.5326 85.3687 56.2586 85.1927 57.0946 85.1927V87.7887H56.4566C55.474 87.7887 54.726 88.038 54.2126 88.5367C53.714 89.0354 53.4646 89.9007 53.4646 91.1327V97.5127H50.9566V85.3907H53.4646V87.1507ZM58.564 91.3967C58.564 90.1794 58.8133 89.1014 59.312 88.1627C59.8253 87.224 60.5147 86.498 61.38 85.9847C62.26 85.4567 63.228 85.1927 64.284 85.1927C65.2373 85.1927 66.066 85.3834 66.77 85.7647C67.4887 86.1314 68.0607 86.5934 68.486 87.1507V85.3907H71.016V97.5127H68.486V95.7087C68.0607 96.2807 67.4813 96.7574 66.748 97.1387C66.0147 97.52 65.1787 97.7107 64.24 97.7107C63.1987 97.7107 62.2453 97.4467 61.38 96.9187C60.5147 96.376 59.8253 95.628 59.312 94.6747C58.8133 93.7067 58.564 92.614 58.564 91.3967ZM68.486 91.4407C68.486 90.6047 68.31 89.8787 67.958 89.2627C67.6207 88.6467 67.1733 88.1774 66.616 87.8547C66.0587 87.532 65.4573 87.3707 64.812 87.3707C64.1667 87.3707 63.5653 87.532 63.008 87.8547C62.4507 88.1627 61.996 88.6247 61.644 89.2407C61.3067 89.842 61.138 90.5607 61.138 91.3967C61.138 92.2327 61.3067 92.966 61.644 93.5967C61.996 94.2274 62.4507 94.7114 63.008 95.0487C63.58 95.3714 64.1813 95.5327 64.812 95.5327C65.4573 95.5327 66.0587 95.3714 66.616 95.0487C67.1733 94.726 67.6207 94.2567 67.958 93.6407C68.31 93.01 68.486 92.2767 68.486 91.4407ZM73.4742 91.4407C73.4742 90.194 73.7235 89.1014 74.2222 88.1627C74.7355 87.2094 75.4395 86.476 76.3342 85.9627C77.2288 85.4494 78.2555 85.1927 79.4142 85.1927C80.8808 85.1927 82.0908 85.5447 83.0442 86.2487C84.0122 86.938 84.6648 87.928 85.0022 89.2187H82.2962C82.0762 88.6174 81.7242 88.148 81.2402 87.8107C80.7562 87.4734 80.1475 87.3047 79.4142 87.3047C78.3875 87.3047 77.5662 87.6714 76.9502 88.4047C76.3488 89.1234 76.0482 90.1354 76.0482 91.4407C76.0482 92.746 76.3488 93.7654 76.9502 94.4987C77.5662 95.232 78.3875 95.5987 79.4142 95.5987C80.8662 95.5987 81.8268 94.9607 82.2962 93.6847H85.0022C84.6502 94.9167 83.9902 95.8994 83.0222 96.6327C82.0542 97.3514 80.8515 97.7107 79.4142 97.7107C78.2555 97.7107 77.2288 97.454 76.3342 96.9407C75.4395 96.4127 74.7355 95.6794 74.2222 94.7407C73.7235 93.7874 73.4742 92.6874 73.4742 91.4407ZM98.6116 91.1547C98.6116 91.6094 98.5822 92.02 98.5236 92.3867H89.2616C89.3349 93.3547 89.6942 94.132 90.3396 94.7187C90.9849 95.3054 91.7769 95.5987 92.7156 95.5987C94.0649 95.5987 95.0182 95.034 95.5756 93.9047H98.2816C97.9149 95.0194 97.2476 95.936 96.2796 96.6547C95.3262 97.3587 94.1382 97.7107 92.7156 97.7107C91.5569 97.7107 90.5156 97.454 89.5916 96.9407C88.6822 96.4127 87.9636 95.6794 87.4356 94.7407C86.9222 93.7874 86.6656 92.6874 86.6656 91.4407C86.6656 90.194 86.9149 89.1014 87.4136 88.1627C87.9269 87.2094 88.6382 86.476 89.5476 85.9627C90.4716 85.4494 91.5276 85.1927 92.7156 85.1927C93.8596 85.1927 94.8789 85.442 95.7736 85.9407C96.6682 86.4394 97.3649 87.1434 97.8636 88.0527C98.3622 88.9474 98.6116 89.9814 98.6116 91.1547ZM95.9936 90.3627C95.9789 89.4387 95.6489 88.698 95.0036 88.1407C94.3582 87.5834 93.5589 87.3047 92.6056 87.3047C91.7402 87.3047 90.9996 87.5834 90.3836 88.1407C89.7676 88.6834 89.4009 89.424 89.2836 90.3627H95.9936ZM109.303 84.2467V88.7347H114.583V90.7807H109.303V95.4667H115.243V97.5127H106.795V82.2007H115.243V84.2467H109.303ZM123.018 95.2687L126.45 85.3907H129.112L124.492 97.5127H121.5L116.902 85.3907H119.586L123.018 95.2687ZM142.117 91.1547C142.117 91.6094 142.088 92.02 142.029 92.3867H132.767C132.841 93.3547 133.2 94.132 133.845 94.7187C134.491 95.3054 135.283 95.5987 136.221 95.5987C137.571 95.5987 138.524 95.034 139.081 93.9047H141.787C141.421 95.0194 140.753 95.936 139.785 96.6547C138.832 97.3587 137.644 97.7107 136.221 97.7107C135.063 97.7107 134.021 97.454 133.097 96.9407C132.188 96.4127 131.469 95.6794 130.941 94.7407C130.428 93.7874 130.171 92.6874 130.171 91.4407C130.171 90.194 130.421 89.1014 130.919 88.1627C131.433 87.2094 132.144 86.476 133.053 85.9627C133.977 85.4494 135.033 85.1927 136.221 85.1927C137.365 85.1927 138.385 85.442 139.279 85.9407C140.174 86.4394 140.871 87.1434 141.369 88.0527C141.868 88.9474 142.117 89.9814 142.117 91.1547ZM139.499 90.3627C139.485 89.4387 139.155 88.698 138.509 88.1407C137.864 87.5834 137.065 87.3047 136.111 87.3047C135.246 87.3047 134.505 87.5834 133.889 88.1407C133.273 88.6834 132.907 89.424 132.789 90.3627H139.499ZM147.094 87.1507C147.46 86.5347 147.944 86.058 148.546 85.7207C149.162 85.3687 149.888 85.1927 150.724 85.1927V87.7887H150.086C149.103 87.7887 148.355 88.038 147.842 88.5367C147.343 89.0354 147.094 89.9007 147.094 91.1327V97.5127H144.586V85.3907H147.094V87.1507ZM163.941 85.3907L156.505 103.211H153.909L156.373 97.3147L151.599 85.3907H154.393L157.803 94.6307L161.345 85.3907H163.941ZM171.092 97.7107C169.948 97.7107 168.914 97.454 167.99 96.9407C167.066 96.4127 166.34 95.6794 165.812 94.7407C165.284 93.7874 165.02 92.6874 165.02 91.4407C165.02 90.2087 165.291 89.116 165.834 88.1627C166.376 87.2094 167.117 86.476 168.056 85.9627C168.994 85.4494 170.043 85.1927 171.202 85.1927C172.36 85.1927 173.409 85.4494 174.348 85.9627C175.286 86.476 176.027 87.2094 176.57 88.1627C177.112 89.116 177.384 90.2087 177.384 91.4407C177.384 92.6727 177.105 93.7654 176.548 94.7187C175.99 95.672 175.228 96.4127 174.26 96.9407C173.306 97.454 172.25 97.7107 171.092 97.7107ZM171.092 95.5327C171.737 95.5327 172.338 95.3787 172.896 95.0707C173.468 94.7627 173.93 94.3007 174.282 93.6847C174.634 93.0687 174.81 92.3207 174.81 91.4407C174.81 90.5607 174.641 89.82 174.304 89.2187C173.966 88.6027 173.519 88.1407 172.962 87.8327C172.404 87.5247 171.803 87.3707 171.158 87.3707C170.512 87.3707 169.911 87.5247 169.354 87.8327C168.811 88.1407 168.378 88.6027 168.056 89.2187C167.733 89.82 167.572 90.5607 167.572 91.4407C167.572 92.746 167.902 93.758 168.562 94.4767C169.236 95.1807 170.08 95.5327 171.092 95.5327ZM185.979 85.1927C186.932 85.1927 187.783 85.3907 188.531 85.7867C189.294 86.1827 189.888 86.7694 190.313 87.5467C190.738 88.324 190.951 89.2627 190.951 90.3627V97.5127H188.465V90.7367C188.465 89.6514 188.194 88.8227 187.651 88.2507C187.108 87.664 186.368 87.3707 185.429 87.3707C184.49 87.3707 183.742 87.664 183.185 88.2507C182.642 88.8227 182.371 89.6514 182.371 90.7367V97.5127H179.863V85.3907H182.371V86.7767C182.782 86.278 183.302 85.8894 183.933 85.6107C184.578 85.332 185.26 85.1927 185.979 85.1927ZM205.26 91.1547C205.26 91.6094 205.231 92.02 205.172 92.3867H195.91C195.983 93.3547 196.343 94.132 196.988 94.7187C197.633 95.3054 198.425 95.5987 199.364 95.5987C200.713 95.5987 201.667 95.034 202.224 93.9047H204.93C204.563 95.0194 203.896 95.936 202.928 96.6547C201.975 97.3587 200.787 97.7107 199.364 97.7107C198.205 97.7107 197.164 97.454 196.24 96.9407C195.331 96.4127 194.612 95.6794 194.084 94.7407C193.571 93.7874 193.314 92.6874 193.314 91.4407C193.314 90.194 193.563 89.1014 194.062 88.1627C194.575 87.2094 195.287 86.476 196.196 85.9627C197.12 85.4494 198.176 85.1927 199.364 85.1927C200.508 85.1927 201.527 85.442 202.422 85.9407C203.317 86.4394 204.013 87.1434 204.512 88.0527C205.011 88.9474 205.26 89.9814 205.26 91.1547ZM202.642 90.3627C202.627 89.4387 202.297 88.698 201.652 88.1407C201.007 87.5834 200.207 87.3047 199.254 87.3047C198.389 87.3047 197.648 87.5834 197.032 88.1407C196.416 88.6834 196.049 89.424 195.932 90.3627H202.642Z" fill="#233F93"/>
<path d="M10.1736 35.0405C10.9333 36.0094 11.6931 36.9782 12.4529 37.9401C12.6201 38.1492 12.6411 38.3513 12.5156 38.5883C12.2368 39.1181 11.965 39.6478 11.7001 40.1845C11.0031 41.5994 10.3409 43.0283 9.61604 44.4293C9.04449 45.5376 8.57745 46.6876 8.43805 47.9074C8.24288 49.6151 8.35444 51.3297 8.99569 52.9538C10.0691 55.6652 11.8186 57.8189 14.3766 59.2687C14.9063 59.5684 14.8924 59.5615 15.2339 59.0387C16.8161 56.627 18.3984 54.2154 19.9946 51.8107C20.5173 51.023 21.0471 50.2285 21.5629 49.4339L10.1736 35.0405Z" fill="url(#paint0_linear_79_137)"/>
<path d="M25.0132 32.362C24.2395 30.6682 23.2358 29.0721 22.2809 27.462C21.2493 25.7264 20.1481 24.0257 19.0816 22.311C18.0431 20.6382 17.0046 18.9654 15.966 17.2925C14.9135 15.6058 13.861 13.919 12.8085 12.2253C11.9512 10.8382 11.1147 9.44417 10.2574 8.05711C9.2816 6.48186 8.29883 4.91359 7.31604 3.3453C6.6957 2.35555 6.08238 1.36578 5.4481 0.348145C5.35051 0.403906 5.3087 0.417847 5.28082 0.452698C4.33288 1.65853 3.55912 2.96892 2.93878 4.36991C2.29753 5.81273 1.77477 7.30434 1.54475 8.87262C1.34262 10.2457 1.12656 11.6258 1.04292 13.0129C0.945341 14.5254 1.00806 16.0519 1.29384 17.5504C1.52385 18.7284 1.71204 19.9203 1.98387 21.0913C2.15116 21.8231 2.38124 22.5411 2.66702 23.2381C3.21766 24.5903 3.77521 25.9425 4.4304 27.2459C5.25984 28.8908 6.40992 30.3267 7.56696 31.7625C8.4452 32.8499 9.30949 33.9512 10.1738 35.0455L21.4934 49.5573C22.5249 47.9681 23.5774 46.2395 24.3789 44.5109C25.0829 42.9984 25.6405 41.4441 25.9542 39.7852C26.4421 37.1853 26.0866 34.7039 25.0132 32.362Z" fill="url(#paint1_linear_79_137)"/>
<path d="M52.9925 11.8213C52.9437 10.8386 52.8113 9.98123 52.637 8.99844C52.6092 8.85207 52.5743 8.7057 52.5464 8.55235C52.4628 8.05748 52.3025 7.43016 52.1631 6.95619C51.6404 5.22063 50.9712 3.54083 50.0163 1.98649C49.612 1.3313 49.152 0.703983 48.6781 0C47.7162 1.53343 46.817 2.9414 45.9318 4.36331C44.8514 6.09887 43.792 7.84837 42.7186 9.59091C41.8612 10.978 40.997 12.365 40.1396 13.7521C39.1081 15.4179 38.0764 17.0838 37.0379 18.7427C36.076 20.2831 35.0723 21.8026 34.1453 23.3639L41.4639 38.266C41.436 38.1127 41.464 37.9594 41.6034 37.7921C42.1749 37.102 42.7046 36.3841 43.2553 35.6801C44.6981 33.847 46.1479 32.0138 47.5907 30.1807C48.7477 28.703 49.7166 27.0999 50.4624 25.3852C50.9991 24.1515 51.5288 22.8969 51.8913 21.6004C52.2886 20.1855 52.4837 18.7148 52.7695 17.265C53.125 15.4667 53.0831 13.6406 52.9925 11.8213Z" fill="url(#paint2_linear_79_137)"/>
<g opacity="0.55" filter="url(#filter0_d_79_137)">
<path d="M41.3787 38.1577L42.8076 36.2757L34.1506 23.374L41.3787 38.1577Z" fill="#596880"/>
</g>
<path d="M43.7578 43.1607C43.4859 42.5962 43.2768 42.0037 43.005 41.4391C42.531 40.4494 42.0361 39.4805 41.5482 38.4977C41.5133 38.421 41.4855 38.3514 41.4715 38.2816L34.1529 23.3795C35.0799 21.8182 36.0836 20.3057 37.0455 18.7583C35.993 20.4451 34.8848 22.097 33.888 23.8186C32.724 25.833 31.6228 27.8822 30.5424 29.9384C29.4132 32.0922 28.5559 34.3505 28.075 36.7552C27.5313 39.4944 27.9565 42.0664 29.3087 44.4363C30.4866 46.4925 31.8528 48.4371 33.1492 50.4236C34.2923 52.1731 35.4563 53.9017 36.6064 55.6373C37.4498 56.9128 38.3002 58.1953 39.1575 59.4918C39.5199 59.2757 39.8614 59.0945 40.1751 58.8784C40.5306 58.6414 40.886 58.3905 41.2136 58.1117C43.9041 55.8185 45.556 53.0095 45.6536 49.3851C45.6954 47.7192 45.2284 46.1997 44.5872 44.6802C44.3223 44.1714 44.0087 43.6765 43.7578 43.1607Z" fill="url(#paint3_linear_79_137)"/>
<path opacity="0.3" d="M21.4404 49.4632L12.6371 38.29L11.8147 39.9768L21.4404 49.4632Z" fill="#7F8E9B"/>
<path d="M94.543 52.0856L88.927 46.3744C88.5779 46.4061 88.2289 46.422 87.8799 46.422C87.5309 46.4537 87.1819 46.4696 86.8329 46.4696C83.4696 46.4696 80.5505 45.8508 78.0756 44.6134C75.6325 43.376 73.7446 41.504 72.412 38.9974C71.1111 36.4908 70.4607 33.3496 70.4607 29.5739C70.4607 25.7664 71.1111 22.6252 72.412 20.1504C73.7446 17.6438 75.6325 15.7717 78.0756 14.5343C80.5505 13.2969 83.4696 12.6782 86.8329 12.6782C90.2596 12.6782 93.1945 13.2969 95.6377 14.5343C98.0808 15.7717 99.9528 17.6438 101.254 20.1504C102.586 22.6252 103.253 25.7664 103.253 29.5739C103.253 33.6669 102.475 36.9985 100.921 39.5685C99.3975 42.1386 97.24 43.9947 94.4478 45.1369L101.634 52.0856H94.543ZM86.8329 41.9482C88.5779 41.9482 90.1168 41.7102 91.4494 41.2343C92.8138 40.7583 93.956 40.0286 94.8762 39.045C95.828 38.0614 96.5419 36.8239 97.0179 35.3327C97.5255 33.8414 97.7794 32.1122 97.7794 30.145V29.0979C97.7794 27.0673 97.5255 25.3063 97.0179 23.8151C96.5419 22.3238 95.828 21.0864 94.8762 20.1028C93.956 19.1192 92.8138 18.3894 91.4494 17.9135C90.1168 17.4375 88.5779 17.1996 86.8329 17.1996C85.1195 17.1996 83.5806 17.4375 82.2163 17.9135C80.8837 18.3894 79.7414 19.1192 78.7896 20.1028C77.8694 21.0864 77.1714 22.3238 76.6954 23.8151C76.2195 25.3063 75.9815 27.0673 75.9815 29.0979V30.145C75.9815 32.1122 76.2195 33.8414 76.6954 35.3327C77.1714 36.8239 77.8694 38.0614 78.7896 39.045C79.7414 40.0286 80.8837 40.7583 82.2163 41.2343C83.5806 41.7102 85.1195 41.9482 86.8329 41.9482ZM115.254 45.8984L105.973 20.8643H111.161L115.492 32.8102C115.682 33.3813 115.92 34.127 116.205 35.0471C116.491 35.9355 116.777 36.8557 117.062 37.8075C117.348 38.7594 117.602 39.6161 117.824 40.3776H118.062C118.252 39.6478 118.474 38.8229 118.728 37.9027C119.013 36.9509 119.299 36.0149 119.585 35.0947C119.87 34.1746 120.124 33.4131 120.346 32.8102L124.63 20.8643H129.674L120.346 45.8984H115.254ZM133.274 16.5332V11.4883H138.223V16.5332H133.274ZM133.274 45.8984V20.8643H138.223V45.8984H133.274ZM144.614 54.1321V20.8643H148.66L149.088 24.291H149.421C150.278 22.9584 151.373 21.9589 152.705 21.2926C154.038 20.6263 155.529 20.2931 157.179 20.2931C159.241 20.2931 161.002 20.7532 162.462 21.6733C163.953 22.5935 165.095 24.0213 165.889 25.9568C166.682 27.8922 167.078 30.3988 167.078 33.4765C167.078 36.4591 166.666 38.9181 165.841 40.8535C165.048 42.7573 163.921 44.1692 162.462 45.0893C161.002 46.0095 159.321 46.4696 157.417 46.4696C156.306 46.4696 155.275 46.3426 154.323 46.0888C153.372 45.835 152.515 45.4384 151.753 44.899C151.024 44.3596 150.389 43.6774 149.85 42.8525H149.564V54.1321H144.614ZM155.704 42.1861C157.195 42.1861 158.401 41.9006 159.321 41.3295C160.241 40.7266 160.907 39.8065 161.32 38.569C161.764 37.3316 161.986 35.761 161.986 33.8573V33.0006C161.986 31.0017 161.764 29.3835 161.32 28.1461C160.875 26.9086 160.193 26.0044 159.273 25.4332C158.385 24.8621 157.227 24.5765 155.799 24.5765C154.339 24.5765 153.149 24.9097 152.229 25.576C151.309 26.2106 150.627 27.1625 150.183 28.4316C149.77 29.7008 149.564 31.2396 149.564 33.0482V33.7145C149.564 35.2058 149.707 36.4908 149.992 37.5696C150.278 38.6484 150.69 39.5368 151.23 40.2348C151.769 40.9011 152.42 41.3929 153.181 41.7102C153.943 42.0275 154.783 42.1861 155.704 42.1861ZM172.176 45.8984V11.4883H177.126V45.8984H172.176ZM193.892 46.4696C191.322 46.4696 189.164 46.0095 187.419 45.0893C185.706 44.1375 184.405 42.6938 183.516 40.7583C182.628 38.8229 182.184 36.3639 182.184 33.3813C182.184 30.3671 182.628 27.9081 183.516 26.0044C184.405 24.0689 185.722 22.6411 187.467 21.7209C189.212 20.7691 191.385 20.2931 193.987 20.2931C196.367 20.2931 198.35 20.7532 199.936 21.6733C201.554 22.5618 202.776 23.9261 203.601 25.7664C204.426 27.6067 204.838 29.9229 204.838 32.715V34.6188H187.276C187.34 36.3956 187.609 37.8869 188.085 39.0926C188.561 40.2665 189.275 41.1391 190.227 41.7102C191.211 42.2496 192.448 42.5193 193.939 42.5193C194.86 42.5193 195.685 42.4082 196.414 42.1861C197.144 41.9323 197.763 41.5833 198.27 41.1391C198.778 40.6632 199.175 40.1079 199.46 39.4733C199.746 38.807 199.889 38.0614 199.889 37.2364H204.743C204.743 38.7277 204.489 40.0444 203.982 41.1867C203.474 42.3289 202.728 43.2967 201.745 44.0899C200.793 44.8514 199.651 45.4384 198.318 45.8508C196.985 46.2633 195.51 46.4696 193.892 46.4696ZM187.372 31.0017H199.651C199.651 29.7642 199.508 28.733 199.222 27.9081C198.968 27.0514 198.588 26.3534 198.08 25.814C197.572 25.2746 196.97 24.8938 196.272 24.6717C195.573 24.4179 194.78 24.291 193.892 24.291C192.559 24.291 191.417 24.529 190.465 25.0049C189.545 25.4808 188.831 26.2265 188.323 27.2418C187.816 28.2254 187.498 29.4787 187.372 31.0017Z" fill="#233F93"/>
<defs>
<filter id="filter0_d_79_137" x="28.2014" y="23.374" width="20.5554" height="26.6821" filterUnits="userSpaceOnUse" color-interpolation-filters="sRGB">
<feFlood flood-opacity="0" result="BackgroundImageFix"/>
<feColorMatrix in="SourceAlpha" type="matrix" values="0 0 0 0 0 0 0 0 0 0 0 0 0 0 0 0 0 0 127 0" result="hardAlpha"/>
<feOffset dy="5.94919"/>
<feGaussianBlur stdDeviation="2.97459"/>
<feComposite in2="hardAlpha" operator="out"/>
<feColorMatrix type="matrix" values="0 0 0 0 0 0 0 0 0 0 0 0 0 0 0 0 0 0 0.25 0"/>
<feBlend mode="normal" in2="BackgroundImageFix" result="effect1_dropShadow_79_137"/>
<feBlend mode="normal" in="SourceGraphic" in2="effect1_dropShadow_79_137" result="shape"/>
</filter>
<linearGradient id="paint0_linear_79_137" x1="12.3758" y1="39.4113" x2="14.957" y2="59.4686" gradientUnits="userSpaceOnUse">
<stop stop-color="#214496"/>
<stop offset="1" stop-color="#438DCA"/>
</linearGradient>
<linearGradient id="paint1_linear_79_137" x1="2.62514" y1="0.811564" x2="22.1268" y2="49.5658" gradientUnits="userSpaceOnUse">
<stop stop-color="#3484C8"/>
<stop offset="1" stop-color="#26B9EA"/>
</linearGradient>
<linearGradient id="paint2_linear_79_137" x1="51.3783" y1="1.09045e-07" x2="37.5646" y2="35.3468" gradientUnits="userSpaceOnUse">
<stop offset="0.010247" stop-color="#2BBAF3"/>
<stop offset="1" stop-color="#3A86C1"/>
</linearGradient>
<linearGradient id="paint3_linear_79_137" x1="36.7507" y1="18.7583" x2="36.7507" y2="59.4918" gradientUnits="userSpaceOnUse">
<stop stop-color="#233F93"/>
<stop offset="1" stop-color="#4494CF"/>
</linearGradient>
</defs>
</svg>
