<svg width="14" height="18" viewBox="0 0 14 18" fill="none" xmlns="http://www.w3.org/2000/svg">
<path d="M10.5999 2.28981C9.49992 2.18981 8.52992 2.99981 8.42992 4.10981L8.17992 6.99981H10.9999V8.99981H7.99992L7.55992 14.0698C7.36992 16.2698 5.42992 17.8998 3.22992 17.6998C1.91992 17.5898 0.819922 16.8598 0.169922 15.8298L1.66992 14.3298C1.90992 15.0698 2.56992 15.6398 3.39992 15.7098C4.49992 15.8098 5.46992 14.9998 5.56992 13.8898L5.99992 8.99981H2.99992V6.99981H6.16992L6.43992 3.92981C6.62992 1.72981 8.56992 0.0998082 10.7699 0.299808C12.0799 0.409808 13.1799 1.13981 13.8299 2.16981L12.3299 3.66981C12.0899 2.92981 11.4299 2.35981 10.5999 2.28981Z" fill="#121212" fill-opacity="0.6"/>
</svg>
