<svg width="21" height="20" viewBox="0 0 21 20" fill="none" xmlns="http://www.w3.org/2000/svg">
<path d="M14.667 9.99992C17.197 9.99992 19.2503 7.94659 19.2503 5.41659C19.2503 2.88659 17.197 0.833252 14.667 0.833252C12.137 0.833252 10.0837 2.88659 10.0837 5.41659C10.0837 7.94659 12.137 9.99992 14.667 9.99992ZM19.6628 15.1333C19.3053 14.7666 18.8562 14.5833 18.3337 14.5833H11.917L10.0103 13.9141L10.3128 13.0524L11.917 13.6666H14.4837C14.8045 13.6666 15.0612 13.5383 15.272 13.3274C15.4828 13.1166 15.5837 12.8599 15.5837 12.5758C15.5837 12.0808 15.3453 11.7416 14.8687 11.5491L8.20451 9.08325H6.41701V17.3333L12.8337 19.1666L20.1945 16.4166C20.2037 15.9308 20.0203 15.4999 19.6628 15.1333ZM4.58368 9.08325H0.902344V19.1666H4.58368V9.08325Z" fill="#1C023B"/>
</svg>
