<svg width="22" height="22" viewBox="0 0 22 22" fill="none" xmlns="http://www.w3.org/2000/svg">
<path d="M14.667 10.9999C17.197 10.9999 19.2503 8.94659 19.2503 6.41659C19.2503 3.88659 17.197 1.83325 14.667 1.83325C12.137 1.83325 10.0837 3.88659 10.0837 6.41659C10.0837 8.94659 12.137 10.9999 14.667 10.9999ZM19.6628 16.1333C19.3053 15.7666 18.8562 15.5833 18.3337 15.5833H11.917L10.0103 14.9141L10.3128 14.0524L11.917 14.6666H14.4837C14.8045 14.6666 15.0612 14.5383 15.272 14.3274C15.4828 14.1166 15.5837 13.8599 15.5837 13.5758C15.5837 13.0808 15.3453 12.7416 14.8687 12.5491L8.20451 10.0833H6.41701V18.3333L12.8337 20.1666L20.1945 17.4166C20.2037 16.9308 20.0203 16.4999 19.6628 16.1333ZM4.58368 10.0833H0.902344V20.1666H4.58368V10.0833Z" fill="#121212" fill-opacity="0.45"/>
</svg>
