<svg width="42" height="42" viewBox="0 0 42 42" fill="none" xmlns="http://www.w3.org/2000/svg">
<path d="M11.6667 18.6667L21 10.5L30.3333 18.6667V30.3333H24.5V25.6667C24.5 24.7385 24.1312 23.8482 23.4749 23.1918C22.8185 22.5355 21.9283 22.1667 21 22.1667C20.0718 22.1667 19.1815 22.5355 18.5251 23.1918C17.8688 23.8482 17.5 24.7384 17.5 25.6667V30.3333H11.6667V18.6667Z" fill="#1C023B"/>
<path d="M11.6667 18.6667L21 10.5L30.3333 18.6667V30.3333H24.5V25.6667C24.5 24.7385 24.1312 23.8482 23.4749 23.1918C22.8185 22.5355 21.9282 22.1667 21 22.1667C20.0717 22.1667 19.1815 22.5355 18.5251 23.1918C17.8687 23.8482 17.5 24.7384 17.5 25.6667V30.3333H11.6667L11.6667 18.6667Z" stroke="#1C023B" stroke-width="1.5" stroke-linecap="round" stroke-linejoin="round"/>
</svg>
