<svg width="42" height="52" viewBox="0 0 42 52" fill="none" xmlns="http://www.w3.org/2000/svg">
<path d="M11.6667 18.6667L21 10.5L30.3333 18.6667V30.3333H24.5V25.6667C24.5 24.7385 24.1312 23.8482 23.4749 23.1918C22.8185 22.5355 21.9283 22.1667 21 22.1667C20.0718 22.1667 19.1815 22.5355 18.5251 23.1918C17.8688 23.8482 17.5 24.7384 17.5 25.6667V30.3333H11.6667V18.6667Z" fill="#1C023B"/>
<path d="M11.6667 18.6667L21 10.5L30.3333 18.6667V30.3333H24.5V25.6667C24.5 24.7385 24.1312 23.8482 23.4749 23.1918C22.8185 22.5355 21.9282 22.1667 21 22.1667C20.0717 22.1667 19.1815 22.5355 18.5251 23.1918C17.8687 23.8482 17.5 24.7384 17.5 25.6667V30.3333H11.6667L11.6667 18.6667Z" stroke="#1C023B" stroke-width="1.5" stroke-linecap="round" stroke-linejoin="round"/>
<path d="M5.05682 49V40.2727H6.11364V44.1591H10.767V40.2727H11.8239V49H10.767V45.0966H6.11364V49H5.05682ZM16.4624 49.1364C15.8714 49.1364 15.353 48.9957 14.907 48.7145C14.4638 48.4332 14.1172 48.0398 13.8672 47.5341C13.62 47.0284 13.4964 46.4375 13.4964 45.7614C13.4964 45.0795 13.62 44.4844 13.8672 43.9759C14.1172 43.4673 14.4638 43.0724 14.907 42.7912C15.353 42.5099 15.8714 42.3693 16.4624 42.3693C17.0533 42.3693 17.5703 42.5099 18.0135 42.7912C18.4595 43.0724 18.8061 43.4673 19.0533 43.9759C19.3033 44.4844 19.4283 45.0795 19.4283 45.7614C19.4283 46.4375 19.3033 47.0284 19.0533 47.5341C18.8061 48.0398 18.4595 48.4332 18.0135 48.7145C17.5703 48.9957 17.0533 49.1364 16.4624 49.1364ZM16.4624 48.233C16.9112 48.233 17.2805 48.1179 17.5703 47.8878C17.8601 47.6577 18.0746 47.3551 18.2138 46.9801C18.353 46.6051 18.4226 46.1989 18.4226 45.7614C18.4226 45.3239 18.353 44.9162 18.2138 44.5384C18.0746 44.1605 17.8601 43.8551 17.5703 43.6222C17.2805 43.3892 16.9112 43.2727 16.4624 43.2727C16.0135 43.2727 15.6442 43.3892 15.3544 43.6222C15.0646 43.8551 14.8501 44.1605 14.7109 44.5384C14.5717 44.9162 14.5021 45.3239 14.5021 45.7614C14.5021 46.1989 14.5717 46.6051 14.7109 46.9801C14.8501 47.3551 15.0646 47.6577 15.3544 47.8878C15.6442 48.1179 16.0135 48.233 16.4624 48.233ZM20.9634 49V42.4545H21.935V43.4773H22.0202C22.1566 43.1278 22.3768 42.8565 22.6808 42.6634C22.9847 42.4673 23.3498 42.3693 23.7759 42.3693C24.2077 42.3693 24.5671 42.4673 24.854 42.6634C25.1438 42.8565 25.3697 43.1278 25.5316 43.4773H25.5998C25.7674 43.1392 26.0188 42.8707 26.354 42.6719C26.6893 42.4702 27.0913 42.3693 27.56 42.3693C28.1452 42.3693 28.6239 42.5526 28.9961 42.919C29.3683 43.2827 29.5543 43.8494 29.5543 44.6193V49H28.5487V44.6193C28.5487 44.1364 28.4165 43.7912 28.1523 43.5838C27.8881 43.3764 27.5771 43.2727 27.2191 43.2727C26.7589 43.2727 26.4023 43.4119 26.1495 43.6903C25.8967 43.9659 25.7702 44.3153 25.7702 44.7386V49H24.7475V44.517C24.7475 44.1449 24.6268 43.8452 24.3853 43.6179C24.1438 43.3878 23.8327 43.2727 23.4521 43.2727C23.1907 43.2727 22.9464 43.3423 22.7191 43.4815C22.4947 43.6207 22.3129 43.8139 22.1737 44.0611C22.0373 44.3054 21.9691 44.5881 21.9691 44.9091V49H20.9634ZM34.1374 49.1364C33.5067 49.1364 32.9627 48.9972 32.5053 48.7188C32.0508 48.4375 31.6999 48.0455 31.4528 47.5426C31.2085 47.0369 31.0863 46.4489 31.0863 45.7784C31.0863 45.108 31.2085 44.517 31.4528 44.0057C31.6999 43.4915 32.0437 43.0909 32.484 42.804C32.9272 42.5142 33.4442 42.3693 34.0352 42.3693C34.3761 42.3693 34.7127 42.4261 35.0451 42.5398C35.3775 42.6534 35.68 42.8381 35.9528 43.0938C36.2255 43.3466 36.4428 43.6818 36.6048 44.0994C36.7667 44.517 36.8477 45.0312 36.8477 45.642V46.0682H31.8022V45.1989H35.8249C35.8249 44.8295 35.7511 44.5 35.6033 44.2102C35.4585 43.9205 35.2511 43.6918 34.9812 43.5241C34.7141 43.3565 34.3988 43.2727 34.0352 43.2727C33.6346 43.2727 33.288 43.3722 32.9954 43.571C32.7056 43.767 32.4826 44.0227 32.3263 44.3381C32.1701 44.6534 32.092 44.9915 32.092 45.3523V45.9318C32.092 46.4261 32.1772 46.8452 32.3477 47.1889C32.521 47.5298 32.761 47.7898 33.0678 47.9688C33.3746 48.1449 33.7312 48.233 34.1374 48.233C34.4016 48.233 34.6403 48.196 34.8533 48.1222C35.0692 48.0455 35.2553 47.9318 35.4116 47.7812C35.5678 47.6278 35.6886 47.4375 35.7738 47.2102L36.7454 47.483C36.6431 47.8125 36.4712 48.1023 36.2298 48.3523C35.9883 48.5994 35.69 48.7926 35.3349 48.9318C34.9798 49.0682 34.5806 49.1364 34.1374 49.1364Z" fill="#121212"/>
</svg>
