<svg width="100" height="24" viewBox="0 0 100 24" fill="none" xmlns="http://www.w3.org/2000/svg">
<path d="M44.6548 5.77649V15.9583H43.1186V5.77649H44.6548ZM50.1882 15.9583H46.892V5.77649H50.2926C51.2902 5.77649 52.147 5.98033 52.8629 6.388C53.5788 6.79236 54.1274 7.37403 54.5085 8.13303C54.893 8.88871 55.0852 9.7952 55.0852 10.8525C55.0852 11.9131 54.8913 12.8246 54.5036 13.5869C54.1191 14.3492 53.5623 14.9358 52.8331 15.3468C52.1039 15.7545 51.2223 15.9583 50.1882 15.9583ZM48.4283 14.616H50.1037C50.8793 14.616 51.5239 14.4702 52.0376 14.1785C52.5514 13.8835 52.9358 13.4576 53.1911 12.9008C53.4463 12.3407 53.5739 11.6579 53.5739 10.8525C53.5739 10.0537 53.4463 9.37593 53.1911 8.81911C52.9392 8.26229 52.563 7.8397 52.0625 7.55135C51.562 7.263 50.9406 7.11882 50.1982 7.11882H48.4283V14.616ZM69.1573 9.08757H67.6062C67.5465 8.75613 67.4355 8.46447 67.2731 8.21257C67.1107 7.96068 66.9118 7.7469 66.6765 7.57124C66.4412 7.39558 66.1777 7.263 65.886 7.17351C65.5977 7.08402 65.2911 7.03928 64.9663 7.03928C64.3796 7.03928 63.8543 7.18677 63.3903 7.48175C62.9296 7.77673 62.565 8.20926 62.2965 8.77934C62.0314 9.34941 61.8988 10.0454 61.8988 10.8674C61.8988 11.696 62.0314 12.3953 62.2965 12.9654C62.565 13.5355 62.9312 13.9664 63.3952 14.258C63.8593 14.5497 64.3813 14.6955 64.9613 14.6955C65.2828 14.6955 65.5877 14.6524 65.8761 14.5663C66.1677 14.4768 66.4312 14.3459 66.6665 14.1735C66.9019 14.0012 67.1007 13.7907 67.2631 13.5421C67.4289 13.2902 67.5432 13.0019 67.6062 12.6771L69.1573 12.682C69.0745 13.1825 68.9137 13.6432 68.6751 14.0641C68.4397 14.4818 68.1365 14.843 67.7653 15.1479C67.3974 15.4496 66.9764 15.6832 66.5025 15.8489C66.0285 16.0147 65.5115 16.0975 64.9513 16.0975C64.0697 16.0975 63.2842 15.8887 62.5948 15.4711C61.9054 15.0502 61.3619 14.4486 60.9641 13.6664C60.5697 12.8842 60.3725 11.9512 60.3725 10.8674C60.3725 9.78028 60.5714 8.84728 60.9691 8.0684C61.3668 7.2862 61.9104 6.6863 62.5998 6.26868C63.2892 5.84775 64.073 5.63729 64.9513 5.63729C65.4916 5.63729 65.9954 5.71518 66.4627 5.87096C66.9334 6.02342 67.3559 6.2488 67.7305 6.54709C68.105 6.84207 68.4149 7.20334 68.6602 7.6309C68.9054 8.05514 69.0711 8.5407 69.1573 9.08757ZM73.0985 16.1273C72.6146 16.1273 72.1771 16.0379 71.786 15.8589C71.3949 15.6766 71.085 15.4131 70.8564 15.0684C70.631 14.7237 70.5183 14.3011 70.5183 13.8006C70.5183 13.3698 70.6011 13.0151 70.7669 12.7367C70.9326 12.4583 71.1563 12.2379 71.438 12.0755C71.7198 11.9131 72.0346 11.7905 72.3826 11.7076C72.7306 11.6247 73.0853 11.5618 73.4466 11.5187C73.9039 11.4657 74.2752 11.4226 74.5602 11.3894C74.8452 11.353 75.0524 11.295 75.1816 11.2154C75.3109 11.1359 75.3755 11.0066 75.3755 10.8276V10.7928C75.3755 10.3586 75.2529 10.0222 75.0076 9.7836C74.7657 9.54496 74.4044 9.42564 73.9238 9.42564C73.4234 9.42564 73.0289 9.53667 72.7406 9.75874C72.4556 9.97749 72.2583 10.2211 72.149 10.4896L70.752 10.1714C70.9177 9.70737 71.1596 9.33284 71.4778 9.0478C71.7993 8.75945 72.1689 8.55064 72.5865 8.42138C73.0041 8.28881 73.4432 8.22252 73.9039 8.22252C74.2089 8.22252 74.532 8.25898 74.8734 8.33189C75.2181 8.40149 75.5396 8.53076 75.8379 8.71968C76.1395 8.9086 76.3864 9.17872 76.5787 9.53005C76.7709 9.87806 76.867 10.3305 76.867 10.8873V15.9583H75.4153V14.9143H75.3556C75.2595 15.1065 75.1154 15.2954 74.9231 15.481C74.7309 15.6666 74.484 15.8208 74.1824 15.9434C73.8807 16.066 73.5195 16.1273 73.0985 16.1273ZM73.4217 14.9342C73.8327 14.9342 74.184 14.853 74.4757 14.6906C74.7707 14.5282 74.9944 14.316 75.1468 14.0542C75.3026 13.789 75.3805 13.5057 75.3805 13.2041V12.2197C75.3275 12.2727 75.2247 12.3224 75.0723 12.3688C74.9231 12.4119 74.7524 12.45 74.5602 12.4832C74.368 12.513 74.1807 12.5412 73.9984 12.5677C73.8161 12.5909 73.6636 12.6108 73.541 12.6273C73.2527 12.6638 72.9892 12.7251 72.7505 12.8113C72.5152 12.8975 72.3263 13.0218 72.1838 13.1842C72.0446 13.3433 71.975 13.5554 71.975 13.8205C71.975 14.1884 72.1109 14.4668 72.3826 14.6558C72.6544 14.8414 73.0008 14.9342 73.4217 14.9342ZM78.8469 15.9583V8.32195H80.2837V9.53502H80.3633C80.5025 9.12403 80.7478 8.80088 81.0991 8.56556C81.4537 8.32692 81.8548 8.2076 82.3022 8.2076C82.395 8.2076 82.5044 8.21092 82.6303 8.21755C82.7596 8.22417 82.8607 8.23246 82.9336 8.2424V9.66428C82.8739 9.64771 82.7679 9.62948 82.6154 9.60959C82.4629 9.58639 82.3105 9.57479 82.158 9.57479C81.8067 9.57479 81.4935 9.64936 81.2184 9.79851C80.9466 9.94434 80.7312 10.1482 80.5721 10.41C80.413 10.6685 80.3335 10.9635 80.3335 11.295V15.9583H78.8469ZM86.8052 16.1075C86.1887 16.1075 85.6386 15.95 85.1547 15.6352C84.6741 15.317 84.2962 14.8646 84.0211 14.2779C83.7493 13.688 83.6135 12.9803 83.6135 12.155C83.6135 11.3298 83.751 10.6238 84.0261 10.0371C84.3045 9.4505 84.6857 9.0014 85.1696 8.68985C85.6535 8.37829 86.202 8.22252 86.8152 8.22252C87.2891 8.22252 87.6703 8.30206 87.9586 8.46115C88.2503 8.61693 88.4757 8.79922 88.6348 9.00803C88.7972 9.21684 88.9231 9.40078 89.0126 9.55988H89.1021V5.77649H90.5886V15.9583H89.1369V14.7701H89.0126C88.9231 14.9325 88.7939 15.1181 88.6248 15.3269C88.4591 15.5357 88.2304 15.718 87.9387 15.8738C87.6471 16.0296 87.2692 16.1075 86.8052 16.1075ZM87.1333 14.8397C87.5609 14.8397 87.9222 14.727 88.2172 14.5016C88.5154 14.2729 88.7408 13.9564 88.8933 13.5521C89.0491 13.1477 89.127 12.6771 89.127 12.1401C89.127 11.6098 89.0507 11.1458 88.8983 10.7481C88.7458 10.3504 88.5221 10.0405 88.2271 9.8184C87.9321 9.59633 87.5675 9.4853 87.1333 9.4853C86.6859 9.4853 86.313 9.60131 86.0147 9.83331C85.7164 10.0653 85.4911 10.3818 85.3386 10.7829C85.1895 11.1839 85.1149 11.6363 85.1149 12.1401C85.1149 12.6505 85.1911 13.1096 85.3436 13.5173C85.496 13.9249 85.7214 14.2481 86.0197 14.4867C86.3213 14.722 86.6925 14.8397 87.1333 14.8397ZM98.4325 10.1863L97.0852 10.4249C97.0289 10.2526 96.9394 10.0885 96.8168 9.93274C96.6974 9.77697 96.535 9.64936 96.3295 9.54993C96.1241 9.4505 95.8672 9.40078 95.5589 9.40078C95.138 9.40078 94.7867 9.49524 94.505 9.68416C94.2232 9.86977 94.0824 10.1101 94.0824 10.405C94.0824 10.6603 94.1768 10.8657 94.3658 11.0215C94.5547 11.1773 94.8596 11.3049 95.2805 11.4043L96.4936 11.6827C97.1963 11.8452 97.7199 12.0954 98.0646 12.4335C98.4093 12.7715 98.5817 13.2107 98.5817 13.7509C98.5817 14.2083 98.4491 14.616 98.1839 14.9739C97.9221 15.3286 97.5559 15.607 97.0852 15.8092C96.6179 16.0113 96.076 16.1124 95.4595 16.1124C94.6044 16.1124 93.9067 15.9301 93.3665 15.5656C92.8262 15.1977 92.4948 14.6756 92.3722 13.9995L93.8089 13.7808C93.8984 14.1553 94.0824 14.4387 94.3608 14.6309C94.6392 14.8198 95.0021 14.9143 95.4496 14.9143C95.9368 14.9143 96.3262 14.8132 96.6179 14.611C96.9096 14.4055 97.0554 14.1553 97.0554 13.8603C97.0554 13.6217 96.9659 13.4211 96.7869 13.2587C96.6113 13.0963 96.3411 12.9737 95.9766 12.8908L94.6839 12.6075C93.9714 12.4451 93.4444 12.1865 93.103 11.8319C92.7649 11.4773 92.5959 11.0282 92.5959 10.4846C92.5959 10.0338 92.7218 9.63942 92.9737 9.30135C93.2256 8.96328 93.5736 8.69979 94.0178 8.51087C94.4619 8.31863 94.9706 8.22252 95.544 8.22252C96.3693 8.22252 97.0189 8.40149 97.4929 8.75945C97.9669 9.11409 98.2801 9.5897 98.4325 10.1863Z" fill="white"/>
<path d="M19 3H14.82C14.4 1.84 13.3 1 12 1C10.7 1 9.6 1.84 9.18 3H5C3.9 3 3 3.9 3 5V19C3 20.1 3.9 21 5 21H19C20.1 21 21 20.1 21 19V5C21 3.9 20.1 3 19 3ZM12 3C12.55 3 13 3.45 13 4C13 4.55 12.55 5 12 5C11.45 5 11 4.55 11 4C11 3.45 11.45 3 12 3ZM12 7C13.66 7 15 8.34 15 10C15 11.66 13.66 13 12 13C10.34 13 9 11.66 9 10C9 8.34 10.34 7 12 7ZM18 19H6V17.6C6 15.6 10 14.5 12 14.5C14 14.5 18 15.6 18 17.6V19Z" fill="white"/>
</svg>
