<svg width="22" height="22" viewBox="0 0 22 22" fill="none" xmlns="http://www.w3.org/2000/svg">
<path d="M2.36474 17.4263L2.34641 17.4447C2.09891 16.9038 1.94307 16.2897 1.87891 15.6113C1.94307 16.2805 2.11724 16.8855 2.36474 17.4263Z" fill="#1C023B"/>
<path d="M8.25003 9.51568C9.45493 9.51568 10.4317 8.53891 10.4317 7.33401C10.4317 6.12911 9.45493 5.15234 8.25003 5.15234C7.04512 5.15234 6.06836 6.12911 6.06836 7.33401C6.06836 8.53891 7.04512 9.51568 8.25003 9.51568Z" fill="#1C023B"/>
<path d="M14.8415 1.83398H7.15982C3.82315 1.83398 1.83398 3.82315 1.83398 7.15982V14.8415C1.83398 15.8407 2.00815 16.7115 2.34732 17.4448C3.13565 19.1865 4.82232 20.1673 7.15982 20.1673H14.8415C18.1782 20.1673 20.1673 18.1782 20.1673 14.8415V12.7423V7.15982C20.1673 3.82315 18.1782 1.83398 14.8415 1.83398ZM18.6732 11.459C17.9582 10.8448 16.8032 10.8448 16.0882 11.459L12.2748 14.7315C11.5598 15.3457 10.4048 15.3457 9.68982 14.7315L9.37815 14.4748C8.72732 13.9065 7.69148 13.8515 6.95815 14.3465L3.52982 16.6473C3.32815 16.134 3.20898 15.5382 3.20898 14.8415V7.15982C3.20898 4.57482 4.57482 3.20898 7.15982 3.20898H14.8415C17.4265 3.20898 18.7923 4.57482 18.7923 7.15982V11.5598L18.6732 11.459Z" fill="#1C023B"/>
</svg>
