<svg width="22" height="22" viewBox="0 0 22 22" fill="none" xmlns="http://www.w3.org/2000/svg">
<path d="M21.8332 13.9276V15.4264C21.8332 15.6751 21.8224 15.926 21.8007 16.1747C21.4967 19.5971 19.1195 21.8334 15.6893 21.8334H6.31051C4.57371 21.8334 3.10828 21.2697 2.05534 20.2476C1.64285 19.8686 1.29548 19.4233 1.02411 18.9128C1.38233 18.4773 1.78396 18.0005 2.17474 17.5226C2.8369 16.7297 3.47735 15.9467 3.87899 15.4373C4.47601 14.6987 6.04999 12.7546 8.23186 13.6669C8.67691 13.8515 9.0677 14.1122 9.42591 14.3403C10.3052 14.9268 10.6742 15.1006 11.293 14.7639C11.9768 14.3946 12.4219 13.6669 12.8887 12.9066C13.1383 12.5037 13.388 12.1138 13.6594 11.7554C14.8426 10.2131 16.6662 9.80036 18.1859 10.7127C18.9458 11.1689 19.5971 11.7445 20.205 12.3299C20.3352 12.4602 20.4655 12.5808 20.5849 12.7003C20.7477 12.8632 21.2905 13.4062 21.8332 13.9276Z" fill="#F48603"/>
<path opacity="0.4" d="M15.7002 0.166687H6.31063C2.63077 0.166687 0.166672 2.74076 0.166672 6.57364V15.4265C0.166672 16.7613 0.470613 17.9463 1.02422 18.9129C1.38244 18.4774 1.78407 18.0006 2.17485 17.5216C2.83701 16.7298 3.47746 15.9468 3.8791 15.4374C4.47612 14.6988 6.05011 12.7547 8.23197 13.667C8.67703 13.8517 9.06781 14.1123 9.42602 14.3404C10.3053 14.9269 10.6744 15.1007 11.2931 14.7629C11.977 14.3947 12.422 13.667 12.8888 12.9057C13.1384 12.5038 13.3881 12.1139 13.6595 11.7555C14.8427 10.2132 16.6663 9.80047 18.186 10.7128C18.9459 11.169 19.5972 11.7446 20.2051 12.33C20.3353 12.4603 20.4656 12.5809 20.585 12.7004C20.7478 12.8622 21.2906 13.4053 21.8333 13.9277V6.57364C21.8333 2.74076 19.3692 0.166687 15.7002 0.166687Z" fill="#F48603"/>
<path d="M10.409 7.52976C10.409 9.05574 9.13783 10.3265 7.61269 10.3265C6.08865 10.3265 4.81752 9.05574 4.81752 7.52976C4.81752 6.00487 6.08865 4.73303 7.61269 4.73303C9.13783 4.73303 10.409 6.00487 10.409 7.52976Z" fill="#F48603"/>
</svg>
