<svg width="19" height="19" viewBox="0 0 19 19" fill="none" xmlns="http://www.w3.org/2000/svg">
<path d="M15.3636 1.36365H3.36365C2.25908 1.36365 1.36365 2.25908 1.36365 3.36365V15.3636C1.36365 15.4757 1.37287 15.5856 1.39058 15.6926C1.5475 16.6406 2.37115 17.3636 3.36365 17.3636H15.3636C16.4682 17.3636 17.3636 16.4682 17.3636 15.3636V11.5537V3.36365C17.3636 2.25908 16.4682 1.36365 15.3636 1.36365Z" stroke="#A0A0A0" stroke-width="1.3" stroke-linecap="round" stroke-linejoin="round"/>
<path d="M8.36365 6.36365C8.36365 7.46825 7.46825 8.36365 6.36365 8.36365C5.25908 8.36365 4.36365 7.46825 4.36365 6.36365C4.36365 5.25908 5.25908 4.36365 6.36365 4.36365C7.46825 4.36365 8.36365 5.25908 8.36365 6.36365Z" stroke="#A0A0A0" stroke-width="1.3" stroke-linecap="round" stroke-linejoin="round"/>
<path d="M1.39062 15.6927L5.21132 11.872C5.89135 11.277 6.88589 11.2119 7.6377 11.7131L8.14691 12.0525C8.8715 12.5356 9.8256 12.4942 10.5057 11.9502L13.1538 9.83156C13.8288 9.29156 14.769 9.24926 15.4865 9.71206C15.566 9.76336 15.6368 9.82686 15.7037 9.89386L17.3637 11.5538" stroke="#A0A0A0" stroke-width="1.3" stroke-linecap="round" stroke-linejoin="round"/>
</svg>
