<svg width="22" height="22" viewBox="0 0 22 22" fill="none" xmlns="http://www.w3.org/2000/svg">
<path d="M11.9163 8.24992H10.083V6.41659H11.9163V8.24992ZM11.9163 15.5833H10.083V10.0833H11.9163V15.5833ZM10.9997 1.83325C9.79589 1.83325 8.60389 2.07035 7.49174 2.53102C6.37959 2.99169 5.36907 3.6669 4.51786 4.51811C2.79878 6.23719 1.83301 8.56877 1.83301 10.9999C1.83301 13.4311 2.79878 15.7626 4.51786 17.4817C5.36907 18.3329 6.37959 19.0081 7.49174 19.4688C8.60389 19.9295 9.79589 20.1666 10.9997 20.1666C13.4308 20.1666 15.7624 19.2008 17.4815 17.4817C19.2006 15.7626 20.1663 13.4311 20.1663 10.9999C20.1663 9.79613 19.9292 8.60414 19.4686 7.49199C19.0079 6.37984 18.3327 5.36931 17.4815 4.51811C16.6303 3.6669 15.6198 2.99169 14.5076 2.53102C13.3955 2.07035 12.2035 1.83325 10.9997 1.83325Z" fill="#121212" fill-opacity="0.45"/>
</svg>
