<svg width="20" height="20" viewBox="0 0 20 20" fill="none" xmlns="http://www.w3.org/2000/svg">
<path d="M10.9163 7.24992H9.08301V5.41659H10.9163V7.24992ZM10.9163 14.5833H9.08301V9.08325H10.9163V14.5833ZM9.99967 0.833252C8.79589 0.833252 7.60389 1.07035 6.49174 1.53102C5.37959 1.99169 4.36907 2.6669 3.51786 3.51811C1.79878 5.23719 0.833008 7.56877 0.833008 9.99992C0.833008 12.4311 1.79878 14.7626 3.51786 16.4817C4.36907 17.3329 5.37959 18.0081 6.49174 18.4688C7.60389 18.9295 8.79589 19.1666 9.99967 19.1666C12.4308 19.1666 14.7624 18.2008 16.4815 16.4817C18.2006 14.7626 19.1663 12.4311 19.1663 9.99992C19.1663 8.79613 18.9292 7.60414 18.4686 6.49199C18.0079 5.37984 17.3327 4.36931 16.4815 3.51811C15.6303 2.6669 14.6198 1.99169 13.5076 1.53102C12.3955 1.07035 11.2035 0.833252 9.99967 0.833252V0.833252Z" fill="#1C023B"/>
</svg>
