<svg width="18" height="18" viewBox="0 0 18 18" fill="none" xmlns="http://www.w3.org/2000/svg">
<path d="M17.4375 4.50001V5.06251C17.4375 5.1371 17.4079 5.20864 17.3551 5.26138C17.3024 5.31413 17.2308 5.34376 17.1562 5.34376H16.3125V5.76563C16.3125 5.99862 16.1236 6.18751 15.8906 6.18751H2.10938C1.87639 6.18751 1.6875 5.99862 1.6875 5.76563V5.34376H0.84375C0.769158 5.34376 0.697621 5.31413 0.644876 5.26138C0.592132 5.20864 0.5625 5.1371 0.5625 5.06251V4.50001C0.5625 4.44437 0.579005 4.38998 0.609926 4.34372C0.640847 4.29746 0.684794 4.26141 0.736207 4.24013L8.89246 1.14638C8.96132 1.11787 9.03868 1.11787 9.10754 1.14638L17.2638 4.24013C17.3152 4.26141 17.3592 4.29746 17.3901 4.34372C17.421 4.38998 17.4375 4.44437 17.4375 4.50001ZM16.5938 15.1875H1.40625C0.940254 15.1875 0.5625 15.5653 0.5625 16.0313V16.5938C0.5625 16.6684 0.592132 16.7399 0.644876 16.7926C0.697621 16.8454 0.769158 16.875 0.84375 16.875H17.1562C17.2308 16.875 17.3024 16.8454 17.3551 16.7926C17.4079 16.7399 17.4375 16.6684 17.4375 16.5938V16.0313C17.4375 15.5653 17.0597 15.1875 16.5938 15.1875ZM3.375 6.75001V13.5H2.10938C1.87639 13.5 1.6875 13.6889 1.6875 13.9219V14.625H16.3125V13.9219C16.3125 13.6889 16.1236 13.5 15.8906 13.5H14.625V6.75001H12.375V13.5H10.125V6.75001H7.875V13.5H5.625V6.75001H3.375Z" fill="#121212" fill-opacity="0.45"/>
</svg>
