<svg width="24" height="24" viewBox="0 0 24 24" fill="none" xmlns="http://www.w3.org/2000/svg">
<path d="M7.39819 5.00677L7.38721 4.96677L7.34588 4.97017C6.55031 5.03563 5.88544 5.24781 5.42067 5.75367C4.95613 6.25928 4.7 7.049 4.7 8.25V18C4.7 19.1168 4.959 19.9447 5.50714 20.4929C6.05529 21.041 6.88323 21.3 8 21.3H16C17.1168 21.3 17.9447 21.041 18.4929 20.4929C19.041 19.9447 19.3 19.1168 19.3 18V8.25C19.3 7.04899 19.0439 6.26174 18.5793 5.75738C18.1146 5.25284 17.4498 5.04067 16.6544 4.9702L16.6125 4.96648L16.6017 5.00717C16.2674 6.26588 15.1167 7.2 13.75 7.2H10.25C9.46329 7.2 8.726 6.89528 8.16536 6.33464C7.79174 5.96102 7.53599 5.50875 7.39819 5.00677ZM16 22.7H8C6.49944 22.7 5.32608 22.2704 4.52786 21.4721C3.72963 20.6739 3.3 19.5006 3.3 18V8.25C3.3 6.68291 3.69794 5.51027 4.47911 4.72911C5.26027 3.94794 6.43291 3.55 8 3.55C8.38239 3.55 8.7 3.86761 8.7 4.25C8.7 4.66341 8.86538 5.05608 9.15465 5.34535C9.44392 5.63462 9.83659 5.8 10.25 5.8H13.75C14.6076 5.8 15.3 5.10761 15.3 4.25C15.3 3.86761 15.6176 3.55 16 3.55C17.5671 3.55 18.7397 3.94794 19.5209 4.72911C20.3021 5.51027 20.7 6.68291 20.7 8.25V18C20.7 19.5006 20.2704 20.6739 19.4721 21.4721C18.6739 22.2704 17.5006 22.7 16 22.7Z" fill="#888888" stroke="white" stroke-width="0.1"/>
<path d="M13.75 7.2H10.25C9.46329 7.2 8.726 6.89528 8.16536 6.33464C7.60472 5.774 7.3 5.03671 7.3 4.25C7.3 2.62761 8.62761 1.3 10.25 1.3H13.75C14.5367 1.3 15.274 1.60472 15.8346 2.16536C16.3953 2.726 16.7 3.46329 16.7 4.25C16.7 5.87239 15.3724 7.2 13.75 7.2ZM10.25 2.7C9.39239 2.7 8.7 3.39239 8.7 4.25C8.7 4.66341 8.86538 5.05608 9.15465 5.34535C9.44392 5.63462 9.83659 5.8 10.25 5.8H13.75C14.6076 5.8 15.3 5.10761 15.3 4.25C15.3 3.83659 15.1346 3.44392 14.8454 3.15465C14.5561 2.86538 14.1634 2.7 13.75 2.7H10.25Z" fill="#888888" stroke="white" stroke-width="0.1"/>
<path d="M12 13.7H8C7.61761 13.7 7.3 13.3824 7.3 13C7.3 12.6176 7.61761 12.3 8 12.3H12C12.3824 12.3 12.7 12.6176 12.7 13C12.7 13.3824 12.3824 13.7 12 13.7Z" fill="#888888" stroke="white" stroke-width="0.1"/>
<path d="M16 17.7H8C7.61761 17.7 7.3 17.3824 7.3 17C7.3 16.6176 7.61761 16.3 8 16.3H16C16.3824 16.3 16.7 16.6176 16.7 17C16.7 17.3824 16.3824 17.7 16 17.7Z" fill="#888888" stroke="white" stroke-width="0.1"/>
</svg>
