<svg width="162" height="24" viewBox="0 0 162 24" fill="none" xmlns="http://www.w3.org/2000/svg">
<path d="M43.1186 15.9585V5.77668H44.6548V14.6361H49.2685V15.9585H43.1186ZM54.1928 16.1126C53.4405 16.1126 52.7925 15.9519 52.2489 15.6304C51.7087 15.3056 51.2911 14.8498 50.9961 14.2632C50.7044 13.6732 50.5586 12.9822 50.5586 12.19C50.5586 11.4078 50.7044 10.7184 50.9961 10.1218C51.2911 9.52526 51.7021 9.05958 52.229 8.72483C52.7594 8.39008 53.3791 8.2227 54.0884 8.2227C54.5193 8.2227 54.9369 8.29396 55.3413 8.43648C55.7456 8.579 56.1085 8.80272 56.43 9.10764C56.7515 9.41257 57.0051 9.80864 57.1907 10.2959C57.3763 10.7798 57.4691 11.3681 57.4691 12.0608V12.5878H51.3988V11.4741H56.0124C56.0124 11.083 55.9329 10.7367 55.7738 10.4351C55.6147 10.1301 55.391 9.88984 55.1026 9.71418C54.8176 9.53851 54.4828 9.45068 54.0984 9.45068C53.6808 9.45068 53.3162 9.55343 53.0046 9.75892C52.6964 9.9611 52.4577 10.2263 52.2887 10.5544C52.123 10.8792 52.0401 11.2322 52.0401 11.6133V12.4834C52.0401 12.9938 52.1296 13.428 52.3086 13.7859C52.4909 14.1439 52.7444 14.4173 53.0692 14.6062C53.3941 14.7918 53.7736 14.8846 54.2077 14.8846C54.4895 14.8846 54.7463 14.8449 54.9783 14.7653C55.2103 14.6825 55.4109 14.5598 55.5799 14.3974C55.7489 14.235 55.8782 14.0345 55.9677 13.7959L57.3746 14.0494C57.262 14.4637 57.0598 14.8266 56.7681 15.1382C56.4798 15.4464 56.1168 15.6867 55.6793 15.8591C55.2451 16.0281 54.7496 16.1126 54.1928 16.1126ZM61.3407 16.1275C60.8568 16.1275 60.4193 16.038 60.0282 15.8591C59.6371 15.6768 59.3272 15.4133 59.0985 15.0686C58.8732 14.7239 58.7605 14.3013 58.7605 13.8008C58.7605 13.37 58.8433 13.0153 59.0091 12.7369C59.1748 12.4585 59.3985 12.2381 59.6802 12.0757C59.9619 11.9133 60.2768 11.7906 60.6248 11.7078C60.9728 11.6249 61.3275 11.562 61.6887 11.5189C62.1461 11.4658 62.5173 11.4227 62.8024 11.3896C63.0874 11.3531 63.2946 11.2951 63.4238 11.2156C63.5531 11.1361 63.6177 11.0068 63.6177 10.8278V10.793C63.6177 10.3588 63.4951 10.0224 63.2498 9.78378C63.0079 9.54514 62.6466 9.42583 62.166 9.42583C61.6655 9.42583 61.2711 9.53686 60.9828 9.75892C60.6977 9.97767 60.5005 10.2213 60.3912 10.4897L58.9941 10.1716C59.1599 9.70755 59.4018 9.33302 59.72 9.04798C60.0415 8.75963 60.411 8.55083 60.8287 8.42156C61.2463 8.28899 61.6854 8.2227 62.1461 8.2227C62.4511 8.2227 62.7742 8.25916 63.1156 8.33208C63.4603 8.40168 63.7818 8.53094 64.0801 8.71986C64.3817 8.90878 64.6286 9.1789 64.8208 9.53023C65.0131 9.87824 65.1092 10.3307 65.1092 10.8875V15.9585H63.6575V14.9145H63.5978C63.5017 15.1067 63.3575 15.2956 63.1653 15.4812C62.9731 15.6668 62.7261 15.8209 62.4245 15.9436C62.1229 16.0662 61.7617 16.1275 61.3407 16.1275ZM61.6639 14.9343C62.0749 14.9343 62.4262 14.8531 62.7179 14.6907C63.0128 14.5283 63.2366 14.3162 63.389 14.0544C63.5448 13.7892 63.6227 13.5058 63.6227 13.2042V12.2199C63.5697 12.2729 63.4669 12.3226 63.3145 12.369C63.1653 12.4121 62.9946 12.4502 62.8024 12.4834C62.6101 12.5132 62.4229 12.5414 62.2406 12.5679C62.0583 12.5911 61.9058 12.611 61.7832 12.6275C61.4949 12.664 61.2314 12.7253 60.9927 12.8115C60.7574 12.8977 60.5685 13.0219 60.426 13.1843C60.2868 13.3434 60.2172 13.5556 60.2172 13.8207C60.2172 14.1886 60.353 14.467 60.6248 14.6559C60.8966 14.8415 61.243 14.9343 61.6639 14.9343ZM73.3484 8.32213L70.5792 15.9585H68.9883L66.2141 8.32213H67.81L69.744 14.1986H69.8235L71.7525 8.32213H73.3484ZM77.7768 16.1126C77.0244 16.1126 76.3765 15.9519 75.8329 15.6304C75.2927 15.3056 74.8751 14.8498 74.5801 14.2632C74.2884 13.6732 74.1426 12.9822 74.1426 12.19C74.1426 11.4078 74.2884 10.7184 74.5801 10.1218C74.8751 9.52526 75.286 9.05958 75.813 8.72483C76.3433 8.39008 76.9631 8.2227 77.6724 8.2227C78.1033 8.2227 78.5209 8.29396 78.9252 8.43648C79.3296 8.579 79.6925 8.80272 80.014 9.10764C80.3355 9.41257 80.5891 9.80864 80.7747 10.2959C80.9603 10.7798 81.0531 11.3681 81.0531 12.0608V12.5878H74.9828V11.4741H79.5964C79.5964 11.083 79.5169 10.7367 79.3578 10.4351C79.1987 10.1301 78.975 9.88984 78.6866 9.71418C78.4016 9.53851 78.0668 9.45068 77.6824 9.45068C77.2647 9.45068 76.9002 9.55343 76.5886 9.75892C76.2804 9.9611 76.0417 10.2263 75.8727 10.5544C75.707 10.8792 75.6241 11.2322 75.6241 11.6133V12.4834C75.6241 12.9938 75.7136 13.428 75.8926 13.7859C76.0749 14.1439 76.3284 14.4173 76.6532 14.6062C76.978 14.7918 77.3575 14.8846 77.7917 14.8846C78.0734 14.8846 78.3303 14.8449 78.5623 14.7653C78.7943 14.6825 78.9949 14.5598 79.1639 14.3974C79.3329 14.235 79.4622 14.0345 79.5517 13.7959L80.9586 14.0494C80.8459 14.4637 80.6438 14.8266 80.3521 15.1382C80.0637 15.4464 79.7008 15.6867 79.2633 15.8591C78.8291 16.0281 78.3336 16.1126 77.7768 16.1126ZM88.4247 10.1865L87.0774 10.4251C87.0211 10.2528 86.9316 10.0887 86.8089 9.93293C86.6896 9.77715 86.5272 9.64955 86.3217 9.55012C86.1162 9.45068 85.8594 9.40097 85.5511 9.40097C85.1302 9.40097 84.7789 9.49543 84.4972 9.68435C84.2154 9.86995 84.0746 10.1102 84.0746 10.4052C84.0746 10.6604 84.169 10.8659 84.358 11.0217C84.5469 11.1775 84.8518 11.3051 85.2727 11.4045L86.4858 11.6829C87.1884 11.8453 87.7121 12.0956 88.0568 12.4336C88.4015 12.7717 88.5739 13.2109 88.5739 13.7511C88.5739 14.2085 88.4413 14.6162 88.1761 14.9741C87.9143 15.3288 87.5481 15.6072 87.0774 15.8093C86.6101 16.0115 86.0682 16.1126 85.4517 16.1126C84.5966 16.1126 83.8989 15.9303 83.3587 15.5657C82.8184 15.1978 82.487 14.6758 82.3643 13.9997L83.8011 13.7809C83.8906 14.1555 84.0746 14.4388 84.353 14.6311C84.6314 14.82 84.9943 14.9145 85.4418 14.9145C85.929 14.9145 86.3184 14.8134 86.6101 14.6112C86.9018 14.4057 87.0476 14.1555 87.0476 13.8605C87.0476 13.6218 86.9581 13.4213 86.7791 13.2589C86.6035 13.0965 86.3333 12.9739 85.9688 12.891L84.6761 12.6076C83.9635 12.4452 83.4366 12.1867 83.0952 11.8321C82.7571 11.4774 82.5881 11.0283 82.5881 10.4848C82.5881 10.034 82.714 9.6396 82.9659 9.30154C83.2178 8.96347 83.5658 8.69997 84.0099 8.51105C84.4541 8.31882 84.9628 8.2227 85.5362 8.2227C86.3615 8.2227 87.0111 8.40168 87.4851 8.75963C87.959 9.11427 88.2723 9.58989 88.4247 10.1865ZM96.8764 16.1027C96.1937 16.1027 95.6054 15.9784 95.1115 15.7298C94.621 15.4812 94.2431 15.1432 93.978 14.7156C93.7128 14.2847 93.5803 13.7975 93.5803 13.254C93.5803 12.8397 93.6664 12.4718 93.8388 12.1503C94.0111 11.8254 94.2514 11.5255 94.5597 11.2504C94.8679 10.9753 95.2242 10.6986 95.6286 10.4201L97.2692 9.26176C97.5476 9.07947 97.7647 8.88724 97.9205 8.68506C98.0762 8.47957 98.1541 8.22601 98.1541 7.92441C98.1541 7.68577 98.0514 7.45708 97.8459 7.23833C97.6404 7.01958 97.3653 6.9102 97.0206 6.9102C96.782 6.9102 96.5715 6.9682 96.3892 7.08421C96.2102 7.20021 96.0694 7.34936 95.9666 7.53165C95.8672 7.71063 95.8175 7.89955 95.8175 8.09841C95.8175 8.33042 95.8804 8.56408 96.0064 8.79941C96.1357 9.03473 96.3014 9.27833 96.5036 9.53023C96.7057 9.77881 96.9179 10.0373 97.1399 10.3058L101.868 15.9585H100.188L96.2749 11.3598C95.9467 10.972 95.6418 10.6074 95.3601 10.266C95.0784 9.92133 94.8497 9.57332 94.674 9.22199C94.5017 8.86735 94.4155 8.48454 94.4155 8.07355C94.4155 7.60622 94.5215 7.19192 94.7337 6.83065C94.9491 6.46607 95.2491 6.18103 95.6335 5.97554C96.018 5.77005 96.4688 5.6673 96.9858 5.6673C97.5095 5.6673 97.9586 5.77005 98.3331 5.97554C98.7109 6.17772 99.0009 6.44784 99.2031 6.78591C99.4086 7.12066 99.5114 7.48691 99.5114 7.88463C99.5114 8.36853 99.3904 8.79609 99.1484 9.1673C98.9098 9.5352 98.58 9.87327 98.1591 10.1815L96.1158 11.6879C95.718 11.9796 95.4413 12.2679 95.2855 12.553C95.133 12.8347 95.0568 13.0551 95.0568 13.2142C95.0568 13.5058 95.1314 13.776 95.2805 14.0245C95.433 14.2731 95.6451 14.472 95.9169 14.6211C96.192 14.7703 96.5135 14.8449 96.8814 14.8449C97.2592 14.8449 97.6271 14.7637 97.9851 14.6013C98.3464 14.4355 98.6728 14.1986 98.9645 13.8903C99.2595 13.5821 99.4931 13.2125 99.6655 12.7816C99.8378 12.3508 99.924 11.8685 99.924 11.3349H101.266C101.266 11.9912 101.192 12.5463 101.043 13.0004C100.893 13.4512 100.713 13.8191 100.501 14.1041C100.292 14.3858 100.095 14.6062 99.9091 14.7653C99.8494 14.8183 99.7931 14.8714 99.7401 14.9244C99.687 14.9774 99.6307 15.0305 99.571 15.0835C99.2263 15.4315 98.8087 15.6884 98.3182 15.8541C97.831 16.0198 97.3504 16.1027 96.8764 16.1027ZM106.355 7.09912V5.77668H114.235V7.09912H111.058V15.9585H109.527V7.09912H106.355ZM115.064 15.9585V8.32213H116.501V9.5352H116.58C116.719 9.12422 116.965 8.80106 117.316 8.56574C117.671 8.3271 118.072 8.20779 118.519 8.20779C118.612 8.20779 118.721 8.2111 118.847 8.21773C118.976 8.22436 119.077 8.23264 119.15 8.24259V9.66446C119.091 9.64789 118.985 9.62966 118.832 9.60977C118.68 9.58657 118.527 9.57497 118.375 9.57497C118.023 9.57497 117.71 9.64955 117.435 9.79869C117.163 9.94453 116.948 10.1484 116.789 10.4102C116.63 10.6687 116.55 10.9637 116.55 11.2951V15.9585H115.064ZM122.591 16.1275C122.107 16.1275 121.669 16.038 121.278 15.8591C120.887 15.6768 120.577 15.4133 120.349 15.0686C120.123 14.7239 120.01 14.3013 120.01 13.8008C120.01 13.37 120.093 13.0153 120.259 12.7369C120.425 12.4585 120.648 12.2381 120.93 12.0757C121.212 11.9133 121.527 11.7906 121.875 11.7078C122.223 11.6249 122.577 11.562 122.939 11.5189C123.396 11.4658 123.767 11.4227 124.052 11.3896C124.337 11.3531 124.545 11.2951 124.674 11.2156C124.803 11.1361 124.868 11.0068 124.868 10.8278V10.793C124.868 10.3588 124.745 10.0224 124.5 9.78378C124.258 9.54514 123.897 9.42583 123.416 9.42583C122.916 9.42583 122.521 9.53686 122.233 9.75892C121.948 9.97767 121.751 10.2213 121.641 10.4897L120.244 10.1716C120.41 9.70755 120.652 9.33302 120.97 9.04798C121.291 8.75963 121.661 8.55083 122.079 8.42156C122.496 8.28899 122.935 8.2227 123.396 8.2227C123.701 8.2227 124.024 8.25916 124.366 8.33208C124.71 8.40168 125.032 8.53094 125.33 8.71986C125.632 8.90878 125.879 9.1789 126.071 9.53023C126.263 9.87824 126.359 10.3307 126.359 10.8875V15.9585H124.907V14.9145H124.848C124.752 15.1067 124.608 15.2956 124.415 15.4812C124.223 15.6668 123.976 15.8209 123.675 15.9436C123.373 16.0662 123.012 16.1275 122.591 16.1275ZM122.914 14.9343C123.325 14.9343 123.676 14.8531 123.968 14.6907C124.263 14.5283 124.487 14.3162 124.639 14.0544C124.795 13.7892 124.873 13.5058 124.873 13.2042V12.2199C124.82 12.2729 124.717 12.3226 124.564 12.369C124.415 12.4121 124.245 12.4502 124.052 12.4834C123.86 12.5132 123.673 12.5414 123.491 12.5679C123.308 12.5911 123.156 12.611 123.033 12.6275C122.745 12.664 122.481 12.7253 122.243 12.8115C122.007 12.8977 121.818 13.0219 121.676 13.1843C121.537 13.3434 121.467 13.5556 121.467 13.8207C121.467 14.1886 121.603 14.467 121.875 14.6559C122.147 14.8415 122.493 14.9343 122.914 14.9343ZM129.826 11.4244V15.9585H128.339V8.32213H129.766V9.56503H129.86C130.036 9.16067 130.311 8.83586 130.686 8.5906C131.064 8.34533 131.539 8.2227 132.113 8.2227C132.633 8.2227 133.089 8.33208 133.48 8.55083C133.871 8.76626 134.174 9.08776 134.39 9.51531C134.605 9.94287 134.713 10.4715 134.713 11.1013V15.9585H133.226V11.2802C133.226 10.7267 133.082 10.2942 132.794 9.98264C132.505 9.66778 132.109 9.51034 131.605 9.51034C131.261 9.51034 130.954 9.58492 130.686 9.73406C130.421 9.88321 130.21 10.102 130.054 10.3903C129.902 10.6754 129.826 11.02 129.826 11.4244ZM142.429 10.1865L141.081 10.4251C141.025 10.2528 140.935 10.0887 140.813 9.93293C140.694 9.77715 140.531 9.64955 140.326 9.55012C140.12 9.45068 139.863 9.40097 139.555 9.40097C139.134 9.40097 138.783 9.49543 138.501 9.68435C138.219 9.86995 138.078 10.1102 138.078 10.4052C138.078 10.6604 138.173 10.8659 138.362 11.0217C138.551 11.1775 138.856 11.3051 139.277 11.4045L140.49 11.6829C141.192 11.8453 141.716 12.0956 142.061 12.4336C142.405 12.7717 142.578 13.2109 142.578 13.7511C142.578 14.2085 142.445 14.6162 142.18 14.9741C141.918 15.3288 141.552 15.6072 141.081 15.8093C140.614 16.0115 140.072 16.1126 139.456 16.1126C138.6 16.1126 137.903 15.9303 137.363 15.5657C136.822 15.1978 136.491 14.6758 136.368 13.9997L137.805 13.7809C137.895 14.1555 138.078 14.4388 138.357 14.6311C138.635 14.82 138.998 14.9145 139.446 14.9145C139.933 14.9145 140.322 14.8134 140.614 14.6112C140.906 14.4057 141.051 14.1555 141.051 13.8605C141.051 13.6218 140.962 13.4213 140.783 13.2589C140.607 13.0965 140.337 12.9739 139.973 12.891L138.68 12.6076C137.967 12.4452 137.44 12.1867 137.099 11.8321C136.761 11.4774 136.592 11.0283 136.592 10.4848C136.592 10.034 136.718 9.6396 136.97 9.30154C137.222 8.96347 137.57 8.69997 138.014 8.51105C138.458 8.31882 138.967 8.2227 139.54 8.2227C140.365 8.2227 141.015 8.40168 141.489 8.75963C141.963 9.11427 142.276 9.58989 142.429 10.1865ZM147.846 8.32213V9.51531H143.531V8.32213H147.846ZM144.714 15.9585V7.43719C144.714 6.95992 144.819 6.56385 145.028 6.24898C145.236 5.9308 145.513 5.69382 145.858 5.53804C146.202 5.37895 146.577 5.2994 146.981 5.2994C147.28 5.2994 147.535 5.32426 147.747 5.37398C147.959 5.42038 148.117 5.46347 148.219 5.50324L147.871 6.70637C147.802 6.68648 147.712 6.66328 147.603 6.63676C147.493 6.60693 147.361 6.59202 147.205 6.59202C146.844 6.59202 146.585 6.68151 146.43 6.86048C146.277 7.03946 146.201 7.29798 146.201 7.63605V15.9585H144.714ZM152.371 16.1126C151.618 16.1126 150.97 15.9519 150.427 15.6304C149.886 15.3056 149.469 14.8498 149.174 14.2632C148.882 13.6732 148.736 12.9822 148.736 12.19C148.736 11.4078 148.882 10.7184 149.174 10.1218C149.469 9.52526 149.88 9.05958 150.407 8.72483C150.937 8.39008 151.557 8.2227 152.266 8.2227C152.697 8.2227 153.115 8.29396 153.519 8.43648C153.923 8.579 154.286 8.80272 154.608 9.10764C154.929 9.41257 155.183 9.80864 155.368 10.2959C155.554 10.7798 155.647 11.3681 155.647 12.0608V12.5878H149.577V11.4741H154.19C154.19 11.083 154.111 10.7367 153.952 10.4351C153.792 10.1301 153.569 9.88984 153.28 9.71418C152.995 9.53851 152.661 9.45068 152.276 9.45068C151.858 9.45068 151.494 9.55343 151.182 9.75892C150.874 9.9611 150.635 10.2263 150.466 10.5544C150.301 10.8792 150.218 11.2322 150.218 11.6133V12.4834C150.218 12.9938 150.307 13.428 150.486 13.7859C150.669 14.1439 150.922 14.4173 151.247 14.6062C151.572 14.7918 151.951 14.8846 152.385 14.8846C152.667 14.8846 152.924 14.8449 153.156 14.7653C153.388 14.6825 153.589 14.5598 153.758 14.3974C153.927 14.235 154.056 14.0345 154.145 13.7959L155.552 14.0494C155.44 14.4637 155.238 14.8266 154.946 15.1382C154.657 15.4464 154.295 15.6867 153.857 15.8591C153.423 16.0281 152.927 16.1126 152.371 16.1126ZM157.296 15.9585V8.32213H158.733V9.5352H158.812C158.952 9.12422 159.197 8.80106 159.548 8.56574C159.903 8.3271 160.304 8.20779 160.751 8.20779C160.844 8.20779 160.954 8.2111 161.08 8.21773C161.209 8.22436 161.31 8.23264 161.383 8.24259V9.66446C161.323 9.64789 161.217 9.62966 161.065 9.60977C160.912 9.58657 160.76 9.57497 160.607 9.57497C160.256 9.57497 159.943 9.64955 159.668 9.79869C159.396 9.94453 159.18 10.1484 159.021 10.4102C158.862 10.6687 158.783 10.9637 158.783 11.2951V15.9585H157.296Z" fill="#121212" fill-opacity="0.8"/>
<path d="M2.50009 18.9998H21.5001V20.9998H2.50009V18.9998ZM22.0701 9.63982C21.8601 8.83982 21.0301 8.35982 20.2301 8.57982L14.9201 9.99982L8.02009 3.56982L6.09009 4.07982L10.2301 11.2498L5.26009 12.5798L3.29009 11.0398L1.84009 11.4298L4.43009 15.9198C4.43009 15.9198 11.5501 14.0198 21.0001 11.4898C21.8101 11.2598 22.2801 10.4398 22.0701 9.63982Z" fill="#121212" fill-opacity="0.8"/>
</svg>
