<svg width="161" height="24" viewBox="0 0 161 24" fill="none" xmlns="http://www.w3.org/2000/svg">
<path d="M43.233 15.9585V5.77668H44.4659V14.8647H49.1989V15.9585H43.233ZM54.1506 16.1176C53.4148 16.1176 52.7801 15.9552 52.2464 15.6304C51.7161 15.3022 51.3068 14.8449 51.0185 14.2582C50.7334 13.6682 50.5909 12.9822 50.5909 12.2C50.5909 11.4178 50.7334 10.7284 51.0185 10.1318C51.3068 9.53189 51.7079 9.06456 52.2216 8.7298C52.7386 8.39173 53.3419 8.2227 54.0312 8.2227C54.429 8.2227 54.8217 8.28899 55.2095 8.42156C55.5973 8.55414 55.9503 8.76958 56.2685 9.06787C56.5866 9.36285 56.8402 9.75395 57.0291 10.2412C57.218 10.7284 57.3125 11.3283 57.3125 12.0409V12.538H51.4261V11.5238H56.1193C56.1193 11.093 56.0331 10.7085 55.8608 10.3704C55.6918 10.0324 55.4498 9.76555 55.1349 9.57C54.8234 9.37445 54.4555 9.27668 54.0312 9.27668C53.5639 9.27668 53.1596 9.39268 52.8182 9.62469C52.4801 9.85338 52.2199 10.1517 52.0376 10.5196C51.8554 10.8875 51.7642 11.2819 51.7642 11.7028V12.379C51.7642 12.9557 51.8636 13.4445 52.0625 13.8456C52.2647 14.2433 52.5447 14.5466 52.9027 14.7554C53.2607 14.9609 53.6766 15.0636 54.1506 15.0636C54.4588 15.0636 54.7372 15.0205 54.9858 14.9343C55.2377 14.8449 55.4548 14.7123 55.6371 14.5366C55.8194 14.3576 55.9602 14.1356 56.0597 13.8704L57.1932 14.1886C57.0739 14.5731 56.8733 14.9111 56.5916 15.2028C56.3099 15.4912 55.9619 15.7165 55.5476 15.879C55.1333 16.038 54.6676 16.1176 54.1506 16.1176ZM61.3445 16.1375C60.8606 16.1375 60.4214 16.0463 60.027 15.864C59.6326 15.6784 59.3194 15.4116 59.0874 15.0636C58.8554 14.7123 58.7393 14.288 58.7393 13.7909C58.7393 13.3534 58.8255 12.9987 58.9979 12.727C59.1702 12.4519 59.4006 12.2364 59.6889 12.0807C59.9773 11.9249 60.2955 11.8089 60.6435 11.7326C60.9948 11.6531 61.3478 11.5901 61.7024 11.5437C62.1664 11.4841 62.5426 11.4393 62.831 11.4095C63.1226 11.3763 63.3348 11.3217 63.4673 11.2454C63.6032 11.1692 63.6712 11.0366 63.6712 10.8477V10.8079C63.6712 10.3174 63.5369 9.93624 63.2685 9.66446C63.0033 9.39268 62.6006 9.25679 62.0604 9.25679C61.5002 9.25679 61.0611 9.37942 60.7429 9.62469C60.4247 9.86995 60.201 10.1318 60.0717 10.4102L58.9581 10.0125C59.157 9.54846 59.4221 9.18719 59.7536 8.92867C60.0883 8.66683 60.4529 8.48454 60.8473 8.38179C61.245 8.27573 61.6361 8.2227 62.0206 8.2227C62.2659 8.2227 62.5476 8.25253 62.8658 8.31219C63.1873 8.36853 63.4972 8.48619 63.7955 8.66517C64.0971 8.84415 64.3473 9.11427 64.5462 9.47554C64.745 9.83681 64.8445 10.3207 64.8445 10.9272V15.9585H63.6712V14.9244H63.6115C63.532 15.0901 63.3994 15.2674 63.2138 15.4564C63.0282 15.6453 62.7813 15.806 62.473 15.9386C62.1648 16.0712 61.7886 16.1375 61.3445 16.1375ZM61.5234 15.0835C61.9875 15.0835 62.3786 14.9924 62.6967 14.8101C63.0182 14.6278 63.2602 14.3924 63.4226 14.1041C63.5883 13.8157 63.6712 13.5125 63.6712 13.1943V12.1204C63.6214 12.1801 63.5121 12.2348 63.343 12.2845C63.1773 12.3309 62.9851 12.3723 62.7663 12.4088C62.5509 12.4419 62.3404 12.4718 62.1349 12.4983C61.9328 12.5215 61.7687 12.5414 61.6428 12.5579C61.3378 12.5977 61.0528 12.6623 60.7876 12.7518C60.5258 12.838 60.3137 12.9689 60.1513 13.1446C59.9922 13.3169 59.9126 13.5522 59.9126 13.8505C59.9126 14.2582 60.0634 14.5665 60.3651 14.7753C60.67 14.9807 61.0561 15.0835 61.5234 15.0835ZM72.9569 8.32213L70.133 15.9585H68.9398L66.1159 8.32213H67.3887L69.4966 14.4074H69.5762L71.6841 8.32213H72.9569ZM77.4338 16.1176C76.698 16.1176 76.0633 15.9552 75.5297 15.6304C74.9993 15.3022 74.59 14.8449 74.3017 14.2582C74.0166 13.6682 73.8741 12.9822 73.8741 12.2C73.8741 11.4178 74.0166 10.7284 74.3017 10.1318C74.59 9.53189 74.9911 9.06456 75.5048 8.7298C76.0218 8.39173 76.6251 8.2227 77.3145 8.2227C77.7122 8.2227 78.1049 8.28899 78.4927 8.42156C78.8805 8.55414 79.2335 8.76958 79.5517 9.06787C79.8699 9.36285 80.1234 9.75395 80.3123 10.2412C80.5012 10.7284 80.5957 11.3283 80.5957 12.0409V12.538H74.7093V11.5238H79.4025C79.4025 11.093 79.3163 10.7085 79.144 10.3704C78.975 10.0324 78.733 9.76555 78.4181 9.57C78.1066 9.37445 77.7387 9.27668 77.3145 9.27668C76.8471 9.27668 76.4428 9.39268 76.1014 9.62469C75.7633 9.85338 75.5031 10.1517 75.3208 10.5196C75.1386 10.8875 75.0474 11.2819 75.0474 11.7028V12.379C75.0474 12.9557 75.1468 13.4445 75.3457 13.8456C75.5479 14.2433 75.8279 14.5466 76.1859 14.7554C76.5439 14.9609 76.9598 15.0636 77.4338 15.0636C77.742 15.0636 78.0204 15.0205 78.269 14.9343C78.5209 14.8449 78.738 14.7123 78.9203 14.5366C79.1026 14.3576 79.2434 14.1356 79.3429 13.8704L80.4764 14.1886C80.3571 14.5731 80.1565 14.9111 79.8748 15.2028C79.5931 15.4912 79.2451 15.7165 78.8308 15.879C78.4165 16.038 77.9508 16.1176 77.4338 16.1176ZM87.7896 10.0324L86.7356 10.3307C86.6693 10.155 86.5716 9.9843 86.4423 9.81858C86.3163 9.64955 86.144 9.51034 85.9252 9.40097C85.7065 9.29159 85.4264 9.2369 85.085 9.2369C84.6177 9.2369 84.2283 9.34462 83.9167 9.56006C83.6085 9.77218 83.4544 10.0423 83.4544 10.3704C83.4544 10.6621 83.5604 10.8924 83.7725 11.0615C83.9847 11.2305 84.3161 11.3714 84.7669 11.4841L85.9004 11.7625C86.5832 11.9282 87.0919 12.1817 87.4267 12.5231C87.7614 12.8612 87.9288 13.297 87.9288 13.8307C87.9288 14.2682 87.8029 14.6593 87.551 15.004C87.3024 15.3486 86.9544 15.6204 86.5069 15.8193C86.0595 16.0182 85.5391 16.1176 84.9458 16.1176C84.167 16.1176 83.5223 15.9486 83.0119 15.6105C82.5015 15.2724 82.1783 14.7786 82.0424 14.129L83.1561 13.8505C83.2621 14.2615 83.4627 14.5698 83.7576 14.7753C84.0559 14.9807 84.4454 15.0835 84.926 15.0835C85.4728 15.0835 85.907 14.9675 86.2285 14.7355C86.5533 14.5002 86.7157 14.2184 86.7157 13.8903C86.7157 13.6252 86.6229 13.4031 86.4373 13.2241C86.2517 13.0418 85.9667 12.9059 85.5822 12.8165L84.3095 12.5182C83.6101 12.3524 83.0964 12.0956 82.7683 11.7476C82.4435 11.3962 82.2811 10.9571 82.2811 10.4301C82.2811 9.99922 82.402 9.61806 82.644 9.28662C82.8893 8.95518 83.2224 8.695 83.6433 8.50608C84.0675 8.31716 84.5481 8.2227 85.085 8.2227C85.8407 8.2227 86.434 8.38842 86.8649 8.71986C87.2991 9.0513 87.6073 9.4888 87.7896 10.0324ZM96.516 16.0977C95.8465 16.0977 95.2698 15.9751 94.7859 15.7298C94.302 15.4845 93.9291 15.1481 93.6673 14.7206C93.4054 14.293 93.2745 13.8041 93.2745 13.254C93.2745 12.8297 93.364 12.4535 93.543 12.1254C93.7253 11.794 93.9755 11.4874 94.2937 11.2057C94.6152 10.9206 94.9847 10.6356 95.4023 10.3505L96.8739 9.25679C97.1623 9.06787 97.3926 8.86569 97.565 8.65026C97.7406 8.43482 97.8285 8.1531 97.8285 7.80509C97.8285 7.54656 97.7141 7.29633 97.4854 7.05438C97.2601 6.81243 96.9634 6.69145 96.5955 6.69145C96.337 6.69145 96.1083 6.75774 95.9094 6.89031C95.7139 7.01958 95.5598 7.18529 95.4471 7.38747C95.3377 7.58634 95.283 7.79183 95.283 8.00395C95.283 8.24259 95.3477 8.48454 95.4769 8.7298C95.6095 8.97175 95.7769 9.22033 95.979 9.47554C96.1845 9.72744 96.3967 9.98596 96.6154 10.2511L101.289 15.9585H99.8768L96.0188 11.3051C95.6609 10.8742 95.3361 10.4831 95.0444 10.1318C94.7527 9.78047 94.5207 9.43411 94.3484 9.09273C94.176 8.75135 94.0898 8.38179 94.0898 7.98406C94.0898 7.52668 94.1909 7.12564 94.3931 6.78094C94.5986 6.43293 94.8853 6.1628 95.2532 5.97057C95.6244 5.77502 96.0586 5.67725 96.5558 5.67725C97.0662 5.67725 97.5053 5.77668 97.8732 5.97554C98.2411 6.17109 98.5245 6.43127 98.7234 6.75608C98.9222 7.07758 99.0217 7.42725 99.0217 7.80509C99.0217 8.2923 98.9007 8.71489 98.6587 9.07284C98.4168 9.4308 98.087 9.76389 97.6694 10.0721L95.641 11.5835C95.1836 11.9216 94.8737 12.2497 94.7113 12.5679C94.5489 12.8861 94.4677 13.1147 94.4677 13.254C94.4677 13.5721 94.5505 13.8688 94.7163 14.1439C94.882 14.419 95.1156 14.641 95.4173 14.8101C95.7189 14.9791 96.0719 15.0636 96.4762 15.0636C96.8607 15.0636 97.2352 14.9824 97.5998 14.82C97.9644 14.6543 98.2942 14.4156 98.5891 14.1041C98.8874 13.7925 99.1228 13.418 99.2951 12.9805C99.4708 12.543 99.5586 12.0508 99.5586 11.504H100.692C100.692 12.1801 100.614 12.7319 100.458 13.1595C100.303 13.587 100.127 13.9218 99.9315 14.1638C99.7359 14.4057 99.5785 14.5863 99.4592 14.7057C99.4194 14.7554 99.3829 14.8051 99.3498 14.8548C99.3166 14.9045 99.2802 14.9542 99.2404 15.004C98.9123 15.3718 98.498 15.6469 97.9975 15.8292C97.497 16.0082 97.0032 16.0977 96.516 16.0977ZM106.127 6.87043V5.77668H113.764V6.87043H110.562V15.9585H109.329V6.87043H106.127ZM114.714 15.9585V8.32213H115.848V9.47554H115.928C116.067 9.0977 116.319 8.79112 116.683 8.5558C117.048 8.32047 117.459 8.20281 117.916 8.20281C118.002 8.20281 118.11 8.20447 118.239 8.20779C118.369 8.2111 118.466 8.21607 118.533 8.2227V9.41588C118.493 9.40594 118.402 9.39102 118.259 9.37114C118.12 9.34794 117.973 9.33634 117.817 9.33634C117.446 9.33634 117.114 9.41423 116.822 9.57C116.534 9.72246 116.305 9.93458 116.136 10.2064C115.971 10.4748 115.888 10.7814 115.888 11.1261V15.9585H114.714ZM122.171 16.1375C121.687 16.1375 121.248 16.0463 120.853 15.864C120.459 15.6784 120.146 15.4116 119.914 15.0636C119.682 14.7123 119.566 14.288 119.566 13.7909C119.566 13.3534 119.652 12.9987 119.824 12.727C119.996 12.4519 120.227 12.2364 120.515 12.0807C120.803 11.9249 121.122 11.8089 121.47 11.7326C121.821 11.6531 122.174 11.5901 122.529 11.5437C122.993 11.4841 123.369 11.4393 123.657 11.4095C123.949 11.3763 124.161 11.3217 124.294 11.2454C124.429 11.1692 124.497 11.0366 124.497 10.8477V10.8079C124.497 10.3174 124.363 9.93624 124.095 9.66446C123.829 9.39268 123.427 9.25679 122.887 9.25679C122.326 9.25679 121.887 9.37942 121.569 9.62469C121.251 9.86995 121.027 10.1318 120.898 10.4102L119.784 10.0125C119.983 9.54846 120.248 9.18719 120.58 8.92867C120.914 8.66683 121.279 8.48454 121.673 8.38179C122.071 8.27573 122.462 8.2227 122.847 8.2227C123.092 8.2227 123.374 8.25253 123.692 8.31219C124.013 8.36853 124.323 8.48619 124.622 8.66517C124.923 8.84415 125.173 9.11427 125.372 9.47554C125.571 9.83681 125.671 10.3207 125.671 10.9272V15.9585H124.497V14.9244H124.438C124.358 15.0901 124.226 15.2674 124.04 15.4564C123.854 15.6453 123.607 15.806 123.299 15.9386C122.991 16.0712 122.615 16.1375 122.171 16.1375ZM122.35 15.0835C122.814 15.0835 123.205 14.9924 123.523 14.8101C123.844 14.6278 124.086 14.3924 124.249 14.1041C124.414 13.8157 124.497 13.5125 124.497 13.1943V12.1204C124.448 12.1801 124.338 12.2348 124.169 12.2845C124.003 12.3309 123.811 12.3723 123.593 12.4088C123.377 12.4419 123.167 12.4718 122.961 12.4983C122.759 12.5215 122.595 12.5414 122.469 12.5579C122.164 12.5977 121.879 12.6623 121.614 12.7518C121.352 12.838 121.14 12.9689 120.977 13.1446C120.818 13.3169 120.739 13.5522 120.739 13.8505C120.739 14.2582 120.89 14.5665 121.191 14.7753C121.496 14.9807 121.882 15.0835 122.35 15.0835ZM128.985 11.3647V15.9585H127.812V8.32213H128.946V9.51531H129.045C129.224 9.12753 129.496 8.81598 129.86 8.58066C130.225 8.34202 130.696 8.2227 131.272 8.2227C131.789 8.2227 132.242 8.32876 132.63 8.54088C133.017 8.74969 133.319 9.06787 133.534 9.49543C133.75 9.91967 133.858 10.4566 133.858 11.1062V15.9585H132.684V11.1858C132.684 10.5859 132.529 10.1185 132.217 9.78378C131.905 9.44571 131.478 9.27668 130.934 9.27668C130.56 9.27668 130.225 9.35788 129.93 9.52029C129.638 9.68269 129.408 9.91967 129.239 10.2312C129.07 10.5428 128.985 10.9206 128.985 11.3647ZM141.411 10.0324L140.357 10.3307C140.29 10.155 140.193 9.9843 140.063 9.81858C139.937 9.64955 139.765 9.51034 139.546 9.40097C139.328 9.29159 139.048 9.2369 138.706 9.2369C138.239 9.2369 137.849 9.34462 137.538 9.56006C137.23 9.77218 137.075 10.0423 137.075 10.3704C137.075 10.6621 137.182 10.8924 137.394 11.0615C137.606 11.2305 137.937 11.3714 138.388 11.4841L139.521 11.7625C140.204 11.9282 140.713 12.1817 141.048 12.5231C141.383 12.8612 141.55 13.297 141.55 13.8307C141.55 14.2682 141.424 14.6593 141.172 15.004C140.923 15.3486 140.575 15.6204 140.128 15.8193C139.681 16.0182 139.16 16.1176 138.567 16.1176C137.788 16.1176 137.143 15.9486 136.633 15.6105C136.123 15.2724 135.799 14.7786 135.664 14.129L136.777 13.8505C136.883 14.2615 137.084 14.5698 137.379 14.7753C137.677 14.9807 138.066 15.0835 138.547 15.0835C139.094 15.0835 139.528 14.9675 139.85 14.7355C140.174 14.5002 140.337 14.2184 140.337 13.8903C140.337 13.6252 140.244 13.4031 140.058 13.2241C139.873 13.0418 139.588 12.9059 139.203 12.8165L137.931 12.5182C137.231 12.3524 136.718 12.0956 136.389 11.7476C136.065 11.3962 135.902 10.9571 135.902 10.4301C135.902 9.99922 136.023 9.61806 136.265 9.28662C136.51 8.95518 136.843 8.695 137.264 8.50608C137.689 8.31716 138.169 8.2227 138.706 8.2227C139.462 8.2227 140.055 8.38842 140.486 8.71986C140.92 9.0513 141.228 9.4888 141.411 10.0324ZM146.717 8.32213V9.31645H142.6V8.32213H146.717ZM143.833 15.9585V7.26816C143.833 6.83065 143.936 6.46607 144.141 6.1744C144.347 5.88274 144.614 5.66399 144.942 5.51815C145.27 5.37232 145.616 5.2994 145.981 5.2994C146.269 5.2994 146.504 5.32261 146.687 5.36901C146.869 5.41541 147.005 5.4585 147.094 5.49827L146.756 6.51247C146.697 6.49259 146.614 6.46773 146.508 6.4379C146.405 6.40807 146.269 6.39315 146.1 6.39315C145.712 6.39315 145.432 6.49093 145.26 6.68648C145.091 6.88203 145.006 7.16872 145.006 7.54656V15.9585H143.833ZM151.248 16.1176C150.512 16.1176 149.878 15.9552 149.344 15.6304C148.814 15.3022 148.404 14.8449 148.116 14.2582C147.831 13.6682 147.689 12.9822 147.689 12.2C147.689 11.4178 147.831 10.7284 148.116 10.1318C148.404 9.53189 148.806 9.06456 149.319 8.7298C149.836 8.39173 150.44 8.2227 151.129 8.2227C151.527 8.2227 151.919 8.28899 152.307 8.42156C152.695 8.55414 153.048 8.76958 153.366 9.06787C153.684 9.36285 153.938 9.75395 154.127 10.2412C154.316 10.7284 154.41 11.3283 154.41 12.0409V12.538H148.524V11.5238H153.217C153.217 11.093 153.131 10.7085 152.958 10.3704C152.789 10.0324 152.547 9.76555 152.233 9.57C151.921 9.37445 151.553 9.27668 151.129 9.27668C150.662 9.27668 150.257 9.39268 149.916 9.62469C149.578 9.85338 149.318 10.1517 149.135 10.5196C148.953 10.8875 148.862 11.2819 148.862 11.7028V12.379C148.862 12.9557 148.961 13.4445 149.16 13.8456C149.362 14.2433 149.642 14.5466 150 14.7554C150.358 14.9609 150.774 15.0636 151.248 15.0636C151.556 15.0636 151.835 15.0205 152.083 14.9343C152.335 14.8449 152.552 14.7123 152.735 14.5366C152.917 14.3576 153.058 14.1356 153.157 13.8704L154.291 14.1886C154.172 14.5731 153.971 14.9111 153.689 15.2028C153.408 15.4912 153.06 15.7165 152.645 15.879C152.231 16.038 151.765 16.1176 151.248 16.1176ZM156.195 15.9585V8.32213H157.328V9.47554H157.408C157.547 9.0977 157.799 8.79112 158.164 8.5558C158.528 8.32047 158.939 8.20281 159.397 8.20281C159.483 8.20281 159.591 8.20447 159.72 8.20779C159.849 8.2111 159.947 8.21607 160.013 8.2227V9.41588C159.973 9.40594 159.882 9.39102 159.74 9.37114C159.6 9.34794 159.453 9.33634 159.297 9.33634C158.926 9.33634 158.595 9.41423 158.303 9.57C158.015 9.72246 157.786 9.93458 157.617 10.2064C157.451 10.4748 157.368 10.7814 157.368 11.1261V15.9585H156.195Z" fill="white"/>
<path d="M2.49984 18.9998H21.4998V20.9998H2.49984V18.9998ZM22.0698 9.63982C21.8598 8.83982 21.0298 8.35982 20.2298 8.57982L14.9198 9.99982L8.01984 3.56982L6.08984 4.07982L10.2298 11.2498L5.25984 12.5798L3.28984 11.0398L1.83984 11.4298L4.42984 15.9198C4.42984 15.9198 11.5498 14.0198 20.9998 11.4898C21.8098 11.2598 22.2798 10.4398 22.0698 9.63982Z" fill="white"/>
</svg>
