<svg width="60" height="70" viewBox="0 0 60 70" fill="none" xmlns="http://www.w3.org/2000/svg">
<path d="M1.91046 64.9818C10.9607 63.6308 20.2076 65.1682 28.3333 69.3753V35.001C28.3333 34.0808 29.08 33.3341 30.0002 33.3341C30.9204 33.3341 31.667 34.0808 31.667 35.001V69.4124C39.8913 65.4514 49.0742 63.9168 58.1399 64.9888C58.6125 65.0469 59.0874 64.8973 59.4412 64.5787C59.7967 64.2628 59.9998 63.8097 59.9998 63.3337V26.668C59.9998 25.961 59.5534 25.3309 58.8865 25.096C55.492 23.8957 51.9134 23.2991 48.3128 23.3343C41.7213 23.4939 35.3363 25.6691 30.0185 29.5676C25.2044 25.9443 19.4504 23.7807 13.4414 23.3343C9.25283 23.0642 5.05354 23.6641 1.10826 25.096C0.443643 25.3326 -0.000556619 25.9621 5.23501e-07 26.668V63.3337C5.23501e-07 63.8181 0.210943 64.2785 0.577572 64.5954C0.944758 64.9118 1.43082 65.053 1.91016 64.9821L1.91046 64.9818Z" fill="white"/>
<path d="M40.8333 10.8331C40.8333 16.8164 35.9834 21.6669 30.0001 21.6669C24.0168 21.6669 19.167 16.8164 19.167 10.8331C19.167 4.85043 24.0168 0 30.0001 0C35.9834 0 40.8333 4.85043 40.8333 10.8331Z" fill="white"/>
</svg>
