<svg width="22" height="22" viewBox="0 0 22 22" fill="none" xmlns="http://www.w3.org/2000/svg">
<path d="M11.0003 15.5834C11.4866 15.5834 11.9529 15.3903 12.2967 15.0464C12.6405 14.7026 12.8337 14.2363 12.8337 13.7501C12.8337 12.7326 12.0087 11.9167 11.0003 11.9167C10.5141 11.9167 10.0478 12.1099 9.70396 12.4537C9.36015 12.7975 9.16699 13.2639 9.16699 13.7501C9.16699 14.2363 9.36015 14.7026 9.70396 15.0464C10.0478 15.3903 10.5141 15.5834 11.0003 15.5834ZM16.5003 7.33342C16.9866 7.33342 17.4529 7.52657 17.7967 7.87039C18.1405 8.2142 18.3337 8.68052 18.3337 9.16675V18.3334C18.3337 18.8196 18.1405 19.286 17.7967 19.6298C17.4529 19.9736 16.9866 20.1667 16.5003 20.1667H5.50033C5.0141 20.1667 4.54778 19.9736 4.20396 19.6298C3.86015 19.286 3.66699 18.8196 3.66699 18.3334V9.16675C3.66699 8.14925 4.49199 7.33342 5.50033 7.33342H6.41699V5.50008C6.41699 4.28451 6.89988 3.11872 7.75942 2.25918C8.61896 1.39963 9.78475 0.916748 11.0003 0.916748C11.6022 0.916748 12.1982 1.0353 12.7543 1.26563C13.3104 1.49597 13.8156 1.83357 14.2412 2.25918C14.6668 2.68478 15.0044 3.19004 15.2348 3.74612C15.4651 4.30219 15.5837 4.89819 15.5837 5.50008V7.33342H16.5003ZM11.0003 2.75008C10.271 2.75008 9.57151 3.03981 9.05578 3.55554C8.54006 4.07126 8.25033 4.77074 8.25033 5.50008V7.33342H13.7503V5.50008C13.7503 4.77074 13.4606 4.07126 12.9449 3.55554C12.4291 3.03981 11.7297 2.75008 11.0003 2.75008Z" fill="#121212" fill-opacity="0.45"/>
</svg>
