<svg width="59" height="72" viewBox="0 0 59 72" fill="none" xmlns="http://www.w3.org/2000/svg">
<path d="M18.1679 23.5602C18.6787 24.2116 19.1895 24.863 19.7004 25.5097C19.8128 25.6503 19.8269 25.7862 19.7426 25.9456C19.5551 26.3017 19.3723 26.6579 19.1942 27.0187C18.7256 27.9701 18.2804 28.9308 17.793 29.8728C17.4087 30.6179 17.0947 31.3912 17.001 32.2113C16.8697 33.3595 16.9448 34.5124 17.3759 35.6043C18.0976 37.4273 19.2739 38.8755 20.9938 39.8502C21.35 40.0517 21.3406 40.0471 21.5703 39.6956C22.6341 38.0741 23.6979 36.4526 24.7711 34.8357C25.1226 34.3062 25.4788 33.7719 25.8256 33.2377L18.1679 23.5602Z" fill="url(#paint0_linear_6_21)"/>
<path d="M28.1455 21.7587C27.6254 20.6199 26.9505 19.5467 26.3084 18.4642C25.6148 17.2972 24.8744 16.1537 24.1574 15.0009C23.4591 13.8761 22.7608 12.7514 22.0626 11.6266C21.3549 10.4925 20.6472 9.3584 19.9396 8.21959C19.3631 7.28699 18.8008 6.3497 18.2243 5.41709C17.5682 4.35796 16.9074 3.30351 16.2467 2.24906C15.8296 1.58358 15.4172 0.918108 14.9907 0.233887C14.9251 0.271378 14.897 0.280752 14.8783 0.304184C14.2409 1.11494 13.7207 1.99599 13.3036 2.93797C12.8724 3.90806 12.5209 4.91096 12.3663 5.96541C12.2304 6.88864 12.0851 7.81655 12.0289 8.74916C11.9632 9.76612 12.0054 10.7924 12.1976 11.8C12.3522 12.592 12.4787 13.3934 12.6615 14.1807C12.774 14.6728 12.9287 15.1555 13.1208 15.6242C13.4911 16.5333 13.8659 17.4425 14.3065 18.3189C14.8642 19.4249 15.6374 20.3903 16.4154 21.3557C17.0059 22.0868 17.587 22.8272 18.1681 23.563L25.7789 33.3202C26.4725 32.2517 27.1801 31.0894 27.7191 29.9272C28.1924 28.9102 28.5673 27.8652 28.7782 26.7498C29.1063 25.0017 28.8673 23.3334 28.1455 21.7587Z" fill="url(#paint1_linear_6_21)"/>
<path d="M46.958 7.94821C46.9252 7.28742 46.8362 6.71099 46.719 6.0502C46.7002 5.95178 46.6768 5.85337 46.6581 5.75027C46.6018 5.41753 46.4941 4.99575 46.4003 4.67707C46.0489 3.51015 45.5989 2.38071 44.9569 1.33564C44.6851 0.895112 44.3758 0.473331 44.0571 0C43.4104 1.03102 42.8058 1.97768 42.2106 2.93372C41.4842 4.10064 40.7719 5.27694 40.0502 6.44855C39.4738 7.38115 38.8927 8.31375 38.3162 9.24635C37.6226 10.3664 36.929 11.4865 36.2307 12.6018C35.584 13.6376 34.9091 14.6592 34.2858 15.709L39.2066 25.7286C39.1879 25.6255 39.2066 25.5224 39.3004 25.4099C39.6847 24.9459 40.0408 24.4632 40.4111 23.9899C41.3811 22.7574 42.3559 21.5248 43.326 20.2923C44.104 19.2988 44.7554 18.2209 45.2568 17.068C45.6177 16.2385 45.9739 15.395 46.2176 14.5233C46.4847 13.5719 46.6159 12.5831 46.8081 11.6083C47.0471 10.3992 47.0189 9.17137 46.958 7.94821Z" fill="url(#paint2_linear_6_21)"/>
<g opacity="0.55" filter="url(#filter0_d_6_21)">
<path d="M39.149 25.6558L40.1097 24.3905L34.2892 15.7159L39.149 25.6558Z" fill="#596880"/>
</g>
<path d="M40.7487 29.0197C40.5659 28.6401 40.4253 28.2417 40.2426 27.8621C39.9239 27.1966 39.5911 26.5452 39.263 25.8844C39.2396 25.8329 39.2209 25.786 39.2115 25.7392L34.2907 15.7195C34.914 14.6698 35.5889 13.6528 36.2356 12.6124C35.528 13.7465 34.7828 14.8572 34.1127 16.0148C33.33 17.3692 32.5896 18.747 31.8632 20.1295C31.104 21.5776 30.5275 23.096 30.2042 24.7128C29.8386 26.5546 30.1245 28.2839 31.0337 29.8773C31.8257 31.2598 32.7442 32.5673 33.6159 33.9029C34.3845 35.0792 35.1671 36.2415 35.9404 37.4084C36.5074 38.266 37.0792 39.1283 37.6556 40C37.8993 39.8547 38.1289 39.7329 38.3398 39.5876C38.5788 39.4283 38.8178 39.2596 39.0381 39.0721C40.8471 37.5303 41.9578 35.6416 42.0234 33.2047C42.0515 32.0846 41.7375 31.063 41.3063 30.0413C41.1282 29.6992 40.9174 29.3665 40.7487 29.0197Z" fill="url(#paint3_linear_6_21)"/>
<path opacity="0.3" d="M25.7434 33.2571L19.8244 25.7447L19.2714 26.8788L25.7434 33.2571Z" fill="#7F8E9B"/>
<path d="M11.4784 69.6L9.11844 67.2C8.97177 67.2133 8.8251 67.22 8.67844 67.22C8.53177 67.2333 8.3851 67.24 8.23844 67.24C6.8251 67.24 5.59844 66.98 4.55844 66.46C3.53177 65.94 2.73844 65.1533 2.17844 64.1C1.63177 63.0467 1.35844 61.7267 1.35844 60.14C1.35844 58.54 1.63177 57.22 2.17844 56.18C2.73844 55.1267 3.53177 54.34 4.55844 53.82C5.59844 53.3 6.8251 53.04 8.23844 53.04C9.67844 53.04 10.9118 53.3 11.9384 53.82C12.9651 54.34 13.7518 55.1267 14.2984 56.18C14.8584 57.22 15.1384 58.54 15.1384 60.14C15.1384 61.86 14.8118 63.26 14.1584 64.34C13.5184 65.42 12.6118 66.2 11.4384 66.68L14.4584 69.6H11.4784ZM8.23844 65.34C8.97177 65.34 9.61844 65.24 10.1784 65.04C10.7518 64.84 11.2318 64.5333 11.6184 64.12C12.0184 63.7067 12.3184 63.1867 12.5184 62.56C12.7318 61.9333 12.8384 61.2067 12.8384 60.38V59.94C12.8384 59.0867 12.7318 58.3467 12.5184 57.72C12.3184 57.0933 12.0184 56.5733 11.6184 56.16C11.2318 55.7467 10.7518 55.44 10.1784 55.24C9.61844 55.04 8.97177 54.94 8.23844 54.94C7.51844 54.94 6.87177 55.04 6.29844 55.24C5.73844 55.44 5.25844 55.7467 4.85844 56.16C4.47177 56.5733 4.17844 57.0933 3.97844 57.72C3.77844 58.3467 3.67844 59.0867 3.67844 59.94V60.38C3.67844 61.2067 3.77844 61.9333 3.97844 62.56C4.17844 63.1867 4.47177 63.7067 4.85844 64.12C5.25844 64.5333 5.73844 64.84 6.29844 65.04C6.87177 65.24 7.51844 65.34 8.23844 65.34ZM20.1816 67L16.2816 56.48H18.4616L20.2816 61.5C20.3616 61.74 20.4616 62.0533 20.5816 62.44C20.7016 62.8133 20.8216 63.2 20.9416 63.6C21.0616 64 21.1682 64.36 21.2616 64.68H21.3616C21.4416 64.3733 21.5349 64.0267 21.6416 63.64C21.7616 63.24 21.8816 62.8467 22.0016 62.46C22.1216 62.0733 22.2282 61.7533 22.3216 61.5L24.1216 56.48H26.2416L22.3216 67H20.1816ZM27.7541 54.66V52.54H29.8341V54.66H27.7541ZM27.7541 67V56.48H29.8341V67H27.7541ZM32.5197 70.46V56.48H34.2197L34.3997 57.92H34.5397C34.8997 57.36 35.3597 56.94 35.9197 56.66C36.4797 56.38 37.1064 56.24 37.7997 56.24C38.6664 56.24 39.4064 56.4333 40.0197 56.82C40.6464 57.2067 41.1264 57.8067 41.4597 58.62C41.793 59.4333 41.9597 60.4867 41.9597 61.78C41.9597 63.0333 41.7864 64.0667 41.4397 64.88C41.1064 65.68 40.633 66.2733 40.0197 66.66C39.4064 67.0467 38.6997 67.24 37.8997 67.24C37.433 67.24 36.9997 67.1867 36.5997 67.08C36.1997 66.9733 35.8397 66.8067 35.5197 66.58C35.213 66.3533 34.9464 66.0667 34.7197 65.72H34.5997V70.46H32.5197ZM37.1797 65.44C37.8064 65.44 38.313 65.32 38.6997 65.08C39.0864 64.8267 39.3664 64.44 39.5397 63.92C39.7264 63.4 39.8197 62.74 39.8197 61.94V61.58C39.8197 60.74 39.7264 60.06 39.5397 59.54C39.353 59.02 39.0664 58.64 38.6797 58.4C38.3064 58.16 37.8197 58.04 37.2197 58.04C36.6064 58.04 36.1064 58.18 35.7197 58.46C35.333 58.7267 35.0464 59.1267 34.8597 59.66C34.6864 60.1933 34.5997 60.84 34.5997 61.6V61.88C34.5997 62.5067 34.6597 63.0467 34.7797 63.5C34.8997 63.9533 35.073 64.3267 35.2997 64.62C35.5264 64.9 35.7997 65.1067 36.1197 65.24C36.4397 65.3733 36.793 65.44 37.1797 65.44ZM44.1017 67V52.54H46.1817V67H44.1017ZM53.2273 67.24C52.1473 67.24 51.2407 67.0467 50.5073 66.66C49.7873 66.26 49.2407 65.6533 48.8673 64.84C48.494 64.0267 48.3073 62.9933 48.3073 61.74C48.3073 60.4733 48.494 59.44 48.8673 58.64C49.2407 57.8267 49.794 57.2267 50.5273 56.84C51.2607 56.44 52.174 56.24 53.2673 56.24C54.2673 56.24 55.1007 56.4333 55.7673 56.82C56.4473 57.1933 56.9607 57.7667 57.3073 58.54C57.654 59.3133 57.8273 60.2867 57.8273 61.46V62.26H50.4473C50.474 63.0067 50.5873 63.6333 50.7873 64.14C50.9873 64.6333 51.2873 65 51.6873 65.24C52.1007 65.4667 52.6207 65.58 53.2473 65.58C53.634 65.58 53.9807 65.5333 54.2873 65.44C54.594 65.3333 54.854 65.1867 55.0673 65C55.2807 64.8 55.4473 64.5667 55.5673 64.3C55.6873 64.02 55.7473 63.7067 55.7473 63.36H57.7873C57.7873 63.9867 57.6807 64.54 57.4673 65.02C57.254 65.5 56.9407 65.9067 56.5273 66.24C56.1273 66.56 55.6473 66.8067 55.0873 66.98C54.5273 67.1533 53.9073 67.24 53.2273 67.24ZM50.4873 60.74H55.6473C55.6473 60.22 55.5873 59.7867 55.4673 59.44C55.3607 59.08 55.2007 58.7867 54.9873 58.56C54.774 58.3333 54.5207 58.1733 54.2273 58.08C53.934 57.9733 53.6007 57.92 53.2273 57.92C52.6673 57.92 52.1873 58.02 51.7873 58.22C51.4007 58.42 51.1007 58.7333 50.8873 59.16C50.674 59.5733 50.5407 60.1 50.4873 60.74Z" fill="#233F93"/>
<defs>
<filter id="filter0_d_6_21" x="29.5137" y="15.7159" width="15.3714" height="19.4908" filterUnits="userSpaceOnUse" color-interpolation-filters="sRGB">
<feFlood flood-opacity="0" result="BackgroundImageFix"/>
<feColorMatrix in="SourceAlpha" type="matrix" values="0 0 0 0 0 0 0 0 0 0 0 0 0 0 0 0 0 0 127 0" result="hardAlpha"/>
<feOffset dy="4.77542"/>
<feGaussianBlur stdDeviation="2.38771"/>
<feComposite in2="hardAlpha" operator="out"/>
<feColorMatrix type="matrix" values="0 0 0 0 0 0 0 0 0 0 0 0 0 0 0 0 0 0 0.25 0"/>
<feBlend mode="normal" in2="BackgroundImageFix" result="effect1_dropShadow_6_21"/>
<feBlend mode="normal" in="SourceGraphic" in2="effect1_dropShadow_6_21" result="shape"/>
</filter>
<linearGradient id="paint0_linear_6_21" x1="19.6486" y1="26.4989" x2="21.384" y2="39.9846" gradientUnits="userSpaceOnUse">
<stop stop-color="#214496"/>
<stop offset="1" stop-color="#438DCA"/>
</linearGradient>
<linearGradient id="paint1_linear_6_21" x1="13.0927" y1="0.545472" x2="26.2049" y2="33.3259" gradientUnits="userSpaceOnUse">
<stop stop-color="#3484C8"/>
<stop offset="1" stop-color="#26B9EA"/>
</linearGradient>
<linearGradient id="paint2_linear_6_21" x1="45.8726" y1="7.33176e-08" x2="36.5848" y2="23.7658" gradientUnits="userSpaceOnUse">
<stop offset="0.010247" stop-color="#2BBAF3"/>
<stop offset="1" stop-color="#3A86C1"/>
</linearGradient>
<linearGradient id="paint3_linear_6_21" x1="36.0374" y1="12.6124" x2="36.0374" y2="40" gradientUnits="userSpaceOnUse">
<stop stop-color="#233F93"/>
<stop offset="1" stop-color="#4494CF"/>
</linearGradient>
</defs>
</svg>
