<svg width="35" height="40" viewBox="0 0 35 40" fill="none" xmlns="http://www.w3.org/2000/svg">
<path d="M6.16778 23.5601C6.6786 24.2115 7.18943 24.863 7.70026 25.5097C7.81273 25.6503 7.82683 25.7862 7.74248 25.9455C7.55502 26.3017 7.37223 26.6579 7.19414 27.0187C6.7255 27.9701 6.28029 28.9308 5.7929 29.8728C5.40861 30.6179 5.09459 31.3912 5.00086 32.2113C4.86964 33.3595 4.94465 34.5123 5.3758 35.6043C6.09751 37.4273 7.27379 38.8754 8.99372 39.8502C9.34989 40.0517 9.34051 40.047 9.57014 39.6955C10.634 38.074 11.6978 36.4525 12.771 34.8357C13.1225 34.3061 13.4787 33.7719 13.8255 33.2376L6.16778 23.5601Z" fill="url(#paint0_linear_79_387)"/>
<path d="M16.1455 21.7588C15.6254 20.62 14.9505 19.5468 14.3084 18.4642C13.6148 17.2973 12.8744 16.1538 12.1574 15.0009C11.4591 13.8762 10.7608 12.7514 10.0626 11.6267C9.3549 10.4925 8.64723 9.35843 7.93958 8.21962C7.36315 7.28702 6.80076 6.34973 6.22433 5.41713C5.56822 4.35799 4.90745 3.30354 4.24666 2.24909C3.82957 1.58361 3.41719 0.918138 2.99072 0.233917C2.92511 0.271409 2.897 0.280782 2.87825 0.304215C2.2409 1.11497 1.72065 1.99602 1.30356 2.938C0.872406 3.90809 0.520923 4.91099 0.36627 5.96544C0.230363 6.88867 0.0850973 7.81659 0.0288599 8.74919C-0.0367503 9.76615 0.00542084 10.7925 0.197565 11.8001C0.352218 12.5921 0.478747 13.3935 0.661519 14.1808C0.773993 14.6729 0.928694 15.1556 1.12084 15.6242C1.49107 16.5334 1.86594 17.4425 2.30647 18.3189C2.86415 19.4249 3.63742 20.3903 4.41537 21.3557C5.00586 22.0868 5.58697 22.8273 6.16809 23.563L13.7789 33.3202C14.4725 32.2517 15.1801 31.0895 15.7191 29.9272C16.1924 28.9103 16.5673 27.8652 16.7782 26.7498C17.1063 25.0018 16.8673 23.3334 16.1455 21.7588Z" fill="url(#paint1_linear_79_387)"/>
<path d="M34.9581 7.94821C34.9252 7.28742 34.8362 6.71099 34.719 6.0502C34.7003 5.95178 34.6769 5.85337 34.6581 5.75027C34.6019 5.41753 34.4941 4.99575 34.4004 4.67707C34.0489 3.51015 33.599 2.38071 32.9569 1.33564C32.6851 0.895112 32.3758 0.473331 32.0572 0C31.4104 1.03102 30.8059 1.97768 30.2107 2.93372C29.4843 4.10064 28.772 5.27694 28.0502 6.44855C27.4738 7.38115 26.8927 8.31375 26.3163 9.24635C25.6227 10.3664 24.9291 11.4865 24.2308 12.6019C23.584 13.6376 22.9092 14.6592 22.2859 15.709L27.2067 25.7286C27.1879 25.6255 27.2067 25.5224 27.3004 25.4099C27.6847 24.9459 28.0409 24.4632 28.4111 23.9899C29.3812 22.7574 30.356 21.5248 31.3261 20.2923C32.104 19.2988 32.7554 18.2209 33.2569 17.068C33.6177 16.2385 33.9739 15.395 34.2176 14.5233C34.4847 13.5719 34.616 12.5831 34.8081 11.6083C35.0471 10.3992 35.019 9.17137 34.9581 7.94821Z" fill="url(#paint2_linear_79_387)"/>
<g opacity="0.55" filter="url(#filter0_d_79_387)">
<path d="M27.1491 25.6558L28.1099 24.3905L22.2893 15.7159L27.1491 25.6558Z" fill="#596880"/>
</g>
<path d="M28.7488 29.0197C28.566 28.6401 28.4254 28.2417 28.2427 27.8621C27.924 27.1966 27.5912 26.5452 27.2631 25.8844C27.2397 25.8329 27.221 25.786 27.2116 25.7391L22.2908 15.7195C22.9141 14.6698 23.589 13.6528 24.2357 12.6124C23.5281 13.7465 22.7829 14.8572 22.1128 16.0148C21.3301 17.3692 20.5897 18.747 19.8633 20.1295C19.1041 21.5776 18.5276 23.096 18.2043 24.7128C17.8387 26.5546 18.1246 28.2839 19.0338 29.8773C19.8258 31.2598 20.7443 32.5673 21.616 33.9029C22.3846 35.0792 23.1672 36.2415 23.9405 37.4084C24.5075 38.266 25.0793 39.1283 25.6557 40C25.8994 39.8547 26.129 39.7329 26.3399 39.5876C26.5789 39.4283 26.8179 39.2595 27.0382 39.0721C28.8472 37.5302 29.9579 35.6416 30.0235 33.2047C30.0516 32.0846 29.7376 31.0629 29.3064 30.0413C29.1283 29.6992 28.9175 29.3665 28.7488 29.0197Z" fill="url(#paint3_linear_79_387)"/>
<path opacity="0.3" d="M13.7434 33.2571L7.82445 25.7447L7.27148 26.8789L13.7434 33.2571Z" fill="#7F8E9B"/>
<defs>
<filter id="filter0_d_79_387" x="18.2893" y="15.7159" width="13.8206" height="17.94" filterUnits="userSpaceOnUse" color-interpolation-filters="sRGB">
<feFlood flood-opacity="0" result="BackgroundImageFix"/>
<feColorMatrix in="SourceAlpha" type="matrix" values="0 0 0 0 0 0 0 0 0 0 0 0 0 0 0 0 0 0 127 0" result="hardAlpha"/>
<feOffset dy="4"/>
<feGaussianBlur stdDeviation="2"/>
<feComposite in2="hardAlpha" operator="out"/>
<feColorMatrix type="matrix" values="0 0 0 0 0 0 0 0 0 0 0 0 0 0 0 0 0 0 0.25 0"/>
<feBlend mode="normal" in2="BackgroundImageFix" result="effect1_dropShadow_79_387"/>
<feBlend mode="normal" in="SourceGraphic" in2="effect1_dropShadow_79_387" result="shape"/>
</filter>
<linearGradient id="paint0_linear_79_387" x1="7.64848" y1="26.4988" x2="9.38393" y2="39.9846" gradientUnits="userSpaceOnUse">
<stop stop-color="#214496"/>
<stop offset="1" stop-color="#438DCA"/>
</linearGradient>
<linearGradient id="paint1_linear_79_387" x1="1.09268" y1="0.545502" x2="14.2049" y2="33.326" gradientUnits="userSpaceOnUse">
<stop stop-color="#3484C8"/>
<stop offset="1" stop-color="#26B9EA"/>
</linearGradient>
<linearGradient id="paint2_linear_79_387" x1="33.8727" y1="7.33176e-08" x2="24.5849" y2="23.7658" gradientUnits="userSpaceOnUse">
<stop offset="0.010247" stop-color="#2BBAF3"/>
<stop offset="1" stop-color="#3A86C1"/>
</linearGradient>
<linearGradient id="paint3_linear_79_387" x1="24.0375" y1="12.6124" x2="24.0375" y2="40" gradientUnits="userSpaceOnUse">
<stop stop-color="#233F93"/>
<stop offset="1" stop-color="#4494CF"/>
</linearGradient>
</defs>
</svg>
