<svg width="139" height="40" viewBox="0 0 139 40" fill="none" xmlns="http://www.w3.org/2000/svg">
<path d="M6.16778 23.5601C6.6786 24.2115 7.18943 24.863 7.70026 25.5097C7.81273 25.6503 7.82683 25.7862 7.74248 25.9455C7.55502 26.3017 7.37223 26.6579 7.19414 27.0187C6.7255 27.9701 6.28029 28.9308 5.7929 29.8728C5.40861 30.6179 5.09459 31.3912 5.00086 32.2113C4.86964 33.3595 4.94465 34.5123 5.3758 35.6043C6.09751 37.4273 7.27379 38.8754 8.99372 39.8502C9.34989 40.0517 9.34051 40.047 9.57014 39.6956C10.634 38.074 11.6978 36.4525 12.771 34.8357C13.1225 34.3061 13.4787 33.7719 13.8255 33.2376L6.16778 23.5601Z" fill="url(#paint0_linear_79_386)"/>
<path d="M16.1455 21.7588C15.6254 20.62 14.9505 19.5468 14.3084 18.4642C13.6149 17.2973 12.8744 16.1538 12.1574 15.0009C11.4591 13.8762 10.7608 12.7514 10.0626 11.6267C9.3549 10.4925 8.64723 9.35843 7.93958 8.21962C7.36315 7.28702 6.80076 6.34973 6.22433 5.41713C5.56822 4.35799 4.90745 3.30354 4.24666 2.24909C3.82957 1.58361 3.41719 0.918138 2.99073 0.233917C2.92511 0.271409 2.897 0.280782 2.87825 0.304215C2.2409 1.11497 1.72065 1.99602 1.30356 2.938C0.872406 3.90809 0.520923 4.91099 0.36627 5.96544C0.230363 6.88867 0.0850973 7.81659 0.0288599 8.74919C-0.0367503 9.76615 0.00542084 10.7925 0.197565 11.8001C0.352218 12.5921 0.478747 13.3935 0.661519 14.1808C0.773993 14.6729 0.928694 15.1556 1.12084 15.6242C1.49107 16.5334 1.86594 17.4425 2.30647 18.3189C2.86415 19.4249 3.63742 20.3903 4.41537 21.3557C5.00586 22.0868 5.58697 22.8273 6.16809 23.563L13.7789 33.3202C14.4725 32.2517 15.1801 31.0895 15.7191 29.9272C16.1924 28.9103 16.5673 27.8652 16.7782 26.7498C17.1063 25.0018 16.8673 23.3334 16.1455 21.7588Z" fill="url(#paint1_linear_79_386)"/>
<path d="M34.9581 7.94821C34.9252 7.28742 34.8362 6.71099 34.719 6.0502C34.7003 5.95178 34.6769 5.85337 34.6581 5.75027C34.6019 5.41753 34.4941 4.99575 34.4004 4.67707C34.0489 3.51015 33.599 2.38071 32.9569 1.33564C32.6851 0.895112 32.3758 0.473331 32.0572 0C31.4104 1.03102 30.8059 1.97768 30.2107 2.93372C29.4843 4.10064 28.772 5.27694 28.0502 6.44855C27.4738 7.38115 26.8927 8.31375 26.3163 9.24636C25.6227 10.3664 24.9291 11.4865 24.2308 12.6019C23.584 13.6376 22.9092 14.6592 22.2859 15.709L27.2067 25.7286C27.1879 25.6255 27.2067 25.5224 27.3004 25.4099C27.6847 24.9459 28.0409 24.4632 28.4111 23.9899C29.3812 22.7574 30.356 21.5248 31.3261 20.2923C32.104 19.2988 32.7554 18.2209 33.2569 17.068C33.6177 16.2385 33.9739 15.395 34.2176 14.5233C34.4847 13.5719 34.616 12.5831 34.8081 11.6083C35.0471 10.3992 35.019 9.17137 34.9581 7.94821Z" fill="url(#paint2_linear_79_386)"/>
<g opacity="0.55" filter="url(#filter0_d_79_386)">
<path d="M27.1491 25.6558L28.1099 24.3905L22.2893 15.7159L27.1491 25.6558Z" fill="#596880"/>
</g>
<path d="M28.7488 29.0197C28.566 28.6401 28.4254 28.2417 28.2427 27.8621C27.924 27.1966 27.5912 26.5452 27.2631 25.8844C27.2397 25.8329 27.221 25.786 27.2116 25.7391L22.2908 15.7195C22.9141 14.6698 23.589 13.6528 24.2357 12.6124C23.5281 13.7465 22.7829 14.8572 22.1128 16.0148C21.3301 17.3692 20.5897 18.747 19.8633 20.1295C19.1041 21.5776 18.5276 23.096 18.2043 24.7128C17.8387 26.5546 18.1246 28.2839 19.0338 29.8773C19.8258 31.2598 20.7443 32.5673 21.616 33.9029C22.3846 35.0792 23.1672 36.2415 23.9405 37.4084C24.5075 38.266 25.0793 39.1283 25.6557 40C25.8994 39.8547 26.129 39.7329 26.3399 39.5876C26.5789 39.4283 26.8179 39.2595 27.0382 39.0721C28.8472 37.5302 29.9579 35.6416 30.0235 33.2047C30.0516 32.0846 29.7376 31.0629 29.3064 30.0413C29.1283 29.6992 28.9175 29.3665 28.7488 29.0197Z" fill="url(#paint3_linear_79_386)"/>
<path opacity="0.3" d="M13.7434 33.2571L7.82445 25.7447L7.27148 26.8789L13.7434 33.2571Z" fill="#7F8E9B"/>
<path d="M63.1655 35.16L59.3895 31.32C59.1548 31.3413 58.9202 31.352 58.6855 31.352C58.4508 31.3733 58.2162 31.384 57.9815 31.384C55.7202 31.384 53.7575 30.968 52.0935 30.136C50.4508 29.304 49.1815 28.0453 48.2855 26.36C47.4108 24.6747 46.9735 22.5627 46.9735 20.024C46.9735 17.464 47.4108 15.352 48.2855 13.688C49.1815 12.0027 50.4508 10.744 52.0935 9.912C53.7575 9.08 55.7202 8.664 57.9815 8.664C60.2855 8.664 62.2588 9.08 63.9015 9.912C65.5442 10.744 66.8028 12.0027 67.6775 13.688C68.5735 15.352 69.0215 17.464 69.0215 20.024C69.0215 22.776 68.4988 25.016 67.4535 26.744C66.4295 28.472 64.9788 29.72 63.1015 30.488L67.9335 35.16H63.1655ZM57.9815 28.344C59.1548 28.344 60.1895 28.184 61.0855 27.864C62.0028 27.544 62.7708 27.0533 63.3895 26.392C64.0295 25.7307 64.5095 24.8987 64.8295 23.896C65.1708 22.8933 65.3415 21.7307 65.3415 20.408V19.704C65.3415 18.3387 65.1708 17.1547 64.8295 16.152C64.5095 15.1493 64.0295 14.3173 63.3895 13.656C62.7708 12.9947 62.0028 12.504 61.0855 12.184C60.1895 11.864 59.1548 11.704 57.9815 11.704C56.8295 11.704 55.7948 11.864 54.8775 12.184C53.9815 12.504 53.2135 12.9947 52.5735 13.656C51.9548 14.3173 51.4855 15.1493 51.1655 16.152C50.8455 17.1547 50.6855 18.3387 50.6855 19.704V20.408C50.6855 21.7307 50.8455 22.8933 51.1655 23.896C51.4855 24.8987 51.9548 25.7307 52.5735 26.392C53.2135 27.0533 53.9815 27.544 54.8775 27.864C55.7948 28.184 56.8295 28.344 57.9815 28.344ZM77.0905 31L70.8505 14.168H74.3385L77.2505 22.2C77.3785 22.584 77.5385 23.0853 77.7305 23.704C77.9225 24.3013 78.1145 24.92 78.3065 25.56C78.4985 26.2 78.6692 26.776 78.8185 27.288H78.9785C79.1065 26.7973 79.2558 26.2427 79.4265 25.624C79.6185 24.984 79.8105 24.3547 80.0025 23.736C80.1945 23.1173 80.3652 22.6053 80.5145 22.2L83.3945 14.168H86.7865L80.5145 31H77.0905ZM89.2065 11.256V7.864H92.5345V11.256H89.2065ZM89.2065 31V14.168H92.5345V31H89.2065ZM96.8315 36.536V14.168H99.5515L99.8395 16.472H100.064C100.64 15.576 101.376 14.904 102.272 14.456C103.168 14.008 104.17 13.784 105.28 13.784C106.666 13.784 107.85 14.0933 108.832 14.712C109.834 15.3307 110.602 16.2907 111.135 17.592C111.669 18.8933 111.936 20.5787 111.936 22.648C111.936 24.6533 111.658 26.3067 111.104 27.608C110.57 28.888 109.813 29.8373 108.832 30.456C107.85 31.0747 106.72 31.384 105.44 31.384C104.693 31.384 104 31.2987 103.36 31.128C102.72 30.9573 102.144 30.6907 101.632 30.328C101.141 29.9653 100.714 29.5067 100.352 28.952H100.16V36.536H96.8315ZM104.288 28.504C105.29 28.504 106.101 28.312 106.72 27.928C107.338 27.5227 107.786 26.904 108.064 26.072C108.362 25.24 108.512 24.184 108.512 22.904V22.328C108.512 20.984 108.362 19.896 108.064 19.064C107.765 18.232 107.306 17.624 106.688 17.24C106.09 16.856 105.312 16.664 104.352 16.664C103.37 16.664 102.57 16.888 101.952 17.336C101.333 17.7627 100.874 18.4027 100.576 19.256C100.298 20.1093 100.16 21.144 100.16 22.36V22.808C100.16 23.8107 100.256 24.6747 100.448 25.4C100.64 26.1253 100.917 26.7227 101.28 27.192C101.642 27.64 102.08 27.9707 102.592 28.184C103.104 28.3973 103.669 28.504 104.288 28.504ZM115.363 31V7.864H118.691V31H115.363ZM129.964 31.384C128.236 31.384 126.785 31.0747 125.612 30.456C124.46 29.816 123.585 28.8453 122.988 27.544C122.39 26.2427 122.092 24.5893 122.092 22.584C122.092 20.5573 122.39 18.904 122.988 17.624C123.585 16.3227 124.47 15.3627 125.644 14.744C126.817 14.104 128.278 13.784 130.028 13.784C131.628 13.784 132.961 14.0933 134.028 14.712C135.116 15.3093 135.937 16.2267 136.492 17.464C137.046 18.7013 137.324 20.2587 137.324 22.136V23.416H125.516C125.558 24.6107 125.74 25.6133 126.06 26.424C126.38 27.2133 126.86 27.8 127.5 28.184C128.161 28.5467 128.993 28.728 129.996 28.728C130.614 28.728 131.169 28.6533 131.66 28.504C132.15 28.3333 132.566 28.0987 132.908 27.8C133.249 27.48 133.516 27.1067 133.708 26.68C133.9 26.232 133.996 25.7307 133.996 25.176H137.26C137.26 26.1787 137.089 27.064 136.748 27.832C136.406 28.6 135.905 29.2507 135.244 29.784C134.604 30.296 133.836 30.6907 132.94 30.968C132.044 31.2453 131.052 31.384 129.964 31.384ZM125.58 20.984H133.836C133.836 20.152 133.74 19.4587 133.548 18.904C133.377 18.328 133.121 17.8587 132.78 17.496C132.438 17.1333 132.033 16.8773 131.564 16.728C131.094 16.5573 130.561 16.472 129.964 16.472C129.068 16.472 128.3 16.632 127.66 16.952C127.041 17.272 126.561 17.7733 126.22 18.456C125.878 19.1173 125.665 19.96 125.58 20.984Z" fill="#233F93"/>
<defs>
<filter id="filter0_d_79_386" x="18.2893" y="15.7159" width="13.8206" height="17.94" filterUnits="userSpaceOnUse" color-interpolation-filters="sRGB">
<feFlood flood-opacity="0" result="BackgroundImageFix"/>
<feColorMatrix in="SourceAlpha" type="matrix" values="0 0 0 0 0 0 0 0 0 0 0 0 0 0 0 0 0 0 127 0" result="hardAlpha"/>
<feOffset dy="4"/>
<feGaussianBlur stdDeviation="2"/>
<feComposite in2="hardAlpha" operator="out"/>
<feColorMatrix type="matrix" values="0 0 0 0 0 0 0 0 0 0 0 0 0 0 0 0 0 0 0.25 0"/>
<feBlend mode="normal" in2="BackgroundImageFix" result="effect1_dropShadow_79_386"/>
<feBlend mode="normal" in="SourceGraphic" in2="effect1_dropShadow_79_386" result="shape"/>
</filter>
<linearGradient id="paint0_linear_79_386" x1="7.64848" y1="26.4988" x2="9.38393" y2="39.9846" gradientUnits="userSpaceOnUse">
<stop stop-color="#214496"/>
<stop offset="1" stop-color="#438DCA"/>
</linearGradient>
<linearGradient id="paint1_linear_79_386" x1="1.09268" y1="0.545502" x2="14.2049" y2="33.326" gradientUnits="userSpaceOnUse">
<stop stop-color="#3484C8"/>
<stop offset="1" stop-color="#26B9EA"/>
</linearGradient>
<linearGradient id="paint2_linear_79_386" x1="33.8727" y1="7.33176e-08" x2="24.5849" y2="23.7658" gradientUnits="userSpaceOnUse">
<stop offset="0.010247" stop-color="#2BBAF3"/>
<stop offset="1" stop-color="#3A86C1"/>
</linearGradient>
<linearGradient id="paint3_linear_79_386" x1="24.0375" y1="12.6124" x2="24.0375" y2="40" gradientUnits="userSpaceOnUse">
<stop stop-color="#233F93"/>
<stop offset="1" stop-color="#4494CF"/>
</linearGradient>
</defs>
</svg>
