<svg width="22" height="22" viewBox="0 0 22 22" fill="none" xmlns="http://www.w3.org/2000/svg">
<path d="M14.6667 15.5833V12.8333H8.25V9.16659H14.6667V6.41659L19.25 10.9999L14.6667 15.5833ZM12.8333 1.83325C13.3196 1.83325 13.7859 2.02641 14.1297 2.37022C14.4735 2.71404 14.6667 3.18036 14.6667 3.66659V5.49992H12.8333V3.66659H4.58333V18.3333H12.8333V16.4999H14.6667V18.3333C14.6667 18.8195 14.4735 19.2858 14.1297 19.6296C13.7859 19.9734 13.3196 20.1666 12.8333 20.1666H4.58333C4.0971 20.1666 3.63079 19.9734 3.28697 19.6296C2.94315 19.2858 2.75 18.8195 2.75 18.3333V3.66659C2.75 3.18036 2.94315 2.71404 3.28697 2.37022C3.63079 2.02641 4.0971 1.83325 4.58333 1.83325H12.8333Z" fill="#121212" fill-opacity="0.45"/>
</svg>
