<svg width="97" height="24" viewBox="0 0 97 24" fill="none" xmlns="http://www.w3.org/2000/svg">
<path d="M43.1186 6.75568H44.983L48.2244 14.6705H48.3438L51.5852 6.75568H53.4496V16.9375H51.9879V9.5696H51.8935L48.8906 16.9226H47.6776L44.6747 9.56463H44.5803V16.9375H43.1186V6.75568ZM57.786 17.1065C57.3021 17.1065 56.8646 17.017 56.4735 16.8381C56.0824 16.6558 55.7725 16.3923 55.5439 16.0476C55.3185 15.7029 55.2058 15.2803 55.2058 14.7798C55.2058 14.349 55.2886 13.9943 55.4544 13.7159C55.6201 13.4375 55.8438 13.2171 56.1255 13.0547C56.4073 12.8923 56.7221 12.7696 57.0701 12.6868C57.4181 12.6039 57.7728 12.541 58.1341 12.4979C58.5914 12.4448 58.9627 12.4018 59.2477 12.3686C59.5327 12.3321 59.7399 12.2741 59.8691 12.1946C59.9984 12.1151 60.063 11.9858 60.063 11.8068V11.772C60.063 11.3378 59.9404 11.0014 59.6951 10.7628C59.4532 10.5241 59.0919 10.4048 58.6113 10.4048C58.1109 10.4048 57.7164 10.5159 57.4281 10.7379C57.1431 10.9567 56.9458 11.2003 56.8365 11.4688L55.4395 11.1506C55.6052 10.6866 55.8471 10.312 56.1653 10.027C56.4868 9.73864 56.8564 9.52983 57.274 9.40057C57.6916 9.26799 58.1307 9.2017 58.5914 9.2017C58.8964 9.2017 59.2195 9.23816 59.5609 9.31108C59.9056 9.38068 60.2271 9.50994 60.5254 9.69886C60.827 9.88778 61.0739 10.1579 61.2662 10.5092C61.4584 10.8572 61.5545 11.3097 61.5545 11.8665V16.9375H60.1028V15.8935H60.0431C59.947 16.0857 59.8029 16.2746 59.6106 16.4602C59.4184 16.6458 59.1715 16.8 58.8699 16.9226C58.5682 17.0452 58.207 17.1065 57.786 17.1065ZM58.1092 15.9134C58.5202 15.9134 58.8715 15.8321 59.1632 15.6697C59.4582 15.5073 59.6819 15.2952 59.8343 15.0334C59.9901 14.7682 60.068 14.4848 60.068 14.1832V13.1989C60.015 13.2519 59.9122 13.3016 59.7598 13.348C59.6106 13.3911 59.4399 13.4292 59.2477 13.4624C59.0555 13.4922 58.8682 13.5204 58.6859 13.5469C58.5036 13.5701 58.3511 13.59 58.2285 13.6065C57.9402 13.643 57.6767 13.7043 57.438 13.7905C57.2027 13.8767 57.0138 14.0009 56.8713 14.1634C56.7321 14.3224 56.6625 14.5346 56.6625 14.7997C56.6625 15.1676 56.7984 15.446 57.0701 15.6349C57.3419 15.8205 57.6883 15.9134 58.1092 15.9134ZM69.2567 11.1655L67.9094 11.4041C67.8531 11.2318 67.7636 11.0677 67.641 10.9119C67.5217 10.7562 67.3593 10.6286 67.1538 10.5291C66.9483 10.4297 66.6914 10.38 66.3832 10.38C65.9622 10.38 65.6109 10.4744 65.3292 10.6634C65.0475 10.849 64.9066 11.0893 64.9066 11.3842C64.9066 11.6394 65.0011 11.8449 65.19 12.0007C65.3789 12.1565 65.6838 12.2841 66.1048 12.3835L67.3178 12.6619C68.0205 12.8243 68.5442 13.0746 68.8888 13.4126C69.2335 13.7507 69.4059 14.1899 69.4059 14.7301C69.4059 15.1875 69.2733 15.5952 69.0082 15.9531C68.7463 16.3078 68.3801 16.5862 67.9094 16.7884C67.4421 16.9905 66.9002 17.0916 66.2837 17.0916C65.4286 17.0916 64.7309 16.9093 64.1907 16.5447C63.6504 16.1768 63.319 15.6548 63.1964 14.9787L64.6332 14.7599C64.7227 15.1345 64.9066 15.4179 65.185 15.6101C65.4634 15.799 65.8263 15.8935 66.2738 15.8935C66.761 15.8935 67.1504 15.7924 67.4421 15.5902C67.7338 15.3847 67.8796 15.1345 67.8796 14.8395C67.8796 14.6009 67.7901 14.4003 67.6112 14.2379C67.4355 14.0755 67.1654 13.9529 66.8008 13.87L65.5082 13.5866C64.7956 13.4242 64.2686 13.1657 63.9272 12.8111C63.5891 12.4564 63.4201 12.0073 63.4201 11.4638C63.4201 11.013 63.546 10.6186 63.7979 10.2805C64.0498 9.94247 64.3978 9.67898 64.842 9.49006C65.2861 9.29782 65.7949 9.2017 66.3683 9.2017C67.1935 9.2017 67.8432 9.38068 68.3171 9.73864C68.7911 10.0933 69.1043 10.5689 69.2567 11.1655ZM74.6049 9.30114V10.4943H70.4338V9.30114H74.6049ZM71.5524 7.47159H73.0389V14.6953C73.0389 14.9837 73.082 15.2008 73.1681 15.3466C73.2543 15.4891 73.3654 15.5869 73.5012 15.6399C73.6404 15.6896 73.7913 15.7145 73.9537 15.7145C74.073 15.7145 74.1774 15.7062 74.2669 15.6896C74.3564 15.6731 74.426 15.6598 74.4757 15.6499L74.7441 16.8778C74.658 16.911 74.5353 16.9441 74.3762 16.9773C74.2172 17.0137 74.0183 17.0336 73.7797 17.0369C73.3886 17.0436 73.024 16.974 72.6859 16.8281C72.3478 16.6823 72.0744 16.4569 71.8656 16.152C71.6568 15.8471 71.5524 15.4643 71.5524 15.0036V7.47159ZM79.4585 17.0916C78.7061 17.0916 78.0581 16.9309 77.5146 16.6094C76.9743 16.2846 76.5567 15.8288 76.2617 15.2422C75.9701 14.6522 75.8242 13.9612 75.8242 13.169C75.8242 12.3868 75.9701 11.6974 76.2617 11.1009C76.5567 10.5043 76.9677 10.0386 77.4947 9.70383C78.025 9.36908 78.6448 9.2017 79.354 9.2017C79.7849 9.2017 80.2025 9.27296 80.6069 9.41548C81.0112 9.558 81.3742 9.78172 81.6957 10.0866C82.0172 10.3916 82.2707 10.7876 82.4563 11.2749C82.6419 11.7588 82.7347 12.3471 82.7347 13.0398V13.5668H76.6644V12.4531H81.2781C81.2781 12.062 81.1985 11.7157 81.0394 11.4141C80.8803 11.1091 80.6566 10.8688 80.3683 10.6932C80.0832 10.5175 79.7485 10.4297 79.364 10.4297C78.9464 10.4297 78.5818 10.5324 78.2702 10.7379C77.962 10.9401 77.7234 11.2053 77.5543 11.5334C77.3886 11.8582 77.3058 12.2112 77.3058 12.5923V13.4624C77.3058 13.9728 77.3952 14.407 77.5742 14.7649C77.7565 15.1229 78.0101 15.3963 78.3349 15.5852C78.6597 15.7708 79.0392 15.8636 79.4734 15.8636C79.7551 15.8636 80.012 15.8239 80.244 15.7443C80.476 15.6615 80.6765 15.5388 80.8455 15.3764C81.0146 15.214 81.1438 15.0135 81.2333 14.7749L82.6403 15.0284C82.5276 15.4427 82.3254 15.8056 82.0337 16.1172C81.7454 16.4254 81.3825 16.6657 80.945 16.8381C80.5108 17.0071 80.0153 17.0916 79.4585 17.0916ZM84.3841 16.9375V9.30114H85.8208V10.5142H85.9004C86.0396 10.1032 86.2849 9.78007 86.6362 9.54474C86.9908 9.30611 87.3919 9.18679 87.8393 9.18679C87.9321 9.18679 88.0415 9.1901 88.1674 9.19673C88.2967 9.20336 88.3978 9.21165 88.4707 9.22159V10.6435C88.411 10.6269 88.305 10.6087 88.1525 10.5888C88.0001 10.5656 87.8476 10.554 87.6951 10.554C87.3438 10.554 87.0306 10.6286 86.7555 10.7777C86.4837 10.9235 86.2683 11.1274 86.1092 11.3892C85.9501 11.6477 85.8706 11.9427 85.8706 12.2741V16.9375H84.3841ZM95.4794 11.1655L94.1321 11.4041C94.0758 11.2318 93.9863 11.0677 93.8636 10.9119C93.7443 10.7562 93.5819 10.6286 93.3764 10.5291C93.1709 10.4297 92.9141 10.38 92.6058 10.38C92.1849 10.38 91.8336 10.4744 91.5518 10.6634C91.2701 10.849 91.1293 11.0893 91.1293 11.3842C91.1293 11.6394 91.2237 11.8449 91.4126 12.0007C91.6016 12.1565 91.9065 12.2841 92.3274 12.3835L93.5405 12.6619C94.2431 12.8243 94.7668 13.0746 95.1115 13.4126C95.4562 13.7507 95.6286 14.1899 95.6286 14.7301C95.6286 15.1875 95.496 15.5952 95.2308 15.9531C94.969 16.3078 94.6027 16.5862 94.1321 16.7884C93.6648 16.9905 93.1229 17.0916 92.5064 17.0916C91.6513 17.0916 90.9536 16.9093 90.4134 16.5447C89.8731 16.1768 89.5417 15.6548 89.419 14.9787L90.8558 14.7599C90.9453 15.1345 91.1293 15.4179 91.4077 15.6101C91.6861 15.799 92.049 15.8935 92.4964 15.8935C92.9837 15.8935 93.3731 15.7924 93.6648 15.5902C93.9564 15.3847 94.1023 15.1345 94.1023 14.8395C94.1023 14.6009 94.0128 14.4003 93.8338 14.2379C93.6581 14.0755 93.388 13.9529 93.0234 13.87L91.7308 13.5866C91.0182 13.4242 90.4912 13.1657 90.1499 12.8111C89.8118 12.4564 89.6428 12.0073 89.6428 11.4638C89.6428 11.013 89.7687 10.6186 90.0206 10.2805C90.2725 9.94247 90.6205 9.67898 91.0646 9.49006C91.5088 9.29782 92.0175 9.2017 92.5909 9.2017C93.4162 9.2017 94.0658 9.38068 94.5398 9.73864C95.0137 10.0933 95.3269 10.5689 95.4794 11.1655Z" fill="#121212" fill-opacity="0.8"/>
<path d="M20 16.646C20.5304 16.646 21.0391 16.4397 21.4142 16.0724C21.7893 15.7052 22 15.207 22 14.6877V3.91683C22 3.39745 21.7893 2.89934 21.4142 2.53208C21.0391 2.16482 20.5304 1.9585 20 1.9585H9.46C9.81 2.55579 10 3.23141 10 3.91683H20V14.6877H11V16.646H20ZM15 6.85433V8.81266H9V21.5418H7V15.6668H5V21.5418H3V13.7085H1.5V8.81266C1.5 8.29328 1.71071 7.79517 2.08579 7.42791C2.46086 7.06065 2.96957 6.85433 3.5 6.85433H15ZM8 3.91683C8 4.43621 7.78929 4.93432 7.41421 5.30158C7.03914 5.66884 6.53043 5.87516 6 5.87516C5.46957 5.87516 4.96086 5.66884 4.58579 5.30158C4.21071 4.93432 4 4.43621 4 3.91683C4 3.39745 4.21071 2.89934 4.58579 2.53208C4.96086 2.16482 5.46957 1.9585 6 1.9585C6.53043 1.9585 7.03914 2.16482 7.41421 2.53208C7.78929 2.89934 8 3.39745 8 3.91683Z" fill="#121212" fill-opacity="0.8"/>
</svg>
