<svg width="42" height="42" viewBox="0 0 42 42" fill="none" xmlns="http://www.w3.org/2000/svg">
<path d="M17.5 26.8335V28.0002C17.5 28.4598 17.5905 28.9149 17.7664 29.3396C17.9423 29.7642 18.2001 30.15 18.5251 30.475C18.8502 30.8 19.236 31.0579 19.6606 31.2337C20.0852 31.4096 20.5403 31.5002 21 31.5002C21.4597 31.5002 21.9148 31.4096 22.3394 31.2337C22.764 31.0579 23.1498 30.8 23.4748 30.475C23.7999 30.15 24.0577 29.7642 24.2335 29.3396C24.4095 28.9149 24.5 28.4598 24.5 28.0002V26.8335" fill="#1C023B"/>
<path d="M17.5 26.8335V28.0002C17.5 28.4598 17.5905 28.9149 17.7664 29.3396C17.9423 29.7642 18.2001 30.15 18.5251 30.475C18.8502 30.8 19.236 31.0579 19.6606 31.2337C20.0852 31.4096 20.5403 31.5002 21 31.5002C21.4597 31.5002 21.9148 31.4096 22.3394 31.2337C22.764 31.0579 23.1498 30.8 23.4748 30.475C23.7999 30.15 24.0577 29.7642 24.2335 29.3396C24.4095 28.9149 24.5 28.4598 24.5 28.0002V26.8335" stroke="#1C023B" stroke-width="1.5" stroke-linecap="round" stroke-linejoin="round"/>
<path d="M30.3333 26.8333C30.3333 26.8333 28 21 28 17.5C28 13.6873 24.8126 10.5 21 10.5C17.1873 10.5 14 13.6873 14 17.5C14 22.1667 11.6666 26.8333 11.6666 26.8333H30.3333Z" fill="#1C023B" stroke="#1C023B" stroke-width="1.5" stroke-linecap="round" stroke-linejoin="round"/>
</svg>
