<svg width="42" height="42" viewBox="0 0 42 42" fill="none" xmlns="http://www.w3.org/2000/svg">
<path d="M17.5 26.8333V28C17.5 28.4596 17.5905 28.9148 17.7664 29.3394C17.9423 29.764 18.2001 30.1498 18.5251 30.4748C18.8502 30.7999 19.236 31.0577 19.6606 31.2335C20.0852 31.4094 20.5403 31.5 21 31.5C21.4597 31.5 21.9148 31.4094 22.3394 31.2335C22.764 31.0577 23.1498 30.7999 23.4748 30.4748C23.7999 30.1498 24.0577 29.764 24.2335 29.3394C24.4095 28.9148 24.5 28.4596 24.5 28V26.8333" stroke="#121212" stroke-width="1.5" stroke-linecap="round" stroke-linejoin="round"/>
<path d="M30.3333 26.8333C30.3333 26.8333 28 21 28 17.5C28 13.6873 24.8127 10.5 21 10.5C17.1873 10.5 14 13.6873 14 17.5C14 22.1667 11.6667 26.8333 11.6667 26.8333H30.3333Z" stroke="#121212" stroke-width="1.5" stroke-linecap="round" stroke-linejoin="round"/>
</svg>
