<svg width="23" height="20" viewBox="0 0 23 20" fill="none" xmlns="http://www.w3.org/2000/svg">
<path d="M15.9999 10C18.7599 10 20.9999 7.76 20.9999 5C20.9999 2.24 18.7599 0 15.9999 0C13.2399 0 10.9999 2.24 10.9999 5C10.9999 7.76 13.2399 10 15.9999 10ZM21.4499 15.6C21.0599 15.2 20.5699 15 19.9999 15H12.9999L10.9199 14.27L11.2499 13.33L12.9999 14H15.7999C16.1499 14 16.4299 13.86 16.6599 13.63C16.8899 13.4 16.9999 13.12 16.9999 12.81C16.9999 12.27 16.7399 11.9 16.2199 11.69L8.94989 9H6.99989V18L13.9999 20L22.0299 17C22.0399 16.47 21.8399 16 21.4499 15.6ZM4.99989 9H0.983887V20H4.99989V9Z" fill="#121212" fill-opacity="0.6"/>
</svg>
