<svg width="16" height="16" viewBox="0 0 16 16" fill="none" xmlns="http://www.w3.org/2000/svg">
<path d="M12.6667 10C14.1394 10 15.3333 11.1939 15.3333 12.6667V14H14" stroke="#121212" stroke-opacity="0.6" stroke-width="0.8" stroke-linecap="round" stroke-linejoin="round"/>
<path d="M10.6667 7.24931C11.8168 6.95324 12.6667 5.9092 12.6667 4.66664C12.6667 3.42408 11.8168 2.38001 10.6667 2.08398" stroke="#121212" stroke-opacity="0.6" stroke-width="0.8" stroke-linecap="round" stroke-linejoin="round"/>
<path d="M5.99999 7.33333C7.47273 7.33333 8.66666 6.13943 8.66666 4.66667C8.66666 3.19391 7.47273 2 5.99999 2C4.52723 2 3.33333 3.19391 3.33333 4.66667C3.33333 6.13943 4.52723 7.33333 5.99999 7.33333Z" stroke="#121212" stroke-opacity="0.6" stroke-width="0.8" stroke-linecap="round" stroke-linejoin="round"/>
<path d="M8.66666 10H3.33333C1.86057 10 0.666664 11.1939 0.666664 12.6667V14H11.3333V12.6667C11.3333 11.1939 10.1394 10 8.66666 10Z" stroke="#121212" stroke-opacity="0.6" stroke-width="0.8" stroke-linecap="round" stroke-linejoin="round"/>
</svg>
