<svg width="70" height="16" viewBox="0 0 70 16" fill="none" xmlns="http://www.w3.org/2000/svg">
<path d="M8.60156 8.70508C8.60156 9.4082 8.50586 10.0449 8.31445 10.6152C8.12305 11.1855 7.83789 11.668 7.45898 12.0625C7.08398 12.457 6.61523 12.7441 6.05273 12.9238L8.06836 15.0391H6.64453L4.98633 13.1055C4.93555 13.1055 4.88281 13.1074 4.82812 13.1113C4.77734 13.1152 4.72656 13.1172 4.67578 13.1172C4.01172 13.1172 3.43164 13.0117 2.93555 12.8008C2.44336 12.5898 2.0332 12.2891 1.70508 11.8984C1.38086 11.5078 1.13672 11.041 0.972656 10.498C0.8125 9.95508 0.732422 9.35352 0.732422 8.69336C0.732422 7.81836 0.876953 7.05078 1.16602 6.39062C1.45508 5.73047 1.89258 5.2168 2.47852 4.84961C3.06836 4.48242 3.80664 4.29883 4.69336 4.29883C5.54102 4.29883 6.25391 4.48047 6.83203 4.84375C7.41406 5.20703 7.85352 5.71875 8.15039 6.37891C8.45117 7.03516 8.60156 7.81055 8.60156 8.70508ZM1.78125 8.70508C1.78125 9.43164 1.88477 10.0605 2.0918 10.5918C2.29883 11.123 2.61523 11.5332 3.04102 11.8223C3.4707 12.1113 4.01562 12.2559 4.67578 12.2559C5.33984 12.2559 5.88281 12.1113 6.30469 11.8223C6.73047 11.5332 7.04492 11.123 7.24805 10.5918C7.45117 10.0605 7.55273 9.43164 7.55273 8.70508C7.55273 7.59961 7.32031 6.73633 6.85547 6.11523C6.39453 5.49023 5.67383 5.17773 4.69336 5.17773C4.0293 5.17773 3.48242 5.32031 3.05273 5.60547C2.62305 5.89062 2.30273 6.29688 2.0918 6.82422C1.88477 7.34766 1.78125 7.97461 1.78125 8.70508ZM15.668 6.57812V13H14.8711L14.7305 12.0977H14.6777C14.5449 12.3203 14.373 12.5078 14.1621 12.6602C13.9512 12.8125 13.7129 12.9258 13.4473 13C13.1855 13.0781 12.9062 13.1172 12.6094 13.1172C12.1016 13.1172 11.6758 13.0352 11.332 12.8711C10.9883 12.707 10.7285 12.4531 10.5527 12.1094C10.3809 11.7656 10.2949 11.3242 10.2949 10.7852V6.57812H11.2793V10.7148C11.2793 11.25 11.4004 11.6504 11.6426 11.916C11.8848 12.1777 12.2539 12.3086 12.75 12.3086C13.2266 12.3086 13.6055 12.2188 13.8867 12.0391C14.1719 11.8594 14.377 11.5957 14.502 11.248C14.627 10.8965 14.6895 10.4668 14.6895 9.95898V6.57812H15.668ZM20.1973 6.46094C20.7441 6.46094 21.2129 6.58203 21.6035 6.82422C21.9941 7.06641 22.293 7.40625 22.5 7.84375C22.707 8.27734 22.8105 8.78516 22.8105 9.36719V9.9707H18.375C18.3867 10.7246 18.5742 11.2988 18.9375 11.6934C19.3008 12.0879 19.8125 12.2852 20.4727 12.2852C20.8789 12.2852 21.2383 12.248 21.5508 12.1738C21.8633 12.0996 22.1875 11.9902 22.5234 11.8457V12.7012C22.1992 12.8457 21.877 12.9512 21.5566 13.0176C21.2402 13.084 20.8652 13.1172 20.4316 13.1172C19.8145 13.1172 19.2754 12.9922 18.8145 12.7422C18.3574 12.4883 18.002 12.1172 17.748 11.6289C17.4941 11.1406 17.3672 10.543 17.3672 9.83594C17.3672 9.14453 17.4824 8.54688 17.7129 8.04297C17.9473 7.53516 18.2754 7.14453 18.6973 6.87109C19.123 6.59766 19.623 6.46094 20.1973 6.46094ZM20.1855 7.25781C19.666 7.25781 19.252 7.42773 18.9434 7.76758C18.6348 8.10742 18.4512 8.58203 18.3926 9.19141H21.791C21.7871 8.80859 21.7266 8.47266 21.6094 8.18359C21.4961 7.89062 21.3223 7.66406 21.0879 7.50391C20.8535 7.33984 20.5527 7.25781 20.1855 7.25781ZM28.6172 11.2422C28.6172 11.6523 28.5137 11.998 28.3066 12.2793C28.1035 12.5566 27.8105 12.7656 27.4277 12.9062C27.0488 13.0469 26.5957 13.1172 26.0684 13.1172C25.6191 13.1172 25.2305 13.082 24.9023 13.0117C24.5742 12.9414 24.2871 12.8418 24.041 12.7129V11.8164C24.3027 11.9453 24.6152 12.0625 24.9785 12.168C25.3418 12.2734 25.7129 12.3262 26.0918 12.3262C26.6465 12.3262 27.0488 12.2363 27.2988 12.0566C27.5488 11.877 27.6738 11.6328 27.6738 11.3242C27.6738 11.1484 27.623 10.9941 27.5215 10.8613C27.4238 10.7246 27.2578 10.5938 27.0234 10.4688C26.7891 10.3398 26.4648 10.1992 26.0508 10.0469C25.6406 9.89062 25.2852 9.73633 24.9844 9.58398C24.6875 9.42773 24.457 9.23828 24.293 9.01562C24.1328 8.79297 24.0527 8.50391 24.0527 8.14844C24.0527 7.60547 24.2715 7.18945 24.709 6.90039C25.1504 6.60742 25.7285 6.46094 26.4434 6.46094C26.8301 6.46094 27.1914 6.5 27.5273 6.57812C27.8672 6.65234 28.1836 6.75391 28.4766 6.88281L28.1484 7.66211C27.8828 7.54883 27.5996 7.45312 27.2988 7.375C26.998 7.29688 26.6914 7.25781 26.3789 7.25781C25.9297 7.25781 25.584 7.33203 25.3418 7.48047C25.1035 7.62891 24.9844 7.83203 24.9844 8.08984C24.9844 8.28906 25.0391 8.45312 25.1484 8.58203C25.2617 8.71094 25.4414 8.83203 25.6875 8.94531C25.9336 9.05859 26.2578 9.19141 26.6602 9.34375C27.0625 9.49219 27.4102 9.64648 27.7031 9.80664C27.9961 9.96289 28.2207 10.1543 28.377 10.3809C28.5371 10.6035 28.6172 10.8906 28.6172 11.2422ZM32.2559 12.3203C32.416 12.3203 32.5801 12.3066 32.748 12.2793C32.916 12.252 33.0527 12.2188 33.1582 12.1797V12.9355C33.0449 12.9863 32.8867 13.0293 32.6836 13.0645C32.4844 13.0996 32.2891 13.1172 32.0977 13.1172C31.7578 13.1172 31.4492 13.0586 31.1719 12.9414C30.8945 12.8203 30.6719 12.6172 30.5039 12.332C30.3398 12.0469 30.2578 11.6523 30.2578 11.1484V7.33984H29.3438V6.86523L30.2637 6.48438L30.6504 5.08984H31.2363V6.57812H33.1172V7.33984H31.2363V11.1191C31.2363 11.5215 31.3281 11.8223 31.5117 12.0215C31.6992 12.2207 31.9473 12.3203 32.2559 12.3203ZM35.4316 6.57812V13H34.459V6.57812H35.4316ZM34.957 4.17578C35.1172 4.17578 35.2539 4.22852 35.3672 4.33398C35.4844 4.43555 35.543 4.5957 35.543 4.81445C35.543 5.0293 35.4844 5.18945 35.3672 5.29492C35.2539 5.40039 35.1172 5.45312 34.957 5.45312C34.7891 5.45312 34.6484 5.40039 34.5352 5.29492C34.4258 5.18945 34.3711 5.0293 34.3711 4.81445C34.3711 4.5957 34.4258 4.43555 34.5352 4.33398C34.6484 4.22852 34.7891 4.17578 34.957 4.17578ZM43.0312 9.77734C43.0312 10.3047 42.9629 10.7754 42.8262 11.1895C42.6895 11.6035 42.4922 11.9531 42.2344 12.2383C41.9766 12.5234 41.6641 12.7422 41.2969 12.8945C40.9336 13.043 40.5215 13.1172 40.0605 13.1172C39.6309 13.1172 39.2363 13.043 38.877 12.8945C38.5215 12.7422 38.2129 12.5234 37.9512 12.2383C37.6934 11.9531 37.4922 11.6035 37.3477 11.1895C37.207 10.7754 37.1367 10.3047 37.1367 9.77734C37.1367 9.07422 37.2559 8.47656 37.4941 7.98438C37.7324 7.48828 38.0723 7.11133 38.5137 6.85352C38.959 6.5918 39.4883 6.46094 40.1016 6.46094C40.6875 6.46094 41.1992 6.5918 41.6367 6.85352C42.0781 7.11523 42.4199 7.49414 42.6621 7.99023C42.9082 8.48242 43.0312 9.07812 43.0312 9.77734ZM38.1445 9.77734C38.1445 10.293 38.2129 10.7402 38.3496 11.1191C38.4863 11.498 38.6973 11.791 38.9824 11.998C39.2676 12.2051 39.6348 12.3086 40.084 12.3086C40.5293 12.3086 40.8945 12.2051 41.1797 11.998C41.4688 11.791 41.6816 11.498 41.8184 11.1191C41.9551 10.7402 42.0234 10.293 42.0234 9.77734C42.0234 9.26562 41.9551 8.82422 41.8184 8.45312C41.6816 8.07812 41.4707 7.78906 41.1855 7.58594C40.9004 7.38281 40.5312 7.28125 40.0781 7.28125C39.4102 7.28125 38.9199 7.50195 38.6074 7.94336C38.2988 8.38477 38.1445 8.99609 38.1445 9.77734ZM47.7539 6.46094C48.5156 6.46094 49.0918 6.64844 49.4824 7.02344C49.873 7.39453 50.0684 7.99219 50.0684 8.81641V13H49.1074V8.88086C49.1074 8.3457 48.9844 7.94531 48.7383 7.67969C48.4961 7.41406 48.123 7.28125 47.6191 7.28125C46.9082 7.28125 46.4082 7.48242 46.1191 7.88477C45.8301 8.28711 45.6855 8.87109 45.6855 9.63672V13H44.7129V6.57812H45.498L45.6445 7.50391H45.6973C45.834 7.27734 46.0078 7.08789 46.2188 6.93555C46.4297 6.7793 46.666 6.66211 46.9277 6.58398C47.1895 6.50195 47.4648 6.46094 47.7539 6.46094Z" fill="#002BBE"/>
<path d="M61.3333 12H62.6667V10.6667H61.3333V12ZM62 4C61.2928 4 60.6145 4.28095 60.1144 4.78105C59.6143 5.28115 59.3333 5.95942 59.3333 6.66667H60.6667C60.6667 6.31305 60.8071 5.97391 61.0572 5.72386C61.3072 5.47381 61.6464 5.33333 62 5.33333C62.3536 5.33333 62.6928 5.47381 62.9428 5.72386C63.1929 5.97391 63.3333 6.31305 63.3333 6.66667C63.3333 8 61.3333 7.83333 61.3333 10H62.6667C62.6667 8.5 64.6667 8.33333 64.6667 6.66667C64.6667 5.95942 64.3857 5.28115 63.8856 4.78105C63.3855 4.28095 62.7072 4 62 4ZM57.3333 2H66.6667C67.0203 2 67.3594 2.14048 67.6095 2.39052C67.8595 2.64057 68 2.97971 68 3.33333V12.6667C68 13.0203 67.8595 13.3594 67.6095 13.6095C67.3594 13.8595 67.0203 14 66.6667 14H57.3333C56.9797 14 56.6406 13.8595 56.3905 13.6095C56.1405 13.3594 56 13.0203 56 12.6667V3.33333C56 2.97971 56.1405 2.64057 56.3905 2.39052C56.6406 2.14048 56.9797 2 57.3333 2Z" fill="#002BBE"/>
</svg>
