<svg width="47" height="15" viewBox="0 0 47 15" fill="none" xmlns="http://www.w3.org/2000/svg">
<path d="M27.6667 13.472C27.6907 13.464 27.7067 13.48 27.7147 13.52C27.7307 13.56 27.7307 13.584 27.7147 13.592C27.2507 13.696 26.7627 13.748 26.2507 13.748C24.8587 13.748 23.4267 13.508 21.9547 13.028C20.4907 12.548 19.1147 11.912 17.8267 11.12C17.6027 11.136 17.4347 11.144 17.3227 11.144C16.5787 11.144 15.9147 10.972 15.3307 10.628C14.7547 10.276 14.3067 9.804 13.9867 9.212C13.6747 8.612 13.5187 7.96 13.5187 7.256C13.5187 6.432 13.7267 5.728 14.1427 5.144C14.5587 4.552 15.0907 4.108 15.7387 3.812C16.3947 3.516 17.0627 3.368 17.7427 3.368C18.5027 3.368 19.1707 3.548 19.7467 3.908C20.3227 4.26 20.7627 4.728 21.0667 5.312C21.3787 5.896 21.5347 6.516 21.5347 7.172C21.5347 7.932 21.3267 8.628 20.9107 9.26C20.4947 9.884 19.9427 10.364 19.2547 10.7L19.3867 10.676C20.3307 11.324 21.4627 11.956 22.7827 12.572C24.1107 13.196 25.5067 13.508 26.9707 13.508C27.2587 13.508 27.4907 13.496 27.6667 13.472ZM14.9947 6.812C14.9947 7.588 15.1107 8.284 15.3427 8.9C15.5827 9.508 15.9067 9.984 16.3147 10.328C16.7307 10.672 17.1987 10.844 17.7187 10.844C18.1667 10.844 18.5667 10.716 18.9187 10.46C19.2787 10.196 19.5587 9.816 19.7587 9.32C19.9587 8.816 20.0587 8.216 20.0587 7.52C20.0587 6.784 19.9467 6.128 19.7227 5.552C19.4987 4.968 19.1747 4.512 18.7507 4.184C18.3267 3.856 17.8307 3.692 17.2627 3.692C16.5347 3.692 15.9747 3.968 15.5827 4.52C15.1907 5.064 14.9947 5.828 14.9947 6.812ZM27.5662 6.368C27.5822 6.368 27.5902 6.392 27.5902 6.44C27.5902 6.488 27.5822 6.512 27.5662 6.512C27.3342 6.512 27.1262 6.6 26.9422 6.776C26.7662 6.952 26.5982 7.224 26.4382 7.592L24.9622 11C24.9542 11.04 24.9102 11.06 24.8302 11.06C24.7662 11.06 24.7222 11.04 24.6982 11L22.8622 7.364C22.6942 7.012 22.5462 6.784 22.4182 6.68C22.2902 6.568 22.1342 6.512 21.9502 6.512C21.9262 6.512 21.9142 6.488 21.9142 6.44C21.9142 6.392 21.9262 6.368 21.9502 6.368C22.0942 6.368 22.2142 6.372 22.3102 6.38L23.1142 6.392L24.0382 6.38C24.1742 6.372 24.3622 6.368 24.6022 6.368C24.6262 6.368 24.6382 6.392 24.6382 6.44C24.6382 6.488 24.6262 6.512 24.6022 6.512C24.1382 6.512 23.9062 6.604 23.9062 6.788C23.9062 6.836 23.9262 6.9 23.9662 6.98L25.3102 9.5L26.1022 7.58C26.1662 7.412 26.1982 7.268 26.1982 7.148C26.1982 6.948 26.1302 6.792 25.9942 6.68C25.8582 6.568 25.6702 6.512 25.4302 6.512C25.4142 6.512 25.4062 6.488 25.4062 6.44C25.4062 6.392 25.4142 6.368 25.4302 6.368C25.6462 6.368 25.8102 6.372 25.9222 6.38L26.6422 6.392L27.1222 6.38C27.2182 6.372 27.3662 6.368 27.5662 6.368ZM27.8713 11C27.8473 11 27.8353 10.976 27.8353 10.928C27.8353 10.88 27.8473 10.856 27.8713 10.856C28.1193 10.856 28.2873 10.8 28.3753 10.688C28.4633 10.568 28.5073 10.348 28.5073 10.028V7.88C28.5073 7.608 28.4793 7.412 28.4233 7.292C28.3673 7.172 28.2753 7.112 28.1473 7.112C28.0433 7.112 27.8953 7.156 27.7033 7.244H27.6913C27.6593 7.244 27.6353 7.224 27.6193 7.184C27.6033 7.136 27.6073 7.108 27.6313 7.1L29.4433 6.26L29.4793 6.248C29.5193 6.248 29.5593 6.268 29.5993 6.308C29.6393 6.348 29.6593 6.384 29.6593 6.416V6.68C29.6433 7 29.6353 7.392 29.6353 7.856V10.028C29.6353 10.348 29.6793 10.568 29.7673 10.688C29.8633 10.8 30.0353 10.856 30.2833 10.856C30.3073 10.856 30.3193 10.88 30.3193 10.928C30.3193 10.976 30.3073 11 30.2833 11C30.0753 11 29.9113 10.996 29.7913 10.988L29.0713 10.976L28.3633 10.988C28.2433 10.996 28.0793 11 27.8713 11ZM29.0233 5.06C28.7913 5.06 28.6113 4.996 28.4833 4.868C28.3553 4.74 28.2913 4.56 28.2913 4.328C28.2913 4.12 28.3553 3.956 28.4833 3.836C28.6193 3.708 28.7993 3.644 29.0233 3.644C29.2473 3.644 29.4193 3.704 29.5393 3.824C29.6593 3.944 29.7193 4.112 29.7193 4.328C29.7193 4.56 29.6593 4.74 29.5393 4.868C29.4193 4.996 29.2473 5.06 29.0233 5.06ZM33.6877 11.156C33.2957 11.156 32.9517 11.112 32.6557 11.024V13.328C32.6557 13.568 32.6797 13.744 32.7277 13.856C32.7837 13.968 32.8837 14.044 33.0277 14.084C33.1797 14.132 33.4117 14.156 33.7237 14.156C33.7477 14.156 33.7597 14.18 33.7597 14.228C33.7597 14.276 33.7477 14.3 33.7237 14.3C33.4277 14.3 33.1957 14.296 33.0277 14.288L32.0797 14.276L31.3717 14.288C31.2517 14.296 31.0837 14.3 30.8677 14.3C30.8437 14.3 30.8317 14.276 30.8317 14.228C30.8317 14.18 30.8437 14.156 30.8677 14.156C31.0597 14.156 31.1997 14.132 31.2877 14.084C31.3837 14.044 31.4477 13.968 31.4797 13.856C31.5197 13.744 31.5397 13.568 31.5397 13.328V7.772C31.5397 7.516 31.5117 7.332 31.4557 7.22C31.3997 7.108 31.2997 7.052 31.1557 7.052C31.0277 7.052 30.8437 7.108 30.6037 7.22H30.5797C30.5557 7.22 30.5357 7.2 30.5197 7.16C30.4957 7.12 30.4917 7.096 30.5077 7.088L32.2117 6.26C32.2277 6.252 32.2477 6.248 32.2717 6.248C32.3517 6.248 32.4237 6.316 32.4877 6.452C32.5597 6.588 32.6077 6.772 32.6317 7.004C33.2157 6.476 33.8157 6.212 34.4317 6.212C34.7677 6.212 35.0797 6.3 35.3677 6.476C35.6637 6.652 35.8997 6.908 36.0757 7.244C36.2517 7.58 36.3397 7.972 36.3397 8.42C36.3397 9.06 36.2077 9.588 35.9437 10.004C35.6797 10.412 35.3437 10.708 34.9357 10.892C34.5357 11.068 34.1197 11.156 33.6877 11.156ZM33.6397 6.884C33.2797 6.884 32.9517 7.012 32.6557 7.268V7.364V10.256C32.8317 10.456 33.0157 10.608 33.2077 10.712C33.3997 10.808 33.6357 10.856 33.9157 10.856C34.7237 10.856 35.1277 10.168 35.1277 8.792C35.1277 8.184 34.9837 7.716 34.6957 7.388C34.4157 7.052 34.0637 6.884 33.6397 6.884ZM37.128 11C37.112 11 37.104 10.976 37.104 10.928C37.104 10.88 37.112 10.856 37.128 10.856C37.376 10.856 37.544 10.8 37.632 10.688C37.728 10.568 37.776 10.348 37.776 10.028L37.788 3.932C37.788 3.652 37.76 3.452 37.704 3.332C37.656 3.212 37.568 3.152 37.44 3.152C37.336 3.152 37.184 3.196 36.984 3.284H36.972C36.948 3.284 36.924 3.264 36.9 3.224C36.884 3.176 36.884 3.148 36.9 3.14L38.664 2.312L38.712 2.3C38.752 2.3 38.796 2.32 38.844 2.36C38.892 2.392 38.916 2.424 38.916 2.456V10.028C38.916 10.348 38.96 10.568 39.048 10.688C39.136 10.8 39.304 10.856 39.552 10.856C39.584 10.856 39.6 10.88 39.6 10.928C39.6 10.976 39.584 11 39.552 11C39.352 11 39.192 10.996 39.072 10.988L38.34 10.976L37.62 10.988C37.5 10.996 37.336 11 37.128 11ZM44.5749 10.208C44.5909 10.208 44.6069 10.224 44.6229 10.256C44.6469 10.288 44.6509 10.312 44.6349 10.328C44.3389 10.616 44.0389 10.824 43.7349 10.952C43.4309 11.08 43.0989 11.144 42.7389 11.144C42.2349 11.144 41.7989 11.04 41.4309 10.832C41.0629 10.616 40.7829 10.332 40.5909 9.98C40.3989 9.62 40.3029 9.236 40.3029 8.828C40.3029 8.364 40.4229 7.936 40.6629 7.544C40.9029 7.144 41.2309 6.832 41.6469 6.608C42.0629 6.376 42.5269 6.26 43.0389 6.26C43.5349 6.26 43.9149 6.368 44.1789 6.584C44.4429 6.792 44.5749 7.08 44.5749 7.448C44.5749 7.68 44.5309 7.796 44.4429 7.796H43.7109L41.5509 7.82C41.5269 7.972 41.5149 8.14 41.5149 8.324C41.5149 9.012 41.6749 9.556 41.9949 9.956C42.3229 10.356 42.7709 10.556 43.3389 10.556C43.5389 10.556 43.7469 10.528 43.9629 10.472C44.1789 10.416 44.3749 10.332 44.5509 10.22L44.5749 10.208ZM42.5949 6.5C42.3549 6.5 42.1469 6.596 41.9709 6.788C41.7949 6.98 41.6669 7.244 41.5869 7.58L43.2909 7.544C43.2669 6.848 43.0349 6.5 42.5949 6.5Z" fill="#0942A6"/>
<path d="M9.76487 1.98157C9.53035 2.35951 9.29959 2.73976 9.06622 3.11841C8.88005 3.4205 8.69255 3.72179 8.50551 4.02327C8.28097 4.3851 8.05691 4.74715 7.83154 5.10834C7.62247 5.44323 7.40452 5.77283 7.20312 6.11213L8.79418 9.35144C8.78763 9.3177 8.79395 9.28487 8.82413 9.2484C8.9481 9.09885 9.06334 8.94217 9.18348 8.78944C9.49732 8.39047 9.81277 7.99276 10.1262 7.5934C10.378 7.27241 10.5876 6.92432 10.7506 6.55116C10.8678 6.28287 10.9824 6.01024 11.0608 5.72911C11.1466 5.42115 11.1896 5.10124 11.2511 4.78647C11.3277 4.39412 11.3187 3.99682 11.2987 3.60167C11.2878 3.38734 11.2587 3.20165 11.2215 2.98866C11.2158 2.95628 11.2075 2.9243 11.2021 2.89185C11.1842 2.78502 11.1496 2.64828 11.1186 2.5455C11.0044 2.16813 10.8595 1.80258 10.6519 1.46556C10.5639 1.32259 10.4648 1.18643 10.3617 1.03376C10.1521 1.36634 9.95657 1.67277 9.76487 1.98157Z" fill="url(#paint0_linear_2830_1130)"/>
<g opacity="0.550003">
<path d="M8.77382 9.32727L9.08454 8.91694L7.20215 6.11338L8.77382 9.32727Z" fill="black"/>
</g>
<path d="M8.82459 9.25035C8.82491 9.24993 8.82526 9.24951 8.82562 9.24909C8.82526 9.24951 8.82491 9.24993 8.82459 9.25035ZM8.80469 9.28235C8.80976 9.27188 8.8157 9.26132 8.82459 9.25035C8.81573 9.26132 8.80963 9.27188 8.80469 9.28235Z" fill="url(#paint1_linear_2830_1130)"/>
<path d="M8.79718 9.30764C8.79795 9.30407 8.79888 9.30051 8.8001 9.29691C8.79885 9.30051 8.79792 9.30407 8.79718 9.30764ZM8.7959 9.3147C8.79628 9.31235 8.7967 9.30998 8.79718 9.30764C8.79667 9.30998 8.79625 9.31235 8.7959 9.3147Z" fill="url(#paint2_linear_2830_1130)"/>
<path d="M7.81539 5.13692C7.82139 5.12735 7.82739 5.11772 7.8334 5.10812C7.82739 5.11775 7.82139 5.12732 7.81539 5.13692ZM7.14733 6.20821C6.89393 6.64535 6.6553 7.09137 6.42069 7.53897C6.175 8.00772 5.98891 8.49744 5.88498 9.02095C5.76675 9.61621 5.85881 10.1752 6.15378 10.6912C6.40929 11.1381 6.70676 11.5612 6.98901 11.9927C7.23734 12.3723 7.49041 12.7486 7.74104 13.1267C7.92514 13.4043 8.10865 13.6823 8.29534 13.9646C8.37373 13.9177 8.44779 13.8776 8.51731 13.8308C8.59474 13.7786 8.67159 13.7245 8.74262 13.664C9.32761 13.1661 9.68696 12.5542 9.70712 11.767C9.7164 11.4046 9.61448 11.0738 9.47546 10.7441C9.41563 10.6328 9.34767 10.5258 9.2923 10.4124C9.23253 10.2901 9.18711 10.161 9.12836 10.0382C9.02568 9.82377 8.91718 9.61207 8.81202 9.3988C8.80393 9.38243 8.79905 9.36673 8.79604 9.35123L7.20498 6.11191C7.4006 5.78235 7.61184 5.46193 7.81539 5.13692C7.59194 5.49364 7.35829 5.8443 7.14733 6.20821Z" fill="url(#paint3_linear_2830_1130)"/>
<path d="M2.48778 9.28139C2.52338 9.32646 2.52832 9.37034 2.50126 9.42167C2.44079 9.53629 2.3814 9.65156 2.32417 9.76786C2.17291 10.0752 2.0285 10.3861 1.87082 10.6901C1.74618 10.9304 1.64513 11.1812 1.61525 11.4469C1.57345 11.8178 1.59733 12.1907 1.73719 12.5437C1.97069 13.1333 2.35059 13.6011 2.90703 13.9171C3.0217 13.9822 3.01954 13.9805 3.09386 13.8672C3.43771 13.343 3.78114 12.8184 4.12827 12.2963C4.24258 12.1244 4.3573 11.9528 4.46946 11.7796L1.99216 8.65102C2.15731 8.8612 2.32205 9.07168 2.48778 9.28139Z" fill="url(#paint4_linear_2830_1130)"/>
<path d="M4.47363 11.7776C4.58049 11.6125 4.68459 11.4459 4.78346 11.2761C4.68456 11.4458 4.58049 11.6125 4.47363 11.7776Z" fill="url(#paint5_linear_2830_1130)"/>
<path d="M4.8708 11.1241C4.88836 11.0923 4.90572 11.0604 4.92286 11.0284C4.90569 11.0604 4.88836 11.0923 4.8708 11.1241ZM4.81738 11.219C4.83542 11.1875 4.85321 11.1559 4.8708 11.1241C4.85321 11.1559 4.83542 11.1875 4.81738 11.219Z" fill="url(#paint6_linear_2830_1130)"/>
<path d="M4.95898 10.9572C5.00232 10.8741 5.04447 10.7904 5.08411 10.7051C5.04447 10.7904 5.00232 10.8741 4.95898 10.9572Z" fill="url(#paint7_linear_2830_1130)"/>
<path d="M0.930785 1.13095C0.725058 1.39285 0.556791 1.67757 0.422421 1.98178C0.283622 2.2961 0.169636 2.61951 0.118887 2.96047C0.0743643 3.25935 0.0286547 3.55929 0.00936277 3.86042C-0.0116626 4.18954 0.00108069 4.52026 0.0643814 4.84652C0.114168 5.10332 0.155545 5.36201 0.213806 5.61685C0.250014 5.77536 0.300828 5.93233 0.362556 6.08281C0.482834 6.37621 0.603592 6.67046 0.74589 6.95342C0.925809 7.31133 1.17628 7.6235 1.42753 7.93458C1.61855 8.17109 1.80698 8.40972 1.99486 8.64877L4.45591 11.8029C4.67942 11.4577 4.90852 11.0809 5.08273 10.7064C5.23578 10.3774 5.35689 10.0397 5.42497 9.67946C5.53138 9.11605 5.45303 8.57674 5.22027 8.06693C5.05204 7.69839 4.83379 7.35175 4.62601 7.00234C4.40138 6.62466 4.16281 6.25529 3.93063 5.88209C3.70449 5.5185 3.47899 5.15459 3.25278 4.79102C3.02436 4.42393 2.7945 4.05774 2.5671 3.69C2.38096 3.389 2.19879 3.08553 2.01264 2.78453C1.80098 2.44219 1.58684 2.10136 1.37376 1.75988C1.23952 1.54475 1.10525 1.32965 0.967186 1.10841C0.946675 1.12087 0.936274 1.12395 0.930785 1.13095Z" fill="url(#paint8_linear_2830_1130)"/>
<g opacity="0.300003">
<path d="M4.44467 11.7831L2.53101 9.35384L2.35254 9.72071L4.44467 11.7831Z" fill="black"/>
</g>
<defs>
<linearGradient id="paint0_linear_2830_1130" x1="7.77525" y1="8.31922" x2="11.9279" y2="1.599" gradientUnits="userSpaceOnUse">
<stop stop-color="#1085E2"/>
<stop offset="1" stop-color="#01C5F9"/>
</linearGradient>
<linearGradient id="paint1_linear_2830_1130" x1="7.53186" y1="6.8702" x2="10.5064" y2="12.4226" gradientUnits="userSpaceOnUse">
<stop stop-color="#05369C"/>
<stop offset="1" stop-color="#229AF1"/>
</linearGradient>
<linearGradient id="paint2_linear_2830_1130" x1="7.50286" y1="6.88793" x2="10.4775" y2="12.44" gradientUnits="userSpaceOnUse">
<stop stop-color="#05369C"/>
<stop offset="1" stop-color="#229AF1"/>
</linearGradient>
<linearGradient id="paint3_linear_2830_1130" x1="6.68434" y1="7.32345" x2="9.6589" y2="12.876" gradientUnits="userSpaceOnUse">
<stop stop-color="#05369C"/>
<stop offset="1" stop-color="#229AF1"/>
</linearGradient>
<linearGradient id="paint4_linear_2830_1130" x1="3.43032" y1="9.82498" x2="1.60592" y2="13.3945" gradientUnits="userSpaceOnUse">
<stop stop-color="#05369C"/>
<stop offset="1" stop-color="#229AF1"/>
</linearGradient>
<linearGradient id="paint5_linear_2830_1130" x1="5.07159" y1="10.66" x2="3.2472" y2="14.2294" gradientUnits="userSpaceOnUse">
<stop stop-color="#05369C"/>
<stop offset="1" stop-color="#229AF1"/>
</linearGradient>
<linearGradient id="paint6_linear_2830_1130" x1="5.10001" y1="10.6739" x2="3.27559" y2="14.2434" gradientUnits="userSpaceOnUse">
<stop stop-color="#05369C"/>
<stop offset="1" stop-color="#229AF1"/>
</linearGradient>
<linearGradient id="paint7_linear_2830_1130" x1="5.10207" y1="10.674" x2="3.27768" y2="14.2435" gradientUnits="userSpaceOnUse">
<stop stop-color="#05369C"/>
<stop offset="1" stop-color="#229AF1"/>
</linearGradient>
<linearGradient id="paint8_linear_2830_1130" x1="-0.932745" y1="1.74372" x2="6.19704" y2="11.0606" gradientUnits="userSpaceOnUse">
<stop stop-color="#1085E2"/>
<stop offset="1" stop-color="#01C5F9"/>
</linearGradient>
</defs>
</svg>
