<svg width="41" height="40" viewBox="0 0 41 40" fill="none" xmlns="http://www.w3.org/2000/svg">
<path d="M20.9 15.3L18.8 13.2L22.5 9.5H13.4V6.5H22.5L18.8 2.8L20.9 0.7L28.2 8L20.9 15.3ZM11.3894 40C10.3965 40 9.55 39.6465 8.85 38.9394C8.15 38.2323 7.8 37.3823 7.8 36.3894C7.8 35.3965 8.15353 34.55 8.8606 33.85C9.5677 33.15 10.4177 32.8 11.4106 32.8C12.4035 32.8 13.25 33.1535 13.95 33.8606C14.65 34.5677 15 35.4177 15 36.4106C15 37.4035 14.6465 38.25 13.9394 38.95C13.2323 39.65 12.3823 40 11.3894 40ZM31.5894 40C30.5965 40 29.75 39.6465 29.05 38.9394C28.35 38.2323 28 37.3823 28 36.3894C28 35.3965 28.3535 34.55 29.0606 33.85C29.7677 33.15 30.6177 32.8 31.6106 32.8C32.6035 32.8 33.45 33.1535 34.15 33.8606C34.85 34.5677 35.2 35.4177 35.2 36.4106C35.2 37.4035 34.8465 38.25 34.1394 38.95C33.4323 39.65 32.5823 40 31.5894 40ZM0 3V0H5.8L14.3 18.2H28.6853L36.7 4.2H40.05L31.95 19.35C31.5833 19.9833 31.1073 20.4917 30.522 20.875C29.9367 21.2583 29.296 21.45 28.6 21.45H13.45L10.65 26.65H35.2V29.65H11.1C9.84457 29.65 8.88903 29.15 8.2334 28.15C7.5778 27.15 7.53333 26.1333 8.1 25.1L11.3 19.2L3.9 3H0Z" fill="black" fill-opacity="0.7"/>
</svg>
