<svg width="22" height="21" viewBox="0 0 22 21" fill="none" xmlns="http://www.w3.org/2000/svg">
<path d="M8.9375 13.2H16.775C17.0133 13.2 17.2104 13.1221 17.3663 12.9663C17.5221 12.8104 17.6 12.6133 17.6 12.375C17.6 12.1367 17.5221 11.9396 17.3663 11.7837C17.2104 11.6279 17.0133 11.55 16.775 11.55H10.5875L8.9375 13.2ZM4.8125 13.2H6.2425C6.3525 13.2 6.45333 13.1771 6.545 13.1313C6.63667 13.0854 6.72833 13.0258 6.82 12.9525L13.5025 6.3525C13.6125 6.2425 13.6675 6.105 13.6675 5.94C13.6675 5.775 13.6125 5.6375 13.5025 5.5275L11.99 4.1525C11.8983 4.06083 11.7837 4.015 11.6462 4.015C11.5087 4.015 11.3942 4.06083 11.3025 4.1525L4.6475 10.9175C4.57417 11.0092 4.51458 11.1008 4.46875 11.1925C4.42292 11.2842 4.4 11.385 4.4 11.495V12.7875C4.4 12.8975 4.44125 12.9937 4.52375 13.0763C4.60625 13.1588 4.7025 13.2 4.8125 13.2ZM0 20.02V1.65C0 1.22833 0.165 0.847917 0.495 0.50875C0.825 0.169583 1.21 0 1.65 0H20.35C20.7717 0 21.1521 0.169583 21.4913 0.50875C21.8304 0.847917 22 1.22833 22 1.65V15.95C22 16.3717 21.8304 16.7521 21.4913 17.0913C21.1521 17.4304 20.7717 17.6 20.35 17.6H4.4L1.4025 20.5975C1.14583 20.8542 0.847917 20.9138 0.50875 20.7763C0.169583 20.6388 0 20.3867 0 20.02ZM1.65 18.0125L3.7125 15.95H20.35V1.65H1.65V18.0125Z" fill="black" fill-opacity="0.8"/>
</svg>
