<svg width="44" height="47" viewBox="0 0 44 47" fill="none" xmlns="http://www.w3.org/2000/svg">
<path d="M6.6 34V17.05H9.6V34H6.6ZM18.7 34V17.05H21.7V34H18.7ZM0 14.05V11.4L20 0L40 11.4V14.05H0ZM6.7 11.05H33.3L20 3.45L6.7 11.05ZM0 40V37H25C25.0667 37.4667 25.125 37.9417 25.175 38.425C25.225 38.9083 25.35 39.4333 25.55 40H0ZM30.4 25.45V17.05H33.4V23.95L30.4 25.45ZM36 46.05C33.7 45.4833 31.7917 44.1583 30.275 42.075C28.7583 39.9917 28 37.6833 28 35.15V30.05L36 26.05L44 30.05V35.15C44 37.6833 43.2417 39.9917 41.725 42.075C40.2083 44.1583 38.3 45.4833 36 46.05ZM34.95 40.05L42.05 32.95L40.65 31.55L34.95 37.25L32 34.3L30.6 35.7L34.95 40.05Z" fill="black" fill-opacity="0.6"/>
</svg>
