<svg width="24" height="24" viewBox="0 0 24 24" fill="none" xmlns="http://www.w3.org/2000/svg">
<path d="M15.7445 2.66675C15.6894 2.95025 15.6619 3.23843 15.6625 3.52724C15.6625 6.11839 17.7636 8.21894 20.3555 8.21894C20.6409 8.21754 20.9256 8.1901 21.206 8.13699V17.4385C21.206 21.3516 18.9005 23.6667 14.9862 23.6667H6.46096C2.53647 23.6667 0.230957 21.3516 0.230957 17.4385V8.91553C0.230957 5.00236 2.53647 2.66675 6.46096 2.66675H15.7445ZM15.8853 9.66005L15.7486 9.6686C15.5207 9.70142 15.3159 9.82518 15.1809 10.0116L12.3733 13.6277L9.17634 11.1077C8.99382 10.9654 8.76163 10.9025 8.53219 10.9333C8.30275 10.9642 8.09541 11.0861 7.95698 11.2716L4.51409 15.7175C4.39307 15.8685 4.32792 16.0567 4.32964 16.2502L4.33267 16.3789C4.36604 16.7173 4.59782 17.0096 4.9298 17.1145C5.30328 17.2326 5.70938 17.0836 5.91789 16.7521L8.79721 13.0233L11.9942 15.5331C12.176 15.6799 12.4097 15.7464 12.6416 15.7174C12.8735 15.6884 13.0837 15.5664 13.2238 15.3794L16.554 11.077V11.0565C16.8391 10.673 16.7663 10.1321 16.39 9.83748C16.2079 9.69671 15.9765 9.63578 15.7486 9.6686L15.8853 9.66005Z" fill="#ECB903"/>
<path opacity="0.4" d="M20.6232 6.16671C22.2321 6.16671 23.5364 4.86087 23.5364 3.25004C23.5364 1.63921 22.2321 0.333374 20.6232 0.333374C19.0142 0.333374 17.71 1.63921 17.71 3.25004C17.71 4.86087 19.0142 6.16671 20.6232 6.16671Z" fill="#ECB903"/>
</svg>
