<svg width="48" height="48" viewBox="0 0 48 48" fill="none" xmlns="http://www.w3.org/2000/svg">
<rect width="48" height="48" rx="24" fill="#4B1A85" fill-opacity="0.1"/>
<path d="M29.6224 30.0494L29.662 30.1167L29.7398 30.1229L31.0581 30.2279L31.1333 30.2339L31.183 30.177C32.7348 28.4002 33.5183 26.3353 33.5183 24C33.5183 23.9478 33.5062 23.8979 33.4984 23.8658C33.4978 23.8633 33.4973 23.8609 33.4967 23.8586C33.4877 23.8212 33.4833 23.7993 33.4833 23.7784V23.778V23.7776V23.7771V23.7767V23.7763V23.7759V23.7755V23.7751V23.7747V23.7743V23.7739V23.7735V23.7731V23.7727V23.7723V23.7718V23.7714V23.771V23.7706V23.7702V23.7698V23.7694V23.769V23.7686V23.7682V23.7678V23.7674V23.767V23.7666V23.7662V23.7658V23.7654V23.765V23.7646V23.7642V23.7638V23.7634V23.763V23.7626V23.7622V23.7618V23.7614V23.761V23.7606V23.7602V23.7598V23.7594V23.759V23.7586V23.7582V23.7578V23.7574V23.757V23.7566V23.7562V23.7558V23.7554V23.7551V23.7547V23.7543V23.7539V23.7535V23.7531V23.7527V23.7523V23.7519V23.7515V23.7511V23.7507V23.7503V23.75V23.7496V23.7492V23.7488V23.7484V23.748V23.7476V23.7472V23.7468V23.7465V23.7461V23.7457V23.7453V23.7449V23.7445V23.7441V23.7438V23.7434V23.743V23.7426V23.7422V23.7418V23.7415V23.7411V23.7407V23.7403V23.7399V23.7395V23.7392V23.7388V23.7384V23.738V23.7376V23.7373V23.7369V23.7365V23.7361V23.7357V23.7354V23.735V23.7346V23.7342V23.7339V23.7335V23.7331V23.7327V23.7324V23.732V23.7316V23.7312V23.7309V23.7305V23.7301V23.7297V23.7294V23.729V23.7286V23.7282V23.7279V23.7275V23.7271V23.7268V23.7264V23.726V23.7257V23.7253V23.7249V23.7245V23.7242V23.7238V23.7234V23.7231V23.7227V23.7223V23.722V23.7216V23.7212V23.7209V23.7205V23.7201V23.7198V23.7194V23.7191V23.7187V23.7183V23.718V23.7176V23.7172V23.7169V23.7165V23.7162V23.7158V23.7154V23.7151V23.7147V23.7144V23.714V23.7136V23.7133V23.7129V23.7126V23.7122V23.7119V23.7115V23.7112V23.7108V23.7104V23.7101V23.7097V23.7094V23.709V23.7087V23.7083V23.708V23.7076V23.7073V23.7069V23.7066V23.7062V23.7059V23.7055V23.7052V23.7048V23.7045V23.7041V23.7038V23.7034V23.7031V23.7027V23.7024V23.702V23.7017V23.7013V23.701V23.7007V23.7003V23.7V23.6996V23.6993V23.6989V23.6986V23.6983V23.6979V23.6976V23.6972V23.6969V23.6965V23.6962V23.6959V23.6955V23.6952V23.6949V23.6945V23.6942V23.6938V23.6935V23.6932V23.6928V23.6925V23.6922V23.6918V23.6915V23.6912V23.6908V23.6905V23.6902V23.6898V23.6895V23.6892V23.6888V23.6885V23.6882V23.6878V23.6875V23.6872V23.6869V23.6865V23.6862V23.6859V23.6855V23.6852V23.6849V23.6846V23.6842V23.6839V23.6836V23.6833V23.6829V23.6826V23.6823V23.682V23.6816V23.6813V23.681V23.6807V23.6804V23.68V23.6797V23.6794V23.6791V23.6788V23.6784V23.6781V23.6778V23.6775V23.6772V23.6769V23.6765V23.6762V23.6759V23.6756V23.6753V23.675V23.6747V23.6743V23.674V23.6737V23.6734V23.6731V23.6728V23.6725V23.6722V23.6718V23.6715V23.6712V23.6709V23.6706V23.6703V23.67V23.6697V23.6694V23.6691V23.6688V23.6685V23.6682V23.6679V23.6676V23.6673V23.6669V23.6666V23.6663V23.666V23.6657V23.6654V23.6651V23.6648V23.6645V23.6642V23.6639V23.6636V23.6633V23.6631V23.6628V23.6625V23.6622V23.6619V23.6616V23.6613V23.661V23.6607V23.6604V23.6601V23.6598V23.6595V23.6592V23.6589V23.6586V23.6584V23.6581V23.6578V23.6575V23.6572V23.6569V23.6566V23.6563V23.656V23.6558V23.6555V23.6552V23.6549V23.6546V23.6543V23.6541V23.6538V23.6535V23.6532V23.6529V23.6526V23.6524V23.6521V23.6518V23.6515V23.6512V23.651V23.6507V23.6504V23.6501V23.6499V23.6496V23.6493V23.649V23.6487V23.6485V23.6482V23.6479V23.6477V23.6474V23.6471V23.6468V23.6466V23.6463V23.646V23.6458V23.6455V23.6452V23.6449V23.6447V23.6444V23.6441V23.6439V23.6436V23.6433V23.6431V23.6428V23.6426V23.6423V23.642V23.6418V23.6415V23.6412V23.641V23.6407V23.6405V23.6402V23.6399V23.6397V23.6394V23.6392V23.6389V23.6386V23.6384V23.6381V23.6379V23.6376V23.6374V23.6371V23.6369V23.6366V23.6364V23.6361V23.6358V23.6356V23.6353V23.6351V23.6348V23.6346V23.6343V23.6341V23.6339V23.6336V23.6334V23.6331V23.6329V23.6326V23.6324V23.6321V23.6319V23.6316V23.6314V23.6312V23.6309V23.6307V23.6304V23.6302V23.63V23.6297V23.6295V23.6292V23.629V23.6288V23.6285V23.6283V23.6281V23.6278V23.6276V23.6273V23.6271V23.6269V23.6266V23.6264V23.6262V23.626V23.6257V23.6255V23.6253V23.625V23.6248V23.6246V23.6243V23.6241V23.6239V23.6237V23.6234V23.6232V23.623V23.6228V23.6225V23.6223V23.6221V23.6219V23.6217V23.6214V23.6212V23.621V23.6208V23.6206V23.6203V23.6201V23.6199V23.6197V23.6195V23.6192V23.619V23.6188V23.6186V23.6184V23.6182V23.618V23.6178V23.6175V23.6173V23.6171V23.6169V23.6167V23.6165V23.6163V23.6161V23.6159V23.6157V23.6155V23.6152V23.615V23.54L33.4233 23.495L32.2567 22.62L32.1938 22.5729L32.1192 22.5977L30.4742 23.1461L30.4032 23.1698L30.3794 23.2408L28.6761 28.3392L28.6544 28.4039L28.6891 28.4628L29.6224 30.0494ZM21.233 27.5483L21.2676 27.65H21.375H26.625H26.7324L26.767 27.5483L28.3654 22.8467L28.4016 22.7402L28.3095 22.6756L24.0862 19.7123L24 19.6518L23.9139 19.7123L19.6905 22.6756L19.5985 22.7402L19.6347 22.8467L21.233 27.5483ZM20.9469 32.9407L20.9733 32.9985L21.0332 33.0198C21.9717 33.3524 22.957 33.5184 24 33.5184C25.043 33.5184 26.0283 33.3524 26.9668 33.0198L27.0267 32.9985L27.0531 32.9407L27.8581 31.1791L27.8896 31.1102L27.8529 31.044L27.1412 29.7606L27.0983 29.6834H27.01H21.0483H20.9634L20.9197 29.7562L20.1497 31.0395L20.1091 31.1072L20.1419 31.1791L20.9469 32.9407ZM16.816 30.1758L16.8657 30.234L16.9419 30.2279L18.2603 30.1229L18.3381 30.1167L18.3776 30.0494L19.311 28.4628L19.3456 28.4039L19.3239 28.3392L17.6206 23.2408L17.5969 23.1698L17.5258 23.1461L15.8808 22.5977L15.8062 22.5729L15.7433 22.62L14.5767 23.495L14.5167 23.54V23.615V23.6152V23.6155V23.6157V23.6159V23.6161V23.6163V23.6165V23.6167V23.6169V23.6171V23.6173V23.6175V23.6178V23.618V23.6182V23.6184V23.6186V23.6188V23.619V23.6192V23.6195V23.6197V23.6199V23.6201V23.6203V23.6206V23.6208V23.621V23.6212V23.6214V23.6217V23.6219V23.6221V23.6223V23.6225V23.6228V23.623V23.6232V23.6234V23.6237V23.6239V23.6241V23.6243V23.6246V23.6248V23.625V23.6253V23.6255V23.6257V23.626V23.6262V23.6264V23.6266V23.6269V23.6271V23.6273V23.6276V23.6278V23.6281V23.6283V23.6285V23.6288V23.629V23.6292V23.6295V23.6297V23.63V23.6302V23.6304V23.6307V23.6309V23.6312V23.6314V23.6316V23.6319V23.6321V23.6324V23.6326V23.6329V23.6331V23.6334V23.6336V23.6339V23.6341V23.6343V23.6346V23.6348V23.6351V23.6353V23.6356V23.6358V23.6361V23.6364V23.6366V23.6369V23.6371V23.6374V23.6376V23.6379V23.6381V23.6384V23.6386V23.6389V23.6392V23.6394V23.6397V23.6399V23.6402V23.6405V23.6407V23.641V23.6412V23.6415V23.6418V23.642V23.6423V23.6426V23.6428V23.6431V23.6433V23.6436V23.6439V23.6441V23.6444V23.6447V23.6449V23.6452V23.6455V23.6458V23.646V23.6463V23.6466V23.6468V23.6471V23.6474V23.6477V23.6479V23.6482V23.6485V23.6487V23.649V23.6493V23.6496V23.6499V23.6501V23.6504V23.6507V23.651V23.6512V23.6515V23.6518V23.6521V23.6524V23.6526V23.6529V23.6532V23.6535V23.6538V23.6541V23.6543V23.6546V23.6549V23.6552V23.6555V23.6558V23.656V23.6563V23.6566V23.6569V23.6572V23.6575V23.6578V23.6581V23.6584V23.6586V23.6589V23.6592V23.6595V23.6598V23.6601V23.6604V23.6607V23.661V23.6613V23.6616V23.6619V23.6622V23.6625V23.6628V23.6631V23.6633V23.6636V23.6639V23.6642V23.6645V23.6648V23.6651V23.6654V23.6657V23.666V23.6663V23.6666V23.6669V23.6673V23.6676V23.6679V23.6682V23.6685V23.6688V23.6691V23.6694V23.6697V23.67V23.6703V23.6706V23.6709V23.6712V23.6715V23.6718V23.6722V23.6725V23.6728V23.6731V23.6734V23.6737V23.674V23.6743V23.6747V23.675V23.6753V23.6756V23.6759V23.6762V23.6765V23.6769V23.6772V23.6775V23.6778V23.6781V23.6784V23.6788V23.6791V23.6794V23.6797V23.68V23.6804V23.6807V23.681V23.6813V23.6816V23.682V23.6823V23.6826V23.6829V23.6833V23.6836V23.6839V23.6842V23.6846V23.6849V23.6852V23.6855V23.6859V23.6862V23.6865V23.6869V23.6872V23.6875V23.6878V23.6882V23.6885V23.6888V23.6892V23.6895V23.6898V23.6902V23.6905V23.6908V23.6912V23.6915V23.6918V23.6922V23.6925V23.6928V23.6932V23.6935V23.6938V23.6942V23.6945V23.6949V23.6952V23.6955V23.6959V23.6962V23.6965V23.6969V23.6972V23.6976V23.6979V23.6983V23.6986V23.6989V23.6993V23.6996V23.7V23.7003V23.7007V23.701V23.7013V23.7017V23.702V23.7024V23.7027V23.7031V23.7034V23.7038V23.7041V23.7045V23.7048V23.7052V23.7055V23.7059V23.7062V23.7066V23.7069V23.7073V23.7076V23.708V23.7083V23.7087V23.709V23.7094V23.7097V23.7101V23.7104V23.7108V23.7112V23.7115V23.7119V23.7122V23.7126V23.7129V23.7133V23.7136V23.714V23.7144V23.7147V23.7151V23.7154V23.7158V23.7162V23.7165V23.7169V23.7172V23.7176V23.718V23.7183V23.7187V23.7191V23.7194V23.7198V23.7201V23.7205V23.7209V23.7212V23.7216V23.722V23.7223V23.7227V23.7231V23.7234V23.7238V23.7242V23.7245V23.7249V23.7253V23.7257V23.726V23.7264V23.7268V23.7271V23.7275V23.7279V23.7282V23.7286V23.729V23.7294V23.7297V23.7301V23.7305V23.7309V23.7312V23.7316V23.732V23.7324V23.7327V23.7331V23.7335V23.7339V23.7342V23.7346V23.735V23.7354V23.7357V23.7361V23.7365V23.7369V23.7373V23.7376V23.738V23.7384V23.7388V23.7392V23.7395V23.7399V23.7403V23.7407V23.7411V23.7415V23.7418V23.7422V23.7426V23.743V23.7434V23.7438V23.7441V23.7445V23.7449V23.7453V23.7457V23.7461V23.7465V23.7468V23.7472V23.7476V23.748V23.7484V23.7488V23.7492V23.7496V23.75V23.7503V23.7507V23.7511V23.7515V23.7519V23.7523V23.7527V23.7531V23.7535V23.7539V23.7543V23.7547V23.7551V23.7554V23.7558V23.7562V23.7566V23.757V23.7574V23.7578V23.7582V23.7586V23.759V23.7594V23.7598V23.7602V23.7606V23.761V23.7614V23.7618V23.7622V23.7626V23.763V23.7634V23.7638V23.7642V23.7646V23.765V23.7654V23.7658V23.7662V23.7666V23.767V23.7674V23.7678V23.7682V23.7686V23.769V23.7694V23.7698V23.7702V23.7706V23.771V23.7714V23.7718V23.7723V23.7727V23.7731V23.7735V23.7739V23.7743V23.7747V23.7751V23.7755V23.7759V23.7763V23.7767V23.7771V23.7776V23.778V23.7784C14.5167 23.7993 14.5123 23.8212 14.5033 23.8586C14.5028 23.8609 14.5022 23.8633 14.5016 23.8658C14.4938 23.8979 14.4817 23.9478 14.4817 24C14.4817 24.9689 14.7207 26.0609 15.1799 27.2619L15.1801 27.2624C15.639 28.4509 16.1832 29.4356 16.816 30.1758ZM22.9833 16.1717V16.0934L22.9191 16.0486L21.3441 14.9519L21.2859 14.9114L21.2176 14.9307C20.2851 15.1937 19.3115 15.7058 18.297 16.4844C17.2837 17.262 16.5123 18.0674 15.9874 18.8786L15.9494 18.9374L15.97 19.0043L16.46 20.591L16.4833 20.6663L16.5585 20.6898L18.1218 21.1798L18.1918 21.2018L18.2521 21.16L22.9187 17.9284L22.9833 17.8836V17.805V16.1717ZM26.7824 14.9307L26.7142 14.9114L26.656 14.9519L25.081 16.0486L25.0167 16.0934V16.1717V17.8167V17.8953L25.0813 17.94L29.7479 21.1717L29.8088 21.2138L29.8792 21.1912L31.4425 20.6895L31.5169 20.6657L31.54 20.591L32.03 19.0043L32.0507 18.9374L32.0126 18.8786C31.4878 18.0674 30.7163 17.262 29.703 16.4844C28.6885 15.7058 27.715 15.1937 26.7824 14.9307ZM12.4833 24C12.4833 20.8328 13.6333 18.1172 15.8577 15.8578C18.1171 13.6334 20.8327 12.4834 24 12.4834C27.1694 12.4834 29.9188 13.5998 32.1415 15.857C34.3664 18.1165 35.5167 20.8324 35.5167 24C35.5167 27.1694 34.4003 29.9189 32.1431 32.1415C29.8836 34.3664 27.1677 35.5167 24 35.5167C20.8307 35.5167 18.0812 34.4003 15.8586 32.1431C13.6336 29.8836 12.4833 27.1677 12.4833 24Z" fill="#1C023B" stroke="#EDE8F3" stroke-width="0.3"/>
</svg>
