<svg width="71" height="73" viewBox="0 0 71 73" fill="none" xmlns="http://www.w3.org/2000/svg">
<path fill-rule="evenodd" clip-rule="evenodd" d="M19.6013 0.239741C15.8848 1.23767 13.6825 5.0667 14.6824 8.78974C15.6824 12.5138 19.5068 14.7236 23.2229 13.7266C26.9394 12.7287 29.1417 8.89967 28.1418 5.1756C27.1429 1.45153 23.3174 -0.758231 19.6013 0.239612V0.239741Z" fill="white"/>
<path d="M24.2145 37.0666C19.0983 58.0109 19.5839 48.4265 21.065 69.5476C21.853 73.2832 27.8814 72.5118 27.8195 68.8776L26.9537 56.5197C26.8804 55.4685 26.8658 54.7869 27.1139 53.7694L28.4157 48.4417L28.5151 53.0944C28.5895 53.9362 28.7361 54.91 29.8104 55.4967L44.8686 62.7615C48.8151 63.8895 51.2445 58.8927 47.8057 56.6317L36.38 51.1202C35.2344 50.5406 35.2394 49.5784 35.1932 48.4885L34.9687 37.7262L30.6178 21.2767C39.2788 22.1878 35.9626 20.9307 45.338 27.9911C48.035 30.0412 51.8388 26.4348 49.1595 23.5634C37.7388 14.7652 41.1936 16.6698 27.8334 14.6909C27.8238 14.714 22.0361 15.7351 19.7655 16.85C11.3707 27.9765 15.8109 25.0936 3.66065 30.4323C0.552826 31.7802 1.8361 36.8629 5.653 35.9317C18.9139 30.2761 15.0674 34.2527 21.322 25.9629L24.2149 37.0662L24.2145 37.0666Z" fill="white"/>
<path fill-rule="evenodd" clip-rule="evenodd" d="M6.96793 54.8093C3.1203 54.8093 0 57.9362 0 61.7914C0 65.6475 3.12043 68.7744 6.96793 68.7744C10.8166 68.7744 13.9369 65.6475 13.9369 61.7914C13.9369 57.9363 10.8165 54.8093 6.96793 54.8093Z" fill="white"/>
<path d="M57.0811 30.9517C55.3193 30.9517 55.3193 27.5496 57.0811 27.5496H69.2271C70.99 27.5496 70.99 30.9517 69.2271 30.9517H57.0811Z" fill="white"/>
<path d="M54.9559 22.4583C53.1931 22.4583 53.1931 19.0562 54.9559 19.0562H67.1019C68.8638 19.0562 68.8638 22.4583 67.1019 22.4583H54.9559Z" fill="white"/>
<path d="M54.9559 39.2317C53.1931 39.2317 53.1931 35.8296 54.9559 35.8296H67.1019C68.8638 35.8296 68.8638 39.2317 67.1019 39.2317H54.9559Z" fill="white"/>
</svg>
