<svg width="48" height="48" viewBox="0 0 48 48" fill="none" xmlns="http://www.w3.org/2000/svg">
<rect width="48" height="48" rx="24" fill="#4B1A85" fill-opacity="0.1"/>
<path d="M33.4833 14.6666V14.5166H33.3333H21.8143C21.7915 13.8095 21.6088 13.1152 21.2881 12.4833H33.3333C33.9124 12.4833 34.4677 12.7133 34.8772 13.1228C35.2866 13.5323 35.5167 14.0876 35.5167 14.6666V27.5C35.5167 28.079 35.2866 28.6344 34.8772 29.0438C34.4677 29.4533 33.9124 29.6833 33.3333 29.6833H22.9833V27.65H33.3333H33.4833V27.5V14.6666ZM13.5 26.1833H11.9V20.5C11.9 19.9209 12.13 19.3656 12.5395 18.9561C12.9489 18.5467 13.5043 18.3166 14.0833 18.3166H27.35V20.35H20.5H20.35V20.5V35.5166H18.3167V28.6666V28.5166H18.1667H15.8333H15.6833V28.6666V35.5166H13.65V26.3333V26.1833H13.5ZM19.1833 14.6666C19.1833 15.2457 18.9533 15.801 18.5438 16.2105C18.1344 16.62 17.5791 16.85 17 16.85C16.4209 16.85 15.8656 16.62 15.4561 16.2105C15.0467 15.801 14.8167 15.2457 14.8167 14.6666C14.8167 14.0876 15.0467 13.5323 15.4561 13.1228C15.8656 12.7133 16.4209 12.4833 17 12.4833C17.5791 12.4833 18.1344 12.7133 18.5438 13.1228C18.9533 13.5323 19.1833 14.0876 19.1833 14.6666Z" fill="#1C023B" stroke="#EDE8F3" stroke-width="0.3"/>
</svg>
