<svg width="24" height="24" viewBox="0 0 24 24" fill="none" xmlns="http://www.w3.org/2000/svg">
<g clip-path="url(#clip0_12_935)">
<path d="M23.3161 4.83108L23.3161 4.8311L23.3203 4.83267C23.3982 4.86187 23.45 4.93653 23.45 5.01987V6.75003C23.45 6.86065 23.3606 6.95003 23.25 6.95003H0.75C0.639382 6.95003 0.55 6.86065 0.55 6.75003V5.01991C0.55 5.0199 0.55 5.01989 0.55 5.01987C0.550012 4.97917 0.562437 4.93945 0.585617 4.90599C0.608806 4.87253 0.641654 4.84693 0.679772 4.83263L0.679779 4.83265L0.683848 4.83108L11.6687 0.609898C11.8825 0.530077 12.1179 0.530075 12.3318 0.609892C12.3324 0.610109 12.3329 0.610327 12.3335 0.610546L23.3161 4.83108ZM3 17.05H3.55V16.5V9.55003H5.45V16.5V17.05H6H10.5H11.05V16.5V9.55003H12.95V16.5V17.05H13.5H18H18.55V16.5V9.55003H20.45V16.5V17.05H21H21.75C21.8606 17.05 21.95 17.1394 21.95 17.25V18.95H2.05V17.25C2.05 17.1394 2.13938 17.05 2.25 17.05H3ZM0.75 21.55H23.25C23.3606 21.55 23.45 21.6394 23.45 21.75V23.25C23.45 23.3606 23.3606 23.45 23.25 23.45H0.75C0.639381 23.45 0.55 23.3606 0.55 23.25V21.75C0.55 21.6394 0.639381 21.55 0.75 21.55Z" stroke="#888888" stroke-width="1.1"/>
</g>
<defs>
<clipPath id="clip0_12_935">
<rect width="24" height="24" fill="white"/>
</clipPath>
</defs>
</svg>
