<svg width="58" height="69" viewBox="0 0 58 69" fill="none" xmlns="http://www.w3.org/2000/svg">
<path d="M8.00997 68.4C7.22997 68.4 6.53996 68.175 5.93996 67.725C5.33996 67.275 5.03999 66.69 5.03999 65.97V58.41C3.29999 57.45 2.025 56.07 1.215 54.27C0.404999 52.47 0 50.55 0 48.51V12.78C0 8.34 2.29499 5.1 6.88499 3.06C11.475 1.02 18.8099 0 28.8899 0C38.8499 0 46.125 1.02 50.715 3.06C55.305 5.1 57.6 8.34 57.6 12.78V48.51C57.6 50.55 57.195 52.47 56.385 54.27C55.575 56.07 54.3 57.45 52.56 58.41V65.97C52.56 66.69 52.2599 67.275 51.6599 67.725C51.0599 68.175 50.3699 68.4 49.5899 68.4H47.88C47.04 68.4 46.32 68.175 45.72 67.725C45.12 67.275 44.82 66.69 44.82 65.97V61.02H12.7799V65.97C12.7799 66.69 12.48 67.275 11.88 67.725C11.28 68.175 10.56 68.4 9.71999 68.4H8.00997ZM28.8899 10.44H52.1999H5.39998H28.8899ZM44.82 36.81H5.39998H52.1999H44.82ZM5.39998 31.41H52.1999V15.84H5.39998V31.41ZM14.9399 51.12C16.3199 51.12 17.4899 50.64 18.4499 49.68C19.4099 48.72 19.8899 47.55 19.8899 46.17C19.8899 44.79 6.33842 16.8 5.37842 15.84C4.41842 14.88 16.3199 41.22 14.9399 41.22C13.5599 41.22 12.39 41.7 11.43 42.66C10.47 43.62 9.99 44.79 9.99 46.17C9.99 47.55 10.47 48.72 11.43 49.68C12.39 50.64 13.5599 51.12 14.9399 51.12ZM42.66 51.12C44.04 51.12 45.21 50.64 46.17 49.68C47.13 48.72 47.61 47.55 47.61 46.17C47.61 44.79 47.13 43.62 46.17 42.66C45.21 41.7 44.04 41.22 42.66 41.22C41.28 41.22 40.11 41.7 39.15 42.66C38.19 43.62 37.71 44.79 37.71 46.17C37.71 47.55 38.19 48.72 39.15 49.68C40.11 50.64 41.28 51.12 42.66 51.12ZM5.39998 10.44H52.1999C50.7599 8.88 48 7.65 43.92 6.75C39.84 5.85 34.8299 5.4 28.8899 5.4C21.8099 5.4 16.38 5.805 12.6 6.615C8.81995 7.425 6.41998 8.7 5.39998 10.44ZM12.7799 55.62H44.82C46.92 55.62 48.675 54.81 50.085 53.19C51.495 51.57 52.1999 49.71 52.1999 47.61V36.81H5.39998V47.61C5.39998 49.71 6.105 51.57 7.515 53.19C8.925 54.81 10.6799 55.62 12.7799 55.62Z" fill="white"/>
</svg>
