<svg width="26" height="26" viewBox="0 0 26 26" fill="none" xmlns="http://www.w3.org/2000/svg">
<circle cx="12.9974" cy="13" r="10.8333" fill="#FAFAFA"/>
<path d="M12.9974 23.8333C11.5747 23.8333 10.166 23.5531 8.85166 23.0087C7.5373 22.4642 6.34304 21.6663 5.33707 20.6603C3.30543 18.6286 2.16406 15.8731 2.16406 13C2.16406 10.1268 3.30543 7.37128 5.33707 5.33964C7.36872 3.30799 10.1242 2.16663 12.9974 2.16663C14.42 2.16663 15.8288 2.44684 17.1431 2.99126C18.4575 3.53569 19.6518 4.33367 20.6577 5.33964C21.6637 6.3456 22.4617 7.53986 23.0061 8.85422C23.5505 10.1686 23.8307 11.5773 23.8307 13C23.8307 15.8731 22.6894 18.6286 20.6577 20.6603C18.6261 22.6919 15.8706 23.8333 12.9974 23.8333ZM12.9974 7.58329L7.58073 13H10.8307V17.3333H15.1641V13H18.4141L12.9974 7.58329Z" fill="#9D9D9D"/>
</svg>
