<svg width="22" height="17" viewBox="0 0 22 17" fill="none" xmlns="http://www.w3.org/2000/svg">
<path opacity="0.4" d="M21.1086 3.06275C20.6547 2.7768 20.0967 2.7515 19.6211 2.99347L18.0156 3.80404C17.422 4.10319 17.0536 4.7081 17.0536 5.3812V11.7008C17.0536 12.3739 17.422 12.9777 18.0156 13.2791L19.6201 14.0886C19.8378 14.2007 20.0707 14.2546 20.3037 14.2546C20.5832 14.2546 20.8605 14.1754 21.1086 14.0204C21.5625 13.7355 21.8333 13.2417 21.8333 12.7006V4.38365C21.8333 3.84253 21.5625 3.34871 21.1086 3.06275Z" fill="#14AB50"/>
<path d="M10.8972 16.6667H4.62246C1.9986 16.6667 0.166664 14.8575 0.166664 12.2674V4.81601C0.166664 2.22481 1.9986 0.416687 4.62246 0.416687H10.8972C13.521 0.416687 15.353 2.22481 15.353 4.81601V12.2674C15.353 14.8575 13.521 16.6667 10.8972 16.6667Z" fill="#14AB50"/>
</svg>
