<svg width="22" height="22" viewBox="0 0 22 22" fill="none" xmlns="http://www.w3.org/2000/svg">
<path d="M19.25 16.5V17.4167C19.25 17.9029 19.0568 18.3692 18.713 18.713C18.3692 19.0568 17.9029 19.25 17.4167 19.25H4.58333C3.56583 19.25 2.75 18.425 2.75 17.4167V4.58333C2.75 4.0971 2.94315 3.63079 3.28697 3.28697C3.63079 2.94315 4.0971 2.75 4.58333 2.75H17.4167C17.9029 2.75 18.3692 2.94315 18.713 3.28697C19.0568 3.63079 19.25 4.0971 19.25 4.58333V5.5H11C9.9825 5.5 9.16667 6.325 9.16667 7.33333V14.6667C9.16667 15.1529 9.35982 15.6192 9.70364 15.963C10.0475 16.3068 10.5138 16.5 11 16.5H19.25ZM11 14.6667H20.1667V7.33333H11V14.6667ZM14.6667 12.375C14.302 12.375 13.9523 12.2301 13.6944 11.9723C13.4365 11.7144 13.2917 11.3647 13.2917 11C13.2917 10.6353 13.4365 10.2856 13.6944 10.0277C13.9523 9.76987 14.302 9.625 14.6667 9.625C15.0313 9.625 15.3811 9.76987 15.6389 10.0277C15.8968 10.2856 16.0417 10.6353 16.0417 11C16.0417 11.3647 15.8968 11.7144 15.6389 11.9723C15.3811 12.2301 15.0313 12.375 14.6667 12.375Z" fill="#121212" fill-opacity="0.45"/>
</svg>
