<svg width="36" height="36" viewBox="0 0 36 36" fill="none" xmlns="http://www.w3.org/2000/svg">
<rect x="0.5" y="0.5" width="35" height="35" rx="5.5" fill="#1C023B" stroke="white"/>
<path d="M9 9.5V11.825H8.5V8.5H11.825V9H9.5H9V9.5ZM9.5 27H11.825V27.5H8.5V24.175H9V26.5V27H9.5ZM27 26.5V24.175H27.5V27.5H24.175V27H26.5H27V26.5ZM26.5 9H24.175V8.5H27.5V11.825H27V9.5V9H26.5ZM24.2 24.225H24.775V24.8H24.2V24.225ZM23.2 22.65V23.225H22.625V22.65H23.2ZM20.05 20.075H19.475V19.5H20.05V20.075ZM22.625 20.075V19.5H23.2V20.075H22.625ZM21.05 21.075H21.625V21.65H21.05V21.075ZM20.05 23.225H19.475V22.65H20.05V23.225ZM21.625 24.225V24.8H21.05V24.225H21.625ZM24.2 21.075H24.775V21.65H24.2V21.075ZM15.75 24.55H16.25V24.05V20.25V19.75H15.75H11.95H11.45V20.25V24.05V24.55H11.95H15.75ZM15.75 16.25H16.25V15.75V11.95V11.45H15.75H11.95H11.45V11.95V15.75V16.25H11.95H15.75ZM24.025 16.25H24.525V15.75V11.95V11.45H24.025H20.225H19.725V11.95V15.75V16.25H20.225H24.025ZM24.775 11.2V16.5H19.475V11.2H24.775ZM16.5 19.5V24.8H11.2V19.5H16.5ZM16.5 11.2V16.5H11.2V11.2H16.5Z" fill="white" stroke="white"/>
</svg>
